%TF.GenerationSoftware,KiCad,Pcbnew,(5.1.7)-1*%
%TF.CreationDate,2021-02-26T19:53:25+00:00*%
%TF.ProjectId,Line-Generator-V2,4c696e65-2d47-4656-9e65-7261746f722d,rev?*%
%TF.SameCoordinates,Original*%
%TF.FileFunction,Copper,L1,Top*%
%TF.FilePolarity,Positive*%
%FSLAX46Y46*%
G04 Gerber Fmt 4.6, Leading zero omitted, Abs format (unit mm)*
G04 Created by KiCad (PCBNEW (5.1.7)-1) date 2021-02-26 19:53:25*
%MOMM*%
%LPD*%
G01*
G04 APERTURE LIST*
%TA.AperFunction,ComponentPad*%
%ADD10C,1.440000*%
%TD*%
%TA.AperFunction,SMDPad,CuDef*%
%ADD11R,0.900000X1.200000*%
%TD*%
%TA.AperFunction,ComponentPad*%
%ADD12R,1.000000X1.000000*%
%TD*%
%TA.AperFunction,ComponentPad*%
%ADD13O,1.000000X1.000000*%
%TD*%
%TA.AperFunction,ComponentPad*%
%ADD14O,1.950000X1.700000*%
%TD*%
%TA.AperFunction,SMDPad,CuDef*%
%ADD15R,0.800000X0.900000*%
%TD*%
%TA.AperFunction,SMDPad,CuDef*%
%ADD16R,2.000000X1.500000*%
%TD*%
%TA.AperFunction,SMDPad,CuDef*%
%ADD17R,2.000000X3.800000*%
%TD*%
%TA.AperFunction,ComponentPad*%
%ADD18C,1.600000*%
%TD*%
%TA.AperFunction,ComponentPad*%
%ADD19O,1.600000X1.600000*%
%TD*%
%TA.AperFunction,ComponentPad*%
%ADD20C,5.600000*%
%TD*%
%TA.AperFunction,ViaPad*%
%ADD21C,0.800000*%
%TD*%
%TA.AperFunction,Conductor*%
%ADD22C,0.250000*%
%TD*%
%TA.AperFunction,Conductor*%
%ADD23C,0.254000*%
%TD*%
%TA.AperFunction,Conductor*%
%ADD24C,0.100000*%
%TD*%
G04 APERTURE END LIST*
D10*
%TO.P,RV2,1*%
%TO.N,Net-(R6-Pad1)*%
X69500000Y-60250000D03*
%TO.P,RV2,2*%
%TO.N,Net-(C3-Pad2)*%
X72040000Y-60250000D03*
%TO.P,RV2,3*%
%TO.N,+5V*%
X74580000Y-60250000D03*
%TD*%
%TO.P,RV1,1*%
%TO.N,+5V*%
X74500000Y-41250000D03*
%TO.P,RV1,2*%
%TO.N,Net-(C2-Pad2)*%
X71960000Y-41250000D03*
%TO.P,RV1,3*%
%TO.N,Net-(R2-Pad1)*%
X69420000Y-41250000D03*
%TD*%
%TO.P,C1,1*%
%TO.N,+5V*%
%TA.AperFunction,SMDPad,CuDef*%
G36*
G01*
X75225000Y-54450000D02*
X74275000Y-54450000D01*
G75*
G02*
X74025000Y-54200000I0J250000D01*
G01*
X74025000Y-53700000D01*
G75*
G02*
X74275000Y-53450000I250000J0D01*
G01*
X75225000Y-53450000D01*
G75*
G02*
X75475000Y-53700000I0J-250000D01*
G01*
X75475000Y-54200000D01*
G75*
G02*
X75225000Y-54450000I-250000J0D01*
G01*
G37*
%TD.AperFunction*%
%TO.P,C1,2*%
%TO.N,GND*%
%TA.AperFunction,SMDPad,CuDef*%
G36*
G01*
X75225000Y-52550000D02*
X74275000Y-52550000D01*
G75*
G02*
X74025000Y-52300000I0J250000D01*
G01*
X74025000Y-51800000D01*
G75*
G02*
X74275000Y-51550000I250000J0D01*
G01*
X75225000Y-51550000D01*
G75*
G02*
X75475000Y-51800000I0J-250000D01*
G01*
X75475000Y-52300000D01*
G75*
G02*
X75225000Y-52550000I-250000J0D01*
G01*
G37*
%TD.AperFunction*%
%TD*%
%TO.P,C2,2*%
%TO.N,Net-(C2-Pad2)*%
%TA.AperFunction,SMDPad,CuDef*%
G36*
G01*
X76200000Y-45725000D02*
X76200000Y-44775000D01*
G75*
G02*
X76450000Y-44525000I250000J0D01*
G01*
X76950000Y-44525000D01*
G75*
G02*
X77200000Y-44775000I0J-250000D01*
G01*
X77200000Y-45725000D01*
G75*
G02*
X76950000Y-45975000I-250000J0D01*
G01*
X76450000Y-45975000D01*
G75*
G02*
X76200000Y-45725000I0J250000D01*
G01*
G37*
%TD.AperFunction*%
%TO.P,C2,1*%
%TO.N,+5V*%
%TA.AperFunction,SMDPad,CuDef*%
G36*
G01*
X74300000Y-45725000D02*
X74300000Y-44775000D01*
G75*
G02*
X74550000Y-44525000I250000J0D01*
G01*
X75050000Y-44525000D01*
G75*
G02*
X75300000Y-44775000I0J-250000D01*
G01*
X75300000Y-45725000D01*
G75*
G02*
X75050000Y-45975000I-250000J0D01*
G01*
X74550000Y-45975000D01*
G75*
G02*
X74300000Y-45725000I0J250000D01*
G01*
G37*
%TD.AperFunction*%
%TD*%
%TO.P,C3,1*%
%TO.N,+5V*%
%TA.AperFunction,SMDPad,CuDef*%
G36*
G01*
X76950000Y-55525000D02*
X76950000Y-56475000D01*
G75*
G02*
X76700000Y-56725000I-250000J0D01*
G01*
X76200000Y-56725000D01*
G75*
G02*
X75950000Y-56475000I0J250000D01*
G01*
X75950000Y-55525000D01*
G75*
G02*
X76200000Y-55275000I250000J0D01*
G01*
X76700000Y-55275000D01*
G75*
G02*
X76950000Y-55525000I0J-250000D01*
G01*
G37*
%TD.AperFunction*%
%TO.P,C3,2*%
%TO.N,Net-(C3-Pad2)*%
%TA.AperFunction,SMDPad,CuDef*%
G36*
G01*
X75050000Y-55525000D02*
X75050000Y-56475000D01*
G75*
G02*
X74800000Y-56725000I-250000J0D01*
G01*
X74300000Y-56725000D01*
G75*
G02*
X74050000Y-56475000I0J250000D01*
G01*
X74050000Y-55525000D01*
G75*
G02*
X74300000Y-55275000I250000J0D01*
G01*
X74800000Y-55275000D01*
G75*
G02*
X75050000Y-55525000I0J-250000D01*
G01*
G37*
%TD.AperFunction*%
%TD*%
D11*
%TO.P,D1,1*%
%TO.N,+5V*%
X77950000Y-42000000D03*
%TO.P,D1,2*%
%TO.N,Net-(D1-Pad2)*%
X81250000Y-42000000D03*
%TD*%
D12*
%TO.P,D2,1*%
%TO.N,Net-(D2-Pad1)*%
X96000000Y-52000000D03*
D13*
%TO.P,D2,2*%
%TO.N,GND*%
X96000000Y-50730000D03*
%TO.P,D2,3*%
%TO.N,Net-(D2-Pad3)*%
X96000000Y-49460000D03*
%TD*%
D11*
%TO.P,D3,2*%
%TO.N,Net-(D3-Pad2)*%
X81250000Y-59200000D03*
%TO.P,D3,1*%
%TO.N,+5V*%
X77950000Y-59200000D03*
%TD*%
%TO.P,J1,1*%
%TO.N,+5V*%
%TA.AperFunction,ComponentPad*%
G36*
G01*
X70475000Y-55350000D02*
X69025000Y-55350000D01*
G75*
G02*
X68775000Y-55100000I0J250000D01*
G01*
X68775000Y-53900000D01*
G75*
G02*
X69025000Y-53650000I250000J0D01*
G01*
X70475000Y-53650000D01*
G75*
G02*
X70725000Y-53900000I0J-250000D01*
G01*
X70725000Y-55100000D01*
G75*
G02*
X70475000Y-55350000I-250000J0D01*
G01*
G37*
%TD.AperFunction*%
D14*
%TO.P,J1,2*%
%TO.N,GND*%
X69750000Y-52000000D03*
%TO.P,J1,3*%
%TO.N,Laser1*%
X69750000Y-49500000D03*
%TO.P,J1,4*%
%TO.N,Laser2*%
X69750000Y-47000000D03*
%TD*%
D15*
%TO.P,Q1,3*%
%TO.N,Net-(Q1-Pad3)*%
X83200000Y-46200000D03*
%TO.P,Q1,2*%
%TO.N,GND*%
X84150000Y-48200000D03*
%TO.P,Q1,1*%
%TO.N,Net-(Q1-Pad1)*%
X82250000Y-48200000D03*
%TD*%
D16*
%TO.P,Q2,1*%
%TO.N,Net-(Q2-Pad1)*%
X94050000Y-37300000D03*
%TO.P,Q2,3*%
%TO.N,Net-(Q2-Pad3)*%
X94050000Y-41900000D03*
%TO.P,Q2,2*%
%TO.N,Net-(D2-Pad1)*%
X94050000Y-39600000D03*
D17*
X100350000Y-39600000D03*
%TD*%
%TO.P,Q3,2*%
%TO.N,Net-(D2-Pad3)*%
X101550000Y-61000000D03*
D16*
X95250000Y-61000000D03*
%TO.P,Q3,3*%
%TO.N,Net-(Q3-Pad3)*%
X95250000Y-63300000D03*
%TO.P,Q3,1*%
%TO.N,Net-(Q3-Pad1)*%
X95250000Y-58700000D03*
%TD*%
D15*
%TO.P,Q4,1*%
%TO.N,Net-(Q4-Pad1)*%
X84150000Y-52600000D03*
%TO.P,Q4,2*%
%TO.N,GND*%
X82250000Y-52600000D03*
%TO.P,Q4,3*%
%TO.N,Net-(Q4-Pad3)*%
X83200000Y-54600000D03*
%TD*%
%TO.P,R1,1*%
%TO.N,Net-(Q1-Pad1)*%
%TA.AperFunction,SMDPad,CuDef*%
G36*
G01*
X77325000Y-49549999D02*
X77325000Y-50450001D01*
G75*
G02*
X77075001Y-50700000I-249999J0D01*
G01*
X76424999Y-50700000D01*
G75*
G02*
X76175000Y-50450001I0J249999D01*
G01*
X76175000Y-49549999D01*
G75*
G02*
X76424999Y-49300000I249999J0D01*
G01*
X77075001Y-49300000D01*
G75*
G02*
X77325000Y-49549999I0J-249999D01*
G01*
G37*
%TD.AperFunction*%
%TO.P,R1,2*%
%TO.N,Laser1*%
%TA.AperFunction,SMDPad,CuDef*%
G36*
G01*
X75275000Y-49549999D02*
X75275000Y-50450001D01*
G75*
G02*
X75025001Y-50700000I-249999J0D01*
G01*
X74374999Y-50700000D01*
G75*
G02*
X74125000Y-50450001I0J249999D01*
G01*
X74125000Y-49549999D01*
G75*
G02*
X74374999Y-49300000I249999J0D01*
G01*
X75025001Y-49300000D01*
G75*
G02*
X75275000Y-49549999I0J-249999D01*
G01*
G37*
%TD.AperFunction*%
%TD*%
%TO.P,R2,2*%
%TO.N,Net-(D1-Pad2)*%
%TA.AperFunction,SMDPad,CuDef*%
G36*
G01*
X79425000Y-39950001D02*
X79425000Y-39049999D01*
G75*
G02*
X79674999Y-38800000I249999J0D01*
G01*
X80325001Y-38800000D01*
G75*
G02*
X80575000Y-39049999I0J-249999D01*
G01*
X80575000Y-39950001D01*
G75*
G02*
X80325001Y-40200000I-249999J0D01*
G01*
X79674999Y-40200000D01*
G75*
G02*
X79425000Y-39950001I0J249999D01*
G01*
G37*
%TD.AperFunction*%
%TO.P,R2,1*%
%TO.N,Net-(R2-Pad1)*%
%TA.AperFunction,SMDPad,CuDef*%
G36*
G01*
X77375000Y-39950001D02*
X77375000Y-39049999D01*
G75*
G02*
X77624999Y-38800000I249999J0D01*
G01*
X78275001Y-38800000D01*
G75*
G02*
X78525000Y-39049999I0J-249999D01*
G01*
X78525000Y-39950001D01*
G75*
G02*
X78275001Y-40200000I-249999J0D01*
G01*
X77624999Y-40200000D01*
G75*
G02*
X77375000Y-39950001I0J249999D01*
G01*
G37*
%TD.AperFunction*%
%TD*%
%TO.P,R3,2*%
%TO.N,Net-(Q1-Pad3)*%
%TA.AperFunction,SMDPad,CuDef*%
G36*
G01*
X82650000Y-44850001D02*
X82650000Y-43949999D01*
G75*
G02*
X82899999Y-43700000I249999J0D01*
G01*
X83550001Y-43700000D01*
G75*
G02*
X83800000Y-43949999I0J-249999D01*
G01*
X83800000Y-44850001D01*
G75*
G02*
X83550001Y-45100000I-249999J0D01*
G01*
X82899999Y-45100000D01*
G75*
G02*
X82650000Y-44850001I0J249999D01*
G01*
G37*
%TD.AperFunction*%
%TO.P,R3,1*%
%TO.N,Net-(D1-Pad2)*%
%TA.AperFunction,SMDPad,CuDef*%
G36*
G01*
X80600000Y-44850001D02*
X80600000Y-43949999D01*
G75*
G02*
X80849999Y-43700000I249999J0D01*
G01*
X81500001Y-43700000D01*
G75*
G02*
X81750000Y-43949999I0J-249999D01*
G01*
X81750000Y-44850001D01*
G75*
G02*
X81500001Y-45100000I-249999J0D01*
G01*
X80849999Y-45100000D01*
G75*
G02*
X80600000Y-44850001I0J249999D01*
G01*
G37*
%TD.AperFunction*%
%TD*%
D18*
%TO.P,R4,1*%
%TO.N,Net-(Q2-Pad3)*%
X91400000Y-37600000D03*
D19*
%TO.P,R4,2*%
%TO.N,+5V*%
X83780000Y-37600000D03*
%TD*%
%TO.P,R5,2*%
%TO.N,+5V*%
X84780000Y-63200000D03*
D18*
%TO.P,R5,1*%
%TO.N,Net-(Q3-Pad3)*%
X92400000Y-63200000D03*
%TD*%
%TO.P,R6,2*%
%TO.N,Net-(D3-Pad2)*%
%TA.AperFunction,SMDPad,CuDef*%
G36*
G01*
X79450000Y-62450001D02*
X79450000Y-61549999D01*
G75*
G02*
X79699999Y-61300000I249999J0D01*
G01*
X80350001Y-61300000D01*
G75*
G02*
X80600000Y-61549999I0J-249999D01*
G01*
X80600000Y-62450001D01*
G75*
G02*
X80350001Y-62700000I-249999J0D01*
G01*
X79699999Y-62700000D01*
G75*
G02*
X79450000Y-62450001I0J249999D01*
G01*
G37*
%TD.AperFunction*%
%TO.P,R6,1*%
%TO.N,Net-(R6-Pad1)*%
%TA.AperFunction,SMDPad,CuDef*%
G36*
G01*
X77400000Y-62450001D02*
X77400000Y-61549999D01*
G75*
G02*
X77649999Y-61300000I249999J0D01*
G01*
X78300001Y-61300000D01*
G75*
G02*
X78550000Y-61549999I0J-249999D01*
G01*
X78550000Y-62450001D01*
G75*
G02*
X78300001Y-62700000I-249999J0D01*
G01*
X77649999Y-62700000D01*
G75*
G02*
X77400000Y-62450001I0J249999D01*
G01*
G37*
%TD.AperFunction*%
%TD*%
%TO.P,R7,1*%
%TO.N,Net-(D3-Pad2)*%
%TA.AperFunction,SMDPad,CuDef*%
G36*
G01*
X80600000Y-57250001D02*
X80600000Y-56349999D01*
G75*
G02*
X80849999Y-56100000I249999J0D01*
G01*
X81500001Y-56100000D01*
G75*
G02*
X81750000Y-56349999I0J-249999D01*
G01*
X81750000Y-57250001D01*
G75*
G02*
X81500001Y-57500000I-249999J0D01*
G01*
X80849999Y-57500000D01*
G75*
G02*
X80600000Y-57250001I0J249999D01*
G01*
G37*
%TD.AperFunction*%
%TO.P,R7,2*%
%TO.N,Net-(Q4-Pad3)*%
%TA.AperFunction,SMDPad,CuDef*%
G36*
G01*
X82650000Y-57250001D02*
X82650000Y-56349999D01*
G75*
G02*
X82899999Y-56100000I249999J0D01*
G01*
X83550001Y-56100000D01*
G75*
G02*
X83800000Y-56349999I0J-249999D01*
G01*
X83800000Y-57250001D01*
G75*
G02*
X83550001Y-57500000I-249999J0D01*
G01*
X82899999Y-57500000D01*
G75*
G02*
X82650000Y-57250001I0J249999D01*
G01*
G37*
%TD.AperFunction*%
%TD*%
%TO.P,R8,1*%
%TO.N,Net-(Q4-Pad1)*%
%TA.AperFunction,SMDPad,CuDef*%
G36*
G01*
X77350000Y-47299999D02*
X77350000Y-48200001D01*
G75*
G02*
X77100001Y-48450000I-249999J0D01*
G01*
X76449999Y-48450000D01*
G75*
G02*
X76200000Y-48200001I0J249999D01*
G01*
X76200000Y-47299999D01*
G75*
G02*
X76449999Y-47050000I249999J0D01*
G01*
X77100001Y-47050000D01*
G75*
G02*
X77350000Y-47299999I0J-249999D01*
G01*
G37*
%TD.AperFunction*%
%TO.P,R8,2*%
%TO.N,Laser2*%
%TA.AperFunction,SMDPad,CuDef*%
G36*
G01*
X75300000Y-47299999D02*
X75300000Y-48200001D01*
G75*
G02*
X75050001Y-48450000I-249999J0D01*
G01*
X74399999Y-48450000D01*
G75*
G02*
X74150000Y-48200001I0J249999D01*
G01*
X74150000Y-47299999D01*
G75*
G02*
X74399999Y-47050000I249999J0D01*
G01*
X75050001Y-47050000D01*
G75*
G02*
X75300000Y-47299999I0J-249999D01*
G01*
G37*
%TD.AperFunction*%
%TD*%
%TO.P,U1,1*%
%TO.N,Net-(Q2-Pad1)*%
%TA.AperFunction,SMDPad,CuDef*%
G36*
G01*
X91355000Y-45150000D02*
X91655000Y-45150000D01*
G75*
G02*
X91805000Y-45300000I0J-150000D01*
G01*
X91805000Y-46950000D01*
G75*
G02*
X91655000Y-47100000I-150000J0D01*
G01*
X91355000Y-47100000D01*
G75*
G02*
X91205000Y-46950000I0J150000D01*
G01*
X91205000Y-45300000D01*
G75*
G02*
X91355000Y-45150000I150000J0D01*
G01*
G37*
%TD.AperFunction*%
%TO.P,U1,2*%
%TO.N,Net-(Q2-Pad3)*%
%TA.AperFunction,SMDPad,CuDef*%
G36*
G01*
X90085000Y-45150000D02*
X90385000Y-45150000D01*
G75*
G02*
X90535000Y-45300000I0J-150000D01*
G01*
X90535000Y-46950000D01*
G75*
G02*
X90385000Y-47100000I-150000J0D01*
G01*
X90085000Y-47100000D01*
G75*
G02*
X89935000Y-46950000I0J150000D01*
G01*
X89935000Y-45300000D01*
G75*
G02*
X90085000Y-45150000I150000J0D01*
G01*
G37*
%TD.AperFunction*%
%TO.P,U1,3*%
%TO.N,Net-(C2-Pad2)*%
%TA.AperFunction,SMDPad,CuDef*%
G36*
G01*
X88815000Y-45150000D02*
X89115000Y-45150000D01*
G75*
G02*
X89265000Y-45300000I0J-150000D01*
G01*
X89265000Y-46950000D01*
G75*
G02*
X89115000Y-47100000I-150000J0D01*
G01*
X88815000Y-47100000D01*
G75*
G02*
X88665000Y-46950000I0J150000D01*
G01*
X88665000Y-45300000D01*
G75*
G02*
X88815000Y-45150000I150000J0D01*
G01*
G37*
%TD.AperFunction*%
%TO.P,U1,4*%
%TO.N,GND*%
%TA.AperFunction,SMDPad,CuDef*%
G36*
G01*
X87545000Y-45150000D02*
X87845000Y-45150000D01*
G75*
G02*
X87995000Y-45300000I0J-150000D01*
G01*
X87995000Y-46950000D01*
G75*
G02*
X87845000Y-47100000I-150000J0D01*
G01*
X87545000Y-47100000D01*
G75*
G02*
X87395000Y-46950000I0J150000D01*
G01*
X87395000Y-45300000D01*
G75*
G02*
X87545000Y-45150000I150000J0D01*
G01*
G37*
%TD.AperFunction*%
%TO.P,U1,5*%
%TO.N,Net-(C3-Pad2)*%
%TA.AperFunction,SMDPad,CuDef*%
G36*
G01*
X87545000Y-50100000D02*
X87845000Y-50100000D01*
G75*
G02*
X87995000Y-50250000I0J-150000D01*
G01*
X87995000Y-51900000D01*
G75*
G02*
X87845000Y-52050000I-150000J0D01*
G01*
X87545000Y-52050000D01*
G75*
G02*
X87395000Y-51900000I0J150000D01*
G01*
X87395000Y-50250000D01*
G75*
G02*
X87545000Y-50100000I150000J0D01*
G01*
G37*
%TD.AperFunction*%
%TO.P,U1,6*%
%TO.N,Net-(Q3-Pad3)*%
%TA.AperFunction,SMDPad,CuDef*%
G36*
G01*
X88815000Y-50100000D02*
X89115000Y-50100000D01*
G75*
G02*
X89265000Y-50250000I0J-150000D01*
G01*
X89265000Y-51900000D01*
G75*
G02*
X89115000Y-52050000I-150000J0D01*
G01*
X88815000Y-52050000D01*
G75*
G02*
X88665000Y-51900000I0J150000D01*
G01*
X88665000Y-50250000D01*
G75*
G02*
X88815000Y-50100000I150000J0D01*
G01*
G37*
%TD.AperFunction*%
%TO.P,U1,7*%
%TO.N,Net-(Q3-Pad1)*%
%TA.AperFunction,SMDPad,CuDef*%
G36*
G01*
X90085000Y-50100000D02*
X90385000Y-50100000D01*
G75*
G02*
X90535000Y-50250000I0J-150000D01*
G01*
X90535000Y-51900000D01*
G75*
G02*
X90385000Y-52050000I-150000J0D01*
G01*
X90085000Y-52050000D01*
G75*
G02*
X89935000Y-51900000I0J150000D01*
G01*
X89935000Y-50250000D01*
G75*
G02*
X90085000Y-50100000I150000J0D01*
G01*
G37*
%TD.AperFunction*%
%TO.P,U1,8*%
%TO.N,+5V*%
%TA.AperFunction,SMDPad,CuDef*%
G36*
G01*
X91355000Y-50100000D02*
X91655000Y-50100000D01*
G75*
G02*
X91805000Y-50250000I0J-150000D01*
G01*
X91805000Y-51900000D01*
G75*
G02*
X91655000Y-52050000I-150000J0D01*
G01*
X91355000Y-52050000D01*
G75*
G02*
X91205000Y-51900000I0J150000D01*
G01*
X91205000Y-50250000D01*
G75*
G02*
X91355000Y-50100000I150000J0D01*
G01*
G37*
%TD.AperFunction*%
%TD*%
D20*
%TO.P,H1,1*%
%TO.N,GND*%
X102000000Y-44800000D03*
%TD*%
%TO.P,H4,1*%
%TO.N,GND*%
X90000000Y-56800000D03*
%TD*%
D21*
%TO.N,+5V*%
X84000000Y-50200000D03*
X79800000Y-53600000D03*
%TO.N,Net-(C2-Pad2)*%
X83800000Y-42400000D03*
X73600000Y-43000000D03*
%TO.N,Net-(C3-Pad2)*%
X85000000Y-60400000D03*
%TO.N,Net-(Q4-Pad1)*%
X79200000Y-48600000D03*
X81000000Y-50400000D03*
%TD*%
D22*
%TO.N,+5V*%
X77950000Y-42000000D02*
X75104800Y-42000000D01*
X83780000Y-37600000D02*
X83780000Y-37679900D01*
X75104800Y-42000000D02*
X75104800Y-44945200D01*
X75104800Y-44945200D02*
X74800000Y-45250000D01*
X74500000Y-41250000D02*
X75104800Y-41854800D01*
X75104800Y-41854800D02*
X75104800Y-42000000D01*
X91505000Y-51075000D02*
X91505000Y-50496000D01*
X69750000Y-54500000D02*
X74200000Y-54500000D01*
X74200000Y-54500000D02*
X74750000Y-53950000D01*
X76596200Y-58233800D02*
X76450000Y-58087600D01*
X76450000Y-58087600D02*
X76450000Y-56000000D01*
X77562400Y-59200000D02*
X76596200Y-58233800D01*
X74580000Y-60250000D02*
X76596200Y-58233800D01*
X77950000Y-59200000D02*
X77562400Y-59200000D01*
X67600000Y-56650000D02*
X69750000Y-54500000D01*
X67600000Y-61600000D02*
X67600000Y-56650000D01*
X69200000Y-63200000D02*
X67600000Y-61600000D01*
X84780000Y-63200000D02*
X69200000Y-63200000D01*
X84000000Y-50200000D02*
X84000000Y-50200000D01*
X77400000Y-56000000D02*
X76450000Y-56000000D01*
X79800000Y-53600000D02*
X77400000Y-56000000D01*
X91505000Y-49305000D02*
X91505000Y-51075000D01*
X91175001Y-48975001D02*
X91505000Y-49305000D01*
X85224999Y-48975001D02*
X91175001Y-48975001D01*
X84000000Y-50200000D02*
X85224999Y-48975001D01*
%TO.N,GND*%
X90000000Y-56800000D02*
X88330000Y-55130000D01*
X82250000Y-52600000D02*
X81524700Y-52600000D01*
X81524700Y-52600000D02*
X80974700Y-52050000D01*
X80974700Y-52050000D02*
X74750000Y-52050000D01*
X74750000Y-52050000D02*
X74700000Y-52000000D01*
X74700000Y-52000000D02*
X71050300Y-52000000D01*
X69750000Y-52000000D02*
X71050300Y-52000000D01*
X85620000Y-48200000D02*
X87695000Y-46125000D01*
X84150000Y-48200000D02*
X85620000Y-48200000D01*
X97470000Y-50730000D02*
X96000000Y-50730000D01*
X98000000Y-50200000D02*
X97470000Y-50730000D01*
X98000000Y-48800000D02*
X98000000Y-50200000D01*
X97400000Y-48200000D02*
X98000000Y-48800000D01*
X85620000Y-48200000D02*
X97400000Y-48200000D01*
%TO.N,Net-(C2-Pad2)*%
X88965000Y-46125000D02*
X88965000Y-45728400D01*
X83800000Y-42400000D02*
X83800000Y-42400000D01*
X72520000Y-43000000D02*
X71960000Y-42440000D01*
X73600000Y-43000000D02*
X72520000Y-43000000D01*
X71960000Y-41250000D02*
X71960000Y-42440000D01*
X71960000Y-43972700D02*
X71960000Y-42440000D01*
X71960000Y-44360000D02*
X71960000Y-43972700D01*
X74000000Y-46400000D02*
X71960000Y-44360000D01*
X75600000Y-46400000D02*
X74000000Y-46400000D01*
X75638800Y-46361200D02*
X75600000Y-46400000D01*
X75638800Y-46311200D02*
X75638800Y-46361200D01*
X76700000Y-45250000D02*
X75638800Y-46311200D01*
X88965000Y-46125000D02*
X88965000Y-44435000D01*
X88965000Y-44435000D02*
X89000000Y-44400000D01*
X89000000Y-44400000D02*
X89000000Y-44000000D01*
X89000000Y-44000000D02*
X88400000Y-43400000D01*
X88400000Y-43400000D02*
X86200000Y-43400000D01*
X85200000Y-42400000D02*
X83800000Y-42400000D01*
X86200000Y-43400000D02*
X85200000Y-42400000D01*
%TO.N,Net-(C3-Pad2)*%
X72040000Y-60250000D02*
X72040000Y-58510000D01*
X72040000Y-58510000D02*
X74550000Y-56000000D01*
X87695000Y-51075000D02*
X87695000Y-53705000D01*
X87695000Y-53705000D02*
X85000000Y-56400000D01*
X85000000Y-56400000D02*
X85000000Y-60400000D01*
X85000000Y-60400000D02*
X85000000Y-60400000D01*
%TO.N,Net-(D1-Pad2)*%
X80000000Y-39500000D02*
X81250000Y-40750000D01*
X81250000Y-40750000D02*
X81250000Y-42000000D01*
X81250000Y-42000000D02*
X81250000Y-42925300D01*
X81175000Y-44400000D02*
X81175000Y-43000300D01*
X81175000Y-43000300D02*
X81250000Y-42925300D01*
%TO.N,Net-(D2-Pad1)*%
X100350000Y-40712600D02*
X99237400Y-39600000D01*
X99237400Y-39600000D02*
X94050000Y-39600000D01*
X100350000Y-39600000D02*
X100350000Y-40712600D01*
X98352000Y-41598000D02*
X100350000Y-39600000D01*
X98352000Y-46552000D02*
X98352000Y-41598000D01*
X99200000Y-51600000D02*
X99200000Y-47400000D01*
X98800000Y-52000000D02*
X99200000Y-51600000D01*
X99200000Y-47400000D02*
X98352000Y-46552000D01*
X96000000Y-52000000D02*
X98800000Y-52000000D01*
%TO.N,Net-(D2-Pad3)*%
X95250000Y-61000000D02*
X101550000Y-61000000D01*
X96000000Y-49460000D02*
X94340000Y-49460000D01*
X94340000Y-49460000D02*
X93400000Y-50400000D01*
X93400000Y-50400000D02*
X93400000Y-52600000D01*
X101550000Y-60750000D02*
X101550000Y-61000000D01*
X93400000Y-52600000D02*
X101550000Y-60750000D01*
%TO.N,Net-(D3-Pad2)*%
X80025000Y-62000000D02*
X81250000Y-60775000D01*
X81250000Y-60775000D02*
X81250000Y-59200000D01*
X81250000Y-59200000D02*
X81250000Y-58274700D01*
X81175000Y-56800000D02*
X81175000Y-58199700D01*
X81175000Y-58199700D02*
X81250000Y-58274700D01*
%TO.N,Laser1*%
X69750000Y-49500000D02*
X71050300Y-49500000D01*
X74700000Y-50000000D02*
X71550300Y-50000000D01*
X71550300Y-50000000D02*
X71050300Y-49500000D01*
%TO.N,Laser2*%
X69750000Y-47000000D02*
X71050300Y-47000000D01*
X74725000Y-47750000D02*
X71800300Y-47750000D01*
X71800300Y-47750000D02*
X71050300Y-47000000D01*
%TO.N,Net-(Q1-Pad3)*%
X83225000Y-44400000D02*
X83200000Y-44425000D01*
X83200000Y-44425000D02*
X83200000Y-46200000D01*
%TO.N,Net-(Q1-Pad1)*%
X82250000Y-48200000D02*
X81524700Y-48200000D01*
X76750000Y-50000000D02*
X79724700Y-50000000D01*
X79724700Y-50000000D02*
X81524700Y-48200000D01*
%TO.N,Net-(Q2-Pad1)*%
X89400000Y-43274300D02*
X91505000Y-45379300D01*
X89400000Y-37000000D02*
X89400000Y-43274300D01*
X92750010Y-36150010D02*
X90249990Y-36150010D01*
X91505000Y-45379300D02*
X91505000Y-46125000D01*
X93900000Y-37300000D02*
X92750010Y-36150010D01*
X90249990Y-36150010D02*
X89400000Y-37000000D01*
X94050000Y-37300000D02*
X93900000Y-37300000D01*
%TO.N,Net-(Q2-Pad3)*%
X90235000Y-46125000D02*
X90235000Y-46551800D01*
X91400000Y-37600000D02*
X91400000Y-39250000D01*
X94050000Y-41900000D02*
X91900000Y-41900000D01*
X91400000Y-41400000D02*
X91400000Y-39250000D01*
X91900000Y-41900000D02*
X91400000Y-41400000D01*
X90235000Y-46125000D02*
X90235000Y-47435000D01*
X90235000Y-47435000D02*
X90400000Y-47600000D01*
X90400000Y-47600000D02*
X93400000Y-47600000D01*
X94050000Y-46950000D02*
X94050000Y-45150000D01*
X93400000Y-47600000D02*
X94050000Y-46950000D01*
X94050000Y-45150000D02*
X94050000Y-41900000D01*
X94050000Y-45291300D02*
X94050000Y-45150000D01*
%TO.N,Net-(Q3-Pad3)*%
X95250000Y-63300000D02*
X93924700Y-63300000D01*
X92400000Y-63200000D02*
X93824700Y-63200000D01*
X93824700Y-63200000D02*
X93924700Y-63300000D01*
X88965000Y-52365000D02*
X88965000Y-51075000D01*
X88965000Y-52965000D02*
X88965000Y-51075000D01*
X89600000Y-53600000D02*
X88965000Y-52965000D01*
X91425002Y-53600000D02*
X89600000Y-53600000D01*
X93168800Y-62431200D02*
X93168800Y-55343798D01*
X93168800Y-55343798D02*
X91425002Y-53600000D01*
X92400000Y-63200000D02*
X93168800Y-62431200D01*
%TO.N,Net-(Q3-Pad1)*%
X90235000Y-51075000D02*
X90235000Y-51474700D01*
X95250000Y-56489700D02*
X95250000Y-58700000D01*
X90235000Y-51075000D02*
X90235000Y-52635000D01*
X90235000Y-52635000D02*
X90400000Y-52800000D01*
X90400000Y-52800000D02*
X92000000Y-52800000D01*
X95250000Y-56050000D02*
X95250000Y-56489700D01*
X92000000Y-52800000D02*
X95250000Y-56050000D01*
%TO.N,Net-(Q4-Pad1)*%
X76775000Y-47750000D02*
X78350000Y-47750000D01*
X78350000Y-47750000D02*
X79200000Y-48600000D01*
X79200000Y-48600000D02*
X79200000Y-48600000D01*
X84150000Y-51750000D02*
X84150000Y-52600000D01*
X83735800Y-51335800D02*
X84150000Y-51750000D01*
X81935800Y-51335800D02*
X83735800Y-51335800D01*
X81000000Y-50400000D02*
X81935800Y-51335800D01*
%TO.N,Net-(Q4-Pad3)*%
X83225000Y-56800000D02*
X83200000Y-56775000D01*
X83200000Y-56775000D02*
X83200000Y-54600000D01*
%TO.N,Net-(R2-Pad1)*%
X69420000Y-41250000D02*
X71170000Y-39500000D01*
X71170000Y-39500000D02*
X77950000Y-39500000D01*
%TO.N,Net-(R6-Pad1)*%
X69500000Y-60250000D02*
X71250000Y-62000000D01*
X71250000Y-62000000D02*
X77975000Y-62000000D01*
%TD*%
D23*
%TO.N,GND*%
X82865241Y-36485363D02*
X82665363Y-36685241D01*
X82508320Y-36920273D01*
X82400147Y-37181426D01*
X82345000Y-37458665D01*
X82345000Y-37741335D01*
X82400147Y-38018574D01*
X82508320Y-38279727D01*
X82665363Y-38514759D01*
X82865241Y-38714637D01*
X83100273Y-38871680D01*
X83361426Y-38979853D01*
X83638665Y-39035000D01*
X83921335Y-39035000D01*
X84198574Y-38979853D01*
X84459727Y-38871680D01*
X84694759Y-38714637D01*
X84894637Y-38514759D01*
X85051680Y-38279727D01*
X85159853Y-38018574D01*
X85215000Y-37741335D01*
X85215000Y-37458665D01*
X85159853Y-37181426D01*
X85051680Y-36920273D01*
X84894637Y-36685241D01*
X84694759Y-36485363D01*
X84656801Y-36460000D01*
X88859998Y-36460000D01*
X88817910Y-36511285D01*
X88765026Y-36575724D01*
X88717976Y-36663748D01*
X88694454Y-36707754D01*
X88650997Y-36851015D01*
X88640000Y-36962668D01*
X88640000Y-36962678D01*
X88636324Y-37000000D01*
X88640000Y-37037323D01*
X88640001Y-42678606D01*
X88548986Y-42650997D01*
X88437333Y-42640000D01*
X88437322Y-42640000D01*
X88400000Y-42636324D01*
X88362678Y-42640000D01*
X86514802Y-42640000D01*
X85763804Y-41889002D01*
X85740001Y-41859999D01*
X85624276Y-41765026D01*
X85492247Y-41694454D01*
X85348986Y-41650997D01*
X85237333Y-41640000D01*
X85237322Y-41640000D01*
X85200000Y-41636324D01*
X85162678Y-41640000D01*
X84503711Y-41640000D01*
X84459774Y-41596063D01*
X84290256Y-41482795D01*
X84101898Y-41404774D01*
X83901939Y-41365000D01*
X83698061Y-41365000D01*
X83498102Y-41404774D01*
X83309744Y-41482795D01*
X83140226Y-41596063D01*
X82996063Y-41740226D01*
X82882795Y-41909744D01*
X82804774Y-42098102D01*
X82765000Y-42298061D01*
X82765000Y-42501939D01*
X82804774Y-42701898D01*
X82882795Y-42890256D01*
X82996063Y-43059774D01*
X82998217Y-43061928D01*
X82899999Y-43061928D01*
X82726745Y-43078992D01*
X82560149Y-43129528D01*
X82406613Y-43211595D01*
X82272038Y-43322038D01*
X82200000Y-43409816D01*
X82127962Y-43322038D01*
X81993387Y-43211595D01*
X81962379Y-43195021D01*
X81967899Y-43176824D01*
X82054494Y-43130537D01*
X82151185Y-43051185D01*
X82230537Y-42954494D01*
X82289502Y-42844180D01*
X82325812Y-42724482D01*
X82338072Y-42600000D01*
X82338072Y-41400000D01*
X82325812Y-41275518D01*
X82289502Y-41155820D01*
X82230537Y-41045506D01*
X82151185Y-40948815D01*
X82054494Y-40869463D01*
X82010000Y-40845680D01*
X82010000Y-40787323D01*
X82013676Y-40750000D01*
X82010000Y-40712677D01*
X82010000Y-40712667D01*
X81999003Y-40601014D01*
X81955546Y-40457753D01*
X81917320Y-40386238D01*
X81884974Y-40325723D01*
X81813799Y-40238997D01*
X81790001Y-40209999D01*
X81761004Y-40186202D01*
X81213072Y-39638270D01*
X81213072Y-39049999D01*
X81196008Y-38876745D01*
X81145472Y-38710149D01*
X81063405Y-38556613D01*
X80952962Y-38422038D01*
X80818387Y-38311595D01*
X80664851Y-38229528D01*
X80498255Y-38178992D01*
X80325001Y-38161928D01*
X79674999Y-38161928D01*
X79501745Y-38178992D01*
X79335149Y-38229528D01*
X79181613Y-38311595D01*
X79047038Y-38422038D01*
X78975000Y-38509816D01*
X78902962Y-38422038D01*
X78768387Y-38311595D01*
X78614851Y-38229528D01*
X78448255Y-38178992D01*
X78275001Y-38161928D01*
X77624999Y-38161928D01*
X77451745Y-38178992D01*
X77285149Y-38229528D01*
X77131613Y-38311595D01*
X76997038Y-38422038D01*
X76886595Y-38556613D01*
X76804528Y-38710149D01*
X76795473Y-38740000D01*
X71207325Y-38740000D01*
X71170000Y-38736324D01*
X71132675Y-38740000D01*
X71132667Y-38740000D01*
X71021014Y-38750997D01*
X70877753Y-38794454D01*
X70745724Y-38865026D01*
X70629999Y-38959999D01*
X70606201Y-38988997D01*
X69675852Y-39919346D01*
X69553456Y-39895000D01*
X69286544Y-39895000D01*
X69024761Y-39947072D01*
X68778167Y-40049215D01*
X68556238Y-40197503D01*
X68367503Y-40386238D01*
X68219215Y-40608167D01*
X68117072Y-40854761D01*
X68065000Y-41116544D01*
X68065000Y-41383456D01*
X68117072Y-41645239D01*
X68219215Y-41891833D01*
X68367503Y-42113762D01*
X68556238Y-42302497D01*
X68778167Y-42450785D01*
X69024761Y-42552928D01*
X69286544Y-42605000D01*
X69553456Y-42605000D01*
X69815239Y-42552928D01*
X70061833Y-42450785D01*
X70283762Y-42302497D01*
X70472497Y-42113762D01*
X70620785Y-41891833D01*
X70690000Y-41724734D01*
X70759215Y-41891833D01*
X70907503Y-42113762D01*
X71096238Y-42302497D01*
X71200001Y-42371829D01*
X71200001Y-42402667D01*
X71196324Y-42440000D01*
X71200001Y-42477332D01*
X71200000Y-43935367D01*
X71200000Y-44322678D01*
X71196324Y-44360000D01*
X71200000Y-44397322D01*
X71200000Y-44397332D01*
X71210997Y-44508985D01*
X71241639Y-44609999D01*
X71254454Y-44652246D01*
X71325026Y-44784276D01*
X71357853Y-44824275D01*
X71419999Y-44900001D01*
X71449003Y-44923804D01*
X73436201Y-46911003D01*
X73459999Y-46940001D01*
X73520923Y-46990000D01*
X72115102Y-46990000D01*
X71614103Y-46489002D01*
X71590301Y-46459999D01*
X71474576Y-46365026D01*
X71342547Y-46294454D01*
X71199286Y-46250997D01*
X71156205Y-46246754D01*
X71115706Y-46170986D01*
X70930134Y-45944866D01*
X70704014Y-45759294D01*
X70446034Y-45621401D01*
X70166111Y-45536487D01*
X69947950Y-45515000D01*
X69552050Y-45515000D01*
X69333889Y-45536487D01*
X69053966Y-45621401D01*
X68795986Y-45759294D01*
X68569866Y-45944866D01*
X68384294Y-46170986D01*
X68246401Y-46428966D01*
X68161487Y-46708889D01*
X68132815Y-47000000D01*
X68161487Y-47291111D01*
X68246401Y-47571034D01*
X68384294Y-47829014D01*
X68569866Y-48055134D01*
X68795986Y-48240706D01*
X68813374Y-48250000D01*
X68795986Y-48259294D01*
X68569866Y-48444866D01*
X68384294Y-48670986D01*
X68246401Y-48928966D01*
X68161487Y-49208889D01*
X68132815Y-49500000D01*
X68161487Y-49791111D01*
X68246401Y-50071034D01*
X68384294Y-50329014D01*
X68569866Y-50555134D01*
X68795986Y-50740706D01*
X68821722Y-50754462D01*
X68615571Y-50910951D01*
X68422504Y-51128807D01*
X68275648Y-51380142D01*
X68183524Y-51643110D01*
X68304845Y-51873000D01*
X69623000Y-51873000D01*
X69623000Y-51853000D01*
X69877000Y-51853000D01*
X69877000Y-51873000D01*
X71195155Y-51873000D01*
X71316476Y-51643110D01*
X71224352Y-51380142D01*
X71077496Y-51128807D01*
X70884429Y-50910951D01*
X70678278Y-50754462D01*
X70704014Y-50740706D01*
X70930134Y-50555134D01*
X70975434Y-50499935D01*
X70986496Y-50510997D01*
X71010299Y-50540001D01*
X71126024Y-50634974D01*
X71258053Y-50705546D01*
X71401314Y-50749003D01*
X71512967Y-50760000D01*
X71512975Y-50760000D01*
X71550300Y-50763676D01*
X71587625Y-50760000D01*
X73545473Y-50760000D01*
X73554528Y-50789851D01*
X73636595Y-50943387D01*
X73690332Y-51008866D01*
X73670506Y-51019463D01*
X73573815Y-51098815D01*
X73494463Y-51195506D01*
X73435498Y-51305820D01*
X73399188Y-51425518D01*
X73386928Y-51550000D01*
X73390000Y-51764250D01*
X73548750Y-51923000D01*
X74623000Y-51923000D01*
X74623000Y-51903000D01*
X74877000Y-51903000D01*
X74877000Y-51923000D01*
X75951250Y-51923000D01*
X76110000Y-51764250D01*
X76113072Y-51550000D01*
X76100812Y-51425518D01*
X76064502Y-51305820D01*
X76029792Y-51240883D01*
X76085149Y-51270472D01*
X76251745Y-51321008D01*
X76424999Y-51338072D01*
X77075001Y-51338072D01*
X77248255Y-51321008D01*
X77414851Y-51270472D01*
X77568387Y-51188405D01*
X77702962Y-51077962D01*
X77813405Y-50943387D01*
X77895472Y-50789851D01*
X77904527Y-50760000D01*
X79687378Y-50760000D01*
X79724700Y-50763676D01*
X79762022Y-50760000D01*
X79762033Y-50760000D01*
X79873686Y-50749003D01*
X80007475Y-50708419D01*
X80082795Y-50890256D01*
X80196063Y-51059774D01*
X80340226Y-51203937D01*
X80509744Y-51317205D01*
X80698102Y-51395226D01*
X80898061Y-51435000D01*
X80960198Y-51435000D01*
X81320022Y-51794824D01*
X81319463Y-51795506D01*
X81260498Y-51905820D01*
X81224188Y-52025518D01*
X81211928Y-52150000D01*
X81215000Y-52314250D01*
X81373750Y-52473000D01*
X82123000Y-52473000D01*
X82123000Y-52453000D01*
X82377000Y-52453000D01*
X82377000Y-52473000D01*
X82397000Y-52473000D01*
X82397000Y-52727000D01*
X82377000Y-52727000D01*
X82377000Y-53526250D01*
X82461607Y-53610857D01*
X82445506Y-53619463D01*
X82348815Y-53698815D01*
X82269463Y-53795506D01*
X82210498Y-53905820D01*
X82174188Y-54025518D01*
X82161928Y-54150000D01*
X82161928Y-55050000D01*
X82174188Y-55174482D01*
X82210498Y-55294180D01*
X82269463Y-55404494D01*
X82348815Y-55501185D01*
X82440001Y-55576019D01*
X82440001Y-55593749D01*
X82406613Y-55611595D01*
X82272038Y-55722038D01*
X82200000Y-55809816D01*
X82127962Y-55722038D01*
X81993387Y-55611595D01*
X81839851Y-55529528D01*
X81673255Y-55478992D01*
X81500001Y-55461928D01*
X80849999Y-55461928D01*
X80676745Y-55478992D01*
X80510149Y-55529528D01*
X80356613Y-55611595D01*
X80222038Y-55722038D01*
X80111595Y-55856613D01*
X80029528Y-56010149D01*
X79978992Y-56176745D01*
X79961928Y-56349999D01*
X79961928Y-57250001D01*
X79978992Y-57423255D01*
X80029528Y-57589851D01*
X80111595Y-57743387D01*
X80222038Y-57877962D01*
X80356613Y-57988405D01*
X80415001Y-58019614D01*
X80415001Y-58094498D01*
X80348815Y-58148815D01*
X80269463Y-58245506D01*
X80210498Y-58355820D01*
X80174188Y-58475518D01*
X80161928Y-58600000D01*
X80161928Y-59800000D01*
X80174188Y-59924482D01*
X80210498Y-60044180D01*
X80269463Y-60154494D01*
X80348815Y-60251185D01*
X80445506Y-60330537D01*
X80490000Y-60354320D01*
X80490000Y-60460198D01*
X80288270Y-60661928D01*
X79699999Y-60661928D01*
X79526745Y-60678992D01*
X79360149Y-60729528D01*
X79206613Y-60811595D01*
X79072038Y-60922038D01*
X79000000Y-61009816D01*
X78927962Y-60922038D01*
X78793387Y-60811595D01*
X78639851Y-60729528D01*
X78473255Y-60678992D01*
X78300001Y-60661928D01*
X77649999Y-60661928D01*
X77476745Y-60678992D01*
X77310149Y-60729528D01*
X77156613Y-60811595D01*
X77022038Y-60922038D01*
X76911595Y-61056613D01*
X76829528Y-61210149D01*
X76820473Y-61240000D01*
X75506259Y-61240000D01*
X75632497Y-61113762D01*
X75780785Y-60891833D01*
X75882928Y-60645239D01*
X75935000Y-60383456D01*
X75935000Y-60116544D01*
X75910654Y-59994148D01*
X76596200Y-59308602D01*
X76861928Y-59574330D01*
X76861928Y-59800000D01*
X76874188Y-59924482D01*
X76910498Y-60044180D01*
X76969463Y-60154494D01*
X77048815Y-60251185D01*
X77145506Y-60330537D01*
X77255820Y-60389502D01*
X77375518Y-60425812D01*
X77500000Y-60438072D01*
X78400000Y-60438072D01*
X78524482Y-60425812D01*
X78644180Y-60389502D01*
X78754494Y-60330537D01*
X78851185Y-60251185D01*
X78930537Y-60154494D01*
X78989502Y-60044180D01*
X79025812Y-59924482D01*
X79038072Y-59800000D01*
X79038072Y-58600000D01*
X79025812Y-58475518D01*
X78989502Y-58355820D01*
X78930537Y-58245506D01*
X78851185Y-58148815D01*
X78754494Y-58069463D01*
X78644180Y-58010498D01*
X78524482Y-57974188D01*
X78400000Y-57961928D01*
X77500000Y-57961928D01*
X77408173Y-57970972D01*
X77210000Y-57772799D01*
X77210000Y-57199770D01*
X77327962Y-57102962D01*
X77438405Y-56968386D01*
X77520472Y-56814850D01*
X77540183Y-56749870D01*
X77548986Y-56749003D01*
X77692247Y-56705546D01*
X77824276Y-56634974D01*
X77940001Y-56540001D01*
X77963804Y-56510997D01*
X79839802Y-54635000D01*
X79901939Y-54635000D01*
X80101898Y-54595226D01*
X80290256Y-54517205D01*
X80459774Y-54403937D01*
X80603937Y-54259774D01*
X80717205Y-54090256D01*
X80795226Y-53901898D01*
X80835000Y-53701939D01*
X80835000Y-53498061D01*
X80795226Y-53298102D01*
X80717205Y-53109744D01*
X80677286Y-53050000D01*
X81211928Y-53050000D01*
X81224188Y-53174482D01*
X81260498Y-53294180D01*
X81319463Y-53404494D01*
X81398815Y-53501185D01*
X81495506Y-53580537D01*
X81605820Y-53639502D01*
X81725518Y-53675812D01*
X81850000Y-53688072D01*
X81964250Y-53685000D01*
X82123000Y-53526250D01*
X82123000Y-52727000D01*
X81373750Y-52727000D01*
X81215000Y-52885750D01*
X81211928Y-53050000D01*
X80677286Y-53050000D01*
X80603937Y-52940226D01*
X80459774Y-52796063D01*
X80290256Y-52682795D01*
X80101898Y-52604774D01*
X79901939Y-52565000D01*
X79698061Y-52565000D01*
X79498102Y-52604774D01*
X79309744Y-52682795D01*
X79140226Y-52796063D01*
X78996063Y-52940226D01*
X78882795Y-53109744D01*
X78804774Y-53298102D01*
X78765000Y-53498061D01*
X78765000Y-53560198D01*
X77373127Y-54952072D01*
X77327962Y-54897038D01*
X77193386Y-54786595D01*
X77039850Y-54704528D01*
X76873254Y-54653992D01*
X76700000Y-54636928D01*
X76200000Y-54636928D01*
X76026746Y-54653992D01*
X75976279Y-54669301D01*
X76045472Y-54539850D01*
X76096008Y-54373254D01*
X76113072Y-54200000D01*
X76113072Y-53700000D01*
X76096008Y-53526746D01*
X76045472Y-53360150D01*
X75963405Y-53206614D01*
X75852962Y-53072038D01*
X75846406Y-53066658D01*
X75926185Y-53001185D01*
X76005537Y-52904494D01*
X76064502Y-52794180D01*
X76100812Y-52674482D01*
X76113072Y-52550000D01*
X76110000Y-52335750D01*
X75951250Y-52177000D01*
X74877000Y-52177000D01*
X74877000Y-52197000D01*
X74623000Y-52197000D01*
X74623000Y-52177000D01*
X73548750Y-52177000D01*
X73390000Y-52335750D01*
X73386928Y-52550000D01*
X73399188Y-52674482D01*
X73435498Y-52794180D01*
X73494463Y-52904494D01*
X73573815Y-53001185D01*
X73653594Y-53066658D01*
X73647038Y-53072038D01*
X73536595Y-53206614D01*
X73454528Y-53360150D01*
X73403992Y-53526746D01*
X73386928Y-53700000D01*
X73386928Y-53740000D01*
X71347313Y-53740000D01*
X71346008Y-53726746D01*
X71295472Y-53560150D01*
X71213405Y-53406614D01*
X71102962Y-53272038D01*
X70968386Y-53161595D01*
X70863039Y-53105286D01*
X70884429Y-53089049D01*
X71077496Y-52871193D01*
X71224352Y-52619858D01*
X71316476Y-52356890D01*
X71195155Y-52127000D01*
X69877000Y-52127000D01*
X69877000Y-52147000D01*
X69623000Y-52147000D01*
X69623000Y-52127000D01*
X68304845Y-52127000D01*
X68183524Y-52356890D01*
X68275648Y-52619858D01*
X68422504Y-52871193D01*
X68615571Y-53089049D01*
X68636961Y-53105286D01*
X68531614Y-53161595D01*
X68397038Y-53272038D01*
X68286595Y-53406614D01*
X68204528Y-53560150D01*
X68153992Y-53726746D01*
X68136928Y-53900000D01*
X68136928Y-55038271D01*
X67088998Y-56086201D01*
X67060000Y-56109999D01*
X67036202Y-56138997D01*
X67036201Y-56138998D01*
X66965026Y-56225724D01*
X66894454Y-56357754D01*
X66865755Y-56452367D01*
X66850998Y-56501014D01*
X66848435Y-56527033D01*
X66836324Y-56650000D01*
X66840001Y-56687332D01*
X66840000Y-61562677D01*
X66836324Y-61600000D01*
X66840000Y-61637322D01*
X66840000Y-61637332D01*
X66850997Y-61748985D01*
X66894137Y-61891200D01*
X66894454Y-61892246D01*
X66965026Y-62024276D01*
X67004871Y-62072826D01*
X67059999Y-62140001D01*
X67089003Y-62163804D01*
X68636200Y-63711002D01*
X68659999Y-63740001D01*
X68775724Y-63834974D01*
X68907753Y-63905546D01*
X69051014Y-63949003D01*
X69162667Y-63960000D01*
X69162675Y-63960000D01*
X69200000Y-63963676D01*
X69237325Y-63960000D01*
X83561957Y-63960000D01*
X83665363Y-64114759D01*
X83865241Y-64314637D01*
X83903199Y-64340000D01*
X66232279Y-64340000D01*
X66134576Y-64330420D01*
X66071643Y-64311420D01*
X66013594Y-64280554D01*
X65962657Y-64239011D01*
X65920752Y-64188356D01*
X65889485Y-64130529D01*
X65870044Y-64067728D01*
X65860000Y-63972165D01*
X65860000Y-36832279D01*
X65869580Y-36734576D01*
X65888580Y-36671644D01*
X65919445Y-36613595D01*
X65960989Y-36562657D01*
X66011644Y-36520752D01*
X66069471Y-36489485D01*
X66132272Y-36470044D01*
X66227835Y-36460000D01*
X82903199Y-36460000D01*
X82865241Y-36485363D01*
%TA.AperFunction,Conductor*%
D24*
G36*
X82865241Y-36485363D02*
G01*
X82665363Y-36685241D01*
X82508320Y-36920273D01*
X82400147Y-37181426D01*
X82345000Y-37458665D01*
X82345000Y-37741335D01*
X82400147Y-38018574D01*
X82508320Y-38279727D01*
X82665363Y-38514759D01*
X82865241Y-38714637D01*
X83100273Y-38871680D01*
X83361426Y-38979853D01*
X83638665Y-39035000D01*
X83921335Y-39035000D01*
X84198574Y-38979853D01*
X84459727Y-38871680D01*
X84694759Y-38714637D01*
X84894637Y-38514759D01*
X85051680Y-38279727D01*
X85159853Y-38018574D01*
X85215000Y-37741335D01*
X85215000Y-37458665D01*
X85159853Y-37181426D01*
X85051680Y-36920273D01*
X84894637Y-36685241D01*
X84694759Y-36485363D01*
X84656801Y-36460000D01*
X88859998Y-36460000D01*
X88817910Y-36511285D01*
X88765026Y-36575724D01*
X88717976Y-36663748D01*
X88694454Y-36707754D01*
X88650997Y-36851015D01*
X88640000Y-36962668D01*
X88640000Y-36962678D01*
X88636324Y-37000000D01*
X88640000Y-37037323D01*
X88640001Y-42678606D01*
X88548986Y-42650997D01*
X88437333Y-42640000D01*
X88437322Y-42640000D01*
X88400000Y-42636324D01*
X88362678Y-42640000D01*
X86514802Y-42640000D01*
X85763804Y-41889002D01*
X85740001Y-41859999D01*
X85624276Y-41765026D01*
X85492247Y-41694454D01*
X85348986Y-41650997D01*
X85237333Y-41640000D01*
X85237322Y-41640000D01*
X85200000Y-41636324D01*
X85162678Y-41640000D01*
X84503711Y-41640000D01*
X84459774Y-41596063D01*
X84290256Y-41482795D01*
X84101898Y-41404774D01*
X83901939Y-41365000D01*
X83698061Y-41365000D01*
X83498102Y-41404774D01*
X83309744Y-41482795D01*
X83140226Y-41596063D01*
X82996063Y-41740226D01*
X82882795Y-41909744D01*
X82804774Y-42098102D01*
X82765000Y-42298061D01*
X82765000Y-42501939D01*
X82804774Y-42701898D01*
X82882795Y-42890256D01*
X82996063Y-43059774D01*
X82998217Y-43061928D01*
X82899999Y-43061928D01*
X82726745Y-43078992D01*
X82560149Y-43129528D01*
X82406613Y-43211595D01*
X82272038Y-43322038D01*
X82200000Y-43409816D01*
X82127962Y-43322038D01*
X81993387Y-43211595D01*
X81962379Y-43195021D01*
X81967899Y-43176824D01*
X82054494Y-43130537D01*
X82151185Y-43051185D01*
X82230537Y-42954494D01*
X82289502Y-42844180D01*
X82325812Y-42724482D01*
X82338072Y-42600000D01*
X82338072Y-41400000D01*
X82325812Y-41275518D01*
X82289502Y-41155820D01*
X82230537Y-41045506D01*
X82151185Y-40948815D01*
X82054494Y-40869463D01*
X82010000Y-40845680D01*
X82010000Y-40787323D01*
X82013676Y-40750000D01*
X82010000Y-40712677D01*
X82010000Y-40712667D01*
X81999003Y-40601014D01*
X81955546Y-40457753D01*
X81917320Y-40386238D01*
X81884974Y-40325723D01*
X81813799Y-40238997D01*
X81790001Y-40209999D01*
X81761004Y-40186202D01*
X81213072Y-39638270D01*
X81213072Y-39049999D01*
X81196008Y-38876745D01*
X81145472Y-38710149D01*
X81063405Y-38556613D01*
X80952962Y-38422038D01*
X80818387Y-38311595D01*
X80664851Y-38229528D01*
X80498255Y-38178992D01*
X80325001Y-38161928D01*
X79674999Y-38161928D01*
X79501745Y-38178992D01*
X79335149Y-38229528D01*
X79181613Y-38311595D01*
X79047038Y-38422038D01*
X78975000Y-38509816D01*
X78902962Y-38422038D01*
X78768387Y-38311595D01*
X78614851Y-38229528D01*
X78448255Y-38178992D01*
X78275001Y-38161928D01*
X77624999Y-38161928D01*
X77451745Y-38178992D01*
X77285149Y-38229528D01*
X77131613Y-38311595D01*
X76997038Y-38422038D01*
X76886595Y-38556613D01*
X76804528Y-38710149D01*
X76795473Y-38740000D01*
X71207325Y-38740000D01*
X71170000Y-38736324D01*
X71132675Y-38740000D01*
X71132667Y-38740000D01*
X71021014Y-38750997D01*
X70877753Y-38794454D01*
X70745724Y-38865026D01*
X70629999Y-38959999D01*
X70606201Y-38988997D01*
X69675852Y-39919346D01*
X69553456Y-39895000D01*
X69286544Y-39895000D01*
X69024761Y-39947072D01*
X68778167Y-40049215D01*
X68556238Y-40197503D01*
X68367503Y-40386238D01*
X68219215Y-40608167D01*
X68117072Y-40854761D01*
X68065000Y-41116544D01*
X68065000Y-41383456D01*
X68117072Y-41645239D01*
X68219215Y-41891833D01*
X68367503Y-42113762D01*
X68556238Y-42302497D01*
X68778167Y-42450785D01*
X69024761Y-42552928D01*
X69286544Y-42605000D01*
X69553456Y-42605000D01*
X69815239Y-42552928D01*
X70061833Y-42450785D01*
X70283762Y-42302497D01*
X70472497Y-42113762D01*
X70620785Y-41891833D01*
X70690000Y-41724734D01*
X70759215Y-41891833D01*
X70907503Y-42113762D01*
X71096238Y-42302497D01*
X71200001Y-42371829D01*
X71200001Y-42402667D01*
X71196324Y-42440000D01*
X71200001Y-42477332D01*
X71200000Y-43935367D01*
X71200000Y-44322678D01*
X71196324Y-44360000D01*
X71200000Y-44397322D01*
X71200000Y-44397332D01*
X71210997Y-44508985D01*
X71241639Y-44609999D01*
X71254454Y-44652246D01*
X71325026Y-44784276D01*
X71357853Y-44824275D01*
X71419999Y-44900001D01*
X71449003Y-44923804D01*
X73436201Y-46911003D01*
X73459999Y-46940001D01*
X73520923Y-46990000D01*
X72115102Y-46990000D01*
X71614103Y-46489002D01*
X71590301Y-46459999D01*
X71474576Y-46365026D01*
X71342547Y-46294454D01*
X71199286Y-46250997D01*
X71156205Y-46246754D01*
X71115706Y-46170986D01*
X70930134Y-45944866D01*
X70704014Y-45759294D01*
X70446034Y-45621401D01*
X70166111Y-45536487D01*
X69947950Y-45515000D01*
X69552050Y-45515000D01*
X69333889Y-45536487D01*
X69053966Y-45621401D01*
X68795986Y-45759294D01*
X68569866Y-45944866D01*
X68384294Y-46170986D01*
X68246401Y-46428966D01*
X68161487Y-46708889D01*
X68132815Y-47000000D01*
X68161487Y-47291111D01*
X68246401Y-47571034D01*
X68384294Y-47829014D01*
X68569866Y-48055134D01*
X68795986Y-48240706D01*
X68813374Y-48250000D01*
X68795986Y-48259294D01*
X68569866Y-48444866D01*
X68384294Y-48670986D01*
X68246401Y-48928966D01*
X68161487Y-49208889D01*
X68132815Y-49500000D01*
X68161487Y-49791111D01*
X68246401Y-50071034D01*
X68384294Y-50329014D01*
X68569866Y-50555134D01*
X68795986Y-50740706D01*
X68821722Y-50754462D01*
X68615571Y-50910951D01*
X68422504Y-51128807D01*
X68275648Y-51380142D01*
X68183524Y-51643110D01*
X68304845Y-51873000D01*
X69623000Y-51873000D01*
X69623000Y-51853000D01*
X69877000Y-51853000D01*
X69877000Y-51873000D01*
X71195155Y-51873000D01*
X71316476Y-51643110D01*
X71224352Y-51380142D01*
X71077496Y-51128807D01*
X70884429Y-50910951D01*
X70678278Y-50754462D01*
X70704014Y-50740706D01*
X70930134Y-50555134D01*
X70975434Y-50499935D01*
X70986496Y-50510997D01*
X71010299Y-50540001D01*
X71126024Y-50634974D01*
X71258053Y-50705546D01*
X71401314Y-50749003D01*
X71512967Y-50760000D01*
X71512975Y-50760000D01*
X71550300Y-50763676D01*
X71587625Y-50760000D01*
X73545473Y-50760000D01*
X73554528Y-50789851D01*
X73636595Y-50943387D01*
X73690332Y-51008866D01*
X73670506Y-51019463D01*
X73573815Y-51098815D01*
X73494463Y-51195506D01*
X73435498Y-51305820D01*
X73399188Y-51425518D01*
X73386928Y-51550000D01*
X73390000Y-51764250D01*
X73548750Y-51923000D01*
X74623000Y-51923000D01*
X74623000Y-51903000D01*
X74877000Y-51903000D01*
X74877000Y-51923000D01*
X75951250Y-51923000D01*
X76110000Y-51764250D01*
X76113072Y-51550000D01*
X76100812Y-51425518D01*
X76064502Y-51305820D01*
X76029792Y-51240883D01*
X76085149Y-51270472D01*
X76251745Y-51321008D01*
X76424999Y-51338072D01*
X77075001Y-51338072D01*
X77248255Y-51321008D01*
X77414851Y-51270472D01*
X77568387Y-51188405D01*
X77702962Y-51077962D01*
X77813405Y-50943387D01*
X77895472Y-50789851D01*
X77904527Y-50760000D01*
X79687378Y-50760000D01*
X79724700Y-50763676D01*
X79762022Y-50760000D01*
X79762033Y-50760000D01*
X79873686Y-50749003D01*
X80007475Y-50708419D01*
X80082795Y-50890256D01*
X80196063Y-51059774D01*
X80340226Y-51203937D01*
X80509744Y-51317205D01*
X80698102Y-51395226D01*
X80898061Y-51435000D01*
X80960198Y-51435000D01*
X81320022Y-51794824D01*
X81319463Y-51795506D01*
X81260498Y-51905820D01*
X81224188Y-52025518D01*
X81211928Y-52150000D01*
X81215000Y-52314250D01*
X81373750Y-52473000D01*
X82123000Y-52473000D01*
X82123000Y-52453000D01*
X82377000Y-52453000D01*
X82377000Y-52473000D01*
X82397000Y-52473000D01*
X82397000Y-52727000D01*
X82377000Y-52727000D01*
X82377000Y-53526250D01*
X82461607Y-53610857D01*
X82445506Y-53619463D01*
X82348815Y-53698815D01*
X82269463Y-53795506D01*
X82210498Y-53905820D01*
X82174188Y-54025518D01*
X82161928Y-54150000D01*
X82161928Y-55050000D01*
X82174188Y-55174482D01*
X82210498Y-55294180D01*
X82269463Y-55404494D01*
X82348815Y-55501185D01*
X82440001Y-55576019D01*
X82440001Y-55593749D01*
X82406613Y-55611595D01*
X82272038Y-55722038D01*
X82200000Y-55809816D01*
X82127962Y-55722038D01*
X81993387Y-55611595D01*
X81839851Y-55529528D01*
X81673255Y-55478992D01*
X81500001Y-55461928D01*
X80849999Y-55461928D01*
X80676745Y-55478992D01*
X80510149Y-55529528D01*
X80356613Y-55611595D01*
X80222038Y-55722038D01*
X80111595Y-55856613D01*
X80029528Y-56010149D01*
X79978992Y-56176745D01*
X79961928Y-56349999D01*
X79961928Y-57250001D01*
X79978992Y-57423255D01*
X80029528Y-57589851D01*
X80111595Y-57743387D01*
X80222038Y-57877962D01*
X80356613Y-57988405D01*
X80415001Y-58019614D01*
X80415001Y-58094498D01*
X80348815Y-58148815D01*
X80269463Y-58245506D01*
X80210498Y-58355820D01*
X80174188Y-58475518D01*
X80161928Y-58600000D01*
X80161928Y-59800000D01*
X80174188Y-59924482D01*
X80210498Y-60044180D01*
X80269463Y-60154494D01*
X80348815Y-60251185D01*
X80445506Y-60330537D01*
X80490000Y-60354320D01*
X80490000Y-60460198D01*
X80288270Y-60661928D01*
X79699999Y-60661928D01*
X79526745Y-60678992D01*
X79360149Y-60729528D01*
X79206613Y-60811595D01*
X79072038Y-60922038D01*
X79000000Y-61009816D01*
X78927962Y-60922038D01*
X78793387Y-60811595D01*
X78639851Y-60729528D01*
X78473255Y-60678992D01*
X78300001Y-60661928D01*
X77649999Y-60661928D01*
X77476745Y-60678992D01*
X77310149Y-60729528D01*
X77156613Y-60811595D01*
X77022038Y-60922038D01*
X76911595Y-61056613D01*
X76829528Y-61210149D01*
X76820473Y-61240000D01*
X75506259Y-61240000D01*
X75632497Y-61113762D01*
X75780785Y-60891833D01*
X75882928Y-60645239D01*
X75935000Y-60383456D01*
X75935000Y-60116544D01*
X75910654Y-59994148D01*
X76596200Y-59308602D01*
X76861928Y-59574330D01*
X76861928Y-59800000D01*
X76874188Y-59924482D01*
X76910498Y-60044180D01*
X76969463Y-60154494D01*
X77048815Y-60251185D01*
X77145506Y-60330537D01*
X77255820Y-60389502D01*
X77375518Y-60425812D01*
X77500000Y-60438072D01*
X78400000Y-60438072D01*
X78524482Y-60425812D01*
X78644180Y-60389502D01*
X78754494Y-60330537D01*
X78851185Y-60251185D01*
X78930537Y-60154494D01*
X78989502Y-60044180D01*
X79025812Y-59924482D01*
X79038072Y-59800000D01*
X79038072Y-58600000D01*
X79025812Y-58475518D01*
X78989502Y-58355820D01*
X78930537Y-58245506D01*
X78851185Y-58148815D01*
X78754494Y-58069463D01*
X78644180Y-58010498D01*
X78524482Y-57974188D01*
X78400000Y-57961928D01*
X77500000Y-57961928D01*
X77408173Y-57970972D01*
X77210000Y-57772799D01*
X77210000Y-57199770D01*
X77327962Y-57102962D01*
X77438405Y-56968386D01*
X77520472Y-56814850D01*
X77540183Y-56749870D01*
X77548986Y-56749003D01*
X77692247Y-56705546D01*
X77824276Y-56634974D01*
X77940001Y-56540001D01*
X77963804Y-56510997D01*
X79839802Y-54635000D01*
X79901939Y-54635000D01*
X80101898Y-54595226D01*
X80290256Y-54517205D01*
X80459774Y-54403937D01*
X80603937Y-54259774D01*
X80717205Y-54090256D01*
X80795226Y-53901898D01*
X80835000Y-53701939D01*
X80835000Y-53498061D01*
X80795226Y-53298102D01*
X80717205Y-53109744D01*
X80677286Y-53050000D01*
X81211928Y-53050000D01*
X81224188Y-53174482D01*
X81260498Y-53294180D01*
X81319463Y-53404494D01*
X81398815Y-53501185D01*
X81495506Y-53580537D01*
X81605820Y-53639502D01*
X81725518Y-53675812D01*
X81850000Y-53688072D01*
X81964250Y-53685000D01*
X82123000Y-53526250D01*
X82123000Y-52727000D01*
X81373750Y-52727000D01*
X81215000Y-52885750D01*
X81211928Y-53050000D01*
X80677286Y-53050000D01*
X80603937Y-52940226D01*
X80459774Y-52796063D01*
X80290256Y-52682795D01*
X80101898Y-52604774D01*
X79901939Y-52565000D01*
X79698061Y-52565000D01*
X79498102Y-52604774D01*
X79309744Y-52682795D01*
X79140226Y-52796063D01*
X78996063Y-52940226D01*
X78882795Y-53109744D01*
X78804774Y-53298102D01*
X78765000Y-53498061D01*
X78765000Y-53560198D01*
X77373127Y-54952072D01*
X77327962Y-54897038D01*
X77193386Y-54786595D01*
X77039850Y-54704528D01*
X76873254Y-54653992D01*
X76700000Y-54636928D01*
X76200000Y-54636928D01*
X76026746Y-54653992D01*
X75976279Y-54669301D01*
X76045472Y-54539850D01*
X76096008Y-54373254D01*
X76113072Y-54200000D01*
X76113072Y-53700000D01*
X76096008Y-53526746D01*
X76045472Y-53360150D01*
X75963405Y-53206614D01*
X75852962Y-53072038D01*
X75846406Y-53066658D01*
X75926185Y-53001185D01*
X76005537Y-52904494D01*
X76064502Y-52794180D01*
X76100812Y-52674482D01*
X76113072Y-52550000D01*
X76110000Y-52335750D01*
X75951250Y-52177000D01*
X74877000Y-52177000D01*
X74877000Y-52197000D01*
X74623000Y-52197000D01*
X74623000Y-52177000D01*
X73548750Y-52177000D01*
X73390000Y-52335750D01*
X73386928Y-52550000D01*
X73399188Y-52674482D01*
X73435498Y-52794180D01*
X73494463Y-52904494D01*
X73573815Y-53001185D01*
X73653594Y-53066658D01*
X73647038Y-53072038D01*
X73536595Y-53206614D01*
X73454528Y-53360150D01*
X73403992Y-53526746D01*
X73386928Y-53700000D01*
X73386928Y-53740000D01*
X71347313Y-53740000D01*
X71346008Y-53726746D01*
X71295472Y-53560150D01*
X71213405Y-53406614D01*
X71102962Y-53272038D01*
X70968386Y-53161595D01*
X70863039Y-53105286D01*
X70884429Y-53089049D01*
X71077496Y-52871193D01*
X71224352Y-52619858D01*
X71316476Y-52356890D01*
X71195155Y-52127000D01*
X69877000Y-52127000D01*
X69877000Y-52147000D01*
X69623000Y-52147000D01*
X69623000Y-52127000D01*
X68304845Y-52127000D01*
X68183524Y-52356890D01*
X68275648Y-52619858D01*
X68422504Y-52871193D01*
X68615571Y-53089049D01*
X68636961Y-53105286D01*
X68531614Y-53161595D01*
X68397038Y-53272038D01*
X68286595Y-53406614D01*
X68204528Y-53560150D01*
X68153992Y-53726746D01*
X68136928Y-53900000D01*
X68136928Y-55038271D01*
X67088998Y-56086201D01*
X67060000Y-56109999D01*
X67036202Y-56138997D01*
X67036201Y-56138998D01*
X66965026Y-56225724D01*
X66894454Y-56357754D01*
X66865755Y-56452367D01*
X66850998Y-56501014D01*
X66848435Y-56527033D01*
X66836324Y-56650000D01*
X66840001Y-56687332D01*
X66840000Y-61562677D01*
X66836324Y-61600000D01*
X66840000Y-61637322D01*
X66840000Y-61637332D01*
X66850997Y-61748985D01*
X66894137Y-61891200D01*
X66894454Y-61892246D01*
X66965026Y-62024276D01*
X67004871Y-62072826D01*
X67059999Y-62140001D01*
X67089003Y-62163804D01*
X68636200Y-63711002D01*
X68659999Y-63740001D01*
X68775724Y-63834974D01*
X68907753Y-63905546D01*
X69051014Y-63949003D01*
X69162667Y-63960000D01*
X69162675Y-63960000D01*
X69200000Y-63963676D01*
X69237325Y-63960000D01*
X83561957Y-63960000D01*
X83665363Y-64114759D01*
X83865241Y-64314637D01*
X83903199Y-64340000D01*
X66232279Y-64340000D01*
X66134576Y-64330420D01*
X66071643Y-64311420D01*
X66013594Y-64280554D01*
X65962657Y-64239011D01*
X65920752Y-64188356D01*
X65889485Y-64130529D01*
X65870044Y-64067728D01*
X65860000Y-63972165D01*
X65860000Y-36832279D01*
X65869580Y-36734576D01*
X65888580Y-36671644D01*
X65919445Y-36613595D01*
X65960989Y-36562657D01*
X66011644Y-36520752D01*
X66069471Y-36489485D01*
X66132272Y-36470044D01*
X66227835Y-36460000D01*
X82903199Y-36460000D01*
X82865241Y-36485363D01*
G37*
%TD.AperFunction*%
D23*
X86616374Y-56118273D02*
X86548390Y-56791484D01*
X86613051Y-57465023D01*
X86807870Y-58113006D01*
X87125361Y-58710530D01*
X87134823Y-58724692D01*
X87583519Y-59036876D01*
X89820395Y-56800000D01*
X89806253Y-56785858D01*
X89985858Y-56606253D01*
X90000000Y-56620395D01*
X90014143Y-56606253D01*
X90193748Y-56785858D01*
X90179605Y-56800000D01*
X90193748Y-56814143D01*
X90014143Y-56993748D01*
X90000000Y-56979605D01*
X87763124Y-59216481D01*
X88075308Y-59665177D01*
X88671259Y-59985612D01*
X89318273Y-60183626D01*
X89991484Y-60251610D01*
X90665023Y-60186949D01*
X91313006Y-59992130D01*
X91910530Y-59674639D01*
X91924692Y-59665177D01*
X92236875Y-59216483D01*
X92350426Y-59330034D01*
X92408800Y-59271660D01*
X92408800Y-61765000D01*
X92258665Y-61765000D01*
X91981426Y-61820147D01*
X91720273Y-61928320D01*
X91485241Y-62085363D01*
X91285363Y-62285241D01*
X91128320Y-62520273D01*
X91020147Y-62781426D01*
X90965000Y-63058665D01*
X90965000Y-63341335D01*
X91020147Y-63618574D01*
X91128320Y-63879727D01*
X91285363Y-64114759D01*
X91485241Y-64314637D01*
X91523199Y-64340000D01*
X85656801Y-64340000D01*
X85694759Y-64314637D01*
X85894637Y-64114759D01*
X86051680Y-63879727D01*
X86159853Y-63618574D01*
X86215000Y-63341335D01*
X86215000Y-63058665D01*
X86159853Y-62781426D01*
X86051680Y-62520273D01*
X85894637Y-62285241D01*
X85694759Y-62085363D01*
X85459727Y-61928320D01*
X85198574Y-61820147D01*
X84921335Y-61765000D01*
X84638665Y-61765000D01*
X84361426Y-61820147D01*
X84100273Y-61928320D01*
X83865241Y-62085363D01*
X83665363Y-62285241D01*
X83561957Y-62440000D01*
X81238072Y-62440000D01*
X81238072Y-61861730D01*
X81761004Y-61338798D01*
X81790001Y-61315001D01*
X81884974Y-61199276D01*
X81955546Y-61067247D01*
X81999003Y-60923986D01*
X82010000Y-60812333D01*
X82010000Y-60812332D01*
X82013677Y-60775000D01*
X82010000Y-60737667D01*
X82010000Y-60354320D01*
X82054494Y-60330537D01*
X82151185Y-60251185D01*
X82230537Y-60154494D01*
X82289502Y-60044180D01*
X82325812Y-59924482D01*
X82338072Y-59800000D01*
X82338072Y-58600000D01*
X82325812Y-58475518D01*
X82289502Y-58355820D01*
X82230537Y-58245506D01*
X82151185Y-58148815D01*
X82054494Y-58069463D01*
X81967899Y-58023176D01*
X81962379Y-58004979D01*
X81993387Y-57988405D01*
X82127962Y-57877962D01*
X82200000Y-57790184D01*
X82272038Y-57877962D01*
X82406613Y-57988405D01*
X82560149Y-58070472D01*
X82726745Y-58121008D01*
X82899999Y-58138072D01*
X83550001Y-58138072D01*
X83723255Y-58121008D01*
X83889851Y-58070472D01*
X84043387Y-57988405D01*
X84177962Y-57877962D01*
X84240000Y-57802368D01*
X84240001Y-59696288D01*
X84196063Y-59740226D01*
X84082795Y-59909744D01*
X84004774Y-60098102D01*
X83965000Y-60298061D01*
X83965000Y-60501939D01*
X84004774Y-60701898D01*
X84082795Y-60890256D01*
X84196063Y-61059774D01*
X84340226Y-61203937D01*
X84509744Y-61317205D01*
X84698102Y-61395226D01*
X84898061Y-61435000D01*
X85101939Y-61435000D01*
X85301898Y-61395226D01*
X85490256Y-61317205D01*
X85659774Y-61203937D01*
X85803937Y-61059774D01*
X85917205Y-60890256D01*
X85995226Y-60701898D01*
X86035000Y-60501939D01*
X86035000Y-60298061D01*
X85995226Y-60098102D01*
X85917205Y-59909744D01*
X85803937Y-59740226D01*
X85760000Y-59696289D01*
X85760000Y-56714801D01*
X86730969Y-55743833D01*
X86616374Y-56118273D01*
%TA.AperFunction,Conductor*%
D24*
G36*
X86616374Y-56118273D02*
G01*
X86548390Y-56791484D01*
X86613051Y-57465023D01*
X86807870Y-58113006D01*
X87125361Y-58710530D01*
X87134823Y-58724692D01*
X87583519Y-59036876D01*
X89820395Y-56800000D01*
X89806253Y-56785858D01*
X89985858Y-56606253D01*
X90000000Y-56620395D01*
X90014143Y-56606253D01*
X90193748Y-56785858D01*
X90179605Y-56800000D01*
X90193748Y-56814143D01*
X90014143Y-56993748D01*
X90000000Y-56979605D01*
X87763124Y-59216481D01*
X88075308Y-59665177D01*
X88671259Y-59985612D01*
X89318273Y-60183626D01*
X89991484Y-60251610D01*
X90665023Y-60186949D01*
X91313006Y-59992130D01*
X91910530Y-59674639D01*
X91924692Y-59665177D01*
X92236875Y-59216483D01*
X92350426Y-59330034D01*
X92408800Y-59271660D01*
X92408800Y-61765000D01*
X92258665Y-61765000D01*
X91981426Y-61820147D01*
X91720273Y-61928320D01*
X91485241Y-62085363D01*
X91285363Y-62285241D01*
X91128320Y-62520273D01*
X91020147Y-62781426D01*
X90965000Y-63058665D01*
X90965000Y-63341335D01*
X91020147Y-63618574D01*
X91128320Y-63879727D01*
X91285363Y-64114759D01*
X91485241Y-64314637D01*
X91523199Y-64340000D01*
X85656801Y-64340000D01*
X85694759Y-64314637D01*
X85894637Y-64114759D01*
X86051680Y-63879727D01*
X86159853Y-63618574D01*
X86215000Y-63341335D01*
X86215000Y-63058665D01*
X86159853Y-62781426D01*
X86051680Y-62520273D01*
X85894637Y-62285241D01*
X85694759Y-62085363D01*
X85459727Y-61928320D01*
X85198574Y-61820147D01*
X84921335Y-61765000D01*
X84638665Y-61765000D01*
X84361426Y-61820147D01*
X84100273Y-61928320D01*
X83865241Y-62085363D01*
X83665363Y-62285241D01*
X83561957Y-62440000D01*
X81238072Y-62440000D01*
X81238072Y-61861730D01*
X81761004Y-61338798D01*
X81790001Y-61315001D01*
X81884974Y-61199276D01*
X81955546Y-61067247D01*
X81999003Y-60923986D01*
X82010000Y-60812333D01*
X82010000Y-60812332D01*
X82013677Y-60775000D01*
X82010000Y-60737667D01*
X82010000Y-60354320D01*
X82054494Y-60330537D01*
X82151185Y-60251185D01*
X82230537Y-60154494D01*
X82289502Y-60044180D01*
X82325812Y-59924482D01*
X82338072Y-59800000D01*
X82338072Y-58600000D01*
X82325812Y-58475518D01*
X82289502Y-58355820D01*
X82230537Y-58245506D01*
X82151185Y-58148815D01*
X82054494Y-58069463D01*
X81967899Y-58023176D01*
X81962379Y-58004979D01*
X81993387Y-57988405D01*
X82127962Y-57877962D01*
X82200000Y-57790184D01*
X82272038Y-57877962D01*
X82406613Y-57988405D01*
X82560149Y-58070472D01*
X82726745Y-58121008D01*
X82899999Y-58138072D01*
X83550001Y-58138072D01*
X83723255Y-58121008D01*
X83889851Y-58070472D01*
X84043387Y-57988405D01*
X84177962Y-57877962D01*
X84240000Y-57802368D01*
X84240001Y-59696288D01*
X84196063Y-59740226D01*
X84082795Y-59909744D01*
X84004774Y-60098102D01*
X83965000Y-60298061D01*
X83965000Y-60501939D01*
X84004774Y-60701898D01*
X84082795Y-60890256D01*
X84196063Y-61059774D01*
X84340226Y-61203937D01*
X84509744Y-61317205D01*
X84698102Y-61395226D01*
X84898061Y-61435000D01*
X85101939Y-61435000D01*
X85301898Y-61395226D01*
X85490256Y-61317205D01*
X85659774Y-61203937D01*
X85803937Y-61059774D01*
X85917205Y-60890256D01*
X85995226Y-60701898D01*
X86035000Y-60501939D01*
X86035000Y-60298061D01*
X85995226Y-60098102D01*
X85917205Y-59909744D01*
X85803937Y-59740226D01*
X85760000Y-59696289D01*
X85760000Y-56714801D01*
X86730969Y-55743833D01*
X86616374Y-56118273D01*
G37*
%TD.AperFunction*%
D23*
X105265424Y-36469580D02*
X105328356Y-36488580D01*
X105386405Y-36519445D01*
X105437343Y-36560989D01*
X105479248Y-36611644D01*
X105510515Y-36669471D01*
X105529956Y-36732272D01*
X105540001Y-36827845D01*
X105540000Y-63967721D01*
X105530420Y-64065424D01*
X105511420Y-64128357D01*
X105480554Y-64186406D01*
X105439011Y-64237343D01*
X105388356Y-64279248D01*
X105330529Y-64310515D01*
X105267728Y-64329956D01*
X105172165Y-64340000D01*
X96815010Y-64340000D01*
X96839502Y-64294180D01*
X96875812Y-64174482D01*
X96888072Y-64050000D01*
X96888072Y-62550000D01*
X96875812Y-62425518D01*
X96839502Y-62305820D01*
X96780537Y-62195506D01*
X96743191Y-62150000D01*
X96780537Y-62104494D01*
X96839502Y-61994180D01*
X96875812Y-61874482D01*
X96887087Y-61760000D01*
X99911928Y-61760000D01*
X99911928Y-62900000D01*
X99924188Y-63024482D01*
X99960498Y-63144180D01*
X100019463Y-63254494D01*
X100098815Y-63351185D01*
X100195506Y-63430537D01*
X100305820Y-63489502D01*
X100425518Y-63525812D01*
X100550000Y-63538072D01*
X102550000Y-63538072D01*
X102674482Y-63525812D01*
X102794180Y-63489502D01*
X102904494Y-63430537D01*
X103001185Y-63351185D01*
X103080537Y-63254494D01*
X103139502Y-63144180D01*
X103175812Y-63024482D01*
X103188072Y-62900000D01*
X103188072Y-59100000D01*
X103175812Y-58975518D01*
X103139502Y-58855820D01*
X103080537Y-58745506D01*
X103001185Y-58648815D01*
X102904494Y-58569463D01*
X102794180Y-58510498D01*
X102674482Y-58474188D01*
X102550000Y-58461928D01*
X100550000Y-58461928D01*
X100425518Y-58474188D01*
X100366801Y-58492000D01*
X94160000Y-52285199D01*
X94160000Y-50714801D01*
X94654802Y-50220000D01*
X94990576Y-50220000D01*
X94922554Y-50373136D01*
X94905881Y-50428126D01*
X95032046Y-50603000D01*
X95873000Y-50603000D01*
X95873000Y-50591974D01*
X95888212Y-50595000D01*
X96111788Y-50595000D01*
X96127000Y-50591974D01*
X96127000Y-50603000D01*
X96967954Y-50603000D01*
X97094119Y-50428126D01*
X97077446Y-50373136D01*
X96987123Y-50169794D01*
X96937647Y-50099658D01*
X97005824Y-49997624D01*
X97091383Y-49791067D01*
X97135000Y-49571788D01*
X97135000Y-49348212D01*
X97091383Y-49128933D01*
X97005824Y-48922376D01*
X96881612Y-48736480D01*
X96723520Y-48578388D01*
X96537624Y-48454176D01*
X96331067Y-48368617D01*
X96111788Y-48325000D01*
X95888212Y-48325000D01*
X95668933Y-48368617D01*
X95462376Y-48454176D01*
X95276480Y-48578388D01*
X95154868Y-48700000D01*
X94377325Y-48700000D01*
X94340000Y-48696324D01*
X94302675Y-48700000D01*
X94302667Y-48700000D01*
X94191014Y-48710997D01*
X94047753Y-48754454D01*
X93915724Y-48825026D01*
X93799999Y-48919999D01*
X93776201Y-48948997D01*
X92889002Y-49836196D01*
X92859999Y-49859999D01*
X92828729Y-49898102D01*
X92765026Y-49975724D01*
X92713713Y-50071724D01*
X92694454Y-50107754D01*
X92650997Y-50251015D01*
X92640000Y-50362668D01*
X92640000Y-50362678D01*
X92636324Y-50400000D01*
X92640000Y-50437323D01*
X92640001Y-52365200D01*
X92563804Y-52289003D01*
X92540001Y-52259999D01*
X92424276Y-52165026D01*
X92398373Y-52151180D01*
X92427929Y-52053745D01*
X92443072Y-51900000D01*
X92443072Y-50250000D01*
X92427929Y-50096255D01*
X92383084Y-49948418D01*
X92310258Y-49812171D01*
X92265000Y-49757024D01*
X92265000Y-49342322D01*
X92268676Y-49304999D01*
X92265000Y-49267676D01*
X92265000Y-49267667D01*
X92254003Y-49156014D01*
X92210546Y-49012753D01*
X92139974Y-48880724D01*
X92045001Y-48764999D01*
X92015998Y-48741197D01*
X91738805Y-48464004D01*
X91715002Y-48435000D01*
X91623614Y-48360000D01*
X93362678Y-48360000D01*
X93400000Y-48363676D01*
X93437322Y-48360000D01*
X93437333Y-48360000D01*
X93548986Y-48349003D01*
X93692247Y-48305546D01*
X93824276Y-48234974D01*
X93940001Y-48140001D01*
X93963803Y-48110998D01*
X94561004Y-47513798D01*
X94590001Y-47490001D01*
X94684974Y-47374276D01*
X94755546Y-47242247D01*
X94799003Y-47098986D01*
X94810000Y-46987333D01*
X94810000Y-46987323D01*
X94813676Y-46950000D01*
X94810000Y-46912677D01*
X94810000Y-43288072D01*
X95050000Y-43288072D01*
X95174482Y-43275812D01*
X95294180Y-43239502D01*
X95404494Y-43180537D01*
X95501185Y-43101185D01*
X95580537Y-43004494D01*
X95639502Y-42894180D01*
X95675812Y-42774482D01*
X95688072Y-42650000D01*
X95688072Y-41150000D01*
X95675812Y-41025518D01*
X95639502Y-40905820D01*
X95580537Y-40795506D01*
X95543191Y-40750000D01*
X95580537Y-40704494D01*
X95639502Y-40594180D01*
X95675812Y-40474482D01*
X95687087Y-40360000D01*
X98515199Y-40360000D01*
X97840998Y-41034201D01*
X97812000Y-41057999D01*
X97788202Y-41086997D01*
X97788201Y-41086998D01*
X97717026Y-41173724D01*
X97646454Y-41305754D01*
X97633769Y-41347574D01*
X97602998Y-41449014D01*
X97592001Y-41560667D01*
X97588324Y-41598000D01*
X97592001Y-41635332D01*
X97592000Y-46514677D01*
X97588324Y-46552000D01*
X97592000Y-46589322D01*
X97592000Y-46589332D01*
X97602997Y-46700985D01*
X97640396Y-46824276D01*
X97646454Y-46844246D01*
X97717026Y-46976276D01*
X97745297Y-47010724D01*
X97811999Y-47092001D01*
X97841002Y-47115803D01*
X98440001Y-47714803D01*
X98440000Y-51240000D01*
X97081046Y-51240000D01*
X97041930Y-51166820D01*
X97077446Y-51086864D01*
X97094119Y-51031874D01*
X96967954Y-50857000D01*
X96127000Y-50857000D01*
X96127000Y-50861928D01*
X95873000Y-50861928D01*
X95873000Y-50857000D01*
X95032046Y-50857000D01*
X94905881Y-51031874D01*
X94922554Y-51086864D01*
X94958070Y-51166820D01*
X94910498Y-51255820D01*
X94874188Y-51375518D01*
X94861928Y-51500000D01*
X94861928Y-52500000D01*
X94874188Y-52624482D01*
X94910498Y-52744180D01*
X94969463Y-52854494D01*
X95048815Y-52951185D01*
X95145506Y-53030537D01*
X95255820Y-53089502D01*
X95375518Y-53125812D01*
X95500000Y-53138072D01*
X96500000Y-53138072D01*
X96624482Y-53125812D01*
X96744180Y-53089502D01*
X96854494Y-53030537D01*
X96951185Y-52951185D01*
X97030537Y-52854494D01*
X97081046Y-52760000D01*
X98762678Y-52760000D01*
X98800000Y-52763676D01*
X98837322Y-52760000D01*
X98837333Y-52760000D01*
X98948986Y-52749003D01*
X99092247Y-52705546D01*
X99224276Y-52634974D01*
X99340001Y-52540001D01*
X99363803Y-52510998D01*
X99711003Y-52163799D01*
X99740001Y-52140001D01*
X99834974Y-52024276D01*
X99905546Y-51892247D01*
X99949003Y-51748986D01*
X99960000Y-51637333D01*
X99960000Y-51637324D01*
X99963676Y-51600001D01*
X99960000Y-51562678D01*
X99960000Y-47499447D01*
X100075308Y-47665177D01*
X100671259Y-47985612D01*
X101318273Y-48183626D01*
X101991484Y-48251610D01*
X102665023Y-48186949D01*
X103313006Y-47992130D01*
X103910530Y-47674639D01*
X103924692Y-47665177D01*
X104236876Y-47216481D01*
X102000000Y-44979605D01*
X101985858Y-44993748D01*
X101806253Y-44814143D01*
X101820395Y-44800000D01*
X102179605Y-44800000D01*
X104416481Y-47036876D01*
X104865177Y-46724692D01*
X105185612Y-46128741D01*
X105383626Y-45481727D01*
X105451610Y-44808516D01*
X105386949Y-44134977D01*
X105192130Y-43486994D01*
X104874639Y-42889470D01*
X104865177Y-42875308D01*
X104416481Y-42563124D01*
X102179605Y-44800000D01*
X101820395Y-44800000D01*
X99583519Y-42563124D01*
X99134823Y-42875308D01*
X99112000Y-42917755D01*
X99112000Y-42091377D01*
X99225518Y-42125812D01*
X99350000Y-42138072D01*
X99933896Y-42138072D01*
X99763124Y-42383519D01*
X102000000Y-44620395D01*
X104236876Y-42383519D01*
X103924692Y-41934823D01*
X103328741Y-41614388D01*
X102681727Y-41416374D01*
X102008516Y-41348390D01*
X101988072Y-41350353D01*
X101988072Y-37700000D01*
X101975812Y-37575518D01*
X101939502Y-37455820D01*
X101880537Y-37345506D01*
X101801185Y-37248815D01*
X101704494Y-37169463D01*
X101594180Y-37110498D01*
X101474482Y-37074188D01*
X101350000Y-37061928D01*
X99350000Y-37061928D01*
X99225518Y-37074188D01*
X99105820Y-37110498D01*
X98995506Y-37169463D01*
X98898815Y-37248815D01*
X98819463Y-37345506D01*
X98760498Y-37455820D01*
X98724188Y-37575518D01*
X98711928Y-37700000D01*
X98711928Y-38840000D01*
X95687087Y-38840000D01*
X95675812Y-38725518D01*
X95639502Y-38605820D01*
X95580537Y-38495506D01*
X95543191Y-38450000D01*
X95580537Y-38404494D01*
X95639502Y-38294180D01*
X95675812Y-38174482D01*
X95688072Y-38050000D01*
X95688072Y-36550000D01*
X95679208Y-36460000D01*
X105167721Y-36460000D01*
X105265424Y-36469580D01*
%TA.AperFunction,Conductor*%
D24*
G36*
X105265424Y-36469580D02*
G01*
X105328356Y-36488580D01*
X105386405Y-36519445D01*
X105437343Y-36560989D01*
X105479248Y-36611644D01*
X105510515Y-36669471D01*
X105529956Y-36732272D01*
X105540001Y-36827845D01*
X105540000Y-63967721D01*
X105530420Y-64065424D01*
X105511420Y-64128357D01*
X105480554Y-64186406D01*
X105439011Y-64237343D01*
X105388356Y-64279248D01*
X105330529Y-64310515D01*
X105267728Y-64329956D01*
X105172165Y-64340000D01*
X96815010Y-64340000D01*
X96839502Y-64294180D01*
X96875812Y-64174482D01*
X96888072Y-64050000D01*
X96888072Y-62550000D01*
X96875812Y-62425518D01*
X96839502Y-62305820D01*
X96780537Y-62195506D01*
X96743191Y-62150000D01*
X96780537Y-62104494D01*
X96839502Y-61994180D01*
X96875812Y-61874482D01*
X96887087Y-61760000D01*
X99911928Y-61760000D01*
X99911928Y-62900000D01*
X99924188Y-63024482D01*
X99960498Y-63144180D01*
X100019463Y-63254494D01*
X100098815Y-63351185D01*
X100195506Y-63430537D01*
X100305820Y-63489502D01*
X100425518Y-63525812D01*
X100550000Y-63538072D01*
X102550000Y-63538072D01*
X102674482Y-63525812D01*
X102794180Y-63489502D01*
X102904494Y-63430537D01*
X103001185Y-63351185D01*
X103080537Y-63254494D01*
X103139502Y-63144180D01*
X103175812Y-63024482D01*
X103188072Y-62900000D01*
X103188072Y-59100000D01*
X103175812Y-58975518D01*
X103139502Y-58855820D01*
X103080537Y-58745506D01*
X103001185Y-58648815D01*
X102904494Y-58569463D01*
X102794180Y-58510498D01*
X102674482Y-58474188D01*
X102550000Y-58461928D01*
X100550000Y-58461928D01*
X100425518Y-58474188D01*
X100366801Y-58492000D01*
X94160000Y-52285199D01*
X94160000Y-50714801D01*
X94654802Y-50220000D01*
X94990576Y-50220000D01*
X94922554Y-50373136D01*
X94905881Y-50428126D01*
X95032046Y-50603000D01*
X95873000Y-50603000D01*
X95873000Y-50591974D01*
X95888212Y-50595000D01*
X96111788Y-50595000D01*
X96127000Y-50591974D01*
X96127000Y-50603000D01*
X96967954Y-50603000D01*
X97094119Y-50428126D01*
X97077446Y-50373136D01*
X96987123Y-50169794D01*
X96937647Y-50099658D01*
X97005824Y-49997624D01*
X97091383Y-49791067D01*
X97135000Y-49571788D01*
X97135000Y-49348212D01*
X97091383Y-49128933D01*
X97005824Y-48922376D01*
X96881612Y-48736480D01*
X96723520Y-48578388D01*
X96537624Y-48454176D01*
X96331067Y-48368617D01*
X96111788Y-48325000D01*
X95888212Y-48325000D01*
X95668933Y-48368617D01*
X95462376Y-48454176D01*
X95276480Y-48578388D01*
X95154868Y-48700000D01*
X94377325Y-48700000D01*
X94340000Y-48696324D01*
X94302675Y-48700000D01*
X94302667Y-48700000D01*
X94191014Y-48710997D01*
X94047753Y-48754454D01*
X93915724Y-48825026D01*
X93799999Y-48919999D01*
X93776201Y-48948997D01*
X92889002Y-49836196D01*
X92859999Y-49859999D01*
X92828729Y-49898102D01*
X92765026Y-49975724D01*
X92713713Y-50071724D01*
X92694454Y-50107754D01*
X92650997Y-50251015D01*
X92640000Y-50362668D01*
X92640000Y-50362678D01*
X92636324Y-50400000D01*
X92640000Y-50437323D01*
X92640001Y-52365200D01*
X92563804Y-52289003D01*
X92540001Y-52259999D01*
X92424276Y-52165026D01*
X92398373Y-52151180D01*
X92427929Y-52053745D01*
X92443072Y-51900000D01*
X92443072Y-50250000D01*
X92427929Y-50096255D01*
X92383084Y-49948418D01*
X92310258Y-49812171D01*
X92265000Y-49757024D01*
X92265000Y-49342322D01*
X92268676Y-49304999D01*
X92265000Y-49267676D01*
X92265000Y-49267667D01*
X92254003Y-49156014D01*
X92210546Y-49012753D01*
X92139974Y-48880724D01*
X92045001Y-48764999D01*
X92015998Y-48741197D01*
X91738805Y-48464004D01*
X91715002Y-48435000D01*
X91623614Y-48360000D01*
X93362678Y-48360000D01*
X93400000Y-48363676D01*
X93437322Y-48360000D01*
X93437333Y-48360000D01*
X93548986Y-48349003D01*
X93692247Y-48305546D01*
X93824276Y-48234974D01*
X93940001Y-48140001D01*
X93963803Y-48110998D01*
X94561004Y-47513798D01*
X94590001Y-47490001D01*
X94684974Y-47374276D01*
X94755546Y-47242247D01*
X94799003Y-47098986D01*
X94810000Y-46987333D01*
X94810000Y-46987323D01*
X94813676Y-46950000D01*
X94810000Y-46912677D01*
X94810000Y-43288072D01*
X95050000Y-43288072D01*
X95174482Y-43275812D01*
X95294180Y-43239502D01*
X95404494Y-43180537D01*
X95501185Y-43101185D01*
X95580537Y-43004494D01*
X95639502Y-42894180D01*
X95675812Y-42774482D01*
X95688072Y-42650000D01*
X95688072Y-41150000D01*
X95675812Y-41025518D01*
X95639502Y-40905820D01*
X95580537Y-40795506D01*
X95543191Y-40750000D01*
X95580537Y-40704494D01*
X95639502Y-40594180D01*
X95675812Y-40474482D01*
X95687087Y-40360000D01*
X98515199Y-40360000D01*
X97840998Y-41034201D01*
X97812000Y-41057999D01*
X97788202Y-41086997D01*
X97788201Y-41086998D01*
X97717026Y-41173724D01*
X97646454Y-41305754D01*
X97633769Y-41347574D01*
X97602998Y-41449014D01*
X97592001Y-41560667D01*
X97588324Y-41598000D01*
X97592001Y-41635332D01*
X97592000Y-46514677D01*
X97588324Y-46552000D01*
X97592000Y-46589322D01*
X97592000Y-46589332D01*
X97602997Y-46700985D01*
X97640396Y-46824276D01*
X97646454Y-46844246D01*
X97717026Y-46976276D01*
X97745297Y-47010724D01*
X97811999Y-47092001D01*
X97841002Y-47115803D01*
X98440001Y-47714803D01*
X98440000Y-51240000D01*
X97081046Y-51240000D01*
X97041930Y-51166820D01*
X97077446Y-51086864D01*
X97094119Y-51031874D01*
X96967954Y-50857000D01*
X96127000Y-50857000D01*
X96127000Y-50861928D01*
X95873000Y-50861928D01*
X95873000Y-50857000D01*
X95032046Y-50857000D01*
X94905881Y-51031874D01*
X94922554Y-51086864D01*
X94958070Y-51166820D01*
X94910498Y-51255820D01*
X94874188Y-51375518D01*
X94861928Y-51500000D01*
X94861928Y-52500000D01*
X94874188Y-52624482D01*
X94910498Y-52744180D01*
X94969463Y-52854494D01*
X95048815Y-52951185D01*
X95145506Y-53030537D01*
X95255820Y-53089502D01*
X95375518Y-53125812D01*
X95500000Y-53138072D01*
X96500000Y-53138072D01*
X96624482Y-53125812D01*
X96744180Y-53089502D01*
X96854494Y-53030537D01*
X96951185Y-52951185D01*
X97030537Y-52854494D01*
X97081046Y-52760000D01*
X98762678Y-52760000D01*
X98800000Y-52763676D01*
X98837322Y-52760000D01*
X98837333Y-52760000D01*
X98948986Y-52749003D01*
X99092247Y-52705546D01*
X99224276Y-52634974D01*
X99340001Y-52540001D01*
X99363803Y-52510998D01*
X99711003Y-52163799D01*
X99740001Y-52140001D01*
X99834974Y-52024276D01*
X99905546Y-51892247D01*
X99949003Y-51748986D01*
X99960000Y-51637333D01*
X99960000Y-51637324D01*
X99963676Y-51600001D01*
X99960000Y-51562678D01*
X99960000Y-47499447D01*
X100075308Y-47665177D01*
X100671259Y-47985612D01*
X101318273Y-48183626D01*
X101991484Y-48251610D01*
X102665023Y-48186949D01*
X103313006Y-47992130D01*
X103910530Y-47674639D01*
X103924692Y-47665177D01*
X104236876Y-47216481D01*
X102000000Y-44979605D01*
X101985858Y-44993748D01*
X101806253Y-44814143D01*
X101820395Y-44800000D01*
X102179605Y-44800000D01*
X104416481Y-47036876D01*
X104865177Y-46724692D01*
X105185612Y-46128741D01*
X105383626Y-45481727D01*
X105451610Y-44808516D01*
X105386949Y-44134977D01*
X105192130Y-43486994D01*
X104874639Y-42889470D01*
X104865177Y-42875308D01*
X104416481Y-42563124D01*
X102179605Y-44800000D01*
X101820395Y-44800000D01*
X99583519Y-42563124D01*
X99134823Y-42875308D01*
X99112000Y-42917755D01*
X99112000Y-42091377D01*
X99225518Y-42125812D01*
X99350000Y-42138072D01*
X99933896Y-42138072D01*
X99763124Y-42383519D01*
X102000000Y-44620395D01*
X104236876Y-42383519D01*
X103924692Y-41934823D01*
X103328741Y-41614388D01*
X102681727Y-41416374D01*
X102008516Y-41348390D01*
X101988072Y-41350353D01*
X101988072Y-37700000D01*
X101975812Y-37575518D01*
X101939502Y-37455820D01*
X101880537Y-37345506D01*
X101801185Y-37248815D01*
X101704494Y-37169463D01*
X101594180Y-37110498D01*
X101474482Y-37074188D01*
X101350000Y-37061928D01*
X99350000Y-37061928D01*
X99225518Y-37074188D01*
X99105820Y-37110498D01*
X98995506Y-37169463D01*
X98898815Y-37248815D01*
X98819463Y-37345506D01*
X98760498Y-37455820D01*
X98724188Y-37575518D01*
X98711928Y-37700000D01*
X98711928Y-38840000D01*
X95687087Y-38840000D01*
X95675812Y-38725518D01*
X95639502Y-38605820D01*
X95580537Y-38495506D01*
X95543191Y-38450000D01*
X95580537Y-38404494D01*
X95639502Y-38294180D01*
X95675812Y-38174482D01*
X95688072Y-38050000D01*
X95688072Y-36550000D01*
X95679208Y-36460000D01*
X105167721Y-36460000D01*
X105265424Y-36469580D01*
G37*
%TD.AperFunction*%
D23*
X85636200Y-43911002D02*
X85659999Y-43940001D01*
X85688997Y-43963799D01*
X85775724Y-44034974D01*
X85907753Y-44105546D01*
X86051014Y-44149003D01*
X86200000Y-44163677D01*
X86237333Y-44160000D01*
X88085199Y-44160000D01*
X88215569Y-44290371D01*
X88201324Y-44435000D01*
X88205001Y-44472332D01*
X88205001Y-44550130D01*
X88119482Y-44524188D01*
X87995000Y-44511928D01*
X87980750Y-44515000D01*
X87822000Y-44673750D01*
X87822000Y-45998000D01*
X87842000Y-45998000D01*
X87842000Y-46252000D01*
X87822000Y-46252000D01*
X87822000Y-47576250D01*
X87980750Y-47735000D01*
X87995000Y-47738072D01*
X88119482Y-47725812D01*
X88239180Y-47689502D01*
X88349494Y-47630537D01*
X88379064Y-47606270D01*
X88513418Y-47678084D01*
X88661255Y-47722929D01*
X88815000Y-47738072D01*
X89115000Y-47738072D01*
X89268745Y-47722929D01*
X89416582Y-47678084D01*
X89500875Y-47633028D01*
X89529454Y-47727246D01*
X89600026Y-47859276D01*
X89645143Y-47914250D01*
X89695000Y-47975001D01*
X89723998Y-47998799D01*
X89836196Y-48110997D01*
X89859999Y-48140001D01*
X89951387Y-48215001D01*
X85262321Y-48215001D01*
X85224998Y-48211325D01*
X85187675Y-48215001D01*
X85187666Y-48215001D01*
X85076013Y-48225998D01*
X84932752Y-48269455D01*
X84825094Y-48327000D01*
X84277000Y-48327000D01*
X84277000Y-48347000D01*
X84023000Y-48347000D01*
X84023000Y-48327000D01*
X84003000Y-48327000D01*
X84003000Y-48073000D01*
X84023000Y-48073000D01*
X84023000Y-47273750D01*
X84277000Y-47273750D01*
X84277000Y-48073000D01*
X85026250Y-48073000D01*
X85185000Y-47914250D01*
X85188072Y-47750000D01*
X85175812Y-47625518D01*
X85139502Y-47505820D01*
X85080537Y-47395506D01*
X85001185Y-47298815D01*
X84904494Y-47219463D01*
X84794180Y-47160498D01*
X84674482Y-47124188D01*
X84550000Y-47111928D01*
X84435750Y-47115000D01*
X84277000Y-47273750D01*
X84023000Y-47273750D01*
X83938393Y-47189143D01*
X83954494Y-47180537D01*
X84051185Y-47101185D01*
X84052157Y-47100000D01*
X86756928Y-47100000D01*
X86769188Y-47224482D01*
X86805498Y-47344180D01*
X86864463Y-47454494D01*
X86943815Y-47551185D01*
X87040506Y-47630537D01*
X87150820Y-47689502D01*
X87270518Y-47725812D01*
X87395000Y-47738072D01*
X87409250Y-47735000D01*
X87568000Y-47576250D01*
X87568000Y-46252000D01*
X86918750Y-46252000D01*
X86760000Y-46410750D01*
X86756928Y-47100000D01*
X84052157Y-47100000D01*
X84130537Y-47004494D01*
X84189502Y-46894180D01*
X84225812Y-46774482D01*
X84238072Y-46650000D01*
X84238072Y-45750000D01*
X84225812Y-45625518D01*
X84189502Y-45505820D01*
X84175633Y-45479873D01*
X84177962Y-45477962D01*
X84288405Y-45343387D01*
X84370472Y-45189851D01*
X84382560Y-45150000D01*
X86756928Y-45150000D01*
X86760000Y-45839250D01*
X86918750Y-45998000D01*
X87568000Y-45998000D01*
X87568000Y-44673750D01*
X87409250Y-44515000D01*
X87395000Y-44511928D01*
X87270518Y-44524188D01*
X87150820Y-44560498D01*
X87040506Y-44619463D01*
X86943815Y-44698815D01*
X86864463Y-44795506D01*
X86805498Y-44905820D01*
X86769188Y-45025518D01*
X86756928Y-45150000D01*
X84382560Y-45150000D01*
X84421008Y-45023255D01*
X84438072Y-44850001D01*
X84438072Y-43949999D01*
X84421008Y-43776745D01*
X84370472Y-43610149D01*
X84288405Y-43456613D01*
X84203491Y-43353145D01*
X84290256Y-43317205D01*
X84459774Y-43203937D01*
X84503711Y-43160000D01*
X84885199Y-43160000D01*
X85636200Y-43911002D01*
%TA.AperFunction,Conductor*%
D24*
G36*
X85636200Y-43911002D02*
G01*
X85659999Y-43940001D01*
X85688997Y-43963799D01*
X85775724Y-44034974D01*
X85907753Y-44105546D01*
X86051014Y-44149003D01*
X86200000Y-44163677D01*
X86237333Y-44160000D01*
X88085199Y-44160000D01*
X88215569Y-44290371D01*
X88201324Y-44435000D01*
X88205001Y-44472332D01*
X88205001Y-44550130D01*
X88119482Y-44524188D01*
X87995000Y-44511928D01*
X87980750Y-44515000D01*
X87822000Y-44673750D01*
X87822000Y-45998000D01*
X87842000Y-45998000D01*
X87842000Y-46252000D01*
X87822000Y-46252000D01*
X87822000Y-47576250D01*
X87980750Y-47735000D01*
X87995000Y-47738072D01*
X88119482Y-47725812D01*
X88239180Y-47689502D01*
X88349494Y-47630537D01*
X88379064Y-47606270D01*
X88513418Y-47678084D01*
X88661255Y-47722929D01*
X88815000Y-47738072D01*
X89115000Y-47738072D01*
X89268745Y-47722929D01*
X89416582Y-47678084D01*
X89500875Y-47633028D01*
X89529454Y-47727246D01*
X89600026Y-47859276D01*
X89645143Y-47914250D01*
X89695000Y-47975001D01*
X89723998Y-47998799D01*
X89836196Y-48110997D01*
X89859999Y-48140001D01*
X89951387Y-48215001D01*
X85262321Y-48215001D01*
X85224998Y-48211325D01*
X85187675Y-48215001D01*
X85187666Y-48215001D01*
X85076013Y-48225998D01*
X84932752Y-48269455D01*
X84825094Y-48327000D01*
X84277000Y-48327000D01*
X84277000Y-48347000D01*
X84023000Y-48347000D01*
X84023000Y-48327000D01*
X84003000Y-48327000D01*
X84003000Y-48073000D01*
X84023000Y-48073000D01*
X84023000Y-47273750D01*
X84277000Y-47273750D01*
X84277000Y-48073000D01*
X85026250Y-48073000D01*
X85185000Y-47914250D01*
X85188072Y-47750000D01*
X85175812Y-47625518D01*
X85139502Y-47505820D01*
X85080537Y-47395506D01*
X85001185Y-47298815D01*
X84904494Y-47219463D01*
X84794180Y-47160498D01*
X84674482Y-47124188D01*
X84550000Y-47111928D01*
X84435750Y-47115000D01*
X84277000Y-47273750D01*
X84023000Y-47273750D01*
X83938393Y-47189143D01*
X83954494Y-47180537D01*
X84051185Y-47101185D01*
X84052157Y-47100000D01*
X86756928Y-47100000D01*
X86769188Y-47224482D01*
X86805498Y-47344180D01*
X86864463Y-47454494D01*
X86943815Y-47551185D01*
X87040506Y-47630537D01*
X87150820Y-47689502D01*
X87270518Y-47725812D01*
X87395000Y-47738072D01*
X87409250Y-47735000D01*
X87568000Y-47576250D01*
X87568000Y-46252000D01*
X86918750Y-46252000D01*
X86760000Y-46410750D01*
X86756928Y-47100000D01*
X84052157Y-47100000D01*
X84130537Y-47004494D01*
X84189502Y-46894180D01*
X84225812Y-46774482D01*
X84238072Y-46650000D01*
X84238072Y-45750000D01*
X84225812Y-45625518D01*
X84189502Y-45505820D01*
X84175633Y-45479873D01*
X84177962Y-45477962D01*
X84288405Y-45343387D01*
X84370472Y-45189851D01*
X84382560Y-45150000D01*
X86756928Y-45150000D01*
X86760000Y-45839250D01*
X86918750Y-45998000D01*
X87568000Y-45998000D01*
X87568000Y-44673750D01*
X87409250Y-44515000D01*
X87395000Y-44511928D01*
X87270518Y-44524188D01*
X87150820Y-44560498D01*
X87040506Y-44619463D01*
X86943815Y-44698815D01*
X86864463Y-44795506D01*
X86805498Y-44905820D01*
X86769188Y-45025518D01*
X86756928Y-45150000D01*
X84382560Y-45150000D01*
X84421008Y-45023255D01*
X84438072Y-44850001D01*
X84438072Y-43949999D01*
X84421008Y-43776745D01*
X84370472Y-43610149D01*
X84288405Y-43456613D01*
X84203491Y-43353145D01*
X84290256Y-43317205D01*
X84459774Y-43203937D01*
X84503711Y-43160000D01*
X84885199Y-43160000D01*
X85636200Y-43911002D01*
G37*
%TD.AperFunction*%
%TD*%
M02*
