%TF.GenerationSoftware,KiCad,Pcbnew,(5.1.7)-1*%
%TF.CreationDate,2021-02-26T19:53:25+00:00*%
%TF.ProjectId,Line-Generator-V2,4c696e65-2d47-4656-9e65-7261746f722d,rev?*%
%TF.SameCoordinates,Original*%
%TF.FileFunction,Legend,Bot*%
%TF.FilePolarity,Positive*%
%FSLAX46Y46*%
G04 Gerber Fmt 4.6, Leading zero omitted, Abs format (unit mm)*
G04 Created by KiCad (PCBNEW (5.1.7)-1) date 2021-02-26 19:53:25*
%MOMM*%
%LPD*%
G01*
G04 APERTURE LIST*
%ADD10C,0.120000*%
%ADD11C,0.150000*%
G04 APERTURE END LIST*
D10*
%TO.C,D2*%
X96000000Y-52760000D02*
X97330000Y-52760000D01*
X97330000Y-52760000D02*
X97330000Y-52000000D01*
X97330000Y-51365000D02*
X97330000Y-48765000D01*
X96307530Y-48765000D02*
X97330000Y-48765000D01*
X94670000Y-48765000D02*
X95692470Y-48765000D01*
X94670000Y-51365000D02*
X94670000Y-48765000D01*
X96760000Y-51365000D02*
X97330000Y-51365000D01*
X94670000Y-51365000D02*
X95240000Y-51365000D01*
D11*
X96738095Y-54587380D02*
X96738095Y-53587380D01*
X96500000Y-53587380D01*
X96357142Y-53635000D01*
X96261904Y-53730238D01*
X96214285Y-53825476D01*
X96166666Y-54015952D01*
X96166666Y-54158809D01*
X96214285Y-54349285D01*
X96261904Y-54444523D01*
X96357142Y-54539761D01*
X96500000Y-54587380D01*
X96738095Y-54587380D01*
X95785714Y-53682619D02*
X95738095Y-53635000D01*
X95642857Y-53587380D01*
X95404761Y-53587380D01*
X95309523Y-53635000D01*
X95261904Y-53682619D01*
X95214285Y-53777857D01*
X95214285Y-53873095D01*
X95261904Y-54015952D01*
X95833333Y-54587380D01*
X95214285Y-54587380D01*
%TD*%
M02*
