M48
; DRILL file {KiCad (5.1.7)-1} date 02/26/21 18:57:05
; FORMAT={3:3/ absolute / metric / suppress leading zeros}
; #@! TF.CreationDate,2021-02-26T18:57:05+00:00
; #@! TF.GenerationSoftware,Kicad,Pcbnew,(5.1.7)-1
FMAT,2
METRIC,TZ
T1C0.400
T2C0.700
T3C0.800
T4C0.950
T5C3.200
%
G90
G05
T1
X73600Y-43000
X79200Y-48600
X79800Y-53600
X81000Y-50400
X83800Y-42400
X84000Y-50200
X85000Y-60400
T2
X96000Y-49460
X96000Y-50730
X96000Y-52000
T3
X84780Y-63200
X92400Y-63200
X83780Y-37600
X91400Y-37600
X69500Y-60250
X72040Y-60250
X74580Y-60250
X69420Y-41250
X71960Y-41250
X74500Y-41250
T4
X69750Y-47000
X69750Y-49500
X69750Y-52000
X69750Y-54500
T5
X90000Y-56800
X102000Y-44800
T0
M30
