%TF.GenerationSoftware,KiCad,Pcbnew,(5.1.7)-1*%
%TF.CreationDate,2021-02-26T19:53:25+00:00*%
%TF.ProjectId,Line-Generator-V2,4c696e65-2d47-4656-9e65-7261746f722d,rev?*%
%TF.SameCoordinates,Original*%
%TF.FileFunction,Soldermask,Top*%
%TF.FilePolarity,Negative*%
%FSLAX46Y46*%
G04 Gerber Fmt 4.6, Leading zero omitted, Abs format (unit mm)*
G04 Created by KiCad (PCBNEW (5.1.7)-1) date 2021-02-26 19:53:25*
%MOMM*%
%LPD*%
G01*
G04 APERTURE LIST*
%ADD10C,1.542000*%
%ADD11O,1.102000X1.102000*%
%ADD12O,2.052000X1.802000*%
%ADD13C,1.702000*%
%ADD14O,1.702000X1.702000*%
%ADD15C,5.702000*%
%ADD16C,0.100000*%
G04 APERTURE END LIST*
D10*
%TO.C,RV2*%
X69500000Y-60250000D03*
X72040000Y-60250000D03*
X74580000Y-60250000D03*
%TD*%
%TO.C,RV1*%
X74500000Y-41250000D03*
X71960000Y-41250000D03*
X69420000Y-41250000D03*
%TD*%
%TO.C,C1*%
G36*
G01*
X75250500Y-54501000D02*
X74249500Y-54501000D01*
G75*
G02*
X73974000Y-54225500I0J275500D01*
G01*
X73974000Y-53674500D01*
G75*
G02*
X74249500Y-53399000I275500J0D01*
G01*
X75250500Y-53399000D01*
G75*
G02*
X75526000Y-53674500I0J-275500D01*
G01*
X75526000Y-54225500D01*
G75*
G02*
X75250500Y-54501000I-275500J0D01*
G01*
G37*
G36*
G01*
X75250500Y-52601000D02*
X74249500Y-52601000D01*
G75*
G02*
X73974000Y-52325500I0J275500D01*
G01*
X73974000Y-51774500D01*
G75*
G02*
X74249500Y-51499000I275500J0D01*
G01*
X75250500Y-51499000D01*
G75*
G02*
X75526000Y-51774500I0J-275500D01*
G01*
X75526000Y-52325500D01*
G75*
G02*
X75250500Y-52601000I-275500J0D01*
G01*
G37*
%TD*%
%TO.C,C2*%
G36*
G01*
X76149000Y-45750500D02*
X76149000Y-44749500D01*
G75*
G02*
X76424500Y-44474000I275500J0D01*
G01*
X76975500Y-44474000D01*
G75*
G02*
X77251000Y-44749500I0J-275500D01*
G01*
X77251000Y-45750500D01*
G75*
G02*
X76975500Y-46026000I-275500J0D01*
G01*
X76424500Y-46026000D01*
G75*
G02*
X76149000Y-45750500I0J275500D01*
G01*
G37*
G36*
G01*
X74249000Y-45750500D02*
X74249000Y-44749500D01*
G75*
G02*
X74524500Y-44474000I275500J0D01*
G01*
X75075500Y-44474000D01*
G75*
G02*
X75351000Y-44749500I0J-275500D01*
G01*
X75351000Y-45750500D01*
G75*
G02*
X75075500Y-46026000I-275500J0D01*
G01*
X74524500Y-46026000D01*
G75*
G02*
X74249000Y-45750500I0J275500D01*
G01*
G37*
%TD*%
%TO.C,C3*%
G36*
G01*
X77001000Y-55499500D02*
X77001000Y-56500500D01*
G75*
G02*
X76725500Y-56776000I-275500J0D01*
G01*
X76174500Y-56776000D01*
G75*
G02*
X75899000Y-56500500I0J275500D01*
G01*
X75899000Y-55499500D01*
G75*
G02*
X76174500Y-55224000I275500J0D01*
G01*
X76725500Y-55224000D01*
G75*
G02*
X77001000Y-55499500I0J-275500D01*
G01*
G37*
G36*
G01*
X75101000Y-55499500D02*
X75101000Y-56500500D01*
G75*
G02*
X74825500Y-56776000I-275500J0D01*
G01*
X74274500Y-56776000D01*
G75*
G02*
X73999000Y-56500500I0J275500D01*
G01*
X73999000Y-55499500D01*
G75*
G02*
X74274500Y-55224000I275500J0D01*
G01*
X74825500Y-55224000D01*
G75*
G02*
X75101000Y-55499500I0J-275500D01*
G01*
G37*
%TD*%
%TO.C,D1*%
G36*
G01*
X77449000Y-42600000D02*
X77449000Y-41400000D01*
G75*
G02*
X77500000Y-41349000I51000J0D01*
G01*
X78400000Y-41349000D01*
G75*
G02*
X78451000Y-41400000I0J-51000D01*
G01*
X78451000Y-42600000D01*
G75*
G02*
X78400000Y-42651000I-51000J0D01*
G01*
X77500000Y-42651000D01*
G75*
G02*
X77449000Y-42600000I0J51000D01*
G01*
G37*
G36*
G01*
X80749000Y-42600000D02*
X80749000Y-41400000D01*
G75*
G02*
X80800000Y-41349000I51000J0D01*
G01*
X81700000Y-41349000D01*
G75*
G02*
X81751000Y-41400000I0J-51000D01*
G01*
X81751000Y-42600000D01*
G75*
G02*
X81700000Y-42651000I-51000J0D01*
G01*
X80800000Y-42651000D01*
G75*
G02*
X80749000Y-42600000I0J51000D01*
G01*
G37*
%TD*%
%TO.C,D2*%
G36*
G01*
X95449000Y-52500000D02*
X95449000Y-51500000D01*
G75*
G02*
X95500000Y-51449000I51000J0D01*
G01*
X96500000Y-51449000D01*
G75*
G02*
X96551000Y-51500000I0J-51000D01*
G01*
X96551000Y-52500000D01*
G75*
G02*
X96500000Y-52551000I-51000J0D01*
G01*
X95500000Y-52551000D01*
G75*
G02*
X95449000Y-52500000I0J51000D01*
G01*
G37*
D11*
X96000000Y-50730000D03*
X96000000Y-49460000D03*
%TD*%
%TO.C,D3*%
G36*
G01*
X80749000Y-59800000D02*
X80749000Y-58600000D01*
G75*
G02*
X80800000Y-58549000I51000J0D01*
G01*
X81700000Y-58549000D01*
G75*
G02*
X81751000Y-58600000I0J-51000D01*
G01*
X81751000Y-59800000D01*
G75*
G02*
X81700000Y-59851000I-51000J0D01*
G01*
X80800000Y-59851000D01*
G75*
G02*
X80749000Y-59800000I0J51000D01*
G01*
G37*
G36*
G01*
X77449000Y-59800000D02*
X77449000Y-58600000D01*
G75*
G02*
X77500000Y-58549000I51000J0D01*
G01*
X78400000Y-58549000D01*
G75*
G02*
X78451000Y-58600000I0J-51000D01*
G01*
X78451000Y-59800000D01*
G75*
G02*
X78400000Y-59851000I-51000J0D01*
G01*
X77500000Y-59851000D01*
G75*
G02*
X77449000Y-59800000I0J51000D01*
G01*
G37*
%TD*%
%TO.C,J1*%
G36*
G01*
X70511000Y-55401000D02*
X68989000Y-55401000D01*
G75*
G02*
X68724000Y-55136000I0J265000D01*
G01*
X68724000Y-53864000D01*
G75*
G02*
X68989000Y-53599000I265000J0D01*
G01*
X70511000Y-53599000D01*
G75*
G02*
X70776000Y-53864000I0J-265000D01*
G01*
X70776000Y-55136000D01*
G75*
G02*
X70511000Y-55401000I-265000J0D01*
G01*
G37*
D12*
X69750000Y-52000000D03*
X69750000Y-49500000D03*
X69750000Y-47000000D03*
%TD*%
%TO.C,Q1*%
G36*
G01*
X83600000Y-46701000D02*
X82800000Y-46701000D01*
G75*
G02*
X82749000Y-46650000I0J51000D01*
G01*
X82749000Y-45750000D01*
G75*
G02*
X82800000Y-45699000I51000J0D01*
G01*
X83600000Y-45699000D01*
G75*
G02*
X83651000Y-45750000I0J-51000D01*
G01*
X83651000Y-46650000D01*
G75*
G02*
X83600000Y-46701000I-51000J0D01*
G01*
G37*
G36*
G01*
X84550000Y-48701000D02*
X83750000Y-48701000D01*
G75*
G02*
X83699000Y-48650000I0J51000D01*
G01*
X83699000Y-47750000D01*
G75*
G02*
X83750000Y-47699000I51000J0D01*
G01*
X84550000Y-47699000D01*
G75*
G02*
X84601000Y-47750000I0J-51000D01*
G01*
X84601000Y-48650000D01*
G75*
G02*
X84550000Y-48701000I-51000J0D01*
G01*
G37*
G36*
G01*
X82650000Y-48701000D02*
X81850000Y-48701000D01*
G75*
G02*
X81799000Y-48650000I0J51000D01*
G01*
X81799000Y-47750000D01*
G75*
G02*
X81850000Y-47699000I51000J0D01*
G01*
X82650000Y-47699000D01*
G75*
G02*
X82701000Y-47750000I0J-51000D01*
G01*
X82701000Y-48650000D01*
G75*
G02*
X82650000Y-48701000I-51000J0D01*
G01*
G37*
%TD*%
%TO.C,Q2*%
G36*
G01*
X92999000Y-38050000D02*
X92999000Y-36550000D01*
G75*
G02*
X93050000Y-36499000I51000J0D01*
G01*
X95050000Y-36499000D01*
G75*
G02*
X95101000Y-36550000I0J-51000D01*
G01*
X95101000Y-38050000D01*
G75*
G02*
X95050000Y-38101000I-51000J0D01*
G01*
X93050000Y-38101000D01*
G75*
G02*
X92999000Y-38050000I0J51000D01*
G01*
G37*
G36*
G01*
X92999000Y-42650000D02*
X92999000Y-41150000D01*
G75*
G02*
X93050000Y-41099000I51000J0D01*
G01*
X95050000Y-41099000D01*
G75*
G02*
X95101000Y-41150000I0J-51000D01*
G01*
X95101000Y-42650000D01*
G75*
G02*
X95050000Y-42701000I-51000J0D01*
G01*
X93050000Y-42701000D01*
G75*
G02*
X92999000Y-42650000I0J51000D01*
G01*
G37*
G36*
G01*
X92999000Y-40350000D02*
X92999000Y-38850000D01*
G75*
G02*
X93050000Y-38799000I51000J0D01*
G01*
X95050000Y-38799000D01*
G75*
G02*
X95101000Y-38850000I0J-51000D01*
G01*
X95101000Y-40350000D01*
G75*
G02*
X95050000Y-40401000I-51000J0D01*
G01*
X93050000Y-40401000D01*
G75*
G02*
X92999000Y-40350000I0J51000D01*
G01*
G37*
G36*
G01*
X99299000Y-41500000D02*
X99299000Y-37700000D01*
G75*
G02*
X99350000Y-37649000I51000J0D01*
G01*
X101350000Y-37649000D01*
G75*
G02*
X101401000Y-37700000I0J-51000D01*
G01*
X101401000Y-41500000D01*
G75*
G02*
X101350000Y-41551000I-51000J0D01*
G01*
X99350000Y-41551000D01*
G75*
G02*
X99299000Y-41500000I0J51000D01*
G01*
G37*
%TD*%
%TO.C,Q3*%
G36*
G01*
X100499000Y-62900000D02*
X100499000Y-59100000D01*
G75*
G02*
X100550000Y-59049000I51000J0D01*
G01*
X102550000Y-59049000D01*
G75*
G02*
X102601000Y-59100000I0J-51000D01*
G01*
X102601000Y-62900000D01*
G75*
G02*
X102550000Y-62951000I-51000J0D01*
G01*
X100550000Y-62951000D01*
G75*
G02*
X100499000Y-62900000I0J51000D01*
G01*
G37*
G36*
G01*
X94199000Y-61750000D02*
X94199000Y-60250000D01*
G75*
G02*
X94250000Y-60199000I51000J0D01*
G01*
X96250000Y-60199000D01*
G75*
G02*
X96301000Y-60250000I0J-51000D01*
G01*
X96301000Y-61750000D01*
G75*
G02*
X96250000Y-61801000I-51000J0D01*
G01*
X94250000Y-61801000D01*
G75*
G02*
X94199000Y-61750000I0J51000D01*
G01*
G37*
G36*
G01*
X94199000Y-64050000D02*
X94199000Y-62550000D01*
G75*
G02*
X94250000Y-62499000I51000J0D01*
G01*
X96250000Y-62499000D01*
G75*
G02*
X96301000Y-62550000I0J-51000D01*
G01*
X96301000Y-64050000D01*
G75*
G02*
X96250000Y-64101000I-51000J0D01*
G01*
X94250000Y-64101000D01*
G75*
G02*
X94199000Y-64050000I0J51000D01*
G01*
G37*
G36*
G01*
X94199000Y-59450000D02*
X94199000Y-57950000D01*
G75*
G02*
X94250000Y-57899000I51000J0D01*
G01*
X96250000Y-57899000D01*
G75*
G02*
X96301000Y-57950000I0J-51000D01*
G01*
X96301000Y-59450000D01*
G75*
G02*
X96250000Y-59501000I-51000J0D01*
G01*
X94250000Y-59501000D01*
G75*
G02*
X94199000Y-59450000I0J51000D01*
G01*
G37*
%TD*%
%TO.C,Q4*%
G36*
G01*
X83750000Y-52099000D02*
X84550000Y-52099000D01*
G75*
G02*
X84601000Y-52150000I0J-51000D01*
G01*
X84601000Y-53050000D01*
G75*
G02*
X84550000Y-53101000I-51000J0D01*
G01*
X83750000Y-53101000D01*
G75*
G02*
X83699000Y-53050000I0J51000D01*
G01*
X83699000Y-52150000D01*
G75*
G02*
X83750000Y-52099000I51000J0D01*
G01*
G37*
G36*
G01*
X81850000Y-52099000D02*
X82650000Y-52099000D01*
G75*
G02*
X82701000Y-52150000I0J-51000D01*
G01*
X82701000Y-53050000D01*
G75*
G02*
X82650000Y-53101000I-51000J0D01*
G01*
X81850000Y-53101000D01*
G75*
G02*
X81799000Y-53050000I0J51000D01*
G01*
X81799000Y-52150000D01*
G75*
G02*
X81850000Y-52099000I51000J0D01*
G01*
G37*
G36*
G01*
X82800000Y-54099000D02*
X83600000Y-54099000D01*
G75*
G02*
X83651000Y-54150000I0J-51000D01*
G01*
X83651000Y-55050000D01*
G75*
G02*
X83600000Y-55101000I-51000J0D01*
G01*
X82800000Y-55101000D01*
G75*
G02*
X82749000Y-55050000I0J51000D01*
G01*
X82749000Y-54150000D01*
G75*
G02*
X82800000Y-54099000I51000J0D01*
G01*
G37*
%TD*%
%TO.C,R1*%
G36*
G01*
X77376000Y-49521172D02*
X77376000Y-50478828D01*
G75*
G02*
X77103828Y-50751000I-272172J0D01*
G01*
X76396172Y-50751000D01*
G75*
G02*
X76124000Y-50478828I0J272172D01*
G01*
X76124000Y-49521172D01*
G75*
G02*
X76396172Y-49249000I272172J0D01*
G01*
X77103828Y-49249000D01*
G75*
G02*
X77376000Y-49521172I0J-272172D01*
G01*
G37*
G36*
G01*
X75326000Y-49521172D02*
X75326000Y-50478828D01*
G75*
G02*
X75053828Y-50751000I-272172J0D01*
G01*
X74346172Y-50751000D01*
G75*
G02*
X74074000Y-50478828I0J272172D01*
G01*
X74074000Y-49521172D01*
G75*
G02*
X74346172Y-49249000I272172J0D01*
G01*
X75053828Y-49249000D01*
G75*
G02*
X75326000Y-49521172I0J-272172D01*
G01*
G37*
%TD*%
%TO.C,R2*%
G36*
G01*
X79374000Y-39978828D02*
X79374000Y-39021172D01*
G75*
G02*
X79646172Y-38749000I272172J0D01*
G01*
X80353828Y-38749000D01*
G75*
G02*
X80626000Y-39021172I0J-272172D01*
G01*
X80626000Y-39978828D01*
G75*
G02*
X80353828Y-40251000I-272172J0D01*
G01*
X79646172Y-40251000D01*
G75*
G02*
X79374000Y-39978828I0J272172D01*
G01*
G37*
G36*
G01*
X77324000Y-39978828D02*
X77324000Y-39021172D01*
G75*
G02*
X77596172Y-38749000I272172J0D01*
G01*
X78303828Y-38749000D01*
G75*
G02*
X78576000Y-39021172I0J-272172D01*
G01*
X78576000Y-39978828D01*
G75*
G02*
X78303828Y-40251000I-272172J0D01*
G01*
X77596172Y-40251000D01*
G75*
G02*
X77324000Y-39978828I0J272172D01*
G01*
G37*
%TD*%
%TO.C,R3*%
G36*
G01*
X82599000Y-44878828D02*
X82599000Y-43921172D01*
G75*
G02*
X82871172Y-43649000I272172J0D01*
G01*
X83578828Y-43649000D01*
G75*
G02*
X83851000Y-43921172I0J-272172D01*
G01*
X83851000Y-44878828D01*
G75*
G02*
X83578828Y-45151000I-272172J0D01*
G01*
X82871172Y-45151000D01*
G75*
G02*
X82599000Y-44878828I0J272172D01*
G01*
G37*
G36*
G01*
X80549000Y-44878828D02*
X80549000Y-43921172D01*
G75*
G02*
X80821172Y-43649000I272172J0D01*
G01*
X81528828Y-43649000D01*
G75*
G02*
X81801000Y-43921172I0J-272172D01*
G01*
X81801000Y-44878828D01*
G75*
G02*
X81528828Y-45151000I-272172J0D01*
G01*
X80821172Y-45151000D01*
G75*
G02*
X80549000Y-44878828I0J272172D01*
G01*
G37*
%TD*%
D13*
%TO.C,R4*%
X91400000Y-37600000D03*
D14*
X83780000Y-37600000D03*
%TD*%
%TO.C,R5*%
X84780000Y-63200000D03*
D13*
X92400000Y-63200000D03*
%TD*%
%TO.C,R6*%
G36*
G01*
X79399000Y-62478828D02*
X79399000Y-61521172D01*
G75*
G02*
X79671172Y-61249000I272172J0D01*
G01*
X80378828Y-61249000D01*
G75*
G02*
X80651000Y-61521172I0J-272172D01*
G01*
X80651000Y-62478828D01*
G75*
G02*
X80378828Y-62751000I-272172J0D01*
G01*
X79671172Y-62751000D01*
G75*
G02*
X79399000Y-62478828I0J272172D01*
G01*
G37*
G36*
G01*
X77349000Y-62478828D02*
X77349000Y-61521172D01*
G75*
G02*
X77621172Y-61249000I272172J0D01*
G01*
X78328828Y-61249000D01*
G75*
G02*
X78601000Y-61521172I0J-272172D01*
G01*
X78601000Y-62478828D01*
G75*
G02*
X78328828Y-62751000I-272172J0D01*
G01*
X77621172Y-62751000D01*
G75*
G02*
X77349000Y-62478828I0J272172D01*
G01*
G37*
%TD*%
%TO.C,R7*%
G36*
G01*
X80549000Y-57278828D02*
X80549000Y-56321172D01*
G75*
G02*
X80821172Y-56049000I272172J0D01*
G01*
X81528828Y-56049000D01*
G75*
G02*
X81801000Y-56321172I0J-272172D01*
G01*
X81801000Y-57278828D01*
G75*
G02*
X81528828Y-57551000I-272172J0D01*
G01*
X80821172Y-57551000D01*
G75*
G02*
X80549000Y-57278828I0J272172D01*
G01*
G37*
G36*
G01*
X82599000Y-57278828D02*
X82599000Y-56321172D01*
G75*
G02*
X82871172Y-56049000I272172J0D01*
G01*
X83578828Y-56049000D01*
G75*
G02*
X83851000Y-56321172I0J-272172D01*
G01*
X83851000Y-57278828D01*
G75*
G02*
X83578828Y-57551000I-272172J0D01*
G01*
X82871172Y-57551000D01*
G75*
G02*
X82599000Y-57278828I0J272172D01*
G01*
G37*
%TD*%
%TO.C,R8*%
G36*
G01*
X77401000Y-47271172D02*
X77401000Y-48228828D01*
G75*
G02*
X77128828Y-48501000I-272172J0D01*
G01*
X76421172Y-48501000D01*
G75*
G02*
X76149000Y-48228828I0J272172D01*
G01*
X76149000Y-47271172D01*
G75*
G02*
X76421172Y-46999000I272172J0D01*
G01*
X77128828Y-46999000D01*
G75*
G02*
X77401000Y-47271172I0J-272172D01*
G01*
G37*
G36*
G01*
X75351000Y-47271172D02*
X75351000Y-48228828D01*
G75*
G02*
X75078828Y-48501000I-272172J0D01*
G01*
X74371172Y-48501000D01*
G75*
G02*
X74099000Y-48228828I0J272172D01*
G01*
X74099000Y-47271172D01*
G75*
G02*
X74371172Y-46999000I272172J0D01*
G01*
X75078828Y-46999000D01*
G75*
G02*
X75351000Y-47271172I0J-272172D01*
G01*
G37*
%TD*%
%TO.C,U1*%
G36*
G01*
X91329500Y-45099000D02*
X91680500Y-45099000D01*
G75*
G02*
X91856000Y-45274500I0J-175500D01*
G01*
X91856000Y-46975500D01*
G75*
G02*
X91680500Y-47151000I-175500J0D01*
G01*
X91329500Y-47151000D01*
G75*
G02*
X91154000Y-46975500I0J175500D01*
G01*
X91154000Y-45274500D01*
G75*
G02*
X91329500Y-45099000I175500J0D01*
G01*
G37*
G36*
G01*
X90059500Y-45099000D02*
X90410500Y-45099000D01*
G75*
G02*
X90586000Y-45274500I0J-175500D01*
G01*
X90586000Y-46975500D01*
G75*
G02*
X90410500Y-47151000I-175500J0D01*
G01*
X90059500Y-47151000D01*
G75*
G02*
X89884000Y-46975500I0J175500D01*
G01*
X89884000Y-45274500D01*
G75*
G02*
X90059500Y-45099000I175500J0D01*
G01*
G37*
G36*
G01*
X88789500Y-45099000D02*
X89140500Y-45099000D01*
G75*
G02*
X89316000Y-45274500I0J-175500D01*
G01*
X89316000Y-46975500D01*
G75*
G02*
X89140500Y-47151000I-175500J0D01*
G01*
X88789500Y-47151000D01*
G75*
G02*
X88614000Y-46975500I0J175500D01*
G01*
X88614000Y-45274500D01*
G75*
G02*
X88789500Y-45099000I175500J0D01*
G01*
G37*
G36*
G01*
X87519500Y-45099000D02*
X87870500Y-45099000D01*
G75*
G02*
X88046000Y-45274500I0J-175500D01*
G01*
X88046000Y-46975500D01*
G75*
G02*
X87870500Y-47151000I-175500J0D01*
G01*
X87519500Y-47151000D01*
G75*
G02*
X87344000Y-46975500I0J175500D01*
G01*
X87344000Y-45274500D01*
G75*
G02*
X87519500Y-45099000I175500J0D01*
G01*
G37*
G36*
G01*
X87519500Y-50049000D02*
X87870500Y-50049000D01*
G75*
G02*
X88046000Y-50224500I0J-175500D01*
G01*
X88046000Y-51925500D01*
G75*
G02*
X87870500Y-52101000I-175500J0D01*
G01*
X87519500Y-52101000D01*
G75*
G02*
X87344000Y-51925500I0J175500D01*
G01*
X87344000Y-50224500D01*
G75*
G02*
X87519500Y-50049000I175500J0D01*
G01*
G37*
G36*
G01*
X88789500Y-50049000D02*
X89140500Y-50049000D01*
G75*
G02*
X89316000Y-50224500I0J-175500D01*
G01*
X89316000Y-51925500D01*
G75*
G02*
X89140500Y-52101000I-175500J0D01*
G01*
X88789500Y-52101000D01*
G75*
G02*
X88614000Y-51925500I0J175500D01*
G01*
X88614000Y-50224500D01*
G75*
G02*
X88789500Y-50049000I175500J0D01*
G01*
G37*
G36*
G01*
X90059500Y-50049000D02*
X90410500Y-50049000D01*
G75*
G02*
X90586000Y-50224500I0J-175500D01*
G01*
X90586000Y-51925500D01*
G75*
G02*
X90410500Y-52101000I-175500J0D01*
G01*
X90059500Y-52101000D01*
G75*
G02*
X89884000Y-51925500I0J175500D01*
G01*
X89884000Y-50224500D01*
G75*
G02*
X90059500Y-50049000I175500J0D01*
G01*
G37*
G36*
G01*
X91329500Y-50049000D02*
X91680500Y-50049000D01*
G75*
G02*
X91856000Y-50224500I0J-175500D01*
G01*
X91856000Y-51925500D01*
G75*
G02*
X91680500Y-52101000I-175500J0D01*
G01*
X91329500Y-52101000D01*
G75*
G02*
X91154000Y-51925500I0J175500D01*
G01*
X91154000Y-50224500D01*
G75*
G02*
X91329500Y-50049000I175500J0D01*
G01*
G37*
%TD*%
D15*
%TO.C,H1*%
X102000000Y-44800000D03*
%TD*%
%TO.C,H4*%
X90000000Y-56800000D03*
%TD*%
D16*
G36*
X68725990Y-55135804D02*
G01*
X68731062Y-55187304D01*
X68746029Y-55236642D01*
X68770332Y-55282110D01*
X68803038Y-55321962D01*
X68842890Y-55354668D01*
X68888358Y-55378971D01*
X68937696Y-55393938D01*
X68989196Y-55399010D01*
X68990822Y-55400175D01*
X68990626Y-55402165D01*
X68989000Y-55403000D01*
X68906903Y-55403000D01*
X68906707Y-55402990D01*
X68866204Y-55399001D01*
X68865819Y-55398925D01*
X68832767Y-55388899D01*
X68832405Y-55388749D01*
X68801954Y-55372472D01*
X68801628Y-55372254D01*
X68774932Y-55350345D01*
X68774655Y-55350068D01*
X68752746Y-55323372D01*
X68752528Y-55323046D01*
X68736251Y-55292595D01*
X68736101Y-55292233D01*
X68726075Y-55259181D01*
X68725999Y-55258796D01*
X68722010Y-55218293D01*
X68722000Y-55218097D01*
X68722000Y-55136000D01*
X68723000Y-55134268D01*
X68725000Y-55134268D01*
X68725990Y-55135804D01*
G37*
G36*
X70777165Y-55134374D02*
G01*
X70778000Y-55136000D01*
X70778000Y-55218097D01*
X70777990Y-55218293D01*
X70774001Y-55258796D01*
X70773925Y-55259181D01*
X70763899Y-55292233D01*
X70763749Y-55292595D01*
X70747472Y-55323046D01*
X70747254Y-55323372D01*
X70725345Y-55350068D01*
X70725068Y-55350345D01*
X70698372Y-55372254D01*
X70698046Y-55372472D01*
X70667595Y-55388749D01*
X70667233Y-55388899D01*
X70634181Y-55398925D01*
X70633796Y-55399001D01*
X70593293Y-55402990D01*
X70593097Y-55403000D01*
X70511000Y-55403000D01*
X70509268Y-55402000D01*
X70509268Y-55400000D01*
X70510804Y-55399010D01*
X70562304Y-55393938D01*
X70611642Y-55378971D01*
X70657110Y-55354668D01*
X70696962Y-55321962D01*
X70729668Y-55282110D01*
X70753971Y-55236642D01*
X70768938Y-55187304D01*
X70774010Y-55135804D01*
X70775175Y-55134178D01*
X70777165Y-55134374D01*
G37*
G36*
X68990732Y-53598000D02*
G01*
X68990732Y-53600000D01*
X68989196Y-53600990D01*
X68937696Y-53606062D01*
X68888358Y-53621029D01*
X68842890Y-53645332D01*
X68803038Y-53678038D01*
X68770332Y-53717890D01*
X68746029Y-53763358D01*
X68731062Y-53812696D01*
X68725990Y-53864196D01*
X68724825Y-53865822D01*
X68722835Y-53865626D01*
X68722000Y-53864000D01*
X68722000Y-53781903D01*
X68722010Y-53781707D01*
X68725999Y-53741204D01*
X68726075Y-53740819D01*
X68736101Y-53707767D01*
X68736251Y-53707405D01*
X68752528Y-53676954D01*
X68752746Y-53676628D01*
X68774655Y-53649932D01*
X68774932Y-53649655D01*
X68801628Y-53627746D01*
X68801954Y-53627528D01*
X68832405Y-53611251D01*
X68832767Y-53611101D01*
X68865819Y-53601075D01*
X68866204Y-53600999D01*
X68906707Y-53597010D01*
X68906903Y-53597000D01*
X68989000Y-53597000D01*
X68990732Y-53598000D01*
G37*
G36*
X70593293Y-53597010D02*
G01*
X70633796Y-53600999D01*
X70634181Y-53601075D01*
X70667233Y-53611101D01*
X70667595Y-53611251D01*
X70698046Y-53627528D01*
X70698372Y-53627746D01*
X70725068Y-53649655D01*
X70725345Y-53649932D01*
X70747254Y-53676628D01*
X70747472Y-53676954D01*
X70763749Y-53707405D01*
X70763899Y-53707767D01*
X70773925Y-53740819D01*
X70774001Y-53741204D01*
X70777990Y-53781707D01*
X70778000Y-53781903D01*
X70778000Y-53864000D01*
X70777000Y-53865732D01*
X70775000Y-53865732D01*
X70774010Y-53864196D01*
X70768938Y-53812696D01*
X70753971Y-53763358D01*
X70729668Y-53717890D01*
X70696962Y-53678038D01*
X70657110Y-53645332D01*
X70611642Y-53621029D01*
X70562304Y-53606062D01*
X70510804Y-53600990D01*
X70509178Y-53599825D01*
X70509374Y-53597835D01*
X70511000Y-53597000D01*
X70593097Y-53597000D01*
X70593293Y-53597010D01*
G37*
G36*
X96258105Y-51215534D02*
G01*
X96258870Y-51217382D01*
X96257998Y-51218784D01*
X96253670Y-51221676D01*
X96234955Y-51237035D01*
X96219660Y-51255672D01*
X96208295Y-51276935D01*
X96201295Y-51300010D01*
X96198932Y-51324001D01*
X96201295Y-51347993D01*
X96208295Y-51371068D01*
X96219660Y-51392331D01*
X96234956Y-51410968D01*
X96253593Y-51426263D01*
X96274856Y-51437628D01*
X96297931Y-51444628D01*
X96322118Y-51447010D01*
X96323744Y-51448175D01*
X96323548Y-51450165D01*
X96321922Y-51451000D01*
X95678078Y-51451000D01*
X95676346Y-51450000D01*
X95676346Y-51448000D01*
X95677882Y-51447010D01*
X95702069Y-51444628D01*
X95725144Y-51437628D01*
X95746408Y-51426263D01*
X95765045Y-51410968D01*
X95780340Y-51392331D01*
X95791705Y-51371067D01*
X95798705Y-51347992D01*
X95801068Y-51324001D01*
X95798705Y-51300010D01*
X95791705Y-51276935D01*
X95780340Y-51255671D01*
X95765045Y-51237034D01*
X95746330Y-51221676D01*
X95742002Y-51218784D01*
X95741117Y-51216990D01*
X95742228Y-51215327D01*
X95743878Y-51215273D01*
X95840635Y-51255350D01*
X95946192Y-51276347D01*
X96053808Y-51276347D01*
X96159365Y-51255350D01*
X96256122Y-51215273D01*
X96258105Y-51215534D01*
G37*
G36*
X96172906Y-49980824D02*
G01*
X96173671Y-49982672D01*
X96172631Y-49984175D01*
X96156609Y-49992738D01*
X96137972Y-50008033D01*
X96122677Y-50026670D01*
X96111312Y-50047934D01*
X96104312Y-50071009D01*
X96101949Y-50095000D01*
X96104312Y-50118991D01*
X96111312Y-50142066D01*
X96122677Y-50163330D01*
X96137972Y-50181967D01*
X96156609Y-50197262D01*
X96172631Y-50205825D01*
X96173687Y-50207524D01*
X96172744Y-50209287D01*
X96170923Y-50209437D01*
X96159365Y-50204650D01*
X96053808Y-50183653D01*
X95946192Y-50183653D01*
X95840635Y-50204650D01*
X95829077Y-50209437D01*
X95827094Y-50209176D01*
X95826329Y-50207328D01*
X95827369Y-50205825D01*
X95843391Y-50197262D01*
X95862028Y-50181967D01*
X95877323Y-50163330D01*
X95888688Y-50142066D01*
X95895688Y-50118991D01*
X95898051Y-50095000D01*
X95895688Y-50071009D01*
X95888688Y-50047934D01*
X95877323Y-50026670D01*
X95862028Y-50008033D01*
X95843391Y-49992738D01*
X95827369Y-49984175D01*
X95826313Y-49982476D01*
X95827256Y-49980713D01*
X95829077Y-49980563D01*
X95840635Y-49985350D01*
X95946192Y-50006347D01*
X96053808Y-50006347D01*
X96159365Y-49985350D01*
X96170923Y-49980563D01*
X96172906Y-49980824D01*
G37*
M02*
