G04 #@! TF.GenerationSoftware,KiCad,Pcbnew,(5.1.0)-1*
G04 #@! TF.CreationDate,2020-04-02T13:59:07+01:00*
G04 #@! TF.ProjectId,Camera Adapter,43616d65-7261-4204-9164-61707465722e,rev?*
G04 #@! TF.SameCoordinates,Original*
G04 #@! TF.FileFunction,Paste,Top*
G04 #@! TF.FilePolarity,Positive*
%FSLAX46Y46*%
G04 Gerber Fmt 4.6, Leading zero omitted, Abs format (unit mm)*
G04 Created by KiCad (PCBNEW (5.1.0)-1) date 2020-04-02 13:59:07*
%MOMM*%
%LPD*%
G04 APERTURE LIST*
%ADD10R,3.200000X0.700000*%
%ADD11C,0.100000*%
%ADD12C,1.150000*%
%ADD13R,1.650000X0.600000*%
%ADD14R,1.850000X0.600000*%
%ADD15C,1.000000*%
%ADD16C,1.500000*%
%ADD17R,1.650000X0.610000*%
G04 APERTURE END LIST*
D10*
X66200000Y-45930000D03*
X66200000Y-46950000D03*
X66200000Y-47970000D03*
X66200000Y-48990000D03*
X66200000Y-50010000D03*
X66200000Y-51030000D03*
X66200000Y-52050000D03*
X66200000Y-53070000D03*
D11*
G36*
X63349505Y-36401204D02*
G01*
X63373773Y-36404804D01*
X63397572Y-36410765D01*
X63420671Y-36419030D01*
X63442850Y-36429520D01*
X63463893Y-36442132D01*
X63483599Y-36456747D01*
X63501777Y-36473223D01*
X63518253Y-36491401D01*
X63532868Y-36511107D01*
X63545480Y-36532150D01*
X63555970Y-36554329D01*
X63564235Y-36577428D01*
X63570196Y-36601227D01*
X63573796Y-36625495D01*
X63575000Y-36649999D01*
X63575000Y-37550001D01*
X63573796Y-37574505D01*
X63570196Y-37598773D01*
X63564235Y-37622572D01*
X63555970Y-37645671D01*
X63545480Y-37667850D01*
X63532868Y-37688893D01*
X63518253Y-37708599D01*
X63501777Y-37726777D01*
X63483599Y-37743253D01*
X63463893Y-37757868D01*
X63442850Y-37770480D01*
X63420671Y-37780970D01*
X63397572Y-37789235D01*
X63373773Y-37795196D01*
X63349505Y-37798796D01*
X63325001Y-37800000D01*
X62674999Y-37800000D01*
X62650495Y-37798796D01*
X62626227Y-37795196D01*
X62602428Y-37789235D01*
X62579329Y-37780970D01*
X62557150Y-37770480D01*
X62536107Y-37757868D01*
X62516401Y-37743253D01*
X62498223Y-37726777D01*
X62481747Y-37708599D01*
X62467132Y-37688893D01*
X62454520Y-37667850D01*
X62444030Y-37645671D01*
X62435765Y-37622572D01*
X62429804Y-37598773D01*
X62426204Y-37574505D01*
X62425000Y-37550001D01*
X62425000Y-36649999D01*
X62426204Y-36625495D01*
X62429804Y-36601227D01*
X62435765Y-36577428D01*
X62444030Y-36554329D01*
X62454520Y-36532150D01*
X62467132Y-36511107D01*
X62481747Y-36491401D01*
X62498223Y-36473223D01*
X62516401Y-36456747D01*
X62536107Y-36442132D01*
X62557150Y-36429520D01*
X62579329Y-36419030D01*
X62602428Y-36410765D01*
X62626227Y-36404804D01*
X62650495Y-36401204D01*
X62674999Y-36400000D01*
X63325001Y-36400000D01*
X63349505Y-36401204D01*
X63349505Y-36401204D01*
G37*
D12*
X63000000Y-37100000D03*
D11*
G36*
X61299505Y-36401204D02*
G01*
X61323773Y-36404804D01*
X61347572Y-36410765D01*
X61370671Y-36419030D01*
X61392850Y-36429520D01*
X61413893Y-36442132D01*
X61433599Y-36456747D01*
X61451777Y-36473223D01*
X61468253Y-36491401D01*
X61482868Y-36511107D01*
X61495480Y-36532150D01*
X61505970Y-36554329D01*
X61514235Y-36577428D01*
X61520196Y-36601227D01*
X61523796Y-36625495D01*
X61525000Y-36649999D01*
X61525000Y-37550001D01*
X61523796Y-37574505D01*
X61520196Y-37598773D01*
X61514235Y-37622572D01*
X61505970Y-37645671D01*
X61495480Y-37667850D01*
X61482868Y-37688893D01*
X61468253Y-37708599D01*
X61451777Y-37726777D01*
X61433599Y-37743253D01*
X61413893Y-37757868D01*
X61392850Y-37770480D01*
X61370671Y-37780970D01*
X61347572Y-37789235D01*
X61323773Y-37795196D01*
X61299505Y-37798796D01*
X61275001Y-37800000D01*
X60624999Y-37800000D01*
X60600495Y-37798796D01*
X60576227Y-37795196D01*
X60552428Y-37789235D01*
X60529329Y-37780970D01*
X60507150Y-37770480D01*
X60486107Y-37757868D01*
X60466401Y-37743253D01*
X60448223Y-37726777D01*
X60431747Y-37708599D01*
X60417132Y-37688893D01*
X60404520Y-37667850D01*
X60394030Y-37645671D01*
X60385765Y-37622572D01*
X60379804Y-37598773D01*
X60376204Y-37574505D01*
X60375000Y-37550001D01*
X60375000Y-36649999D01*
X60376204Y-36625495D01*
X60379804Y-36601227D01*
X60385765Y-36577428D01*
X60394030Y-36554329D01*
X60404520Y-36532150D01*
X60417132Y-36511107D01*
X60431747Y-36491401D01*
X60448223Y-36473223D01*
X60466401Y-36456747D01*
X60486107Y-36442132D01*
X60507150Y-36429520D01*
X60529329Y-36419030D01*
X60552428Y-36410765D01*
X60576227Y-36404804D01*
X60600495Y-36401204D01*
X60624999Y-36400000D01*
X61275001Y-36400000D01*
X61299505Y-36401204D01*
X61299505Y-36401204D01*
G37*
D12*
X60950000Y-37100000D03*
D11*
G36*
X73724505Y-32426204D02*
G01*
X73748773Y-32429804D01*
X73772572Y-32435765D01*
X73795671Y-32444030D01*
X73817850Y-32454520D01*
X73838893Y-32467132D01*
X73858599Y-32481747D01*
X73876777Y-32498223D01*
X73893253Y-32516401D01*
X73907868Y-32536107D01*
X73920480Y-32557150D01*
X73930970Y-32579329D01*
X73939235Y-32602428D01*
X73945196Y-32626227D01*
X73948796Y-32650495D01*
X73950000Y-32674999D01*
X73950000Y-33325001D01*
X73948796Y-33349505D01*
X73945196Y-33373773D01*
X73939235Y-33397572D01*
X73930970Y-33420671D01*
X73920480Y-33442850D01*
X73907868Y-33463893D01*
X73893253Y-33483599D01*
X73876777Y-33501777D01*
X73858599Y-33518253D01*
X73838893Y-33532868D01*
X73817850Y-33545480D01*
X73795671Y-33555970D01*
X73772572Y-33564235D01*
X73748773Y-33570196D01*
X73724505Y-33573796D01*
X73700001Y-33575000D01*
X72799999Y-33575000D01*
X72775495Y-33573796D01*
X72751227Y-33570196D01*
X72727428Y-33564235D01*
X72704329Y-33555970D01*
X72682150Y-33545480D01*
X72661107Y-33532868D01*
X72641401Y-33518253D01*
X72623223Y-33501777D01*
X72606747Y-33483599D01*
X72592132Y-33463893D01*
X72579520Y-33442850D01*
X72569030Y-33420671D01*
X72560765Y-33397572D01*
X72554804Y-33373773D01*
X72551204Y-33349505D01*
X72550000Y-33325001D01*
X72550000Y-32674999D01*
X72551204Y-32650495D01*
X72554804Y-32626227D01*
X72560765Y-32602428D01*
X72569030Y-32579329D01*
X72579520Y-32557150D01*
X72592132Y-32536107D01*
X72606747Y-32516401D01*
X72623223Y-32498223D01*
X72641401Y-32481747D01*
X72661107Y-32467132D01*
X72682150Y-32454520D01*
X72704329Y-32444030D01*
X72727428Y-32435765D01*
X72751227Y-32429804D01*
X72775495Y-32426204D01*
X72799999Y-32425000D01*
X73700001Y-32425000D01*
X73724505Y-32426204D01*
X73724505Y-32426204D01*
G37*
D12*
X73250000Y-33000000D03*
D11*
G36*
X73724505Y-30376204D02*
G01*
X73748773Y-30379804D01*
X73772572Y-30385765D01*
X73795671Y-30394030D01*
X73817850Y-30404520D01*
X73838893Y-30417132D01*
X73858599Y-30431747D01*
X73876777Y-30448223D01*
X73893253Y-30466401D01*
X73907868Y-30486107D01*
X73920480Y-30507150D01*
X73930970Y-30529329D01*
X73939235Y-30552428D01*
X73945196Y-30576227D01*
X73948796Y-30600495D01*
X73950000Y-30624999D01*
X73950000Y-31275001D01*
X73948796Y-31299505D01*
X73945196Y-31323773D01*
X73939235Y-31347572D01*
X73930970Y-31370671D01*
X73920480Y-31392850D01*
X73907868Y-31413893D01*
X73893253Y-31433599D01*
X73876777Y-31451777D01*
X73858599Y-31468253D01*
X73838893Y-31482868D01*
X73817850Y-31495480D01*
X73795671Y-31505970D01*
X73772572Y-31514235D01*
X73748773Y-31520196D01*
X73724505Y-31523796D01*
X73700001Y-31525000D01*
X72799999Y-31525000D01*
X72775495Y-31523796D01*
X72751227Y-31520196D01*
X72727428Y-31514235D01*
X72704329Y-31505970D01*
X72682150Y-31495480D01*
X72661107Y-31482868D01*
X72641401Y-31468253D01*
X72623223Y-31451777D01*
X72606747Y-31433599D01*
X72592132Y-31413893D01*
X72579520Y-31392850D01*
X72569030Y-31370671D01*
X72560765Y-31347572D01*
X72554804Y-31323773D01*
X72551204Y-31299505D01*
X72550000Y-31275001D01*
X72550000Y-30624999D01*
X72551204Y-30600495D01*
X72554804Y-30576227D01*
X72560765Y-30552428D01*
X72569030Y-30529329D01*
X72579520Y-30507150D01*
X72592132Y-30486107D01*
X72606747Y-30466401D01*
X72623223Y-30448223D01*
X72641401Y-30431747D01*
X72661107Y-30417132D01*
X72682150Y-30404520D01*
X72704329Y-30394030D01*
X72727428Y-30385765D01*
X72751227Y-30379804D01*
X72775495Y-30376204D01*
X72799999Y-30375000D01*
X73700001Y-30375000D01*
X73724505Y-30376204D01*
X73724505Y-30376204D01*
G37*
D12*
X73250000Y-30950000D03*
D11*
G36*
X69674505Y-35501204D02*
G01*
X69698773Y-35504804D01*
X69722572Y-35510765D01*
X69745671Y-35519030D01*
X69767850Y-35529520D01*
X69788893Y-35542132D01*
X69808599Y-35556747D01*
X69826777Y-35573223D01*
X69843253Y-35591401D01*
X69857868Y-35611107D01*
X69870480Y-35632150D01*
X69880970Y-35654329D01*
X69889235Y-35677428D01*
X69895196Y-35701227D01*
X69898796Y-35725495D01*
X69900000Y-35749999D01*
X69900000Y-36400001D01*
X69898796Y-36424505D01*
X69895196Y-36448773D01*
X69889235Y-36472572D01*
X69880970Y-36495671D01*
X69870480Y-36517850D01*
X69857868Y-36538893D01*
X69843253Y-36558599D01*
X69826777Y-36576777D01*
X69808599Y-36593253D01*
X69788893Y-36607868D01*
X69767850Y-36620480D01*
X69745671Y-36630970D01*
X69722572Y-36639235D01*
X69698773Y-36645196D01*
X69674505Y-36648796D01*
X69650001Y-36650000D01*
X68749999Y-36650000D01*
X68725495Y-36648796D01*
X68701227Y-36645196D01*
X68677428Y-36639235D01*
X68654329Y-36630970D01*
X68632150Y-36620480D01*
X68611107Y-36607868D01*
X68591401Y-36593253D01*
X68573223Y-36576777D01*
X68556747Y-36558599D01*
X68542132Y-36538893D01*
X68529520Y-36517850D01*
X68519030Y-36495671D01*
X68510765Y-36472572D01*
X68504804Y-36448773D01*
X68501204Y-36424505D01*
X68500000Y-36400001D01*
X68500000Y-35749999D01*
X68501204Y-35725495D01*
X68504804Y-35701227D01*
X68510765Y-35677428D01*
X68519030Y-35654329D01*
X68529520Y-35632150D01*
X68542132Y-35611107D01*
X68556747Y-35591401D01*
X68573223Y-35573223D01*
X68591401Y-35556747D01*
X68611107Y-35542132D01*
X68632150Y-35529520D01*
X68654329Y-35519030D01*
X68677428Y-35510765D01*
X68701227Y-35504804D01*
X68725495Y-35501204D01*
X68749999Y-35500000D01*
X69650001Y-35500000D01*
X69674505Y-35501204D01*
X69674505Y-35501204D01*
G37*
D12*
X69200000Y-36075000D03*
D11*
G36*
X69674505Y-37551204D02*
G01*
X69698773Y-37554804D01*
X69722572Y-37560765D01*
X69745671Y-37569030D01*
X69767850Y-37579520D01*
X69788893Y-37592132D01*
X69808599Y-37606747D01*
X69826777Y-37623223D01*
X69843253Y-37641401D01*
X69857868Y-37661107D01*
X69870480Y-37682150D01*
X69880970Y-37704329D01*
X69889235Y-37727428D01*
X69895196Y-37751227D01*
X69898796Y-37775495D01*
X69900000Y-37799999D01*
X69900000Y-38450001D01*
X69898796Y-38474505D01*
X69895196Y-38498773D01*
X69889235Y-38522572D01*
X69880970Y-38545671D01*
X69870480Y-38567850D01*
X69857868Y-38588893D01*
X69843253Y-38608599D01*
X69826777Y-38626777D01*
X69808599Y-38643253D01*
X69788893Y-38657868D01*
X69767850Y-38670480D01*
X69745671Y-38680970D01*
X69722572Y-38689235D01*
X69698773Y-38695196D01*
X69674505Y-38698796D01*
X69650001Y-38700000D01*
X68749999Y-38700000D01*
X68725495Y-38698796D01*
X68701227Y-38695196D01*
X68677428Y-38689235D01*
X68654329Y-38680970D01*
X68632150Y-38670480D01*
X68611107Y-38657868D01*
X68591401Y-38643253D01*
X68573223Y-38626777D01*
X68556747Y-38608599D01*
X68542132Y-38588893D01*
X68529520Y-38567850D01*
X68519030Y-38545671D01*
X68510765Y-38522572D01*
X68504804Y-38498773D01*
X68501204Y-38474505D01*
X68500000Y-38450001D01*
X68500000Y-37799999D01*
X68501204Y-37775495D01*
X68504804Y-37751227D01*
X68510765Y-37727428D01*
X68519030Y-37704329D01*
X68529520Y-37682150D01*
X68542132Y-37661107D01*
X68556747Y-37641401D01*
X68573223Y-37623223D01*
X68591401Y-37606747D01*
X68611107Y-37592132D01*
X68632150Y-37579520D01*
X68654329Y-37569030D01*
X68677428Y-37560765D01*
X68701227Y-37554804D01*
X68725495Y-37551204D01*
X68749999Y-37550000D01*
X69650001Y-37550000D01*
X69674505Y-37551204D01*
X69674505Y-37551204D01*
G37*
D12*
X69200000Y-38125000D03*
D13*
X50125000Y-42600000D03*
X50125000Y-43600000D03*
X50125000Y-44600000D03*
X50125000Y-45600000D03*
X50125000Y-46600000D03*
X50125000Y-47600000D03*
X50125000Y-48600000D03*
X50125000Y-49600000D03*
X50125000Y-50600000D03*
X50125000Y-51600000D03*
X50125000Y-52600000D03*
X50125000Y-53600000D03*
X50125000Y-54600000D03*
X50125000Y-55600000D03*
X50125000Y-56600000D03*
D14*
X53875000Y-42600000D03*
X53875000Y-43600000D03*
X53875000Y-44600000D03*
X53875000Y-45600000D03*
X53875000Y-46600000D03*
X53875000Y-47600000D03*
X53875000Y-48600000D03*
X53875000Y-49600000D03*
X53875000Y-50600000D03*
X53875000Y-51600000D03*
X53875000Y-52600000D03*
X53875000Y-53600000D03*
X53875000Y-54600000D03*
X53875000Y-55600000D03*
X53875000Y-56600000D03*
D11*
G36*
X52074504Y-35801204D02*
G01*
X52098773Y-35804804D01*
X52122571Y-35810765D01*
X52145671Y-35819030D01*
X52167849Y-35829520D01*
X52188893Y-35842133D01*
X52208598Y-35856747D01*
X52226777Y-35873223D01*
X52243253Y-35891402D01*
X52257867Y-35911107D01*
X52270480Y-35932151D01*
X52280970Y-35954329D01*
X52289235Y-35977429D01*
X52295196Y-36001227D01*
X52298796Y-36025496D01*
X52300000Y-36050000D01*
X52300000Y-36550000D01*
X52298796Y-36574504D01*
X52295196Y-36598773D01*
X52289235Y-36622571D01*
X52280970Y-36645671D01*
X52270480Y-36667849D01*
X52257867Y-36688893D01*
X52243253Y-36708598D01*
X52226777Y-36726777D01*
X52208598Y-36743253D01*
X52188893Y-36757867D01*
X52167849Y-36770480D01*
X52145671Y-36780970D01*
X52122571Y-36789235D01*
X52098773Y-36795196D01*
X52074504Y-36798796D01*
X52050000Y-36800000D01*
X49050000Y-36800000D01*
X49025496Y-36798796D01*
X49001227Y-36795196D01*
X48977429Y-36789235D01*
X48954329Y-36780970D01*
X48932151Y-36770480D01*
X48911107Y-36757867D01*
X48891402Y-36743253D01*
X48873223Y-36726777D01*
X48856747Y-36708598D01*
X48842133Y-36688893D01*
X48829520Y-36667849D01*
X48819030Y-36645671D01*
X48810765Y-36622571D01*
X48804804Y-36598773D01*
X48801204Y-36574504D01*
X48800000Y-36550000D01*
X48800000Y-36050000D01*
X48801204Y-36025496D01*
X48804804Y-36001227D01*
X48810765Y-35977429D01*
X48819030Y-35954329D01*
X48829520Y-35932151D01*
X48842133Y-35911107D01*
X48856747Y-35891402D01*
X48873223Y-35873223D01*
X48891402Y-35856747D01*
X48911107Y-35842133D01*
X48932151Y-35829520D01*
X48954329Y-35819030D01*
X48977429Y-35810765D01*
X49001227Y-35804804D01*
X49025496Y-35801204D01*
X49050000Y-35800000D01*
X52050000Y-35800000D01*
X52074504Y-35801204D01*
X52074504Y-35801204D01*
G37*
D15*
X50550000Y-36300000D03*
D11*
G36*
X52074504Y-33801204D02*
G01*
X52098773Y-33804804D01*
X52122571Y-33810765D01*
X52145671Y-33819030D01*
X52167849Y-33829520D01*
X52188893Y-33842133D01*
X52208598Y-33856747D01*
X52226777Y-33873223D01*
X52243253Y-33891402D01*
X52257867Y-33911107D01*
X52270480Y-33932151D01*
X52280970Y-33954329D01*
X52289235Y-33977429D01*
X52295196Y-34001227D01*
X52298796Y-34025496D01*
X52300000Y-34050000D01*
X52300000Y-34550000D01*
X52298796Y-34574504D01*
X52295196Y-34598773D01*
X52289235Y-34622571D01*
X52280970Y-34645671D01*
X52270480Y-34667849D01*
X52257867Y-34688893D01*
X52243253Y-34708598D01*
X52226777Y-34726777D01*
X52208598Y-34743253D01*
X52188893Y-34757867D01*
X52167849Y-34770480D01*
X52145671Y-34780970D01*
X52122571Y-34789235D01*
X52098773Y-34795196D01*
X52074504Y-34798796D01*
X52050000Y-34800000D01*
X49050000Y-34800000D01*
X49025496Y-34798796D01*
X49001227Y-34795196D01*
X48977429Y-34789235D01*
X48954329Y-34780970D01*
X48932151Y-34770480D01*
X48911107Y-34757867D01*
X48891402Y-34743253D01*
X48873223Y-34726777D01*
X48856747Y-34708598D01*
X48842133Y-34688893D01*
X48829520Y-34667849D01*
X48819030Y-34645671D01*
X48810765Y-34622571D01*
X48804804Y-34598773D01*
X48801204Y-34574504D01*
X48800000Y-34550000D01*
X48800000Y-34050000D01*
X48801204Y-34025496D01*
X48804804Y-34001227D01*
X48810765Y-33977429D01*
X48819030Y-33954329D01*
X48829520Y-33932151D01*
X48842133Y-33911107D01*
X48856747Y-33891402D01*
X48873223Y-33873223D01*
X48891402Y-33856747D01*
X48911107Y-33842133D01*
X48932151Y-33829520D01*
X48954329Y-33819030D01*
X48977429Y-33810765D01*
X49001227Y-33804804D01*
X49025496Y-33801204D01*
X49050000Y-33800000D01*
X52050000Y-33800000D01*
X52074504Y-33801204D01*
X52074504Y-33801204D01*
G37*
D15*
X50550000Y-34300000D03*
D11*
G36*
X52074504Y-31801204D02*
G01*
X52098773Y-31804804D01*
X52122571Y-31810765D01*
X52145671Y-31819030D01*
X52167849Y-31829520D01*
X52188893Y-31842133D01*
X52208598Y-31856747D01*
X52226777Y-31873223D01*
X52243253Y-31891402D01*
X52257867Y-31911107D01*
X52270480Y-31932151D01*
X52280970Y-31954329D01*
X52289235Y-31977429D01*
X52295196Y-32001227D01*
X52298796Y-32025496D01*
X52300000Y-32050000D01*
X52300000Y-32550000D01*
X52298796Y-32574504D01*
X52295196Y-32598773D01*
X52289235Y-32622571D01*
X52280970Y-32645671D01*
X52270480Y-32667849D01*
X52257867Y-32688893D01*
X52243253Y-32708598D01*
X52226777Y-32726777D01*
X52208598Y-32743253D01*
X52188893Y-32757867D01*
X52167849Y-32770480D01*
X52145671Y-32780970D01*
X52122571Y-32789235D01*
X52098773Y-32795196D01*
X52074504Y-32798796D01*
X52050000Y-32800000D01*
X49050000Y-32800000D01*
X49025496Y-32798796D01*
X49001227Y-32795196D01*
X48977429Y-32789235D01*
X48954329Y-32780970D01*
X48932151Y-32770480D01*
X48911107Y-32757867D01*
X48891402Y-32743253D01*
X48873223Y-32726777D01*
X48856747Y-32708598D01*
X48842133Y-32688893D01*
X48829520Y-32667849D01*
X48819030Y-32645671D01*
X48810765Y-32622571D01*
X48804804Y-32598773D01*
X48801204Y-32574504D01*
X48800000Y-32550000D01*
X48800000Y-32050000D01*
X48801204Y-32025496D01*
X48804804Y-32001227D01*
X48810765Y-31977429D01*
X48819030Y-31954329D01*
X48829520Y-31932151D01*
X48842133Y-31911107D01*
X48856747Y-31891402D01*
X48873223Y-31873223D01*
X48891402Y-31856747D01*
X48911107Y-31842133D01*
X48932151Y-31829520D01*
X48954329Y-31819030D01*
X48977429Y-31810765D01*
X49001227Y-31804804D01*
X49025496Y-31801204D01*
X49050000Y-31800000D01*
X52050000Y-31800000D01*
X52074504Y-31801204D01*
X52074504Y-31801204D01*
G37*
D15*
X50550000Y-32300000D03*
D11*
G36*
X57774504Y-37901204D02*
G01*
X57798773Y-37904804D01*
X57822571Y-37910765D01*
X57845671Y-37919030D01*
X57867849Y-37929520D01*
X57888893Y-37942133D01*
X57908598Y-37956747D01*
X57926777Y-37973223D01*
X57943253Y-37991402D01*
X57957867Y-38011107D01*
X57970480Y-38032151D01*
X57980970Y-38054329D01*
X57989235Y-38077429D01*
X57995196Y-38101227D01*
X57998796Y-38125496D01*
X58000000Y-38150000D01*
X58000000Y-39150000D01*
X57998796Y-39174504D01*
X57995196Y-39198773D01*
X57989235Y-39222571D01*
X57980970Y-39245671D01*
X57970480Y-39267849D01*
X57957867Y-39288893D01*
X57943253Y-39308598D01*
X57926777Y-39326777D01*
X57908598Y-39343253D01*
X57888893Y-39357867D01*
X57867849Y-39370480D01*
X57845671Y-39380970D01*
X57822571Y-39389235D01*
X57798773Y-39395196D01*
X57774504Y-39398796D01*
X57750000Y-39400000D01*
X54850000Y-39400000D01*
X54825496Y-39398796D01*
X54801227Y-39395196D01*
X54777429Y-39389235D01*
X54754329Y-39380970D01*
X54732151Y-39370480D01*
X54711107Y-39357867D01*
X54691402Y-39343253D01*
X54673223Y-39326777D01*
X54656747Y-39308598D01*
X54642133Y-39288893D01*
X54629520Y-39267849D01*
X54619030Y-39245671D01*
X54610765Y-39222571D01*
X54604804Y-39198773D01*
X54601204Y-39174504D01*
X54600000Y-39150000D01*
X54600000Y-38150000D01*
X54601204Y-38125496D01*
X54604804Y-38101227D01*
X54610765Y-38077429D01*
X54619030Y-38054329D01*
X54629520Y-38032151D01*
X54642133Y-38011107D01*
X54656747Y-37991402D01*
X54673223Y-37973223D01*
X54691402Y-37956747D01*
X54711107Y-37942133D01*
X54732151Y-37929520D01*
X54754329Y-37919030D01*
X54777429Y-37910765D01*
X54801227Y-37904804D01*
X54825496Y-37901204D01*
X54850000Y-37900000D01*
X57750000Y-37900000D01*
X57774504Y-37901204D01*
X57774504Y-37901204D01*
G37*
D16*
X56300000Y-38650000D03*
D11*
G36*
X57774504Y-29201204D02*
G01*
X57798773Y-29204804D01*
X57822571Y-29210765D01*
X57845671Y-29219030D01*
X57867849Y-29229520D01*
X57888893Y-29242133D01*
X57908598Y-29256747D01*
X57926777Y-29273223D01*
X57943253Y-29291402D01*
X57957867Y-29311107D01*
X57970480Y-29332151D01*
X57980970Y-29354329D01*
X57989235Y-29377429D01*
X57995196Y-29401227D01*
X57998796Y-29425496D01*
X58000000Y-29450000D01*
X58000000Y-30450000D01*
X57998796Y-30474504D01*
X57995196Y-30498773D01*
X57989235Y-30522571D01*
X57980970Y-30545671D01*
X57970480Y-30567849D01*
X57957867Y-30588893D01*
X57943253Y-30608598D01*
X57926777Y-30626777D01*
X57908598Y-30643253D01*
X57888893Y-30657867D01*
X57867849Y-30670480D01*
X57845671Y-30680970D01*
X57822571Y-30689235D01*
X57798773Y-30695196D01*
X57774504Y-30698796D01*
X57750000Y-30700000D01*
X54850000Y-30700000D01*
X54825496Y-30698796D01*
X54801227Y-30695196D01*
X54777429Y-30689235D01*
X54754329Y-30680970D01*
X54732151Y-30670480D01*
X54711107Y-30657867D01*
X54691402Y-30643253D01*
X54673223Y-30626777D01*
X54656747Y-30608598D01*
X54642133Y-30588893D01*
X54629520Y-30567849D01*
X54619030Y-30545671D01*
X54610765Y-30522571D01*
X54604804Y-30498773D01*
X54601204Y-30474504D01*
X54600000Y-30450000D01*
X54600000Y-29450000D01*
X54601204Y-29425496D01*
X54604804Y-29401227D01*
X54610765Y-29377429D01*
X54619030Y-29354329D01*
X54629520Y-29332151D01*
X54642133Y-29311107D01*
X54656747Y-29291402D01*
X54673223Y-29273223D01*
X54691402Y-29256747D01*
X54711107Y-29242133D01*
X54732151Y-29229520D01*
X54754329Y-29219030D01*
X54777429Y-29210765D01*
X54801227Y-29204804D01*
X54825496Y-29201204D01*
X54850000Y-29200000D01*
X57750000Y-29200000D01*
X57774504Y-29201204D01*
X57774504Y-29201204D01*
G37*
D16*
X56300000Y-29950000D03*
D14*
X53875000Y-75000000D03*
X53875000Y-74000000D03*
X53875000Y-73000000D03*
X53875000Y-72000000D03*
X53875000Y-71000000D03*
X53875000Y-70000000D03*
X53875000Y-69000000D03*
X53875000Y-68000000D03*
X53875000Y-67000000D03*
X53875000Y-66000000D03*
X53875000Y-65000000D03*
X53875000Y-64000000D03*
X53875000Y-63000000D03*
X53875000Y-62000000D03*
X53875000Y-61000000D03*
D13*
X50125000Y-75000000D03*
X50125000Y-74000000D03*
X50125000Y-73000000D03*
X50125000Y-72000000D03*
X50125000Y-71000000D03*
X50125000Y-70000000D03*
X50125000Y-69000000D03*
X50125000Y-68000000D03*
X50125000Y-67000000D03*
X50125000Y-66000000D03*
X50125000Y-65000000D03*
X50125000Y-64000000D03*
X50125000Y-63000000D03*
X50125000Y-62000000D03*
X50125000Y-61000000D03*
D10*
X66200000Y-71570000D03*
X66200000Y-70550000D03*
X66200000Y-69530000D03*
X66200000Y-68510000D03*
X66200000Y-67490000D03*
X66200000Y-66470000D03*
X66200000Y-65450000D03*
X66200000Y-64430000D03*
D11*
G36*
X66674505Y-37551204D02*
G01*
X66698773Y-37554804D01*
X66722572Y-37560765D01*
X66745671Y-37569030D01*
X66767850Y-37579520D01*
X66788893Y-37592132D01*
X66808599Y-37606747D01*
X66826777Y-37623223D01*
X66843253Y-37641401D01*
X66857868Y-37661107D01*
X66870480Y-37682150D01*
X66880970Y-37704329D01*
X66889235Y-37727428D01*
X66895196Y-37751227D01*
X66898796Y-37775495D01*
X66900000Y-37799999D01*
X66900000Y-38450001D01*
X66898796Y-38474505D01*
X66895196Y-38498773D01*
X66889235Y-38522572D01*
X66880970Y-38545671D01*
X66870480Y-38567850D01*
X66857868Y-38588893D01*
X66843253Y-38608599D01*
X66826777Y-38626777D01*
X66808599Y-38643253D01*
X66788893Y-38657868D01*
X66767850Y-38670480D01*
X66745671Y-38680970D01*
X66722572Y-38689235D01*
X66698773Y-38695196D01*
X66674505Y-38698796D01*
X66650001Y-38700000D01*
X65749999Y-38700000D01*
X65725495Y-38698796D01*
X65701227Y-38695196D01*
X65677428Y-38689235D01*
X65654329Y-38680970D01*
X65632150Y-38670480D01*
X65611107Y-38657868D01*
X65591401Y-38643253D01*
X65573223Y-38626777D01*
X65556747Y-38608599D01*
X65542132Y-38588893D01*
X65529520Y-38567850D01*
X65519030Y-38545671D01*
X65510765Y-38522572D01*
X65504804Y-38498773D01*
X65501204Y-38474505D01*
X65500000Y-38450001D01*
X65500000Y-37799999D01*
X65501204Y-37775495D01*
X65504804Y-37751227D01*
X65510765Y-37727428D01*
X65519030Y-37704329D01*
X65529520Y-37682150D01*
X65542132Y-37661107D01*
X65556747Y-37641401D01*
X65573223Y-37623223D01*
X65591401Y-37606747D01*
X65611107Y-37592132D01*
X65632150Y-37579520D01*
X65654329Y-37569030D01*
X65677428Y-37560765D01*
X65701227Y-37554804D01*
X65725495Y-37551204D01*
X65749999Y-37550000D01*
X66650001Y-37550000D01*
X66674505Y-37551204D01*
X66674505Y-37551204D01*
G37*
D12*
X66200000Y-38125000D03*
D11*
G36*
X66674505Y-35501204D02*
G01*
X66698773Y-35504804D01*
X66722572Y-35510765D01*
X66745671Y-35519030D01*
X66767850Y-35529520D01*
X66788893Y-35542132D01*
X66808599Y-35556747D01*
X66826777Y-35573223D01*
X66843253Y-35591401D01*
X66857868Y-35611107D01*
X66870480Y-35632150D01*
X66880970Y-35654329D01*
X66889235Y-35677428D01*
X66895196Y-35701227D01*
X66898796Y-35725495D01*
X66900000Y-35749999D01*
X66900000Y-36400001D01*
X66898796Y-36424505D01*
X66895196Y-36448773D01*
X66889235Y-36472572D01*
X66880970Y-36495671D01*
X66870480Y-36517850D01*
X66857868Y-36538893D01*
X66843253Y-36558599D01*
X66826777Y-36576777D01*
X66808599Y-36593253D01*
X66788893Y-36607868D01*
X66767850Y-36620480D01*
X66745671Y-36630970D01*
X66722572Y-36639235D01*
X66698773Y-36645196D01*
X66674505Y-36648796D01*
X66650001Y-36650000D01*
X65749999Y-36650000D01*
X65725495Y-36648796D01*
X65701227Y-36645196D01*
X65677428Y-36639235D01*
X65654329Y-36630970D01*
X65632150Y-36620480D01*
X65611107Y-36607868D01*
X65591401Y-36593253D01*
X65573223Y-36576777D01*
X65556747Y-36558599D01*
X65542132Y-36538893D01*
X65529520Y-36517850D01*
X65519030Y-36495671D01*
X65510765Y-36472572D01*
X65504804Y-36448773D01*
X65501204Y-36424505D01*
X65500000Y-36400001D01*
X65500000Y-35749999D01*
X65501204Y-35725495D01*
X65504804Y-35701227D01*
X65510765Y-35677428D01*
X65519030Y-35654329D01*
X65529520Y-35632150D01*
X65542132Y-35611107D01*
X65556747Y-35591401D01*
X65573223Y-35573223D01*
X65591401Y-35556747D01*
X65611107Y-35542132D01*
X65632150Y-35529520D01*
X65654329Y-35519030D01*
X65677428Y-35510765D01*
X65701227Y-35504804D01*
X65725495Y-35501204D01*
X65749999Y-35500000D01*
X66650001Y-35500000D01*
X66674505Y-35501204D01*
X66674505Y-35501204D01*
G37*
D12*
X66200000Y-36075000D03*
D17*
X66030000Y-29795000D03*
X66030000Y-31065000D03*
X66030000Y-32335000D03*
X66030000Y-33605000D03*
X60770000Y-33605000D03*
X60770000Y-32335000D03*
X60770000Y-31065000D03*
X60770000Y-29795000D03*
M02*
