G04 #@! TF.GenerationSoftware,KiCad,Pcbnew,(5.1.0)-1*
G04 #@! TF.CreationDate,2020-04-04T17:21:39+01:00*
G04 #@! TF.ProjectId,Camera Adapter,43616d65-7261-4204-9164-61707465722e,rev?*
G04 #@! TF.SameCoordinates,Original*
G04 #@! TF.FileFunction,Soldermask,Top*
G04 #@! TF.FilePolarity,Negative*
%FSLAX46Y46*%
G04 Gerber Fmt 4.6, Leading zero omitted, Abs format (unit mm)*
G04 Created by KiCad (PCBNEW (5.1.0)-1) date 2020-04-04 17:21:39*
%MOMM*%
%LPD*%
G04 APERTURE LIST*
%ADD10C,0.100000*%
G04 APERTURE END LIST*
D10*
G36*
X52659000Y-77099000D02*
G01*
X49957000Y-77099000D01*
X49957000Y-75197000D01*
X52659000Y-75197000D01*
X52659000Y-77099000D01*
X52659000Y-77099000D01*
G37*
G36*
X74311808Y-75256648D02*
G01*
X74463551Y-75302678D01*
X74603398Y-75377428D01*
X74725975Y-75478025D01*
X74826572Y-75600602D01*
X74901322Y-75740449D01*
X74947352Y-75892192D01*
X74962895Y-76050000D01*
X74947352Y-76207808D01*
X74901322Y-76359551D01*
X74826572Y-76499398D01*
X74725975Y-76621975D01*
X74603398Y-76722572D01*
X74463551Y-76797322D01*
X74311808Y-76843352D01*
X74193546Y-76855000D01*
X72606454Y-76855000D01*
X72488192Y-76843352D01*
X72336449Y-76797322D01*
X72196602Y-76722572D01*
X72074025Y-76621975D01*
X71973428Y-76499398D01*
X71898678Y-76359551D01*
X71852648Y-76207808D01*
X71837105Y-76050000D01*
X71852648Y-75892192D01*
X71898678Y-75740449D01*
X71973428Y-75600602D01*
X72074025Y-75478025D01*
X72196602Y-75377428D01*
X72336449Y-75302678D01*
X72488192Y-75256648D01*
X72606454Y-75245000D01*
X74193546Y-75245000D01*
X74311808Y-75256648D01*
X74311808Y-75256648D01*
G37*
G36*
X60375256Y-72391298D02*
G01*
X60481579Y-72412447D01*
X60782042Y-72536903D01*
X61052451Y-72717585D01*
X61282415Y-72947549D01*
X61463097Y-73217958D01*
X61587553Y-73518421D01*
X61651000Y-73837391D01*
X61651000Y-74162609D01*
X61587553Y-74481579D01*
X61463097Y-74782042D01*
X61282415Y-75052451D01*
X61052451Y-75282415D01*
X60782042Y-75463097D01*
X60481579Y-75587553D01*
X60415977Y-75600602D01*
X60162611Y-75651000D01*
X59837389Y-75651000D01*
X59584023Y-75600602D01*
X59518421Y-75587553D01*
X59217958Y-75463097D01*
X58947549Y-75282415D01*
X58717585Y-75052451D01*
X58536903Y-74782042D01*
X58412447Y-74481579D01*
X58349000Y-74162609D01*
X58349000Y-73837391D01*
X58412447Y-73518421D01*
X58536903Y-73217958D01*
X58717585Y-72947549D01*
X58947549Y-72717585D01*
X59217958Y-72536903D01*
X59518421Y-72412447D01*
X59624744Y-72391298D01*
X59837389Y-72349000D01*
X60162611Y-72349000D01*
X60375256Y-72391298D01*
X60375256Y-72391298D01*
G37*
G36*
X54859000Y-73899000D02*
G01*
X52557000Y-73899000D01*
X52557000Y-73197000D01*
X54859000Y-73197000D01*
X54859000Y-73899000D01*
X54859000Y-73899000D01*
G37*
G36*
X54859000Y-72899000D02*
G01*
X52557000Y-72899000D01*
X52557000Y-72197000D01*
X54859000Y-72197000D01*
X54859000Y-72899000D01*
X54859000Y-72899000D01*
G37*
G36*
X67851000Y-71971000D02*
G01*
X64549000Y-71971000D01*
X64549000Y-64029000D01*
X67851000Y-64029000D01*
X67851000Y-71971000D01*
X67851000Y-71971000D01*
G37*
G36*
X54859000Y-71899000D02*
G01*
X52557000Y-71899000D01*
X52557000Y-71197000D01*
X54859000Y-71197000D01*
X54859000Y-71899000D01*
X54859000Y-71899000D01*
G37*
G36*
X54859000Y-70899000D02*
G01*
X52557000Y-70899000D01*
X52557000Y-70197000D01*
X54859000Y-70197000D01*
X54859000Y-70899000D01*
X54859000Y-70899000D01*
G37*
G36*
X54859000Y-69899000D02*
G01*
X52557000Y-69899000D01*
X52557000Y-69197000D01*
X54859000Y-69197000D01*
X54859000Y-69899000D01*
X54859000Y-69899000D01*
G37*
G36*
X54859000Y-68899000D02*
G01*
X52557000Y-68899000D01*
X52557000Y-68197000D01*
X54859000Y-68197000D01*
X54859000Y-68899000D01*
X54859000Y-68899000D01*
G37*
G36*
X54859000Y-67899000D02*
G01*
X52557000Y-67899000D01*
X52557000Y-67197000D01*
X54859000Y-67197000D01*
X54859000Y-67899000D01*
X54859000Y-67899000D01*
G37*
G36*
X54859000Y-66899000D02*
G01*
X52557000Y-66899000D01*
X52557000Y-66197000D01*
X54859000Y-66197000D01*
X54859000Y-66899000D01*
X54859000Y-66899000D01*
G37*
G36*
X54859000Y-65899000D02*
G01*
X52557000Y-65899000D01*
X52557000Y-65197000D01*
X54859000Y-65197000D01*
X54859000Y-65899000D01*
X54859000Y-65899000D01*
G37*
G36*
X54859000Y-64899000D02*
G01*
X52557000Y-64899000D01*
X52557000Y-64197000D01*
X54859000Y-64197000D01*
X54859000Y-64899000D01*
X54859000Y-64899000D01*
G37*
G36*
X54859000Y-63899000D02*
G01*
X52557000Y-63899000D01*
X52557000Y-63197000D01*
X54859000Y-63197000D01*
X54859000Y-63899000D01*
X54859000Y-63899000D01*
G37*
G36*
X54859000Y-62899000D02*
G01*
X52557000Y-62899000D01*
X52557000Y-62197000D01*
X54859000Y-62197000D01*
X54859000Y-62899000D01*
X54859000Y-62899000D01*
G37*
G36*
X54859000Y-61899000D02*
G01*
X52557000Y-61899000D01*
X52557000Y-61197000D01*
X54859000Y-61197000D01*
X54859000Y-61899000D01*
X54859000Y-61899000D01*
G37*
G36*
X54859000Y-60899000D02*
G01*
X52557000Y-60899000D01*
X52557000Y-60197000D01*
X54859000Y-60197000D01*
X54859000Y-60899000D01*
X54859000Y-60899000D01*
G37*
G36*
X74311808Y-59156648D02*
G01*
X74463551Y-59202678D01*
X74603398Y-59277428D01*
X74725975Y-59378025D01*
X74826572Y-59500602D01*
X74901322Y-59640449D01*
X74947352Y-59792192D01*
X74962895Y-59950000D01*
X74947352Y-60107808D01*
X74901322Y-60259551D01*
X74826572Y-60399398D01*
X74725975Y-60521975D01*
X74603398Y-60622572D01*
X74463551Y-60697322D01*
X74311808Y-60743352D01*
X74193546Y-60755000D01*
X72606454Y-60755000D01*
X72488192Y-60743352D01*
X72336449Y-60697322D01*
X72196602Y-60622572D01*
X72074025Y-60521975D01*
X71973428Y-60399398D01*
X71898678Y-60259551D01*
X71852648Y-60107808D01*
X71837105Y-59950000D01*
X71852648Y-59792192D01*
X71898678Y-59640449D01*
X71973428Y-59500602D01*
X72074025Y-59378025D01*
X72196602Y-59277428D01*
X72336449Y-59202678D01*
X72488192Y-59156648D01*
X72606454Y-59145000D01*
X74193546Y-59145000D01*
X74311808Y-59156648D01*
X74311808Y-59156648D01*
G37*
G36*
X54859000Y-59899000D02*
G01*
X52557000Y-59899000D01*
X52557000Y-59197000D01*
X54859000Y-59197000D01*
X54859000Y-59899000D01*
X54859000Y-59899000D01*
G37*
G36*
X74311808Y-56756648D02*
G01*
X74463551Y-56802678D01*
X74603398Y-56877428D01*
X74725975Y-56978025D01*
X74826572Y-57100602D01*
X74901322Y-57240449D01*
X74947352Y-57392192D01*
X74962895Y-57550000D01*
X74947352Y-57707808D01*
X74901322Y-57859551D01*
X74826572Y-57999398D01*
X74725975Y-58121975D01*
X74603398Y-58222572D01*
X74463551Y-58297322D01*
X74311808Y-58343352D01*
X74193546Y-58355000D01*
X72606454Y-58355000D01*
X72488192Y-58343352D01*
X72336449Y-58297322D01*
X72196602Y-58222572D01*
X72074025Y-58121975D01*
X71973428Y-57999398D01*
X71898678Y-57859551D01*
X71852648Y-57707808D01*
X71837105Y-57550000D01*
X71852648Y-57392192D01*
X71898678Y-57240449D01*
X71973428Y-57100602D01*
X72074025Y-56978025D01*
X72196602Y-56877428D01*
X72336449Y-56802678D01*
X72488192Y-56756648D01*
X72606454Y-56745000D01*
X74193546Y-56745000D01*
X74311808Y-56756648D01*
X74311808Y-56756648D01*
G37*
G36*
X52659000Y-57899000D02*
G01*
X49957000Y-57899000D01*
X49957000Y-55997000D01*
X52659000Y-55997000D01*
X52659000Y-57899000D01*
X52659000Y-57899000D01*
G37*
G36*
X52659000Y-54366000D02*
G01*
X49957000Y-54366000D01*
X49957000Y-52464000D01*
X52659000Y-52464000D01*
X52659000Y-54366000D01*
X52659000Y-54366000D01*
G37*
G36*
X67851000Y-53471000D02*
G01*
X64549000Y-53471000D01*
X64549000Y-45529000D01*
X67851000Y-45529000D01*
X67851000Y-53471000D01*
X67851000Y-53471000D01*
G37*
G36*
X54859000Y-51166000D02*
G01*
X52557000Y-51166000D01*
X52557000Y-50464000D01*
X54859000Y-50464000D01*
X54859000Y-51166000D01*
X54859000Y-51166000D01*
G37*
G36*
X54859000Y-50166000D02*
G01*
X52557000Y-50166000D01*
X52557000Y-49464000D01*
X54859000Y-49464000D01*
X54859000Y-50166000D01*
X54859000Y-50166000D01*
G37*
G36*
X54859000Y-49166000D02*
G01*
X52557000Y-49166000D01*
X52557000Y-48464000D01*
X54859000Y-48464000D01*
X54859000Y-49166000D01*
X54859000Y-49166000D01*
G37*
G36*
X54859000Y-48166000D02*
G01*
X52557000Y-48166000D01*
X52557000Y-47464000D01*
X54859000Y-47464000D01*
X54859000Y-48166000D01*
X54859000Y-48166000D01*
G37*
G36*
X54859000Y-47166000D02*
G01*
X52557000Y-47166000D01*
X52557000Y-46464000D01*
X54859000Y-46464000D01*
X54859000Y-47166000D01*
X54859000Y-47166000D01*
G37*
G36*
X54859000Y-46166000D02*
G01*
X52557000Y-46166000D01*
X52557000Y-45464000D01*
X54859000Y-45464000D01*
X54859000Y-46166000D01*
X54859000Y-46166000D01*
G37*
G36*
X54859000Y-45166000D02*
G01*
X52557000Y-45166000D01*
X52557000Y-44464000D01*
X54859000Y-44464000D01*
X54859000Y-45166000D01*
X54859000Y-45166000D01*
G37*
G36*
X54859000Y-44166000D02*
G01*
X52557000Y-44166000D01*
X52557000Y-43464000D01*
X54859000Y-43464000D01*
X54859000Y-44166000D01*
X54859000Y-44166000D01*
G37*
G36*
X54859000Y-43166000D02*
G01*
X52557000Y-43166000D01*
X52557000Y-42464000D01*
X54859000Y-42464000D01*
X54859000Y-43166000D01*
X54859000Y-43166000D01*
G37*
G36*
X74311808Y-40656648D02*
G01*
X74463551Y-40702678D01*
X74603398Y-40777428D01*
X74725975Y-40878025D01*
X74826572Y-41000602D01*
X74901322Y-41140449D01*
X74947352Y-41292192D01*
X74962895Y-41450000D01*
X74947352Y-41607808D01*
X74901322Y-41759551D01*
X74826572Y-41899398D01*
X74725975Y-42021975D01*
X74603398Y-42122572D01*
X74463551Y-42197322D01*
X74311808Y-42243352D01*
X74193546Y-42255000D01*
X72606454Y-42255000D01*
X72488192Y-42243352D01*
X72336449Y-42197322D01*
X72196602Y-42122572D01*
X72074025Y-42021975D01*
X71973428Y-41899398D01*
X71898678Y-41759551D01*
X71852648Y-41607808D01*
X71837105Y-41450000D01*
X71852648Y-41292192D01*
X71898678Y-41140449D01*
X71973428Y-41000602D01*
X72074025Y-40878025D01*
X72196602Y-40777428D01*
X72336449Y-40702678D01*
X72488192Y-40656648D01*
X72606454Y-40645000D01*
X74193546Y-40645000D01*
X74311808Y-40656648D01*
X74311808Y-40656648D01*
G37*
G36*
X54859000Y-42166000D02*
G01*
X52557000Y-42166000D01*
X52557000Y-41464000D01*
X54859000Y-41464000D01*
X54859000Y-42166000D01*
X54859000Y-42166000D01*
G37*
G36*
X54859000Y-41166000D02*
G01*
X52557000Y-41166000D01*
X52557000Y-40464000D01*
X54859000Y-40464000D01*
X54859000Y-41166000D01*
X54859000Y-41166000D01*
G37*
G36*
X54859000Y-40166000D02*
G01*
X52557000Y-40166000D01*
X52557000Y-39464000D01*
X54859000Y-39464000D01*
X54859000Y-40166000D01*
X54859000Y-40166000D01*
G37*
G36*
X54859000Y-39166000D02*
G01*
X52557000Y-39166000D01*
X52557000Y-38464000D01*
X54859000Y-38464000D01*
X54859000Y-39166000D01*
X54859000Y-39166000D01*
G37*
G36*
X64529500Y-39154500D02*
G01*
X62777500Y-39154500D01*
X62777500Y-38442500D01*
X64529500Y-38442500D01*
X64529500Y-39154500D01*
X64529500Y-39154500D01*
G37*
G36*
X59269500Y-39154500D02*
G01*
X57517500Y-39154500D01*
X57517500Y-38442500D01*
X59269500Y-38442500D01*
X59269500Y-39154500D01*
X59269500Y-39154500D01*
G37*
G36*
X69315048Y-37017622D02*
G01*
X69349387Y-37028039D01*
X69381036Y-37044956D01*
X69408778Y-37067722D01*
X69431544Y-37095464D01*
X69448461Y-37127113D01*
X69458878Y-37161452D01*
X69463000Y-37203307D01*
X69463000Y-38425693D01*
X69458878Y-38467548D01*
X69448461Y-38501887D01*
X69431544Y-38533536D01*
X69408778Y-38561278D01*
X69381036Y-38584044D01*
X69349387Y-38600961D01*
X69315048Y-38611378D01*
X69273193Y-38615500D01*
X66150807Y-38615500D01*
X66108952Y-38611378D01*
X66074613Y-38600961D01*
X66042964Y-38584044D01*
X66015222Y-38561278D01*
X65992456Y-38533536D01*
X65975539Y-38501887D01*
X65965122Y-38467548D01*
X65961000Y-38425693D01*
X65961000Y-37203307D01*
X65965122Y-37161452D01*
X65975539Y-37127113D01*
X65992456Y-37095464D01*
X66015222Y-37067722D01*
X66042964Y-37044956D01*
X66074613Y-37028039D01*
X66108952Y-37017622D01*
X66150807Y-37013500D01*
X69273193Y-37013500D01*
X69315048Y-37017622D01*
X69315048Y-37017622D01*
G37*
G36*
X54859000Y-38166000D02*
G01*
X52557000Y-38166000D01*
X52557000Y-37464000D01*
X54859000Y-37464000D01*
X54859000Y-38166000D01*
X54859000Y-38166000D01*
G37*
G36*
X59269500Y-37884500D02*
G01*
X57517500Y-37884500D01*
X57517500Y-37172500D01*
X59269500Y-37172500D01*
X59269500Y-37884500D01*
X59269500Y-37884500D01*
G37*
G36*
X64529500Y-37884500D02*
G01*
X62777500Y-37884500D01*
X62777500Y-37172500D01*
X64529500Y-37172500D01*
X64529500Y-37884500D01*
X64529500Y-37884500D01*
G37*
G36*
X54859000Y-37166000D02*
G01*
X52557000Y-37166000D01*
X52557000Y-36464000D01*
X54859000Y-36464000D01*
X54859000Y-37166000D01*
X54859000Y-37166000D01*
G37*
G36*
X64529500Y-36614500D02*
G01*
X62777500Y-36614500D01*
X62777500Y-35902500D01*
X64529500Y-35902500D01*
X64529500Y-36614500D01*
X64529500Y-36614500D01*
G37*
G36*
X59269500Y-36614500D02*
G01*
X57517500Y-36614500D01*
X57517500Y-35902500D01*
X59269500Y-35902500D01*
X59269500Y-36614500D01*
X59269500Y-36614500D01*
G37*
G36*
X75091434Y-34918186D02*
G01*
X75131284Y-34930274D01*
X75167999Y-34949899D01*
X75200186Y-34976314D01*
X75226601Y-35008501D01*
X75246226Y-35045216D01*
X75258314Y-35085066D01*
X75263000Y-35132641D01*
X75263000Y-35796359D01*
X75258314Y-35843934D01*
X75246226Y-35883784D01*
X75226601Y-35920499D01*
X75200186Y-35952686D01*
X75167999Y-35979101D01*
X75131284Y-35998726D01*
X75091434Y-36010814D01*
X75043859Y-36015500D01*
X71880141Y-36015500D01*
X71832566Y-36010814D01*
X71792716Y-35998726D01*
X71756001Y-35979101D01*
X71723814Y-35952686D01*
X71697399Y-35920499D01*
X71677774Y-35883784D01*
X71665686Y-35843934D01*
X71661000Y-35796359D01*
X71661000Y-35132641D01*
X71665686Y-35085066D01*
X71677774Y-35045216D01*
X71697399Y-35008501D01*
X71723814Y-34976314D01*
X71756001Y-34949899D01*
X71792716Y-34930274D01*
X71832566Y-34918186D01*
X71880141Y-34913500D01*
X75043859Y-34913500D01*
X75091434Y-34918186D01*
X75091434Y-34918186D01*
G37*
G36*
X64529500Y-35344500D02*
G01*
X62777500Y-35344500D01*
X62777500Y-34632500D01*
X64529500Y-34632500D01*
X64529500Y-35344500D01*
X64529500Y-35344500D01*
G37*
G36*
X59269500Y-35344500D02*
G01*
X57517500Y-35344500D01*
X57517500Y-34632500D01*
X59269500Y-34632500D01*
X59269500Y-35344500D01*
X59269500Y-35344500D01*
G37*
G36*
X52659000Y-35166000D02*
G01*
X49957000Y-35166000D01*
X49957000Y-33264000D01*
X52659000Y-33264000D01*
X52659000Y-35166000D01*
X52659000Y-35166000D01*
G37*
G36*
X56670174Y-33606965D02*
G01*
X56707867Y-33618399D01*
X56742603Y-33636966D01*
X56773048Y-33661952D01*
X56798034Y-33692397D01*
X56816601Y-33727133D01*
X56828035Y-33764826D01*
X56832500Y-33810161D01*
X56832500Y-34896839D01*
X56828035Y-34942174D01*
X56816601Y-34979867D01*
X56798034Y-35014603D01*
X56773048Y-35045048D01*
X56742603Y-35070034D01*
X56707867Y-35088601D01*
X56670174Y-35100035D01*
X56624839Y-35104500D01*
X55788161Y-35104500D01*
X55742826Y-35100035D01*
X55705133Y-35088601D01*
X55670397Y-35070034D01*
X55639952Y-35045048D01*
X55614966Y-35014603D01*
X55596399Y-34979867D01*
X55584965Y-34942174D01*
X55580500Y-34896839D01*
X55580500Y-33810161D01*
X55584965Y-33764826D01*
X55596399Y-33727133D01*
X55614966Y-33692397D01*
X55639952Y-33661952D01*
X55670397Y-33636966D01*
X55705133Y-33618399D01*
X55742826Y-33606965D01*
X55788161Y-33602500D01*
X56624839Y-33602500D01*
X56670174Y-33606965D01*
X56670174Y-33606965D01*
G37*
G36*
X54620174Y-33606965D02*
G01*
X54657867Y-33618399D01*
X54692603Y-33636966D01*
X54723048Y-33661952D01*
X54748034Y-33692397D01*
X54766601Y-33727133D01*
X54778035Y-33764826D01*
X54782500Y-33810161D01*
X54782500Y-34896839D01*
X54778035Y-34942174D01*
X54766601Y-34979867D01*
X54748034Y-35014603D01*
X54723048Y-35045048D01*
X54692603Y-35070034D01*
X54657867Y-35088601D01*
X54620174Y-35100035D01*
X54574839Y-35104500D01*
X53738161Y-35104500D01*
X53692826Y-35100035D01*
X53655133Y-35088601D01*
X53620397Y-35070034D01*
X53589952Y-35045048D01*
X53564966Y-35014603D01*
X53546399Y-34979867D01*
X53534965Y-34942174D01*
X53530500Y-34896839D01*
X53530500Y-33810161D01*
X53534965Y-33764826D01*
X53546399Y-33727133D01*
X53564966Y-33692397D01*
X53589952Y-33661952D01*
X53620397Y-33636966D01*
X53655133Y-33618399D01*
X53692826Y-33606965D01*
X53738161Y-33602500D01*
X54574839Y-33602500D01*
X54620174Y-33606965D01*
X54620174Y-33606965D01*
G37*
G36*
X75091434Y-32918186D02*
G01*
X75131284Y-32930274D01*
X75167999Y-32949899D01*
X75200186Y-32976314D01*
X75226601Y-33008501D01*
X75246226Y-33045216D01*
X75258314Y-33085066D01*
X75263000Y-33132641D01*
X75263000Y-33796359D01*
X75258314Y-33843934D01*
X75246226Y-33883784D01*
X75226601Y-33920499D01*
X75200186Y-33952686D01*
X75167999Y-33979101D01*
X75131284Y-33998726D01*
X75091434Y-34010814D01*
X75043859Y-34015500D01*
X71880141Y-34015500D01*
X71832566Y-34010814D01*
X71792716Y-33998726D01*
X71756001Y-33979101D01*
X71723814Y-33952686D01*
X71697399Y-33920499D01*
X71677774Y-33883784D01*
X71665686Y-33843934D01*
X71661000Y-33796359D01*
X71661000Y-33132641D01*
X71665686Y-33085066D01*
X71677774Y-33045216D01*
X71697399Y-33008501D01*
X71723814Y-32976314D01*
X71756001Y-32949899D01*
X71792716Y-32930274D01*
X71832566Y-32918186D01*
X71880141Y-32913500D01*
X75043859Y-32913500D01*
X75091434Y-32918186D01*
X75091434Y-32918186D01*
G37*
G36*
X65549174Y-32597965D02*
G01*
X65586867Y-32609399D01*
X65621603Y-32627966D01*
X65652048Y-32652952D01*
X65677034Y-32683397D01*
X65695601Y-32718133D01*
X65707035Y-32755826D01*
X65711500Y-32801161D01*
X65711500Y-33637839D01*
X65707035Y-33683174D01*
X65695601Y-33720867D01*
X65677034Y-33755603D01*
X65652048Y-33786048D01*
X65621603Y-33811034D01*
X65586867Y-33829601D01*
X65549174Y-33841035D01*
X65503839Y-33845500D01*
X64417161Y-33845500D01*
X64371826Y-33841035D01*
X64334133Y-33829601D01*
X64299397Y-33811034D01*
X64268952Y-33786048D01*
X64243966Y-33755603D01*
X64225399Y-33720867D01*
X64213965Y-33683174D01*
X64209500Y-33637839D01*
X64209500Y-32801161D01*
X64213965Y-32755826D01*
X64225399Y-32718133D01*
X64243966Y-32683397D01*
X64268952Y-32652952D01*
X64299397Y-32627966D01*
X64334133Y-32609399D01*
X64371826Y-32597965D01*
X64417161Y-32593500D01*
X65503839Y-32593500D01*
X65549174Y-32597965D01*
X65549174Y-32597965D01*
G37*
G36*
X57167174Y-31708965D02*
G01*
X57204867Y-31720399D01*
X57239603Y-31738966D01*
X57270048Y-31763952D01*
X57295034Y-31794397D01*
X57313601Y-31829133D01*
X57325035Y-31866826D01*
X57329500Y-31912161D01*
X57329500Y-32748839D01*
X57325035Y-32794174D01*
X57313601Y-32831867D01*
X57295034Y-32866603D01*
X57270048Y-32897048D01*
X57239603Y-32922034D01*
X57204867Y-32940601D01*
X57167174Y-32952035D01*
X57121839Y-32956500D01*
X56035161Y-32956500D01*
X55989826Y-32952035D01*
X55952133Y-32940601D01*
X55917397Y-32922034D01*
X55886952Y-32897048D01*
X55861966Y-32866603D01*
X55843399Y-32831867D01*
X55831965Y-32794174D01*
X55827500Y-32748839D01*
X55827500Y-31912161D01*
X55831965Y-31866826D01*
X55843399Y-31829133D01*
X55861966Y-31794397D01*
X55886952Y-31763952D01*
X55917397Y-31738966D01*
X55952133Y-31720399D01*
X55989826Y-31708965D01*
X56035161Y-31704500D01*
X57121839Y-31704500D01*
X57167174Y-31708965D01*
X57167174Y-31708965D01*
G37*
G36*
X55008174Y-31645465D02*
G01*
X55045867Y-31656899D01*
X55080603Y-31675466D01*
X55111048Y-31700452D01*
X55136034Y-31730897D01*
X55154601Y-31765633D01*
X55166035Y-31803326D01*
X55170500Y-31848661D01*
X55170500Y-32685339D01*
X55166035Y-32730674D01*
X55154601Y-32768367D01*
X55136034Y-32803103D01*
X55111048Y-32833548D01*
X55080603Y-32858534D01*
X55045867Y-32877101D01*
X55008174Y-32888535D01*
X54962839Y-32893000D01*
X53876161Y-32893000D01*
X53830826Y-32888535D01*
X53793133Y-32877101D01*
X53758397Y-32858534D01*
X53727952Y-32833548D01*
X53702966Y-32803103D01*
X53684399Y-32768367D01*
X53672965Y-32730674D01*
X53668500Y-32685339D01*
X53668500Y-31848661D01*
X53672965Y-31803326D01*
X53684399Y-31765633D01*
X53702966Y-31730897D01*
X53727952Y-31700452D01*
X53758397Y-31675466D01*
X53793133Y-31656899D01*
X53830826Y-31645465D01*
X53876161Y-31641000D01*
X54962839Y-31641000D01*
X55008174Y-31645465D01*
X55008174Y-31645465D01*
G37*
G36*
X61335256Y-29506298D02*
G01*
X61441579Y-29527447D01*
X61633393Y-29606899D01*
X61733827Y-29648500D01*
X61742042Y-29651903D01*
X62012451Y-29832585D01*
X62242415Y-30062549D01*
X62423097Y-30332958D01*
X62547553Y-30633421D01*
X62553727Y-30664462D01*
X62610505Y-30949899D01*
X62611000Y-30952391D01*
X62611000Y-31277609D01*
X62547553Y-31596579D01*
X62489783Y-31736048D01*
X62424747Y-31893060D01*
X62423097Y-31897042D01*
X62242415Y-32167451D01*
X62012451Y-32397415D01*
X61742042Y-32578097D01*
X61742041Y-32578098D01*
X61742040Y-32578098D01*
X61692230Y-32598730D01*
X61441579Y-32702553D01*
X61381708Y-32714462D01*
X61122611Y-32766000D01*
X60797389Y-32766000D01*
X60538292Y-32714462D01*
X60478421Y-32702553D01*
X60227770Y-32598730D01*
X60177960Y-32578098D01*
X60177959Y-32578098D01*
X60177958Y-32578097D01*
X59907549Y-32397415D01*
X59677585Y-32167451D01*
X59496903Y-31897042D01*
X59495254Y-31893060D01*
X59430217Y-31736048D01*
X59372447Y-31596579D01*
X59309000Y-31277609D01*
X59309000Y-30952391D01*
X59309496Y-30949899D01*
X59366273Y-30664462D01*
X59372447Y-30633421D01*
X59496903Y-30332958D01*
X59677585Y-30062549D01*
X59907549Y-29832585D01*
X60177958Y-29651903D01*
X60186174Y-29648500D01*
X60286607Y-29606899D01*
X60478421Y-29527447D01*
X60584744Y-29506298D01*
X60797389Y-29464000D01*
X61122611Y-29464000D01*
X61335256Y-29506298D01*
X61335256Y-29506298D01*
G37*
G36*
X75091434Y-30918186D02*
G01*
X75131284Y-30930274D01*
X75167999Y-30949899D01*
X75200186Y-30976314D01*
X75226601Y-31008501D01*
X75246226Y-31045216D01*
X75258314Y-31085066D01*
X75263000Y-31132641D01*
X75263000Y-31796359D01*
X75258314Y-31843934D01*
X75246226Y-31883784D01*
X75226601Y-31920499D01*
X75200186Y-31952686D01*
X75167999Y-31979101D01*
X75131284Y-31998726D01*
X75091434Y-32010814D01*
X75043859Y-32015500D01*
X71880141Y-32015500D01*
X71832566Y-32010814D01*
X71792716Y-31998726D01*
X71756001Y-31979101D01*
X71723814Y-31952686D01*
X71697399Y-31920499D01*
X71677774Y-31883784D01*
X71665686Y-31843934D01*
X71661000Y-31796359D01*
X71661000Y-31132641D01*
X71665686Y-31085066D01*
X71677774Y-31045216D01*
X71697399Y-31008501D01*
X71723814Y-30976314D01*
X71756001Y-30949899D01*
X71792716Y-30930274D01*
X71832566Y-30918186D01*
X71880141Y-30913500D01*
X75043859Y-30913500D01*
X75091434Y-30918186D01*
X75091434Y-30918186D01*
G37*
G36*
X65549174Y-30547965D02*
G01*
X65586867Y-30559399D01*
X65621603Y-30577966D01*
X65652048Y-30602952D01*
X65677034Y-30633397D01*
X65695601Y-30668133D01*
X65707035Y-30705826D01*
X65711500Y-30751161D01*
X65711500Y-31587839D01*
X65707035Y-31633174D01*
X65695601Y-31670867D01*
X65677034Y-31705603D01*
X65652048Y-31736048D01*
X65621603Y-31761034D01*
X65586867Y-31779601D01*
X65549174Y-31791035D01*
X65503839Y-31795500D01*
X64417161Y-31795500D01*
X64371826Y-31791035D01*
X64334133Y-31779601D01*
X64299397Y-31761034D01*
X64268952Y-31736048D01*
X64243966Y-31705603D01*
X64225399Y-31670867D01*
X64213965Y-31633174D01*
X64209500Y-31587839D01*
X64209500Y-30751161D01*
X64213965Y-30705826D01*
X64225399Y-30668133D01*
X64243966Y-30633397D01*
X64268952Y-30602952D01*
X64299397Y-30577966D01*
X64334133Y-30559399D01*
X64371826Y-30547965D01*
X64417161Y-30543500D01*
X65503839Y-30543500D01*
X65549174Y-30547965D01*
X65549174Y-30547965D01*
G37*
G36*
X57167174Y-29658965D02*
G01*
X57204867Y-29670399D01*
X57239603Y-29688966D01*
X57270048Y-29713952D01*
X57295034Y-29744397D01*
X57313601Y-29779133D01*
X57325035Y-29816826D01*
X57329500Y-29862161D01*
X57329500Y-30698839D01*
X57325035Y-30744174D01*
X57313601Y-30781867D01*
X57295034Y-30816603D01*
X57270048Y-30847048D01*
X57239603Y-30872034D01*
X57204867Y-30890601D01*
X57167174Y-30902035D01*
X57121839Y-30906500D01*
X56035161Y-30906500D01*
X55989826Y-30902035D01*
X55952133Y-30890601D01*
X55917397Y-30872034D01*
X55886952Y-30847048D01*
X55861966Y-30816603D01*
X55843399Y-30781867D01*
X55831965Y-30744174D01*
X55827500Y-30698839D01*
X55827500Y-29862161D01*
X55831965Y-29816826D01*
X55843399Y-29779133D01*
X55861966Y-29744397D01*
X55886952Y-29713952D01*
X55917397Y-29688966D01*
X55952133Y-29670399D01*
X55989826Y-29658965D01*
X56035161Y-29654500D01*
X57121839Y-29654500D01*
X57167174Y-29658965D01*
X57167174Y-29658965D01*
G37*
G36*
X55008174Y-29595465D02*
G01*
X55045867Y-29606899D01*
X55080603Y-29625466D01*
X55111048Y-29650452D01*
X55136034Y-29680897D01*
X55154601Y-29715633D01*
X55166035Y-29753326D01*
X55170500Y-29798661D01*
X55170500Y-30635339D01*
X55166035Y-30680674D01*
X55154601Y-30718367D01*
X55136034Y-30753103D01*
X55111048Y-30783548D01*
X55080603Y-30808534D01*
X55045867Y-30827101D01*
X55008174Y-30838535D01*
X54962839Y-30843000D01*
X53876161Y-30843000D01*
X53830826Y-30838535D01*
X53793133Y-30827101D01*
X53758397Y-30808534D01*
X53727952Y-30783548D01*
X53702966Y-30753103D01*
X53684399Y-30718367D01*
X53672965Y-30680674D01*
X53668500Y-30635339D01*
X53668500Y-29798661D01*
X53672965Y-29753326D01*
X53684399Y-29715633D01*
X53702966Y-29680897D01*
X53727952Y-29650452D01*
X53758397Y-29625466D01*
X53793133Y-29606899D01*
X53830826Y-29595465D01*
X53876161Y-29591000D01*
X54962839Y-29591000D01*
X55008174Y-29595465D01*
X55008174Y-29595465D01*
G37*
G36*
X52209000Y-30682500D02*
G01*
X50407000Y-30682500D01*
X50407000Y-28880500D01*
X52209000Y-28880500D01*
X52209000Y-30682500D01*
X52209000Y-30682500D01*
G37*
G36*
X48878442Y-28887018D02*
G01*
X48944627Y-28893537D01*
X49114466Y-28945057D01*
X49270991Y-29028722D01*
X49306729Y-29058052D01*
X49408186Y-29141314D01*
X49491448Y-29242771D01*
X49520778Y-29278509D01*
X49604443Y-29435034D01*
X49655963Y-29604873D01*
X49673359Y-29781500D01*
X49655963Y-29958127D01*
X49604443Y-30127966D01*
X49520778Y-30284491D01*
X49491448Y-30320229D01*
X49408186Y-30421686D01*
X49306729Y-30504948D01*
X49270991Y-30534278D01*
X49114466Y-30617943D01*
X48944627Y-30669463D01*
X48878442Y-30675982D01*
X48812260Y-30682500D01*
X48723740Y-30682500D01*
X48657558Y-30675982D01*
X48591373Y-30669463D01*
X48421534Y-30617943D01*
X48265009Y-30534278D01*
X48229271Y-30504948D01*
X48127814Y-30421686D01*
X48044552Y-30320229D01*
X48015222Y-30284491D01*
X47931557Y-30127966D01*
X47880037Y-29958127D01*
X47862641Y-29781500D01*
X47880037Y-29604873D01*
X47931557Y-29435034D01*
X48015222Y-29278509D01*
X48044552Y-29242771D01*
X48127814Y-29141314D01*
X48229271Y-29058052D01*
X48265009Y-29028722D01*
X48421534Y-28945057D01*
X48591373Y-28893537D01*
X48657558Y-28887018D01*
X48723740Y-28880500D01*
X48812260Y-28880500D01*
X48878442Y-28887018D01*
X48878442Y-28887018D01*
G37*
G36*
X69315048Y-28317622D02*
G01*
X69349387Y-28328039D01*
X69381036Y-28344956D01*
X69408778Y-28367722D01*
X69431544Y-28395464D01*
X69448461Y-28427113D01*
X69458878Y-28461452D01*
X69463000Y-28503307D01*
X69463000Y-29725693D01*
X69458878Y-29767548D01*
X69448461Y-29801887D01*
X69431544Y-29833536D01*
X69408778Y-29861278D01*
X69381036Y-29884044D01*
X69349387Y-29900961D01*
X69315048Y-29911378D01*
X69273193Y-29915500D01*
X66150807Y-29915500D01*
X66108952Y-29911378D01*
X66074613Y-29900961D01*
X66042964Y-29884044D01*
X66015222Y-29861278D01*
X65992456Y-29833536D01*
X65975539Y-29801887D01*
X65965122Y-29767548D01*
X65961000Y-29725693D01*
X65961000Y-28503307D01*
X65965122Y-28461452D01*
X65975539Y-28427113D01*
X65992456Y-28395464D01*
X66015222Y-28367722D01*
X66042964Y-28344956D01*
X66074613Y-28328039D01*
X66108952Y-28317622D01*
X66150807Y-28313500D01*
X69273193Y-28313500D01*
X69315048Y-28317622D01*
X69315048Y-28317622D01*
G37*
M02*
