G04 #@! TF.GenerationSoftware,KiCad,Pcbnew,(5.1.0)-1*
G04 #@! TF.CreationDate,2020-04-04T17:21:39+01:00*
G04 #@! TF.ProjectId,Camera Adapter,43616d65-7261-4204-9164-61707465722e,rev?*
G04 #@! TF.SameCoordinates,Original*
G04 #@! TF.FileFunction,Profile,NP*
%FSLAX46Y46*%
G04 Gerber Fmt 4.6, Leading zero omitted, Abs format (unit mm)*
G04 Created by KiCad (PCBNEW (5.1.0)-1) date 2020-04-04 17:21:39*
%MOMM*%
%LPD*%
G04 APERTURE LIST*
%ADD10C,0.050000*%
%ADD11C,0.001000*%
G04 APERTURE END LIST*
D10*
X77000000Y-77000000D02*
X77000000Y-29000000D01*
X48000000Y-78000000D02*
G75*
G02X47000000Y-77000000I0J1000000D01*
G01*
X77000000Y-77000000D02*
G75*
G02X76000000Y-78000000I-1000000J0D01*
G01*
X76000000Y-28000000D02*
G75*
G02X77000000Y-29000000I0J-1000000D01*
G01*
X47000000Y-29000000D02*
G75*
G02X48000000Y-28000000I1000000J0D01*
G01*
X47000000Y-77000000D02*
X47000000Y-29000000D01*
X76000000Y-78000000D02*
X48000000Y-78000000D01*
X48000000Y-28000000D02*
X76000000Y-28000000D01*
D11*
X68500000Y-56500000D02*
X68500000Y-42500000D01*
X68500000Y-42500000D02*
X76900000Y-42500000D01*
X68500000Y-56500000D02*
X76900000Y-56500000D01*
X76900000Y-56500000D02*
X76900000Y-42500000D01*
X76900000Y-75000000D02*
X76900000Y-61000000D01*
X68500000Y-75000000D02*
X76900000Y-75000000D01*
X68500000Y-61000000D02*
X76900000Y-61000000D01*
X68500000Y-75000000D02*
X68500000Y-61000000D01*
D10*
X51560380Y-35929285D02*
X51560380Y-36500714D01*
X51560380Y-36215000D02*
X50560380Y-36215000D01*
X50703238Y-36310238D01*
X50798476Y-36405476D01*
X50846095Y-36500714D01*
X51560380Y-58662285D02*
X51560380Y-59233714D01*
X51560380Y-58948000D02*
X50560380Y-58948000D01*
X50703238Y-59043238D01*
X50798476Y-59138476D01*
X50846095Y-59233714D01*
M02*
