M48
; DRILL file {KiCad (5.1.0)-1} date 04/04/2020 17:21:34
; FORMAT={3:3/ absolute / metric / suppress leading zeros}
; #@! TF.CreationDate,2020-04-04T17:21:34+01:00
; #@! TF.GenerationSoftware,Kicad,Pcbnew,(5.1.0)-1
FMAT,2
METRIC,TZ
T1C0.400
T2C1.000
T3C3.200
%
G90
G05
T1
X53759Y-55593
X55208Y-58636
X55409Y-47163
X55423Y-72548
X56023Y-71262
X56183Y-42594
X63677Y-68460
X63918Y-69630
X63940Y-53330
X70631Y-33362
T2
X48768Y-29782
X51308Y-29782
T3
X60960Y-31115
X60000Y-74000
T2
G00X72700Y-41450
M15
G01X74100Y-41450
M16
G05
G00X72700Y-57550
M15
G01X74100Y-57550
M16
G05
G00X72700Y-59950
M15
G01X74100Y-59950
M16
G05
G00X72700Y-76050
M15
G01X74100Y-76050
M16
G05
T0
M30
