G04 #@! TF.GenerationSoftware,KiCad,Pcbnew,(5.1.0)-1*
G04 #@! TF.CreationDate,2020-04-02T13:59:08+01:00*
G04 #@! TF.ProjectId,Camera Adapter,43616d65-7261-4204-9164-61707465722e,rev?*
G04 #@! TF.SameCoordinates,Original*
G04 #@! TF.FileFunction,Legend,Top*
G04 #@! TF.FilePolarity,Positive*
%FSLAX46Y46*%
G04 Gerber Fmt 4.6, Leading zero omitted, Abs format (unit mm)*
G04 Created by KiCad (PCBNEW (5.1.0)-1) date 2020-04-02 13:59:08*
%MOMM*%
%LPD*%
G04 APERTURE LIST*
%ADD10C,0.150000*%
%ADD11C,0.200000*%
%ADD12C,0.120000*%
%ADD13C,0.100000*%
%ADD14C,0.127000*%
G04 APERTURE END LIST*
D10*
X71738095Y-35071428D02*
X72500000Y-35071428D01*
X72119047Y-35452380D02*
X72119047Y-34690476D01*
X72880952Y-34452380D02*
X73500000Y-34452380D01*
X73166666Y-34833333D01*
X73309523Y-34833333D01*
X73404761Y-34880952D01*
X73452380Y-34928571D01*
X73500000Y-35023809D01*
X73500000Y-35261904D01*
X73452380Y-35357142D01*
X73404761Y-35404761D01*
X73309523Y-35452380D01*
X73023809Y-35452380D01*
X72928571Y-35404761D01*
X72880952Y-35357142D01*
X73785714Y-34452380D02*
X74119047Y-35452380D01*
X74452380Y-34452380D01*
X74690476Y-34452380D02*
X75309523Y-34452380D01*
X74976190Y-34833333D01*
X75119047Y-34833333D01*
X75214285Y-34880952D01*
X75261904Y-34928571D01*
X75309523Y-35023809D01*
X75309523Y-35261904D01*
X75261904Y-35357142D01*
X75214285Y-35404761D01*
X75119047Y-35452380D01*
X74833333Y-35452380D01*
X74738095Y-35404761D01*
X74690476Y-35357142D01*
X72738095Y-28500000D02*
X72642857Y-28452380D01*
X72500000Y-28452380D01*
X72357142Y-28500000D01*
X72261904Y-28595238D01*
X72214285Y-28690476D01*
X72166666Y-28880952D01*
X72166666Y-29023809D01*
X72214285Y-29214285D01*
X72261904Y-29309523D01*
X72357142Y-29404761D01*
X72500000Y-29452380D01*
X72595238Y-29452380D01*
X72738095Y-29404761D01*
X72785714Y-29357142D01*
X72785714Y-29023809D01*
X72595238Y-29023809D01*
X73214285Y-29452380D02*
X73214285Y-28452380D01*
X73785714Y-29452380D01*
X73785714Y-28452380D01*
X74261904Y-29452380D02*
X74261904Y-28452380D01*
X74500000Y-28452380D01*
X74642857Y-28500000D01*
X74738095Y-28595238D01*
X74785714Y-28690476D01*
X74833333Y-28880952D01*
X74833333Y-29023809D01*
X74785714Y-29214285D01*
X74738095Y-29309523D01*
X74642857Y-29404761D01*
X74500000Y-29452380D01*
X74261904Y-29452380D01*
X47500000Y-32761904D02*
X47452380Y-32857142D01*
X47452380Y-33000000D01*
X47500000Y-33142857D01*
X47595238Y-33238095D01*
X47690476Y-33285714D01*
X47880952Y-33333333D01*
X48023809Y-33333333D01*
X48214285Y-33285714D01*
X48309523Y-33238095D01*
X48404761Y-33142857D01*
X48452380Y-33000000D01*
X48452380Y-32904761D01*
X48404761Y-32761904D01*
X48357142Y-32714285D01*
X48023809Y-32714285D01*
X48023809Y-32904761D01*
X48452380Y-32285714D02*
X47452380Y-32285714D01*
X48452380Y-31714285D01*
X47452380Y-31714285D01*
X48452380Y-31238095D02*
X47452380Y-31238095D01*
X47452380Y-31000000D01*
X47500000Y-30857142D01*
X47595238Y-30761904D01*
X47690476Y-30714285D01*
X47880952Y-30666666D01*
X48023809Y-30666666D01*
X48214285Y-30714285D01*
X48309523Y-30761904D01*
X48404761Y-30857142D01*
X48452380Y-31000000D01*
X48452380Y-31238095D01*
X48452380Y-37119047D02*
X48452380Y-37690476D01*
X48452380Y-37404761D02*
X47452380Y-37404761D01*
X47595238Y-37500000D01*
X47690476Y-37595238D01*
X47738095Y-37690476D01*
X47547619Y-36738095D02*
X47500000Y-36690476D01*
X47452380Y-36595238D01*
X47452380Y-36357142D01*
X47500000Y-36261904D01*
X47547619Y-36214285D01*
X47642857Y-36166666D01*
X47738095Y-36166666D01*
X47880952Y-36214285D01*
X48452380Y-36785714D01*
X48452380Y-36166666D01*
X47452380Y-35880952D02*
X48452380Y-35547619D01*
X47452380Y-35214285D01*
X66666666Y-39952380D02*
X66666666Y-38952380D01*
X67047619Y-38952380D01*
X67142857Y-39000000D01*
X67190476Y-39047619D01*
X67238095Y-39142857D01*
X67238095Y-39285714D01*
X67190476Y-39380952D01*
X67142857Y-39428571D01*
X67047619Y-39476190D01*
X66666666Y-39476190D01*
X67809523Y-39952380D02*
X67714285Y-39904761D01*
X67666666Y-39857142D01*
X67619047Y-39761904D01*
X67619047Y-39476190D01*
X67666666Y-39380952D01*
X67714285Y-39333333D01*
X67809523Y-39285714D01*
X67952380Y-39285714D01*
X68047619Y-39333333D01*
X68095238Y-39380952D01*
X68142857Y-39476190D01*
X68142857Y-39761904D01*
X68095238Y-39857142D01*
X68047619Y-39904761D01*
X67952380Y-39952380D01*
X67809523Y-39952380D01*
X68476190Y-39285714D02*
X68666666Y-39952380D01*
X68857142Y-39476190D01*
X69047619Y-39952380D01*
X69238095Y-39285714D01*
X70000000Y-39904761D02*
X69904761Y-39952380D01*
X69714285Y-39952380D01*
X69619047Y-39904761D01*
X69571428Y-39809523D01*
X69571428Y-39428571D01*
X69619047Y-39333333D01*
X69714285Y-39285714D01*
X69904761Y-39285714D01*
X70000000Y-39333333D01*
X70047619Y-39428571D01*
X70047619Y-39523809D01*
X69571428Y-39619047D01*
X70476190Y-39952380D02*
X70476190Y-39285714D01*
X70476190Y-39476190D02*
X70523809Y-39380952D01*
X70571428Y-39333333D01*
X70666666Y-39285714D01*
X70761904Y-39285714D01*
X72047619Y-38952380D02*
X72238095Y-38952380D01*
X72333333Y-39000000D01*
X72428571Y-39095238D01*
X72476190Y-39285714D01*
X72476190Y-39619047D01*
X72428571Y-39809523D01*
X72333333Y-39904761D01*
X72238095Y-39952380D01*
X72047619Y-39952380D01*
X71952380Y-39904761D01*
X71857142Y-39809523D01*
X71809523Y-39619047D01*
X71809523Y-39285714D01*
X71857142Y-39095238D01*
X71952380Y-39000000D01*
X72047619Y-38952380D01*
X72904761Y-39285714D02*
X72904761Y-39952380D01*
X72904761Y-39380952D02*
X72952380Y-39333333D01*
X73047619Y-39285714D01*
X73190476Y-39285714D01*
X73285714Y-39333333D01*
X73333333Y-39428571D01*
X73333333Y-39952380D01*
X55809523Y-77357142D02*
X55761904Y-77404761D01*
X55619047Y-77452380D01*
X55523809Y-77452380D01*
X55380952Y-77404761D01*
X55285714Y-77309523D01*
X55238095Y-77214285D01*
X55190476Y-77023809D01*
X55190476Y-76880952D01*
X55238095Y-76690476D01*
X55285714Y-76595238D01*
X55380952Y-76500000D01*
X55523809Y-76452380D01*
X55619047Y-76452380D01*
X55761904Y-76500000D01*
X55809523Y-76547619D01*
X56666666Y-77452380D02*
X56666666Y-76928571D01*
X56619047Y-76833333D01*
X56523809Y-76785714D01*
X56333333Y-76785714D01*
X56238095Y-76833333D01*
X56666666Y-77404761D02*
X56571428Y-77452380D01*
X56333333Y-77452380D01*
X56238095Y-77404761D01*
X56190476Y-77309523D01*
X56190476Y-77214285D01*
X56238095Y-77119047D01*
X56333333Y-77071428D01*
X56571428Y-77071428D01*
X56666666Y-77023809D01*
X57142857Y-77452380D02*
X57142857Y-76785714D01*
X57142857Y-76880952D02*
X57190476Y-76833333D01*
X57285714Y-76785714D01*
X57428571Y-76785714D01*
X57523809Y-76833333D01*
X57571428Y-76928571D01*
X57571428Y-77452380D01*
X57571428Y-76928571D02*
X57619047Y-76833333D01*
X57714285Y-76785714D01*
X57857142Y-76785714D01*
X57952380Y-76833333D01*
X58000000Y-76928571D01*
X58000000Y-77452380D01*
X58857142Y-77404761D02*
X58761904Y-77452380D01*
X58571428Y-77452380D01*
X58476190Y-77404761D01*
X58428571Y-77309523D01*
X58428571Y-76928571D01*
X58476190Y-76833333D01*
X58571428Y-76785714D01*
X58761904Y-76785714D01*
X58857142Y-76833333D01*
X58904761Y-76928571D01*
X58904761Y-77023809D01*
X58428571Y-77119047D01*
X59333333Y-77452380D02*
X59333333Y-76785714D01*
X59333333Y-76976190D02*
X59380952Y-76880952D01*
X59428571Y-76833333D01*
X59523809Y-76785714D01*
X59619047Y-76785714D01*
X60380952Y-77452380D02*
X60380952Y-76928571D01*
X60333333Y-76833333D01*
X60238095Y-76785714D01*
X60047619Y-76785714D01*
X59952380Y-76833333D01*
X60380952Y-77404761D02*
X60285714Y-77452380D01*
X60047619Y-77452380D01*
X59952380Y-77404761D01*
X59904761Y-77309523D01*
X59904761Y-77214285D01*
X59952380Y-77119047D01*
X60047619Y-77071428D01*
X60285714Y-77071428D01*
X60380952Y-77023809D01*
X61571428Y-77166666D02*
X62047619Y-77166666D01*
X61476190Y-77452380D02*
X61809523Y-76452380D01*
X62142857Y-77452380D01*
X62904761Y-77452380D02*
X62904761Y-76452380D01*
X62904761Y-77404761D02*
X62809523Y-77452380D01*
X62619047Y-77452380D01*
X62523809Y-77404761D01*
X62476190Y-77357142D01*
X62428571Y-77261904D01*
X62428571Y-76976190D01*
X62476190Y-76880952D01*
X62523809Y-76833333D01*
X62619047Y-76785714D01*
X62809523Y-76785714D01*
X62904761Y-76833333D01*
X63809523Y-77452380D02*
X63809523Y-76928571D01*
X63761904Y-76833333D01*
X63666666Y-76785714D01*
X63476190Y-76785714D01*
X63380952Y-76833333D01*
X63809523Y-77404761D02*
X63714285Y-77452380D01*
X63476190Y-77452380D01*
X63380952Y-77404761D01*
X63333333Y-77309523D01*
X63333333Y-77214285D01*
X63380952Y-77119047D01*
X63476190Y-77071428D01*
X63714285Y-77071428D01*
X63809523Y-77023809D01*
X64285714Y-76785714D02*
X64285714Y-77785714D01*
X64285714Y-76833333D02*
X64380952Y-76785714D01*
X64571428Y-76785714D01*
X64666666Y-76833333D01*
X64714285Y-76880952D01*
X64761904Y-76976190D01*
X64761904Y-77261904D01*
X64714285Y-77357142D01*
X64666666Y-77404761D01*
X64571428Y-77452380D01*
X64380952Y-77452380D01*
X64285714Y-77404761D01*
X65047619Y-76785714D02*
X65428571Y-76785714D01*
X65190476Y-76452380D02*
X65190476Y-77309523D01*
X65238095Y-77404761D01*
X65333333Y-77452380D01*
X65428571Y-77452380D01*
X66142857Y-77404761D02*
X66047619Y-77452380D01*
X65857142Y-77452380D01*
X65761904Y-77404761D01*
X65714285Y-77309523D01*
X65714285Y-76928571D01*
X65761904Y-76833333D01*
X65857142Y-76785714D01*
X66047619Y-76785714D01*
X66142857Y-76833333D01*
X66190476Y-76928571D01*
X66190476Y-77023809D01*
X65714285Y-77119047D01*
X66619047Y-77452380D02*
X66619047Y-76785714D01*
X66619047Y-76976190D02*
X66666666Y-76880952D01*
X66714285Y-76833333D01*
X66809523Y-76785714D01*
X66904761Y-76785714D01*
D11*
X67100000Y-53800000D02*
X67100000Y-57650000D01*
X67100000Y-57650000D02*
X71500000Y-57650000D01*
X67100000Y-45200000D02*
X67100000Y-41350000D01*
X67100000Y-41350000D02*
X71500000Y-41350000D01*
X64250000Y-45900000D02*
G75*
G03X64250000Y-45900000I-100000J0D01*
G01*
D12*
X61713748Y-37810000D02*
X62236252Y-37810000D01*
X61713748Y-36390000D02*
X62236252Y-36390000D01*
X72540000Y-32236252D02*
X72540000Y-31713748D01*
X73960000Y-32236252D02*
X73960000Y-31713748D01*
X70160000Y-38100000D02*
X70160000Y-35240000D01*
X70160000Y-35240000D02*
X68240000Y-35240000D01*
X68240000Y-35240000D02*
X68240000Y-38100000D01*
D11*
X55200000Y-56500000D02*
G75*
G03X55200000Y-56700000I0J-100000D01*
G01*
X55200000Y-56700000D02*
G75*
G03X55200000Y-56500000I0J100000D01*
G01*
X55200000Y-56700000D02*
X55200000Y-56700000D01*
X55200000Y-56500000D02*
X55200000Y-56500000D01*
D13*
X53900000Y-57600000D02*
X50900000Y-57600000D01*
X53900000Y-41600000D02*
X50900000Y-41600000D01*
D12*
X71330000Y-29130000D02*
X68670000Y-29130000D01*
X71330000Y-31730000D02*
X71330000Y-29130000D01*
X68670000Y-31730000D02*
X68670000Y-29130000D01*
X71330000Y-31730000D02*
X68670000Y-31730000D01*
X71330000Y-33000000D02*
X71330000Y-34330000D01*
X71330000Y-34330000D02*
X70000000Y-34330000D01*
X54340000Y-39360000D02*
X50090000Y-39360000D01*
X50090000Y-39360000D02*
X50090000Y-38340000D01*
X50090000Y-38340000D02*
X51690000Y-38340000D01*
X51690000Y-38340000D02*
X51690000Y-37060000D01*
X51690000Y-37060000D02*
X48800000Y-37060000D01*
X54340000Y-29240000D02*
X50090000Y-29240000D01*
X50090000Y-29240000D02*
X50090000Y-30260000D01*
X50090000Y-30260000D02*
X51690000Y-30260000D01*
X51690000Y-30260000D02*
X51690000Y-31540000D01*
X57910000Y-37640000D02*
X57910000Y-30960000D01*
D13*
X53900000Y-60000000D02*
X50900000Y-60000000D01*
X53900000Y-76000000D02*
X50900000Y-76000000D01*
D11*
X55200000Y-74900000D02*
X55200000Y-74900000D01*
X55200000Y-75100000D02*
X55200000Y-75100000D01*
X55200000Y-75100000D02*
G75*
G03X55200000Y-74900000I0J100000D01*
G01*
X55200000Y-74900000D02*
G75*
G03X55200000Y-75100000I0J-100000D01*
G01*
X64250000Y-64400000D02*
G75*
G03X64250000Y-64400000I-100000J0D01*
G01*
X67100000Y-59850000D02*
X71500000Y-59850000D01*
X67100000Y-63700000D02*
X67100000Y-59850000D01*
X67100000Y-76150000D02*
X71500000Y-76150000D01*
X67100000Y-72300000D02*
X67100000Y-76150000D01*
D12*
X65490000Y-37361252D02*
X65490000Y-36838748D01*
X66910000Y-37361252D02*
X66910000Y-36838748D01*
D14*
X61400000Y-34223500D02*
X65400000Y-34223500D01*
X61400000Y-29176500D02*
X65400000Y-29176500D01*
D11*
X59220000Y-29255000D02*
G75*
G03X59220000Y-29255000I-100000J0D01*
G01*
D10*
X64166666Y-40452380D02*
X64166666Y-41166666D01*
X64119047Y-41309523D01*
X64023809Y-41404761D01*
X63880952Y-41452380D01*
X63785714Y-41452380D01*
X64595238Y-40547619D02*
X64642857Y-40500000D01*
X64738095Y-40452380D01*
X64976190Y-40452380D01*
X65071428Y-40500000D01*
X65119047Y-40547619D01*
X65166666Y-40642857D01*
X65166666Y-40738095D01*
X65119047Y-40880952D01*
X64547619Y-41452380D01*
X65166666Y-41452380D01*
X60952380Y-39602380D02*
X60619047Y-39126190D01*
X60380952Y-39602380D02*
X60380952Y-38602380D01*
X60761904Y-38602380D01*
X60857142Y-38650000D01*
X60904761Y-38697619D01*
X60952380Y-38792857D01*
X60952380Y-38935714D01*
X60904761Y-39030952D01*
X60857142Y-39078571D01*
X60761904Y-39126190D01*
X60380952Y-39126190D01*
X61380952Y-39078571D02*
X61714285Y-39078571D01*
X61857142Y-39602380D02*
X61380952Y-39602380D01*
X61380952Y-38602380D01*
X61857142Y-38602380D01*
X62619047Y-39078571D02*
X62285714Y-39078571D01*
X62285714Y-39602380D02*
X62285714Y-38602380D01*
X62761904Y-38602380D01*
X63095238Y-38697619D02*
X63142857Y-38650000D01*
X63238095Y-38602380D01*
X63476190Y-38602380D01*
X63571428Y-38650000D01*
X63619047Y-38697619D01*
X63666666Y-38792857D01*
X63666666Y-38888095D01*
X63619047Y-39030952D01*
X63047619Y-39602380D01*
X63666666Y-39602380D01*
X58952380Y-70602380D02*
X58619047Y-70126190D01*
X58380952Y-70602380D02*
X58380952Y-69602380D01*
X58761904Y-69602380D01*
X58857142Y-69650000D01*
X58904761Y-69697619D01*
X58952380Y-69792857D01*
X58952380Y-69935714D01*
X58904761Y-70030952D01*
X58857142Y-70078571D01*
X58761904Y-70126190D01*
X58380952Y-70126190D01*
X59380952Y-70078571D02*
X59714285Y-70078571D01*
X59857142Y-70602380D02*
X59380952Y-70602380D01*
X59380952Y-69602380D01*
X59857142Y-69602380D01*
X60619047Y-70078571D02*
X60285714Y-70078571D01*
X60285714Y-70602380D02*
X60285714Y-69602380D01*
X60761904Y-69602380D01*
X61666666Y-70602380D02*
X61095238Y-70602380D01*
X61380952Y-70602380D02*
X61380952Y-69602380D01*
X61285714Y-69745238D01*
X61190476Y-69840476D01*
X61095238Y-69888095D01*
X58833333Y-37357142D02*
X58785714Y-37404761D01*
X58642857Y-37452380D01*
X58547619Y-37452380D01*
X58404761Y-37404761D01*
X58309523Y-37309523D01*
X58261904Y-37214285D01*
X58214285Y-37023809D01*
X58214285Y-36880952D01*
X58261904Y-36690476D01*
X58309523Y-36595238D01*
X58404761Y-36500000D01*
X58547619Y-36452380D01*
X58642857Y-36452380D01*
X58785714Y-36500000D01*
X58833333Y-36547619D01*
X59785714Y-37452380D02*
X59214285Y-37452380D01*
X59500000Y-37452380D02*
X59500000Y-36452380D01*
X59404761Y-36595238D01*
X59309523Y-36690476D01*
X59214285Y-36738095D01*
X75333333Y-32357142D02*
X75285714Y-32404761D01*
X75142857Y-32452380D01*
X75047619Y-32452380D01*
X74904761Y-32404761D01*
X74809523Y-32309523D01*
X74761904Y-32214285D01*
X74714285Y-32023809D01*
X74714285Y-31880952D01*
X74761904Y-31690476D01*
X74809523Y-31595238D01*
X74904761Y-31500000D01*
X75047619Y-31452380D01*
X75142857Y-31452380D01*
X75285714Y-31500000D01*
X75333333Y-31547619D01*
X75714285Y-31547619D02*
X75761904Y-31500000D01*
X75857142Y-31452380D01*
X76095238Y-31452380D01*
X76190476Y-31500000D01*
X76238095Y-31547619D01*
X76285714Y-31642857D01*
X76285714Y-31738095D01*
X76238095Y-31880952D01*
X75666666Y-32452380D01*
X76285714Y-32452380D01*
X70761904Y-38452380D02*
X70761904Y-37452380D01*
X71000000Y-37452380D01*
X71142857Y-37500000D01*
X71238095Y-37595238D01*
X71285714Y-37690476D01*
X71333333Y-37880952D01*
X71333333Y-38023809D01*
X71285714Y-38214285D01*
X71238095Y-38309523D01*
X71142857Y-38404761D01*
X71000000Y-38452380D01*
X70761904Y-38452380D01*
X72285714Y-38452380D02*
X71714285Y-38452380D01*
X72000000Y-38452380D02*
X72000000Y-37452380D01*
X71904761Y-37595238D01*
X71809523Y-37690476D01*
X71714285Y-37738095D01*
X48076666Y-40304523D02*
X48076666Y-41211666D01*
X48016190Y-41393095D01*
X47895238Y-41514047D01*
X47713809Y-41574523D01*
X47592857Y-41574523D01*
X49346666Y-41574523D02*
X48620952Y-41574523D01*
X48983809Y-41574523D02*
X48983809Y-40304523D01*
X48862857Y-40485952D01*
X48741904Y-40606904D01*
X48620952Y-40667380D01*
X67666666Y-31452380D02*
X67666666Y-32166666D01*
X67619047Y-32309523D01*
X67523809Y-32404761D01*
X67380952Y-32452380D01*
X67285714Y-32452380D01*
X68047619Y-31452380D02*
X68666666Y-31452380D01*
X68333333Y-31833333D01*
X68476190Y-31833333D01*
X68571428Y-31880952D01*
X68619047Y-31928571D01*
X68666666Y-32023809D01*
X68666666Y-32261904D01*
X68619047Y-32357142D01*
X68571428Y-32404761D01*
X68476190Y-32452380D01*
X68190476Y-32452380D01*
X68095238Y-32404761D01*
X68047619Y-32357142D01*
X48852380Y-38533333D02*
X49566666Y-38533333D01*
X49709523Y-38580952D01*
X49804761Y-38676190D01*
X49852380Y-38819047D01*
X49852380Y-38914285D01*
X49185714Y-37628571D02*
X49852380Y-37628571D01*
X48804761Y-37866666D02*
X49519047Y-38104761D01*
X49519047Y-37485714D01*
X48076666Y-58804523D02*
X48076666Y-59711666D01*
X48016190Y-59893095D01*
X47895238Y-60014047D01*
X47713809Y-60074523D01*
X47592857Y-60074523D01*
X49286190Y-58804523D02*
X48681428Y-58804523D01*
X48620952Y-59409285D01*
X48681428Y-59348809D01*
X48802380Y-59288333D01*
X49104761Y-59288333D01*
X49225714Y-59348809D01*
X49286190Y-59409285D01*
X49346666Y-59530238D01*
X49346666Y-59832619D01*
X49286190Y-59953571D01*
X49225714Y-60014047D01*
X49104761Y-60074523D01*
X48802380Y-60074523D01*
X48681428Y-60014047D01*
X48620952Y-59953571D01*
X64166666Y-58952380D02*
X64166666Y-59666666D01*
X64119047Y-59809523D01*
X64023809Y-59904761D01*
X63880952Y-59952380D01*
X63785714Y-59952380D01*
X65071428Y-58952380D02*
X64880952Y-58952380D01*
X64785714Y-59000000D01*
X64738095Y-59047619D01*
X64642857Y-59190476D01*
X64595238Y-59380952D01*
X64595238Y-59761904D01*
X64642857Y-59857142D01*
X64690476Y-59904761D01*
X64785714Y-59952380D01*
X64976190Y-59952380D01*
X65071428Y-59904761D01*
X65119047Y-59857142D01*
X65166666Y-59761904D01*
X65166666Y-59523809D01*
X65119047Y-59428571D01*
X65071428Y-59380952D01*
X64976190Y-59333333D01*
X64785714Y-59333333D01*
X64690476Y-59380952D01*
X64642857Y-59428571D01*
X64595238Y-59523809D01*
X64383333Y-37552380D02*
X64050000Y-37076190D01*
X63811904Y-37552380D02*
X63811904Y-36552380D01*
X64192857Y-36552380D01*
X64288095Y-36600000D01*
X64335714Y-36647619D01*
X64383333Y-36742857D01*
X64383333Y-36885714D01*
X64335714Y-36980952D01*
X64288095Y-37028571D01*
X64192857Y-37076190D01*
X63811904Y-37076190D01*
X65335714Y-37552380D02*
X64764285Y-37552380D01*
X65050000Y-37552380D02*
X65050000Y-36552380D01*
X64954761Y-36695238D01*
X64859523Y-36790476D01*
X64764285Y-36838095D01*
X63038095Y-30152380D02*
X63038095Y-30961904D01*
X63085714Y-31057142D01*
X63133333Y-31104761D01*
X63228571Y-31152380D01*
X63419047Y-31152380D01*
X63514285Y-31104761D01*
X63561904Y-31057142D01*
X63609523Y-30961904D01*
X63609523Y-30152380D01*
X64609523Y-31152380D02*
X64038095Y-31152380D01*
X64323809Y-31152380D02*
X64323809Y-30152380D01*
X64228571Y-30295238D01*
X64133333Y-30390476D01*
X64038095Y-30438095D01*
M02*
