G04 #@! TF.GenerationSoftware,KiCad,Pcbnew,(5.1.0)-1*
G04 #@! TF.CreationDate,2020-04-02T13:59:07+01:00*
G04 #@! TF.ProjectId,Camera Adapter,43616d65-7261-4204-9164-61707465722e,rev?*
G04 #@! TF.SameCoordinates,Original*
G04 #@! TF.FileFunction,Copper,L2,Bot*
G04 #@! TF.FilePolarity,Positive*
%FSLAX46Y46*%
G04 Gerber Fmt 4.6, Leading zero omitted, Abs format (unit mm)*
G04 Created by KiCad (PCBNEW (5.1.0)-1) date 2020-04-02 13:59:07*
%MOMM*%
%LPD*%
G04 APERTURE LIST*
%ADD10O,3.016000X1.508000*%
%ADD11R,1.700000X1.700000*%
%ADD12O,1.700000X1.700000*%
%ADD13C,0.800000*%
%ADD14C,0.400000*%
%ADD15C,0.254000*%
G04 APERTURE END LIST*
D10*
X73400000Y-57550000D03*
X73400000Y-41450000D03*
D11*
X70000000Y-33000000D03*
D12*
X70000000Y-30460000D03*
D10*
X73400000Y-59950000D03*
X73400000Y-76050000D03*
D13*
X57431000Y-68530300D03*
X57702400Y-58271000D03*
X63200000Y-49874500D03*
X57262500Y-53865200D03*
X63275300Y-50959000D03*
X56918400Y-56102600D03*
X63754800Y-72014900D03*
X56908800Y-69533300D03*
D14*
X68511000Y-57133300D02*
X57431000Y-68213300D01*
X57431000Y-68213300D02*
X57431000Y-68530300D01*
X68511000Y-57133300D02*
X71075000Y-57133300D01*
X71075000Y-57133300D02*
X71491700Y-57550000D01*
X73400000Y-41450000D02*
X68911700Y-41450000D01*
X68911700Y-41450000D02*
X68094400Y-42267300D01*
X68094400Y-42267300D02*
X68094400Y-56716700D01*
X68094400Y-56716700D02*
X68511000Y-57133300D01*
X73400000Y-57550000D02*
X71491700Y-57550000D01*
X70000000Y-34250300D02*
X65133300Y-39117000D01*
X65133300Y-39117000D02*
X65133300Y-50840100D01*
X65133300Y-50840100D02*
X57702400Y-58271000D01*
X70000000Y-33000000D02*
X70000000Y-34250300D01*
X57262500Y-53865200D02*
X61253200Y-49874500D01*
X61253200Y-49874500D02*
X63200000Y-49874500D01*
X56918400Y-56102600D02*
X58131700Y-56102600D01*
X58131700Y-56102600D02*
X63275300Y-50959000D01*
X63754800Y-72014900D02*
X61273200Y-69533300D01*
X61273200Y-69533300D02*
X56908800Y-69533300D01*
X73400000Y-76050000D02*
X68949900Y-76050000D01*
X68949900Y-76050000D02*
X68097300Y-75197400D01*
X68097300Y-75197400D02*
X68097300Y-60764900D01*
X68097300Y-60764900D02*
X68912200Y-59950000D01*
X68912200Y-59950000D02*
X73400000Y-59950000D01*
D15*
G36*
X76065424Y-28669580D02*
G01*
X76128356Y-28688580D01*
X76186405Y-28719445D01*
X76237343Y-28760989D01*
X76279248Y-28811644D01*
X76310515Y-28869471D01*
X76329956Y-28932272D01*
X76340001Y-29027845D01*
X76340001Y-41864500D01*
X75485750Y-41864500D01*
X75485870Y-41864215D01*
X75500286Y-41791814D01*
X75377677Y-41577000D01*
X73527000Y-41577000D01*
X73527000Y-41597000D01*
X73273000Y-41597000D01*
X73273000Y-41577000D01*
X71422323Y-41577000D01*
X71299714Y-41791814D01*
X71314130Y-41864215D01*
X71314250Y-41864500D01*
X68531211Y-41864500D01*
X68500000Y-41861426D01*
X68468789Y-41864500D01*
X68375420Y-41873696D01*
X68255628Y-41910035D01*
X68145227Y-41969045D01*
X68048460Y-42048460D01*
X67969045Y-42145227D01*
X67910035Y-42255628D01*
X67873696Y-42375420D01*
X67861426Y-42500000D01*
X67864501Y-42531221D01*
X67864500Y-56468789D01*
X67861426Y-56500000D01*
X67873696Y-56624580D01*
X67910035Y-56744372D01*
X67969045Y-56854773D01*
X68011527Y-56906537D01*
X68048460Y-56951540D01*
X68145227Y-57030955D01*
X68255628Y-57089965D01*
X68375420Y-57126304D01*
X68500000Y-57138574D01*
X68531211Y-57135500D01*
X71314250Y-57135500D01*
X71314130Y-57135785D01*
X71299714Y-57208186D01*
X71422323Y-57423000D01*
X73273000Y-57423000D01*
X73273000Y-57403000D01*
X73527000Y-57403000D01*
X73527000Y-57423000D01*
X75377677Y-57423000D01*
X75500286Y-57208186D01*
X75485870Y-57135785D01*
X75485750Y-57135500D01*
X76340000Y-57135500D01*
X76340000Y-60364500D01*
X75479763Y-60364500D01*
X75522902Y-60222291D01*
X75549720Y-59950000D01*
X75522902Y-59677709D01*
X75443477Y-59415881D01*
X75314499Y-59174580D01*
X75140923Y-58963077D01*
X74929420Y-58789501D01*
X74855541Y-58750012D01*
X75031284Y-58634354D01*
X75225974Y-58442369D01*
X75379469Y-58216091D01*
X75485870Y-57964215D01*
X75500286Y-57891814D01*
X75377677Y-57677000D01*
X73527000Y-57677000D01*
X73527000Y-57697000D01*
X73273000Y-57697000D01*
X73273000Y-57677000D01*
X71422323Y-57677000D01*
X71299714Y-57891814D01*
X71314130Y-57964215D01*
X71420531Y-58216091D01*
X71574026Y-58442369D01*
X71768716Y-58634354D01*
X71944459Y-58750012D01*
X71870580Y-58789501D01*
X71659077Y-58963077D01*
X71534397Y-59115000D01*
X68953218Y-59115000D01*
X68912200Y-59110960D01*
X68871182Y-59115000D01*
X68871181Y-59115000D01*
X68748511Y-59127082D01*
X68591113Y-59174828D01*
X68446054Y-59252364D01*
X68318909Y-59356709D01*
X68292763Y-59388568D01*
X67535874Y-60145459D01*
X67504010Y-60171609D01*
X67423207Y-60270068D01*
X67399664Y-60298755D01*
X67322128Y-60443814D01*
X67274382Y-60601212D01*
X67258260Y-60764900D01*
X67262301Y-60805929D01*
X67262300Y-75156381D01*
X67258260Y-75197400D01*
X67262300Y-75238418D01*
X67274382Y-75361088D01*
X67322128Y-75518486D01*
X67399664Y-75663545D01*
X67504009Y-75790691D01*
X67535879Y-75816846D01*
X68330458Y-76611426D01*
X68356609Y-76643291D01*
X68483754Y-76747636D01*
X68628813Y-76825172D01*
X68786211Y-76872918D01*
X68908881Y-76885000D01*
X68908891Y-76885000D01*
X68949899Y-76889039D01*
X68990907Y-76885000D01*
X71534397Y-76885000D01*
X71659077Y-77036923D01*
X71870580Y-77210499D01*
X72111881Y-77339477D01*
X72113605Y-77340000D01*
X48032279Y-77340000D01*
X47934576Y-77330420D01*
X47871643Y-77311420D01*
X47813594Y-77280554D01*
X47762657Y-77239011D01*
X47720752Y-77188356D01*
X47689485Y-77130529D01*
X47670044Y-77067728D01*
X47660000Y-76972165D01*
X47660000Y-73779872D01*
X57765000Y-73779872D01*
X57765000Y-74220128D01*
X57850890Y-74651925D01*
X58019369Y-75058669D01*
X58263962Y-75424729D01*
X58575271Y-75736038D01*
X58941331Y-75980631D01*
X59348075Y-76149110D01*
X59779872Y-76235000D01*
X60220128Y-76235000D01*
X60651925Y-76149110D01*
X61058669Y-75980631D01*
X61424729Y-75736038D01*
X61736038Y-75424729D01*
X61980631Y-75058669D01*
X62149110Y-74651925D01*
X62235000Y-74220128D01*
X62235000Y-73779872D01*
X62149110Y-73348075D01*
X61980631Y-72941331D01*
X61736038Y-72575271D01*
X61424729Y-72263962D01*
X61058669Y-72019369D01*
X60651925Y-71850890D01*
X60220128Y-71765000D01*
X59779872Y-71765000D01*
X59348075Y-71850890D01*
X58941331Y-72019369D01*
X58575271Y-72263962D01*
X58263962Y-72575271D01*
X58019369Y-72941331D01*
X57850890Y-73348075D01*
X57765000Y-73779872D01*
X47660000Y-73779872D01*
X47660000Y-69431361D01*
X55873800Y-69431361D01*
X55873800Y-69635239D01*
X55913574Y-69835198D01*
X55991595Y-70023556D01*
X56104863Y-70193074D01*
X56249026Y-70337237D01*
X56418544Y-70450505D01*
X56606902Y-70528526D01*
X56806861Y-70568300D01*
X57010739Y-70568300D01*
X57210698Y-70528526D01*
X57399056Y-70450505D01*
X57522085Y-70368300D01*
X60927333Y-70368300D01*
X62730708Y-72171675D01*
X62759574Y-72316798D01*
X62837595Y-72505156D01*
X62950863Y-72674674D01*
X63095026Y-72818837D01*
X63264544Y-72932105D01*
X63452902Y-73010126D01*
X63652861Y-73049900D01*
X63856739Y-73049900D01*
X64056698Y-73010126D01*
X64245056Y-72932105D01*
X64414574Y-72818837D01*
X64558737Y-72674674D01*
X64672005Y-72505156D01*
X64750026Y-72316798D01*
X64789800Y-72116839D01*
X64789800Y-71912961D01*
X64750026Y-71713002D01*
X64672005Y-71524644D01*
X64558737Y-71355126D01*
X64414574Y-71210963D01*
X64245056Y-71097695D01*
X64056698Y-71019674D01*
X63911575Y-70990808D01*
X61892646Y-68971879D01*
X61866491Y-68940009D01*
X61739346Y-68835664D01*
X61594287Y-68758128D01*
X61436889Y-68710382D01*
X61314219Y-68698300D01*
X61314218Y-68698300D01*
X61273200Y-68694260D01*
X61232182Y-68698300D01*
X57522085Y-68698300D01*
X57399056Y-68616095D01*
X57210698Y-68538074D01*
X57010739Y-68498300D01*
X56806861Y-68498300D01*
X56606902Y-68538074D01*
X56418544Y-68616095D01*
X56249026Y-68729363D01*
X56104863Y-68873526D01*
X55991595Y-69043044D01*
X55913574Y-69231402D01*
X55873800Y-69431361D01*
X47660000Y-69431361D01*
X47660000Y-56000661D01*
X55883400Y-56000661D01*
X55883400Y-56204539D01*
X55923174Y-56404498D01*
X56001195Y-56592856D01*
X56114463Y-56762374D01*
X56258626Y-56906537D01*
X56428144Y-57019805D01*
X56616502Y-57097826D01*
X56816461Y-57137600D01*
X57020339Y-57137600D01*
X57220298Y-57097826D01*
X57408656Y-57019805D01*
X57531685Y-56937600D01*
X57854933Y-56937600D01*
X57545626Y-57246907D01*
X57400502Y-57275774D01*
X57212144Y-57353795D01*
X57042626Y-57467063D01*
X56898463Y-57611226D01*
X56785195Y-57780744D01*
X56707174Y-57969102D01*
X56667400Y-58169061D01*
X56667400Y-58372939D01*
X56707174Y-58572898D01*
X56785195Y-58761256D01*
X56898463Y-58930774D01*
X57042626Y-59074937D01*
X57212144Y-59188205D01*
X57400502Y-59266226D01*
X57600461Y-59306000D01*
X57804339Y-59306000D01*
X58004298Y-59266226D01*
X58192656Y-59188205D01*
X58362174Y-59074937D01*
X58506337Y-58930774D01*
X58619605Y-58761256D01*
X58697626Y-58572898D01*
X58726493Y-58427774D01*
X65694732Y-51459537D01*
X65726591Y-51433391D01*
X65830936Y-51306246D01*
X65908472Y-51161187D01*
X65956218Y-51003789D01*
X65968300Y-50881119D01*
X65968300Y-50881118D01*
X65972340Y-50840100D01*
X65968300Y-50799082D01*
X65968300Y-41108186D01*
X71299714Y-41108186D01*
X71422323Y-41323000D01*
X73273000Y-41323000D01*
X73273000Y-41303000D01*
X73527000Y-41303000D01*
X73527000Y-41323000D01*
X75377677Y-41323000D01*
X75500286Y-41108186D01*
X75485870Y-41035785D01*
X75379469Y-40783909D01*
X75225974Y-40557631D01*
X75031284Y-40365646D01*
X74802880Y-40215332D01*
X74549540Y-40112466D01*
X74281000Y-40061000D01*
X72519000Y-40061000D01*
X72250460Y-40112466D01*
X71997120Y-40215332D01*
X71768716Y-40365646D01*
X71574026Y-40557631D01*
X71420531Y-40783909D01*
X71314130Y-41035785D01*
X71299714Y-41108186D01*
X65968300Y-41108186D01*
X65968300Y-39462867D01*
X70561427Y-34869741D01*
X70593291Y-34843591D01*
X70697636Y-34716446D01*
X70775172Y-34571387D01*
X70800445Y-34488072D01*
X70850000Y-34488072D01*
X70974482Y-34475812D01*
X71094180Y-34439502D01*
X71204494Y-34380537D01*
X71301185Y-34301185D01*
X71380537Y-34204494D01*
X71439502Y-34094180D01*
X71475812Y-33974482D01*
X71488072Y-33850000D01*
X71488072Y-32150000D01*
X71475812Y-32025518D01*
X71439502Y-31905820D01*
X71380537Y-31795506D01*
X71301185Y-31698815D01*
X71204494Y-31619463D01*
X71094180Y-31560498D01*
X71013534Y-31536034D01*
X71097588Y-31460269D01*
X71271641Y-31226920D01*
X71396825Y-30964099D01*
X71441476Y-30816890D01*
X71320155Y-30587000D01*
X70127000Y-30587000D01*
X70127000Y-30607000D01*
X69873000Y-30607000D01*
X69873000Y-30587000D01*
X68679845Y-30587000D01*
X68558524Y-30816890D01*
X68603175Y-30964099D01*
X68728359Y-31226920D01*
X68902412Y-31460269D01*
X68986466Y-31536034D01*
X68905820Y-31560498D01*
X68795506Y-31619463D01*
X68698815Y-31698815D01*
X68619463Y-31795506D01*
X68560498Y-31905820D01*
X68524188Y-32025518D01*
X68511928Y-32150000D01*
X68511928Y-33850000D01*
X68524188Y-33974482D01*
X68560498Y-34094180D01*
X68619463Y-34204494D01*
X68698815Y-34301185D01*
X68736950Y-34332482D01*
X64571879Y-38497554D01*
X64540009Y-38523709D01*
X64435665Y-38650854D01*
X64435664Y-38650855D01*
X64358128Y-38795914D01*
X64310382Y-38953312D01*
X64294260Y-39117000D01*
X64298300Y-39158019D01*
X64298301Y-50494230D01*
X64230957Y-50561574D01*
X64192505Y-50468744D01*
X64119431Y-50359381D01*
X64195226Y-50176398D01*
X64235000Y-49976439D01*
X64235000Y-49772561D01*
X64195226Y-49572602D01*
X64117205Y-49384244D01*
X64003937Y-49214726D01*
X63859774Y-49070563D01*
X63690256Y-48957295D01*
X63501898Y-48879274D01*
X63301939Y-48839500D01*
X63098061Y-48839500D01*
X62898102Y-48879274D01*
X62709744Y-48957295D01*
X62586715Y-49039500D01*
X61294218Y-49039500D01*
X61253199Y-49035460D01*
X61212181Y-49039500D01*
X61089511Y-49051582D01*
X60932113Y-49099328D01*
X60787054Y-49176864D01*
X60659909Y-49281209D01*
X60633759Y-49313073D01*
X57105726Y-52841107D01*
X56960602Y-52869974D01*
X56772244Y-52947995D01*
X56602726Y-53061263D01*
X56458563Y-53205426D01*
X56345295Y-53374944D01*
X56267274Y-53563302D01*
X56227500Y-53763261D01*
X56227500Y-53967139D01*
X56267274Y-54167098D01*
X56345295Y-54355456D01*
X56458563Y-54524974D01*
X56602726Y-54669137D01*
X56772244Y-54782405D01*
X56960602Y-54860426D01*
X57160561Y-54900200D01*
X57364439Y-54900200D01*
X57564398Y-54860426D01*
X57752756Y-54782405D01*
X57922274Y-54669137D01*
X58066437Y-54524974D01*
X58179705Y-54355456D01*
X58257726Y-54167098D01*
X58286593Y-54021974D01*
X61599068Y-50709500D01*
X62269651Y-50709500D01*
X62251208Y-50802223D01*
X57785833Y-55267600D01*
X57531685Y-55267600D01*
X57408656Y-55185395D01*
X57220298Y-55107374D01*
X57020339Y-55067600D01*
X56816461Y-55067600D01*
X56616502Y-55107374D01*
X56428144Y-55185395D01*
X56258626Y-55298663D01*
X56114463Y-55442826D01*
X56001195Y-55612344D01*
X55923174Y-55800702D01*
X55883400Y-56000661D01*
X47660000Y-56000661D01*
X47660000Y-42779872D01*
X57765000Y-42779872D01*
X57765000Y-43220128D01*
X57850890Y-43651925D01*
X58019369Y-44058669D01*
X58263962Y-44424729D01*
X58575271Y-44736038D01*
X58941331Y-44980631D01*
X59348075Y-45149110D01*
X59779872Y-45235000D01*
X60220128Y-45235000D01*
X60651925Y-45149110D01*
X61058669Y-44980631D01*
X61424729Y-44736038D01*
X61736038Y-44424729D01*
X61980631Y-44058669D01*
X62149110Y-43651925D01*
X62235000Y-43220128D01*
X62235000Y-42779872D01*
X62149110Y-42348075D01*
X61980631Y-41941331D01*
X61736038Y-41575271D01*
X61424729Y-41263962D01*
X61058669Y-41019369D01*
X60651925Y-40850890D01*
X60220128Y-40765000D01*
X59779872Y-40765000D01*
X59348075Y-40850890D01*
X58941331Y-41019369D01*
X58575271Y-41263962D01*
X58263962Y-41575271D01*
X58019369Y-41941331D01*
X57850890Y-42348075D01*
X57765000Y-42779872D01*
X47660000Y-42779872D01*
X47660000Y-30103110D01*
X68558524Y-30103110D01*
X68679845Y-30333000D01*
X69873000Y-30333000D01*
X69873000Y-29139186D01*
X70127000Y-29139186D01*
X70127000Y-30333000D01*
X71320155Y-30333000D01*
X71441476Y-30103110D01*
X71396825Y-29955901D01*
X71271641Y-29693080D01*
X71097588Y-29459731D01*
X70881355Y-29264822D01*
X70631252Y-29115843D01*
X70356891Y-29018519D01*
X70127000Y-29139186D01*
X69873000Y-29139186D01*
X69643109Y-29018519D01*
X69368748Y-29115843D01*
X69118645Y-29264822D01*
X68902412Y-29459731D01*
X68728359Y-29693080D01*
X68603175Y-29955901D01*
X68558524Y-30103110D01*
X47660000Y-30103110D01*
X47660000Y-29032279D01*
X47669580Y-28934576D01*
X47688580Y-28871644D01*
X47719445Y-28813595D01*
X47760989Y-28762657D01*
X47811644Y-28720752D01*
X47869471Y-28689485D01*
X47932272Y-28670044D01*
X48027835Y-28660000D01*
X75967721Y-28660000D01*
X76065424Y-28669580D01*
X76065424Y-28669580D01*
G37*
X76065424Y-28669580D02*
X76128356Y-28688580D01*
X76186405Y-28719445D01*
X76237343Y-28760989D01*
X76279248Y-28811644D01*
X76310515Y-28869471D01*
X76329956Y-28932272D01*
X76340001Y-29027845D01*
X76340001Y-41864500D01*
X75485750Y-41864500D01*
X75485870Y-41864215D01*
X75500286Y-41791814D01*
X75377677Y-41577000D01*
X73527000Y-41577000D01*
X73527000Y-41597000D01*
X73273000Y-41597000D01*
X73273000Y-41577000D01*
X71422323Y-41577000D01*
X71299714Y-41791814D01*
X71314130Y-41864215D01*
X71314250Y-41864500D01*
X68531211Y-41864500D01*
X68500000Y-41861426D01*
X68468789Y-41864500D01*
X68375420Y-41873696D01*
X68255628Y-41910035D01*
X68145227Y-41969045D01*
X68048460Y-42048460D01*
X67969045Y-42145227D01*
X67910035Y-42255628D01*
X67873696Y-42375420D01*
X67861426Y-42500000D01*
X67864501Y-42531221D01*
X67864500Y-56468789D01*
X67861426Y-56500000D01*
X67873696Y-56624580D01*
X67910035Y-56744372D01*
X67969045Y-56854773D01*
X68011527Y-56906537D01*
X68048460Y-56951540D01*
X68145227Y-57030955D01*
X68255628Y-57089965D01*
X68375420Y-57126304D01*
X68500000Y-57138574D01*
X68531211Y-57135500D01*
X71314250Y-57135500D01*
X71314130Y-57135785D01*
X71299714Y-57208186D01*
X71422323Y-57423000D01*
X73273000Y-57423000D01*
X73273000Y-57403000D01*
X73527000Y-57403000D01*
X73527000Y-57423000D01*
X75377677Y-57423000D01*
X75500286Y-57208186D01*
X75485870Y-57135785D01*
X75485750Y-57135500D01*
X76340000Y-57135500D01*
X76340000Y-60364500D01*
X75479763Y-60364500D01*
X75522902Y-60222291D01*
X75549720Y-59950000D01*
X75522902Y-59677709D01*
X75443477Y-59415881D01*
X75314499Y-59174580D01*
X75140923Y-58963077D01*
X74929420Y-58789501D01*
X74855541Y-58750012D01*
X75031284Y-58634354D01*
X75225974Y-58442369D01*
X75379469Y-58216091D01*
X75485870Y-57964215D01*
X75500286Y-57891814D01*
X75377677Y-57677000D01*
X73527000Y-57677000D01*
X73527000Y-57697000D01*
X73273000Y-57697000D01*
X73273000Y-57677000D01*
X71422323Y-57677000D01*
X71299714Y-57891814D01*
X71314130Y-57964215D01*
X71420531Y-58216091D01*
X71574026Y-58442369D01*
X71768716Y-58634354D01*
X71944459Y-58750012D01*
X71870580Y-58789501D01*
X71659077Y-58963077D01*
X71534397Y-59115000D01*
X68953218Y-59115000D01*
X68912200Y-59110960D01*
X68871182Y-59115000D01*
X68871181Y-59115000D01*
X68748511Y-59127082D01*
X68591113Y-59174828D01*
X68446054Y-59252364D01*
X68318909Y-59356709D01*
X68292763Y-59388568D01*
X67535874Y-60145459D01*
X67504010Y-60171609D01*
X67423207Y-60270068D01*
X67399664Y-60298755D01*
X67322128Y-60443814D01*
X67274382Y-60601212D01*
X67258260Y-60764900D01*
X67262301Y-60805929D01*
X67262300Y-75156381D01*
X67258260Y-75197400D01*
X67262300Y-75238418D01*
X67274382Y-75361088D01*
X67322128Y-75518486D01*
X67399664Y-75663545D01*
X67504009Y-75790691D01*
X67535879Y-75816846D01*
X68330458Y-76611426D01*
X68356609Y-76643291D01*
X68483754Y-76747636D01*
X68628813Y-76825172D01*
X68786211Y-76872918D01*
X68908881Y-76885000D01*
X68908891Y-76885000D01*
X68949899Y-76889039D01*
X68990907Y-76885000D01*
X71534397Y-76885000D01*
X71659077Y-77036923D01*
X71870580Y-77210499D01*
X72111881Y-77339477D01*
X72113605Y-77340000D01*
X48032279Y-77340000D01*
X47934576Y-77330420D01*
X47871643Y-77311420D01*
X47813594Y-77280554D01*
X47762657Y-77239011D01*
X47720752Y-77188356D01*
X47689485Y-77130529D01*
X47670044Y-77067728D01*
X47660000Y-76972165D01*
X47660000Y-73779872D01*
X57765000Y-73779872D01*
X57765000Y-74220128D01*
X57850890Y-74651925D01*
X58019369Y-75058669D01*
X58263962Y-75424729D01*
X58575271Y-75736038D01*
X58941331Y-75980631D01*
X59348075Y-76149110D01*
X59779872Y-76235000D01*
X60220128Y-76235000D01*
X60651925Y-76149110D01*
X61058669Y-75980631D01*
X61424729Y-75736038D01*
X61736038Y-75424729D01*
X61980631Y-75058669D01*
X62149110Y-74651925D01*
X62235000Y-74220128D01*
X62235000Y-73779872D01*
X62149110Y-73348075D01*
X61980631Y-72941331D01*
X61736038Y-72575271D01*
X61424729Y-72263962D01*
X61058669Y-72019369D01*
X60651925Y-71850890D01*
X60220128Y-71765000D01*
X59779872Y-71765000D01*
X59348075Y-71850890D01*
X58941331Y-72019369D01*
X58575271Y-72263962D01*
X58263962Y-72575271D01*
X58019369Y-72941331D01*
X57850890Y-73348075D01*
X57765000Y-73779872D01*
X47660000Y-73779872D01*
X47660000Y-69431361D01*
X55873800Y-69431361D01*
X55873800Y-69635239D01*
X55913574Y-69835198D01*
X55991595Y-70023556D01*
X56104863Y-70193074D01*
X56249026Y-70337237D01*
X56418544Y-70450505D01*
X56606902Y-70528526D01*
X56806861Y-70568300D01*
X57010739Y-70568300D01*
X57210698Y-70528526D01*
X57399056Y-70450505D01*
X57522085Y-70368300D01*
X60927333Y-70368300D01*
X62730708Y-72171675D01*
X62759574Y-72316798D01*
X62837595Y-72505156D01*
X62950863Y-72674674D01*
X63095026Y-72818837D01*
X63264544Y-72932105D01*
X63452902Y-73010126D01*
X63652861Y-73049900D01*
X63856739Y-73049900D01*
X64056698Y-73010126D01*
X64245056Y-72932105D01*
X64414574Y-72818837D01*
X64558737Y-72674674D01*
X64672005Y-72505156D01*
X64750026Y-72316798D01*
X64789800Y-72116839D01*
X64789800Y-71912961D01*
X64750026Y-71713002D01*
X64672005Y-71524644D01*
X64558737Y-71355126D01*
X64414574Y-71210963D01*
X64245056Y-71097695D01*
X64056698Y-71019674D01*
X63911575Y-70990808D01*
X61892646Y-68971879D01*
X61866491Y-68940009D01*
X61739346Y-68835664D01*
X61594287Y-68758128D01*
X61436889Y-68710382D01*
X61314219Y-68698300D01*
X61314218Y-68698300D01*
X61273200Y-68694260D01*
X61232182Y-68698300D01*
X57522085Y-68698300D01*
X57399056Y-68616095D01*
X57210698Y-68538074D01*
X57010739Y-68498300D01*
X56806861Y-68498300D01*
X56606902Y-68538074D01*
X56418544Y-68616095D01*
X56249026Y-68729363D01*
X56104863Y-68873526D01*
X55991595Y-69043044D01*
X55913574Y-69231402D01*
X55873800Y-69431361D01*
X47660000Y-69431361D01*
X47660000Y-56000661D01*
X55883400Y-56000661D01*
X55883400Y-56204539D01*
X55923174Y-56404498D01*
X56001195Y-56592856D01*
X56114463Y-56762374D01*
X56258626Y-56906537D01*
X56428144Y-57019805D01*
X56616502Y-57097826D01*
X56816461Y-57137600D01*
X57020339Y-57137600D01*
X57220298Y-57097826D01*
X57408656Y-57019805D01*
X57531685Y-56937600D01*
X57854933Y-56937600D01*
X57545626Y-57246907D01*
X57400502Y-57275774D01*
X57212144Y-57353795D01*
X57042626Y-57467063D01*
X56898463Y-57611226D01*
X56785195Y-57780744D01*
X56707174Y-57969102D01*
X56667400Y-58169061D01*
X56667400Y-58372939D01*
X56707174Y-58572898D01*
X56785195Y-58761256D01*
X56898463Y-58930774D01*
X57042626Y-59074937D01*
X57212144Y-59188205D01*
X57400502Y-59266226D01*
X57600461Y-59306000D01*
X57804339Y-59306000D01*
X58004298Y-59266226D01*
X58192656Y-59188205D01*
X58362174Y-59074937D01*
X58506337Y-58930774D01*
X58619605Y-58761256D01*
X58697626Y-58572898D01*
X58726493Y-58427774D01*
X65694732Y-51459537D01*
X65726591Y-51433391D01*
X65830936Y-51306246D01*
X65908472Y-51161187D01*
X65956218Y-51003789D01*
X65968300Y-50881119D01*
X65968300Y-50881118D01*
X65972340Y-50840100D01*
X65968300Y-50799082D01*
X65968300Y-41108186D01*
X71299714Y-41108186D01*
X71422323Y-41323000D01*
X73273000Y-41323000D01*
X73273000Y-41303000D01*
X73527000Y-41303000D01*
X73527000Y-41323000D01*
X75377677Y-41323000D01*
X75500286Y-41108186D01*
X75485870Y-41035785D01*
X75379469Y-40783909D01*
X75225974Y-40557631D01*
X75031284Y-40365646D01*
X74802880Y-40215332D01*
X74549540Y-40112466D01*
X74281000Y-40061000D01*
X72519000Y-40061000D01*
X72250460Y-40112466D01*
X71997120Y-40215332D01*
X71768716Y-40365646D01*
X71574026Y-40557631D01*
X71420531Y-40783909D01*
X71314130Y-41035785D01*
X71299714Y-41108186D01*
X65968300Y-41108186D01*
X65968300Y-39462867D01*
X70561427Y-34869741D01*
X70593291Y-34843591D01*
X70697636Y-34716446D01*
X70775172Y-34571387D01*
X70800445Y-34488072D01*
X70850000Y-34488072D01*
X70974482Y-34475812D01*
X71094180Y-34439502D01*
X71204494Y-34380537D01*
X71301185Y-34301185D01*
X71380537Y-34204494D01*
X71439502Y-34094180D01*
X71475812Y-33974482D01*
X71488072Y-33850000D01*
X71488072Y-32150000D01*
X71475812Y-32025518D01*
X71439502Y-31905820D01*
X71380537Y-31795506D01*
X71301185Y-31698815D01*
X71204494Y-31619463D01*
X71094180Y-31560498D01*
X71013534Y-31536034D01*
X71097588Y-31460269D01*
X71271641Y-31226920D01*
X71396825Y-30964099D01*
X71441476Y-30816890D01*
X71320155Y-30587000D01*
X70127000Y-30587000D01*
X70127000Y-30607000D01*
X69873000Y-30607000D01*
X69873000Y-30587000D01*
X68679845Y-30587000D01*
X68558524Y-30816890D01*
X68603175Y-30964099D01*
X68728359Y-31226920D01*
X68902412Y-31460269D01*
X68986466Y-31536034D01*
X68905820Y-31560498D01*
X68795506Y-31619463D01*
X68698815Y-31698815D01*
X68619463Y-31795506D01*
X68560498Y-31905820D01*
X68524188Y-32025518D01*
X68511928Y-32150000D01*
X68511928Y-33850000D01*
X68524188Y-33974482D01*
X68560498Y-34094180D01*
X68619463Y-34204494D01*
X68698815Y-34301185D01*
X68736950Y-34332482D01*
X64571879Y-38497554D01*
X64540009Y-38523709D01*
X64435665Y-38650854D01*
X64435664Y-38650855D01*
X64358128Y-38795914D01*
X64310382Y-38953312D01*
X64294260Y-39117000D01*
X64298300Y-39158019D01*
X64298301Y-50494230D01*
X64230957Y-50561574D01*
X64192505Y-50468744D01*
X64119431Y-50359381D01*
X64195226Y-50176398D01*
X64235000Y-49976439D01*
X64235000Y-49772561D01*
X64195226Y-49572602D01*
X64117205Y-49384244D01*
X64003937Y-49214726D01*
X63859774Y-49070563D01*
X63690256Y-48957295D01*
X63501898Y-48879274D01*
X63301939Y-48839500D01*
X63098061Y-48839500D01*
X62898102Y-48879274D01*
X62709744Y-48957295D01*
X62586715Y-49039500D01*
X61294218Y-49039500D01*
X61253199Y-49035460D01*
X61212181Y-49039500D01*
X61089511Y-49051582D01*
X60932113Y-49099328D01*
X60787054Y-49176864D01*
X60659909Y-49281209D01*
X60633759Y-49313073D01*
X57105726Y-52841107D01*
X56960602Y-52869974D01*
X56772244Y-52947995D01*
X56602726Y-53061263D01*
X56458563Y-53205426D01*
X56345295Y-53374944D01*
X56267274Y-53563302D01*
X56227500Y-53763261D01*
X56227500Y-53967139D01*
X56267274Y-54167098D01*
X56345295Y-54355456D01*
X56458563Y-54524974D01*
X56602726Y-54669137D01*
X56772244Y-54782405D01*
X56960602Y-54860426D01*
X57160561Y-54900200D01*
X57364439Y-54900200D01*
X57564398Y-54860426D01*
X57752756Y-54782405D01*
X57922274Y-54669137D01*
X58066437Y-54524974D01*
X58179705Y-54355456D01*
X58257726Y-54167098D01*
X58286593Y-54021974D01*
X61599068Y-50709500D01*
X62269651Y-50709500D01*
X62251208Y-50802223D01*
X57785833Y-55267600D01*
X57531685Y-55267600D01*
X57408656Y-55185395D01*
X57220298Y-55107374D01*
X57020339Y-55067600D01*
X56816461Y-55067600D01*
X56616502Y-55107374D01*
X56428144Y-55185395D01*
X56258626Y-55298663D01*
X56114463Y-55442826D01*
X56001195Y-55612344D01*
X55923174Y-55800702D01*
X55883400Y-56000661D01*
X47660000Y-56000661D01*
X47660000Y-42779872D01*
X57765000Y-42779872D01*
X57765000Y-43220128D01*
X57850890Y-43651925D01*
X58019369Y-44058669D01*
X58263962Y-44424729D01*
X58575271Y-44736038D01*
X58941331Y-44980631D01*
X59348075Y-45149110D01*
X59779872Y-45235000D01*
X60220128Y-45235000D01*
X60651925Y-45149110D01*
X61058669Y-44980631D01*
X61424729Y-44736038D01*
X61736038Y-44424729D01*
X61980631Y-44058669D01*
X62149110Y-43651925D01*
X62235000Y-43220128D01*
X62235000Y-42779872D01*
X62149110Y-42348075D01*
X61980631Y-41941331D01*
X61736038Y-41575271D01*
X61424729Y-41263962D01*
X61058669Y-41019369D01*
X60651925Y-40850890D01*
X60220128Y-40765000D01*
X59779872Y-40765000D01*
X59348075Y-40850890D01*
X58941331Y-41019369D01*
X58575271Y-41263962D01*
X58263962Y-41575271D01*
X58019369Y-41941331D01*
X57850890Y-42348075D01*
X57765000Y-42779872D01*
X47660000Y-42779872D01*
X47660000Y-30103110D01*
X68558524Y-30103110D01*
X68679845Y-30333000D01*
X69873000Y-30333000D01*
X69873000Y-29139186D01*
X70127000Y-29139186D01*
X70127000Y-30333000D01*
X71320155Y-30333000D01*
X71441476Y-30103110D01*
X71396825Y-29955901D01*
X71271641Y-29693080D01*
X71097588Y-29459731D01*
X70881355Y-29264822D01*
X70631252Y-29115843D01*
X70356891Y-29018519D01*
X70127000Y-29139186D01*
X69873000Y-29139186D01*
X69643109Y-29018519D01*
X69368748Y-29115843D01*
X69118645Y-29264822D01*
X68902412Y-29459731D01*
X68728359Y-29693080D01*
X68603175Y-29955901D01*
X68558524Y-30103110D01*
X47660000Y-30103110D01*
X47660000Y-29032279D01*
X47669580Y-28934576D01*
X47688580Y-28871644D01*
X47719445Y-28813595D01*
X47760989Y-28762657D01*
X47811644Y-28720752D01*
X47869471Y-28689485D01*
X47932272Y-28670044D01*
X48027835Y-28660000D01*
X75967721Y-28660000D01*
X76065424Y-28669580D01*
M02*
