G04 #@! TF.GenerationSoftware,KiCad,Pcbnew,(5.1.0)-1*
G04 #@! TF.CreationDate,2020-04-04T17:21:39+01:00*
G04 #@! TF.ProjectId,Camera Adapter,43616d65-7261-4204-9164-61707465722e,rev?*
G04 #@! TF.SameCoordinates,Original*
G04 #@! TF.FileFunction,Soldermask,Bot*
G04 #@! TF.FilePolarity,Negative*
%FSLAX46Y46*%
G04 Gerber Fmt 4.6, Leading zero omitted, Abs format (unit mm)*
G04 Created by KiCad (PCBNEW (5.1.0)-1) date 2020-04-04 17:21:39*
%MOMM*%
%LPD*%
G04 APERTURE LIST*
%ADD10C,0.100000*%
G04 APERTURE END LIST*
D10*
G36*
X74311808Y-75256648D02*
G01*
X74463551Y-75302678D01*
X74603398Y-75377428D01*
X74725975Y-75478025D01*
X74826572Y-75600602D01*
X74901322Y-75740449D01*
X74947352Y-75892192D01*
X74962895Y-76050000D01*
X74947352Y-76207808D01*
X74901322Y-76359551D01*
X74826572Y-76499398D01*
X74725975Y-76621975D01*
X74603398Y-76722572D01*
X74463551Y-76797322D01*
X74311808Y-76843352D01*
X74193546Y-76855000D01*
X72606454Y-76855000D01*
X72488192Y-76843352D01*
X72336449Y-76797322D01*
X72196602Y-76722572D01*
X72074025Y-76621975D01*
X71973428Y-76499398D01*
X71898678Y-76359551D01*
X71852648Y-76207808D01*
X71837105Y-76050000D01*
X71852648Y-75892192D01*
X71898678Y-75740449D01*
X71973428Y-75600602D01*
X72074025Y-75478025D01*
X72196602Y-75377428D01*
X72336449Y-75302678D01*
X72488192Y-75256648D01*
X72606454Y-75245000D01*
X74193546Y-75245000D01*
X74311808Y-75256648D01*
X74311808Y-75256648D01*
G37*
G36*
X60375256Y-72391298D02*
G01*
X60481579Y-72412447D01*
X60782042Y-72536903D01*
X61052451Y-72717585D01*
X61282415Y-72947549D01*
X61463097Y-73217958D01*
X61587553Y-73518421D01*
X61651000Y-73837391D01*
X61651000Y-74162609D01*
X61587553Y-74481579D01*
X61463097Y-74782042D01*
X61282415Y-75052451D01*
X61052451Y-75282415D01*
X60782042Y-75463097D01*
X60481579Y-75587553D01*
X60415977Y-75600602D01*
X60162611Y-75651000D01*
X59837389Y-75651000D01*
X59584023Y-75600602D01*
X59518421Y-75587553D01*
X59217958Y-75463097D01*
X58947549Y-75282415D01*
X58717585Y-75052451D01*
X58536903Y-74782042D01*
X58412447Y-74481579D01*
X58349000Y-74162609D01*
X58349000Y-73837391D01*
X58412447Y-73518421D01*
X58536903Y-73217958D01*
X58717585Y-72947549D01*
X58947549Y-72717585D01*
X59217958Y-72536903D01*
X59518421Y-72412447D01*
X59624744Y-72391298D01*
X59837389Y-72349000D01*
X60162611Y-72349000D01*
X60375256Y-72391298D01*
X60375256Y-72391298D01*
G37*
G36*
X74311808Y-59156648D02*
G01*
X74463551Y-59202678D01*
X74603398Y-59277428D01*
X74725975Y-59378025D01*
X74826572Y-59500602D01*
X74901322Y-59640449D01*
X74947352Y-59792192D01*
X74962895Y-59950000D01*
X74947352Y-60107808D01*
X74901322Y-60259551D01*
X74826572Y-60399398D01*
X74725975Y-60521975D01*
X74603398Y-60622572D01*
X74463551Y-60697322D01*
X74311808Y-60743352D01*
X74193546Y-60755000D01*
X72606454Y-60755000D01*
X72488192Y-60743352D01*
X72336449Y-60697322D01*
X72196602Y-60622572D01*
X72074025Y-60521975D01*
X71973428Y-60399398D01*
X71898678Y-60259551D01*
X71852648Y-60107808D01*
X71837105Y-59950000D01*
X71852648Y-59792192D01*
X71898678Y-59640449D01*
X71973428Y-59500602D01*
X72074025Y-59378025D01*
X72196602Y-59277428D01*
X72336449Y-59202678D01*
X72488192Y-59156648D01*
X72606454Y-59145000D01*
X74193546Y-59145000D01*
X74311808Y-59156648D01*
X74311808Y-59156648D01*
G37*
G36*
X74311808Y-56756648D02*
G01*
X74463551Y-56802678D01*
X74603398Y-56877428D01*
X74725975Y-56978025D01*
X74826572Y-57100602D01*
X74901322Y-57240449D01*
X74947352Y-57392192D01*
X74962895Y-57550000D01*
X74947352Y-57707808D01*
X74901322Y-57859551D01*
X74826572Y-57999398D01*
X74725975Y-58121975D01*
X74603398Y-58222572D01*
X74463551Y-58297322D01*
X74311808Y-58343352D01*
X74193546Y-58355000D01*
X72606454Y-58355000D01*
X72488192Y-58343352D01*
X72336449Y-58297322D01*
X72196602Y-58222572D01*
X72074025Y-58121975D01*
X71973428Y-57999398D01*
X71898678Y-57859551D01*
X71852648Y-57707808D01*
X71837105Y-57550000D01*
X71852648Y-57392192D01*
X71898678Y-57240449D01*
X71973428Y-57100602D01*
X72074025Y-56978025D01*
X72196602Y-56877428D01*
X72336449Y-56802678D01*
X72488192Y-56756648D01*
X72606454Y-56745000D01*
X74193546Y-56745000D01*
X74311808Y-56756648D01*
X74311808Y-56756648D01*
G37*
G36*
X74311808Y-40656648D02*
G01*
X74463551Y-40702678D01*
X74603398Y-40777428D01*
X74725975Y-40878025D01*
X74826572Y-41000602D01*
X74901322Y-41140449D01*
X74947352Y-41292192D01*
X74962895Y-41450000D01*
X74947352Y-41607808D01*
X74901322Y-41759551D01*
X74826572Y-41899398D01*
X74725975Y-42021975D01*
X74603398Y-42122572D01*
X74463551Y-42197322D01*
X74311808Y-42243352D01*
X74193546Y-42255000D01*
X72606454Y-42255000D01*
X72488192Y-42243352D01*
X72336449Y-42197322D01*
X72196602Y-42122572D01*
X72074025Y-42021975D01*
X71973428Y-41899398D01*
X71898678Y-41759551D01*
X71852648Y-41607808D01*
X71837105Y-41450000D01*
X71852648Y-41292192D01*
X71898678Y-41140449D01*
X71973428Y-41000602D01*
X72074025Y-40878025D01*
X72196602Y-40777428D01*
X72336449Y-40702678D01*
X72488192Y-40656648D01*
X72606454Y-40645000D01*
X74193546Y-40645000D01*
X74311808Y-40656648D01*
X74311808Y-40656648D01*
G37*
G36*
X61335256Y-29506298D02*
G01*
X61441579Y-29527447D01*
X61742042Y-29651903D01*
X62012451Y-29832585D01*
X62242415Y-30062549D01*
X62423097Y-30332958D01*
X62547553Y-30633421D01*
X62611000Y-30952391D01*
X62611000Y-31277609D01*
X62547553Y-31596579D01*
X62423097Y-31897042D01*
X62242415Y-32167451D01*
X62012451Y-32397415D01*
X61742042Y-32578097D01*
X61441579Y-32702553D01*
X61335256Y-32723702D01*
X61122611Y-32766000D01*
X60797389Y-32766000D01*
X60584744Y-32723702D01*
X60478421Y-32702553D01*
X60177958Y-32578097D01*
X59907549Y-32397415D01*
X59677585Y-32167451D01*
X59496903Y-31897042D01*
X59372447Y-31596579D01*
X59309000Y-31277609D01*
X59309000Y-30952391D01*
X59372447Y-30633421D01*
X59496903Y-30332958D01*
X59677585Y-30062549D01*
X59907549Y-29832585D01*
X60177958Y-29651903D01*
X60478421Y-29527447D01*
X60584744Y-29506298D01*
X60797389Y-29464000D01*
X61122611Y-29464000D01*
X61335256Y-29506298D01*
X61335256Y-29506298D01*
G37*
G36*
X52209000Y-30682500D02*
G01*
X50407000Y-30682500D01*
X50407000Y-28880500D01*
X52209000Y-28880500D01*
X52209000Y-30682500D01*
X52209000Y-30682500D01*
G37*
G36*
X48878442Y-28887018D02*
G01*
X48944627Y-28893537D01*
X49114466Y-28945057D01*
X49270991Y-29028722D01*
X49306729Y-29058052D01*
X49408186Y-29141314D01*
X49491448Y-29242771D01*
X49520778Y-29278509D01*
X49604443Y-29435034D01*
X49655963Y-29604873D01*
X49673359Y-29781500D01*
X49655963Y-29958127D01*
X49604443Y-30127966D01*
X49520778Y-30284491D01*
X49491448Y-30320229D01*
X49408186Y-30421686D01*
X49306729Y-30504948D01*
X49270991Y-30534278D01*
X49114466Y-30617943D01*
X48944627Y-30669463D01*
X48878442Y-30675982D01*
X48812260Y-30682500D01*
X48723740Y-30682500D01*
X48657558Y-30675982D01*
X48591373Y-30669463D01*
X48421534Y-30617943D01*
X48265009Y-30534278D01*
X48229271Y-30504948D01*
X48127814Y-30421686D01*
X48044552Y-30320229D01*
X48015222Y-30284491D01*
X47931557Y-30127966D01*
X47880037Y-29958127D01*
X47862641Y-29781500D01*
X47880037Y-29604873D01*
X47931557Y-29435034D01*
X48015222Y-29278509D01*
X48044552Y-29242771D01*
X48127814Y-29141314D01*
X48229271Y-29058052D01*
X48265009Y-29028722D01*
X48421534Y-28945057D01*
X48591373Y-28893537D01*
X48657558Y-28887018D01*
X48723740Y-28880500D01*
X48812260Y-28880500D01*
X48878442Y-28887018D01*
X48878442Y-28887018D01*
G37*
M02*
