G04 #@! TF.GenerationSoftware,KiCad,Pcbnew,(5.1.0)-1*
G04 #@! TF.CreationDate,2020-04-02T13:59:08+01:00*
G04 #@! TF.ProjectId,Camera Adapter,43616d65-7261-4204-9164-61707465722e,rev?*
G04 #@! TF.SameCoordinates,Original*
G04 #@! TF.FileFunction,Soldermask,Bot*
G04 #@! TF.FilePolarity,Negative*
%FSLAX46Y46*%
G04 Gerber Fmt 4.6, Leading zero omitted, Abs format (unit mm)*
G04 Created by KiCad (PCBNEW (5.1.0)-1) date 2020-04-02 13:59:08*
%MOMM*%
%LPD*%
G04 APERTURE LIST*
%ADD10C,0.100000*%
G04 APERTURE END LIST*
D10*
G36*
X74311808Y-75256648D02*
G01*
X74463551Y-75302678D01*
X74603398Y-75377428D01*
X74725975Y-75478025D01*
X74826572Y-75600602D01*
X74901322Y-75740449D01*
X74947352Y-75892192D01*
X74962895Y-76050000D01*
X74947352Y-76207808D01*
X74901322Y-76359551D01*
X74826572Y-76499398D01*
X74725975Y-76621975D01*
X74603398Y-76722572D01*
X74463551Y-76797322D01*
X74311808Y-76843352D01*
X74193546Y-76855000D01*
X72606454Y-76855000D01*
X72488192Y-76843352D01*
X72336449Y-76797322D01*
X72196602Y-76722572D01*
X72074025Y-76621975D01*
X71973428Y-76499398D01*
X71898678Y-76359551D01*
X71852648Y-76207808D01*
X71837105Y-76050000D01*
X71852648Y-75892192D01*
X71898678Y-75740449D01*
X71973428Y-75600602D01*
X72074025Y-75478025D01*
X72196602Y-75377428D01*
X72336449Y-75302678D01*
X72488192Y-75256648D01*
X72606454Y-75245000D01*
X74193546Y-75245000D01*
X74311808Y-75256648D01*
X74311808Y-75256648D01*
G37*
G36*
X60375256Y-72391298D02*
G01*
X60481579Y-72412447D01*
X60782042Y-72536903D01*
X61052451Y-72717585D01*
X61282415Y-72947549D01*
X61463097Y-73217958D01*
X61587553Y-73518421D01*
X61651000Y-73837391D01*
X61651000Y-74162609D01*
X61587553Y-74481579D01*
X61463097Y-74782042D01*
X61282415Y-75052451D01*
X61052451Y-75282415D01*
X60782042Y-75463097D01*
X60481579Y-75587553D01*
X60415977Y-75600602D01*
X60162611Y-75651000D01*
X59837389Y-75651000D01*
X59584023Y-75600602D01*
X59518421Y-75587553D01*
X59217958Y-75463097D01*
X58947549Y-75282415D01*
X58717585Y-75052451D01*
X58536903Y-74782042D01*
X58412447Y-74481579D01*
X58349000Y-74162609D01*
X58349000Y-73837391D01*
X58412447Y-73518421D01*
X58536903Y-73217958D01*
X58717585Y-72947549D01*
X58947549Y-72717585D01*
X59217958Y-72536903D01*
X59518421Y-72412447D01*
X59624744Y-72391298D01*
X59837389Y-72349000D01*
X60162611Y-72349000D01*
X60375256Y-72391298D01*
X60375256Y-72391298D01*
G37*
G36*
X74311808Y-59156648D02*
G01*
X74463551Y-59202678D01*
X74603398Y-59277428D01*
X74725975Y-59378025D01*
X74826572Y-59500602D01*
X74901322Y-59640449D01*
X74947352Y-59792192D01*
X74962895Y-59950000D01*
X74947352Y-60107808D01*
X74901322Y-60259551D01*
X74826572Y-60399398D01*
X74725975Y-60521975D01*
X74603398Y-60622572D01*
X74463551Y-60697322D01*
X74311808Y-60743352D01*
X74193546Y-60755000D01*
X72606454Y-60755000D01*
X72488192Y-60743352D01*
X72336449Y-60697322D01*
X72196602Y-60622572D01*
X72074025Y-60521975D01*
X71973428Y-60399398D01*
X71898678Y-60259551D01*
X71852648Y-60107808D01*
X71837105Y-59950000D01*
X71852648Y-59792192D01*
X71898678Y-59640449D01*
X71973428Y-59500602D01*
X72074025Y-59378025D01*
X72196602Y-59277428D01*
X72336449Y-59202678D01*
X72488192Y-59156648D01*
X72606454Y-59145000D01*
X74193546Y-59145000D01*
X74311808Y-59156648D01*
X74311808Y-59156648D01*
G37*
G36*
X74311808Y-56756648D02*
G01*
X74463551Y-56802678D01*
X74603398Y-56877428D01*
X74725975Y-56978025D01*
X74826572Y-57100602D01*
X74901322Y-57240449D01*
X74947352Y-57392192D01*
X74962895Y-57550000D01*
X74947352Y-57707808D01*
X74901322Y-57859551D01*
X74826572Y-57999398D01*
X74725975Y-58121975D01*
X74603398Y-58222572D01*
X74463551Y-58297322D01*
X74311808Y-58343352D01*
X74193546Y-58355000D01*
X72606454Y-58355000D01*
X72488192Y-58343352D01*
X72336449Y-58297322D01*
X72196602Y-58222572D01*
X72074025Y-58121975D01*
X71973428Y-57999398D01*
X71898678Y-57859551D01*
X71852648Y-57707808D01*
X71837105Y-57550000D01*
X71852648Y-57392192D01*
X71898678Y-57240449D01*
X71973428Y-57100602D01*
X72074025Y-56978025D01*
X72196602Y-56877428D01*
X72336449Y-56802678D01*
X72488192Y-56756648D01*
X72606454Y-56745000D01*
X74193546Y-56745000D01*
X74311808Y-56756648D01*
X74311808Y-56756648D01*
G37*
G36*
X60375256Y-41391298D02*
G01*
X60481579Y-41412447D01*
X60782042Y-41536903D01*
X61052451Y-41717585D01*
X61282415Y-41947549D01*
X61463097Y-42217958D01*
X61587553Y-42518421D01*
X61651000Y-42837391D01*
X61651000Y-43162609D01*
X61587553Y-43481579D01*
X61463097Y-43782042D01*
X61282415Y-44052451D01*
X61052451Y-44282415D01*
X60782042Y-44463097D01*
X60481579Y-44587553D01*
X60375256Y-44608702D01*
X60162611Y-44651000D01*
X59837389Y-44651000D01*
X59624744Y-44608702D01*
X59518421Y-44587553D01*
X59217958Y-44463097D01*
X58947549Y-44282415D01*
X58717585Y-44052451D01*
X58536903Y-43782042D01*
X58412447Y-43481579D01*
X58349000Y-43162609D01*
X58349000Y-42837391D01*
X58412447Y-42518421D01*
X58536903Y-42217958D01*
X58717585Y-41947549D01*
X58947549Y-41717585D01*
X59217958Y-41536903D01*
X59518421Y-41412447D01*
X59624744Y-41391298D01*
X59837389Y-41349000D01*
X60162611Y-41349000D01*
X60375256Y-41391298D01*
X60375256Y-41391298D01*
G37*
G36*
X74311808Y-40656648D02*
G01*
X74463551Y-40702678D01*
X74603398Y-40777428D01*
X74725975Y-40878025D01*
X74826572Y-41000602D01*
X74901322Y-41140449D01*
X74947352Y-41292192D01*
X74962895Y-41450000D01*
X74947352Y-41607808D01*
X74901322Y-41759551D01*
X74826572Y-41899398D01*
X74725975Y-42021975D01*
X74603398Y-42122572D01*
X74463551Y-42197322D01*
X74311808Y-42243352D01*
X74193546Y-42255000D01*
X72606454Y-42255000D01*
X72488192Y-42243352D01*
X72336449Y-42197322D01*
X72196602Y-42122572D01*
X72074025Y-42021975D01*
X71973428Y-41899398D01*
X71898678Y-41759551D01*
X71852648Y-41607808D01*
X71837105Y-41450000D01*
X71852648Y-41292192D01*
X71898678Y-41140449D01*
X71973428Y-41000602D01*
X72074025Y-40878025D01*
X72196602Y-40777428D01*
X72336449Y-40702678D01*
X72488192Y-40656648D01*
X72606454Y-40645000D01*
X74193546Y-40645000D01*
X74311808Y-40656648D01*
X74311808Y-40656648D01*
G37*
G36*
X70901000Y-33901000D02*
G01*
X69099000Y-33901000D01*
X69099000Y-32099000D01*
X70901000Y-32099000D01*
X70901000Y-33901000D01*
X70901000Y-33901000D01*
G37*
G36*
X70110443Y-29565519D02*
G01*
X70176627Y-29572037D01*
X70346466Y-29623557D01*
X70502991Y-29707222D01*
X70538729Y-29736552D01*
X70640186Y-29819814D01*
X70723448Y-29921271D01*
X70752778Y-29957009D01*
X70836443Y-30113534D01*
X70887963Y-30283373D01*
X70905359Y-30460000D01*
X70887963Y-30636627D01*
X70836443Y-30806466D01*
X70752778Y-30962991D01*
X70723448Y-30998729D01*
X70640186Y-31100186D01*
X70538729Y-31183448D01*
X70502991Y-31212778D01*
X70346466Y-31296443D01*
X70176627Y-31347963D01*
X70110443Y-31354481D01*
X70044260Y-31361000D01*
X69955740Y-31361000D01*
X69889557Y-31354481D01*
X69823373Y-31347963D01*
X69653534Y-31296443D01*
X69497009Y-31212778D01*
X69461271Y-31183448D01*
X69359814Y-31100186D01*
X69276552Y-30998729D01*
X69247222Y-30962991D01*
X69163557Y-30806466D01*
X69112037Y-30636627D01*
X69094641Y-30460000D01*
X69112037Y-30283373D01*
X69163557Y-30113534D01*
X69247222Y-29957009D01*
X69276552Y-29921271D01*
X69359814Y-29819814D01*
X69461271Y-29736552D01*
X69497009Y-29707222D01*
X69653534Y-29623557D01*
X69823373Y-29572037D01*
X69889557Y-29565519D01*
X69955740Y-29559000D01*
X70044260Y-29559000D01*
X70110443Y-29565519D01*
X70110443Y-29565519D01*
G37*
M02*
