M48
; DRILL file {KiCad (5.1.0)-1} date 05/04/2020 15:17:09
; FORMAT={3:3/ absolute / metric / suppress leading zeros}
; #@! TF.CreationDate,2020-04-05T15:17:09+01:00
; #@! TF.GenerationSoftware,Kicad,Pcbnew,(5.1.0)-1
FMAT,2
METRIC,TZ
T1C0.800
T2C1.000
T3C3.200
%
G90
G05
T1
X54343Y-76784
X56018Y-41363
X56024Y-63548
X56678Y-47564
X58928Y-46745
X62241Y-51228
X63300Y-70552
X63372Y-53210
X66805Y-39776
X69596Y-76518
T2
X48768Y-29782
X51308Y-29782
T3
X60000Y-74000
X60452Y-31178
T2
G00X72700Y-59950
M15
G01X74100Y-59950
M16
G05
G00X72700Y-76050
M15
G01X74100Y-76050
M16
G05
G00X72700Y-41450
M15
G01X74100Y-41450
M16
G05
G00X72700Y-57550
M15
G01X74100Y-57550
M16
G05
T0
M30
