G04 #@! TF.GenerationSoftware,KiCad,Pcbnew,(5.1.0)-1*
G04 #@! TF.CreationDate,2020-04-05T15:17:06+01:00*
G04 #@! TF.ProjectId,Camera Adapter,43616d65-7261-4204-9164-61707465722e,rev?*
G04 #@! TF.SameCoordinates,Original*
G04 #@! TF.FileFunction,Legend,Top*
G04 #@! TF.FilePolarity,Positive*
%FSLAX46Y46*%
G04 Gerber Fmt 4.6, Leading zero omitted, Abs format (unit mm)*
G04 Created by KiCad (PCBNEW (5.1.0)-1) date 2020-04-05 15:17:06*
%MOMM*%
%LPD*%
G04 APERTURE LIST*
%ADD10C,0.150000*%
%ADD11C,0.200000*%
%ADD12C,0.120000*%
%ADD13C,0.127000*%
%ADD14C,0.050000*%
G04 APERTURE END LIST*
D10*
X49863595Y-31948428D02*
X50625500Y-31948428D01*
X50244547Y-32329380D02*
X50244547Y-31567476D01*
X51006452Y-31329380D02*
X51625500Y-31329380D01*
X51292166Y-31710333D01*
X51435023Y-31710333D01*
X51530261Y-31757952D01*
X51577880Y-31805571D01*
X51625500Y-31900809D01*
X51625500Y-32138904D01*
X51577880Y-32234142D01*
X51530261Y-32281761D01*
X51435023Y-32329380D01*
X51149309Y-32329380D01*
X51054071Y-32281761D01*
X51006452Y-32234142D01*
X51911214Y-31329380D02*
X52244547Y-32329380D01*
X52577880Y-31329380D01*
X52815976Y-31329380D02*
X53435023Y-31329380D01*
X53101690Y-31710333D01*
X53244547Y-31710333D01*
X53339785Y-31757952D01*
X53387404Y-31805571D01*
X53435023Y-31900809D01*
X53435023Y-32138904D01*
X53387404Y-32234142D01*
X53339785Y-32281761D01*
X53244547Y-32329380D01*
X52958833Y-32329380D01*
X52863595Y-32281761D01*
X52815976Y-32234142D01*
X47625095Y-31440500D02*
X47529857Y-31392880D01*
X47387000Y-31392880D01*
X47244142Y-31440500D01*
X47148904Y-31535738D01*
X47101285Y-31630976D01*
X47053666Y-31821452D01*
X47053666Y-31964309D01*
X47101285Y-32154785D01*
X47148904Y-32250023D01*
X47244142Y-32345261D01*
X47387000Y-32392880D01*
X47482238Y-32392880D01*
X47625095Y-32345261D01*
X47672714Y-32297642D01*
X47672714Y-31964309D01*
X47482238Y-31964309D01*
X48101285Y-32392880D02*
X48101285Y-31392880D01*
X48672714Y-32392880D01*
X48672714Y-31392880D01*
X49148904Y-32392880D02*
X49148904Y-31392880D01*
X49387000Y-31392880D01*
X49529857Y-31440500D01*
X49625095Y-31535738D01*
X49672714Y-31630976D01*
X49720333Y-31821452D01*
X49720333Y-31964309D01*
X49672714Y-32154785D01*
X49625095Y-32250023D01*
X49529857Y-32345261D01*
X49387000Y-32392880D01*
X49148904Y-32392880D01*
X75636500Y-37083904D02*
X75588880Y-37179142D01*
X75588880Y-37322000D01*
X75636500Y-37464857D01*
X75731738Y-37560095D01*
X75826976Y-37607714D01*
X76017452Y-37655333D01*
X76160309Y-37655333D01*
X76350785Y-37607714D01*
X76446023Y-37560095D01*
X76541261Y-37464857D01*
X76588880Y-37322000D01*
X76588880Y-37226761D01*
X76541261Y-37083904D01*
X76493642Y-37036285D01*
X76160309Y-37036285D01*
X76160309Y-37226761D01*
X76588880Y-36607714D02*
X75588880Y-36607714D01*
X76588880Y-36036285D01*
X75588880Y-36036285D01*
X76588880Y-35560095D02*
X75588880Y-35560095D01*
X75588880Y-35322000D01*
X75636500Y-35179142D01*
X75731738Y-35083904D01*
X75826976Y-35036285D01*
X76017452Y-34988666D01*
X76160309Y-34988666D01*
X76350785Y-35036285D01*
X76446023Y-35083904D01*
X76541261Y-35179142D01*
X76588880Y-35322000D01*
X76588880Y-35560095D01*
X76588880Y-31416547D02*
X76588880Y-31987976D01*
X76588880Y-31702261D02*
X75588880Y-31702261D01*
X75731738Y-31797500D01*
X75826976Y-31892738D01*
X75874595Y-31987976D01*
X75684119Y-31035595D02*
X75636500Y-30987976D01*
X75588880Y-30892738D01*
X75588880Y-30654642D01*
X75636500Y-30559404D01*
X75684119Y-30511785D01*
X75779357Y-30464166D01*
X75874595Y-30464166D01*
X76017452Y-30511785D01*
X76588880Y-31083214D01*
X76588880Y-30464166D01*
X75588880Y-30178452D02*
X76588880Y-29845119D01*
X75588880Y-29511785D01*
X66666666Y-39952380D02*
X66666666Y-38952380D01*
X67047619Y-38952380D01*
X67142857Y-39000000D01*
X67190476Y-39047619D01*
X67238095Y-39142857D01*
X67238095Y-39285714D01*
X67190476Y-39380952D01*
X67142857Y-39428571D01*
X67047619Y-39476190D01*
X66666666Y-39476190D01*
X67809523Y-39952380D02*
X67714285Y-39904761D01*
X67666666Y-39857142D01*
X67619047Y-39761904D01*
X67619047Y-39476190D01*
X67666666Y-39380952D01*
X67714285Y-39333333D01*
X67809523Y-39285714D01*
X67952380Y-39285714D01*
X68047619Y-39333333D01*
X68095238Y-39380952D01*
X68142857Y-39476190D01*
X68142857Y-39761904D01*
X68095238Y-39857142D01*
X68047619Y-39904761D01*
X67952380Y-39952380D01*
X67809523Y-39952380D01*
X68476190Y-39285714D02*
X68666666Y-39952380D01*
X68857142Y-39476190D01*
X69047619Y-39952380D01*
X69238095Y-39285714D01*
X70000000Y-39904761D02*
X69904761Y-39952380D01*
X69714285Y-39952380D01*
X69619047Y-39904761D01*
X69571428Y-39809523D01*
X69571428Y-39428571D01*
X69619047Y-39333333D01*
X69714285Y-39285714D01*
X69904761Y-39285714D01*
X70000000Y-39333333D01*
X70047619Y-39428571D01*
X70047619Y-39523809D01*
X69571428Y-39619047D01*
X70476190Y-39952380D02*
X70476190Y-39285714D01*
X70476190Y-39476190D02*
X70523809Y-39380952D01*
X70571428Y-39333333D01*
X70666666Y-39285714D01*
X70761904Y-39285714D01*
X72047619Y-38952380D02*
X72238095Y-38952380D01*
X72333333Y-39000000D01*
X72428571Y-39095238D01*
X72476190Y-39285714D01*
X72476190Y-39619047D01*
X72428571Y-39809523D01*
X72333333Y-39904761D01*
X72238095Y-39952380D01*
X72047619Y-39952380D01*
X71952380Y-39904761D01*
X71857142Y-39809523D01*
X71809523Y-39619047D01*
X71809523Y-39285714D01*
X71857142Y-39095238D01*
X71952380Y-39000000D01*
X72047619Y-38952380D01*
X72904761Y-39285714D02*
X72904761Y-39952380D01*
X72904761Y-39380952D02*
X72952380Y-39333333D01*
X73047619Y-39285714D01*
X73190476Y-39285714D01*
X73285714Y-39333333D01*
X73333333Y-39428571D01*
X73333333Y-39952380D01*
X55809523Y-77357142D02*
X55761904Y-77404761D01*
X55619047Y-77452380D01*
X55523809Y-77452380D01*
X55380952Y-77404761D01*
X55285714Y-77309523D01*
X55238095Y-77214285D01*
X55190476Y-77023809D01*
X55190476Y-76880952D01*
X55238095Y-76690476D01*
X55285714Y-76595238D01*
X55380952Y-76500000D01*
X55523809Y-76452380D01*
X55619047Y-76452380D01*
X55761904Y-76500000D01*
X55809523Y-76547619D01*
X56666666Y-77452380D02*
X56666666Y-76928571D01*
X56619047Y-76833333D01*
X56523809Y-76785714D01*
X56333333Y-76785714D01*
X56238095Y-76833333D01*
X56666666Y-77404761D02*
X56571428Y-77452380D01*
X56333333Y-77452380D01*
X56238095Y-77404761D01*
X56190476Y-77309523D01*
X56190476Y-77214285D01*
X56238095Y-77119047D01*
X56333333Y-77071428D01*
X56571428Y-77071428D01*
X56666666Y-77023809D01*
X57142857Y-77452380D02*
X57142857Y-76785714D01*
X57142857Y-76880952D02*
X57190476Y-76833333D01*
X57285714Y-76785714D01*
X57428571Y-76785714D01*
X57523809Y-76833333D01*
X57571428Y-76928571D01*
X57571428Y-77452380D01*
X57571428Y-76928571D02*
X57619047Y-76833333D01*
X57714285Y-76785714D01*
X57857142Y-76785714D01*
X57952380Y-76833333D01*
X58000000Y-76928571D01*
X58000000Y-77452380D01*
X58857142Y-77404761D02*
X58761904Y-77452380D01*
X58571428Y-77452380D01*
X58476190Y-77404761D01*
X58428571Y-77309523D01*
X58428571Y-76928571D01*
X58476190Y-76833333D01*
X58571428Y-76785714D01*
X58761904Y-76785714D01*
X58857142Y-76833333D01*
X58904761Y-76928571D01*
X58904761Y-77023809D01*
X58428571Y-77119047D01*
X59333333Y-77452380D02*
X59333333Y-76785714D01*
X59333333Y-76976190D02*
X59380952Y-76880952D01*
X59428571Y-76833333D01*
X59523809Y-76785714D01*
X59619047Y-76785714D01*
X60380952Y-77452380D02*
X60380952Y-76928571D01*
X60333333Y-76833333D01*
X60238095Y-76785714D01*
X60047619Y-76785714D01*
X59952380Y-76833333D01*
X60380952Y-77404761D02*
X60285714Y-77452380D01*
X60047619Y-77452380D01*
X59952380Y-77404761D01*
X59904761Y-77309523D01*
X59904761Y-77214285D01*
X59952380Y-77119047D01*
X60047619Y-77071428D01*
X60285714Y-77071428D01*
X60380952Y-77023809D01*
X61571428Y-77166666D02*
X62047619Y-77166666D01*
X61476190Y-77452380D02*
X61809523Y-76452380D01*
X62142857Y-77452380D01*
X62904761Y-77452380D02*
X62904761Y-76452380D01*
X62904761Y-77404761D02*
X62809523Y-77452380D01*
X62619047Y-77452380D01*
X62523809Y-77404761D01*
X62476190Y-77357142D01*
X62428571Y-77261904D01*
X62428571Y-76976190D01*
X62476190Y-76880952D01*
X62523809Y-76833333D01*
X62619047Y-76785714D01*
X62809523Y-76785714D01*
X62904761Y-76833333D01*
X63809523Y-77452380D02*
X63809523Y-76928571D01*
X63761904Y-76833333D01*
X63666666Y-76785714D01*
X63476190Y-76785714D01*
X63380952Y-76833333D01*
X63809523Y-77404761D02*
X63714285Y-77452380D01*
X63476190Y-77452380D01*
X63380952Y-77404761D01*
X63333333Y-77309523D01*
X63333333Y-77214285D01*
X63380952Y-77119047D01*
X63476190Y-77071428D01*
X63714285Y-77071428D01*
X63809523Y-77023809D01*
X64285714Y-76785714D02*
X64285714Y-77785714D01*
X64285714Y-76833333D02*
X64380952Y-76785714D01*
X64571428Y-76785714D01*
X64666666Y-76833333D01*
X64714285Y-76880952D01*
X64761904Y-76976190D01*
X64761904Y-77261904D01*
X64714285Y-77357142D01*
X64666666Y-77404761D01*
X64571428Y-77452380D01*
X64380952Y-77452380D01*
X64285714Y-77404761D01*
X65047619Y-76785714D02*
X65428571Y-76785714D01*
X65190476Y-76452380D02*
X65190476Y-77309523D01*
X65238095Y-77404761D01*
X65333333Y-77452380D01*
X65428571Y-77452380D01*
X66142857Y-77404761D02*
X66047619Y-77452380D01*
X65857142Y-77452380D01*
X65761904Y-77404761D01*
X65714285Y-77309523D01*
X65714285Y-76928571D01*
X65761904Y-76833333D01*
X65857142Y-76785714D01*
X66047619Y-76785714D01*
X66142857Y-76833333D01*
X66190476Y-76928571D01*
X66190476Y-77023809D01*
X65714285Y-77119047D01*
X66619047Y-77452380D02*
X66619047Y-76785714D01*
X66619047Y-76976190D02*
X66666666Y-76880952D01*
X66714285Y-76833333D01*
X66809523Y-76785714D01*
X66904761Y-76785714D01*
D11*
X67100000Y-53800000D02*
X67100000Y-57650000D01*
X67100000Y-57650000D02*
X71500000Y-57650000D01*
X67100000Y-45200000D02*
X67100000Y-41350000D01*
X67100000Y-41350000D02*
X71500000Y-41350000D01*
X64250000Y-45900000D02*
G75*
G03X64250000Y-45900000I-100000J0D01*
G01*
D12*
X63933000Y-31996748D02*
X63933000Y-32519252D01*
X65353000Y-31996748D02*
X65353000Y-32519252D01*
X55129500Y-30980748D02*
X55129500Y-31503252D01*
X53709500Y-30980748D02*
X53709500Y-31503252D01*
X56181500Y-33393500D02*
X53321500Y-33393500D01*
X53321500Y-33393500D02*
X53321500Y-35313500D01*
X53321500Y-35313500D02*
X56181500Y-35313500D01*
X47438000Y-28451500D02*
X47438000Y-31111500D01*
X50038000Y-28451500D02*
X47438000Y-28451500D01*
X50038000Y-31111500D02*
X47438000Y-31111500D01*
X50038000Y-28451500D02*
X50038000Y-31111500D01*
X51308000Y-28451500D02*
X52638000Y-28451500D01*
X52638000Y-28451500D02*
X52638000Y-29781500D01*
X69672000Y-28404500D02*
X73922000Y-28404500D01*
X73922000Y-28404500D02*
X73922000Y-29424500D01*
X73922000Y-29424500D02*
X72322000Y-29424500D01*
X72322000Y-29424500D02*
X72322000Y-30704500D01*
X72322000Y-30704500D02*
X75212000Y-30704500D01*
X69672000Y-38524500D02*
X73922000Y-38524500D01*
X73922000Y-38524500D02*
X73922000Y-37504500D01*
X73922000Y-37504500D02*
X72322000Y-37504500D01*
X72322000Y-37504500D02*
X72322000Y-36224500D01*
X66102000Y-30124500D02*
X66102000Y-36804500D01*
D11*
X64250000Y-64400000D02*
G75*
G03X64250000Y-64400000I-100000J0D01*
G01*
X67100000Y-59850000D02*
X71500000Y-59850000D01*
X67100000Y-63700000D02*
X67100000Y-59850000D01*
X67100000Y-76150000D02*
X71500000Y-76150000D01*
X67100000Y-72300000D02*
X67100000Y-76150000D01*
D12*
X55868500Y-31566752D02*
X55868500Y-31044248D01*
X57288500Y-31566752D02*
X57288500Y-31044248D01*
D13*
X63023500Y-34370000D02*
X59023500Y-34370000D01*
X63023500Y-39417000D02*
X59023500Y-39417000D01*
D11*
X65403500Y-39338500D02*
G75*
G03X65403500Y-39338500I-100000J0D01*
G01*
D13*
X48308000Y-32815000D02*
X48308000Y-33815000D01*
X48308000Y-33815000D02*
X48308000Y-53815000D01*
X48308000Y-53815000D02*
X48308000Y-54815000D01*
X48308000Y-54815000D02*
X47208000Y-54815000D01*
X47208000Y-54815000D02*
X47208000Y-32815000D01*
X47208000Y-32815000D02*
X48308000Y-32815000D01*
X52608000Y-35315000D02*
X52608000Y-36315000D01*
X52608000Y-51315000D02*
X52608000Y-52315000D01*
X49708000Y-33815000D02*
X48308000Y-33815000D01*
X49708000Y-53815000D02*
X48308000Y-53815000D01*
X49708000Y-76548000D02*
X48308000Y-76548000D01*
X49708000Y-56548000D02*
X48308000Y-56548000D01*
X52608000Y-74048000D02*
X52608000Y-75048000D01*
X52608000Y-58048000D02*
X52608000Y-59048000D01*
X47208000Y-55548000D02*
X48308000Y-55548000D01*
X47208000Y-77548000D02*
X47208000Y-55548000D01*
X48308000Y-77548000D02*
X47208000Y-77548000D01*
X48308000Y-76548000D02*
X48308000Y-77548000D01*
X48308000Y-56548000D02*
X48308000Y-76548000D01*
X48308000Y-55548000D02*
X48308000Y-56548000D01*
D10*
X64166666Y-40452380D02*
X64166666Y-41166666D01*
X64119047Y-41309523D01*
X64023809Y-41404761D01*
X63880952Y-41452380D01*
X63785714Y-41452380D01*
X64595238Y-40547619D02*
X64642857Y-40500000D01*
X64738095Y-40452380D01*
X64976190Y-40452380D01*
X65071428Y-40500000D01*
X65119047Y-40547619D01*
X65166666Y-40642857D01*
X65166666Y-40738095D01*
X65119047Y-40880952D01*
X64547619Y-41452380D01*
X65166666Y-41452380D01*
X65100142Y-29449666D02*
X65147761Y-29497285D01*
X65195380Y-29640142D01*
X65195380Y-29735380D01*
X65147761Y-29878238D01*
X65052523Y-29973476D01*
X64957285Y-30021095D01*
X64766809Y-30068714D01*
X64623952Y-30068714D01*
X64433476Y-30021095D01*
X64338238Y-29973476D01*
X64243000Y-29878238D01*
X64195380Y-29735380D01*
X64195380Y-29640142D01*
X64243000Y-29497285D01*
X64290619Y-29449666D01*
X65195380Y-28497285D02*
X65195380Y-29068714D01*
X65195380Y-28783000D02*
X64195380Y-28783000D01*
X64338238Y-28878238D01*
X64433476Y-28973476D01*
X64481095Y-29068714D01*
X54379833Y-29186142D02*
X54332214Y-29233761D01*
X54189357Y-29281380D01*
X54094119Y-29281380D01*
X53951261Y-29233761D01*
X53856023Y-29138523D01*
X53808404Y-29043285D01*
X53760785Y-28852809D01*
X53760785Y-28709952D01*
X53808404Y-28519476D01*
X53856023Y-28424238D01*
X53951261Y-28329000D01*
X54094119Y-28281380D01*
X54189357Y-28281380D01*
X54332214Y-28329000D01*
X54379833Y-28376619D01*
X54760785Y-28376619D02*
X54808404Y-28329000D01*
X54903642Y-28281380D01*
X55141738Y-28281380D01*
X55236976Y-28329000D01*
X55284595Y-28376619D01*
X55332214Y-28471857D01*
X55332214Y-28567095D01*
X55284595Y-28709952D01*
X54713166Y-29281380D01*
X55332214Y-29281380D01*
X55459404Y-36710880D02*
X55459404Y-35710880D01*
X55697500Y-35710880D01*
X55840357Y-35758500D01*
X55935595Y-35853738D01*
X55983214Y-35948976D01*
X56030833Y-36139452D01*
X56030833Y-36282309D01*
X55983214Y-36472785D01*
X55935595Y-36568023D01*
X55840357Y-36663261D01*
X55697500Y-36710880D01*
X55459404Y-36710880D01*
X56983214Y-36710880D02*
X56411785Y-36710880D01*
X56697500Y-36710880D02*
X56697500Y-35710880D01*
X56602261Y-35853738D01*
X56507023Y-35948976D01*
X56411785Y-35996595D01*
X74064380Y-29897833D02*
X74778666Y-29897833D01*
X74921523Y-29945452D01*
X75016761Y-30040690D01*
X75064380Y-30183547D01*
X75064380Y-30278785D01*
X74397714Y-28993071D02*
X75064380Y-28993071D01*
X74016761Y-29231166D02*
X74731047Y-29469261D01*
X74731047Y-28850214D01*
X64166666Y-58952380D02*
X64166666Y-59666666D01*
X64119047Y-59809523D01*
X64023809Y-59904761D01*
X63880952Y-59952380D01*
X63785714Y-59952380D01*
X65071428Y-58952380D02*
X64880952Y-58952380D01*
X64785714Y-59000000D01*
X64738095Y-59047619D01*
X64642857Y-59190476D01*
X64595238Y-59380952D01*
X64595238Y-59761904D01*
X64642857Y-59857142D01*
X64690476Y-59904761D01*
X64785714Y-59952380D01*
X64976190Y-59952380D01*
X65071428Y-59904761D01*
X65119047Y-59857142D01*
X65166666Y-59761904D01*
X65166666Y-59523809D01*
X65119047Y-59428571D01*
X65071428Y-59380952D01*
X64976190Y-59333333D01*
X64785714Y-59333333D01*
X64690476Y-59380952D01*
X64642857Y-59428571D01*
X64595238Y-59523809D01*
X56475333Y-29217880D02*
X56142000Y-28741690D01*
X55903904Y-29217880D02*
X55903904Y-28217880D01*
X56284857Y-28217880D01*
X56380095Y-28265500D01*
X56427714Y-28313119D01*
X56475333Y-28408357D01*
X56475333Y-28551214D01*
X56427714Y-28646452D01*
X56380095Y-28694071D01*
X56284857Y-28741690D01*
X55903904Y-28741690D01*
X57427714Y-29217880D02*
X56856285Y-29217880D01*
X57142000Y-29217880D02*
X57142000Y-28217880D01*
X57046761Y-28360738D01*
X56951523Y-28455976D01*
X56856285Y-28503595D01*
X59861595Y-37345880D02*
X59861595Y-38155404D01*
X59909214Y-38250642D01*
X59956833Y-38298261D01*
X60052071Y-38345880D01*
X60242547Y-38345880D01*
X60337785Y-38298261D01*
X60385404Y-38250642D01*
X60433023Y-38155404D01*
X60433023Y-37345880D01*
X61433023Y-38345880D02*
X60861595Y-38345880D01*
X61147309Y-38345880D02*
X61147309Y-37345880D01*
X61052071Y-37488738D01*
X60956833Y-37583976D01*
X60861595Y-37631595D01*
D14*
X56283880Y-43066733D02*
X56998166Y-43066733D01*
X57141023Y-43114352D01*
X57236261Y-43209590D01*
X57283880Y-43352447D01*
X57283880Y-43447685D01*
X57283880Y-42066733D02*
X57283880Y-42638161D01*
X57283880Y-42352447D02*
X56283880Y-42352447D01*
X56426738Y-42447685D01*
X56521976Y-42542923D01*
X56569595Y-42638161D01*
X51560380Y-35929285D02*
X51560380Y-36500714D01*
X51560380Y-36215000D02*
X50560380Y-36215000D01*
X50703238Y-36310238D01*
X50798476Y-36405476D01*
X50846095Y-36500714D01*
X56283880Y-65799733D02*
X56998166Y-65799733D01*
X57141023Y-65847352D01*
X57236261Y-65942590D01*
X57283880Y-66085447D01*
X57283880Y-66180685D01*
X56283880Y-64847352D02*
X56283880Y-65323542D01*
X56760071Y-65371161D01*
X56712452Y-65323542D01*
X56664833Y-65228304D01*
X56664833Y-64990209D01*
X56712452Y-64894971D01*
X56760071Y-64847352D01*
X56855309Y-64799733D01*
X57093404Y-64799733D01*
X57188642Y-64847352D01*
X57236261Y-64894971D01*
X57283880Y-64990209D01*
X57283880Y-65228304D01*
X57236261Y-65323542D01*
X57188642Y-65371161D01*
X51560380Y-58662285D02*
X51560380Y-59233714D01*
X51560380Y-58948000D02*
X50560380Y-58948000D01*
X50703238Y-59043238D01*
X50798476Y-59138476D01*
X50846095Y-59233714D01*
M02*
