G04 #@! TF.GenerationSoftware,KiCad,Pcbnew,(5.1.0)-1*
G04 #@! TF.CreationDate,2020-04-04T17:21:39+01:00*
G04 #@! TF.ProjectId,Camera Adapter,43616d65-7261-4204-9164-61707465722e,rev?*
G04 #@! TF.SameCoordinates,Original*
G04 #@! TF.FileFunction,Copper,L2,Bot*
G04 #@! TF.FilePolarity,Positive*
%FSLAX46Y46*%
G04 Gerber Fmt 4.6, Leading zero omitted, Abs format (unit mm)*
G04 Created by KiCad (PCBNEW (5.1.0)-1) date 2020-04-04 17:21:39*
%MOMM*%
%LPD*%
G04 APERTURE LIST*
%ADD10O,3.016000X1.508000*%
%ADD11R,1.700000X1.700000*%
%ADD12O,1.700000X1.700000*%
%ADD13C,0.800000*%
%ADD14C,0.400000*%
%ADD15C,0.254000*%
G04 APERTURE END LIST*
D10*
X73400000Y-57550000D03*
X73400000Y-41450000D03*
D11*
X51308000Y-29781500D03*
D12*
X48768000Y-29781500D03*
D10*
X73400000Y-59950000D03*
X73400000Y-76050000D03*
D13*
X55208300Y-58635600D03*
X53759300Y-55592800D03*
X70630600Y-33362100D03*
X56182900Y-42594500D03*
X63939600Y-53330100D03*
X55409000Y-47162800D03*
X63918000Y-69630000D03*
X55422500Y-72548000D03*
X63676800Y-68460000D03*
X56023000Y-71262400D03*
D14*
X73400000Y-41450000D02*
X68962500Y-41450000D01*
X68962500Y-41450000D02*
X68078300Y-42334200D01*
X68078300Y-42334200D02*
X68078300Y-56644800D01*
X68078300Y-56644800D02*
X68983500Y-57550000D01*
X68983500Y-57550000D02*
X73400000Y-57550000D01*
X51308000Y-29781500D02*
X51308000Y-54735300D01*
X51308000Y-54735300D02*
X55208300Y-58635600D01*
X53759300Y-55592800D02*
X53759300Y-45018100D01*
X53759300Y-45018100D02*
X56182900Y-42594500D01*
X56182900Y-42594500D02*
X65415300Y-33362100D01*
X65415300Y-33362100D02*
X70630600Y-33362100D01*
X63939600Y-53330100D02*
X57772300Y-47162800D01*
X57772300Y-47162800D02*
X55409000Y-47162800D01*
X55422500Y-72548000D02*
X57320800Y-72548000D01*
X57320800Y-72548000D02*
X60238800Y-69630000D01*
X60238800Y-69630000D02*
X63918000Y-69630000D01*
X56023000Y-71262400D02*
X58825400Y-68460000D01*
X58825400Y-68460000D02*
X63676800Y-68460000D01*
X73400000Y-76050000D02*
X68978500Y-76050000D01*
X68978500Y-76050000D02*
X68062600Y-75134100D01*
X68062600Y-75134100D02*
X68062600Y-60851600D01*
X68062600Y-60851600D02*
X68964200Y-59950000D01*
X68964200Y-59950000D02*
X73400000Y-59950000D01*
D15*
G36*
X76065424Y-28669580D02*
G01*
X76128356Y-28688580D01*
X76186405Y-28719445D01*
X76237343Y-28760989D01*
X76279248Y-28811644D01*
X76310515Y-28869471D01*
X76329956Y-28932272D01*
X76340001Y-29027845D01*
X76340001Y-41864500D01*
X75485750Y-41864500D01*
X75485870Y-41864215D01*
X75500286Y-41791814D01*
X75377677Y-41577000D01*
X73527000Y-41577000D01*
X73527000Y-41597000D01*
X73273000Y-41597000D01*
X73273000Y-41577000D01*
X71422323Y-41577000D01*
X71299714Y-41791814D01*
X71314130Y-41864215D01*
X71314250Y-41864500D01*
X68531211Y-41864500D01*
X68500000Y-41861426D01*
X68468789Y-41864500D01*
X68375420Y-41873696D01*
X68255628Y-41910035D01*
X68145227Y-41969045D01*
X68048460Y-42048460D01*
X67969045Y-42145227D01*
X67910035Y-42255628D01*
X67873696Y-42375420D01*
X67861426Y-42500000D01*
X67864501Y-42531221D01*
X67864500Y-56468789D01*
X67861426Y-56500000D01*
X67873696Y-56624580D01*
X67910035Y-56744372D01*
X67969045Y-56854773D01*
X68048460Y-56951540D01*
X68145227Y-57030955D01*
X68255628Y-57089965D01*
X68375420Y-57126304D01*
X68500000Y-57138574D01*
X68531211Y-57135500D01*
X71314250Y-57135500D01*
X71314130Y-57135785D01*
X71299714Y-57208186D01*
X71422323Y-57423000D01*
X73273000Y-57423000D01*
X73273000Y-57403000D01*
X73527000Y-57403000D01*
X73527000Y-57423000D01*
X75377677Y-57423000D01*
X75500286Y-57208186D01*
X75485870Y-57135785D01*
X75485750Y-57135500D01*
X76340000Y-57135500D01*
X76340000Y-60364500D01*
X75479763Y-60364500D01*
X75522902Y-60222291D01*
X75549720Y-59950000D01*
X75522902Y-59677709D01*
X75443477Y-59415881D01*
X75314499Y-59174580D01*
X75140923Y-58963077D01*
X74929420Y-58789501D01*
X74855541Y-58750012D01*
X75031284Y-58634354D01*
X75225974Y-58442369D01*
X75379469Y-58216091D01*
X75485870Y-57964215D01*
X75500286Y-57891814D01*
X75377677Y-57677000D01*
X73527000Y-57677000D01*
X73527000Y-57697000D01*
X73273000Y-57697000D01*
X73273000Y-57677000D01*
X71422323Y-57677000D01*
X71299714Y-57891814D01*
X71314130Y-57964215D01*
X71420531Y-58216091D01*
X71574026Y-58442369D01*
X71768716Y-58634354D01*
X71944459Y-58750012D01*
X71870580Y-58789501D01*
X71659077Y-58963077D01*
X71534397Y-59115000D01*
X69005218Y-59115000D01*
X68964200Y-59110960D01*
X68923181Y-59115000D01*
X68800511Y-59127082D01*
X68643113Y-59174828D01*
X68498054Y-59252364D01*
X68370909Y-59356709D01*
X68344763Y-59388568D01*
X67501174Y-60232159D01*
X67469310Y-60258309D01*
X67443162Y-60290171D01*
X67364964Y-60385455D01*
X67287428Y-60530514D01*
X67239682Y-60687912D01*
X67223560Y-60851600D01*
X67227601Y-60892629D01*
X67227600Y-75093081D01*
X67223560Y-75134100D01*
X67227600Y-75175118D01*
X67239682Y-75297788D01*
X67287428Y-75455186D01*
X67364964Y-75600245D01*
X67469309Y-75727391D01*
X67501179Y-75753546D01*
X68359058Y-76611426D01*
X68385209Y-76643291D01*
X68512354Y-76747636D01*
X68657413Y-76825172D01*
X68814811Y-76872918D01*
X68978499Y-76889040D01*
X69019518Y-76885000D01*
X71534397Y-76885000D01*
X71659077Y-77036923D01*
X71870580Y-77210499D01*
X72111881Y-77339477D01*
X72113605Y-77340000D01*
X48032279Y-77340000D01*
X47934576Y-77330420D01*
X47871643Y-77311420D01*
X47813594Y-77280554D01*
X47762657Y-77239011D01*
X47720752Y-77188356D01*
X47689485Y-77130529D01*
X47670044Y-77067728D01*
X47660000Y-76972165D01*
X47660000Y-72446061D01*
X54387500Y-72446061D01*
X54387500Y-72649939D01*
X54427274Y-72849898D01*
X54505295Y-73038256D01*
X54618563Y-73207774D01*
X54762726Y-73351937D01*
X54932244Y-73465205D01*
X55120602Y-73543226D01*
X55320561Y-73583000D01*
X55524439Y-73583000D01*
X55724398Y-73543226D01*
X55912756Y-73465205D01*
X56035785Y-73383000D01*
X57279782Y-73383000D01*
X57320800Y-73387040D01*
X57361818Y-73383000D01*
X57361819Y-73383000D01*
X57484489Y-73370918D01*
X57641887Y-73323172D01*
X57786946Y-73245636D01*
X57914091Y-73141291D01*
X57940246Y-73109421D01*
X57956460Y-73093207D01*
X57850890Y-73348075D01*
X57765000Y-73779872D01*
X57765000Y-74220128D01*
X57850890Y-74651925D01*
X58019369Y-75058669D01*
X58263962Y-75424729D01*
X58575271Y-75736038D01*
X58941331Y-75980631D01*
X59348075Y-76149110D01*
X59779872Y-76235000D01*
X60220128Y-76235000D01*
X60651925Y-76149110D01*
X61058669Y-75980631D01*
X61424729Y-75736038D01*
X61736038Y-75424729D01*
X61980631Y-75058669D01*
X62149110Y-74651925D01*
X62235000Y-74220128D01*
X62235000Y-73779872D01*
X62149110Y-73348075D01*
X61980631Y-72941331D01*
X61736038Y-72575271D01*
X61424729Y-72263962D01*
X61058669Y-72019369D01*
X60651925Y-71850890D01*
X60220128Y-71765000D01*
X59779872Y-71765000D01*
X59348075Y-71850890D01*
X59093208Y-71956459D01*
X60584668Y-70465000D01*
X63304715Y-70465000D01*
X63427744Y-70547205D01*
X63616102Y-70625226D01*
X63816061Y-70665000D01*
X64019939Y-70665000D01*
X64219898Y-70625226D01*
X64408256Y-70547205D01*
X64577774Y-70433937D01*
X64721937Y-70289774D01*
X64835205Y-70120256D01*
X64913226Y-69931898D01*
X64953000Y-69731939D01*
X64953000Y-69528061D01*
X64913226Y-69328102D01*
X64835205Y-69139744D01*
X64721937Y-68970226D01*
X64625626Y-68873915D01*
X64672026Y-68761898D01*
X64711800Y-68561939D01*
X64711800Y-68358061D01*
X64672026Y-68158102D01*
X64594005Y-67969744D01*
X64480737Y-67800226D01*
X64336574Y-67656063D01*
X64167056Y-67542795D01*
X63978698Y-67464774D01*
X63778739Y-67425000D01*
X63574861Y-67425000D01*
X63374902Y-67464774D01*
X63186544Y-67542795D01*
X63063515Y-67625000D01*
X58866418Y-67625000D01*
X58825399Y-67620960D01*
X58784381Y-67625000D01*
X58661711Y-67637082D01*
X58504313Y-67684828D01*
X58359254Y-67762364D01*
X58232109Y-67866709D01*
X58205959Y-67898573D01*
X55866225Y-70238307D01*
X55721102Y-70267174D01*
X55532744Y-70345195D01*
X55363226Y-70458463D01*
X55219063Y-70602626D01*
X55105795Y-70772144D01*
X55027774Y-70960502D01*
X54988000Y-71160461D01*
X54988000Y-71364339D01*
X55027774Y-71564298D01*
X55037294Y-71587281D01*
X54932244Y-71630795D01*
X54762726Y-71744063D01*
X54618563Y-71888226D01*
X54505295Y-72057744D01*
X54427274Y-72246102D01*
X54387500Y-72446061D01*
X47660000Y-72446061D01*
X47660000Y-57580500D01*
X49971810Y-57580500D01*
X49971810Y-60400500D01*
X52244191Y-60400500D01*
X52244191Y-57580500D01*
X49971810Y-57580500D01*
X47660000Y-57580500D01*
X47660000Y-30759571D01*
X47767731Y-30879088D01*
X48001080Y-31053141D01*
X48263901Y-31178325D01*
X48411110Y-31222976D01*
X48641000Y-31101655D01*
X48641000Y-29908500D01*
X48621000Y-29908500D01*
X48621000Y-29654500D01*
X48641000Y-29654500D01*
X48641000Y-29634500D01*
X48895000Y-29634500D01*
X48895000Y-29654500D01*
X48915000Y-29654500D01*
X48915000Y-29908500D01*
X48895000Y-29908500D01*
X48895000Y-31101655D01*
X49124890Y-31222976D01*
X49272099Y-31178325D01*
X49534920Y-31053141D01*
X49768269Y-30879088D01*
X49844034Y-30795034D01*
X49868498Y-30875680D01*
X49927463Y-30985994D01*
X50006815Y-31082685D01*
X50103506Y-31162037D01*
X50213820Y-31221002D01*
X50333518Y-31257312D01*
X50458000Y-31269572D01*
X50473000Y-31269572D01*
X50473000Y-34847500D01*
X49971810Y-34847500D01*
X49971810Y-37667500D01*
X50473000Y-37667500D01*
X50473001Y-54694271D01*
X50468960Y-54735300D01*
X50485082Y-54898988D01*
X50532828Y-55056386D01*
X50610364Y-55201445D01*
X50610365Y-55201446D01*
X50714710Y-55328591D01*
X50746574Y-55354741D01*
X54184208Y-58792375D01*
X54213074Y-58937498D01*
X54291095Y-59125856D01*
X54404363Y-59295374D01*
X54548526Y-59439537D01*
X54718044Y-59552805D01*
X54906402Y-59630826D01*
X55106361Y-59670600D01*
X55310239Y-59670600D01*
X55510198Y-59630826D01*
X55698556Y-59552805D01*
X55868074Y-59439537D01*
X56012237Y-59295374D01*
X56125505Y-59125856D01*
X56203526Y-58937498D01*
X56243300Y-58737539D01*
X56243300Y-58533661D01*
X56203526Y-58333702D01*
X56125505Y-58145344D01*
X56012237Y-57975826D01*
X55868074Y-57831663D01*
X55698556Y-57718395D01*
X55510198Y-57640374D01*
X55365075Y-57611508D01*
X54257958Y-56504391D01*
X54419074Y-56396737D01*
X54563237Y-56252574D01*
X54676505Y-56083056D01*
X54754526Y-55894698D01*
X54794300Y-55694739D01*
X54794300Y-55490861D01*
X54754526Y-55290902D01*
X54676505Y-55102544D01*
X54594300Y-54979515D01*
X54594300Y-47806466D01*
X54605063Y-47822574D01*
X54749226Y-47966737D01*
X54918744Y-48080005D01*
X55107102Y-48158026D01*
X55307061Y-48197800D01*
X55510939Y-48197800D01*
X55710898Y-48158026D01*
X55899256Y-48080005D01*
X56022285Y-47997800D01*
X57426433Y-47997800D01*
X62915508Y-53486875D01*
X62944374Y-53631998D01*
X63022395Y-53820356D01*
X63135663Y-53989874D01*
X63279826Y-54134037D01*
X63449344Y-54247305D01*
X63637702Y-54325326D01*
X63837661Y-54365100D01*
X64041539Y-54365100D01*
X64241498Y-54325326D01*
X64429856Y-54247305D01*
X64599374Y-54134037D01*
X64743537Y-53989874D01*
X64856805Y-53820356D01*
X64934826Y-53631998D01*
X64974600Y-53432039D01*
X64974600Y-53228161D01*
X64934826Y-53028202D01*
X64856805Y-52839844D01*
X64743537Y-52670326D01*
X64599374Y-52526163D01*
X64429856Y-52412895D01*
X64241498Y-52334874D01*
X64096375Y-52306008D01*
X58391746Y-46601379D01*
X58365591Y-46569509D01*
X58238446Y-46465164D01*
X58093387Y-46387628D01*
X57935989Y-46339882D01*
X57813319Y-46327800D01*
X57813318Y-46327800D01*
X57772300Y-46323760D01*
X57731282Y-46327800D01*
X56022285Y-46327800D01*
X55899256Y-46245595D01*
X55710898Y-46167574D01*
X55510939Y-46127800D01*
X55307061Y-46127800D01*
X55107102Y-46167574D01*
X54918744Y-46245595D01*
X54749226Y-46358863D01*
X54605063Y-46503026D01*
X54594300Y-46519134D01*
X54594300Y-45363967D01*
X56339675Y-43618592D01*
X56484798Y-43589726D01*
X56673156Y-43511705D01*
X56842674Y-43398437D01*
X56986837Y-43254274D01*
X57100105Y-43084756D01*
X57178126Y-42896398D01*
X57206993Y-42751274D01*
X58850081Y-41108186D01*
X71299714Y-41108186D01*
X71422323Y-41323000D01*
X73273000Y-41323000D01*
X73273000Y-41303000D01*
X73527000Y-41303000D01*
X73527000Y-41323000D01*
X75377677Y-41323000D01*
X75500286Y-41108186D01*
X75485870Y-41035785D01*
X75379469Y-40783909D01*
X75225974Y-40557631D01*
X75031284Y-40365646D01*
X74802880Y-40215332D01*
X74549540Y-40112466D01*
X74281000Y-40061000D01*
X72519000Y-40061000D01*
X72250460Y-40112466D01*
X71997120Y-40215332D01*
X71768716Y-40365646D01*
X71574026Y-40557631D01*
X71420531Y-40783909D01*
X71314130Y-41035785D01*
X71299714Y-41108186D01*
X58850081Y-41108186D01*
X65761168Y-34197100D01*
X70017315Y-34197100D01*
X70140344Y-34279305D01*
X70328702Y-34357326D01*
X70528661Y-34397100D01*
X70732539Y-34397100D01*
X70932498Y-34357326D01*
X71120856Y-34279305D01*
X71290374Y-34166037D01*
X71434537Y-34021874D01*
X71547805Y-33852356D01*
X71625826Y-33663998D01*
X71665600Y-33464039D01*
X71665600Y-33260161D01*
X71625826Y-33060202D01*
X71547805Y-32871844D01*
X71434537Y-32702326D01*
X71290374Y-32558163D01*
X71120856Y-32444895D01*
X70932498Y-32366874D01*
X70732539Y-32327100D01*
X70528661Y-32327100D01*
X70328702Y-32366874D01*
X70140344Y-32444895D01*
X70017315Y-32527100D01*
X65456307Y-32527100D01*
X65415299Y-32523061D01*
X65374291Y-32527100D01*
X65374281Y-32527100D01*
X65251611Y-32539182D01*
X65094213Y-32586928D01*
X64949154Y-32664464D01*
X64822009Y-32768809D01*
X64795859Y-32800673D01*
X56026126Y-41570407D01*
X55881002Y-41599274D01*
X55692644Y-41677295D01*
X55523126Y-41790563D01*
X55378963Y-41934726D01*
X55265695Y-42104244D01*
X55187674Y-42292602D01*
X55158808Y-42437725D01*
X53197874Y-44398659D01*
X53166010Y-44424809D01*
X53139862Y-44456671D01*
X53061664Y-44551955D01*
X52984128Y-44697014D01*
X52936382Y-44854412D01*
X52920260Y-45018100D01*
X52924301Y-45059129D01*
X52924300Y-54979515D01*
X52847709Y-55094142D01*
X52143000Y-54389433D01*
X52143000Y-37667500D01*
X52244191Y-37667500D01*
X52244191Y-34847500D01*
X52143000Y-34847500D01*
X52143000Y-31269572D01*
X52158000Y-31269572D01*
X52282482Y-31257312D01*
X52402180Y-31221002D01*
X52512494Y-31162037D01*
X52609185Y-31082685D01*
X52688537Y-30985994D01*
X52737243Y-30894872D01*
X58725000Y-30894872D01*
X58725000Y-31335128D01*
X58810890Y-31766925D01*
X58979369Y-32173669D01*
X59223962Y-32539729D01*
X59535271Y-32851038D01*
X59901331Y-33095631D01*
X60308075Y-33264110D01*
X60739872Y-33350000D01*
X61180128Y-33350000D01*
X61611925Y-33264110D01*
X62018669Y-33095631D01*
X62384729Y-32851038D01*
X62696038Y-32539729D01*
X62940631Y-32173669D01*
X63109110Y-31766925D01*
X63195000Y-31335128D01*
X63195000Y-30894872D01*
X63109110Y-30463075D01*
X62940631Y-30056331D01*
X62696038Y-29690271D01*
X62384729Y-29378962D01*
X62018669Y-29134369D01*
X61611925Y-28965890D01*
X61180128Y-28880000D01*
X60739872Y-28880000D01*
X60308075Y-28965890D01*
X59901331Y-29134369D01*
X59535271Y-29378962D01*
X59223962Y-29690271D01*
X58979369Y-30056331D01*
X58810890Y-30463075D01*
X58725000Y-30894872D01*
X52737243Y-30894872D01*
X52747502Y-30875680D01*
X52783812Y-30755982D01*
X52796072Y-30631500D01*
X52796072Y-28931500D01*
X52783812Y-28807018D01*
X52747502Y-28687320D01*
X52732899Y-28660000D01*
X75967721Y-28660000D01*
X76065424Y-28669580D01*
X76065424Y-28669580D01*
G37*
X76065424Y-28669580D02*
X76128356Y-28688580D01*
X76186405Y-28719445D01*
X76237343Y-28760989D01*
X76279248Y-28811644D01*
X76310515Y-28869471D01*
X76329956Y-28932272D01*
X76340001Y-29027845D01*
X76340001Y-41864500D01*
X75485750Y-41864500D01*
X75485870Y-41864215D01*
X75500286Y-41791814D01*
X75377677Y-41577000D01*
X73527000Y-41577000D01*
X73527000Y-41597000D01*
X73273000Y-41597000D01*
X73273000Y-41577000D01*
X71422323Y-41577000D01*
X71299714Y-41791814D01*
X71314130Y-41864215D01*
X71314250Y-41864500D01*
X68531211Y-41864500D01*
X68500000Y-41861426D01*
X68468789Y-41864500D01*
X68375420Y-41873696D01*
X68255628Y-41910035D01*
X68145227Y-41969045D01*
X68048460Y-42048460D01*
X67969045Y-42145227D01*
X67910035Y-42255628D01*
X67873696Y-42375420D01*
X67861426Y-42500000D01*
X67864501Y-42531221D01*
X67864500Y-56468789D01*
X67861426Y-56500000D01*
X67873696Y-56624580D01*
X67910035Y-56744372D01*
X67969045Y-56854773D01*
X68048460Y-56951540D01*
X68145227Y-57030955D01*
X68255628Y-57089965D01*
X68375420Y-57126304D01*
X68500000Y-57138574D01*
X68531211Y-57135500D01*
X71314250Y-57135500D01*
X71314130Y-57135785D01*
X71299714Y-57208186D01*
X71422323Y-57423000D01*
X73273000Y-57423000D01*
X73273000Y-57403000D01*
X73527000Y-57403000D01*
X73527000Y-57423000D01*
X75377677Y-57423000D01*
X75500286Y-57208186D01*
X75485870Y-57135785D01*
X75485750Y-57135500D01*
X76340000Y-57135500D01*
X76340000Y-60364500D01*
X75479763Y-60364500D01*
X75522902Y-60222291D01*
X75549720Y-59950000D01*
X75522902Y-59677709D01*
X75443477Y-59415881D01*
X75314499Y-59174580D01*
X75140923Y-58963077D01*
X74929420Y-58789501D01*
X74855541Y-58750012D01*
X75031284Y-58634354D01*
X75225974Y-58442369D01*
X75379469Y-58216091D01*
X75485870Y-57964215D01*
X75500286Y-57891814D01*
X75377677Y-57677000D01*
X73527000Y-57677000D01*
X73527000Y-57697000D01*
X73273000Y-57697000D01*
X73273000Y-57677000D01*
X71422323Y-57677000D01*
X71299714Y-57891814D01*
X71314130Y-57964215D01*
X71420531Y-58216091D01*
X71574026Y-58442369D01*
X71768716Y-58634354D01*
X71944459Y-58750012D01*
X71870580Y-58789501D01*
X71659077Y-58963077D01*
X71534397Y-59115000D01*
X69005218Y-59115000D01*
X68964200Y-59110960D01*
X68923181Y-59115000D01*
X68800511Y-59127082D01*
X68643113Y-59174828D01*
X68498054Y-59252364D01*
X68370909Y-59356709D01*
X68344763Y-59388568D01*
X67501174Y-60232159D01*
X67469310Y-60258309D01*
X67443162Y-60290171D01*
X67364964Y-60385455D01*
X67287428Y-60530514D01*
X67239682Y-60687912D01*
X67223560Y-60851600D01*
X67227601Y-60892629D01*
X67227600Y-75093081D01*
X67223560Y-75134100D01*
X67227600Y-75175118D01*
X67239682Y-75297788D01*
X67287428Y-75455186D01*
X67364964Y-75600245D01*
X67469309Y-75727391D01*
X67501179Y-75753546D01*
X68359058Y-76611426D01*
X68385209Y-76643291D01*
X68512354Y-76747636D01*
X68657413Y-76825172D01*
X68814811Y-76872918D01*
X68978499Y-76889040D01*
X69019518Y-76885000D01*
X71534397Y-76885000D01*
X71659077Y-77036923D01*
X71870580Y-77210499D01*
X72111881Y-77339477D01*
X72113605Y-77340000D01*
X48032279Y-77340000D01*
X47934576Y-77330420D01*
X47871643Y-77311420D01*
X47813594Y-77280554D01*
X47762657Y-77239011D01*
X47720752Y-77188356D01*
X47689485Y-77130529D01*
X47670044Y-77067728D01*
X47660000Y-76972165D01*
X47660000Y-72446061D01*
X54387500Y-72446061D01*
X54387500Y-72649939D01*
X54427274Y-72849898D01*
X54505295Y-73038256D01*
X54618563Y-73207774D01*
X54762726Y-73351937D01*
X54932244Y-73465205D01*
X55120602Y-73543226D01*
X55320561Y-73583000D01*
X55524439Y-73583000D01*
X55724398Y-73543226D01*
X55912756Y-73465205D01*
X56035785Y-73383000D01*
X57279782Y-73383000D01*
X57320800Y-73387040D01*
X57361818Y-73383000D01*
X57361819Y-73383000D01*
X57484489Y-73370918D01*
X57641887Y-73323172D01*
X57786946Y-73245636D01*
X57914091Y-73141291D01*
X57940246Y-73109421D01*
X57956460Y-73093207D01*
X57850890Y-73348075D01*
X57765000Y-73779872D01*
X57765000Y-74220128D01*
X57850890Y-74651925D01*
X58019369Y-75058669D01*
X58263962Y-75424729D01*
X58575271Y-75736038D01*
X58941331Y-75980631D01*
X59348075Y-76149110D01*
X59779872Y-76235000D01*
X60220128Y-76235000D01*
X60651925Y-76149110D01*
X61058669Y-75980631D01*
X61424729Y-75736038D01*
X61736038Y-75424729D01*
X61980631Y-75058669D01*
X62149110Y-74651925D01*
X62235000Y-74220128D01*
X62235000Y-73779872D01*
X62149110Y-73348075D01*
X61980631Y-72941331D01*
X61736038Y-72575271D01*
X61424729Y-72263962D01*
X61058669Y-72019369D01*
X60651925Y-71850890D01*
X60220128Y-71765000D01*
X59779872Y-71765000D01*
X59348075Y-71850890D01*
X59093208Y-71956459D01*
X60584668Y-70465000D01*
X63304715Y-70465000D01*
X63427744Y-70547205D01*
X63616102Y-70625226D01*
X63816061Y-70665000D01*
X64019939Y-70665000D01*
X64219898Y-70625226D01*
X64408256Y-70547205D01*
X64577774Y-70433937D01*
X64721937Y-70289774D01*
X64835205Y-70120256D01*
X64913226Y-69931898D01*
X64953000Y-69731939D01*
X64953000Y-69528061D01*
X64913226Y-69328102D01*
X64835205Y-69139744D01*
X64721937Y-68970226D01*
X64625626Y-68873915D01*
X64672026Y-68761898D01*
X64711800Y-68561939D01*
X64711800Y-68358061D01*
X64672026Y-68158102D01*
X64594005Y-67969744D01*
X64480737Y-67800226D01*
X64336574Y-67656063D01*
X64167056Y-67542795D01*
X63978698Y-67464774D01*
X63778739Y-67425000D01*
X63574861Y-67425000D01*
X63374902Y-67464774D01*
X63186544Y-67542795D01*
X63063515Y-67625000D01*
X58866418Y-67625000D01*
X58825399Y-67620960D01*
X58784381Y-67625000D01*
X58661711Y-67637082D01*
X58504313Y-67684828D01*
X58359254Y-67762364D01*
X58232109Y-67866709D01*
X58205959Y-67898573D01*
X55866225Y-70238307D01*
X55721102Y-70267174D01*
X55532744Y-70345195D01*
X55363226Y-70458463D01*
X55219063Y-70602626D01*
X55105795Y-70772144D01*
X55027774Y-70960502D01*
X54988000Y-71160461D01*
X54988000Y-71364339D01*
X55027774Y-71564298D01*
X55037294Y-71587281D01*
X54932244Y-71630795D01*
X54762726Y-71744063D01*
X54618563Y-71888226D01*
X54505295Y-72057744D01*
X54427274Y-72246102D01*
X54387500Y-72446061D01*
X47660000Y-72446061D01*
X47660000Y-57580500D01*
X49971810Y-57580500D01*
X49971810Y-60400500D01*
X52244191Y-60400500D01*
X52244191Y-57580500D01*
X49971810Y-57580500D01*
X47660000Y-57580500D01*
X47660000Y-30759571D01*
X47767731Y-30879088D01*
X48001080Y-31053141D01*
X48263901Y-31178325D01*
X48411110Y-31222976D01*
X48641000Y-31101655D01*
X48641000Y-29908500D01*
X48621000Y-29908500D01*
X48621000Y-29654500D01*
X48641000Y-29654500D01*
X48641000Y-29634500D01*
X48895000Y-29634500D01*
X48895000Y-29654500D01*
X48915000Y-29654500D01*
X48915000Y-29908500D01*
X48895000Y-29908500D01*
X48895000Y-31101655D01*
X49124890Y-31222976D01*
X49272099Y-31178325D01*
X49534920Y-31053141D01*
X49768269Y-30879088D01*
X49844034Y-30795034D01*
X49868498Y-30875680D01*
X49927463Y-30985994D01*
X50006815Y-31082685D01*
X50103506Y-31162037D01*
X50213820Y-31221002D01*
X50333518Y-31257312D01*
X50458000Y-31269572D01*
X50473000Y-31269572D01*
X50473000Y-34847500D01*
X49971810Y-34847500D01*
X49971810Y-37667500D01*
X50473000Y-37667500D01*
X50473001Y-54694271D01*
X50468960Y-54735300D01*
X50485082Y-54898988D01*
X50532828Y-55056386D01*
X50610364Y-55201445D01*
X50610365Y-55201446D01*
X50714710Y-55328591D01*
X50746574Y-55354741D01*
X54184208Y-58792375D01*
X54213074Y-58937498D01*
X54291095Y-59125856D01*
X54404363Y-59295374D01*
X54548526Y-59439537D01*
X54718044Y-59552805D01*
X54906402Y-59630826D01*
X55106361Y-59670600D01*
X55310239Y-59670600D01*
X55510198Y-59630826D01*
X55698556Y-59552805D01*
X55868074Y-59439537D01*
X56012237Y-59295374D01*
X56125505Y-59125856D01*
X56203526Y-58937498D01*
X56243300Y-58737539D01*
X56243300Y-58533661D01*
X56203526Y-58333702D01*
X56125505Y-58145344D01*
X56012237Y-57975826D01*
X55868074Y-57831663D01*
X55698556Y-57718395D01*
X55510198Y-57640374D01*
X55365075Y-57611508D01*
X54257958Y-56504391D01*
X54419074Y-56396737D01*
X54563237Y-56252574D01*
X54676505Y-56083056D01*
X54754526Y-55894698D01*
X54794300Y-55694739D01*
X54794300Y-55490861D01*
X54754526Y-55290902D01*
X54676505Y-55102544D01*
X54594300Y-54979515D01*
X54594300Y-47806466D01*
X54605063Y-47822574D01*
X54749226Y-47966737D01*
X54918744Y-48080005D01*
X55107102Y-48158026D01*
X55307061Y-48197800D01*
X55510939Y-48197800D01*
X55710898Y-48158026D01*
X55899256Y-48080005D01*
X56022285Y-47997800D01*
X57426433Y-47997800D01*
X62915508Y-53486875D01*
X62944374Y-53631998D01*
X63022395Y-53820356D01*
X63135663Y-53989874D01*
X63279826Y-54134037D01*
X63449344Y-54247305D01*
X63637702Y-54325326D01*
X63837661Y-54365100D01*
X64041539Y-54365100D01*
X64241498Y-54325326D01*
X64429856Y-54247305D01*
X64599374Y-54134037D01*
X64743537Y-53989874D01*
X64856805Y-53820356D01*
X64934826Y-53631998D01*
X64974600Y-53432039D01*
X64974600Y-53228161D01*
X64934826Y-53028202D01*
X64856805Y-52839844D01*
X64743537Y-52670326D01*
X64599374Y-52526163D01*
X64429856Y-52412895D01*
X64241498Y-52334874D01*
X64096375Y-52306008D01*
X58391746Y-46601379D01*
X58365591Y-46569509D01*
X58238446Y-46465164D01*
X58093387Y-46387628D01*
X57935989Y-46339882D01*
X57813319Y-46327800D01*
X57813318Y-46327800D01*
X57772300Y-46323760D01*
X57731282Y-46327800D01*
X56022285Y-46327800D01*
X55899256Y-46245595D01*
X55710898Y-46167574D01*
X55510939Y-46127800D01*
X55307061Y-46127800D01*
X55107102Y-46167574D01*
X54918744Y-46245595D01*
X54749226Y-46358863D01*
X54605063Y-46503026D01*
X54594300Y-46519134D01*
X54594300Y-45363967D01*
X56339675Y-43618592D01*
X56484798Y-43589726D01*
X56673156Y-43511705D01*
X56842674Y-43398437D01*
X56986837Y-43254274D01*
X57100105Y-43084756D01*
X57178126Y-42896398D01*
X57206993Y-42751274D01*
X58850081Y-41108186D01*
X71299714Y-41108186D01*
X71422323Y-41323000D01*
X73273000Y-41323000D01*
X73273000Y-41303000D01*
X73527000Y-41303000D01*
X73527000Y-41323000D01*
X75377677Y-41323000D01*
X75500286Y-41108186D01*
X75485870Y-41035785D01*
X75379469Y-40783909D01*
X75225974Y-40557631D01*
X75031284Y-40365646D01*
X74802880Y-40215332D01*
X74549540Y-40112466D01*
X74281000Y-40061000D01*
X72519000Y-40061000D01*
X72250460Y-40112466D01*
X71997120Y-40215332D01*
X71768716Y-40365646D01*
X71574026Y-40557631D01*
X71420531Y-40783909D01*
X71314130Y-41035785D01*
X71299714Y-41108186D01*
X58850081Y-41108186D01*
X65761168Y-34197100D01*
X70017315Y-34197100D01*
X70140344Y-34279305D01*
X70328702Y-34357326D01*
X70528661Y-34397100D01*
X70732539Y-34397100D01*
X70932498Y-34357326D01*
X71120856Y-34279305D01*
X71290374Y-34166037D01*
X71434537Y-34021874D01*
X71547805Y-33852356D01*
X71625826Y-33663998D01*
X71665600Y-33464039D01*
X71665600Y-33260161D01*
X71625826Y-33060202D01*
X71547805Y-32871844D01*
X71434537Y-32702326D01*
X71290374Y-32558163D01*
X71120856Y-32444895D01*
X70932498Y-32366874D01*
X70732539Y-32327100D01*
X70528661Y-32327100D01*
X70328702Y-32366874D01*
X70140344Y-32444895D01*
X70017315Y-32527100D01*
X65456307Y-32527100D01*
X65415299Y-32523061D01*
X65374291Y-32527100D01*
X65374281Y-32527100D01*
X65251611Y-32539182D01*
X65094213Y-32586928D01*
X64949154Y-32664464D01*
X64822009Y-32768809D01*
X64795859Y-32800673D01*
X56026126Y-41570407D01*
X55881002Y-41599274D01*
X55692644Y-41677295D01*
X55523126Y-41790563D01*
X55378963Y-41934726D01*
X55265695Y-42104244D01*
X55187674Y-42292602D01*
X55158808Y-42437725D01*
X53197874Y-44398659D01*
X53166010Y-44424809D01*
X53139862Y-44456671D01*
X53061664Y-44551955D01*
X52984128Y-44697014D01*
X52936382Y-44854412D01*
X52920260Y-45018100D01*
X52924301Y-45059129D01*
X52924300Y-54979515D01*
X52847709Y-55094142D01*
X52143000Y-54389433D01*
X52143000Y-37667500D01*
X52244191Y-37667500D01*
X52244191Y-34847500D01*
X52143000Y-34847500D01*
X52143000Y-31269572D01*
X52158000Y-31269572D01*
X52282482Y-31257312D01*
X52402180Y-31221002D01*
X52512494Y-31162037D01*
X52609185Y-31082685D01*
X52688537Y-30985994D01*
X52737243Y-30894872D01*
X58725000Y-30894872D01*
X58725000Y-31335128D01*
X58810890Y-31766925D01*
X58979369Y-32173669D01*
X59223962Y-32539729D01*
X59535271Y-32851038D01*
X59901331Y-33095631D01*
X60308075Y-33264110D01*
X60739872Y-33350000D01*
X61180128Y-33350000D01*
X61611925Y-33264110D01*
X62018669Y-33095631D01*
X62384729Y-32851038D01*
X62696038Y-32539729D01*
X62940631Y-32173669D01*
X63109110Y-31766925D01*
X63195000Y-31335128D01*
X63195000Y-30894872D01*
X63109110Y-30463075D01*
X62940631Y-30056331D01*
X62696038Y-29690271D01*
X62384729Y-29378962D01*
X62018669Y-29134369D01*
X61611925Y-28965890D01*
X61180128Y-28880000D01*
X60739872Y-28880000D01*
X60308075Y-28965890D01*
X59901331Y-29134369D01*
X59535271Y-29378962D01*
X59223962Y-29690271D01*
X58979369Y-30056331D01*
X58810890Y-30463075D01*
X58725000Y-30894872D01*
X52737243Y-30894872D01*
X52747502Y-30875680D01*
X52783812Y-30755982D01*
X52796072Y-30631500D01*
X52796072Y-28931500D01*
X52783812Y-28807018D01*
X52747502Y-28687320D01*
X52732899Y-28660000D01*
X75967721Y-28660000D01*
X76065424Y-28669580D01*
M02*
