G04 #@! TF.GenerationSoftware,KiCad,Pcbnew,(5.1.0)-1*
G04 #@! TF.CreationDate,2020-04-04T17:21:39+01:00*
G04 #@! TF.ProjectId,Camera Adapter,43616d65-7261-4204-9164-61707465722e,rev?*
G04 #@! TF.SameCoordinates,Original*
G04 #@! TF.FileFunction,Paste,Top*
G04 #@! TF.FilePolarity,Positive*
%FSLAX46Y46*%
G04 Gerber Fmt 4.6, Leading zero omitted, Abs format (unit mm)*
G04 Created by KiCad (PCBNEW (5.1.0)-1) date 2020-04-04 17:21:39*
%MOMM*%
%LPD*%
G04 APERTURE LIST*
%ADD10R,3.200000X0.700000*%
%ADD11C,0.100000*%
%ADD12C,1.150000*%
%ADD13C,1.000000*%
%ADD14C,1.500000*%
%ADD15R,1.650000X0.610000*%
%ADD16R,2.200000X0.600000*%
%ADD17R,2.600000X1.800000*%
G04 APERTURE END LIST*
D10*
X66200000Y-45930000D03*
X66200000Y-46950000D03*
X66200000Y-47970000D03*
X66200000Y-48990000D03*
X66200000Y-50010000D03*
X66200000Y-51030000D03*
X66200000Y-52050000D03*
X66200000Y-53070000D03*
D11*
G36*
X65435005Y-32645704D02*
G01*
X65459273Y-32649304D01*
X65483072Y-32655265D01*
X65506171Y-32663530D01*
X65528350Y-32674020D01*
X65549393Y-32686632D01*
X65569099Y-32701247D01*
X65587277Y-32717723D01*
X65603753Y-32735901D01*
X65618368Y-32755607D01*
X65630980Y-32776650D01*
X65641470Y-32798829D01*
X65649735Y-32821928D01*
X65655696Y-32845727D01*
X65659296Y-32869995D01*
X65660500Y-32894499D01*
X65660500Y-33544501D01*
X65659296Y-33569005D01*
X65655696Y-33593273D01*
X65649735Y-33617072D01*
X65641470Y-33640171D01*
X65630980Y-33662350D01*
X65618368Y-33683393D01*
X65603753Y-33703099D01*
X65587277Y-33721277D01*
X65569099Y-33737753D01*
X65549393Y-33752368D01*
X65528350Y-33764980D01*
X65506171Y-33775470D01*
X65483072Y-33783735D01*
X65459273Y-33789696D01*
X65435005Y-33793296D01*
X65410501Y-33794500D01*
X64510499Y-33794500D01*
X64485995Y-33793296D01*
X64461727Y-33789696D01*
X64437928Y-33783735D01*
X64414829Y-33775470D01*
X64392650Y-33764980D01*
X64371607Y-33752368D01*
X64351901Y-33737753D01*
X64333723Y-33721277D01*
X64317247Y-33703099D01*
X64302632Y-33683393D01*
X64290020Y-33662350D01*
X64279530Y-33640171D01*
X64271265Y-33617072D01*
X64265304Y-33593273D01*
X64261704Y-33569005D01*
X64260500Y-33544501D01*
X64260500Y-32894499D01*
X64261704Y-32869995D01*
X64265304Y-32845727D01*
X64271265Y-32821928D01*
X64279530Y-32798829D01*
X64290020Y-32776650D01*
X64302632Y-32755607D01*
X64317247Y-32735901D01*
X64333723Y-32717723D01*
X64351901Y-32701247D01*
X64371607Y-32686632D01*
X64392650Y-32674020D01*
X64414829Y-32663530D01*
X64437928Y-32655265D01*
X64461727Y-32649304D01*
X64485995Y-32645704D01*
X64510499Y-32644500D01*
X65410501Y-32644500D01*
X65435005Y-32645704D01*
X65435005Y-32645704D01*
G37*
D12*
X64960500Y-33219500D03*
D11*
G36*
X65435005Y-30595704D02*
G01*
X65459273Y-30599304D01*
X65483072Y-30605265D01*
X65506171Y-30613530D01*
X65528350Y-30624020D01*
X65549393Y-30636632D01*
X65569099Y-30651247D01*
X65587277Y-30667723D01*
X65603753Y-30685901D01*
X65618368Y-30705607D01*
X65630980Y-30726650D01*
X65641470Y-30748829D01*
X65649735Y-30771928D01*
X65655696Y-30795727D01*
X65659296Y-30819995D01*
X65660500Y-30844499D01*
X65660500Y-31494501D01*
X65659296Y-31519005D01*
X65655696Y-31543273D01*
X65649735Y-31567072D01*
X65641470Y-31590171D01*
X65630980Y-31612350D01*
X65618368Y-31633393D01*
X65603753Y-31653099D01*
X65587277Y-31671277D01*
X65569099Y-31687753D01*
X65549393Y-31702368D01*
X65528350Y-31714980D01*
X65506171Y-31725470D01*
X65483072Y-31733735D01*
X65459273Y-31739696D01*
X65435005Y-31743296D01*
X65410501Y-31744500D01*
X64510499Y-31744500D01*
X64485995Y-31743296D01*
X64461727Y-31739696D01*
X64437928Y-31733735D01*
X64414829Y-31725470D01*
X64392650Y-31714980D01*
X64371607Y-31702368D01*
X64351901Y-31687753D01*
X64333723Y-31671277D01*
X64317247Y-31653099D01*
X64302632Y-31633393D01*
X64290020Y-31612350D01*
X64279530Y-31590171D01*
X64271265Y-31567072D01*
X64265304Y-31543273D01*
X64261704Y-31519005D01*
X64260500Y-31494501D01*
X64260500Y-30844499D01*
X64261704Y-30819995D01*
X64265304Y-30795727D01*
X64271265Y-30771928D01*
X64279530Y-30748829D01*
X64290020Y-30726650D01*
X64302632Y-30705607D01*
X64317247Y-30685901D01*
X64333723Y-30667723D01*
X64351901Y-30651247D01*
X64371607Y-30636632D01*
X64392650Y-30624020D01*
X64414829Y-30613530D01*
X64437928Y-30605265D01*
X64461727Y-30599304D01*
X64485995Y-30595704D01*
X64510499Y-30594500D01*
X65410501Y-30594500D01*
X65435005Y-30595704D01*
X65435005Y-30595704D01*
G37*
D12*
X64960500Y-31169500D03*
D11*
G36*
X54894005Y-29643204D02*
G01*
X54918273Y-29646804D01*
X54942072Y-29652765D01*
X54965171Y-29661030D01*
X54987350Y-29671520D01*
X55008393Y-29684132D01*
X55028099Y-29698747D01*
X55046277Y-29715223D01*
X55062753Y-29733401D01*
X55077368Y-29753107D01*
X55089980Y-29774150D01*
X55100470Y-29796329D01*
X55108735Y-29819428D01*
X55114696Y-29843227D01*
X55118296Y-29867495D01*
X55119500Y-29891999D01*
X55119500Y-30542001D01*
X55118296Y-30566505D01*
X55114696Y-30590773D01*
X55108735Y-30614572D01*
X55100470Y-30637671D01*
X55089980Y-30659850D01*
X55077368Y-30680893D01*
X55062753Y-30700599D01*
X55046277Y-30718777D01*
X55028099Y-30735253D01*
X55008393Y-30749868D01*
X54987350Y-30762480D01*
X54965171Y-30772970D01*
X54942072Y-30781235D01*
X54918273Y-30787196D01*
X54894005Y-30790796D01*
X54869501Y-30792000D01*
X53969499Y-30792000D01*
X53944995Y-30790796D01*
X53920727Y-30787196D01*
X53896928Y-30781235D01*
X53873829Y-30772970D01*
X53851650Y-30762480D01*
X53830607Y-30749868D01*
X53810901Y-30735253D01*
X53792723Y-30718777D01*
X53776247Y-30700599D01*
X53761632Y-30680893D01*
X53749020Y-30659850D01*
X53738530Y-30637671D01*
X53730265Y-30614572D01*
X53724304Y-30590773D01*
X53720704Y-30566505D01*
X53719500Y-30542001D01*
X53719500Y-29891999D01*
X53720704Y-29867495D01*
X53724304Y-29843227D01*
X53730265Y-29819428D01*
X53738530Y-29796329D01*
X53749020Y-29774150D01*
X53761632Y-29753107D01*
X53776247Y-29733401D01*
X53792723Y-29715223D01*
X53810901Y-29698747D01*
X53830607Y-29684132D01*
X53851650Y-29671520D01*
X53873829Y-29661030D01*
X53896928Y-29652765D01*
X53920727Y-29646804D01*
X53944995Y-29643204D01*
X53969499Y-29642000D01*
X54869501Y-29642000D01*
X54894005Y-29643204D01*
X54894005Y-29643204D01*
G37*
D12*
X54419500Y-30217000D03*
D11*
G36*
X54894005Y-31693204D02*
G01*
X54918273Y-31696804D01*
X54942072Y-31702765D01*
X54965171Y-31711030D01*
X54987350Y-31721520D01*
X55008393Y-31734132D01*
X55028099Y-31748747D01*
X55046277Y-31765223D01*
X55062753Y-31783401D01*
X55077368Y-31803107D01*
X55089980Y-31824150D01*
X55100470Y-31846329D01*
X55108735Y-31869428D01*
X55114696Y-31893227D01*
X55118296Y-31917495D01*
X55119500Y-31941999D01*
X55119500Y-32592001D01*
X55118296Y-32616505D01*
X55114696Y-32640773D01*
X55108735Y-32664572D01*
X55100470Y-32687671D01*
X55089980Y-32709850D01*
X55077368Y-32730893D01*
X55062753Y-32750599D01*
X55046277Y-32768777D01*
X55028099Y-32785253D01*
X55008393Y-32799868D01*
X54987350Y-32812480D01*
X54965171Y-32822970D01*
X54942072Y-32831235D01*
X54918273Y-32837196D01*
X54894005Y-32840796D01*
X54869501Y-32842000D01*
X53969499Y-32842000D01*
X53944995Y-32840796D01*
X53920727Y-32837196D01*
X53896928Y-32831235D01*
X53873829Y-32822970D01*
X53851650Y-32812480D01*
X53830607Y-32799868D01*
X53810901Y-32785253D01*
X53792723Y-32768777D01*
X53776247Y-32750599D01*
X53761632Y-32730893D01*
X53749020Y-32709850D01*
X53738530Y-32687671D01*
X53730265Y-32664572D01*
X53724304Y-32640773D01*
X53720704Y-32616505D01*
X53719500Y-32592001D01*
X53719500Y-31941999D01*
X53720704Y-31917495D01*
X53724304Y-31893227D01*
X53730265Y-31869428D01*
X53738530Y-31846329D01*
X53749020Y-31824150D01*
X53761632Y-31803107D01*
X53776247Y-31783401D01*
X53792723Y-31765223D01*
X53810901Y-31748747D01*
X53830607Y-31734132D01*
X53851650Y-31721520D01*
X53873829Y-31711030D01*
X53896928Y-31702765D01*
X53920727Y-31696804D01*
X53944995Y-31693204D01*
X53969499Y-31692000D01*
X54869501Y-31692000D01*
X54894005Y-31693204D01*
X54894005Y-31693204D01*
G37*
D12*
X54419500Y-32267000D03*
D11*
G36*
X54506005Y-33654704D02*
G01*
X54530273Y-33658304D01*
X54554072Y-33664265D01*
X54577171Y-33672530D01*
X54599350Y-33683020D01*
X54620393Y-33695632D01*
X54640099Y-33710247D01*
X54658277Y-33726723D01*
X54674753Y-33744901D01*
X54689368Y-33764607D01*
X54701980Y-33785650D01*
X54712470Y-33807829D01*
X54720735Y-33830928D01*
X54726696Y-33854727D01*
X54730296Y-33878995D01*
X54731500Y-33903499D01*
X54731500Y-34803501D01*
X54730296Y-34828005D01*
X54726696Y-34852273D01*
X54720735Y-34876072D01*
X54712470Y-34899171D01*
X54701980Y-34921350D01*
X54689368Y-34942393D01*
X54674753Y-34962099D01*
X54658277Y-34980277D01*
X54640099Y-34996753D01*
X54620393Y-35011368D01*
X54599350Y-35023980D01*
X54577171Y-35034470D01*
X54554072Y-35042735D01*
X54530273Y-35048696D01*
X54506005Y-35052296D01*
X54481501Y-35053500D01*
X53831499Y-35053500D01*
X53806995Y-35052296D01*
X53782727Y-35048696D01*
X53758928Y-35042735D01*
X53735829Y-35034470D01*
X53713650Y-35023980D01*
X53692607Y-35011368D01*
X53672901Y-34996753D01*
X53654723Y-34980277D01*
X53638247Y-34962099D01*
X53623632Y-34942393D01*
X53611020Y-34921350D01*
X53600530Y-34899171D01*
X53592265Y-34876072D01*
X53586304Y-34852273D01*
X53582704Y-34828005D01*
X53581500Y-34803501D01*
X53581500Y-33903499D01*
X53582704Y-33878995D01*
X53586304Y-33854727D01*
X53592265Y-33830928D01*
X53600530Y-33807829D01*
X53611020Y-33785650D01*
X53623632Y-33764607D01*
X53638247Y-33744901D01*
X53654723Y-33726723D01*
X53672901Y-33710247D01*
X53692607Y-33695632D01*
X53713650Y-33683020D01*
X53735829Y-33672530D01*
X53758928Y-33664265D01*
X53782727Y-33658304D01*
X53806995Y-33654704D01*
X53831499Y-33653500D01*
X54481501Y-33653500D01*
X54506005Y-33654704D01*
X54506005Y-33654704D01*
G37*
D12*
X54156500Y-34353500D03*
D11*
G36*
X56556005Y-33654704D02*
G01*
X56580273Y-33658304D01*
X56604072Y-33664265D01*
X56627171Y-33672530D01*
X56649350Y-33683020D01*
X56670393Y-33695632D01*
X56690099Y-33710247D01*
X56708277Y-33726723D01*
X56724753Y-33744901D01*
X56739368Y-33764607D01*
X56751980Y-33785650D01*
X56762470Y-33807829D01*
X56770735Y-33830928D01*
X56776696Y-33854727D01*
X56780296Y-33878995D01*
X56781500Y-33903499D01*
X56781500Y-34803501D01*
X56780296Y-34828005D01*
X56776696Y-34852273D01*
X56770735Y-34876072D01*
X56762470Y-34899171D01*
X56751980Y-34921350D01*
X56739368Y-34942393D01*
X56724753Y-34962099D01*
X56708277Y-34980277D01*
X56690099Y-34996753D01*
X56670393Y-35011368D01*
X56649350Y-35023980D01*
X56627171Y-35034470D01*
X56604072Y-35042735D01*
X56580273Y-35048696D01*
X56556005Y-35052296D01*
X56531501Y-35053500D01*
X55881499Y-35053500D01*
X55856995Y-35052296D01*
X55832727Y-35048696D01*
X55808928Y-35042735D01*
X55785829Y-35034470D01*
X55763650Y-35023980D01*
X55742607Y-35011368D01*
X55722901Y-34996753D01*
X55704723Y-34980277D01*
X55688247Y-34962099D01*
X55673632Y-34942393D01*
X55661020Y-34921350D01*
X55650530Y-34899171D01*
X55642265Y-34876072D01*
X55636304Y-34852273D01*
X55632704Y-34828005D01*
X55631500Y-34803501D01*
X55631500Y-33903499D01*
X55632704Y-33878995D01*
X55636304Y-33854727D01*
X55642265Y-33830928D01*
X55650530Y-33807829D01*
X55661020Y-33785650D01*
X55673632Y-33764607D01*
X55688247Y-33744901D01*
X55704723Y-33726723D01*
X55722901Y-33710247D01*
X55742607Y-33695632D01*
X55763650Y-33683020D01*
X55785829Y-33672530D01*
X55808928Y-33664265D01*
X55832727Y-33658304D01*
X55856995Y-33654704D01*
X55881499Y-33653500D01*
X56531501Y-33653500D01*
X56556005Y-33654704D01*
X56556005Y-33654704D01*
G37*
D12*
X56206500Y-34353500D03*
D11*
G36*
X74986504Y-30965704D02*
G01*
X75010773Y-30969304D01*
X75034571Y-30975265D01*
X75057671Y-30983530D01*
X75079849Y-30994020D01*
X75100893Y-31006633D01*
X75120598Y-31021247D01*
X75138777Y-31037723D01*
X75155253Y-31055902D01*
X75169867Y-31075607D01*
X75182480Y-31096651D01*
X75192970Y-31118829D01*
X75201235Y-31141929D01*
X75207196Y-31165727D01*
X75210796Y-31189996D01*
X75212000Y-31214500D01*
X75212000Y-31714500D01*
X75210796Y-31739004D01*
X75207196Y-31763273D01*
X75201235Y-31787071D01*
X75192970Y-31810171D01*
X75182480Y-31832349D01*
X75169867Y-31853393D01*
X75155253Y-31873098D01*
X75138777Y-31891277D01*
X75120598Y-31907753D01*
X75100893Y-31922367D01*
X75079849Y-31934980D01*
X75057671Y-31945470D01*
X75034571Y-31953735D01*
X75010773Y-31959696D01*
X74986504Y-31963296D01*
X74962000Y-31964500D01*
X71962000Y-31964500D01*
X71937496Y-31963296D01*
X71913227Y-31959696D01*
X71889429Y-31953735D01*
X71866329Y-31945470D01*
X71844151Y-31934980D01*
X71823107Y-31922367D01*
X71803402Y-31907753D01*
X71785223Y-31891277D01*
X71768747Y-31873098D01*
X71754133Y-31853393D01*
X71741520Y-31832349D01*
X71731030Y-31810171D01*
X71722765Y-31787071D01*
X71716804Y-31763273D01*
X71713204Y-31739004D01*
X71712000Y-31714500D01*
X71712000Y-31214500D01*
X71713204Y-31189996D01*
X71716804Y-31165727D01*
X71722765Y-31141929D01*
X71731030Y-31118829D01*
X71741520Y-31096651D01*
X71754133Y-31075607D01*
X71768747Y-31055902D01*
X71785223Y-31037723D01*
X71803402Y-31021247D01*
X71823107Y-31006633D01*
X71844151Y-30994020D01*
X71866329Y-30983530D01*
X71889429Y-30975265D01*
X71913227Y-30969304D01*
X71937496Y-30965704D01*
X71962000Y-30964500D01*
X74962000Y-30964500D01*
X74986504Y-30965704D01*
X74986504Y-30965704D01*
G37*
D13*
X73462000Y-31464500D03*
D11*
G36*
X74986504Y-32965704D02*
G01*
X75010773Y-32969304D01*
X75034571Y-32975265D01*
X75057671Y-32983530D01*
X75079849Y-32994020D01*
X75100893Y-33006633D01*
X75120598Y-33021247D01*
X75138777Y-33037723D01*
X75155253Y-33055902D01*
X75169867Y-33075607D01*
X75182480Y-33096651D01*
X75192970Y-33118829D01*
X75201235Y-33141929D01*
X75207196Y-33165727D01*
X75210796Y-33189996D01*
X75212000Y-33214500D01*
X75212000Y-33714500D01*
X75210796Y-33739004D01*
X75207196Y-33763273D01*
X75201235Y-33787071D01*
X75192970Y-33810171D01*
X75182480Y-33832349D01*
X75169867Y-33853393D01*
X75155253Y-33873098D01*
X75138777Y-33891277D01*
X75120598Y-33907753D01*
X75100893Y-33922367D01*
X75079849Y-33934980D01*
X75057671Y-33945470D01*
X75034571Y-33953735D01*
X75010773Y-33959696D01*
X74986504Y-33963296D01*
X74962000Y-33964500D01*
X71962000Y-33964500D01*
X71937496Y-33963296D01*
X71913227Y-33959696D01*
X71889429Y-33953735D01*
X71866329Y-33945470D01*
X71844151Y-33934980D01*
X71823107Y-33922367D01*
X71803402Y-33907753D01*
X71785223Y-33891277D01*
X71768747Y-33873098D01*
X71754133Y-33853393D01*
X71741520Y-33832349D01*
X71731030Y-33810171D01*
X71722765Y-33787071D01*
X71716804Y-33763273D01*
X71713204Y-33739004D01*
X71712000Y-33714500D01*
X71712000Y-33214500D01*
X71713204Y-33189996D01*
X71716804Y-33165727D01*
X71722765Y-33141929D01*
X71731030Y-33118829D01*
X71741520Y-33096651D01*
X71754133Y-33075607D01*
X71768747Y-33055902D01*
X71785223Y-33037723D01*
X71803402Y-33021247D01*
X71823107Y-33006633D01*
X71844151Y-32994020D01*
X71866329Y-32983530D01*
X71889429Y-32975265D01*
X71913227Y-32969304D01*
X71937496Y-32965704D01*
X71962000Y-32964500D01*
X74962000Y-32964500D01*
X74986504Y-32965704D01*
X74986504Y-32965704D01*
G37*
D13*
X73462000Y-33464500D03*
D11*
G36*
X74986504Y-34965704D02*
G01*
X75010773Y-34969304D01*
X75034571Y-34975265D01*
X75057671Y-34983530D01*
X75079849Y-34994020D01*
X75100893Y-35006633D01*
X75120598Y-35021247D01*
X75138777Y-35037723D01*
X75155253Y-35055902D01*
X75169867Y-35075607D01*
X75182480Y-35096651D01*
X75192970Y-35118829D01*
X75201235Y-35141929D01*
X75207196Y-35165727D01*
X75210796Y-35189996D01*
X75212000Y-35214500D01*
X75212000Y-35714500D01*
X75210796Y-35739004D01*
X75207196Y-35763273D01*
X75201235Y-35787071D01*
X75192970Y-35810171D01*
X75182480Y-35832349D01*
X75169867Y-35853393D01*
X75155253Y-35873098D01*
X75138777Y-35891277D01*
X75120598Y-35907753D01*
X75100893Y-35922367D01*
X75079849Y-35934980D01*
X75057671Y-35945470D01*
X75034571Y-35953735D01*
X75010773Y-35959696D01*
X74986504Y-35963296D01*
X74962000Y-35964500D01*
X71962000Y-35964500D01*
X71937496Y-35963296D01*
X71913227Y-35959696D01*
X71889429Y-35953735D01*
X71866329Y-35945470D01*
X71844151Y-35934980D01*
X71823107Y-35922367D01*
X71803402Y-35907753D01*
X71785223Y-35891277D01*
X71768747Y-35873098D01*
X71754133Y-35853393D01*
X71741520Y-35832349D01*
X71731030Y-35810171D01*
X71722765Y-35787071D01*
X71716804Y-35763273D01*
X71713204Y-35739004D01*
X71712000Y-35714500D01*
X71712000Y-35214500D01*
X71713204Y-35189996D01*
X71716804Y-35165727D01*
X71722765Y-35141929D01*
X71731030Y-35118829D01*
X71741520Y-35096651D01*
X71754133Y-35075607D01*
X71768747Y-35055902D01*
X71785223Y-35037723D01*
X71803402Y-35021247D01*
X71823107Y-35006633D01*
X71844151Y-34994020D01*
X71866329Y-34983530D01*
X71889429Y-34975265D01*
X71913227Y-34969304D01*
X71937496Y-34965704D01*
X71962000Y-34964500D01*
X74962000Y-34964500D01*
X74986504Y-34965704D01*
X74986504Y-34965704D01*
G37*
D13*
X73462000Y-35464500D03*
D11*
G36*
X69186504Y-28365704D02*
G01*
X69210773Y-28369304D01*
X69234571Y-28375265D01*
X69257671Y-28383530D01*
X69279849Y-28394020D01*
X69300893Y-28406633D01*
X69320598Y-28421247D01*
X69338777Y-28437723D01*
X69355253Y-28455902D01*
X69369867Y-28475607D01*
X69382480Y-28496651D01*
X69392970Y-28518829D01*
X69401235Y-28541929D01*
X69407196Y-28565727D01*
X69410796Y-28589996D01*
X69412000Y-28614500D01*
X69412000Y-29614500D01*
X69410796Y-29639004D01*
X69407196Y-29663273D01*
X69401235Y-29687071D01*
X69392970Y-29710171D01*
X69382480Y-29732349D01*
X69369867Y-29753393D01*
X69355253Y-29773098D01*
X69338777Y-29791277D01*
X69320598Y-29807753D01*
X69300893Y-29822367D01*
X69279849Y-29834980D01*
X69257671Y-29845470D01*
X69234571Y-29853735D01*
X69210773Y-29859696D01*
X69186504Y-29863296D01*
X69162000Y-29864500D01*
X66262000Y-29864500D01*
X66237496Y-29863296D01*
X66213227Y-29859696D01*
X66189429Y-29853735D01*
X66166329Y-29845470D01*
X66144151Y-29834980D01*
X66123107Y-29822367D01*
X66103402Y-29807753D01*
X66085223Y-29791277D01*
X66068747Y-29773098D01*
X66054133Y-29753393D01*
X66041520Y-29732349D01*
X66031030Y-29710171D01*
X66022765Y-29687071D01*
X66016804Y-29663273D01*
X66013204Y-29639004D01*
X66012000Y-29614500D01*
X66012000Y-28614500D01*
X66013204Y-28589996D01*
X66016804Y-28565727D01*
X66022765Y-28541929D01*
X66031030Y-28518829D01*
X66041520Y-28496651D01*
X66054133Y-28475607D01*
X66068747Y-28455902D01*
X66085223Y-28437723D01*
X66103402Y-28421247D01*
X66123107Y-28406633D01*
X66144151Y-28394020D01*
X66166329Y-28383530D01*
X66189429Y-28375265D01*
X66213227Y-28369304D01*
X66237496Y-28365704D01*
X66262000Y-28364500D01*
X69162000Y-28364500D01*
X69186504Y-28365704D01*
X69186504Y-28365704D01*
G37*
D14*
X67712000Y-29114500D03*
D11*
G36*
X69186504Y-37065704D02*
G01*
X69210773Y-37069304D01*
X69234571Y-37075265D01*
X69257671Y-37083530D01*
X69279849Y-37094020D01*
X69300893Y-37106633D01*
X69320598Y-37121247D01*
X69338777Y-37137723D01*
X69355253Y-37155902D01*
X69369867Y-37175607D01*
X69382480Y-37196651D01*
X69392970Y-37218829D01*
X69401235Y-37241929D01*
X69407196Y-37265727D01*
X69410796Y-37289996D01*
X69412000Y-37314500D01*
X69412000Y-38314500D01*
X69410796Y-38339004D01*
X69407196Y-38363273D01*
X69401235Y-38387071D01*
X69392970Y-38410171D01*
X69382480Y-38432349D01*
X69369867Y-38453393D01*
X69355253Y-38473098D01*
X69338777Y-38491277D01*
X69320598Y-38507753D01*
X69300893Y-38522367D01*
X69279849Y-38534980D01*
X69257671Y-38545470D01*
X69234571Y-38553735D01*
X69210773Y-38559696D01*
X69186504Y-38563296D01*
X69162000Y-38564500D01*
X66262000Y-38564500D01*
X66237496Y-38563296D01*
X66213227Y-38559696D01*
X66189429Y-38553735D01*
X66166329Y-38545470D01*
X66144151Y-38534980D01*
X66123107Y-38522367D01*
X66103402Y-38507753D01*
X66085223Y-38491277D01*
X66068747Y-38473098D01*
X66054133Y-38453393D01*
X66041520Y-38432349D01*
X66031030Y-38410171D01*
X66022765Y-38387071D01*
X66016804Y-38363273D01*
X66013204Y-38339004D01*
X66012000Y-38314500D01*
X66012000Y-37314500D01*
X66013204Y-37289996D01*
X66016804Y-37265727D01*
X66022765Y-37241929D01*
X66031030Y-37218829D01*
X66041520Y-37196651D01*
X66054133Y-37175607D01*
X66068747Y-37155902D01*
X66085223Y-37137723D01*
X66103402Y-37121247D01*
X66123107Y-37106633D01*
X66144151Y-37094020D01*
X66166329Y-37083530D01*
X66189429Y-37075265D01*
X66213227Y-37069304D01*
X66237496Y-37065704D01*
X66262000Y-37064500D01*
X69162000Y-37064500D01*
X69186504Y-37065704D01*
X69186504Y-37065704D01*
G37*
D14*
X67712000Y-37814500D03*
D10*
X66200000Y-71570000D03*
X66200000Y-70550000D03*
X66200000Y-69530000D03*
X66200000Y-68510000D03*
X66200000Y-67490000D03*
X66200000Y-66470000D03*
X66200000Y-65450000D03*
X66200000Y-64430000D03*
D11*
G36*
X57053005Y-31756704D02*
G01*
X57077273Y-31760304D01*
X57101072Y-31766265D01*
X57124171Y-31774530D01*
X57146350Y-31785020D01*
X57167393Y-31797632D01*
X57187099Y-31812247D01*
X57205277Y-31828723D01*
X57221753Y-31846901D01*
X57236368Y-31866607D01*
X57248980Y-31887650D01*
X57259470Y-31909829D01*
X57267735Y-31932928D01*
X57273696Y-31956727D01*
X57277296Y-31980995D01*
X57278500Y-32005499D01*
X57278500Y-32655501D01*
X57277296Y-32680005D01*
X57273696Y-32704273D01*
X57267735Y-32728072D01*
X57259470Y-32751171D01*
X57248980Y-32773350D01*
X57236368Y-32794393D01*
X57221753Y-32814099D01*
X57205277Y-32832277D01*
X57187099Y-32848753D01*
X57167393Y-32863368D01*
X57146350Y-32875980D01*
X57124171Y-32886470D01*
X57101072Y-32894735D01*
X57077273Y-32900696D01*
X57053005Y-32904296D01*
X57028501Y-32905500D01*
X56128499Y-32905500D01*
X56103995Y-32904296D01*
X56079727Y-32900696D01*
X56055928Y-32894735D01*
X56032829Y-32886470D01*
X56010650Y-32875980D01*
X55989607Y-32863368D01*
X55969901Y-32848753D01*
X55951723Y-32832277D01*
X55935247Y-32814099D01*
X55920632Y-32794393D01*
X55908020Y-32773350D01*
X55897530Y-32751171D01*
X55889265Y-32728072D01*
X55883304Y-32704273D01*
X55879704Y-32680005D01*
X55878500Y-32655501D01*
X55878500Y-32005499D01*
X55879704Y-31980995D01*
X55883304Y-31956727D01*
X55889265Y-31932928D01*
X55897530Y-31909829D01*
X55908020Y-31887650D01*
X55920632Y-31866607D01*
X55935247Y-31846901D01*
X55951723Y-31828723D01*
X55969901Y-31812247D01*
X55989607Y-31797632D01*
X56010650Y-31785020D01*
X56032829Y-31774530D01*
X56055928Y-31766265D01*
X56079727Y-31760304D01*
X56103995Y-31756704D01*
X56128499Y-31755500D01*
X57028501Y-31755500D01*
X57053005Y-31756704D01*
X57053005Y-31756704D01*
G37*
D12*
X56578500Y-32330500D03*
D11*
G36*
X57053005Y-29706704D02*
G01*
X57077273Y-29710304D01*
X57101072Y-29716265D01*
X57124171Y-29724530D01*
X57146350Y-29735020D01*
X57167393Y-29747632D01*
X57187099Y-29762247D01*
X57205277Y-29778723D01*
X57221753Y-29796901D01*
X57236368Y-29816607D01*
X57248980Y-29837650D01*
X57259470Y-29859829D01*
X57267735Y-29882928D01*
X57273696Y-29906727D01*
X57277296Y-29930995D01*
X57278500Y-29955499D01*
X57278500Y-30605501D01*
X57277296Y-30630005D01*
X57273696Y-30654273D01*
X57267735Y-30678072D01*
X57259470Y-30701171D01*
X57248980Y-30723350D01*
X57236368Y-30744393D01*
X57221753Y-30764099D01*
X57205277Y-30782277D01*
X57187099Y-30798753D01*
X57167393Y-30813368D01*
X57146350Y-30825980D01*
X57124171Y-30836470D01*
X57101072Y-30844735D01*
X57077273Y-30850696D01*
X57053005Y-30854296D01*
X57028501Y-30855500D01*
X56128499Y-30855500D01*
X56103995Y-30854296D01*
X56079727Y-30850696D01*
X56055928Y-30844735D01*
X56032829Y-30836470D01*
X56010650Y-30825980D01*
X55989607Y-30813368D01*
X55969901Y-30798753D01*
X55951723Y-30782277D01*
X55935247Y-30764099D01*
X55920632Y-30744393D01*
X55908020Y-30723350D01*
X55897530Y-30701171D01*
X55889265Y-30678072D01*
X55883304Y-30654273D01*
X55879704Y-30630005D01*
X55878500Y-30605501D01*
X55878500Y-29955499D01*
X55879704Y-29930995D01*
X55883304Y-29906727D01*
X55889265Y-29882928D01*
X55897530Y-29859829D01*
X55908020Y-29837650D01*
X55920632Y-29816607D01*
X55935247Y-29796901D01*
X55951723Y-29778723D01*
X55969901Y-29762247D01*
X55989607Y-29747632D01*
X56010650Y-29735020D01*
X56032829Y-29724530D01*
X56055928Y-29716265D01*
X56079727Y-29710304D01*
X56103995Y-29706704D01*
X56128499Y-29705500D01*
X57028501Y-29705500D01*
X57053005Y-29706704D01*
X57053005Y-29706704D01*
G37*
D12*
X56578500Y-30280500D03*
D15*
X58393500Y-38798500D03*
X58393500Y-37528500D03*
X58393500Y-36258500D03*
X58393500Y-34988500D03*
X63653500Y-34988500D03*
X63653500Y-36258500D03*
X63653500Y-37528500D03*
X63653500Y-38798500D03*
D16*
X53708000Y-40815000D03*
X53708000Y-39815000D03*
X53708000Y-41815000D03*
X53708000Y-38815000D03*
D17*
X51308000Y-53415000D03*
X51308000Y-34215000D03*
D16*
X53708000Y-37815000D03*
X53708000Y-36815000D03*
X53708000Y-42815000D03*
X53708000Y-43815000D03*
X53708000Y-44815000D03*
X53708000Y-45815000D03*
X53708000Y-46815000D03*
X53708000Y-47815000D03*
X53708000Y-48815000D03*
X53708000Y-49815000D03*
X53708000Y-50815000D03*
X53708000Y-73548000D03*
X53708000Y-72548000D03*
X53708000Y-71548000D03*
X53708000Y-70548000D03*
X53708000Y-69548000D03*
X53708000Y-68548000D03*
X53708000Y-67548000D03*
X53708000Y-66548000D03*
X53708000Y-65548000D03*
X53708000Y-59548000D03*
X53708000Y-60548000D03*
D17*
X51308000Y-56948000D03*
X51308000Y-76148000D03*
D16*
X53708000Y-61548000D03*
X53708000Y-64548000D03*
X53708000Y-62548000D03*
X53708000Y-63548000D03*
M02*
