M48
; DRILL file {KiCad (5.1.0)-1} date 02/04/2020 13:58:49
; FORMAT={3:3/ absolute / metric / suppress leading zeros}
; #@! TF.CreationDate,2020-04-02T13:58:49+01:00
; #@! TF.GenerationSoftware,Kicad,Pcbnew,(5.1.0)-1
FMAT,2
METRIC,TZ
T1C0.400
T2C1.000
T3C3.200
%
G90
G05
T1
X56909Y-69533
X56918Y-56103
X57263Y-53865
X57431Y-68530
X57702Y-58271
X63200Y-49875
X63275Y-50959
X63755Y-72015
T2
X70000Y-30460
X70000Y-33000
T3
X60000Y-74000
X60000Y-43000
T2
G00X72700Y-41450
M15
G01X74100Y-41450
M16
G05
G00X72700Y-57550
M15
G01X74100Y-57550
M16
G05
G00X72700Y-59950
M15
G01X74100Y-59950
M16
G05
G00X72700Y-76050
M15
G01X74100Y-76050
M16
G05
T0
M30
