G04 #@! TF.GenerationSoftware,KiCad,Pcbnew,(5.1.0)-1*
G04 #@! TF.CreationDate,2020-04-05T15:17:06+01:00*
G04 #@! TF.ProjectId,Camera Adapter,43616d65-7261-4204-9164-61707465722e,rev?*
G04 #@! TF.SameCoordinates,Original*
G04 #@! TF.FileFunction,Copper,L1,Top*
G04 #@! TF.FilePolarity,Positive*
%FSLAX46Y46*%
G04 Gerber Fmt 4.6, Leading zero omitted, Abs format (unit mm)*
G04 Created by KiCad (PCBNEW (5.1.0)-1) date 2020-04-05 15:17:06*
%MOMM*%
%LPD*%
G04 APERTURE LIST*
%ADD10R,3.200000X0.700000*%
%ADD11O,3.016000X1.508000*%
%ADD12C,0.100000*%
%ADD13C,1.150000*%
%ADD14R,1.700000X1.700000*%
%ADD15O,1.700000X1.700000*%
%ADD16C,1.000000*%
%ADD17C,1.500000*%
%ADD18R,1.650000X0.610000*%
%ADD19R,2.200000X0.600000*%
%ADD20R,2.600000X1.800000*%
%ADD21C,2.000000*%
%ADD22C,0.400000*%
%ADD23C,0.254000*%
G04 APERTURE END LIST*
D10*
X66200000Y-45930000D03*
X66200000Y-46950000D03*
X66200000Y-47970000D03*
X66200000Y-48990000D03*
X66200000Y-50010000D03*
X66200000Y-51030000D03*
X66200000Y-52050000D03*
X66200000Y-53070000D03*
D11*
X73400000Y-57550000D03*
X73400000Y-41450000D03*
D12*
G36*
X65117505Y-32709204D02*
G01*
X65141773Y-32712804D01*
X65165572Y-32718765D01*
X65188671Y-32727030D01*
X65210850Y-32737520D01*
X65231893Y-32750132D01*
X65251599Y-32764747D01*
X65269777Y-32781223D01*
X65286253Y-32799401D01*
X65300868Y-32819107D01*
X65313480Y-32840150D01*
X65323970Y-32862329D01*
X65332235Y-32885428D01*
X65338196Y-32909227D01*
X65341796Y-32933495D01*
X65343000Y-32957999D01*
X65343000Y-33608001D01*
X65341796Y-33632505D01*
X65338196Y-33656773D01*
X65332235Y-33680572D01*
X65323970Y-33703671D01*
X65313480Y-33725850D01*
X65300868Y-33746893D01*
X65286253Y-33766599D01*
X65269777Y-33784777D01*
X65251599Y-33801253D01*
X65231893Y-33815868D01*
X65210850Y-33828480D01*
X65188671Y-33838970D01*
X65165572Y-33847235D01*
X65141773Y-33853196D01*
X65117505Y-33856796D01*
X65093001Y-33858000D01*
X64192999Y-33858000D01*
X64168495Y-33856796D01*
X64144227Y-33853196D01*
X64120428Y-33847235D01*
X64097329Y-33838970D01*
X64075150Y-33828480D01*
X64054107Y-33815868D01*
X64034401Y-33801253D01*
X64016223Y-33784777D01*
X63999747Y-33766599D01*
X63985132Y-33746893D01*
X63972520Y-33725850D01*
X63962030Y-33703671D01*
X63953765Y-33680572D01*
X63947804Y-33656773D01*
X63944204Y-33632505D01*
X63943000Y-33608001D01*
X63943000Y-32957999D01*
X63944204Y-32933495D01*
X63947804Y-32909227D01*
X63953765Y-32885428D01*
X63962030Y-32862329D01*
X63972520Y-32840150D01*
X63985132Y-32819107D01*
X63999747Y-32799401D01*
X64016223Y-32781223D01*
X64034401Y-32764747D01*
X64054107Y-32750132D01*
X64075150Y-32737520D01*
X64097329Y-32727030D01*
X64120428Y-32718765D01*
X64144227Y-32712804D01*
X64168495Y-32709204D01*
X64192999Y-32708000D01*
X65093001Y-32708000D01*
X65117505Y-32709204D01*
X65117505Y-32709204D01*
G37*
D13*
X64643000Y-33283000D03*
D12*
G36*
X65117505Y-30659204D02*
G01*
X65141773Y-30662804D01*
X65165572Y-30668765D01*
X65188671Y-30677030D01*
X65210850Y-30687520D01*
X65231893Y-30700132D01*
X65251599Y-30714747D01*
X65269777Y-30731223D01*
X65286253Y-30749401D01*
X65300868Y-30769107D01*
X65313480Y-30790150D01*
X65323970Y-30812329D01*
X65332235Y-30835428D01*
X65338196Y-30859227D01*
X65341796Y-30883495D01*
X65343000Y-30907999D01*
X65343000Y-31558001D01*
X65341796Y-31582505D01*
X65338196Y-31606773D01*
X65332235Y-31630572D01*
X65323970Y-31653671D01*
X65313480Y-31675850D01*
X65300868Y-31696893D01*
X65286253Y-31716599D01*
X65269777Y-31734777D01*
X65251599Y-31751253D01*
X65231893Y-31765868D01*
X65210850Y-31778480D01*
X65188671Y-31788970D01*
X65165572Y-31797235D01*
X65141773Y-31803196D01*
X65117505Y-31806796D01*
X65093001Y-31808000D01*
X64192999Y-31808000D01*
X64168495Y-31806796D01*
X64144227Y-31803196D01*
X64120428Y-31797235D01*
X64097329Y-31788970D01*
X64075150Y-31778480D01*
X64054107Y-31765868D01*
X64034401Y-31751253D01*
X64016223Y-31734777D01*
X63999747Y-31716599D01*
X63985132Y-31696893D01*
X63972520Y-31675850D01*
X63962030Y-31653671D01*
X63953765Y-31630572D01*
X63947804Y-31606773D01*
X63944204Y-31582505D01*
X63943000Y-31558001D01*
X63943000Y-30907999D01*
X63944204Y-30883495D01*
X63947804Y-30859227D01*
X63953765Y-30835428D01*
X63962030Y-30812329D01*
X63972520Y-30790150D01*
X63985132Y-30769107D01*
X63999747Y-30749401D01*
X64016223Y-30731223D01*
X64034401Y-30714747D01*
X64054107Y-30700132D01*
X64075150Y-30687520D01*
X64097329Y-30677030D01*
X64120428Y-30668765D01*
X64144227Y-30662804D01*
X64168495Y-30659204D01*
X64192999Y-30658000D01*
X65093001Y-30658000D01*
X65117505Y-30659204D01*
X65117505Y-30659204D01*
G37*
D13*
X64643000Y-31233000D03*
D12*
G36*
X54894005Y-29643204D02*
G01*
X54918273Y-29646804D01*
X54942072Y-29652765D01*
X54965171Y-29661030D01*
X54987350Y-29671520D01*
X55008393Y-29684132D01*
X55028099Y-29698747D01*
X55046277Y-29715223D01*
X55062753Y-29733401D01*
X55077368Y-29753107D01*
X55089980Y-29774150D01*
X55100470Y-29796329D01*
X55108735Y-29819428D01*
X55114696Y-29843227D01*
X55118296Y-29867495D01*
X55119500Y-29891999D01*
X55119500Y-30542001D01*
X55118296Y-30566505D01*
X55114696Y-30590773D01*
X55108735Y-30614572D01*
X55100470Y-30637671D01*
X55089980Y-30659850D01*
X55077368Y-30680893D01*
X55062753Y-30700599D01*
X55046277Y-30718777D01*
X55028099Y-30735253D01*
X55008393Y-30749868D01*
X54987350Y-30762480D01*
X54965171Y-30772970D01*
X54942072Y-30781235D01*
X54918273Y-30787196D01*
X54894005Y-30790796D01*
X54869501Y-30792000D01*
X53969499Y-30792000D01*
X53944995Y-30790796D01*
X53920727Y-30787196D01*
X53896928Y-30781235D01*
X53873829Y-30772970D01*
X53851650Y-30762480D01*
X53830607Y-30749868D01*
X53810901Y-30735253D01*
X53792723Y-30718777D01*
X53776247Y-30700599D01*
X53761632Y-30680893D01*
X53749020Y-30659850D01*
X53738530Y-30637671D01*
X53730265Y-30614572D01*
X53724304Y-30590773D01*
X53720704Y-30566505D01*
X53719500Y-30542001D01*
X53719500Y-29891999D01*
X53720704Y-29867495D01*
X53724304Y-29843227D01*
X53730265Y-29819428D01*
X53738530Y-29796329D01*
X53749020Y-29774150D01*
X53761632Y-29753107D01*
X53776247Y-29733401D01*
X53792723Y-29715223D01*
X53810901Y-29698747D01*
X53830607Y-29684132D01*
X53851650Y-29671520D01*
X53873829Y-29661030D01*
X53896928Y-29652765D01*
X53920727Y-29646804D01*
X53944995Y-29643204D01*
X53969499Y-29642000D01*
X54869501Y-29642000D01*
X54894005Y-29643204D01*
X54894005Y-29643204D01*
G37*
D13*
X54419500Y-30217000D03*
D12*
G36*
X54894005Y-31693204D02*
G01*
X54918273Y-31696804D01*
X54942072Y-31702765D01*
X54965171Y-31711030D01*
X54987350Y-31721520D01*
X55008393Y-31734132D01*
X55028099Y-31748747D01*
X55046277Y-31765223D01*
X55062753Y-31783401D01*
X55077368Y-31803107D01*
X55089980Y-31824150D01*
X55100470Y-31846329D01*
X55108735Y-31869428D01*
X55114696Y-31893227D01*
X55118296Y-31917495D01*
X55119500Y-31941999D01*
X55119500Y-32592001D01*
X55118296Y-32616505D01*
X55114696Y-32640773D01*
X55108735Y-32664572D01*
X55100470Y-32687671D01*
X55089980Y-32709850D01*
X55077368Y-32730893D01*
X55062753Y-32750599D01*
X55046277Y-32768777D01*
X55028099Y-32785253D01*
X55008393Y-32799868D01*
X54987350Y-32812480D01*
X54965171Y-32822970D01*
X54942072Y-32831235D01*
X54918273Y-32837196D01*
X54894005Y-32840796D01*
X54869501Y-32842000D01*
X53969499Y-32842000D01*
X53944995Y-32840796D01*
X53920727Y-32837196D01*
X53896928Y-32831235D01*
X53873829Y-32822970D01*
X53851650Y-32812480D01*
X53830607Y-32799868D01*
X53810901Y-32785253D01*
X53792723Y-32768777D01*
X53776247Y-32750599D01*
X53761632Y-32730893D01*
X53749020Y-32709850D01*
X53738530Y-32687671D01*
X53730265Y-32664572D01*
X53724304Y-32640773D01*
X53720704Y-32616505D01*
X53719500Y-32592001D01*
X53719500Y-31941999D01*
X53720704Y-31917495D01*
X53724304Y-31893227D01*
X53730265Y-31869428D01*
X53738530Y-31846329D01*
X53749020Y-31824150D01*
X53761632Y-31803107D01*
X53776247Y-31783401D01*
X53792723Y-31765223D01*
X53810901Y-31748747D01*
X53830607Y-31734132D01*
X53851650Y-31721520D01*
X53873829Y-31711030D01*
X53896928Y-31702765D01*
X53920727Y-31696804D01*
X53944995Y-31693204D01*
X53969499Y-31692000D01*
X54869501Y-31692000D01*
X54894005Y-31693204D01*
X54894005Y-31693204D01*
G37*
D13*
X54419500Y-32267000D03*
D12*
G36*
X54506005Y-33654704D02*
G01*
X54530273Y-33658304D01*
X54554072Y-33664265D01*
X54577171Y-33672530D01*
X54599350Y-33683020D01*
X54620393Y-33695632D01*
X54640099Y-33710247D01*
X54658277Y-33726723D01*
X54674753Y-33744901D01*
X54689368Y-33764607D01*
X54701980Y-33785650D01*
X54712470Y-33807829D01*
X54720735Y-33830928D01*
X54726696Y-33854727D01*
X54730296Y-33878995D01*
X54731500Y-33903499D01*
X54731500Y-34803501D01*
X54730296Y-34828005D01*
X54726696Y-34852273D01*
X54720735Y-34876072D01*
X54712470Y-34899171D01*
X54701980Y-34921350D01*
X54689368Y-34942393D01*
X54674753Y-34962099D01*
X54658277Y-34980277D01*
X54640099Y-34996753D01*
X54620393Y-35011368D01*
X54599350Y-35023980D01*
X54577171Y-35034470D01*
X54554072Y-35042735D01*
X54530273Y-35048696D01*
X54506005Y-35052296D01*
X54481501Y-35053500D01*
X53831499Y-35053500D01*
X53806995Y-35052296D01*
X53782727Y-35048696D01*
X53758928Y-35042735D01*
X53735829Y-35034470D01*
X53713650Y-35023980D01*
X53692607Y-35011368D01*
X53672901Y-34996753D01*
X53654723Y-34980277D01*
X53638247Y-34962099D01*
X53623632Y-34942393D01*
X53611020Y-34921350D01*
X53600530Y-34899171D01*
X53592265Y-34876072D01*
X53586304Y-34852273D01*
X53582704Y-34828005D01*
X53581500Y-34803501D01*
X53581500Y-33903499D01*
X53582704Y-33878995D01*
X53586304Y-33854727D01*
X53592265Y-33830928D01*
X53600530Y-33807829D01*
X53611020Y-33785650D01*
X53623632Y-33764607D01*
X53638247Y-33744901D01*
X53654723Y-33726723D01*
X53672901Y-33710247D01*
X53692607Y-33695632D01*
X53713650Y-33683020D01*
X53735829Y-33672530D01*
X53758928Y-33664265D01*
X53782727Y-33658304D01*
X53806995Y-33654704D01*
X53831499Y-33653500D01*
X54481501Y-33653500D01*
X54506005Y-33654704D01*
X54506005Y-33654704D01*
G37*
D13*
X54156500Y-34353500D03*
D12*
G36*
X56556005Y-33654704D02*
G01*
X56580273Y-33658304D01*
X56604072Y-33664265D01*
X56627171Y-33672530D01*
X56649350Y-33683020D01*
X56670393Y-33695632D01*
X56690099Y-33710247D01*
X56708277Y-33726723D01*
X56724753Y-33744901D01*
X56739368Y-33764607D01*
X56751980Y-33785650D01*
X56762470Y-33807829D01*
X56770735Y-33830928D01*
X56776696Y-33854727D01*
X56780296Y-33878995D01*
X56781500Y-33903499D01*
X56781500Y-34803501D01*
X56780296Y-34828005D01*
X56776696Y-34852273D01*
X56770735Y-34876072D01*
X56762470Y-34899171D01*
X56751980Y-34921350D01*
X56739368Y-34942393D01*
X56724753Y-34962099D01*
X56708277Y-34980277D01*
X56690099Y-34996753D01*
X56670393Y-35011368D01*
X56649350Y-35023980D01*
X56627171Y-35034470D01*
X56604072Y-35042735D01*
X56580273Y-35048696D01*
X56556005Y-35052296D01*
X56531501Y-35053500D01*
X55881499Y-35053500D01*
X55856995Y-35052296D01*
X55832727Y-35048696D01*
X55808928Y-35042735D01*
X55785829Y-35034470D01*
X55763650Y-35023980D01*
X55742607Y-35011368D01*
X55722901Y-34996753D01*
X55704723Y-34980277D01*
X55688247Y-34962099D01*
X55673632Y-34942393D01*
X55661020Y-34921350D01*
X55650530Y-34899171D01*
X55642265Y-34876072D01*
X55636304Y-34852273D01*
X55632704Y-34828005D01*
X55631500Y-34803501D01*
X55631500Y-33903499D01*
X55632704Y-33878995D01*
X55636304Y-33854727D01*
X55642265Y-33830928D01*
X55650530Y-33807829D01*
X55661020Y-33785650D01*
X55673632Y-33764607D01*
X55688247Y-33744901D01*
X55704723Y-33726723D01*
X55722901Y-33710247D01*
X55742607Y-33695632D01*
X55763650Y-33683020D01*
X55785829Y-33672530D01*
X55808928Y-33664265D01*
X55832727Y-33658304D01*
X55856995Y-33654704D01*
X55881499Y-33653500D01*
X56531501Y-33653500D01*
X56556005Y-33654704D01*
X56556005Y-33654704D01*
G37*
D13*
X56206500Y-34353500D03*
D14*
X51308000Y-29781500D03*
D15*
X48768000Y-29781500D03*
D12*
G36*
X74986504Y-30965704D02*
G01*
X75010773Y-30969304D01*
X75034571Y-30975265D01*
X75057671Y-30983530D01*
X75079849Y-30994020D01*
X75100893Y-31006633D01*
X75120598Y-31021247D01*
X75138777Y-31037723D01*
X75155253Y-31055902D01*
X75169867Y-31075607D01*
X75182480Y-31096651D01*
X75192970Y-31118829D01*
X75201235Y-31141929D01*
X75207196Y-31165727D01*
X75210796Y-31189996D01*
X75212000Y-31214500D01*
X75212000Y-31714500D01*
X75210796Y-31739004D01*
X75207196Y-31763273D01*
X75201235Y-31787071D01*
X75192970Y-31810171D01*
X75182480Y-31832349D01*
X75169867Y-31853393D01*
X75155253Y-31873098D01*
X75138777Y-31891277D01*
X75120598Y-31907753D01*
X75100893Y-31922367D01*
X75079849Y-31934980D01*
X75057671Y-31945470D01*
X75034571Y-31953735D01*
X75010773Y-31959696D01*
X74986504Y-31963296D01*
X74962000Y-31964500D01*
X71962000Y-31964500D01*
X71937496Y-31963296D01*
X71913227Y-31959696D01*
X71889429Y-31953735D01*
X71866329Y-31945470D01*
X71844151Y-31934980D01*
X71823107Y-31922367D01*
X71803402Y-31907753D01*
X71785223Y-31891277D01*
X71768747Y-31873098D01*
X71754133Y-31853393D01*
X71741520Y-31832349D01*
X71731030Y-31810171D01*
X71722765Y-31787071D01*
X71716804Y-31763273D01*
X71713204Y-31739004D01*
X71712000Y-31714500D01*
X71712000Y-31214500D01*
X71713204Y-31189996D01*
X71716804Y-31165727D01*
X71722765Y-31141929D01*
X71731030Y-31118829D01*
X71741520Y-31096651D01*
X71754133Y-31075607D01*
X71768747Y-31055902D01*
X71785223Y-31037723D01*
X71803402Y-31021247D01*
X71823107Y-31006633D01*
X71844151Y-30994020D01*
X71866329Y-30983530D01*
X71889429Y-30975265D01*
X71913227Y-30969304D01*
X71937496Y-30965704D01*
X71962000Y-30964500D01*
X74962000Y-30964500D01*
X74986504Y-30965704D01*
X74986504Y-30965704D01*
G37*
D16*
X73462000Y-31464500D03*
D12*
G36*
X74986504Y-32965704D02*
G01*
X75010773Y-32969304D01*
X75034571Y-32975265D01*
X75057671Y-32983530D01*
X75079849Y-32994020D01*
X75100893Y-33006633D01*
X75120598Y-33021247D01*
X75138777Y-33037723D01*
X75155253Y-33055902D01*
X75169867Y-33075607D01*
X75182480Y-33096651D01*
X75192970Y-33118829D01*
X75201235Y-33141929D01*
X75207196Y-33165727D01*
X75210796Y-33189996D01*
X75212000Y-33214500D01*
X75212000Y-33714500D01*
X75210796Y-33739004D01*
X75207196Y-33763273D01*
X75201235Y-33787071D01*
X75192970Y-33810171D01*
X75182480Y-33832349D01*
X75169867Y-33853393D01*
X75155253Y-33873098D01*
X75138777Y-33891277D01*
X75120598Y-33907753D01*
X75100893Y-33922367D01*
X75079849Y-33934980D01*
X75057671Y-33945470D01*
X75034571Y-33953735D01*
X75010773Y-33959696D01*
X74986504Y-33963296D01*
X74962000Y-33964500D01*
X71962000Y-33964500D01*
X71937496Y-33963296D01*
X71913227Y-33959696D01*
X71889429Y-33953735D01*
X71866329Y-33945470D01*
X71844151Y-33934980D01*
X71823107Y-33922367D01*
X71803402Y-33907753D01*
X71785223Y-33891277D01*
X71768747Y-33873098D01*
X71754133Y-33853393D01*
X71741520Y-33832349D01*
X71731030Y-33810171D01*
X71722765Y-33787071D01*
X71716804Y-33763273D01*
X71713204Y-33739004D01*
X71712000Y-33714500D01*
X71712000Y-33214500D01*
X71713204Y-33189996D01*
X71716804Y-33165727D01*
X71722765Y-33141929D01*
X71731030Y-33118829D01*
X71741520Y-33096651D01*
X71754133Y-33075607D01*
X71768747Y-33055902D01*
X71785223Y-33037723D01*
X71803402Y-33021247D01*
X71823107Y-33006633D01*
X71844151Y-32994020D01*
X71866329Y-32983530D01*
X71889429Y-32975265D01*
X71913227Y-32969304D01*
X71937496Y-32965704D01*
X71962000Y-32964500D01*
X74962000Y-32964500D01*
X74986504Y-32965704D01*
X74986504Y-32965704D01*
G37*
D16*
X73462000Y-33464500D03*
D12*
G36*
X74986504Y-34965704D02*
G01*
X75010773Y-34969304D01*
X75034571Y-34975265D01*
X75057671Y-34983530D01*
X75079849Y-34994020D01*
X75100893Y-35006633D01*
X75120598Y-35021247D01*
X75138777Y-35037723D01*
X75155253Y-35055902D01*
X75169867Y-35075607D01*
X75182480Y-35096651D01*
X75192970Y-35118829D01*
X75201235Y-35141929D01*
X75207196Y-35165727D01*
X75210796Y-35189996D01*
X75212000Y-35214500D01*
X75212000Y-35714500D01*
X75210796Y-35739004D01*
X75207196Y-35763273D01*
X75201235Y-35787071D01*
X75192970Y-35810171D01*
X75182480Y-35832349D01*
X75169867Y-35853393D01*
X75155253Y-35873098D01*
X75138777Y-35891277D01*
X75120598Y-35907753D01*
X75100893Y-35922367D01*
X75079849Y-35934980D01*
X75057671Y-35945470D01*
X75034571Y-35953735D01*
X75010773Y-35959696D01*
X74986504Y-35963296D01*
X74962000Y-35964500D01*
X71962000Y-35964500D01*
X71937496Y-35963296D01*
X71913227Y-35959696D01*
X71889429Y-35953735D01*
X71866329Y-35945470D01*
X71844151Y-35934980D01*
X71823107Y-35922367D01*
X71803402Y-35907753D01*
X71785223Y-35891277D01*
X71768747Y-35873098D01*
X71754133Y-35853393D01*
X71741520Y-35832349D01*
X71731030Y-35810171D01*
X71722765Y-35787071D01*
X71716804Y-35763273D01*
X71713204Y-35739004D01*
X71712000Y-35714500D01*
X71712000Y-35214500D01*
X71713204Y-35189996D01*
X71716804Y-35165727D01*
X71722765Y-35141929D01*
X71731030Y-35118829D01*
X71741520Y-35096651D01*
X71754133Y-35075607D01*
X71768747Y-35055902D01*
X71785223Y-35037723D01*
X71803402Y-35021247D01*
X71823107Y-35006633D01*
X71844151Y-34994020D01*
X71866329Y-34983530D01*
X71889429Y-34975265D01*
X71913227Y-34969304D01*
X71937496Y-34965704D01*
X71962000Y-34964500D01*
X74962000Y-34964500D01*
X74986504Y-34965704D01*
X74986504Y-34965704D01*
G37*
D16*
X73462000Y-35464500D03*
D12*
G36*
X69186504Y-28365704D02*
G01*
X69210773Y-28369304D01*
X69234571Y-28375265D01*
X69257671Y-28383530D01*
X69279849Y-28394020D01*
X69300893Y-28406633D01*
X69320598Y-28421247D01*
X69338777Y-28437723D01*
X69355253Y-28455902D01*
X69369867Y-28475607D01*
X69382480Y-28496651D01*
X69392970Y-28518829D01*
X69401235Y-28541929D01*
X69407196Y-28565727D01*
X69410796Y-28589996D01*
X69412000Y-28614500D01*
X69412000Y-29614500D01*
X69410796Y-29639004D01*
X69407196Y-29663273D01*
X69401235Y-29687071D01*
X69392970Y-29710171D01*
X69382480Y-29732349D01*
X69369867Y-29753393D01*
X69355253Y-29773098D01*
X69338777Y-29791277D01*
X69320598Y-29807753D01*
X69300893Y-29822367D01*
X69279849Y-29834980D01*
X69257671Y-29845470D01*
X69234571Y-29853735D01*
X69210773Y-29859696D01*
X69186504Y-29863296D01*
X69162000Y-29864500D01*
X66262000Y-29864500D01*
X66237496Y-29863296D01*
X66213227Y-29859696D01*
X66189429Y-29853735D01*
X66166329Y-29845470D01*
X66144151Y-29834980D01*
X66123107Y-29822367D01*
X66103402Y-29807753D01*
X66085223Y-29791277D01*
X66068747Y-29773098D01*
X66054133Y-29753393D01*
X66041520Y-29732349D01*
X66031030Y-29710171D01*
X66022765Y-29687071D01*
X66016804Y-29663273D01*
X66013204Y-29639004D01*
X66012000Y-29614500D01*
X66012000Y-28614500D01*
X66013204Y-28589996D01*
X66016804Y-28565727D01*
X66022765Y-28541929D01*
X66031030Y-28518829D01*
X66041520Y-28496651D01*
X66054133Y-28475607D01*
X66068747Y-28455902D01*
X66085223Y-28437723D01*
X66103402Y-28421247D01*
X66123107Y-28406633D01*
X66144151Y-28394020D01*
X66166329Y-28383530D01*
X66189429Y-28375265D01*
X66213227Y-28369304D01*
X66237496Y-28365704D01*
X66262000Y-28364500D01*
X69162000Y-28364500D01*
X69186504Y-28365704D01*
X69186504Y-28365704D01*
G37*
D17*
X67712000Y-29114500D03*
D12*
G36*
X69186504Y-37065704D02*
G01*
X69210773Y-37069304D01*
X69234571Y-37075265D01*
X69257671Y-37083530D01*
X69279849Y-37094020D01*
X69300893Y-37106633D01*
X69320598Y-37121247D01*
X69338777Y-37137723D01*
X69355253Y-37155902D01*
X69369867Y-37175607D01*
X69382480Y-37196651D01*
X69392970Y-37218829D01*
X69401235Y-37241929D01*
X69407196Y-37265727D01*
X69410796Y-37289996D01*
X69412000Y-37314500D01*
X69412000Y-38314500D01*
X69410796Y-38339004D01*
X69407196Y-38363273D01*
X69401235Y-38387071D01*
X69392970Y-38410171D01*
X69382480Y-38432349D01*
X69369867Y-38453393D01*
X69355253Y-38473098D01*
X69338777Y-38491277D01*
X69320598Y-38507753D01*
X69300893Y-38522367D01*
X69279849Y-38534980D01*
X69257671Y-38545470D01*
X69234571Y-38553735D01*
X69210773Y-38559696D01*
X69186504Y-38563296D01*
X69162000Y-38564500D01*
X66262000Y-38564500D01*
X66237496Y-38563296D01*
X66213227Y-38559696D01*
X66189429Y-38553735D01*
X66166329Y-38545470D01*
X66144151Y-38534980D01*
X66123107Y-38522367D01*
X66103402Y-38507753D01*
X66085223Y-38491277D01*
X66068747Y-38473098D01*
X66054133Y-38453393D01*
X66041520Y-38432349D01*
X66031030Y-38410171D01*
X66022765Y-38387071D01*
X66016804Y-38363273D01*
X66013204Y-38339004D01*
X66012000Y-38314500D01*
X66012000Y-37314500D01*
X66013204Y-37289996D01*
X66016804Y-37265727D01*
X66022765Y-37241929D01*
X66031030Y-37218829D01*
X66041520Y-37196651D01*
X66054133Y-37175607D01*
X66068747Y-37155902D01*
X66085223Y-37137723D01*
X66103402Y-37121247D01*
X66123107Y-37106633D01*
X66144151Y-37094020D01*
X66166329Y-37083530D01*
X66189429Y-37075265D01*
X66213227Y-37069304D01*
X66237496Y-37065704D01*
X66262000Y-37064500D01*
X69162000Y-37064500D01*
X69186504Y-37065704D01*
X69186504Y-37065704D01*
G37*
D17*
X67712000Y-37814500D03*
D11*
X73400000Y-59950000D03*
X73400000Y-76050000D03*
D10*
X66200000Y-71570000D03*
X66200000Y-70550000D03*
X66200000Y-69530000D03*
X66200000Y-68510000D03*
X66200000Y-67490000D03*
X66200000Y-66470000D03*
X66200000Y-65450000D03*
X66200000Y-64430000D03*
D12*
G36*
X57053005Y-31756704D02*
G01*
X57077273Y-31760304D01*
X57101072Y-31766265D01*
X57124171Y-31774530D01*
X57146350Y-31785020D01*
X57167393Y-31797632D01*
X57187099Y-31812247D01*
X57205277Y-31828723D01*
X57221753Y-31846901D01*
X57236368Y-31866607D01*
X57248980Y-31887650D01*
X57259470Y-31909829D01*
X57267735Y-31932928D01*
X57273696Y-31956727D01*
X57277296Y-31980995D01*
X57278500Y-32005499D01*
X57278500Y-32655501D01*
X57277296Y-32680005D01*
X57273696Y-32704273D01*
X57267735Y-32728072D01*
X57259470Y-32751171D01*
X57248980Y-32773350D01*
X57236368Y-32794393D01*
X57221753Y-32814099D01*
X57205277Y-32832277D01*
X57187099Y-32848753D01*
X57167393Y-32863368D01*
X57146350Y-32875980D01*
X57124171Y-32886470D01*
X57101072Y-32894735D01*
X57077273Y-32900696D01*
X57053005Y-32904296D01*
X57028501Y-32905500D01*
X56128499Y-32905500D01*
X56103995Y-32904296D01*
X56079727Y-32900696D01*
X56055928Y-32894735D01*
X56032829Y-32886470D01*
X56010650Y-32875980D01*
X55989607Y-32863368D01*
X55969901Y-32848753D01*
X55951723Y-32832277D01*
X55935247Y-32814099D01*
X55920632Y-32794393D01*
X55908020Y-32773350D01*
X55897530Y-32751171D01*
X55889265Y-32728072D01*
X55883304Y-32704273D01*
X55879704Y-32680005D01*
X55878500Y-32655501D01*
X55878500Y-32005499D01*
X55879704Y-31980995D01*
X55883304Y-31956727D01*
X55889265Y-31932928D01*
X55897530Y-31909829D01*
X55908020Y-31887650D01*
X55920632Y-31866607D01*
X55935247Y-31846901D01*
X55951723Y-31828723D01*
X55969901Y-31812247D01*
X55989607Y-31797632D01*
X56010650Y-31785020D01*
X56032829Y-31774530D01*
X56055928Y-31766265D01*
X56079727Y-31760304D01*
X56103995Y-31756704D01*
X56128499Y-31755500D01*
X57028501Y-31755500D01*
X57053005Y-31756704D01*
X57053005Y-31756704D01*
G37*
D13*
X56578500Y-32330500D03*
D12*
G36*
X57053005Y-29706704D02*
G01*
X57077273Y-29710304D01*
X57101072Y-29716265D01*
X57124171Y-29724530D01*
X57146350Y-29735020D01*
X57167393Y-29747632D01*
X57187099Y-29762247D01*
X57205277Y-29778723D01*
X57221753Y-29796901D01*
X57236368Y-29816607D01*
X57248980Y-29837650D01*
X57259470Y-29859829D01*
X57267735Y-29882928D01*
X57273696Y-29906727D01*
X57277296Y-29930995D01*
X57278500Y-29955499D01*
X57278500Y-30605501D01*
X57277296Y-30630005D01*
X57273696Y-30654273D01*
X57267735Y-30678072D01*
X57259470Y-30701171D01*
X57248980Y-30723350D01*
X57236368Y-30744393D01*
X57221753Y-30764099D01*
X57205277Y-30782277D01*
X57187099Y-30798753D01*
X57167393Y-30813368D01*
X57146350Y-30825980D01*
X57124171Y-30836470D01*
X57101072Y-30844735D01*
X57077273Y-30850696D01*
X57053005Y-30854296D01*
X57028501Y-30855500D01*
X56128499Y-30855500D01*
X56103995Y-30854296D01*
X56079727Y-30850696D01*
X56055928Y-30844735D01*
X56032829Y-30836470D01*
X56010650Y-30825980D01*
X55989607Y-30813368D01*
X55969901Y-30798753D01*
X55951723Y-30782277D01*
X55935247Y-30764099D01*
X55920632Y-30744393D01*
X55908020Y-30723350D01*
X55897530Y-30701171D01*
X55889265Y-30678072D01*
X55883304Y-30654273D01*
X55879704Y-30630005D01*
X55878500Y-30605501D01*
X55878500Y-29955499D01*
X55879704Y-29930995D01*
X55883304Y-29906727D01*
X55889265Y-29882928D01*
X55897530Y-29859829D01*
X55908020Y-29837650D01*
X55920632Y-29816607D01*
X55935247Y-29796901D01*
X55951723Y-29778723D01*
X55969901Y-29762247D01*
X55989607Y-29747632D01*
X56010650Y-29735020D01*
X56032829Y-29724530D01*
X56055928Y-29716265D01*
X56079727Y-29710304D01*
X56103995Y-29706704D01*
X56128499Y-29705500D01*
X57028501Y-29705500D01*
X57053005Y-29706704D01*
X57053005Y-29706704D01*
G37*
D13*
X56578500Y-30280500D03*
D18*
X58393500Y-38798500D03*
X58393500Y-37528500D03*
X58393500Y-36258500D03*
X58393500Y-34988500D03*
X63653500Y-34988500D03*
X63653500Y-36258500D03*
X63653500Y-37528500D03*
X63653500Y-38798500D03*
D19*
X53708000Y-40815000D03*
X53708000Y-39815000D03*
X53708000Y-41815000D03*
X53708000Y-38815000D03*
D20*
X51308000Y-53415000D03*
X51308000Y-34215000D03*
D19*
X53708000Y-37815000D03*
X53708000Y-36815000D03*
X53708000Y-42815000D03*
X53708000Y-43815000D03*
X53708000Y-44815000D03*
X53708000Y-45815000D03*
X53708000Y-46815000D03*
X53708000Y-47815000D03*
X53708000Y-48815000D03*
X53708000Y-49815000D03*
X53708000Y-50815000D03*
X53708000Y-73548000D03*
X53708000Y-72548000D03*
X53708000Y-71548000D03*
X53708000Y-70548000D03*
X53708000Y-69548000D03*
X53708000Y-68548000D03*
X53708000Y-67548000D03*
X53708000Y-66548000D03*
X53708000Y-65548000D03*
X53708000Y-59548000D03*
X53708000Y-60548000D03*
D20*
X51308000Y-56948000D03*
X51308000Y-76148000D03*
D19*
X53708000Y-61548000D03*
X53708000Y-64548000D03*
X53708000Y-62548000D03*
X53708000Y-63548000D03*
D21*
X69596000Y-76517500D03*
X66805200Y-39776400D03*
X56023900Y-63548000D03*
X56018500Y-41363400D03*
X62240800Y-51228300D03*
X58927800Y-46745300D03*
X63371700Y-53209900D03*
X56678300Y-47563500D03*
X63300000Y-70551600D03*
X54342800Y-76784500D03*
D22*
X72445900Y-41450000D02*
X73462000Y-40433900D01*
X73462000Y-40433900D02*
X73462000Y-35464500D01*
X72445900Y-41450000D02*
X71491700Y-41450000D01*
X73400000Y-41450000D02*
X72445900Y-41450000D01*
X64649600Y-38798500D02*
X64649600Y-39624900D01*
X64649600Y-39624900D02*
X66474700Y-41450000D01*
X66474700Y-41450000D02*
X71491700Y-41450000D01*
X64649600Y-38798500D02*
X64897500Y-38550600D01*
X64897500Y-38550600D02*
X64897500Y-33537500D01*
X64897500Y-33537500D02*
X64643000Y-33283000D01*
X63653500Y-38798500D02*
X64649600Y-38798500D01*
X55208300Y-50815000D02*
X61943300Y-57550000D01*
X61943300Y-57550000D02*
X71491700Y-57550000D01*
X52207800Y-64548000D02*
X49591700Y-61931900D01*
X49591700Y-61931900D02*
X49591700Y-38918300D01*
X49591700Y-38918300D02*
X54156500Y-34353500D01*
X52207800Y-64548000D02*
X52207700Y-64548100D01*
X52207700Y-64548100D02*
X52207700Y-67548000D01*
X52357800Y-64548000D02*
X52207800Y-64548000D01*
X48768000Y-29781500D02*
X50018300Y-29781500D01*
X54156500Y-32541200D02*
X54419500Y-32278200D01*
X54419500Y-32278200D02*
X54419500Y-32267000D01*
X50018300Y-29781500D02*
X50018300Y-30797400D01*
X50018300Y-30797400D02*
X51762100Y-32541200D01*
X51762100Y-32541200D02*
X54156500Y-32541200D01*
X54156500Y-32541200D02*
X54156500Y-34353500D01*
X53708000Y-67548000D02*
X52207700Y-67548000D01*
X53708000Y-70548000D02*
X55208300Y-70548000D01*
X53708000Y-67548000D02*
X55208300Y-67548000D01*
X55208300Y-67548000D02*
X55208300Y-70548000D01*
X53708000Y-50815000D02*
X55208300Y-50815000D01*
X53708000Y-50815000D02*
X53527200Y-50815000D01*
X73400000Y-57550000D02*
X71491700Y-57550000D01*
X73400000Y-59950000D02*
X71491700Y-59950000D01*
X71491700Y-59950000D02*
X71491700Y-57550000D01*
X53708000Y-64548000D02*
X52357800Y-64548000D01*
X53527200Y-50815000D02*
X52207700Y-50815000D01*
X52207700Y-47815000D02*
X52207700Y-44815000D01*
X52357800Y-47815000D02*
X52207700Y-47815000D01*
X53708000Y-47815000D02*
X52357800Y-47815000D01*
X53708000Y-44815000D02*
X52207700Y-44815000D01*
X53708000Y-41815000D02*
X52207700Y-41815000D01*
X52207700Y-41815000D02*
X52207700Y-44815000D01*
X52207700Y-47815000D02*
X52207700Y-50815000D01*
X53708000Y-70548000D02*
X52207700Y-70548000D01*
X53708000Y-73548000D02*
X52207700Y-73548000D01*
X52207700Y-73548000D02*
X52207700Y-70548000D01*
X73400000Y-76050000D02*
X71492000Y-76050000D01*
X71492000Y-76050000D02*
X71024500Y-76517500D01*
X71024500Y-76517500D02*
X69596000Y-76517500D01*
X63653500Y-34988500D02*
X62428200Y-34988500D01*
X62428200Y-34988500D02*
X62428200Y-33447800D01*
X62428200Y-33447800D02*
X64643000Y-31233000D01*
X73462000Y-31464500D02*
X64874500Y-31464500D01*
X64874500Y-31464500D02*
X64643000Y-31233000D01*
X53708000Y-59548000D02*
X52207700Y-59548000D01*
X52207700Y-59548000D02*
X52207700Y-59022800D01*
X52207700Y-59022800D02*
X53046200Y-58184300D01*
X53046200Y-58184300D02*
X53046200Y-52374500D01*
X53046200Y-52374500D02*
X52649100Y-51977400D01*
X52649100Y-51977400D02*
X52518800Y-51977400D01*
X52518800Y-51977400D02*
X51599200Y-51057800D01*
X51599200Y-51057800D02*
X51599200Y-37905400D01*
X51599200Y-37905400D02*
X52689600Y-36815000D01*
X52689600Y-36815000D02*
X53708000Y-36815000D01*
X58393500Y-36258500D02*
X57168200Y-36258500D01*
X57168200Y-36815000D02*
X57168200Y-37528500D01*
X57168200Y-36258500D02*
X57168200Y-36815000D01*
X55208300Y-36815000D02*
X57168200Y-36815000D01*
X58393500Y-37528500D02*
X57168200Y-37528500D01*
X53708000Y-36815000D02*
X55208300Y-36815000D01*
X56578500Y-30280500D02*
X54483000Y-30280500D01*
X54483000Y-30280500D02*
X54419500Y-30217000D01*
X59618800Y-36258500D02*
X59618800Y-33320800D01*
X59618800Y-33320800D02*
X56578500Y-30280500D01*
X59618800Y-36258500D02*
X62428200Y-36258500D01*
X63653500Y-36258500D02*
X62428200Y-36258500D01*
X63653500Y-37528500D02*
X62428200Y-37528500D01*
X62428200Y-37528500D02*
X62428200Y-36258500D01*
X59468700Y-36258500D02*
X59618800Y-36258500D01*
X58393500Y-36258500D02*
X59468700Y-36258500D01*
X51308000Y-29781500D02*
X52558300Y-29781500D01*
X52558300Y-29781500D02*
X52993800Y-30217000D01*
X52993800Y-30217000D02*
X54419500Y-30217000D01*
X56206500Y-34353500D02*
X56206500Y-32702500D01*
X56206500Y-32702500D02*
X56578500Y-32330500D01*
X64199700Y-45930000D02*
X59392600Y-41122900D01*
X59392600Y-41122900D02*
X58922800Y-41122900D01*
X58922800Y-41122900D02*
X55614900Y-37815000D01*
X55614900Y-37815000D02*
X55208300Y-37815000D01*
X66200000Y-45930000D02*
X64199700Y-45930000D01*
X53708000Y-37815000D02*
X55208300Y-37815000D01*
X64199700Y-46950000D02*
X58972900Y-41723200D01*
X58972900Y-41723200D02*
X58674200Y-41723200D01*
X58674200Y-41723200D02*
X55766000Y-38815000D01*
X55766000Y-38815000D02*
X55208300Y-38815000D01*
X66200000Y-46950000D02*
X64199700Y-46950000D01*
X53708000Y-38815000D02*
X55208300Y-38815000D01*
X66805200Y-39776400D02*
X68693000Y-39776400D01*
X68693000Y-39776400D02*
X70349200Y-38120200D01*
X70349200Y-38120200D02*
X70349200Y-35821900D01*
X70349200Y-35821900D02*
X72706600Y-33464500D01*
X72706600Y-33464500D02*
X73462000Y-33464500D01*
X53708000Y-40815000D02*
X55470100Y-40815000D01*
X55470100Y-40815000D02*
X56018500Y-41363400D01*
X53708000Y-63548000D02*
X56023900Y-63548000D01*
X64199700Y-47970000D02*
X59044700Y-42815000D01*
X59044700Y-42815000D02*
X53708000Y-42815000D01*
X66200000Y-47970000D02*
X64199700Y-47970000D01*
X66200000Y-48990000D02*
X64119900Y-48990000D01*
X64119900Y-48990000D02*
X58944900Y-43815000D01*
X58944900Y-43815000D02*
X53708000Y-43815000D01*
X62240800Y-51228300D02*
X63378000Y-51228300D01*
X63378000Y-51228300D02*
X64199700Y-52050000D01*
X53708000Y-45815000D02*
X57997500Y-45815000D01*
X57997500Y-45815000D02*
X58927800Y-46745300D01*
X66200000Y-52050000D02*
X64199700Y-52050000D01*
X53708000Y-46815000D02*
X55929800Y-46815000D01*
X55929800Y-46815000D02*
X56678300Y-47563500D01*
X66200000Y-53070000D02*
X64199700Y-53070000D01*
X63371700Y-53209900D02*
X64059800Y-53209900D01*
X64059800Y-53209900D02*
X64199700Y-53070000D01*
X66200000Y-50010000D02*
X64199700Y-50010000D01*
X64199700Y-50010000D02*
X63170800Y-48981100D01*
X63170800Y-48981100D02*
X55374400Y-48981100D01*
X55374400Y-48981100D02*
X55208300Y-48815000D01*
X53708000Y-48815000D02*
X55208300Y-48815000D01*
X53708000Y-49815000D02*
X62813800Y-49815000D01*
X62813800Y-49815000D02*
X64028800Y-51030000D01*
X64028800Y-51030000D02*
X66200000Y-51030000D01*
X66200000Y-69530000D02*
X64258800Y-69530000D01*
X64258800Y-69530000D02*
X63880100Y-69151300D01*
X63880100Y-69151300D02*
X60470600Y-69151300D01*
X60470600Y-69151300D02*
X57073900Y-72548000D01*
X57073900Y-72548000D02*
X53708000Y-72548000D01*
X53708000Y-71548000D02*
X55208300Y-71548000D01*
X55208300Y-71548000D02*
X58246300Y-68510000D01*
X58246300Y-68510000D02*
X66200000Y-68510000D01*
X52207700Y-69548000D02*
X51603100Y-70152600D01*
X51603100Y-70152600D02*
X51603100Y-73828900D01*
X51603100Y-73828900D02*
X52041800Y-74267600D01*
X52041800Y-74267600D02*
X56503400Y-74267600D01*
X56503400Y-74267600D02*
X58819100Y-71951900D01*
X58819100Y-71951900D02*
X65818100Y-71951900D01*
X65818100Y-71951900D02*
X66200000Y-71570000D01*
X53708000Y-69548000D02*
X52207700Y-69548000D01*
X52207700Y-68548000D02*
X49607600Y-71148100D01*
X49607600Y-71148100D02*
X49607600Y-77213700D01*
X49607600Y-77213700D02*
X49842300Y-77448400D01*
X49842300Y-77448400D02*
X53678900Y-77448400D01*
X53678900Y-77448400D02*
X54342800Y-76784500D01*
X53708000Y-68548000D02*
X52207700Y-68548000D01*
X66200000Y-70550000D02*
X64199700Y-70550000D01*
X63300000Y-70551600D02*
X64198100Y-70551600D01*
X64198100Y-70551600D02*
X64199700Y-70550000D01*
X66200000Y-67490000D02*
X64199700Y-67490000D01*
X64199700Y-67490000D02*
X56150300Y-67490000D01*
X56150300Y-67490000D02*
X55208300Y-66548000D01*
X53708000Y-66548000D02*
X55208300Y-66548000D01*
X66200000Y-66470000D02*
X56130300Y-66470000D01*
X56130300Y-66470000D02*
X55208300Y-65548000D01*
X53708000Y-65548000D02*
X55208300Y-65548000D01*
X53708000Y-61548000D02*
X57667500Y-61548000D01*
X57667500Y-61548000D02*
X61569500Y-65450000D01*
X61569500Y-65450000D02*
X66200000Y-65450000D01*
X66200000Y-64430000D02*
X64199700Y-64430000D01*
X53708000Y-60548000D02*
X60317700Y-60548000D01*
X60317700Y-60548000D02*
X64199700Y-64430000D01*
D23*
G36*
X67864500Y-74968789D02*
G01*
X67861426Y-75000000D01*
X67873696Y-75124580D01*
X67910035Y-75244372D01*
X67969045Y-75354773D01*
X68026457Y-75424729D01*
X68048460Y-75451540D01*
X68145227Y-75530955D01*
X68255628Y-75589965D01*
X68375420Y-75626304D01*
X68500000Y-75638574D01*
X68531211Y-75635500D01*
X71314250Y-75635500D01*
X71314130Y-75635785D01*
X71299714Y-75708186D01*
X71422323Y-75923000D01*
X73273000Y-75923000D01*
X73273000Y-75903000D01*
X73527000Y-75903000D01*
X73527000Y-75923000D01*
X75377677Y-75923000D01*
X75500286Y-75708186D01*
X75485870Y-75635785D01*
X75485750Y-75635500D01*
X76340000Y-75635500D01*
X76340000Y-76967721D01*
X76330420Y-77065424D01*
X76311420Y-77128357D01*
X76280554Y-77186406D01*
X76239011Y-77237343D01*
X76188356Y-77279248D01*
X76130529Y-77310515D01*
X76067728Y-77329956D01*
X75972165Y-77340000D01*
X74666607Y-77340000D01*
X74802880Y-77284668D01*
X75031284Y-77134354D01*
X75225974Y-76942369D01*
X75379469Y-76716091D01*
X75485870Y-76464215D01*
X75500286Y-76391814D01*
X75377677Y-76177000D01*
X73527000Y-76177000D01*
X73527000Y-76197000D01*
X73273000Y-76197000D01*
X73273000Y-76177000D01*
X71422323Y-76177000D01*
X71299714Y-76391814D01*
X71314130Y-76464215D01*
X71420531Y-76716091D01*
X71574026Y-76942369D01*
X71768716Y-77134354D01*
X71997120Y-77284668D01*
X72133393Y-77340000D01*
X55882416Y-77340000D01*
X55914968Y-77261412D01*
X55977800Y-76945533D01*
X55977800Y-76623467D01*
X55914968Y-76307588D01*
X55791718Y-76010037D01*
X55612787Y-75742248D01*
X55385052Y-75514513D01*
X55117263Y-75335582D01*
X54819712Y-75212332D01*
X54503833Y-75149500D01*
X54181767Y-75149500D01*
X53865888Y-75212332D01*
X53568337Y-75335582D01*
X53300548Y-75514513D01*
X53246072Y-75568989D01*
X53246072Y-75248000D01*
X53233812Y-75123518D01*
X53227467Y-75102600D01*
X56462382Y-75102600D01*
X56503400Y-75106640D01*
X56544418Y-75102600D01*
X56544419Y-75102600D01*
X56667089Y-75090518D01*
X56824487Y-75042772D01*
X56969546Y-74965236D01*
X57096691Y-74860891D01*
X57122846Y-74829021D01*
X57765000Y-74186867D01*
X57765000Y-74220128D01*
X57850890Y-74651925D01*
X58019369Y-75058669D01*
X58263962Y-75424729D01*
X58575271Y-75736038D01*
X58941331Y-75980631D01*
X59348075Y-76149110D01*
X59779872Y-76235000D01*
X60220128Y-76235000D01*
X60651925Y-76149110D01*
X61058669Y-75980631D01*
X61424729Y-75736038D01*
X61736038Y-75424729D01*
X61980631Y-75058669D01*
X62149110Y-74651925D01*
X62235000Y-74220128D01*
X62235000Y-73779872D01*
X62149110Y-73348075D01*
X61980631Y-72941331D01*
X61877444Y-72786900D01*
X65777082Y-72786900D01*
X65818100Y-72790940D01*
X65859118Y-72786900D01*
X65859119Y-72786900D01*
X65981789Y-72774818D01*
X66139187Y-72727072D01*
X66284246Y-72649536D01*
X66395695Y-72558072D01*
X67800000Y-72558072D01*
X67864500Y-72551719D01*
X67864500Y-74968789D01*
X67864500Y-74968789D01*
G37*
X67864500Y-74968789D02*
X67861426Y-75000000D01*
X67873696Y-75124580D01*
X67910035Y-75244372D01*
X67969045Y-75354773D01*
X68026457Y-75424729D01*
X68048460Y-75451540D01*
X68145227Y-75530955D01*
X68255628Y-75589965D01*
X68375420Y-75626304D01*
X68500000Y-75638574D01*
X68531211Y-75635500D01*
X71314250Y-75635500D01*
X71314130Y-75635785D01*
X71299714Y-75708186D01*
X71422323Y-75923000D01*
X73273000Y-75923000D01*
X73273000Y-75903000D01*
X73527000Y-75903000D01*
X73527000Y-75923000D01*
X75377677Y-75923000D01*
X75500286Y-75708186D01*
X75485870Y-75635785D01*
X75485750Y-75635500D01*
X76340000Y-75635500D01*
X76340000Y-76967721D01*
X76330420Y-77065424D01*
X76311420Y-77128357D01*
X76280554Y-77186406D01*
X76239011Y-77237343D01*
X76188356Y-77279248D01*
X76130529Y-77310515D01*
X76067728Y-77329956D01*
X75972165Y-77340000D01*
X74666607Y-77340000D01*
X74802880Y-77284668D01*
X75031284Y-77134354D01*
X75225974Y-76942369D01*
X75379469Y-76716091D01*
X75485870Y-76464215D01*
X75500286Y-76391814D01*
X75377677Y-76177000D01*
X73527000Y-76177000D01*
X73527000Y-76197000D01*
X73273000Y-76197000D01*
X73273000Y-76177000D01*
X71422323Y-76177000D01*
X71299714Y-76391814D01*
X71314130Y-76464215D01*
X71420531Y-76716091D01*
X71574026Y-76942369D01*
X71768716Y-77134354D01*
X71997120Y-77284668D01*
X72133393Y-77340000D01*
X55882416Y-77340000D01*
X55914968Y-77261412D01*
X55977800Y-76945533D01*
X55977800Y-76623467D01*
X55914968Y-76307588D01*
X55791718Y-76010037D01*
X55612787Y-75742248D01*
X55385052Y-75514513D01*
X55117263Y-75335582D01*
X54819712Y-75212332D01*
X54503833Y-75149500D01*
X54181767Y-75149500D01*
X53865888Y-75212332D01*
X53568337Y-75335582D01*
X53300548Y-75514513D01*
X53246072Y-75568989D01*
X53246072Y-75248000D01*
X53233812Y-75123518D01*
X53227467Y-75102600D01*
X56462382Y-75102600D01*
X56503400Y-75106640D01*
X56544418Y-75102600D01*
X56544419Y-75102600D01*
X56667089Y-75090518D01*
X56824487Y-75042772D01*
X56969546Y-74965236D01*
X57096691Y-74860891D01*
X57122846Y-74829021D01*
X57765000Y-74186867D01*
X57765000Y-74220128D01*
X57850890Y-74651925D01*
X58019369Y-75058669D01*
X58263962Y-75424729D01*
X58575271Y-75736038D01*
X58941331Y-75980631D01*
X59348075Y-76149110D01*
X59779872Y-76235000D01*
X60220128Y-76235000D01*
X60651925Y-76149110D01*
X61058669Y-75980631D01*
X61424729Y-75736038D01*
X61736038Y-75424729D01*
X61980631Y-75058669D01*
X62149110Y-74651925D01*
X62235000Y-74220128D01*
X62235000Y-73779872D01*
X62149110Y-73348075D01*
X61980631Y-72941331D01*
X61877444Y-72786900D01*
X65777082Y-72786900D01*
X65818100Y-72790940D01*
X65859118Y-72786900D01*
X65859119Y-72786900D01*
X65981789Y-72774818D01*
X66139187Y-72727072D01*
X66284246Y-72649536D01*
X66395695Y-72558072D01*
X67800000Y-72558072D01*
X67864500Y-72551719D01*
X67864500Y-74968789D01*
G36*
X48895000Y-29654500D02*
G01*
X48915000Y-29654500D01*
X48915000Y-29908500D01*
X48895000Y-29908500D01*
X48895000Y-31101655D01*
X49124890Y-31222976D01*
X49272099Y-31178325D01*
X49534920Y-31053141D01*
X49768269Y-30879088D01*
X49844034Y-30795034D01*
X49868498Y-30875680D01*
X49927463Y-30985994D01*
X50006815Y-31082685D01*
X50103506Y-31162037D01*
X50213820Y-31221002D01*
X50333518Y-31257312D01*
X50458000Y-31269572D01*
X52158000Y-31269572D01*
X52282482Y-31257312D01*
X52402180Y-31221002D01*
X52512494Y-31162037D01*
X52609185Y-31082685D01*
X52681323Y-30994784D01*
X52830111Y-31039918D01*
X52993799Y-31056040D01*
X53034818Y-31052000D01*
X53244729Y-31052000D01*
X53341538Y-31169962D01*
X53348094Y-31175342D01*
X53268315Y-31240815D01*
X53188963Y-31337506D01*
X53129998Y-31447820D01*
X53093688Y-31567518D01*
X53081428Y-31692000D01*
X53084500Y-31981250D01*
X53243250Y-32140000D01*
X54292500Y-32140000D01*
X54292500Y-32120000D01*
X54546500Y-32120000D01*
X54546500Y-32140000D01*
X54566500Y-32140000D01*
X54566500Y-32394000D01*
X54546500Y-32394000D01*
X54546500Y-32414000D01*
X54292500Y-32414000D01*
X54292500Y-32394000D01*
X53243250Y-32394000D01*
X53084500Y-32552750D01*
X53081428Y-32842000D01*
X53086903Y-32897589D01*
X53059185Y-32863815D01*
X52962494Y-32784463D01*
X52852180Y-32725498D01*
X52732482Y-32689188D01*
X52608000Y-32676928D01*
X50008000Y-32676928D01*
X49883518Y-32689188D01*
X49763820Y-32725498D01*
X49653506Y-32784463D01*
X49556815Y-32863815D01*
X49477463Y-32960506D01*
X49418498Y-33070820D01*
X49382188Y-33190518D01*
X49369928Y-33315000D01*
X49369928Y-35115000D01*
X49382188Y-35239482D01*
X49418498Y-35359180D01*
X49477463Y-35469494D01*
X49556815Y-35566185D01*
X49653506Y-35645537D01*
X49763820Y-35704502D01*
X49883518Y-35740812D01*
X49971810Y-35749508D01*
X49971810Y-37667500D01*
X50798794Y-37667500D01*
X50776282Y-37741712D01*
X50760160Y-37905400D01*
X50764201Y-37946429D01*
X50764200Y-51016781D01*
X50760160Y-51057800D01*
X50764200Y-51098818D01*
X50776282Y-51221488D01*
X50824028Y-51378886D01*
X50901564Y-51523945D01*
X51005909Y-51651091D01*
X51037778Y-51677245D01*
X51237460Y-51876928D01*
X50008000Y-51876928D01*
X49883518Y-51889188D01*
X49763820Y-51925498D01*
X49653506Y-51984463D01*
X49556815Y-52063815D01*
X49477463Y-52160506D01*
X49418498Y-52270820D01*
X49382188Y-52390518D01*
X49369928Y-52515000D01*
X49369928Y-54315000D01*
X49382188Y-54439482D01*
X49418498Y-54559180D01*
X49477463Y-54669494D01*
X49556815Y-54766185D01*
X49653506Y-54845537D01*
X49763820Y-54904502D01*
X49883518Y-54940812D01*
X50008000Y-54953072D01*
X52211201Y-54953072D01*
X52211200Y-55409928D01*
X50008000Y-55409928D01*
X49883518Y-55422188D01*
X49763820Y-55458498D01*
X49653506Y-55517463D01*
X49556815Y-55596815D01*
X49477463Y-55693506D01*
X49418498Y-55803820D01*
X49382188Y-55923518D01*
X49369928Y-56048000D01*
X49369928Y-57848000D01*
X49382188Y-57972482D01*
X49418498Y-58092180D01*
X49477463Y-58202494D01*
X49556815Y-58299185D01*
X49653506Y-58378537D01*
X49763820Y-58437502D01*
X49883518Y-58473812D01*
X49971810Y-58482508D01*
X49971810Y-60400500D01*
X51969928Y-60400500D01*
X51969928Y-60848000D01*
X51982188Y-60972482D01*
X52005096Y-61048000D01*
X51982188Y-61123518D01*
X51969928Y-61248000D01*
X51969928Y-61848000D01*
X51982188Y-61972482D01*
X52005096Y-62048000D01*
X51982188Y-62123518D01*
X51969928Y-62248000D01*
X51969928Y-62848000D01*
X51982188Y-62972482D01*
X52005096Y-63048000D01*
X51982188Y-63123518D01*
X51969928Y-63248000D01*
X51969928Y-63848000D01*
X51982188Y-63972482D01*
X52005096Y-64048000D01*
X51982188Y-64123518D01*
X51969928Y-64248000D01*
X51973000Y-64262250D01*
X52131750Y-64421000D01*
X52332947Y-64421000D01*
X52363820Y-64437502D01*
X52483518Y-64473812D01*
X52608000Y-64486072D01*
X53855000Y-64486072D01*
X53855000Y-64609928D01*
X52608000Y-64609928D01*
X52483518Y-64622188D01*
X52363820Y-64658498D01*
X52332947Y-64675000D01*
X52131750Y-64675000D01*
X51973000Y-64833750D01*
X51969928Y-64848000D01*
X51982188Y-64972482D01*
X52005096Y-65048000D01*
X51982188Y-65123518D01*
X51969928Y-65248000D01*
X51969928Y-65848000D01*
X51982188Y-65972482D01*
X52005096Y-66048000D01*
X51982188Y-66123518D01*
X51969928Y-66248000D01*
X51969928Y-66848000D01*
X51982188Y-66972482D01*
X52005096Y-67048000D01*
X51982188Y-67123518D01*
X51969928Y-67248000D01*
X51973000Y-67262250D01*
X52131750Y-67421000D01*
X52332947Y-67421000D01*
X52363820Y-67437502D01*
X52483518Y-67473812D01*
X52608000Y-67486072D01*
X53855000Y-67486072D01*
X53855000Y-67609928D01*
X52608000Y-67609928D01*
X52483518Y-67622188D01*
X52363820Y-67658498D01*
X52332947Y-67675000D01*
X52131750Y-67675000D01*
X52085782Y-67720968D01*
X52044011Y-67725082D01*
X52011883Y-67734828D01*
X51886613Y-67772828D01*
X51741554Y-67850364D01*
X51692574Y-67890561D01*
X51614409Y-67954709D01*
X51588263Y-67986568D01*
X49046179Y-70528654D01*
X49014309Y-70554809D01*
X48915672Y-70675000D01*
X48909964Y-70681955D01*
X48832428Y-70827014D01*
X48784682Y-70984412D01*
X48768560Y-71148100D01*
X48772600Y-71189119D01*
X48772601Y-77172672D01*
X48768560Y-77213700D01*
X48781000Y-77340000D01*
X48032279Y-77340000D01*
X47934576Y-77330420D01*
X47871643Y-77311420D01*
X47813594Y-77280554D01*
X47762657Y-77239011D01*
X47720752Y-77188356D01*
X47689485Y-77130529D01*
X47670044Y-77067728D01*
X47660000Y-76972165D01*
X47660000Y-30759571D01*
X47767731Y-30879088D01*
X48001080Y-31053141D01*
X48263901Y-31178325D01*
X48411110Y-31222976D01*
X48641000Y-31101655D01*
X48641000Y-29908500D01*
X48621000Y-29908500D01*
X48621000Y-29654500D01*
X48641000Y-29654500D01*
X48641000Y-29634500D01*
X48895000Y-29634500D01*
X48895000Y-29654500D01*
X48895000Y-29654500D01*
G37*
X48895000Y-29654500D02*
X48915000Y-29654500D01*
X48915000Y-29908500D01*
X48895000Y-29908500D01*
X48895000Y-31101655D01*
X49124890Y-31222976D01*
X49272099Y-31178325D01*
X49534920Y-31053141D01*
X49768269Y-30879088D01*
X49844034Y-30795034D01*
X49868498Y-30875680D01*
X49927463Y-30985994D01*
X50006815Y-31082685D01*
X50103506Y-31162037D01*
X50213820Y-31221002D01*
X50333518Y-31257312D01*
X50458000Y-31269572D01*
X52158000Y-31269572D01*
X52282482Y-31257312D01*
X52402180Y-31221002D01*
X52512494Y-31162037D01*
X52609185Y-31082685D01*
X52681323Y-30994784D01*
X52830111Y-31039918D01*
X52993799Y-31056040D01*
X53034818Y-31052000D01*
X53244729Y-31052000D01*
X53341538Y-31169962D01*
X53348094Y-31175342D01*
X53268315Y-31240815D01*
X53188963Y-31337506D01*
X53129998Y-31447820D01*
X53093688Y-31567518D01*
X53081428Y-31692000D01*
X53084500Y-31981250D01*
X53243250Y-32140000D01*
X54292500Y-32140000D01*
X54292500Y-32120000D01*
X54546500Y-32120000D01*
X54546500Y-32140000D01*
X54566500Y-32140000D01*
X54566500Y-32394000D01*
X54546500Y-32394000D01*
X54546500Y-32414000D01*
X54292500Y-32414000D01*
X54292500Y-32394000D01*
X53243250Y-32394000D01*
X53084500Y-32552750D01*
X53081428Y-32842000D01*
X53086903Y-32897589D01*
X53059185Y-32863815D01*
X52962494Y-32784463D01*
X52852180Y-32725498D01*
X52732482Y-32689188D01*
X52608000Y-32676928D01*
X50008000Y-32676928D01*
X49883518Y-32689188D01*
X49763820Y-32725498D01*
X49653506Y-32784463D01*
X49556815Y-32863815D01*
X49477463Y-32960506D01*
X49418498Y-33070820D01*
X49382188Y-33190518D01*
X49369928Y-33315000D01*
X49369928Y-35115000D01*
X49382188Y-35239482D01*
X49418498Y-35359180D01*
X49477463Y-35469494D01*
X49556815Y-35566185D01*
X49653506Y-35645537D01*
X49763820Y-35704502D01*
X49883518Y-35740812D01*
X49971810Y-35749508D01*
X49971810Y-37667500D01*
X50798794Y-37667500D01*
X50776282Y-37741712D01*
X50760160Y-37905400D01*
X50764201Y-37946429D01*
X50764200Y-51016781D01*
X50760160Y-51057800D01*
X50764200Y-51098818D01*
X50776282Y-51221488D01*
X50824028Y-51378886D01*
X50901564Y-51523945D01*
X51005909Y-51651091D01*
X51037778Y-51677245D01*
X51237460Y-51876928D01*
X50008000Y-51876928D01*
X49883518Y-51889188D01*
X49763820Y-51925498D01*
X49653506Y-51984463D01*
X49556815Y-52063815D01*
X49477463Y-52160506D01*
X49418498Y-52270820D01*
X49382188Y-52390518D01*
X49369928Y-52515000D01*
X49369928Y-54315000D01*
X49382188Y-54439482D01*
X49418498Y-54559180D01*
X49477463Y-54669494D01*
X49556815Y-54766185D01*
X49653506Y-54845537D01*
X49763820Y-54904502D01*
X49883518Y-54940812D01*
X50008000Y-54953072D01*
X52211201Y-54953072D01*
X52211200Y-55409928D01*
X50008000Y-55409928D01*
X49883518Y-55422188D01*
X49763820Y-55458498D01*
X49653506Y-55517463D01*
X49556815Y-55596815D01*
X49477463Y-55693506D01*
X49418498Y-55803820D01*
X49382188Y-55923518D01*
X49369928Y-56048000D01*
X49369928Y-57848000D01*
X49382188Y-57972482D01*
X49418498Y-58092180D01*
X49477463Y-58202494D01*
X49556815Y-58299185D01*
X49653506Y-58378537D01*
X49763820Y-58437502D01*
X49883518Y-58473812D01*
X49971810Y-58482508D01*
X49971810Y-60400500D01*
X51969928Y-60400500D01*
X51969928Y-60848000D01*
X51982188Y-60972482D01*
X52005096Y-61048000D01*
X51982188Y-61123518D01*
X51969928Y-61248000D01*
X51969928Y-61848000D01*
X51982188Y-61972482D01*
X52005096Y-62048000D01*
X51982188Y-62123518D01*
X51969928Y-62248000D01*
X51969928Y-62848000D01*
X51982188Y-62972482D01*
X52005096Y-63048000D01*
X51982188Y-63123518D01*
X51969928Y-63248000D01*
X51969928Y-63848000D01*
X51982188Y-63972482D01*
X52005096Y-64048000D01*
X51982188Y-64123518D01*
X51969928Y-64248000D01*
X51973000Y-64262250D01*
X52131750Y-64421000D01*
X52332947Y-64421000D01*
X52363820Y-64437502D01*
X52483518Y-64473812D01*
X52608000Y-64486072D01*
X53855000Y-64486072D01*
X53855000Y-64609928D01*
X52608000Y-64609928D01*
X52483518Y-64622188D01*
X52363820Y-64658498D01*
X52332947Y-64675000D01*
X52131750Y-64675000D01*
X51973000Y-64833750D01*
X51969928Y-64848000D01*
X51982188Y-64972482D01*
X52005096Y-65048000D01*
X51982188Y-65123518D01*
X51969928Y-65248000D01*
X51969928Y-65848000D01*
X51982188Y-65972482D01*
X52005096Y-66048000D01*
X51982188Y-66123518D01*
X51969928Y-66248000D01*
X51969928Y-66848000D01*
X51982188Y-66972482D01*
X52005096Y-67048000D01*
X51982188Y-67123518D01*
X51969928Y-67248000D01*
X51973000Y-67262250D01*
X52131750Y-67421000D01*
X52332947Y-67421000D01*
X52363820Y-67437502D01*
X52483518Y-67473812D01*
X52608000Y-67486072D01*
X53855000Y-67486072D01*
X53855000Y-67609928D01*
X52608000Y-67609928D01*
X52483518Y-67622188D01*
X52363820Y-67658498D01*
X52332947Y-67675000D01*
X52131750Y-67675000D01*
X52085782Y-67720968D01*
X52044011Y-67725082D01*
X52011883Y-67734828D01*
X51886613Y-67772828D01*
X51741554Y-67850364D01*
X51692574Y-67890561D01*
X51614409Y-67954709D01*
X51588263Y-67986568D01*
X49046179Y-70528654D01*
X49014309Y-70554809D01*
X48915672Y-70675000D01*
X48909964Y-70681955D01*
X48832428Y-70827014D01*
X48784682Y-70984412D01*
X48768560Y-71148100D01*
X48772600Y-71189119D01*
X48772601Y-77172672D01*
X48768560Y-77213700D01*
X48781000Y-77340000D01*
X48032279Y-77340000D01*
X47934576Y-77330420D01*
X47871643Y-77311420D01*
X47813594Y-77280554D01*
X47762657Y-77239011D01*
X47720752Y-77188356D01*
X47689485Y-77130529D01*
X47670044Y-77067728D01*
X47660000Y-76972165D01*
X47660000Y-30759571D01*
X47767731Y-30879088D01*
X48001080Y-31053141D01*
X48263901Y-31178325D01*
X48411110Y-31222976D01*
X48641000Y-31101655D01*
X48641000Y-29908500D01*
X48621000Y-29908500D01*
X48621000Y-29654500D01*
X48641000Y-29654500D01*
X48641000Y-29634500D01*
X48895000Y-29634500D01*
X48895000Y-29654500D01*
G36*
X53855000Y-70609928D02*
G01*
X53561000Y-70609928D01*
X53561000Y-70486072D01*
X53855000Y-70486072D01*
X53855000Y-70609928D01*
X53855000Y-70609928D01*
G37*
X53855000Y-70609928D02*
X53561000Y-70609928D01*
X53561000Y-70486072D01*
X53855000Y-70486072D01*
X53855000Y-70609928D01*
G36*
X60668632Y-50751388D02*
G01*
X60605800Y-51067267D01*
X60605800Y-51389333D01*
X60668632Y-51705212D01*
X60791882Y-52002763D01*
X60970813Y-52270552D01*
X61198548Y-52498287D01*
X61466337Y-52677218D01*
X61763888Y-52800468D01*
X61785264Y-52804720D01*
X61736700Y-53048867D01*
X61736700Y-53370933D01*
X61799532Y-53686812D01*
X61922782Y-53984363D01*
X62101713Y-54252152D01*
X62329448Y-54479887D01*
X62597237Y-54658818D01*
X62894788Y-54782068D01*
X63210667Y-54844900D01*
X63532733Y-54844900D01*
X63848612Y-54782068D01*
X64146163Y-54658818D01*
X64413952Y-54479887D01*
X64641687Y-54252152D01*
X64771367Y-54058072D01*
X67800000Y-54058072D01*
X67864500Y-54051719D01*
X67864500Y-56468789D01*
X67861426Y-56500000D01*
X67873696Y-56624580D01*
X67910035Y-56744372D01*
X67969045Y-56854773D01*
X68048460Y-56951540D01*
X68145227Y-57030955D01*
X68255628Y-57089965D01*
X68375420Y-57126304D01*
X68500000Y-57138574D01*
X68531211Y-57135500D01*
X71314250Y-57135500D01*
X71314130Y-57135785D01*
X71299714Y-57208186D01*
X71422323Y-57423000D01*
X73273000Y-57423000D01*
X73273000Y-57403000D01*
X73527000Y-57403000D01*
X73527000Y-57423000D01*
X75377677Y-57423000D01*
X75500286Y-57208186D01*
X75485870Y-57135785D01*
X75485750Y-57135500D01*
X76340000Y-57135500D01*
X76340000Y-60364500D01*
X75485750Y-60364500D01*
X75485870Y-60364215D01*
X75500286Y-60291814D01*
X75377677Y-60077000D01*
X73527000Y-60077000D01*
X73527000Y-60097000D01*
X73273000Y-60097000D01*
X73273000Y-60077000D01*
X71422323Y-60077000D01*
X71299714Y-60291814D01*
X71314130Y-60364215D01*
X71314250Y-60364500D01*
X68531211Y-60364500D01*
X68500000Y-60361426D01*
X68468789Y-60364500D01*
X68375420Y-60373696D01*
X68255628Y-60410035D01*
X68145227Y-60469045D01*
X68048460Y-60548460D01*
X67969045Y-60645227D01*
X67910035Y-60755628D01*
X67873696Y-60875420D01*
X67861426Y-61000000D01*
X67864501Y-61031221D01*
X67864501Y-63448281D01*
X67800000Y-63441928D01*
X64600000Y-63441928D01*
X64475518Y-63454188D01*
X64421225Y-63470657D01*
X60937146Y-59986579D01*
X60910991Y-59954709D01*
X60783846Y-59850364D01*
X60638787Y-59772828D01*
X60481389Y-59725082D01*
X60358719Y-59713000D01*
X60358718Y-59713000D01*
X60317700Y-59708960D01*
X60276682Y-59713000D01*
X55446072Y-59713000D01*
X55446072Y-59248000D01*
X55433812Y-59123518D01*
X55397502Y-59003820D01*
X55338537Y-58893506D01*
X55259185Y-58796815D01*
X55162494Y-58717463D01*
X55052180Y-58658498D01*
X54932482Y-58622188D01*
X54808000Y-58609928D01*
X53765493Y-58609928D01*
X53821372Y-58505387D01*
X53869118Y-58347989D01*
X53881200Y-58225319D01*
X53881200Y-58225318D01*
X53885240Y-58184301D01*
X53881200Y-58143282D01*
X53881200Y-57891814D01*
X71299714Y-57891814D01*
X71314130Y-57964215D01*
X71420531Y-58216091D01*
X71574026Y-58442369D01*
X71768716Y-58634354D01*
X71944442Y-58750000D01*
X71768716Y-58865646D01*
X71574026Y-59057631D01*
X71420531Y-59283909D01*
X71314130Y-59535785D01*
X71299714Y-59608186D01*
X71422323Y-59823000D01*
X73273000Y-59823000D01*
X73273000Y-57677000D01*
X73527000Y-57677000D01*
X73527000Y-59823000D01*
X75377677Y-59823000D01*
X75500286Y-59608186D01*
X75485870Y-59535785D01*
X75379469Y-59283909D01*
X75225974Y-59057631D01*
X75031284Y-58865646D01*
X74855558Y-58750000D01*
X75031284Y-58634354D01*
X75225974Y-58442369D01*
X75379469Y-58216091D01*
X75485870Y-57964215D01*
X75500286Y-57891814D01*
X75377677Y-57677000D01*
X73527000Y-57677000D01*
X73273000Y-57677000D01*
X71422323Y-57677000D01*
X71299714Y-57891814D01*
X53881200Y-57891814D01*
X53881200Y-52415515D01*
X53885240Y-52374499D01*
X53875028Y-52270820D01*
X53869118Y-52210811D01*
X53821372Y-52053413D01*
X53743836Y-51908354D01*
X53639491Y-51781209D01*
X53607621Y-51755054D01*
X53512409Y-51659842D01*
X53581000Y-51591250D01*
X53581000Y-50942000D01*
X53835000Y-50942000D01*
X53835000Y-51591250D01*
X53993750Y-51750000D01*
X54808000Y-51753072D01*
X54932482Y-51740812D01*
X55052180Y-51704502D01*
X55162494Y-51645537D01*
X55259185Y-51566185D01*
X55338537Y-51469494D01*
X55397502Y-51359180D01*
X55433812Y-51239482D01*
X55446072Y-51115000D01*
X55443000Y-51100750D01*
X55284250Y-50942000D01*
X53835000Y-50942000D01*
X53581000Y-50942000D01*
X53561000Y-50942000D01*
X53561000Y-50753072D01*
X54808000Y-50753072D01*
X54932482Y-50740812D01*
X55052180Y-50704502D01*
X55083053Y-50688000D01*
X55284250Y-50688000D01*
X55322250Y-50650000D01*
X60710628Y-50650000D01*
X60668632Y-50751388D01*
X60668632Y-50751388D01*
G37*
X60668632Y-50751388D02*
X60605800Y-51067267D01*
X60605800Y-51389333D01*
X60668632Y-51705212D01*
X60791882Y-52002763D01*
X60970813Y-52270552D01*
X61198548Y-52498287D01*
X61466337Y-52677218D01*
X61763888Y-52800468D01*
X61785264Y-52804720D01*
X61736700Y-53048867D01*
X61736700Y-53370933D01*
X61799532Y-53686812D01*
X61922782Y-53984363D01*
X62101713Y-54252152D01*
X62329448Y-54479887D01*
X62597237Y-54658818D01*
X62894788Y-54782068D01*
X63210667Y-54844900D01*
X63532733Y-54844900D01*
X63848612Y-54782068D01*
X64146163Y-54658818D01*
X64413952Y-54479887D01*
X64641687Y-54252152D01*
X64771367Y-54058072D01*
X67800000Y-54058072D01*
X67864500Y-54051719D01*
X67864500Y-56468789D01*
X67861426Y-56500000D01*
X67873696Y-56624580D01*
X67910035Y-56744372D01*
X67969045Y-56854773D01*
X68048460Y-56951540D01*
X68145227Y-57030955D01*
X68255628Y-57089965D01*
X68375420Y-57126304D01*
X68500000Y-57138574D01*
X68531211Y-57135500D01*
X71314250Y-57135500D01*
X71314130Y-57135785D01*
X71299714Y-57208186D01*
X71422323Y-57423000D01*
X73273000Y-57423000D01*
X73273000Y-57403000D01*
X73527000Y-57403000D01*
X73527000Y-57423000D01*
X75377677Y-57423000D01*
X75500286Y-57208186D01*
X75485870Y-57135785D01*
X75485750Y-57135500D01*
X76340000Y-57135500D01*
X76340000Y-60364500D01*
X75485750Y-60364500D01*
X75485870Y-60364215D01*
X75500286Y-60291814D01*
X75377677Y-60077000D01*
X73527000Y-60077000D01*
X73527000Y-60097000D01*
X73273000Y-60097000D01*
X73273000Y-60077000D01*
X71422323Y-60077000D01*
X71299714Y-60291814D01*
X71314130Y-60364215D01*
X71314250Y-60364500D01*
X68531211Y-60364500D01*
X68500000Y-60361426D01*
X68468789Y-60364500D01*
X68375420Y-60373696D01*
X68255628Y-60410035D01*
X68145227Y-60469045D01*
X68048460Y-60548460D01*
X67969045Y-60645227D01*
X67910035Y-60755628D01*
X67873696Y-60875420D01*
X67861426Y-61000000D01*
X67864501Y-61031221D01*
X67864501Y-63448281D01*
X67800000Y-63441928D01*
X64600000Y-63441928D01*
X64475518Y-63454188D01*
X64421225Y-63470657D01*
X60937146Y-59986579D01*
X60910991Y-59954709D01*
X60783846Y-59850364D01*
X60638787Y-59772828D01*
X60481389Y-59725082D01*
X60358719Y-59713000D01*
X60358718Y-59713000D01*
X60317700Y-59708960D01*
X60276682Y-59713000D01*
X55446072Y-59713000D01*
X55446072Y-59248000D01*
X55433812Y-59123518D01*
X55397502Y-59003820D01*
X55338537Y-58893506D01*
X55259185Y-58796815D01*
X55162494Y-58717463D01*
X55052180Y-58658498D01*
X54932482Y-58622188D01*
X54808000Y-58609928D01*
X53765493Y-58609928D01*
X53821372Y-58505387D01*
X53869118Y-58347989D01*
X53881200Y-58225319D01*
X53881200Y-58225318D01*
X53885240Y-58184301D01*
X53881200Y-58143282D01*
X53881200Y-57891814D01*
X71299714Y-57891814D01*
X71314130Y-57964215D01*
X71420531Y-58216091D01*
X71574026Y-58442369D01*
X71768716Y-58634354D01*
X71944442Y-58750000D01*
X71768716Y-58865646D01*
X71574026Y-59057631D01*
X71420531Y-59283909D01*
X71314130Y-59535785D01*
X71299714Y-59608186D01*
X71422323Y-59823000D01*
X73273000Y-59823000D01*
X73273000Y-57677000D01*
X73527000Y-57677000D01*
X73527000Y-59823000D01*
X75377677Y-59823000D01*
X75500286Y-59608186D01*
X75485870Y-59535785D01*
X75379469Y-59283909D01*
X75225974Y-59057631D01*
X75031284Y-58865646D01*
X74855558Y-58750000D01*
X75031284Y-58634354D01*
X75225974Y-58442369D01*
X75379469Y-58216091D01*
X75485870Y-57964215D01*
X75500286Y-57891814D01*
X75377677Y-57677000D01*
X73527000Y-57677000D01*
X73273000Y-57677000D01*
X71422323Y-57677000D01*
X71299714Y-57891814D01*
X53881200Y-57891814D01*
X53881200Y-52415515D01*
X53885240Y-52374499D01*
X53875028Y-52270820D01*
X53869118Y-52210811D01*
X53821372Y-52053413D01*
X53743836Y-51908354D01*
X53639491Y-51781209D01*
X53607621Y-51755054D01*
X53512409Y-51659842D01*
X53581000Y-51591250D01*
X53581000Y-50942000D01*
X53835000Y-50942000D01*
X53835000Y-51591250D01*
X53993750Y-51750000D01*
X54808000Y-51753072D01*
X54932482Y-51740812D01*
X55052180Y-51704502D01*
X55162494Y-51645537D01*
X55259185Y-51566185D01*
X55338537Y-51469494D01*
X55397502Y-51359180D01*
X55433812Y-51239482D01*
X55446072Y-51115000D01*
X55443000Y-51100750D01*
X55284250Y-50942000D01*
X53835000Y-50942000D01*
X53581000Y-50942000D01*
X53561000Y-50942000D01*
X53561000Y-50753072D01*
X54808000Y-50753072D01*
X54932482Y-50740812D01*
X55052180Y-50704502D01*
X55083053Y-50688000D01*
X55284250Y-50688000D01*
X55322250Y-50650000D01*
X60710628Y-50650000D01*
X60668632Y-50751388D01*
G36*
X53855000Y-47876928D02*
G01*
X53561000Y-47876928D01*
X53561000Y-47753072D01*
X53855000Y-47753072D01*
X53855000Y-47876928D01*
X53855000Y-47876928D01*
G37*
X53855000Y-47876928D02*
X53561000Y-47876928D01*
X53561000Y-47753072D01*
X53855000Y-47753072D01*
X53855000Y-47876928D01*
G36*
X59059333Y-45110300D02*
G01*
X58766767Y-45110300D01*
X58515854Y-45160210D01*
X58463646Y-45117364D01*
X58318587Y-45039828D01*
X58161189Y-44992082D01*
X58038519Y-44980000D01*
X58038518Y-44980000D01*
X57997500Y-44975960D01*
X57956482Y-44980000D01*
X55322250Y-44980000D01*
X55284250Y-44942000D01*
X55083053Y-44942000D01*
X55052180Y-44925498D01*
X54932482Y-44889188D01*
X54808000Y-44876928D01*
X53561000Y-44876928D01*
X53561000Y-44753072D01*
X54808000Y-44753072D01*
X54932482Y-44740812D01*
X55052180Y-44704502D01*
X55083053Y-44688000D01*
X55284250Y-44688000D01*
X55322250Y-44650000D01*
X58599033Y-44650000D01*
X59059333Y-45110300D01*
X59059333Y-45110300D01*
G37*
X59059333Y-45110300D02*
X58766767Y-45110300D01*
X58515854Y-45160210D01*
X58463646Y-45117364D01*
X58318587Y-45039828D01*
X58161189Y-44992082D01*
X58038519Y-44980000D01*
X58038518Y-44980000D01*
X57997500Y-44975960D01*
X57956482Y-44980000D01*
X55322250Y-44980000D01*
X55284250Y-44942000D01*
X55083053Y-44942000D01*
X55052180Y-44925498D01*
X54932482Y-44889188D01*
X54808000Y-44876928D01*
X53561000Y-44876928D01*
X53561000Y-44753072D01*
X54808000Y-44753072D01*
X54932482Y-44740812D01*
X55052180Y-44704502D01*
X55083053Y-44688000D01*
X55284250Y-44688000D01*
X55322250Y-44650000D01*
X58599033Y-44650000D01*
X59059333Y-45110300D01*
G36*
X76065424Y-28669580D02*
G01*
X76128356Y-28688580D01*
X76186405Y-28719445D01*
X76237343Y-28760989D01*
X76279248Y-28811644D01*
X76310515Y-28869471D01*
X76329956Y-28932272D01*
X76340001Y-29027845D01*
X76340001Y-41864500D01*
X75485750Y-41864500D01*
X75485870Y-41864215D01*
X75500286Y-41791814D01*
X75377677Y-41577000D01*
X73527000Y-41577000D01*
X73527000Y-41597000D01*
X73273000Y-41597000D01*
X73273000Y-41577000D01*
X71422323Y-41577000D01*
X71299714Y-41791814D01*
X71314130Y-41864215D01*
X71314250Y-41864500D01*
X68531211Y-41864500D01*
X68500000Y-41861426D01*
X68468789Y-41864500D01*
X68375420Y-41873696D01*
X68255628Y-41910035D01*
X68145227Y-41969045D01*
X68048460Y-42048460D01*
X67969045Y-42145227D01*
X67910035Y-42255628D01*
X67873696Y-42375420D01*
X67861426Y-42500000D01*
X67864501Y-42531221D01*
X67864501Y-44948281D01*
X67800000Y-44941928D01*
X64600000Y-44941928D01*
X64475518Y-44954188D01*
X64421225Y-44970657D01*
X60012046Y-40561479D01*
X59985891Y-40529609D01*
X59858746Y-40425264D01*
X59713687Y-40347728D01*
X59556289Y-40299982D01*
X59433619Y-40287900D01*
X59433618Y-40287900D01*
X59392600Y-40283860D01*
X59351582Y-40287900D01*
X59268668Y-40287900D01*
X58722340Y-39741572D01*
X59218500Y-39741572D01*
X59342982Y-39729312D01*
X59462680Y-39693002D01*
X59572994Y-39634037D01*
X59669685Y-39554685D01*
X59749037Y-39457994D01*
X59808002Y-39347680D01*
X59844312Y-39227982D01*
X59856572Y-39103500D01*
X62190428Y-39103500D01*
X62202688Y-39227982D01*
X62238998Y-39347680D01*
X62297963Y-39457994D01*
X62377315Y-39554685D01*
X62474006Y-39634037D01*
X62584320Y-39693002D01*
X62704018Y-39729312D01*
X62828500Y-39741572D01*
X63367750Y-39738500D01*
X63526500Y-39579750D01*
X63526500Y-38925500D01*
X63780500Y-38925500D01*
X63780500Y-39579750D01*
X63939250Y-39738500D01*
X64478500Y-39741572D01*
X64602982Y-39729312D01*
X64722680Y-39693002D01*
X64832994Y-39634037D01*
X64929685Y-39554685D01*
X65009037Y-39457994D01*
X65068002Y-39347680D01*
X65104312Y-39227982D01*
X65116572Y-39103500D01*
X65113500Y-39084250D01*
X64954750Y-38925500D01*
X63780500Y-38925500D01*
X63526500Y-38925500D01*
X62352250Y-38925500D01*
X62193500Y-39084250D01*
X62190428Y-39103500D01*
X59856572Y-39103500D01*
X59856572Y-38493500D01*
X59844312Y-38369018D01*
X59808002Y-38249320D01*
X59762130Y-38163500D01*
X59808002Y-38077680D01*
X59844312Y-37957982D01*
X59856572Y-37833500D01*
X59856572Y-37223500D01*
X59844312Y-37099018D01*
X59842638Y-37093500D01*
X61593200Y-37093500D01*
X61593200Y-37487481D01*
X61589160Y-37528500D01*
X61605282Y-37692189D01*
X61653028Y-37849587D01*
X61730564Y-37994646D01*
X61791657Y-38069088D01*
X61834909Y-38121791D01*
X61962054Y-38226136D01*
X62107113Y-38303672D01*
X62212787Y-38335728D01*
X62202688Y-38369018D01*
X62190428Y-38493500D01*
X62193500Y-38512750D01*
X62352250Y-38671500D01*
X63526500Y-38671500D01*
X63526500Y-38651500D01*
X63780500Y-38651500D01*
X63780500Y-38671500D01*
X64954750Y-38671500D01*
X65113500Y-38512750D01*
X65116572Y-38493500D01*
X65104312Y-38369018D01*
X65068002Y-38249320D01*
X65022130Y-38163500D01*
X65068002Y-38077680D01*
X65104312Y-37957982D01*
X65116572Y-37833500D01*
X65116572Y-37223500D01*
X65104312Y-37099018D01*
X65068002Y-36979320D01*
X65022130Y-36893500D01*
X65068002Y-36807680D01*
X65104312Y-36687982D01*
X65116572Y-36563500D01*
X65116572Y-35953500D01*
X65104312Y-35829018D01*
X65068002Y-35709320D01*
X65022130Y-35623500D01*
X65068002Y-35537680D01*
X65104312Y-35417982D01*
X65116572Y-35293500D01*
X65116572Y-34683500D01*
X65104312Y-34559018D01*
X65084636Y-34494156D01*
X65343000Y-34496072D01*
X65467482Y-34483812D01*
X65587180Y-34447502D01*
X65697494Y-34388537D01*
X65794185Y-34309185D01*
X65873537Y-34212494D01*
X65932502Y-34102180D01*
X65968812Y-33982482D01*
X65981072Y-33858000D01*
X65978000Y-33568750D01*
X65819250Y-33410000D01*
X64770000Y-33410000D01*
X64770000Y-33430000D01*
X64516000Y-33430000D01*
X64516000Y-33410000D01*
X64496000Y-33410000D01*
X64496000Y-33156000D01*
X64516000Y-33156000D01*
X64516000Y-33136000D01*
X64770000Y-33136000D01*
X64770000Y-33156000D01*
X65819250Y-33156000D01*
X65978000Y-32997250D01*
X65981072Y-32708000D01*
X65968812Y-32583518D01*
X65932502Y-32463820D01*
X65873537Y-32353506D01*
X65829216Y-32299500D01*
X71298780Y-32299500D01*
X71334038Y-32342462D01*
X71468614Y-32452905D01*
X71490307Y-32464500D01*
X71468614Y-32476095D01*
X71334038Y-32586538D01*
X71223595Y-32721114D01*
X71141528Y-32874650D01*
X71090992Y-33041246D01*
X71073928Y-33214500D01*
X71073928Y-33714500D01*
X71090992Y-33887754D01*
X71093665Y-33896567D01*
X69787774Y-35202459D01*
X69755910Y-35228609D01*
X69699876Y-35296887D01*
X69651564Y-35355755D01*
X69574028Y-35500814D01*
X69526282Y-35658212D01*
X69510160Y-35821900D01*
X69514201Y-35862928D01*
X69514201Y-36500630D01*
X69501850Y-36494028D01*
X69335254Y-36443492D01*
X69162000Y-36426428D01*
X66262000Y-36426428D01*
X66088746Y-36443492D01*
X65922150Y-36494028D01*
X65768614Y-36576095D01*
X65634038Y-36686538D01*
X65523595Y-36821114D01*
X65441528Y-36974650D01*
X65390992Y-37141246D01*
X65373928Y-37314500D01*
X65373928Y-38314500D01*
X65390992Y-38487754D01*
X65441528Y-38654350D01*
X65506861Y-38776579D01*
X65356282Y-39001937D01*
X65233032Y-39299488D01*
X65170200Y-39615367D01*
X65170200Y-39937433D01*
X65233032Y-40253312D01*
X65356282Y-40550863D01*
X65535213Y-40818652D01*
X65762948Y-41046387D01*
X66030737Y-41225318D01*
X66328288Y-41348568D01*
X66644167Y-41411400D01*
X66966233Y-41411400D01*
X67282112Y-41348568D01*
X67579663Y-41225318D01*
X67754963Y-41108186D01*
X71299714Y-41108186D01*
X71422323Y-41323000D01*
X73273000Y-41323000D01*
X73273000Y-41303000D01*
X73527000Y-41303000D01*
X73527000Y-41323000D01*
X75377677Y-41323000D01*
X75500286Y-41108186D01*
X75485870Y-41035785D01*
X75379469Y-40783909D01*
X75225974Y-40557631D01*
X75031284Y-40365646D01*
X74802880Y-40215332D01*
X74549540Y-40112466D01*
X74281000Y-40061000D01*
X72519000Y-40061000D01*
X72250460Y-40112466D01*
X71997120Y-40215332D01*
X71768716Y-40365646D01*
X71574026Y-40557631D01*
X71420531Y-40783909D01*
X71314130Y-41035785D01*
X71299714Y-41108186D01*
X67754963Y-41108186D01*
X67847452Y-41046387D01*
X68075187Y-40818652D01*
X68213668Y-40611400D01*
X68651982Y-40611400D01*
X68693000Y-40615440D01*
X68734018Y-40611400D01*
X68734019Y-40611400D01*
X68856689Y-40599318D01*
X69014087Y-40551572D01*
X69159146Y-40474036D01*
X69286291Y-40369691D01*
X69312446Y-40337821D01*
X70910628Y-38739640D01*
X70942491Y-38713491D01*
X71046836Y-38586346D01*
X71124372Y-38441287D01*
X71172118Y-38283889D01*
X71184200Y-38161219D01*
X71184200Y-38161218D01*
X71188240Y-38120200D01*
X71184200Y-38079182D01*
X71184200Y-36322329D01*
X71260815Y-36415685D01*
X71357506Y-36495037D01*
X71467820Y-36554002D01*
X71587518Y-36590312D01*
X71712000Y-36602572D01*
X73176250Y-36599500D01*
X73335000Y-36440750D01*
X73335000Y-35591500D01*
X73589000Y-35591500D01*
X73589000Y-36440750D01*
X73747750Y-36599500D01*
X75212000Y-36602572D01*
X75336482Y-36590312D01*
X75456180Y-36554002D01*
X75566494Y-36495037D01*
X75663185Y-36415685D01*
X75742537Y-36318994D01*
X75801502Y-36208680D01*
X75837812Y-36088982D01*
X75850072Y-35964500D01*
X75847000Y-35750250D01*
X75688250Y-35591500D01*
X73589000Y-35591500D01*
X73335000Y-35591500D01*
X73315000Y-35591500D01*
X73315000Y-35337500D01*
X73335000Y-35337500D01*
X73335000Y-35317500D01*
X73589000Y-35317500D01*
X73589000Y-35337500D01*
X75688250Y-35337500D01*
X75847000Y-35178750D01*
X75850072Y-34964500D01*
X75837812Y-34840018D01*
X75801502Y-34720320D01*
X75742537Y-34610006D01*
X75663185Y-34513315D01*
X75566494Y-34433963D01*
X75513187Y-34405469D01*
X75589962Y-34342462D01*
X75700405Y-34207886D01*
X75782472Y-34054350D01*
X75833008Y-33887754D01*
X75850072Y-33714500D01*
X75850072Y-33214500D01*
X75833008Y-33041246D01*
X75782472Y-32874650D01*
X75700405Y-32721114D01*
X75589962Y-32586538D01*
X75455386Y-32476095D01*
X75433693Y-32464500D01*
X75455386Y-32452905D01*
X75589962Y-32342462D01*
X75700405Y-32207886D01*
X75782472Y-32054350D01*
X75833008Y-31887754D01*
X75850072Y-31714500D01*
X75850072Y-31214500D01*
X75833008Y-31041246D01*
X75782472Y-30874650D01*
X75700405Y-30721114D01*
X75589962Y-30586538D01*
X75455386Y-30476095D01*
X75301850Y-30394028D01*
X75135254Y-30343492D01*
X74962000Y-30326428D01*
X71962000Y-30326428D01*
X71788746Y-30343492D01*
X71622150Y-30394028D01*
X71468614Y-30476095D01*
X71334038Y-30586538D01*
X71298780Y-30629500D01*
X65932082Y-30629500D01*
X65913472Y-30568149D01*
X65831405Y-30414613D01*
X65790256Y-30364473D01*
X65922150Y-30434972D01*
X66088746Y-30485508D01*
X66262000Y-30502572D01*
X69162000Y-30502572D01*
X69335254Y-30485508D01*
X69501850Y-30434972D01*
X69655386Y-30352905D01*
X69789962Y-30242462D01*
X69900405Y-30107886D01*
X69982472Y-29954350D01*
X70033008Y-29787754D01*
X70050072Y-29614500D01*
X70050072Y-28660000D01*
X75967721Y-28660000D01*
X76065424Y-28669580D01*
X76065424Y-28669580D01*
G37*
X76065424Y-28669580D02*
X76128356Y-28688580D01*
X76186405Y-28719445D01*
X76237343Y-28760989D01*
X76279248Y-28811644D01*
X76310515Y-28869471D01*
X76329956Y-28932272D01*
X76340001Y-29027845D01*
X76340001Y-41864500D01*
X75485750Y-41864500D01*
X75485870Y-41864215D01*
X75500286Y-41791814D01*
X75377677Y-41577000D01*
X73527000Y-41577000D01*
X73527000Y-41597000D01*
X73273000Y-41597000D01*
X73273000Y-41577000D01*
X71422323Y-41577000D01*
X71299714Y-41791814D01*
X71314130Y-41864215D01*
X71314250Y-41864500D01*
X68531211Y-41864500D01*
X68500000Y-41861426D01*
X68468789Y-41864500D01*
X68375420Y-41873696D01*
X68255628Y-41910035D01*
X68145227Y-41969045D01*
X68048460Y-42048460D01*
X67969045Y-42145227D01*
X67910035Y-42255628D01*
X67873696Y-42375420D01*
X67861426Y-42500000D01*
X67864501Y-42531221D01*
X67864501Y-44948281D01*
X67800000Y-44941928D01*
X64600000Y-44941928D01*
X64475518Y-44954188D01*
X64421225Y-44970657D01*
X60012046Y-40561479D01*
X59985891Y-40529609D01*
X59858746Y-40425264D01*
X59713687Y-40347728D01*
X59556289Y-40299982D01*
X59433619Y-40287900D01*
X59433618Y-40287900D01*
X59392600Y-40283860D01*
X59351582Y-40287900D01*
X59268668Y-40287900D01*
X58722340Y-39741572D01*
X59218500Y-39741572D01*
X59342982Y-39729312D01*
X59462680Y-39693002D01*
X59572994Y-39634037D01*
X59669685Y-39554685D01*
X59749037Y-39457994D01*
X59808002Y-39347680D01*
X59844312Y-39227982D01*
X59856572Y-39103500D01*
X62190428Y-39103500D01*
X62202688Y-39227982D01*
X62238998Y-39347680D01*
X62297963Y-39457994D01*
X62377315Y-39554685D01*
X62474006Y-39634037D01*
X62584320Y-39693002D01*
X62704018Y-39729312D01*
X62828500Y-39741572D01*
X63367750Y-39738500D01*
X63526500Y-39579750D01*
X63526500Y-38925500D01*
X63780500Y-38925500D01*
X63780500Y-39579750D01*
X63939250Y-39738500D01*
X64478500Y-39741572D01*
X64602982Y-39729312D01*
X64722680Y-39693002D01*
X64832994Y-39634037D01*
X64929685Y-39554685D01*
X65009037Y-39457994D01*
X65068002Y-39347680D01*
X65104312Y-39227982D01*
X65116572Y-39103500D01*
X65113500Y-39084250D01*
X64954750Y-38925500D01*
X63780500Y-38925500D01*
X63526500Y-38925500D01*
X62352250Y-38925500D01*
X62193500Y-39084250D01*
X62190428Y-39103500D01*
X59856572Y-39103500D01*
X59856572Y-38493500D01*
X59844312Y-38369018D01*
X59808002Y-38249320D01*
X59762130Y-38163500D01*
X59808002Y-38077680D01*
X59844312Y-37957982D01*
X59856572Y-37833500D01*
X59856572Y-37223500D01*
X59844312Y-37099018D01*
X59842638Y-37093500D01*
X61593200Y-37093500D01*
X61593200Y-37487481D01*
X61589160Y-37528500D01*
X61605282Y-37692189D01*
X61653028Y-37849587D01*
X61730564Y-37994646D01*
X61791657Y-38069088D01*
X61834909Y-38121791D01*
X61962054Y-38226136D01*
X62107113Y-38303672D01*
X62212787Y-38335728D01*
X62202688Y-38369018D01*
X62190428Y-38493500D01*
X62193500Y-38512750D01*
X62352250Y-38671500D01*
X63526500Y-38671500D01*
X63526500Y-38651500D01*
X63780500Y-38651500D01*
X63780500Y-38671500D01*
X64954750Y-38671500D01*
X65113500Y-38512750D01*
X65116572Y-38493500D01*
X65104312Y-38369018D01*
X65068002Y-38249320D01*
X65022130Y-38163500D01*
X65068002Y-38077680D01*
X65104312Y-37957982D01*
X65116572Y-37833500D01*
X65116572Y-37223500D01*
X65104312Y-37099018D01*
X65068002Y-36979320D01*
X65022130Y-36893500D01*
X65068002Y-36807680D01*
X65104312Y-36687982D01*
X65116572Y-36563500D01*
X65116572Y-35953500D01*
X65104312Y-35829018D01*
X65068002Y-35709320D01*
X65022130Y-35623500D01*
X65068002Y-35537680D01*
X65104312Y-35417982D01*
X65116572Y-35293500D01*
X65116572Y-34683500D01*
X65104312Y-34559018D01*
X65084636Y-34494156D01*
X65343000Y-34496072D01*
X65467482Y-34483812D01*
X65587180Y-34447502D01*
X65697494Y-34388537D01*
X65794185Y-34309185D01*
X65873537Y-34212494D01*
X65932502Y-34102180D01*
X65968812Y-33982482D01*
X65981072Y-33858000D01*
X65978000Y-33568750D01*
X65819250Y-33410000D01*
X64770000Y-33410000D01*
X64770000Y-33430000D01*
X64516000Y-33430000D01*
X64516000Y-33410000D01*
X64496000Y-33410000D01*
X64496000Y-33156000D01*
X64516000Y-33156000D01*
X64516000Y-33136000D01*
X64770000Y-33136000D01*
X64770000Y-33156000D01*
X65819250Y-33156000D01*
X65978000Y-32997250D01*
X65981072Y-32708000D01*
X65968812Y-32583518D01*
X65932502Y-32463820D01*
X65873537Y-32353506D01*
X65829216Y-32299500D01*
X71298780Y-32299500D01*
X71334038Y-32342462D01*
X71468614Y-32452905D01*
X71490307Y-32464500D01*
X71468614Y-32476095D01*
X71334038Y-32586538D01*
X71223595Y-32721114D01*
X71141528Y-32874650D01*
X71090992Y-33041246D01*
X71073928Y-33214500D01*
X71073928Y-33714500D01*
X71090992Y-33887754D01*
X71093665Y-33896567D01*
X69787774Y-35202459D01*
X69755910Y-35228609D01*
X69699876Y-35296887D01*
X69651564Y-35355755D01*
X69574028Y-35500814D01*
X69526282Y-35658212D01*
X69510160Y-35821900D01*
X69514201Y-35862928D01*
X69514201Y-36500630D01*
X69501850Y-36494028D01*
X69335254Y-36443492D01*
X69162000Y-36426428D01*
X66262000Y-36426428D01*
X66088746Y-36443492D01*
X65922150Y-36494028D01*
X65768614Y-36576095D01*
X65634038Y-36686538D01*
X65523595Y-36821114D01*
X65441528Y-36974650D01*
X65390992Y-37141246D01*
X65373928Y-37314500D01*
X65373928Y-38314500D01*
X65390992Y-38487754D01*
X65441528Y-38654350D01*
X65506861Y-38776579D01*
X65356282Y-39001937D01*
X65233032Y-39299488D01*
X65170200Y-39615367D01*
X65170200Y-39937433D01*
X65233032Y-40253312D01*
X65356282Y-40550863D01*
X65535213Y-40818652D01*
X65762948Y-41046387D01*
X66030737Y-41225318D01*
X66328288Y-41348568D01*
X66644167Y-41411400D01*
X66966233Y-41411400D01*
X67282112Y-41348568D01*
X67579663Y-41225318D01*
X67754963Y-41108186D01*
X71299714Y-41108186D01*
X71422323Y-41323000D01*
X73273000Y-41323000D01*
X73273000Y-41303000D01*
X73527000Y-41303000D01*
X73527000Y-41323000D01*
X75377677Y-41323000D01*
X75500286Y-41108186D01*
X75485870Y-41035785D01*
X75379469Y-40783909D01*
X75225974Y-40557631D01*
X75031284Y-40365646D01*
X74802880Y-40215332D01*
X74549540Y-40112466D01*
X74281000Y-40061000D01*
X72519000Y-40061000D01*
X72250460Y-40112466D01*
X71997120Y-40215332D01*
X71768716Y-40365646D01*
X71574026Y-40557631D01*
X71420531Y-40783909D01*
X71314130Y-41035785D01*
X71299714Y-41108186D01*
X67754963Y-41108186D01*
X67847452Y-41046387D01*
X68075187Y-40818652D01*
X68213668Y-40611400D01*
X68651982Y-40611400D01*
X68693000Y-40615440D01*
X68734018Y-40611400D01*
X68734019Y-40611400D01*
X68856689Y-40599318D01*
X69014087Y-40551572D01*
X69159146Y-40474036D01*
X69286291Y-40369691D01*
X69312446Y-40337821D01*
X70910628Y-38739640D01*
X70942491Y-38713491D01*
X71046836Y-38586346D01*
X71124372Y-38441287D01*
X71172118Y-38283889D01*
X71184200Y-38161219D01*
X71184200Y-38161218D01*
X71188240Y-38120200D01*
X71184200Y-38079182D01*
X71184200Y-36322329D01*
X71260815Y-36415685D01*
X71357506Y-36495037D01*
X71467820Y-36554002D01*
X71587518Y-36590312D01*
X71712000Y-36602572D01*
X73176250Y-36599500D01*
X73335000Y-36440750D01*
X73335000Y-35591500D01*
X73589000Y-35591500D01*
X73589000Y-36440750D01*
X73747750Y-36599500D01*
X75212000Y-36602572D01*
X75336482Y-36590312D01*
X75456180Y-36554002D01*
X75566494Y-36495037D01*
X75663185Y-36415685D01*
X75742537Y-36318994D01*
X75801502Y-36208680D01*
X75837812Y-36088982D01*
X75850072Y-35964500D01*
X75847000Y-35750250D01*
X75688250Y-35591500D01*
X73589000Y-35591500D01*
X73335000Y-35591500D01*
X73315000Y-35591500D01*
X73315000Y-35337500D01*
X73335000Y-35337500D01*
X73335000Y-35317500D01*
X73589000Y-35317500D01*
X73589000Y-35337500D01*
X75688250Y-35337500D01*
X75847000Y-35178750D01*
X75850072Y-34964500D01*
X75837812Y-34840018D01*
X75801502Y-34720320D01*
X75742537Y-34610006D01*
X75663185Y-34513315D01*
X75566494Y-34433963D01*
X75513187Y-34405469D01*
X75589962Y-34342462D01*
X75700405Y-34207886D01*
X75782472Y-34054350D01*
X75833008Y-33887754D01*
X75850072Y-33714500D01*
X75850072Y-33214500D01*
X75833008Y-33041246D01*
X75782472Y-32874650D01*
X75700405Y-32721114D01*
X75589962Y-32586538D01*
X75455386Y-32476095D01*
X75433693Y-32464500D01*
X75455386Y-32452905D01*
X75589962Y-32342462D01*
X75700405Y-32207886D01*
X75782472Y-32054350D01*
X75833008Y-31887754D01*
X75850072Y-31714500D01*
X75850072Y-31214500D01*
X75833008Y-31041246D01*
X75782472Y-30874650D01*
X75700405Y-30721114D01*
X75589962Y-30586538D01*
X75455386Y-30476095D01*
X75301850Y-30394028D01*
X75135254Y-30343492D01*
X74962000Y-30326428D01*
X71962000Y-30326428D01*
X71788746Y-30343492D01*
X71622150Y-30394028D01*
X71468614Y-30476095D01*
X71334038Y-30586538D01*
X71298780Y-30629500D01*
X65932082Y-30629500D01*
X65913472Y-30568149D01*
X65831405Y-30414613D01*
X65790256Y-30364473D01*
X65922150Y-30434972D01*
X66088746Y-30485508D01*
X66262000Y-30502572D01*
X69162000Y-30502572D01*
X69335254Y-30485508D01*
X69501850Y-30434972D01*
X69655386Y-30352905D01*
X69789962Y-30242462D01*
X69900405Y-30107886D01*
X69982472Y-29954350D01*
X70033008Y-29787754D01*
X70050072Y-29614500D01*
X70050072Y-28660000D01*
X75967721Y-28660000D01*
X76065424Y-28669580D01*
G36*
X53855000Y-41876928D02*
G01*
X53561000Y-41876928D01*
X53561000Y-41753072D01*
X53855000Y-41753072D01*
X53855000Y-41876928D01*
X53855000Y-41876928D01*
G37*
X53855000Y-41876928D02*
X53561000Y-41876928D01*
X53561000Y-41753072D01*
X53855000Y-41753072D01*
X53855000Y-41876928D01*
G36*
X54283500Y-34226500D02*
G01*
X54303500Y-34226500D01*
X54303500Y-34480500D01*
X54283500Y-34480500D01*
X54283500Y-35529750D01*
X54442250Y-35688500D01*
X54731500Y-35691572D01*
X54855982Y-35679312D01*
X54975680Y-35643002D01*
X55085994Y-35584037D01*
X55182685Y-35504685D01*
X55248158Y-35424906D01*
X55253538Y-35431462D01*
X55388113Y-35541905D01*
X55541649Y-35623972D01*
X55708245Y-35674508D01*
X55881499Y-35691572D01*
X56531501Y-35691572D01*
X56555188Y-35689239D01*
X56470564Y-35792354D01*
X56393028Y-35937413D01*
X56380109Y-35980000D01*
X55154144Y-35980000D01*
X55052180Y-35925498D01*
X54932482Y-35889188D01*
X54808000Y-35876928D01*
X52608000Y-35876928D01*
X52483518Y-35889188D01*
X52363820Y-35925498D01*
X52253506Y-35984463D01*
X52244191Y-35992108D01*
X52244191Y-35753072D01*
X52608000Y-35753072D01*
X52732482Y-35740812D01*
X52852180Y-35704502D01*
X52962494Y-35645537D01*
X53059185Y-35566185D01*
X53119986Y-35492099D01*
X53130315Y-35504685D01*
X53227006Y-35584037D01*
X53337320Y-35643002D01*
X53457018Y-35679312D01*
X53581500Y-35691572D01*
X53870750Y-35688500D01*
X54029500Y-35529750D01*
X54029500Y-34480500D01*
X54009500Y-34480500D01*
X54009500Y-34226500D01*
X54029500Y-34226500D01*
X54029500Y-34206500D01*
X54283500Y-34206500D01*
X54283500Y-34226500D01*
X54283500Y-34226500D01*
G37*
X54283500Y-34226500D02*
X54303500Y-34226500D01*
X54303500Y-34480500D01*
X54283500Y-34480500D01*
X54283500Y-35529750D01*
X54442250Y-35688500D01*
X54731500Y-35691572D01*
X54855982Y-35679312D01*
X54975680Y-35643002D01*
X55085994Y-35584037D01*
X55182685Y-35504685D01*
X55248158Y-35424906D01*
X55253538Y-35431462D01*
X55388113Y-35541905D01*
X55541649Y-35623972D01*
X55708245Y-35674508D01*
X55881499Y-35691572D01*
X56531501Y-35691572D01*
X56555188Y-35689239D01*
X56470564Y-35792354D01*
X56393028Y-35937413D01*
X56380109Y-35980000D01*
X55154144Y-35980000D01*
X55052180Y-35925498D01*
X54932482Y-35889188D01*
X54808000Y-35876928D01*
X52608000Y-35876928D01*
X52483518Y-35889188D01*
X52363820Y-35925498D01*
X52253506Y-35984463D01*
X52244191Y-35992108D01*
X52244191Y-35753072D01*
X52608000Y-35753072D01*
X52732482Y-35740812D01*
X52852180Y-35704502D01*
X52962494Y-35645537D01*
X53059185Y-35566185D01*
X53119986Y-35492099D01*
X53130315Y-35504685D01*
X53227006Y-35584037D01*
X53337320Y-35643002D01*
X53457018Y-35679312D01*
X53581500Y-35691572D01*
X53870750Y-35688500D01*
X54029500Y-35529750D01*
X54029500Y-34480500D01*
X54009500Y-34480500D01*
X54009500Y-34226500D01*
X54029500Y-34226500D01*
X54029500Y-34206500D01*
X54283500Y-34206500D01*
X54283500Y-34226500D01*
M02*
