G04 #@! TF.GenerationSoftware,KiCad,Pcbnew,(5.1.0)-1*
G04 #@! TF.CreationDate,2020-04-02T13:59:07+01:00*
G04 #@! TF.ProjectId,Camera Adapter,43616d65-7261-4204-9164-61707465722e,rev?*
G04 #@! TF.SameCoordinates,Original*
G04 #@! TF.FileFunction,Copper,L1,Top*
G04 #@! TF.FilePolarity,Positive*
%FSLAX46Y46*%
G04 Gerber Fmt 4.6, Leading zero omitted, Abs format (unit mm)*
G04 Created by KiCad (PCBNEW (5.1.0)-1) date 2020-04-02 13:59:07*
%MOMM*%
%LPD*%
G04 APERTURE LIST*
%ADD10R,3.200000X0.700000*%
%ADD11O,3.016000X1.508000*%
%ADD12C,0.100000*%
%ADD13C,1.150000*%
%ADD14R,1.650000X0.600000*%
%ADD15R,1.850000X0.600000*%
%ADD16R,1.700000X1.700000*%
%ADD17O,1.700000X1.700000*%
%ADD18C,1.000000*%
%ADD19C,1.500000*%
%ADD20R,1.650000X0.610000*%
%ADD21C,0.800000*%
%ADD22C,0.400000*%
%ADD23C,0.254000*%
G04 APERTURE END LIST*
D10*
X66200000Y-45930000D03*
X66200000Y-46950000D03*
X66200000Y-47970000D03*
X66200000Y-48990000D03*
X66200000Y-50010000D03*
X66200000Y-51030000D03*
X66200000Y-52050000D03*
X66200000Y-53070000D03*
D11*
X73400000Y-57550000D03*
X73400000Y-41450000D03*
D12*
G36*
X63349505Y-36401204D02*
G01*
X63373773Y-36404804D01*
X63397572Y-36410765D01*
X63420671Y-36419030D01*
X63442850Y-36429520D01*
X63463893Y-36442132D01*
X63483599Y-36456747D01*
X63501777Y-36473223D01*
X63518253Y-36491401D01*
X63532868Y-36511107D01*
X63545480Y-36532150D01*
X63555970Y-36554329D01*
X63564235Y-36577428D01*
X63570196Y-36601227D01*
X63573796Y-36625495D01*
X63575000Y-36649999D01*
X63575000Y-37550001D01*
X63573796Y-37574505D01*
X63570196Y-37598773D01*
X63564235Y-37622572D01*
X63555970Y-37645671D01*
X63545480Y-37667850D01*
X63532868Y-37688893D01*
X63518253Y-37708599D01*
X63501777Y-37726777D01*
X63483599Y-37743253D01*
X63463893Y-37757868D01*
X63442850Y-37770480D01*
X63420671Y-37780970D01*
X63397572Y-37789235D01*
X63373773Y-37795196D01*
X63349505Y-37798796D01*
X63325001Y-37800000D01*
X62674999Y-37800000D01*
X62650495Y-37798796D01*
X62626227Y-37795196D01*
X62602428Y-37789235D01*
X62579329Y-37780970D01*
X62557150Y-37770480D01*
X62536107Y-37757868D01*
X62516401Y-37743253D01*
X62498223Y-37726777D01*
X62481747Y-37708599D01*
X62467132Y-37688893D01*
X62454520Y-37667850D01*
X62444030Y-37645671D01*
X62435765Y-37622572D01*
X62429804Y-37598773D01*
X62426204Y-37574505D01*
X62425000Y-37550001D01*
X62425000Y-36649999D01*
X62426204Y-36625495D01*
X62429804Y-36601227D01*
X62435765Y-36577428D01*
X62444030Y-36554329D01*
X62454520Y-36532150D01*
X62467132Y-36511107D01*
X62481747Y-36491401D01*
X62498223Y-36473223D01*
X62516401Y-36456747D01*
X62536107Y-36442132D01*
X62557150Y-36429520D01*
X62579329Y-36419030D01*
X62602428Y-36410765D01*
X62626227Y-36404804D01*
X62650495Y-36401204D01*
X62674999Y-36400000D01*
X63325001Y-36400000D01*
X63349505Y-36401204D01*
X63349505Y-36401204D01*
G37*
D13*
X63000000Y-37100000D03*
D12*
G36*
X61299505Y-36401204D02*
G01*
X61323773Y-36404804D01*
X61347572Y-36410765D01*
X61370671Y-36419030D01*
X61392850Y-36429520D01*
X61413893Y-36442132D01*
X61433599Y-36456747D01*
X61451777Y-36473223D01*
X61468253Y-36491401D01*
X61482868Y-36511107D01*
X61495480Y-36532150D01*
X61505970Y-36554329D01*
X61514235Y-36577428D01*
X61520196Y-36601227D01*
X61523796Y-36625495D01*
X61525000Y-36649999D01*
X61525000Y-37550001D01*
X61523796Y-37574505D01*
X61520196Y-37598773D01*
X61514235Y-37622572D01*
X61505970Y-37645671D01*
X61495480Y-37667850D01*
X61482868Y-37688893D01*
X61468253Y-37708599D01*
X61451777Y-37726777D01*
X61433599Y-37743253D01*
X61413893Y-37757868D01*
X61392850Y-37770480D01*
X61370671Y-37780970D01*
X61347572Y-37789235D01*
X61323773Y-37795196D01*
X61299505Y-37798796D01*
X61275001Y-37800000D01*
X60624999Y-37800000D01*
X60600495Y-37798796D01*
X60576227Y-37795196D01*
X60552428Y-37789235D01*
X60529329Y-37780970D01*
X60507150Y-37770480D01*
X60486107Y-37757868D01*
X60466401Y-37743253D01*
X60448223Y-37726777D01*
X60431747Y-37708599D01*
X60417132Y-37688893D01*
X60404520Y-37667850D01*
X60394030Y-37645671D01*
X60385765Y-37622572D01*
X60379804Y-37598773D01*
X60376204Y-37574505D01*
X60375000Y-37550001D01*
X60375000Y-36649999D01*
X60376204Y-36625495D01*
X60379804Y-36601227D01*
X60385765Y-36577428D01*
X60394030Y-36554329D01*
X60404520Y-36532150D01*
X60417132Y-36511107D01*
X60431747Y-36491401D01*
X60448223Y-36473223D01*
X60466401Y-36456747D01*
X60486107Y-36442132D01*
X60507150Y-36429520D01*
X60529329Y-36419030D01*
X60552428Y-36410765D01*
X60576227Y-36404804D01*
X60600495Y-36401204D01*
X60624999Y-36400000D01*
X61275001Y-36400000D01*
X61299505Y-36401204D01*
X61299505Y-36401204D01*
G37*
D13*
X60950000Y-37100000D03*
D12*
G36*
X73724505Y-32426204D02*
G01*
X73748773Y-32429804D01*
X73772572Y-32435765D01*
X73795671Y-32444030D01*
X73817850Y-32454520D01*
X73838893Y-32467132D01*
X73858599Y-32481747D01*
X73876777Y-32498223D01*
X73893253Y-32516401D01*
X73907868Y-32536107D01*
X73920480Y-32557150D01*
X73930970Y-32579329D01*
X73939235Y-32602428D01*
X73945196Y-32626227D01*
X73948796Y-32650495D01*
X73950000Y-32674999D01*
X73950000Y-33325001D01*
X73948796Y-33349505D01*
X73945196Y-33373773D01*
X73939235Y-33397572D01*
X73930970Y-33420671D01*
X73920480Y-33442850D01*
X73907868Y-33463893D01*
X73893253Y-33483599D01*
X73876777Y-33501777D01*
X73858599Y-33518253D01*
X73838893Y-33532868D01*
X73817850Y-33545480D01*
X73795671Y-33555970D01*
X73772572Y-33564235D01*
X73748773Y-33570196D01*
X73724505Y-33573796D01*
X73700001Y-33575000D01*
X72799999Y-33575000D01*
X72775495Y-33573796D01*
X72751227Y-33570196D01*
X72727428Y-33564235D01*
X72704329Y-33555970D01*
X72682150Y-33545480D01*
X72661107Y-33532868D01*
X72641401Y-33518253D01*
X72623223Y-33501777D01*
X72606747Y-33483599D01*
X72592132Y-33463893D01*
X72579520Y-33442850D01*
X72569030Y-33420671D01*
X72560765Y-33397572D01*
X72554804Y-33373773D01*
X72551204Y-33349505D01*
X72550000Y-33325001D01*
X72550000Y-32674999D01*
X72551204Y-32650495D01*
X72554804Y-32626227D01*
X72560765Y-32602428D01*
X72569030Y-32579329D01*
X72579520Y-32557150D01*
X72592132Y-32536107D01*
X72606747Y-32516401D01*
X72623223Y-32498223D01*
X72641401Y-32481747D01*
X72661107Y-32467132D01*
X72682150Y-32454520D01*
X72704329Y-32444030D01*
X72727428Y-32435765D01*
X72751227Y-32429804D01*
X72775495Y-32426204D01*
X72799999Y-32425000D01*
X73700001Y-32425000D01*
X73724505Y-32426204D01*
X73724505Y-32426204D01*
G37*
D13*
X73250000Y-33000000D03*
D12*
G36*
X73724505Y-30376204D02*
G01*
X73748773Y-30379804D01*
X73772572Y-30385765D01*
X73795671Y-30394030D01*
X73817850Y-30404520D01*
X73838893Y-30417132D01*
X73858599Y-30431747D01*
X73876777Y-30448223D01*
X73893253Y-30466401D01*
X73907868Y-30486107D01*
X73920480Y-30507150D01*
X73930970Y-30529329D01*
X73939235Y-30552428D01*
X73945196Y-30576227D01*
X73948796Y-30600495D01*
X73950000Y-30624999D01*
X73950000Y-31275001D01*
X73948796Y-31299505D01*
X73945196Y-31323773D01*
X73939235Y-31347572D01*
X73930970Y-31370671D01*
X73920480Y-31392850D01*
X73907868Y-31413893D01*
X73893253Y-31433599D01*
X73876777Y-31451777D01*
X73858599Y-31468253D01*
X73838893Y-31482868D01*
X73817850Y-31495480D01*
X73795671Y-31505970D01*
X73772572Y-31514235D01*
X73748773Y-31520196D01*
X73724505Y-31523796D01*
X73700001Y-31525000D01*
X72799999Y-31525000D01*
X72775495Y-31523796D01*
X72751227Y-31520196D01*
X72727428Y-31514235D01*
X72704329Y-31505970D01*
X72682150Y-31495480D01*
X72661107Y-31482868D01*
X72641401Y-31468253D01*
X72623223Y-31451777D01*
X72606747Y-31433599D01*
X72592132Y-31413893D01*
X72579520Y-31392850D01*
X72569030Y-31370671D01*
X72560765Y-31347572D01*
X72554804Y-31323773D01*
X72551204Y-31299505D01*
X72550000Y-31275001D01*
X72550000Y-30624999D01*
X72551204Y-30600495D01*
X72554804Y-30576227D01*
X72560765Y-30552428D01*
X72569030Y-30529329D01*
X72579520Y-30507150D01*
X72592132Y-30486107D01*
X72606747Y-30466401D01*
X72623223Y-30448223D01*
X72641401Y-30431747D01*
X72661107Y-30417132D01*
X72682150Y-30404520D01*
X72704329Y-30394030D01*
X72727428Y-30385765D01*
X72751227Y-30379804D01*
X72775495Y-30376204D01*
X72799999Y-30375000D01*
X73700001Y-30375000D01*
X73724505Y-30376204D01*
X73724505Y-30376204D01*
G37*
D13*
X73250000Y-30950000D03*
D12*
G36*
X69674505Y-35501204D02*
G01*
X69698773Y-35504804D01*
X69722572Y-35510765D01*
X69745671Y-35519030D01*
X69767850Y-35529520D01*
X69788893Y-35542132D01*
X69808599Y-35556747D01*
X69826777Y-35573223D01*
X69843253Y-35591401D01*
X69857868Y-35611107D01*
X69870480Y-35632150D01*
X69880970Y-35654329D01*
X69889235Y-35677428D01*
X69895196Y-35701227D01*
X69898796Y-35725495D01*
X69900000Y-35749999D01*
X69900000Y-36400001D01*
X69898796Y-36424505D01*
X69895196Y-36448773D01*
X69889235Y-36472572D01*
X69880970Y-36495671D01*
X69870480Y-36517850D01*
X69857868Y-36538893D01*
X69843253Y-36558599D01*
X69826777Y-36576777D01*
X69808599Y-36593253D01*
X69788893Y-36607868D01*
X69767850Y-36620480D01*
X69745671Y-36630970D01*
X69722572Y-36639235D01*
X69698773Y-36645196D01*
X69674505Y-36648796D01*
X69650001Y-36650000D01*
X68749999Y-36650000D01*
X68725495Y-36648796D01*
X68701227Y-36645196D01*
X68677428Y-36639235D01*
X68654329Y-36630970D01*
X68632150Y-36620480D01*
X68611107Y-36607868D01*
X68591401Y-36593253D01*
X68573223Y-36576777D01*
X68556747Y-36558599D01*
X68542132Y-36538893D01*
X68529520Y-36517850D01*
X68519030Y-36495671D01*
X68510765Y-36472572D01*
X68504804Y-36448773D01*
X68501204Y-36424505D01*
X68500000Y-36400001D01*
X68500000Y-35749999D01*
X68501204Y-35725495D01*
X68504804Y-35701227D01*
X68510765Y-35677428D01*
X68519030Y-35654329D01*
X68529520Y-35632150D01*
X68542132Y-35611107D01*
X68556747Y-35591401D01*
X68573223Y-35573223D01*
X68591401Y-35556747D01*
X68611107Y-35542132D01*
X68632150Y-35529520D01*
X68654329Y-35519030D01*
X68677428Y-35510765D01*
X68701227Y-35504804D01*
X68725495Y-35501204D01*
X68749999Y-35500000D01*
X69650001Y-35500000D01*
X69674505Y-35501204D01*
X69674505Y-35501204D01*
G37*
D13*
X69200000Y-36075000D03*
D12*
G36*
X69674505Y-37551204D02*
G01*
X69698773Y-37554804D01*
X69722572Y-37560765D01*
X69745671Y-37569030D01*
X69767850Y-37579520D01*
X69788893Y-37592132D01*
X69808599Y-37606747D01*
X69826777Y-37623223D01*
X69843253Y-37641401D01*
X69857868Y-37661107D01*
X69870480Y-37682150D01*
X69880970Y-37704329D01*
X69889235Y-37727428D01*
X69895196Y-37751227D01*
X69898796Y-37775495D01*
X69900000Y-37799999D01*
X69900000Y-38450001D01*
X69898796Y-38474505D01*
X69895196Y-38498773D01*
X69889235Y-38522572D01*
X69880970Y-38545671D01*
X69870480Y-38567850D01*
X69857868Y-38588893D01*
X69843253Y-38608599D01*
X69826777Y-38626777D01*
X69808599Y-38643253D01*
X69788893Y-38657868D01*
X69767850Y-38670480D01*
X69745671Y-38680970D01*
X69722572Y-38689235D01*
X69698773Y-38695196D01*
X69674505Y-38698796D01*
X69650001Y-38700000D01*
X68749999Y-38700000D01*
X68725495Y-38698796D01*
X68701227Y-38695196D01*
X68677428Y-38689235D01*
X68654329Y-38680970D01*
X68632150Y-38670480D01*
X68611107Y-38657868D01*
X68591401Y-38643253D01*
X68573223Y-38626777D01*
X68556747Y-38608599D01*
X68542132Y-38588893D01*
X68529520Y-38567850D01*
X68519030Y-38545671D01*
X68510765Y-38522572D01*
X68504804Y-38498773D01*
X68501204Y-38474505D01*
X68500000Y-38450001D01*
X68500000Y-37799999D01*
X68501204Y-37775495D01*
X68504804Y-37751227D01*
X68510765Y-37727428D01*
X68519030Y-37704329D01*
X68529520Y-37682150D01*
X68542132Y-37661107D01*
X68556747Y-37641401D01*
X68573223Y-37623223D01*
X68591401Y-37606747D01*
X68611107Y-37592132D01*
X68632150Y-37579520D01*
X68654329Y-37569030D01*
X68677428Y-37560765D01*
X68701227Y-37554804D01*
X68725495Y-37551204D01*
X68749999Y-37550000D01*
X69650001Y-37550000D01*
X69674505Y-37551204D01*
X69674505Y-37551204D01*
G37*
D13*
X69200000Y-38125000D03*
D14*
X50125000Y-42600000D03*
X50125000Y-43600000D03*
X50125000Y-44600000D03*
X50125000Y-45600000D03*
X50125000Y-46600000D03*
X50125000Y-47600000D03*
X50125000Y-48600000D03*
X50125000Y-49600000D03*
X50125000Y-50600000D03*
X50125000Y-51600000D03*
X50125000Y-52600000D03*
X50125000Y-53600000D03*
X50125000Y-54600000D03*
X50125000Y-55600000D03*
X50125000Y-56600000D03*
D15*
X53875000Y-42600000D03*
X53875000Y-43600000D03*
X53875000Y-44600000D03*
X53875000Y-45600000D03*
X53875000Y-46600000D03*
X53875000Y-47600000D03*
X53875000Y-48600000D03*
X53875000Y-49600000D03*
X53875000Y-50600000D03*
X53875000Y-51600000D03*
X53875000Y-52600000D03*
X53875000Y-53600000D03*
X53875000Y-54600000D03*
X53875000Y-55600000D03*
X53875000Y-56600000D03*
D16*
X70000000Y-33000000D03*
D17*
X70000000Y-30460000D03*
D12*
G36*
X52074504Y-35801204D02*
G01*
X52098773Y-35804804D01*
X52122571Y-35810765D01*
X52145671Y-35819030D01*
X52167849Y-35829520D01*
X52188893Y-35842133D01*
X52208598Y-35856747D01*
X52226777Y-35873223D01*
X52243253Y-35891402D01*
X52257867Y-35911107D01*
X52270480Y-35932151D01*
X52280970Y-35954329D01*
X52289235Y-35977429D01*
X52295196Y-36001227D01*
X52298796Y-36025496D01*
X52300000Y-36050000D01*
X52300000Y-36550000D01*
X52298796Y-36574504D01*
X52295196Y-36598773D01*
X52289235Y-36622571D01*
X52280970Y-36645671D01*
X52270480Y-36667849D01*
X52257867Y-36688893D01*
X52243253Y-36708598D01*
X52226777Y-36726777D01*
X52208598Y-36743253D01*
X52188893Y-36757867D01*
X52167849Y-36770480D01*
X52145671Y-36780970D01*
X52122571Y-36789235D01*
X52098773Y-36795196D01*
X52074504Y-36798796D01*
X52050000Y-36800000D01*
X49050000Y-36800000D01*
X49025496Y-36798796D01*
X49001227Y-36795196D01*
X48977429Y-36789235D01*
X48954329Y-36780970D01*
X48932151Y-36770480D01*
X48911107Y-36757867D01*
X48891402Y-36743253D01*
X48873223Y-36726777D01*
X48856747Y-36708598D01*
X48842133Y-36688893D01*
X48829520Y-36667849D01*
X48819030Y-36645671D01*
X48810765Y-36622571D01*
X48804804Y-36598773D01*
X48801204Y-36574504D01*
X48800000Y-36550000D01*
X48800000Y-36050000D01*
X48801204Y-36025496D01*
X48804804Y-36001227D01*
X48810765Y-35977429D01*
X48819030Y-35954329D01*
X48829520Y-35932151D01*
X48842133Y-35911107D01*
X48856747Y-35891402D01*
X48873223Y-35873223D01*
X48891402Y-35856747D01*
X48911107Y-35842133D01*
X48932151Y-35829520D01*
X48954329Y-35819030D01*
X48977429Y-35810765D01*
X49001227Y-35804804D01*
X49025496Y-35801204D01*
X49050000Y-35800000D01*
X52050000Y-35800000D01*
X52074504Y-35801204D01*
X52074504Y-35801204D01*
G37*
D18*
X50550000Y-36300000D03*
D12*
G36*
X52074504Y-33801204D02*
G01*
X52098773Y-33804804D01*
X52122571Y-33810765D01*
X52145671Y-33819030D01*
X52167849Y-33829520D01*
X52188893Y-33842133D01*
X52208598Y-33856747D01*
X52226777Y-33873223D01*
X52243253Y-33891402D01*
X52257867Y-33911107D01*
X52270480Y-33932151D01*
X52280970Y-33954329D01*
X52289235Y-33977429D01*
X52295196Y-34001227D01*
X52298796Y-34025496D01*
X52300000Y-34050000D01*
X52300000Y-34550000D01*
X52298796Y-34574504D01*
X52295196Y-34598773D01*
X52289235Y-34622571D01*
X52280970Y-34645671D01*
X52270480Y-34667849D01*
X52257867Y-34688893D01*
X52243253Y-34708598D01*
X52226777Y-34726777D01*
X52208598Y-34743253D01*
X52188893Y-34757867D01*
X52167849Y-34770480D01*
X52145671Y-34780970D01*
X52122571Y-34789235D01*
X52098773Y-34795196D01*
X52074504Y-34798796D01*
X52050000Y-34800000D01*
X49050000Y-34800000D01*
X49025496Y-34798796D01*
X49001227Y-34795196D01*
X48977429Y-34789235D01*
X48954329Y-34780970D01*
X48932151Y-34770480D01*
X48911107Y-34757867D01*
X48891402Y-34743253D01*
X48873223Y-34726777D01*
X48856747Y-34708598D01*
X48842133Y-34688893D01*
X48829520Y-34667849D01*
X48819030Y-34645671D01*
X48810765Y-34622571D01*
X48804804Y-34598773D01*
X48801204Y-34574504D01*
X48800000Y-34550000D01*
X48800000Y-34050000D01*
X48801204Y-34025496D01*
X48804804Y-34001227D01*
X48810765Y-33977429D01*
X48819030Y-33954329D01*
X48829520Y-33932151D01*
X48842133Y-33911107D01*
X48856747Y-33891402D01*
X48873223Y-33873223D01*
X48891402Y-33856747D01*
X48911107Y-33842133D01*
X48932151Y-33829520D01*
X48954329Y-33819030D01*
X48977429Y-33810765D01*
X49001227Y-33804804D01*
X49025496Y-33801204D01*
X49050000Y-33800000D01*
X52050000Y-33800000D01*
X52074504Y-33801204D01*
X52074504Y-33801204D01*
G37*
D18*
X50550000Y-34300000D03*
D12*
G36*
X52074504Y-31801204D02*
G01*
X52098773Y-31804804D01*
X52122571Y-31810765D01*
X52145671Y-31819030D01*
X52167849Y-31829520D01*
X52188893Y-31842133D01*
X52208598Y-31856747D01*
X52226777Y-31873223D01*
X52243253Y-31891402D01*
X52257867Y-31911107D01*
X52270480Y-31932151D01*
X52280970Y-31954329D01*
X52289235Y-31977429D01*
X52295196Y-32001227D01*
X52298796Y-32025496D01*
X52300000Y-32050000D01*
X52300000Y-32550000D01*
X52298796Y-32574504D01*
X52295196Y-32598773D01*
X52289235Y-32622571D01*
X52280970Y-32645671D01*
X52270480Y-32667849D01*
X52257867Y-32688893D01*
X52243253Y-32708598D01*
X52226777Y-32726777D01*
X52208598Y-32743253D01*
X52188893Y-32757867D01*
X52167849Y-32770480D01*
X52145671Y-32780970D01*
X52122571Y-32789235D01*
X52098773Y-32795196D01*
X52074504Y-32798796D01*
X52050000Y-32800000D01*
X49050000Y-32800000D01*
X49025496Y-32798796D01*
X49001227Y-32795196D01*
X48977429Y-32789235D01*
X48954329Y-32780970D01*
X48932151Y-32770480D01*
X48911107Y-32757867D01*
X48891402Y-32743253D01*
X48873223Y-32726777D01*
X48856747Y-32708598D01*
X48842133Y-32688893D01*
X48829520Y-32667849D01*
X48819030Y-32645671D01*
X48810765Y-32622571D01*
X48804804Y-32598773D01*
X48801204Y-32574504D01*
X48800000Y-32550000D01*
X48800000Y-32050000D01*
X48801204Y-32025496D01*
X48804804Y-32001227D01*
X48810765Y-31977429D01*
X48819030Y-31954329D01*
X48829520Y-31932151D01*
X48842133Y-31911107D01*
X48856747Y-31891402D01*
X48873223Y-31873223D01*
X48891402Y-31856747D01*
X48911107Y-31842133D01*
X48932151Y-31829520D01*
X48954329Y-31819030D01*
X48977429Y-31810765D01*
X49001227Y-31804804D01*
X49025496Y-31801204D01*
X49050000Y-31800000D01*
X52050000Y-31800000D01*
X52074504Y-31801204D01*
X52074504Y-31801204D01*
G37*
D18*
X50550000Y-32300000D03*
D12*
G36*
X57774504Y-37901204D02*
G01*
X57798773Y-37904804D01*
X57822571Y-37910765D01*
X57845671Y-37919030D01*
X57867849Y-37929520D01*
X57888893Y-37942133D01*
X57908598Y-37956747D01*
X57926777Y-37973223D01*
X57943253Y-37991402D01*
X57957867Y-38011107D01*
X57970480Y-38032151D01*
X57980970Y-38054329D01*
X57989235Y-38077429D01*
X57995196Y-38101227D01*
X57998796Y-38125496D01*
X58000000Y-38150000D01*
X58000000Y-39150000D01*
X57998796Y-39174504D01*
X57995196Y-39198773D01*
X57989235Y-39222571D01*
X57980970Y-39245671D01*
X57970480Y-39267849D01*
X57957867Y-39288893D01*
X57943253Y-39308598D01*
X57926777Y-39326777D01*
X57908598Y-39343253D01*
X57888893Y-39357867D01*
X57867849Y-39370480D01*
X57845671Y-39380970D01*
X57822571Y-39389235D01*
X57798773Y-39395196D01*
X57774504Y-39398796D01*
X57750000Y-39400000D01*
X54850000Y-39400000D01*
X54825496Y-39398796D01*
X54801227Y-39395196D01*
X54777429Y-39389235D01*
X54754329Y-39380970D01*
X54732151Y-39370480D01*
X54711107Y-39357867D01*
X54691402Y-39343253D01*
X54673223Y-39326777D01*
X54656747Y-39308598D01*
X54642133Y-39288893D01*
X54629520Y-39267849D01*
X54619030Y-39245671D01*
X54610765Y-39222571D01*
X54604804Y-39198773D01*
X54601204Y-39174504D01*
X54600000Y-39150000D01*
X54600000Y-38150000D01*
X54601204Y-38125496D01*
X54604804Y-38101227D01*
X54610765Y-38077429D01*
X54619030Y-38054329D01*
X54629520Y-38032151D01*
X54642133Y-38011107D01*
X54656747Y-37991402D01*
X54673223Y-37973223D01*
X54691402Y-37956747D01*
X54711107Y-37942133D01*
X54732151Y-37929520D01*
X54754329Y-37919030D01*
X54777429Y-37910765D01*
X54801227Y-37904804D01*
X54825496Y-37901204D01*
X54850000Y-37900000D01*
X57750000Y-37900000D01*
X57774504Y-37901204D01*
X57774504Y-37901204D01*
G37*
D19*
X56300000Y-38650000D03*
D12*
G36*
X57774504Y-29201204D02*
G01*
X57798773Y-29204804D01*
X57822571Y-29210765D01*
X57845671Y-29219030D01*
X57867849Y-29229520D01*
X57888893Y-29242133D01*
X57908598Y-29256747D01*
X57926777Y-29273223D01*
X57943253Y-29291402D01*
X57957867Y-29311107D01*
X57970480Y-29332151D01*
X57980970Y-29354329D01*
X57989235Y-29377429D01*
X57995196Y-29401227D01*
X57998796Y-29425496D01*
X58000000Y-29450000D01*
X58000000Y-30450000D01*
X57998796Y-30474504D01*
X57995196Y-30498773D01*
X57989235Y-30522571D01*
X57980970Y-30545671D01*
X57970480Y-30567849D01*
X57957867Y-30588893D01*
X57943253Y-30608598D01*
X57926777Y-30626777D01*
X57908598Y-30643253D01*
X57888893Y-30657867D01*
X57867849Y-30670480D01*
X57845671Y-30680970D01*
X57822571Y-30689235D01*
X57798773Y-30695196D01*
X57774504Y-30698796D01*
X57750000Y-30700000D01*
X54850000Y-30700000D01*
X54825496Y-30698796D01*
X54801227Y-30695196D01*
X54777429Y-30689235D01*
X54754329Y-30680970D01*
X54732151Y-30670480D01*
X54711107Y-30657867D01*
X54691402Y-30643253D01*
X54673223Y-30626777D01*
X54656747Y-30608598D01*
X54642133Y-30588893D01*
X54629520Y-30567849D01*
X54619030Y-30545671D01*
X54610765Y-30522571D01*
X54604804Y-30498773D01*
X54601204Y-30474504D01*
X54600000Y-30450000D01*
X54600000Y-29450000D01*
X54601204Y-29425496D01*
X54604804Y-29401227D01*
X54610765Y-29377429D01*
X54619030Y-29354329D01*
X54629520Y-29332151D01*
X54642133Y-29311107D01*
X54656747Y-29291402D01*
X54673223Y-29273223D01*
X54691402Y-29256747D01*
X54711107Y-29242133D01*
X54732151Y-29229520D01*
X54754329Y-29219030D01*
X54777429Y-29210765D01*
X54801227Y-29204804D01*
X54825496Y-29201204D01*
X54850000Y-29200000D01*
X57750000Y-29200000D01*
X57774504Y-29201204D01*
X57774504Y-29201204D01*
G37*
D19*
X56300000Y-29950000D03*
D15*
X53875000Y-75000000D03*
X53875000Y-74000000D03*
X53875000Y-73000000D03*
X53875000Y-72000000D03*
X53875000Y-71000000D03*
X53875000Y-70000000D03*
X53875000Y-69000000D03*
X53875000Y-68000000D03*
X53875000Y-67000000D03*
X53875000Y-66000000D03*
X53875000Y-65000000D03*
X53875000Y-64000000D03*
X53875000Y-63000000D03*
X53875000Y-62000000D03*
X53875000Y-61000000D03*
D14*
X50125000Y-75000000D03*
X50125000Y-74000000D03*
X50125000Y-73000000D03*
X50125000Y-72000000D03*
X50125000Y-71000000D03*
X50125000Y-70000000D03*
X50125000Y-69000000D03*
X50125000Y-68000000D03*
X50125000Y-67000000D03*
X50125000Y-66000000D03*
X50125000Y-65000000D03*
X50125000Y-64000000D03*
X50125000Y-63000000D03*
X50125000Y-62000000D03*
X50125000Y-61000000D03*
D11*
X73400000Y-59950000D03*
X73400000Y-76050000D03*
D10*
X66200000Y-71570000D03*
X66200000Y-70550000D03*
X66200000Y-69530000D03*
X66200000Y-68510000D03*
X66200000Y-67490000D03*
X66200000Y-66470000D03*
X66200000Y-65450000D03*
X66200000Y-64430000D03*
D12*
G36*
X66674505Y-37551204D02*
G01*
X66698773Y-37554804D01*
X66722572Y-37560765D01*
X66745671Y-37569030D01*
X66767850Y-37579520D01*
X66788893Y-37592132D01*
X66808599Y-37606747D01*
X66826777Y-37623223D01*
X66843253Y-37641401D01*
X66857868Y-37661107D01*
X66870480Y-37682150D01*
X66880970Y-37704329D01*
X66889235Y-37727428D01*
X66895196Y-37751227D01*
X66898796Y-37775495D01*
X66900000Y-37799999D01*
X66900000Y-38450001D01*
X66898796Y-38474505D01*
X66895196Y-38498773D01*
X66889235Y-38522572D01*
X66880970Y-38545671D01*
X66870480Y-38567850D01*
X66857868Y-38588893D01*
X66843253Y-38608599D01*
X66826777Y-38626777D01*
X66808599Y-38643253D01*
X66788893Y-38657868D01*
X66767850Y-38670480D01*
X66745671Y-38680970D01*
X66722572Y-38689235D01*
X66698773Y-38695196D01*
X66674505Y-38698796D01*
X66650001Y-38700000D01*
X65749999Y-38700000D01*
X65725495Y-38698796D01*
X65701227Y-38695196D01*
X65677428Y-38689235D01*
X65654329Y-38680970D01*
X65632150Y-38670480D01*
X65611107Y-38657868D01*
X65591401Y-38643253D01*
X65573223Y-38626777D01*
X65556747Y-38608599D01*
X65542132Y-38588893D01*
X65529520Y-38567850D01*
X65519030Y-38545671D01*
X65510765Y-38522572D01*
X65504804Y-38498773D01*
X65501204Y-38474505D01*
X65500000Y-38450001D01*
X65500000Y-37799999D01*
X65501204Y-37775495D01*
X65504804Y-37751227D01*
X65510765Y-37727428D01*
X65519030Y-37704329D01*
X65529520Y-37682150D01*
X65542132Y-37661107D01*
X65556747Y-37641401D01*
X65573223Y-37623223D01*
X65591401Y-37606747D01*
X65611107Y-37592132D01*
X65632150Y-37579520D01*
X65654329Y-37569030D01*
X65677428Y-37560765D01*
X65701227Y-37554804D01*
X65725495Y-37551204D01*
X65749999Y-37550000D01*
X66650001Y-37550000D01*
X66674505Y-37551204D01*
X66674505Y-37551204D01*
G37*
D13*
X66200000Y-38125000D03*
D12*
G36*
X66674505Y-35501204D02*
G01*
X66698773Y-35504804D01*
X66722572Y-35510765D01*
X66745671Y-35519030D01*
X66767850Y-35529520D01*
X66788893Y-35542132D01*
X66808599Y-35556747D01*
X66826777Y-35573223D01*
X66843253Y-35591401D01*
X66857868Y-35611107D01*
X66870480Y-35632150D01*
X66880970Y-35654329D01*
X66889235Y-35677428D01*
X66895196Y-35701227D01*
X66898796Y-35725495D01*
X66900000Y-35749999D01*
X66900000Y-36400001D01*
X66898796Y-36424505D01*
X66895196Y-36448773D01*
X66889235Y-36472572D01*
X66880970Y-36495671D01*
X66870480Y-36517850D01*
X66857868Y-36538893D01*
X66843253Y-36558599D01*
X66826777Y-36576777D01*
X66808599Y-36593253D01*
X66788893Y-36607868D01*
X66767850Y-36620480D01*
X66745671Y-36630970D01*
X66722572Y-36639235D01*
X66698773Y-36645196D01*
X66674505Y-36648796D01*
X66650001Y-36650000D01*
X65749999Y-36650000D01*
X65725495Y-36648796D01*
X65701227Y-36645196D01*
X65677428Y-36639235D01*
X65654329Y-36630970D01*
X65632150Y-36620480D01*
X65611107Y-36607868D01*
X65591401Y-36593253D01*
X65573223Y-36576777D01*
X65556747Y-36558599D01*
X65542132Y-36538893D01*
X65529520Y-36517850D01*
X65519030Y-36495671D01*
X65510765Y-36472572D01*
X65504804Y-36448773D01*
X65501204Y-36424505D01*
X65500000Y-36400001D01*
X65500000Y-35749999D01*
X65501204Y-35725495D01*
X65504804Y-35701227D01*
X65510765Y-35677428D01*
X65519030Y-35654329D01*
X65529520Y-35632150D01*
X65542132Y-35611107D01*
X65556747Y-35591401D01*
X65573223Y-35573223D01*
X65591401Y-35556747D01*
X65611107Y-35542132D01*
X65632150Y-35529520D01*
X65654329Y-35519030D01*
X65677428Y-35510765D01*
X65701227Y-35504804D01*
X65725495Y-35501204D01*
X65749999Y-35500000D01*
X66650001Y-35500000D01*
X66674505Y-35501204D01*
X66674505Y-35501204D01*
G37*
D13*
X66200000Y-36075000D03*
D20*
X66030000Y-29795000D03*
X66030000Y-31065000D03*
X66030000Y-32335000D03*
X66030000Y-33605000D03*
X60770000Y-33605000D03*
X60770000Y-32335000D03*
X60770000Y-31065000D03*
X60770000Y-29795000D03*
D21*
X57431000Y-68530300D03*
X57702400Y-58271000D03*
X63200000Y-49874500D03*
X57262500Y-53865200D03*
X63275300Y-50959000D03*
X56918400Y-56102600D03*
X63754800Y-72014900D03*
X56908800Y-69533300D03*
D22*
X57269500Y-68710500D02*
X57753200Y-69194200D01*
X57753200Y-69194200D02*
X57753200Y-69847000D01*
X57753200Y-69847000D02*
X55600200Y-72000000D01*
X55600200Y-72000000D02*
X53875000Y-72000000D01*
X55200300Y-69000000D02*
X55489800Y-68710500D01*
X55489800Y-68710500D02*
X57269500Y-68710500D01*
X57269500Y-68710500D02*
X57431000Y-68549000D01*
X57431000Y-68549000D02*
X57431000Y-68530300D01*
X52699800Y-53600000D02*
X52549700Y-53750100D01*
X52549700Y-53750100D02*
X52549700Y-56600000D01*
X70000000Y-30460000D02*
X68749700Y-30460000D01*
X63000000Y-30799700D02*
X63000000Y-37100000D01*
X61995300Y-29795000D02*
X63000000Y-30799700D01*
X68749700Y-30460000D02*
X67379300Y-29089600D01*
X67379300Y-29089600D02*
X64710100Y-29089600D01*
X64710100Y-29089600D02*
X63000000Y-30799700D01*
X73250000Y-30950000D02*
X72760000Y-30460000D01*
X72760000Y-30460000D02*
X70000000Y-30460000D01*
X60770000Y-29795000D02*
X61995300Y-29795000D01*
X60157400Y-29795000D02*
X60770000Y-29795000D01*
X59544700Y-29795000D02*
X57039700Y-32300000D01*
X57039700Y-32300000D02*
X50550000Y-32300000D01*
X73400000Y-57550000D02*
X71491700Y-57550000D01*
X71491700Y-57550000D02*
X71412400Y-57470700D01*
X71412400Y-57470700D02*
X56071000Y-57470700D01*
X56071000Y-57470700D02*
X55200300Y-56600000D01*
X53875000Y-47600000D02*
X52549700Y-47600000D01*
X52549700Y-50600000D02*
X52549700Y-47600000D01*
X52699800Y-53600000D02*
X52549700Y-53449900D01*
X52549700Y-53449900D02*
X52549700Y-50600000D01*
X53875000Y-50600000D02*
X52549700Y-50600000D01*
X53875000Y-56600000D02*
X55200300Y-56600000D01*
X71491700Y-36075000D02*
X69200000Y-36075000D01*
X73250000Y-30950000D02*
X74377000Y-32077000D01*
X74377000Y-32077000D02*
X74377000Y-33619500D01*
X74377000Y-33619500D02*
X71921500Y-36075000D01*
X71921500Y-36075000D02*
X71491700Y-36075000D01*
X71491700Y-41450000D02*
X71491700Y-36075000D01*
X73400000Y-41450000D02*
X71491700Y-41450000D01*
X53875000Y-56600000D02*
X52549700Y-56600000D01*
X53875000Y-69000000D02*
X52549700Y-69000000D01*
X53875000Y-66000000D02*
X52549700Y-66000000D01*
X52549700Y-66000000D02*
X52549700Y-69000000D01*
X60157400Y-29795000D02*
X59544700Y-29795000D01*
X53875000Y-69000000D02*
X55200300Y-69000000D01*
X53875000Y-53600000D02*
X52699800Y-53600000D01*
X53875000Y-75000000D02*
X52549700Y-75000000D01*
X53875000Y-72000000D02*
X52549700Y-72000000D01*
X52549700Y-72000000D02*
X52549700Y-75000000D01*
X58499900Y-34649800D02*
X59544700Y-33605000D01*
X50550000Y-36300000D02*
X56849700Y-36300000D01*
X56849700Y-36300000D02*
X58499900Y-34649800D01*
X58499900Y-34649800D02*
X60950000Y-37100000D01*
X60770000Y-33605000D02*
X59544700Y-33605000D01*
X61995300Y-37812300D02*
X62388900Y-38205900D01*
X62388900Y-38205900D02*
X64069100Y-38205900D01*
X64069100Y-38205900D02*
X66200000Y-36075000D01*
X61995300Y-32335000D02*
X61995300Y-37812300D01*
X61995300Y-37812300D02*
X57207600Y-42600000D01*
X57207600Y-42600000D02*
X55200300Y-42600000D01*
X53875000Y-42600000D02*
X55200300Y-42600000D01*
X61845200Y-32335000D02*
X61995300Y-32335000D01*
X61995300Y-32335000D02*
X61995300Y-31065000D01*
X60770000Y-32335000D02*
X61845200Y-32335000D01*
X60770000Y-31065000D02*
X61995300Y-31065000D01*
X53875000Y-61000000D02*
X55200300Y-61000000D01*
X57702400Y-58271000D02*
X55200300Y-60773100D01*
X55200300Y-60773100D02*
X55200300Y-61000000D01*
X67255300Y-33000000D02*
X67255300Y-35019700D01*
X67255300Y-35019700D02*
X66200000Y-36075000D01*
X67255300Y-33000000D02*
X67255300Y-32335000D01*
X67255300Y-33000000D02*
X68749700Y-33000000D01*
X70000000Y-33000000D02*
X68749700Y-33000000D01*
X66642700Y-31065000D02*
X67255300Y-31677600D01*
X67255300Y-31677600D02*
X67255300Y-32335000D01*
X66030000Y-32335000D02*
X67255300Y-32335000D01*
X66030000Y-31065000D02*
X66642700Y-31065000D01*
X70000000Y-33000000D02*
X73250000Y-33000000D01*
X69200000Y-38125000D02*
X66200000Y-38125000D01*
X66200000Y-45930000D02*
X59992900Y-45930000D01*
X59992900Y-45930000D02*
X57662900Y-43600000D01*
X57662900Y-43600000D02*
X53875000Y-43600000D01*
X66200000Y-46950000D02*
X58868300Y-46950000D01*
X58868300Y-46950000D02*
X56518300Y-44600000D01*
X56518300Y-44600000D02*
X53875000Y-44600000D01*
X53875000Y-65000000D02*
X52549700Y-65000000D01*
X52549700Y-65000000D02*
X51943900Y-64394200D01*
X51943900Y-64394200D02*
X51943900Y-47005800D01*
X51943900Y-47005800D02*
X52349700Y-46600000D01*
X52349700Y-46600000D02*
X52349700Y-41145500D01*
X52349700Y-41145500D02*
X48373000Y-37168800D01*
X48373000Y-37168800D02*
X48373000Y-35807100D01*
X48373000Y-35807100D02*
X49880100Y-34300000D01*
X49880100Y-34300000D02*
X50550000Y-34300000D01*
X52349700Y-46600000D02*
X52549700Y-46600000D01*
X53875000Y-46600000D02*
X52549700Y-46600000D01*
X53875000Y-48600000D02*
X59272100Y-48600000D01*
X59272100Y-48600000D02*
X59902100Y-47970000D01*
X59902100Y-47970000D02*
X66200000Y-47970000D01*
X53875000Y-49600000D02*
X55200300Y-49600000D01*
X66200000Y-48990000D02*
X59899600Y-48990000D01*
X59899600Y-48990000D02*
X59289600Y-49600000D01*
X59289600Y-49600000D02*
X55200300Y-49600000D01*
X66200000Y-52050000D02*
X64199700Y-52050000D01*
X53875000Y-51600000D02*
X55200300Y-51600000D01*
X55200300Y-51600000D02*
X55650300Y-52050000D01*
X55650300Y-52050000D02*
X64199700Y-52050000D01*
X66200000Y-53070000D02*
X64199700Y-53070000D01*
X53875000Y-52600000D02*
X55200300Y-52600000D01*
X55200300Y-52600000D02*
X55400700Y-52800400D01*
X55400700Y-52800400D02*
X63930100Y-52800400D01*
X63930100Y-52800400D02*
X64199700Y-53070000D01*
X66200000Y-50010000D02*
X64199700Y-50010000D01*
X63200000Y-49874500D02*
X64064200Y-49874500D01*
X64064200Y-49874500D02*
X64199700Y-50010000D01*
X53875000Y-54600000D02*
X56527700Y-54600000D01*
X56527700Y-54600000D02*
X57262500Y-53865200D01*
X63275300Y-50959000D02*
X64128700Y-50959000D01*
X64128700Y-50959000D02*
X64199700Y-51030000D01*
X66200000Y-51030000D02*
X64199700Y-51030000D01*
X53875000Y-55600000D02*
X56415800Y-55600000D01*
X56415800Y-55600000D02*
X56918400Y-56102600D01*
X66200000Y-69530000D02*
X60669800Y-69530000D01*
X60669800Y-69530000D02*
X56199800Y-74000000D01*
X56199800Y-74000000D02*
X53875000Y-74000000D01*
X64199700Y-68510000D02*
X59939300Y-68510000D01*
X59939300Y-68510000D02*
X55449300Y-73000000D01*
X55449300Y-73000000D02*
X53875000Y-73000000D01*
X66200000Y-68510000D02*
X64199700Y-68510000D01*
X53875000Y-71000000D02*
X55442100Y-71000000D01*
X55442100Y-71000000D02*
X56908800Y-69533300D01*
X63754800Y-72014900D02*
X64199700Y-71570000D01*
X66200000Y-71570000D02*
X64199700Y-71570000D01*
X51935700Y-70000000D02*
X51935700Y-75289100D01*
X51935700Y-75289100D02*
X52388500Y-75741900D01*
X52388500Y-75741900D02*
X55407700Y-75741900D01*
X55407700Y-75741900D02*
X60599600Y-70550000D01*
X60599600Y-70550000D02*
X66200000Y-70550000D01*
X51935700Y-70000000D02*
X53875000Y-70000000D01*
X51350300Y-70000000D02*
X51935700Y-70000000D01*
X50125000Y-70000000D02*
X51350300Y-70000000D01*
X53875000Y-68000000D02*
X55200300Y-68000000D01*
X66200000Y-67490000D02*
X64199700Y-67490000D01*
X64199700Y-67490000D02*
X63989300Y-67700400D01*
X63989300Y-67700400D02*
X55499900Y-67700400D01*
X55499900Y-67700400D02*
X55200300Y-68000000D01*
X66200000Y-66470000D02*
X64199700Y-66470000D01*
X64199700Y-66470000D02*
X63669700Y-67000000D01*
X63669700Y-67000000D02*
X53875000Y-67000000D01*
X66200000Y-65450000D02*
X59832300Y-65450000D01*
X59832300Y-65450000D02*
X57382300Y-63000000D01*
X57382300Y-63000000D02*
X53875000Y-63000000D01*
X53875000Y-62000000D02*
X61769700Y-62000000D01*
X61769700Y-62000000D02*
X64199700Y-64430000D01*
X66200000Y-64430000D02*
X64199700Y-64430000D01*
D23*
G36*
X54022000Y-72061928D02*
G01*
X53728000Y-72061928D01*
X53728000Y-71938072D01*
X54022000Y-71938072D01*
X54022000Y-72061928D01*
X54022000Y-72061928D01*
G37*
X54022000Y-72061928D02*
X53728000Y-72061928D01*
X53728000Y-71938072D01*
X54022000Y-71938072D01*
X54022000Y-72061928D01*
G36*
X55430532Y-71837901D02*
G01*
X55395435Y-71872998D01*
X55276252Y-71872998D01*
X55314250Y-71835000D01*
X55401082Y-71835000D01*
X55430532Y-71837901D01*
X55430532Y-71837901D01*
G37*
X55430532Y-71837901D02*
X55395435Y-71872998D01*
X55276252Y-71872998D01*
X55314250Y-71835000D01*
X55401082Y-71835000D01*
X55430532Y-71837901D01*
G36*
X59212859Y-66011427D02*
G01*
X59239009Y-66043291D01*
X59366154Y-66147636D01*
X59398640Y-66165000D01*
X55314250Y-66165000D01*
X55276250Y-66127000D01*
X55075053Y-66127000D01*
X55044180Y-66110498D01*
X54924482Y-66074188D01*
X54800000Y-66061928D01*
X52950000Y-66061928D01*
X52825518Y-66074188D01*
X52705820Y-66110498D01*
X52674947Y-66127000D01*
X52473750Y-66127000D01*
X52315000Y-66285750D01*
X52311928Y-66300000D01*
X52324188Y-66424482D01*
X52347096Y-66500000D01*
X52324188Y-66575518D01*
X52311928Y-66700000D01*
X52311928Y-67300000D01*
X52324188Y-67424482D01*
X52347096Y-67500000D01*
X52324188Y-67575518D01*
X52311928Y-67700000D01*
X52311928Y-68300000D01*
X52324188Y-68424482D01*
X52347096Y-68500000D01*
X52324188Y-68575518D01*
X52311928Y-68700000D01*
X52315000Y-68714250D01*
X52473750Y-68873000D01*
X52674947Y-68873000D01*
X52705820Y-68889502D01*
X52825518Y-68925812D01*
X52950000Y-68938072D01*
X54800000Y-68938072D01*
X54924482Y-68925812D01*
X55044180Y-68889502D01*
X55075053Y-68873000D01*
X55276250Y-68873000D01*
X55322218Y-68827032D01*
X55363989Y-68822918D01*
X55521387Y-68775172D01*
X55666446Y-68697636D01*
X55793591Y-68593291D01*
X55819746Y-68561421D01*
X55845767Y-68535400D01*
X56620345Y-68535400D01*
X56606902Y-68538074D01*
X56418544Y-68616095D01*
X56249026Y-68729363D01*
X56104863Y-68873526D01*
X55991595Y-69043044D01*
X55913574Y-69231402D01*
X55884708Y-69376525D01*
X55438072Y-69823161D01*
X55438072Y-69700000D01*
X55425812Y-69575518D01*
X55402904Y-69500000D01*
X55425812Y-69424482D01*
X55438072Y-69300000D01*
X55435000Y-69285750D01*
X55276250Y-69127000D01*
X55075053Y-69127000D01*
X55044180Y-69110498D01*
X54924482Y-69074188D01*
X54800000Y-69061928D01*
X52950000Y-69061928D01*
X52825518Y-69074188D01*
X52705820Y-69110498D01*
X52674947Y-69127000D01*
X52473750Y-69127000D01*
X52435750Y-69165000D01*
X51976718Y-69165000D01*
X51935700Y-69160960D01*
X51894681Y-69165000D01*
X51588072Y-69165000D01*
X51588072Y-68700000D01*
X51575812Y-68575518D01*
X51552904Y-68500000D01*
X51575812Y-68424482D01*
X51588072Y-68300000D01*
X51588072Y-67700000D01*
X51575812Y-67575518D01*
X51552904Y-67500000D01*
X51575812Y-67424482D01*
X51588072Y-67300000D01*
X51588072Y-66700000D01*
X51575812Y-66575518D01*
X51552904Y-66500000D01*
X51575812Y-66424482D01*
X51588072Y-66300000D01*
X51588072Y-65700000D01*
X51575812Y-65575518D01*
X51552904Y-65500000D01*
X51575812Y-65424482D01*
X51588072Y-65300000D01*
X51588072Y-65219240D01*
X51930262Y-65561431D01*
X51956409Y-65593291D01*
X51988268Y-65619437D01*
X51988270Y-65619439D01*
X52019723Y-65645251D01*
X52083554Y-65697636D01*
X52228613Y-65775172D01*
X52386011Y-65822918D01*
X52427782Y-65827032D01*
X52473750Y-65873000D01*
X52674947Y-65873000D01*
X52705820Y-65889502D01*
X52825518Y-65925812D01*
X52950000Y-65938072D01*
X54800000Y-65938072D01*
X54924482Y-65925812D01*
X55044180Y-65889502D01*
X55075053Y-65873000D01*
X55276250Y-65873000D01*
X55435000Y-65714250D01*
X55438072Y-65700000D01*
X55425812Y-65575518D01*
X55402904Y-65500000D01*
X55425812Y-65424482D01*
X55438072Y-65300000D01*
X55438072Y-64700000D01*
X55425812Y-64575518D01*
X55402904Y-64500000D01*
X55425812Y-64424482D01*
X55438072Y-64300000D01*
X55438072Y-63835000D01*
X57036433Y-63835000D01*
X59212859Y-66011427D01*
X59212859Y-66011427D01*
G37*
X59212859Y-66011427D02*
X59239009Y-66043291D01*
X59366154Y-66147636D01*
X59398640Y-66165000D01*
X55314250Y-66165000D01*
X55276250Y-66127000D01*
X55075053Y-66127000D01*
X55044180Y-66110498D01*
X54924482Y-66074188D01*
X54800000Y-66061928D01*
X52950000Y-66061928D01*
X52825518Y-66074188D01*
X52705820Y-66110498D01*
X52674947Y-66127000D01*
X52473750Y-66127000D01*
X52315000Y-66285750D01*
X52311928Y-66300000D01*
X52324188Y-66424482D01*
X52347096Y-66500000D01*
X52324188Y-66575518D01*
X52311928Y-66700000D01*
X52311928Y-67300000D01*
X52324188Y-67424482D01*
X52347096Y-67500000D01*
X52324188Y-67575518D01*
X52311928Y-67700000D01*
X52311928Y-68300000D01*
X52324188Y-68424482D01*
X52347096Y-68500000D01*
X52324188Y-68575518D01*
X52311928Y-68700000D01*
X52315000Y-68714250D01*
X52473750Y-68873000D01*
X52674947Y-68873000D01*
X52705820Y-68889502D01*
X52825518Y-68925812D01*
X52950000Y-68938072D01*
X54800000Y-68938072D01*
X54924482Y-68925812D01*
X55044180Y-68889502D01*
X55075053Y-68873000D01*
X55276250Y-68873000D01*
X55322218Y-68827032D01*
X55363989Y-68822918D01*
X55521387Y-68775172D01*
X55666446Y-68697636D01*
X55793591Y-68593291D01*
X55819746Y-68561421D01*
X55845767Y-68535400D01*
X56620345Y-68535400D01*
X56606902Y-68538074D01*
X56418544Y-68616095D01*
X56249026Y-68729363D01*
X56104863Y-68873526D01*
X55991595Y-69043044D01*
X55913574Y-69231402D01*
X55884708Y-69376525D01*
X55438072Y-69823161D01*
X55438072Y-69700000D01*
X55425812Y-69575518D01*
X55402904Y-69500000D01*
X55425812Y-69424482D01*
X55438072Y-69300000D01*
X55435000Y-69285750D01*
X55276250Y-69127000D01*
X55075053Y-69127000D01*
X55044180Y-69110498D01*
X54924482Y-69074188D01*
X54800000Y-69061928D01*
X52950000Y-69061928D01*
X52825518Y-69074188D01*
X52705820Y-69110498D01*
X52674947Y-69127000D01*
X52473750Y-69127000D01*
X52435750Y-69165000D01*
X51976718Y-69165000D01*
X51935700Y-69160960D01*
X51894681Y-69165000D01*
X51588072Y-69165000D01*
X51588072Y-68700000D01*
X51575812Y-68575518D01*
X51552904Y-68500000D01*
X51575812Y-68424482D01*
X51588072Y-68300000D01*
X51588072Y-67700000D01*
X51575812Y-67575518D01*
X51552904Y-67500000D01*
X51575812Y-67424482D01*
X51588072Y-67300000D01*
X51588072Y-66700000D01*
X51575812Y-66575518D01*
X51552904Y-66500000D01*
X51575812Y-66424482D01*
X51588072Y-66300000D01*
X51588072Y-65700000D01*
X51575812Y-65575518D01*
X51552904Y-65500000D01*
X51575812Y-65424482D01*
X51588072Y-65300000D01*
X51588072Y-65219240D01*
X51930262Y-65561431D01*
X51956409Y-65593291D01*
X51988268Y-65619437D01*
X51988270Y-65619439D01*
X52019723Y-65645251D01*
X52083554Y-65697636D01*
X52228613Y-65775172D01*
X52386011Y-65822918D01*
X52427782Y-65827032D01*
X52473750Y-65873000D01*
X52674947Y-65873000D01*
X52705820Y-65889502D01*
X52825518Y-65925812D01*
X52950000Y-65938072D01*
X54800000Y-65938072D01*
X54924482Y-65925812D01*
X55044180Y-65889502D01*
X55075053Y-65873000D01*
X55276250Y-65873000D01*
X55435000Y-65714250D01*
X55438072Y-65700000D01*
X55425812Y-65575518D01*
X55402904Y-65500000D01*
X55425812Y-65424482D01*
X55438072Y-65300000D01*
X55438072Y-64700000D01*
X55425812Y-64575518D01*
X55402904Y-64500000D01*
X55425812Y-64424482D01*
X55438072Y-64300000D01*
X55438072Y-63835000D01*
X57036433Y-63835000D01*
X59212859Y-66011427D01*
G36*
X57926093Y-69342339D02*
G01*
X57904026Y-69231402D01*
X57826005Y-69043044D01*
X57712737Y-68873526D01*
X57568574Y-68729363D01*
X57399056Y-68616095D01*
X57210698Y-68538074D01*
X57197255Y-68535400D01*
X58733031Y-68535400D01*
X57926093Y-69342339D01*
X57926093Y-69342339D01*
G37*
X57926093Y-69342339D02*
X57904026Y-69231402D01*
X57826005Y-69043044D01*
X57712737Y-68873526D01*
X57568574Y-68729363D01*
X57399056Y-68616095D01*
X57210698Y-68538074D01*
X57197255Y-68535400D01*
X58733031Y-68535400D01*
X57926093Y-69342339D01*
G36*
X63606409Y-53663291D02*
G01*
X63733554Y-53767636D01*
X63878613Y-53845172D01*
X64036011Y-53892918D01*
X64131918Y-53902364D01*
X64194293Y-53908507D01*
X64245506Y-53950537D01*
X64355820Y-54009502D01*
X64475518Y-54045812D01*
X64600000Y-54058072D01*
X67800000Y-54058072D01*
X67864500Y-54051719D01*
X67864500Y-56468789D01*
X67861426Y-56500000D01*
X67873696Y-56624580D01*
X67910035Y-56744372D01*
X67969045Y-56854773D01*
X68006162Y-56900000D01*
X68048460Y-56951540D01*
X68145227Y-57030955D01*
X68255628Y-57089965D01*
X68375420Y-57126304D01*
X68500000Y-57138574D01*
X68531211Y-57135500D01*
X71314250Y-57135500D01*
X71314130Y-57135785D01*
X71299714Y-57208186D01*
X71422323Y-57423000D01*
X73273000Y-57423000D01*
X73273000Y-57403000D01*
X73527000Y-57403000D01*
X73527000Y-57423000D01*
X75377677Y-57423000D01*
X75500286Y-57208186D01*
X75485870Y-57135785D01*
X75485750Y-57135500D01*
X76340000Y-57135500D01*
X76340000Y-60364500D01*
X75479763Y-60364500D01*
X75522902Y-60222291D01*
X75549720Y-59950000D01*
X75522902Y-59677709D01*
X75443477Y-59415881D01*
X75314499Y-59174580D01*
X75140923Y-58963077D01*
X74929420Y-58789501D01*
X74855541Y-58750012D01*
X75031284Y-58634354D01*
X75225974Y-58442369D01*
X75379469Y-58216091D01*
X75485870Y-57964215D01*
X75500286Y-57891814D01*
X75377677Y-57677000D01*
X73527000Y-57677000D01*
X73527000Y-57697000D01*
X73273000Y-57697000D01*
X73273000Y-57677000D01*
X71422323Y-57677000D01*
X71299714Y-57891814D01*
X71314130Y-57964215D01*
X71420531Y-58216091D01*
X71574026Y-58442369D01*
X71768716Y-58634354D01*
X71944459Y-58750012D01*
X71870580Y-58789501D01*
X71659077Y-58963077D01*
X71485501Y-59174580D01*
X71356523Y-59415881D01*
X71277098Y-59677709D01*
X71250280Y-59950000D01*
X71277098Y-60222291D01*
X71320237Y-60364500D01*
X68531211Y-60364500D01*
X68500000Y-60361426D01*
X68468789Y-60364500D01*
X68375420Y-60373696D01*
X68255628Y-60410035D01*
X68145227Y-60469045D01*
X68048460Y-60548460D01*
X67969045Y-60645227D01*
X67910035Y-60755628D01*
X67873696Y-60875420D01*
X67861426Y-61000000D01*
X67864501Y-61031221D01*
X67864501Y-63448281D01*
X67800000Y-63441928D01*
X64600000Y-63441928D01*
X64475518Y-63454188D01*
X64421226Y-63470657D01*
X62389146Y-61438579D01*
X62362991Y-61406709D01*
X62235846Y-61302364D01*
X62090787Y-61224828D01*
X61933389Y-61177082D01*
X61810719Y-61165000D01*
X61810718Y-61165000D01*
X61769700Y-61160960D01*
X61728682Y-61165000D01*
X56022820Y-61165000D01*
X56023218Y-61163688D01*
X56026784Y-61127483D01*
X57859176Y-59295092D01*
X58004298Y-59266226D01*
X58192656Y-59188205D01*
X58362174Y-59074937D01*
X58506337Y-58930774D01*
X58619605Y-58761256D01*
X58697626Y-58572898D01*
X58737400Y-58372939D01*
X58737400Y-58169061D01*
X58697626Y-57969102D01*
X58619605Y-57780744D01*
X58506337Y-57611226D01*
X58362174Y-57467063D01*
X58192656Y-57353795D01*
X58004298Y-57275774D01*
X57804339Y-57236000D01*
X57600461Y-57236000D01*
X57400502Y-57275774D01*
X57212144Y-57353795D01*
X57042626Y-57467063D01*
X56898463Y-57611226D01*
X56785195Y-57780744D01*
X56707174Y-57969102D01*
X56678308Y-58114224D01*
X54730605Y-60061928D01*
X52950000Y-60061928D01*
X52825518Y-60074188D01*
X52778900Y-60088329D01*
X52778900Y-57511671D01*
X52825518Y-57525812D01*
X52950000Y-57538072D01*
X53589250Y-57535000D01*
X53748000Y-57376250D01*
X53748000Y-56727000D01*
X54002000Y-56727000D01*
X54002000Y-57376250D01*
X54160750Y-57535000D01*
X54800000Y-57538072D01*
X54924482Y-57525812D01*
X55044180Y-57489502D01*
X55154494Y-57430537D01*
X55251185Y-57351185D01*
X55330537Y-57254494D01*
X55389502Y-57144180D01*
X55425812Y-57024482D01*
X55438072Y-56900000D01*
X55435000Y-56885750D01*
X55276250Y-56727000D01*
X54002000Y-56727000D01*
X53748000Y-56727000D01*
X53728000Y-56727000D01*
X53728000Y-56538072D01*
X54800000Y-56538072D01*
X54924482Y-56525812D01*
X55044180Y-56489502D01*
X55075053Y-56473000D01*
X55276250Y-56473000D01*
X55314250Y-56435000D01*
X55935808Y-56435000D01*
X56001195Y-56592856D01*
X56114463Y-56762374D01*
X56258626Y-56906537D01*
X56428144Y-57019805D01*
X56616502Y-57097826D01*
X56816461Y-57137600D01*
X57020339Y-57137600D01*
X57220298Y-57097826D01*
X57408656Y-57019805D01*
X57578174Y-56906537D01*
X57722337Y-56762374D01*
X57835605Y-56592856D01*
X57913626Y-56404498D01*
X57953400Y-56204539D01*
X57953400Y-56000661D01*
X57913626Y-55800702D01*
X57835605Y-55612344D01*
X57722337Y-55442826D01*
X57578174Y-55298663D01*
X57408656Y-55185395D01*
X57220298Y-55107374D01*
X57204363Y-55104204D01*
X57419275Y-54889293D01*
X57564398Y-54860426D01*
X57752756Y-54782405D01*
X57922274Y-54669137D01*
X58066437Y-54524974D01*
X58179705Y-54355456D01*
X58257726Y-54167098D01*
X58297500Y-53967139D01*
X58297500Y-53763261D01*
X58272067Y-53635400D01*
X63583519Y-53635400D01*
X63606409Y-53663291D01*
X63606409Y-53663291D01*
G37*
X63606409Y-53663291D02*
X63733554Y-53767636D01*
X63878613Y-53845172D01*
X64036011Y-53892918D01*
X64131918Y-53902364D01*
X64194293Y-53908507D01*
X64245506Y-53950537D01*
X64355820Y-54009502D01*
X64475518Y-54045812D01*
X64600000Y-54058072D01*
X67800000Y-54058072D01*
X67864500Y-54051719D01*
X67864500Y-56468789D01*
X67861426Y-56500000D01*
X67873696Y-56624580D01*
X67910035Y-56744372D01*
X67969045Y-56854773D01*
X68006162Y-56900000D01*
X68048460Y-56951540D01*
X68145227Y-57030955D01*
X68255628Y-57089965D01*
X68375420Y-57126304D01*
X68500000Y-57138574D01*
X68531211Y-57135500D01*
X71314250Y-57135500D01*
X71314130Y-57135785D01*
X71299714Y-57208186D01*
X71422323Y-57423000D01*
X73273000Y-57423000D01*
X73273000Y-57403000D01*
X73527000Y-57403000D01*
X73527000Y-57423000D01*
X75377677Y-57423000D01*
X75500286Y-57208186D01*
X75485870Y-57135785D01*
X75485750Y-57135500D01*
X76340000Y-57135500D01*
X76340000Y-60364500D01*
X75479763Y-60364500D01*
X75522902Y-60222291D01*
X75549720Y-59950000D01*
X75522902Y-59677709D01*
X75443477Y-59415881D01*
X75314499Y-59174580D01*
X75140923Y-58963077D01*
X74929420Y-58789501D01*
X74855541Y-58750012D01*
X75031284Y-58634354D01*
X75225974Y-58442369D01*
X75379469Y-58216091D01*
X75485870Y-57964215D01*
X75500286Y-57891814D01*
X75377677Y-57677000D01*
X73527000Y-57677000D01*
X73527000Y-57697000D01*
X73273000Y-57697000D01*
X73273000Y-57677000D01*
X71422323Y-57677000D01*
X71299714Y-57891814D01*
X71314130Y-57964215D01*
X71420531Y-58216091D01*
X71574026Y-58442369D01*
X71768716Y-58634354D01*
X71944459Y-58750012D01*
X71870580Y-58789501D01*
X71659077Y-58963077D01*
X71485501Y-59174580D01*
X71356523Y-59415881D01*
X71277098Y-59677709D01*
X71250280Y-59950000D01*
X71277098Y-60222291D01*
X71320237Y-60364500D01*
X68531211Y-60364500D01*
X68500000Y-60361426D01*
X68468789Y-60364500D01*
X68375420Y-60373696D01*
X68255628Y-60410035D01*
X68145227Y-60469045D01*
X68048460Y-60548460D01*
X67969045Y-60645227D01*
X67910035Y-60755628D01*
X67873696Y-60875420D01*
X67861426Y-61000000D01*
X67864501Y-61031221D01*
X67864501Y-63448281D01*
X67800000Y-63441928D01*
X64600000Y-63441928D01*
X64475518Y-63454188D01*
X64421226Y-63470657D01*
X62389146Y-61438579D01*
X62362991Y-61406709D01*
X62235846Y-61302364D01*
X62090787Y-61224828D01*
X61933389Y-61177082D01*
X61810719Y-61165000D01*
X61810718Y-61165000D01*
X61769700Y-61160960D01*
X61728682Y-61165000D01*
X56022820Y-61165000D01*
X56023218Y-61163688D01*
X56026784Y-61127483D01*
X57859176Y-59295092D01*
X58004298Y-59266226D01*
X58192656Y-59188205D01*
X58362174Y-59074937D01*
X58506337Y-58930774D01*
X58619605Y-58761256D01*
X58697626Y-58572898D01*
X58737400Y-58372939D01*
X58737400Y-58169061D01*
X58697626Y-57969102D01*
X58619605Y-57780744D01*
X58506337Y-57611226D01*
X58362174Y-57467063D01*
X58192656Y-57353795D01*
X58004298Y-57275774D01*
X57804339Y-57236000D01*
X57600461Y-57236000D01*
X57400502Y-57275774D01*
X57212144Y-57353795D01*
X57042626Y-57467063D01*
X56898463Y-57611226D01*
X56785195Y-57780744D01*
X56707174Y-57969102D01*
X56678308Y-58114224D01*
X54730605Y-60061928D01*
X52950000Y-60061928D01*
X52825518Y-60074188D01*
X52778900Y-60088329D01*
X52778900Y-57511671D01*
X52825518Y-57525812D01*
X52950000Y-57538072D01*
X53589250Y-57535000D01*
X53748000Y-57376250D01*
X53748000Y-56727000D01*
X54002000Y-56727000D01*
X54002000Y-57376250D01*
X54160750Y-57535000D01*
X54800000Y-57538072D01*
X54924482Y-57525812D01*
X55044180Y-57489502D01*
X55154494Y-57430537D01*
X55251185Y-57351185D01*
X55330537Y-57254494D01*
X55389502Y-57144180D01*
X55425812Y-57024482D01*
X55438072Y-56900000D01*
X55435000Y-56885750D01*
X55276250Y-56727000D01*
X54002000Y-56727000D01*
X53748000Y-56727000D01*
X53728000Y-56727000D01*
X53728000Y-56538072D01*
X54800000Y-56538072D01*
X54924482Y-56525812D01*
X55044180Y-56489502D01*
X55075053Y-56473000D01*
X55276250Y-56473000D01*
X55314250Y-56435000D01*
X55935808Y-56435000D01*
X56001195Y-56592856D01*
X56114463Y-56762374D01*
X56258626Y-56906537D01*
X56428144Y-57019805D01*
X56616502Y-57097826D01*
X56816461Y-57137600D01*
X57020339Y-57137600D01*
X57220298Y-57097826D01*
X57408656Y-57019805D01*
X57578174Y-56906537D01*
X57722337Y-56762374D01*
X57835605Y-56592856D01*
X57913626Y-56404498D01*
X57953400Y-56204539D01*
X57953400Y-56000661D01*
X57913626Y-55800702D01*
X57835605Y-55612344D01*
X57722337Y-55442826D01*
X57578174Y-55298663D01*
X57408656Y-55185395D01*
X57220298Y-55107374D01*
X57204363Y-55104204D01*
X57419275Y-54889293D01*
X57564398Y-54860426D01*
X57752756Y-54782405D01*
X57922274Y-54669137D01*
X58066437Y-54524974D01*
X58179705Y-54355456D01*
X58257726Y-54167098D01*
X58297500Y-53967139D01*
X58297500Y-53763261D01*
X58272067Y-53635400D01*
X63583519Y-53635400D01*
X63606409Y-53663291D01*
G36*
X54022000Y-53661928D02*
G01*
X53728000Y-53661928D01*
X53728000Y-53538072D01*
X54022000Y-53538072D01*
X54022000Y-53661928D01*
X54022000Y-53661928D01*
G37*
X54022000Y-53661928D02*
X53728000Y-53661928D01*
X53728000Y-53538072D01*
X54022000Y-53538072D01*
X54022000Y-53661928D01*
G36*
X62165000Y-49976439D02*
G01*
X62204774Y-50176398D01*
X62282795Y-50364756D01*
X62355869Y-50474119D01*
X62280074Y-50657102D01*
X62240300Y-50857061D01*
X62240300Y-51060939D01*
X62270944Y-51215000D01*
X55996167Y-51215000D01*
X55819746Y-51038579D01*
X55793591Y-51006709D01*
X55666446Y-50902364D01*
X55521387Y-50824828D01*
X55363989Y-50777082D01*
X55322218Y-50772968D01*
X55276250Y-50727000D01*
X55075053Y-50727000D01*
X55044180Y-50710498D01*
X54924482Y-50674188D01*
X54800000Y-50661928D01*
X53728000Y-50661928D01*
X53728000Y-50538072D01*
X54800000Y-50538072D01*
X54924482Y-50525812D01*
X55044180Y-50489502D01*
X55075053Y-50473000D01*
X55276250Y-50473000D01*
X55314250Y-50435000D01*
X59248582Y-50435000D01*
X59289600Y-50439040D01*
X59330618Y-50435000D01*
X59330619Y-50435000D01*
X59453289Y-50422918D01*
X59610687Y-50375172D01*
X59755746Y-50297636D01*
X59882891Y-50193291D01*
X59909046Y-50161422D01*
X60245468Y-49825000D01*
X62165000Y-49825000D01*
X62165000Y-49976439D01*
X62165000Y-49976439D01*
G37*
X62165000Y-49976439D02*
X62204774Y-50176398D01*
X62282795Y-50364756D01*
X62355869Y-50474119D01*
X62280074Y-50657102D01*
X62240300Y-50857061D01*
X62240300Y-51060939D01*
X62270944Y-51215000D01*
X55996167Y-51215000D01*
X55819746Y-51038579D01*
X55793591Y-51006709D01*
X55666446Y-50902364D01*
X55521387Y-50824828D01*
X55363989Y-50777082D01*
X55322218Y-50772968D01*
X55276250Y-50727000D01*
X55075053Y-50727000D01*
X55044180Y-50710498D01*
X54924482Y-50674188D01*
X54800000Y-50661928D01*
X53728000Y-50661928D01*
X53728000Y-50538072D01*
X54800000Y-50538072D01*
X54924482Y-50525812D01*
X55044180Y-50489502D01*
X55075053Y-50473000D01*
X55276250Y-50473000D01*
X55314250Y-50435000D01*
X59248582Y-50435000D01*
X59289600Y-50439040D01*
X59330618Y-50435000D01*
X59330619Y-50435000D01*
X59453289Y-50422918D01*
X59610687Y-50375172D01*
X59755746Y-50297636D01*
X59882891Y-50193291D01*
X59909046Y-50161422D01*
X60245468Y-49825000D01*
X62165000Y-49825000D01*
X62165000Y-49976439D01*
G36*
X58248863Y-47511432D02*
G01*
X58275009Y-47543291D01*
X58306868Y-47569437D01*
X58306870Y-47569439D01*
X58402154Y-47647636D01*
X58547213Y-47725172D01*
X58678509Y-47765000D01*
X55314250Y-47765000D01*
X55276250Y-47727000D01*
X55075053Y-47727000D01*
X55044180Y-47710498D01*
X54924482Y-47674188D01*
X54800000Y-47661928D01*
X53728000Y-47661928D01*
X53728000Y-47538072D01*
X54800000Y-47538072D01*
X54924482Y-47525812D01*
X55044180Y-47489502D01*
X55075053Y-47473000D01*
X55276250Y-47473000D01*
X55435000Y-47314250D01*
X55438072Y-47300000D01*
X55425812Y-47175518D01*
X55402904Y-47100000D01*
X55425812Y-47024482D01*
X55438072Y-46900000D01*
X55438072Y-46300000D01*
X55425812Y-46175518D01*
X55402904Y-46100000D01*
X55425812Y-46024482D01*
X55438072Y-45900000D01*
X55438072Y-45435000D01*
X56172433Y-45435000D01*
X58248863Y-47511432D01*
X58248863Y-47511432D01*
G37*
X58248863Y-47511432D02*
X58275009Y-47543291D01*
X58306868Y-47569437D01*
X58306870Y-47569439D01*
X58402154Y-47647636D01*
X58547213Y-47725172D01*
X58678509Y-47765000D01*
X55314250Y-47765000D01*
X55276250Y-47727000D01*
X55075053Y-47727000D01*
X55044180Y-47710498D01*
X54924482Y-47674188D01*
X54800000Y-47661928D01*
X53728000Y-47661928D01*
X53728000Y-47538072D01*
X54800000Y-47538072D01*
X54924482Y-47525812D01*
X55044180Y-47489502D01*
X55075053Y-47473000D01*
X55276250Y-47473000D01*
X55435000Y-47314250D01*
X55438072Y-47300000D01*
X55425812Y-47175518D01*
X55402904Y-47100000D01*
X55425812Y-47024482D01*
X55438072Y-46900000D01*
X55438072Y-46300000D01*
X55425812Y-46175518D01*
X55402904Y-46100000D01*
X55425812Y-46024482D01*
X55438072Y-45900000D01*
X55438072Y-45435000D01*
X56172433Y-45435000D01*
X58248863Y-47511432D01*
G36*
X54356614Y-28711595D02*
G01*
X54222038Y-28822038D01*
X54111595Y-28956614D01*
X54029528Y-29110150D01*
X53978992Y-29276746D01*
X53961928Y-29450000D01*
X53961928Y-30450000D01*
X53978992Y-30623254D01*
X54029528Y-30789850D01*
X54111595Y-30943386D01*
X54222038Y-31077962D01*
X54356614Y-31188405D01*
X54510150Y-31270472D01*
X54676746Y-31321008D01*
X54850000Y-31338072D01*
X57750000Y-31338072D01*
X57923254Y-31321008D01*
X58089850Y-31270472D01*
X58243386Y-31188405D01*
X58377962Y-31077962D01*
X58488405Y-30943386D01*
X58570472Y-30789850D01*
X58621008Y-30623254D01*
X58638072Y-30450000D01*
X58638072Y-29490000D01*
X59306928Y-29490000D01*
X59310000Y-29509250D01*
X59468750Y-29668000D01*
X60643000Y-29668000D01*
X60643000Y-29013750D01*
X60897000Y-29013750D01*
X60897000Y-29668000D01*
X62071250Y-29668000D01*
X62230000Y-29509250D01*
X62233072Y-29490000D01*
X62220812Y-29365518D01*
X62184502Y-29245820D01*
X62125537Y-29135506D01*
X62046185Y-29038815D01*
X61949494Y-28959463D01*
X61839180Y-28900498D01*
X61719482Y-28864188D01*
X61595000Y-28851928D01*
X61055750Y-28855000D01*
X60897000Y-29013750D01*
X60643000Y-29013750D01*
X60484250Y-28855000D01*
X59945000Y-28851928D01*
X59820518Y-28864188D01*
X59700820Y-28900498D01*
X59590506Y-28959463D01*
X59493815Y-29038815D01*
X59414463Y-29135506D01*
X59355498Y-29245820D01*
X59319188Y-29365518D01*
X59306928Y-29490000D01*
X58638072Y-29490000D01*
X58638072Y-29450000D01*
X58621008Y-29276746D01*
X58570472Y-29110150D01*
X58488405Y-28956614D01*
X58377962Y-28822038D01*
X58243386Y-28711595D01*
X58146859Y-28660000D01*
X75967721Y-28660000D01*
X76065424Y-28669580D01*
X76128356Y-28688580D01*
X76186405Y-28719445D01*
X76237343Y-28760989D01*
X76279248Y-28811644D01*
X76310515Y-28869471D01*
X76329956Y-28932272D01*
X76340001Y-29027845D01*
X76340001Y-41864500D01*
X75485750Y-41864500D01*
X75485870Y-41864215D01*
X75500286Y-41791814D01*
X75377677Y-41577000D01*
X73527000Y-41577000D01*
X73527000Y-41597000D01*
X73273000Y-41597000D01*
X73273000Y-41577000D01*
X71422323Y-41577000D01*
X71299714Y-41791814D01*
X71314130Y-41864215D01*
X71314250Y-41864500D01*
X68531211Y-41864500D01*
X68500000Y-41861426D01*
X68468789Y-41864500D01*
X68375420Y-41873696D01*
X68255628Y-41910035D01*
X68145227Y-41969045D01*
X68048460Y-42048460D01*
X67969045Y-42145227D01*
X67910035Y-42255628D01*
X67873696Y-42375420D01*
X67861426Y-42500000D01*
X67864501Y-42531221D01*
X67864501Y-44948281D01*
X67800000Y-44941928D01*
X64600000Y-44941928D01*
X64475518Y-44954188D01*
X64355820Y-44990498D01*
X64245506Y-45049463D01*
X64190019Y-45095000D01*
X60782558Y-45095000D01*
X61058669Y-44980631D01*
X61424729Y-44736038D01*
X61736038Y-44424729D01*
X61980631Y-44058669D01*
X62149110Y-43651925D01*
X62235000Y-43220128D01*
X62235000Y-42779872D01*
X62149110Y-42348075D01*
X61980631Y-41941331D01*
X61736038Y-41575271D01*
X61424729Y-41263962D01*
X61191594Y-41108186D01*
X71299714Y-41108186D01*
X71422323Y-41323000D01*
X73273000Y-41323000D01*
X73273000Y-41303000D01*
X73527000Y-41303000D01*
X73527000Y-41323000D01*
X75377677Y-41323000D01*
X75500286Y-41108186D01*
X75485870Y-41035785D01*
X75379469Y-40783909D01*
X75225974Y-40557631D01*
X75031284Y-40365646D01*
X74802880Y-40215332D01*
X74549540Y-40112466D01*
X74281000Y-40061000D01*
X72519000Y-40061000D01*
X72250460Y-40112466D01*
X71997120Y-40215332D01*
X71768716Y-40365646D01*
X71574026Y-40557631D01*
X71420531Y-40783909D01*
X71314130Y-41035785D01*
X71299714Y-41108186D01*
X61191594Y-41108186D01*
X61058669Y-41019369D01*
X60651925Y-40850890D01*
X60222913Y-40765554D01*
X62028441Y-38960027D01*
X62067813Y-38981072D01*
X62225211Y-39028818D01*
X62347881Y-39040900D01*
X62347891Y-39040900D01*
X62388899Y-39044939D01*
X62429907Y-39040900D01*
X64028082Y-39040900D01*
X64069100Y-39044940D01*
X64110118Y-39040900D01*
X64110119Y-39040900D01*
X64232789Y-39028818D01*
X64390187Y-38981072D01*
X64535246Y-38903536D01*
X64662391Y-38799191D01*
X64688546Y-38767321D01*
X64874834Y-38581034D01*
X64878992Y-38623255D01*
X64929528Y-38789851D01*
X65011595Y-38943387D01*
X65122038Y-39077962D01*
X65256613Y-39188405D01*
X65410149Y-39270472D01*
X65576745Y-39321008D01*
X65749999Y-39338072D01*
X66650001Y-39338072D01*
X66823255Y-39321008D01*
X66989851Y-39270472D01*
X67143387Y-39188405D01*
X67277962Y-39077962D01*
X67374771Y-38960000D01*
X68025229Y-38960000D01*
X68122038Y-39077962D01*
X68256613Y-39188405D01*
X68410149Y-39270472D01*
X68576745Y-39321008D01*
X68749999Y-39338072D01*
X69650001Y-39338072D01*
X69823255Y-39321008D01*
X69989851Y-39270472D01*
X70143387Y-39188405D01*
X70277962Y-39077962D01*
X70388405Y-38943387D01*
X70470472Y-38789851D01*
X70521008Y-38623255D01*
X70538072Y-38450001D01*
X70538072Y-37799999D01*
X70521008Y-37626745D01*
X70470472Y-37460149D01*
X70388405Y-37306613D01*
X70277962Y-37172038D01*
X70271406Y-37166658D01*
X70351185Y-37101185D01*
X70430537Y-37004494D01*
X70489502Y-36894180D01*
X70525812Y-36774482D01*
X70538072Y-36650000D01*
X70535000Y-36360750D01*
X70376250Y-36202000D01*
X69327000Y-36202000D01*
X69327000Y-36222000D01*
X69073000Y-36222000D01*
X69073000Y-36202000D01*
X68023750Y-36202000D01*
X67865000Y-36360750D01*
X67861928Y-36650000D01*
X67874188Y-36774482D01*
X67910498Y-36894180D01*
X67969463Y-37004494D01*
X68048815Y-37101185D01*
X68128594Y-37166658D01*
X68122038Y-37172038D01*
X68025229Y-37290000D01*
X67374771Y-37290000D01*
X67277962Y-37172038D01*
X67190184Y-37100000D01*
X67277962Y-37027962D01*
X67388405Y-36893387D01*
X67470472Y-36739851D01*
X67521008Y-36573255D01*
X67538072Y-36400001D01*
X67538072Y-35917796D01*
X67816732Y-35639137D01*
X67848591Y-35612991D01*
X67862942Y-35595504D01*
X67865000Y-35789250D01*
X68023750Y-35948000D01*
X69073000Y-35948000D01*
X69073000Y-35023750D01*
X69327000Y-35023750D01*
X69327000Y-35948000D01*
X70376250Y-35948000D01*
X70535000Y-35789250D01*
X70538072Y-35500000D01*
X70525812Y-35375518D01*
X70489502Y-35255820D01*
X70430537Y-35145506D01*
X70351185Y-35048815D01*
X70254494Y-34969463D01*
X70144180Y-34910498D01*
X70024482Y-34874188D01*
X69900000Y-34861928D01*
X69485750Y-34865000D01*
X69327000Y-35023750D01*
X69073000Y-35023750D01*
X68914250Y-34865000D01*
X68500000Y-34861928D01*
X68375518Y-34874188D01*
X68255820Y-34910498D01*
X68145506Y-34969463D01*
X68093589Y-35012070D01*
X68090300Y-34978682D01*
X68090300Y-33835000D01*
X68511928Y-33835000D01*
X68511928Y-33850000D01*
X68524188Y-33974482D01*
X68560498Y-34094180D01*
X68619463Y-34204494D01*
X68698815Y-34301185D01*
X68795506Y-34380537D01*
X68905820Y-34439502D01*
X69025518Y-34475812D01*
X69150000Y-34488072D01*
X70850000Y-34488072D01*
X70974482Y-34475812D01*
X71094180Y-34439502D01*
X71204494Y-34380537D01*
X71301185Y-34301185D01*
X71380537Y-34204494D01*
X71439502Y-34094180D01*
X71475812Y-33974482D01*
X71488072Y-33850000D01*
X71488072Y-33835000D01*
X72075229Y-33835000D01*
X72172038Y-33952962D01*
X72306613Y-34063405D01*
X72460149Y-34145472D01*
X72626745Y-34196008D01*
X72799999Y-34213072D01*
X73700001Y-34213072D01*
X73873255Y-34196008D01*
X74039851Y-34145472D01*
X74193387Y-34063405D01*
X74327962Y-33952962D01*
X74438405Y-33818387D01*
X74520472Y-33664851D01*
X74571008Y-33498255D01*
X74588072Y-33325001D01*
X74588072Y-32674999D01*
X74571008Y-32501745D01*
X74520472Y-32335149D01*
X74438405Y-32181613D01*
X74327962Y-32047038D01*
X74321406Y-32041658D01*
X74401185Y-31976185D01*
X74480537Y-31879494D01*
X74539502Y-31769180D01*
X74575812Y-31649482D01*
X74588072Y-31525000D01*
X74585000Y-31235750D01*
X74426250Y-31077000D01*
X73377000Y-31077000D01*
X73377000Y-31097000D01*
X73123000Y-31097000D01*
X73123000Y-31077000D01*
X72073750Y-31077000D01*
X71915000Y-31235750D01*
X71911928Y-31525000D01*
X71924188Y-31649482D01*
X71960498Y-31769180D01*
X72019463Y-31879494D01*
X72098815Y-31976185D01*
X72178594Y-32041658D01*
X72172038Y-32047038D01*
X72075229Y-32165000D01*
X71488072Y-32165000D01*
X71488072Y-32150000D01*
X71475812Y-32025518D01*
X71439502Y-31905820D01*
X71380537Y-31795506D01*
X71301185Y-31698815D01*
X71204494Y-31619463D01*
X71094180Y-31560498D01*
X71013534Y-31536034D01*
X71097588Y-31460269D01*
X71271641Y-31226920D01*
X71396825Y-30964099D01*
X71441476Y-30816890D01*
X71320155Y-30587000D01*
X70127000Y-30587000D01*
X70127000Y-30607000D01*
X69873000Y-30607000D01*
X69873000Y-30587000D01*
X68679845Y-30587000D01*
X68558524Y-30816890D01*
X68603175Y-30964099D01*
X68728359Y-31226920D01*
X68902412Y-31460269D01*
X68986466Y-31536034D01*
X68905820Y-31560498D01*
X68795506Y-31619463D01*
X68698815Y-31698815D01*
X68619463Y-31795506D01*
X68560498Y-31905820D01*
X68524188Y-32025518D01*
X68511928Y-32150000D01*
X68511928Y-32165000D01*
X68090300Y-32165000D01*
X68090300Y-31718615D01*
X68094340Y-31677599D01*
X68088614Y-31619463D01*
X68078218Y-31513911D01*
X68030472Y-31356513D01*
X67952936Y-31211454D01*
X67848591Y-31084309D01*
X67816727Y-31058159D01*
X67490287Y-30731719D01*
X67480812Y-30635518D01*
X67444502Y-30515820D01*
X67398630Y-30430000D01*
X67428028Y-30375000D01*
X71911928Y-30375000D01*
X71915000Y-30664250D01*
X72073750Y-30823000D01*
X73123000Y-30823000D01*
X73123000Y-29898750D01*
X73377000Y-29898750D01*
X73377000Y-30823000D01*
X74426250Y-30823000D01*
X74585000Y-30664250D01*
X74588072Y-30375000D01*
X74575812Y-30250518D01*
X74539502Y-30130820D01*
X74480537Y-30020506D01*
X74401185Y-29923815D01*
X74304494Y-29844463D01*
X74194180Y-29785498D01*
X74074482Y-29749188D01*
X73950000Y-29736928D01*
X73535750Y-29740000D01*
X73377000Y-29898750D01*
X73123000Y-29898750D01*
X72964250Y-29740000D01*
X72550000Y-29736928D01*
X72425518Y-29749188D01*
X72305820Y-29785498D01*
X72195506Y-29844463D01*
X72098815Y-29923815D01*
X72019463Y-30020506D01*
X71960498Y-30130820D01*
X71924188Y-30250518D01*
X71911928Y-30375000D01*
X67428028Y-30375000D01*
X67444502Y-30344180D01*
X67480812Y-30224482D01*
X67492765Y-30103110D01*
X68558524Y-30103110D01*
X68679845Y-30333000D01*
X69873000Y-30333000D01*
X69873000Y-29139186D01*
X70127000Y-29139186D01*
X70127000Y-30333000D01*
X71320155Y-30333000D01*
X71441476Y-30103110D01*
X71396825Y-29955901D01*
X71271641Y-29693080D01*
X71097588Y-29459731D01*
X70881355Y-29264822D01*
X70631252Y-29115843D01*
X70356891Y-29018519D01*
X70127000Y-29139186D01*
X69873000Y-29139186D01*
X69643109Y-29018519D01*
X69368748Y-29115843D01*
X69118645Y-29264822D01*
X68902412Y-29459731D01*
X68728359Y-29693080D01*
X68603175Y-29955901D01*
X68558524Y-30103110D01*
X67492765Y-30103110D01*
X67493072Y-30100000D01*
X67493072Y-29490000D01*
X67480812Y-29365518D01*
X67444502Y-29245820D01*
X67385537Y-29135506D01*
X67306185Y-29038815D01*
X67209494Y-28959463D01*
X67099180Y-28900498D01*
X66979482Y-28864188D01*
X66855000Y-28851928D01*
X65205000Y-28851928D01*
X65080518Y-28864188D01*
X64960820Y-28900498D01*
X64850506Y-28959463D01*
X64753815Y-29038815D01*
X64674463Y-29135506D01*
X64615498Y-29245820D01*
X64579188Y-29365518D01*
X64566928Y-29490000D01*
X64566928Y-30100000D01*
X64579188Y-30224482D01*
X64615498Y-30344180D01*
X64661370Y-30430000D01*
X64615498Y-30515820D01*
X64579188Y-30635518D01*
X64566928Y-30760000D01*
X64566928Y-31370000D01*
X64579188Y-31494482D01*
X64615498Y-31614180D01*
X64661370Y-31700000D01*
X64615498Y-31785820D01*
X64579188Y-31905518D01*
X64566928Y-32030000D01*
X64566928Y-32640000D01*
X64579188Y-32764482D01*
X64615498Y-32884180D01*
X64661370Y-32970000D01*
X64615498Y-33055820D01*
X64579188Y-33175518D01*
X64566928Y-33300000D01*
X64566928Y-33910000D01*
X64579188Y-34034482D01*
X64615498Y-34154180D01*
X64674463Y-34264494D01*
X64753815Y-34361185D01*
X64850506Y-34440537D01*
X64960820Y-34499502D01*
X65080518Y-34535812D01*
X65205000Y-34548072D01*
X66420301Y-34548072D01*
X66420301Y-34673831D01*
X66232204Y-34861928D01*
X65749999Y-34861928D01*
X65576745Y-34878992D01*
X65410149Y-34929528D01*
X65256613Y-35011595D01*
X65122038Y-35122038D01*
X65011595Y-35256613D01*
X64929528Y-35410149D01*
X64878992Y-35576745D01*
X64861928Y-35749999D01*
X64861928Y-36232204D01*
X64121135Y-36972998D01*
X64051252Y-36972998D01*
X64210000Y-36814250D01*
X64213072Y-36400000D01*
X64200812Y-36275518D01*
X64164502Y-36155820D01*
X64105537Y-36045506D01*
X64026185Y-35948815D01*
X63929494Y-35869463D01*
X63819180Y-35810498D01*
X63699482Y-35774188D01*
X63575000Y-35761928D01*
X63285750Y-35765000D01*
X63127000Y-35923750D01*
X63127000Y-36973000D01*
X63147000Y-36973000D01*
X63147000Y-37227000D01*
X63127000Y-37227000D01*
X63127000Y-37247000D01*
X62873000Y-37247000D01*
X62873000Y-37227000D01*
X62853000Y-37227000D01*
X62853000Y-36973000D01*
X62873000Y-36973000D01*
X62873000Y-35923750D01*
X62830300Y-35881050D01*
X62830300Y-32376018D01*
X62834340Y-32335000D01*
X62830300Y-32293981D01*
X62830300Y-31106019D01*
X62834340Y-31065000D01*
X62818218Y-30901311D01*
X62770472Y-30743913D01*
X62692936Y-30598854D01*
X62588591Y-30471709D01*
X62461446Y-30367364D01*
X62316387Y-30289828D01*
X62210713Y-30257772D01*
X62220812Y-30224482D01*
X62233072Y-30100000D01*
X62230000Y-30080750D01*
X62071250Y-29922000D01*
X60897000Y-29922000D01*
X60897000Y-29942000D01*
X60643000Y-29942000D01*
X60643000Y-29922000D01*
X59468750Y-29922000D01*
X59310000Y-30080750D01*
X59306928Y-30100000D01*
X59319188Y-30224482D01*
X59355498Y-30344180D01*
X59401370Y-30430000D01*
X59355498Y-30515820D01*
X59319188Y-30635518D01*
X59306928Y-30760000D01*
X59306928Y-31370000D01*
X59319188Y-31494482D01*
X59355498Y-31614180D01*
X59401370Y-31700000D01*
X59355498Y-31785820D01*
X59319188Y-31905518D01*
X59306928Y-32030000D01*
X59306928Y-32640000D01*
X59319188Y-32764482D01*
X59329287Y-32797772D01*
X59223613Y-32829828D01*
X59078554Y-32907364D01*
X58951409Y-33011709D01*
X58925258Y-33043574D01*
X57938477Y-34030356D01*
X57906622Y-34056498D01*
X57880474Y-34088358D01*
X56503833Y-35465000D01*
X52713220Y-35465000D01*
X52677962Y-35422038D01*
X52543386Y-35311595D01*
X52521693Y-35300000D01*
X52543386Y-35288405D01*
X52677962Y-35177962D01*
X52788405Y-35043386D01*
X52870472Y-34889850D01*
X52921008Y-34723254D01*
X52938072Y-34550000D01*
X52938072Y-34050000D01*
X52921008Y-33876746D01*
X52870472Y-33710150D01*
X52788405Y-33556614D01*
X52677962Y-33422038D01*
X52601187Y-33359031D01*
X52654494Y-33330537D01*
X52751185Y-33251185D01*
X52830537Y-33154494D01*
X52889502Y-33044180D01*
X52925812Y-32924482D01*
X52938072Y-32800000D01*
X52935000Y-32585750D01*
X52776250Y-32427000D01*
X50677000Y-32427000D01*
X50677000Y-32447000D01*
X50423000Y-32447000D01*
X50423000Y-32427000D01*
X48323750Y-32427000D01*
X48165000Y-32585750D01*
X48161928Y-32800000D01*
X48174188Y-32924482D01*
X48210498Y-33044180D01*
X48269463Y-33154494D01*
X48348815Y-33251185D01*
X48445506Y-33330537D01*
X48498813Y-33359031D01*
X48422038Y-33422038D01*
X48311595Y-33556614D01*
X48229528Y-33710150D01*
X48178992Y-33876746D01*
X48161928Y-34050000D01*
X48161928Y-34550000D01*
X48178992Y-34723254D01*
X48201565Y-34797668D01*
X47811574Y-35187659D01*
X47779710Y-35213809D01*
X47745233Y-35255820D01*
X47675364Y-35340955D01*
X47660000Y-35369699D01*
X47660000Y-31800000D01*
X48161928Y-31800000D01*
X48165000Y-32014250D01*
X48323750Y-32173000D01*
X50423000Y-32173000D01*
X50423000Y-31323750D01*
X50677000Y-31323750D01*
X50677000Y-32173000D01*
X52776250Y-32173000D01*
X52935000Y-32014250D01*
X52938072Y-31800000D01*
X52925812Y-31675518D01*
X52889502Y-31555820D01*
X52830537Y-31445506D01*
X52751185Y-31348815D01*
X52654494Y-31269463D01*
X52544180Y-31210498D01*
X52424482Y-31174188D01*
X52300000Y-31161928D01*
X50835750Y-31165000D01*
X50677000Y-31323750D01*
X50423000Y-31323750D01*
X50264250Y-31165000D01*
X48800000Y-31161928D01*
X48675518Y-31174188D01*
X48555820Y-31210498D01*
X48445506Y-31269463D01*
X48348815Y-31348815D01*
X48269463Y-31445506D01*
X48210498Y-31555820D01*
X48174188Y-31675518D01*
X48161928Y-31800000D01*
X47660000Y-31800000D01*
X47660000Y-29032279D01*
X47669580Y-28934576D01*
X47688580Y-28871644D01*
X47719445Y-28813595D01*
X47760989Y-28762657D01*
X47811644Y-28720752D01*
X47869471Y-28689485D01*
X47932272Y-28670044D01*
X48027835Y-28660000D01*
X54453141Y-28660000D01*
X54356614Y-28711595D01*
X54356614Y-28711595D01*
G37*
X54356614Y-28711595D02*
X54222038Y-28822038D01*
X54111595Y-28956614D01*
X54029528Y-29110150D01*
X53978992Y-29276746D01*
X53961928Y-29450000D01*
X53961928Y-30450000D01*
X53978992Y-30623254D01*
X54029528Y-30789850D01*
X54111595Y-30943386D01*
X54222038Y-31077962D01*
X54356614Y-31188405D01*
X54510150Y-31270472D01*
X54676746Y-31321008D01*
X54850000Y-31338072D01*
X57750000Y-31338072D01*
X57923254Y-31321008D01*
X58089850Y-31270472D01*
X58243386Y-31188405D01*
X58377962Y-31077962D01*
X58488405Y-30943386D01*
X58570472Y-30789850D01*
X58621008Y-30623254D01*
X58638072Y-30450000D01*
X58638072Y-29490000D01*
X59306928Y-29490000D01*
X59310000Y-29509250D01*
X59468750Y-29668000D01*
X60643000Y-29668000D01*
X60643000Y-29013750D01*
X60897000Y-29013750D01*
X60897000Y-29668000D01*
X62071250Y-29668000D01*
X62230000Y-29509250D01*
X62233072Y-29490000D01*
X62220812Y-29365518D01*
X62184502Y-29245820D01*
X62125537Y-29135506D01*
X62046185Y-29038815D01*
X61949494Y-28959463D01*
X61839180Y-28900498D01*
X61719482Y-28864188D01*
X61595000Y-28851928D01*
X61055750Y-28855000D01*
X60897000Y-29013750D01*
X60643000Y-29013750D01*
X60484250Y-28855000D01*
X59945000Y-28851928D01*
X59820518Y-28864188D01*
X59700820Y-28900498D01*
X59590506Y-28959463D01*
X59493815Y-29038815D01*
X59414463Y-29135506D01*
X59355498Y-29245820D01*
X59319188Y-29365518D01*
X59306928Y-29490000D01*
X58638072Y-29490000D01*
X58638072Y-29450000D01*
X58621008Y-29276746D01*
X58570472Y-29110150D01*
X58488405Y-28956614D01*
X58377962Y-28822038D01*
X58243386Y-28711595D01*
X58146859Y-28660000D01*
X75967721Y-28660000D01*
X76065424Y-28669580D01*
X76128356Y-28688580D01*
X76186405Y-28719445D01*
X76237343Y-28760989D01*
X76279248Y-28811644D01*
X76310515Y-28869471D01*
X76329956Y-28932272D01*
X76340001Y-29027845D01*
X76340001Y-41864500D01*
X75485750Y-41864500D01*
X75485870Y-41864215D01*
X75500286Y-41791814D01*
X75377677Y-41577000D01*
X73527000Y-41577000D01*
X73527000Y-41597000D01*
X73273000Y-41597000D01*
X73273000Y-41577000D01*
X71422323Y-41577000D01*
X71299714Y-41791814D01*
X71314130Y-41864215D01*
X71314250Y-41864500D01*
X68531211Y-41864500D01*
X68500000Y-41861426D01*
X68468789Y-41864500D01*
X68375420Y-41873696D01*
X68255628Y-41910035D01*
X68145227Y-41969045D01*
X68048460Y-42048460D01*
X67969045Y-42145227D01*
X67910035Y-42255628D01*
X67873696Y-42375420D01*
X67861426Y-42500000D01*
X67864501Y-42531221D01*
X67864501Y-44948281D01*
X67800000Y-44941928D01*
X64600000Y-44941928D01*
X64475518Y-44954188D01*
X64355820Y-44990498D01*
X64245506Y-45049463D01*
X64190019Y-45095000D01*
X60782558Y-45095000D01*
X61058669Y-44980631D01*
X61424729Y-44736038D01*
X61736038Y-44424729D01*
X61980631Y-44058669D01*
X62149110Y-43651925D01*
X62235000Y-43220128D01*
X62235000Y-42779872D01*
X62149110Y-42348075D01*
X61980631Y-41941331D01*
X61736038Y-41575271D01*
X61424729Y-41263962D01*
X61191594Y-41108186D01*
X71299714Y-41108186D01*
X71422323Y-41323000D01*
X73273000Y-41323000D01*
X73273000Y-41303000D01*
X73527000Y-41303000D01*
X73527000Y-41323000D01*
X75377677Y-41323000D01*
X75500286Y-41108186D01*
X75485870Y-41035785D01*
X75379469Y-40783909D01*
X75225974Y-40557631D01*
X75031284Y-40365646D01*
X74802880Y-40215332D01*
X74549540Y-40112466D01*
X74281000Y-40061000D01*
X72519000Y-40061000D01*
X72250460Y-40112466D01*
X71997120Y-40215332D01*
X71768716Y-40365646D01*
X71574026Y-40557631D01*
X71420531Y-40783909D01*
X71314130Y-41035785D01*
X71299714Y-41108186D01*
X61191594Y-41108186D01*
X61058669Y-41019369D01*
X60651925Y-40850890D01*
X60222913Y-40765554D01*
X62028441Y-38960027D01*
X62067813Y-38981072D01*
X62225211Y-39028818D01*
X62347881Y-39040900D01*
X62347891Y-39040900D01*
X62388899Y-39044939D01*
X62429907Y-39040900D01*
X64028082Y-39040900D01*
X64069100Y-39044940D01*
X64110118Y-39040900D01*
X64110119Y-39040900D01*
X64232789Y-39028818D01*
X64390187Y-38981072D01*
X64535246Y-38903536D01*
X64662391Y-38799191D01*
X64688546Y-38767321D01*
X64874834Y-38581034D01*
X64878992Y-38623255D01*
X64929528Y-38789851D01*
X65011595Y-38943387D01*
X65122038Y-39077962D01*
X65256613Y-39188405D01*
X65410149Y-39270472D01*
X65576745Y-39321008D01*
X65749999Y-39338072D01*
X66650001Y-39338072D01*
X66823255Y-39321008D01*
X66989851Y-39270472D01*
X67143387Y-39188405D01*
X67277962Y-39077962D01*
X67374771Y-38960000D01*
X68025229Y-38960000D01*
X68122038Y-39077962D01*
X68256613Y-39188405D01*
X68410149Y-39270472D01*
X68576745Y-39321008D01*
X68749999Y-39338072D01*
X69650001Y-39338072D01*
X69823255Y-39321008D01*
X69989851Y-39270472D01*
X70143387Y-39188405D01*
X70277962Y-39077962D01*
X70388405Y-38943387D01*
X70470472Y-38789851D01*
X70521008Y-38623255D01*
X70538072Y-38450001D01*
X70538072Y-37799999D01*
X70521008Y-37626745D01*
X70470472Y-37460149D01*
X70388405Y-37306613D01*
X70277962Y-37172038D01*
X70271406Y-37166658D01*
X70351185Y-37101185D01*
X70430537Y-37004494D01*
X70489502Y-36894180D01*
X70525812Y-36774482D01*
X70538072Y-36650000D01*
X70535000Y-36360750D01*
X70376250Y-36202000D01*
X69327000Y-36202000D01*
X69327000Y-36222000D01*
X69073000Y-36222000D01*
X69073000Y-36202000D01*
X68023750Y-36202000D01*
X67865000Y-36360750D01*
X67861928Y-36650000D01*
X67874188Y-36774482D01*
X67910498Y-36894180D01*
X67969463Y-37004494D01*
X68048815Y-37101185D01*
X68128594Y-37166658D01*
X68122038Y-37172038D01*
X68025229Y-37290000D01*
X67374771Y-37290000D01*
X67277962Y-37172038D01*
X67190184Y-37100000D01*
X67277962Y-37027962D01*
X67388405Y-36893387D01*
X67470472Y-36739851D01*
X67521008Y-36573255D01*
X67538072Y-36400001D01*
X67538072Y-35917796D01*
X67816732Y-35639137D01*
X67848591Y-35612991D01*
X67862942Y-35595504D01*
X67865000Y-35789250D01*
X68023750Y-35948000D01*
X69073000Y-35948000D01*
X69073000Y-35023750D01*
X69327000Y-35023750D01*
X69327000Y-35948000D01*
X70376250Y-35948000D01*
X70535000Y-35789250D01*
X70538072Y-35500000D01*
X70525812Y-35375518D01*
X70489502Y-35255820D01*
X70430537Y-35145506D01*
X70351185Y-35048815D01*
X70254494Y-34969463D01*
X70144180Y-34910498D01*
X70024482Y-34874188D01*
X69900000Y-34861928D01*
X69485750Y-34865000D01*
X69327000Y-35023750D01*
X69073000Y-35023750D01*
X68914250Y-34865000D01*
X68500000Y-34861928D01*
X68375518Y-34874188D01*
X68255820Y-34910498D01*
X68145506Y-34969463D01*
X68093589Y-35012070D01*
X68090300Y-34978682D01*
X68090300Y-33835000D01*
X68511928Y-33835000D01*
X68511928Y-33850000D01*
X68524188Y-33974482D01*
X68560498Y-34094180D01*
X68619463Y-34204494D01*
X68698815Y-34301185D01*
X68795506Y-34380537D01*
X68905820Y-34439502D01*
X69025518Y-34475812D01*
X69150000Y-34488072D01*
X70850000Y-34488072D01*
X70974482Y-34475812D01*
X71094180Y-34439502D01*
X71204494Y-34380537D01*
X71301185Y-34301185D01*
X71380537Y-34204494D01*
X71439502Y-34094180D01*
X71475812Y-33974482D01*
X71488072Y-33850000D01*
X71488072Y-33835000D01*
X72075229Y-33835000D01*
X72172038Y-33952962D01*
X72306613Y-34063405D01*
X72460149Y-34145472D01*
X72626745Y-34196008D01*
X72799999Y-34213072D01*
X73700001Y-34213072D01*
X73873255Y-34196008D01*
X74039851Y-34145472D01*
X74193387Y-34063405D01*
X74327962Y-33952962D01*
X74438405Y-33818387D01*
X74520472Y-33664851D01*
X74571008Y-33498255D01*
X74588072Y-33325001D01*
X74588072Y-32674999D01*
X74571008Y-32501745D01*
X74520472Y-32335149D01*
X74438405Y-32181613D01*
X74327962Y-32047038D01*
X74321406Y-32041658D01*
X74401185Y-31976185D01*
X74480537Y-31879494D01*
X74539502Y-31769180D01*
X74575812Y-31649482D01*
X74588072Y-31525000D01*
X74585000Y-31235750D01*
X74426250Y-31077000D01*
X73377000Y-31077000D01*
X73377000Y-31097000D01*
X73123000Y-31097000D01*
X73123000Y-31077000D01*
X72073750Y-31077000D01*
X71915000Y-31235750D01*
X71911928Y-31525000D01*
X71924188Y-31649482D01*
X71960498Y-31769180D01*
X72019463Y-31879494D01*
X72098815Y-31976185D01*
X72178594Y-32041658D01*
X72172038Y-32047038D01*
X72075229Y-32165000D01*
X71488072Y-32165000D01*
X71488072Y-32150000D01*
X71475812Y-32025518D01*
X71439502Y-31905820D01*
X71380537Y-31795506D01*
X71301185Y-31698815D01*
X71204494Y-31619463D01*
X71094180Y-31560498D01*
X71013534Y-31536034D01*
X71097588Y-31460269D01*
X71271641Y-31226920D01*
X71396825Y-30964099D01*
X71441476Y-30816890D01*
X71320155Y-30587000D01*
X70127000Y-30587000D01*
X70127000Y-30607000D01*
X69873000Y-30607000D01*
X69873000Y-30587000D01*
X68679845Y-30587000D01*
X68558524Y-30816890D01*
X68603175Y-30964099D01*
X68728359Y-31226920D01*
X68902412Y-31460269D01*
X68986466Y-31536034D01*
X68905820Y-31560498D01*
X68795506Y-31619463D01*
X68698815Y-31698815D01*
X68619463Y-31795506D01*
X68560498Y-31905820D01*
X68524188Y-32025518D01*
X68511928Y-32150000D01*
X68511928Y-32165000D01*
X68090300Y-32165000D01*
X68090300Y-31718615D01*
X68094340Y-31677599D01*
X68088614Y-31619463D01*
X68078218Y-31513911D01*
X68030472Y-31356513D01*
X67952936Y-31211454D01*
X67848591Y-31084309D01*
X67816727Y-31058159D01*
X67490287Y-30731719D01*
X67480812Y-30635518D01*
X67444502Y-30515820D01*
X67398630Y-30430000D01*
X67428028Y-30375000D01*
X71911928Y-30375000D01*
X71915000Y-30664250D01*
X72073750Y-30823000D01*
X73123000Y-30823000D01*
X73123000Y-29898750D01*
X73377000Y-29898750D01*
X73377000Y-30823000D01*
X74426250Y-30823000D01*
X74585000Y-30664250D01*
X74588072Y-30375000D01*
X74575812Y-30250518D01*
X74539502Y-30130820D01*
X74480537Y-30020506D01*
X74401185Y-29923815D01*
X74304494Y-29844463D01*
X74194180Y-29785498D01*
X74074482Y-29749188D01*
X73950000Y-29736928D01*
X73535750Y-29740000D01*
X73377000Y-29898750D01*
X73123000Y-29898750D01*
X72964250Y-29740000D01*
X72550000Y-29736928D01*
X72425518Y-29749188D01*
X72305820Y-29785498D01*
X72195506Y-29844463D01*
X72098815Y-29923815D01*
X72019463Y-30020506D01*
X71960498Y-30130820D01*
X71924188Y-30250518D01*
X71911928Y-30375000D01*
X67428028Y-30375000D01*
X67444502Y-30344180D01*
X67480812Y-30224482D01*
X67492765Y-30103110D01*
X68558524Y-30103110D01*
X68679845Y-30333000D01*
X69873000Y-30333000D01*
X69873000Y-29139186D01*
X70127000Y-29139186D01*
X70127000Y-30333000D01*
X71320155Y-30333000D01*
X71441476Y-30103110D01*
X71396825Y-29955901D01*
X71271641Y-29693080D01*
X71097588Y-29459731D01*
X70881355Y-29264822D01*
X70631252Y-29115843D01*
X70356891Y-29018519D01*
X70127000Y-29139186D01*
X69873000Y-29139186D01*
X69643109Y-29018519D01*
X69368748Y-29115843D01*
X69118645Y-29264822D01*
X68902412Y-29459731D01*
X68728359Y-29693080D01*
X68603175Y-29955901D01*
X68558524Y-30103110D01*
X67492765Y-30103110D01*
X67493072Y-30100000D01*
X67493072Y-29490000D01*
X67480812Y-29365518D01*
X67444502Y-29245820D01*
X67385537Y-29135506D01*
X67306185Y-29038815D01*
X67209494Y-28959463D01*
X67099180Y-28900498D01*
X66979482Y-28864188D01*
X66855000Y-28851928D01*
X65205000Y-28851928D01*
X65080518Y-28864188D01*
X64960820Y-28900498D01*
X64850506Y-28959463D01*
X64753815Y-29038815D01*
X64674463Y-29135506D01*
X64615498Y-29245820D01*
X64579188Y-29365518D01*
X64566928Y-29490000D01*
X64566928Y-30100000D01*
X64579188Y-30224482D01*
X64615498Y-30344180D01*
X64661370Y-30430000D01*
X64615498Y-30515820D01*
X64579188Y-30635518D01*
X64566928Y-30760000D01*
X64566928Y-31370000D01*
X64579188Y-31494482D01*
X64615498Y-31614180D01*
X64661370Y-31700000D01*
X64615498Y-31785820D01*
X64579188Y-31905518D01*
X64566928Y-32030000D01*
X64566928Y-32640000D01*
X64579188Y-32764482D01*
X64615498Y-32884180D01*
X64661370Y-32970000D01*
X64615498Y-33055820D01*
X64579188Y-33175518D01*
X64566928Y-33300000D01*
X64566928Y-33910000D01*
X64579188Y-34034482D01*
X64615498Y-34154180D01*
X64674463Y-34264494D01*
X64753815Y-34361185D01*
X64850506Y-34440537D01*
X64960820Y-34499502D01*
X65080518Y-34535812D01*
X65205000Y-34548072D01*
X66420301Y-34548072D01*
X66420301Y-34673831D01*
X66232204Y-34861928D01*
X65749999Y-34861928D01*
X65576745Y-34878992D01*
X65410149Y-34929528D01*
X65256613Y-35011595D01*
X65122038Y-35122038D01*
X65011595Y-35256613D01*
X64929528Y-35410149D01*
X64878992Y-35576745D01*
X64861928Y-35749999D01*
X64861928Y-36232204D01*
X64121135Y-36972998D01*
X64051252Y-36972998D01*
X64210000Y-36814250D01*
X64213072Y-36400000D01*
X64200812Y-36275518D01*
X64164502Y-36155820D01*
X64105537Y-36045506D01*
X64026185Y-35948815D01*
X63929494Y-35869463D01*
X63819180Y-35810498D01*
X63699482Y-35774188D01*
X63575000Y-35761928D01*
X63285750Y-35765000D01*
X63127000Y-35923750D01*
X63127000Y-36973000D01*
X63147000Y-36973000D01*
X63147000Y-37227000D01*
X63127000Y-37227000D01*
X63127000Y-37247000D01*
X62873000Y-37247000D01*
X62873000Y-37227000D01*
X62853000Y-37227000D01*
X62853000Y-36973000D01*
X62873000Y-36973000D01*
X62873000Y-35923750D01*
X62830300Y-35881050D01*
X62830300Y-32376018D01*
X62834340Y-32335000D01*
X62830300Y-32293981D01*
X62830300Y-31106019D01*
X62834340Y-31065000D01*
X62818218Y-30901311D01*
X62770472Y-30743913D01*
X62692936Y-30598854D01*
X62588591Y-30471709D01*
X62461446Y-30367364D01*
X62316387Y-30289828D01*
X62210713Y-30257772D01*
X62220812Y-30224482D01*
X62233072Y-30100000D01*
X62230000Y-30080750D01*
X62071250Y-29922000D01*
X60897000Y-29922000D01*
X60897000Y-29942000D01*
X60643000Y-29942000D01*
X60643000Y-29922000D01*
X59468750Y-29922000D01*
X59310000Y-30080750D01*
X59306928Y-30100000D01*
X59319188Y-30224482D01*
X59355498Y-30344180D01*
X59401370Y-30430000D01*
X59355498Y-30515820D01*
X59319188Y-30635518D01*
X59306928Y-30760000D01*
X59306928Y-31370000D01*
X59319188Y-31494482D01*
X59355498Y-31614180D01*
X59401370Y-31700000D01*
X59355498Y-31785820D01*
X59319188Y-31905518D01*
X59306928Y-32030000D01*
X59306928Y-32640000D01*
X59319188Y-32764482D01*
X59329287Y-32797772D01*
X59223613Y-32829828D01*
X59078554Y-32907364D01*
X58951409Y-33011709D01*
X58925258Y-33043574D01*
X57938477Y-34030356D01*
X57906622Y-34056498D01*
X57880474Y-34088358D01*
X56503833Y-35465000D01*
X52713220Y-35465000D01*
X52677962Y-35422038D01*
X52543386Y-35311595D01*
X52521693Y-35300000D01*
X52543386Y-35288405D01*
X52677962Y-35177962D01*
X52788405Y-35043386D01*
X52870472Y-34889850D01*
X52921008Y-34723254D01*
X52938072Y-34550000D01*
X52938072Y-34050000D01*
X52921008Y-33876746D01*
X52870472Y-33710150D01*
X52788405Y-33556614D01*
X52677962Y-33422038D01*
X52601187Y-33359031D01*
X52654494Y-33330537D01*
X52751185Y-33251185D01*
X52830537Y-33154494D01*
X52889502Y-33044180D01*
X52925812Y-32924482D01*
X52938072Y-32800000D01*
X52935000Y-32585750D01*
X52776250Y-32427000D01*
X50677000Y-32427000D01*
X50677000Y-32447000D01*
X50423000Y-32447000D01*
X50423000Y-32427000D01*
X48323750Y-32427000D01*
X48165000Y-32585750D01*
X48161928Y-32800000D01*
X48174188Y-32924482D01*
X48210498Y-33044180D01*
X48269463Y-33154494D01*
X48348815Y-33251185D01*
X48445506Y-33330537D01*
X48498813Y-33359031D01*
X48422038Y-33422038D01*
X48311595Y-33556614D01*
X48229528Y-33710150D01*
X48178992Y-33876746D01*
X48161928Y-34050000D01*
X48161928Y-34550000D01*
X48178992Y-34723254D01*
X48201565Y-34797668D01*
X47811574Y-35187659D01*
X47779710Y-35213809D01*
X47745233Y-35255820D01*
X47675364Y-35340955D01*
X47660000Y-35369699D01*
X47660000Y-31800000D01*
X48161928Y-31800000D01*
X48165000Y-32014250D01*
X48323750Y-32173000D01*
X50423000Y-32173000D01*
X50423000Y-31323750D01*
X50677000Y-31323750D01*
X50677000Y-32173000D01*
X52776250Y-32173000D01*
X52935000Y-32014250D01*
X52938072Y-31800000D01*
X52925812Y-31675518D01*
X52889502Y-31555820D01*
X52830537Y-31445506D01*
X52751185Y-31348815D01*
X52654494Y-31269463D01*
X52544180Y-31210498D01*
X52424482Y-31174188D01*
X52300000Y-31161928D01*
X50835750Y-31165000D01*
X50677000Y-31323750D01*
X50423000Y-31323750D01*
X50264250Y-31165000D01*
X48800000Y-31161928D01*
X48675518Y-31174188D01*
X48555820Y-31210498D01*
X48445506Y-31269463D01*
X48348815Y-31348815D01*
X48269463Y-31445506D01*
X48210498Y-31555820D01*
X48174188Y-31675518D01*
X48161928Y-31800000D01*
X47660000Y-31800000D01*
X47660000Y-29032279D01*
X47669580Y-28934576D01*
X47688580Y-28871644D01*
X47719445Y-28813595D01*
X47760989Y-28762657D01*
X47811644Y-28720752D01*
X47869471Y-28689485D01*
X47932272Y-28670044D01*
X48027835Y-28660000D01*
X54453141Y-28660000D01*
X54356614Y-28711595D01*
M02*
