G04 #@! TF.GenerationSoftware,KiCad,Pcbnew,(5.1.0)-1*
G04 #@! TF.CreationDate,2020-04-05T15:17:06+01:00*
G04 #@! TF.ProjectId,Camera Adapter,43616d65-7261-4204-9164-61707465722e,rev?*
G04 #@! TF.SameCoordinates,Original*
G04 #@! TF.FileFunction,Copper,L2,Bot*
G04 #@! TF.FilePolarity,Positive*
%FSLAX46Y46*%
G04 Gerber Fmt 4.6, Leading zero omitted, Abs format (unit mm)*
G04 Created by KiCad (PCBNEW (5.1.0)-1) date 2020-04-05 15:17:06*
%MOMM*%
%LPD*%
G04 APERTURE LIST*
%ADD10O,3.016000X1.508000*%
%ADD11R,1.700000X1.700000*%
%ADD12O,1.700000X1.700000*%
%ADD13C,2.000000*%
%ADD14C,0.400000*%
G04 APERTURE END LIST*
D10*
X73400000Y-57550000D03*
X73400000Y-41450000D03*
D11*
X51308000Y-29781500D03*
D12*
X48768000Y-29781500D03*
D10*
X73400000Y-59950000D03*
X73400000Y-76050000D03*
D13*
X69596000Y-76517500D03*
X66805200Y-39776400D03*
X56023900Y-63548000D03*
X56018500Y-41363400D03*
X62240800Y-51228300D03*
X58927800Y-46745300D03*
X63371700Y-53209900D03*
X56678300Y-47563500D03*
X63300000Y-70551600D03*
X54342800Y-76784500D03*
D14*
X68079300Y-41450000D02*
X68461000Y-41068300D01*
X68461000Y-41068300D02*
X68461000Y-39451000D01*
X68461000Y-39451000D02*
X67306100Y-38296100D01*
X67306100Y-38296100D02*
X57517000Y-38296100D01*
X57517000Y-38296100D02*
X50018300Y-30797400D01*
X50018300Y-30797400D02*
X50018300Y-29781500D01*
X68079300Y-41450000D02*
X71491700Y-41450000D01*
X68926700Y-59950000D02*
X68079300Y-59102600D01*
X68079300Y-59102600D02*
X68079300Y-41450000D01*
X68926700Y-59950000D02*
X73400000Y-59950000D01*
X69596000Y-76517500D02*
X69399900Y-76517500D01*
X69399900Y-76517500D02*
X68090700Y-75208300D01*
X68090700Y-75208300D02*
X68090700Y-60786000D01*
X68090700Y-60786000D02*
X68926700Y-59950000D01*
X73400000Y-41450000D02*
X71491700Y-41450000D01*
X48768000Y-29781500D02*
X50018300Y-29781500D01*
X56018500Y-41363400D02*
X65218200Y-41363400D01*
X65218200Y-41363400D02*
X66805200Y-39776400D01*
X56023900Y-63548000D02*
X55236200Y-62760300D01*
X55236200Y-62760300D02*
X55236200Y-42145700D01*
X55236200Y-42145700D02*
X56018500Y-41363400D01*
X58927800Y-46745300D02*
X62240800Y-50058300D01*
X62240800Y-50058300D02*
X62240800Y-51228300D01*
X63371700Y-53209900D02*
X62201600Y-53209900D01*
X62201600Y-53209900D02*
X56678300Y-47686600D01*
X56678300Y-47686600D02*
X56678300Y-47563500D01*
X63300000Y-70551600D02*
X60575700Y-70551600D01*
X60575700Y-70551600D02*
X54342800Y-76784500D01*
M02*
