<?xml version="1.0" standalone="no"?>
<!DOCTYPE svg PUBLIC "-//W3C//DTD SVG 1.1//EN"
"http://www.w3.org/Graphics/SVG/1.1/DTD/svg11.dtd">
<svg width="114.482" height="190.072" viewBox="0 0 2385.04 3959.84" version="1.1"
xmlns="http://www.w3.org/2000/svg"
xmlns:xlink="http://www.w3.org/1999/xlink">
<g fill-rule="evenodd"><path d="M 1758.39,40.2129 L 1763.99,41.6165 L 1767.39,43.4357 L 1770.38,45.8837 L 1772.82,48.8667 L 1774.64,52.27 L 1775.76,55.9628 L 1776.14,59.8031 L 1776.05,140.473 L 1774.64,146.076 L 1771.67,151.031 L 1768.94,153.76 L 1763.99,156.73 L 1760.3,157.85 L 1756.46,158.228 L 1528.11,158.228 L 1522.4,157.381 L 1517.17,154.911 L 1512.89,151.031 L 1509.92,146.076 L 1508.8,142.384 L 1508.43,138.543 L 1508.52,57.8737 L 1509.92,52.27 L 1512.89,47.3151 L 1515.62,44.5864 L 1520.58,41.6165 L 1524.27,40.4964 L 1528.11,40.1181 L 1758.39,40.2129 z " style="fill-opacity:1.000000;fill:rgb(103,198,105);stroke:rgb(0,0,0);stroke-width:2"/></g>
<g fill-rule="evenodd"><path d="M 1758.39,725.252 L 1763.99,726.656 L 1767.39,728.475 L 1770.38,730.923 L 1772.82,733.906 L 1774.64,737.309 L 1775.76,741.002 L 1776.14,744.843 L 1776.05,825.512 L 1774.64,831.116 L 1771.67,836.071 L 1768.94,838.799 L 1763.99,841.769 L 1760.3,842.889 L 1756.46,843.268 L 1528.11,843.268 L 1522.4,842.42 L 1517.17,839.95 L 1512.89,836.071 L 1509.92,831.116 L 1508.8,827.423 L 1508.43,823.583 L 1508.52,742.913 L 1509.92,737.309 L 1512.89,732.354 L 1515.62,729.626 L 1520.58,726.656 L 1524.27,725.536 L 1528.11,725.157 L 1758.39,725.252 z " style="fill-opacity:1.000000;fill:rgb(115,81,255);stroke:rgb(0,0,0);stroke-width:2"/></g>
<g fill-rule="evenodd"><path d="M 843.583,885.709 L 843.583,837.677 L 973.504,837.677 L 973.504,885.709 L 843.583,885.709 z " style="fill-opacity:1.000000;fill:rgb(74,236,41);stroke:rgb(0,0,0);stroke-width:2"/></g>
<g fill-rule="evenodd"><path d="M 843.583,585.709 L 843.583,537.677 L 973.504,537.677 L 973.504,585.709 L 843.583,585.709 z " style="fill-opacity:1.000000;fill:rgb(205,186,171);stroke:rgb(0,0,0);stroke-width:2"/></g>
<g fill-rule="evenodd"><path d="M 452.992,965.354 L 452.992,918.11 L 626.22,918.11 L 626.22,965.354 L 452.992,965.354 z " style="fill-opacity:1.000000;fill:rgb(242,251,227);stroke:rgb(0,0,0);stroke-width:2"/></g>
<g fill-rule="evenodd"><path d="M 248.248,2083.46 L 248.257,1941.72 L 453.009,1941.72 L 453.003,2083.48 L 248.248,2083.46 z " style="fill-opacity:1.000000;fill:rgb(70,124,194);stroke:rgb(0,0,0);stroke-width:2"/></g>
<g fill-rule="evenodd"><path d="M 248.248,571.654 L 248.257,429.905 L 453.009,429.91 L 453.003,571.67 L 248.248,571.654 z " style="fill-opacity:1.000000;fill:rgb(84,248,27);stroke:rgb(0,0,0);stroke-width:2"/></g>
<g fill-rule="evenodd"><path d="M 248.248,2361.65 L 248.257,2219.9 L 453.009,2219.91 L 453.003,2361.67 L 248.248,2361.65 z " style="fill-opacity:1.000000;fill:rgb(232,231,141);stroke:rgb(0,0,0);stroke-width:2"/></g>
<g fill-rule="evenodd"><path d="M 248.248,3873.46 L 248.257,3731.72 L 453.009,3731.72 L 453.003,3873.48 L 248.248,3873.46 z " style="fill-opacity:1.000000;fill:rgb(118,90,46);stroke:rgb(0,0,0);stroke-width:2"/></g>
<g fill-rule="evenodd"><path d="M 452.992,2755.35 L 452.992,2708.11 L 626.22,2708.11 L 626.22,2755.35 L 452.992,2755.35 z " style="fill-opacity:1.000000;fill:rgb(99,51,159);stroke:rgb(0,0,0);stroke-width:2"/></g>
<g fill-rule="evenodd"><path d="M 626.22,2794.72 L 644.876,2794.72 L 650.028,2778.45 L 658.259,2764.19 L 669.273,2751.96 L 682.591,2742.28 L 697.629,2735.59 L 713.73,2732.16 L 730.191,2732.16 L 746.293,2735.59 L 761.331,2742.28 L 774.648,2751.96 L 785.663,2764.19 L 793.893,2778.45 L 798.98,2794.1 L 800.701,2810.47 L 798.98,2826.84 L 793.893,2842.5 L 785.663,2856.75 L 774.648,2868.99 L 761.331,2878.66 L 746.293,2885.36 L 730.191,2888.78 L 713.73,2888.78 L 697.629,2885.36 L 682.591,2878.66 L 669.273,2868.99 L 658.259,2856.75 L 650.028,2842.5 L 644.875,2826.22 L 626.22,2826.22 L 626.22,2834.09 L 452.992,2834.09 L 452.992,2786.85 L 626.22,2786.85 L 626.22,2794.72 z " style="fill-opacity:1.000000;fill:rgb(201,154,102);stroke:rgb(0,0,0);stroke-width:2"/></g>
<g fill-rule="evenodd"><path d="M 452.992,3188.43 L 452.992,3180.55 L 626.22,3180.55 L 626.22,3227.8 L 452.992,3227.8 L 452.992,3219.92 L 427.995,3219.92 L 232.488,3415.43 L 232.488,3879.99 L 241.743,3889.24 L 520.256,3889.24 L 517.658,3884.74 L 512.571,3869.09 L 510.85,3852.72 L 512.571,3836.35 L 517.658,3820.69 L 525.888,3806.43 L 536.903,3794.2 L 550.22,3784.53 L 565.259,3777.83 L 581.36,3774.41 L 597.821,3774.41 L 613.923,3777.83 L 628.961,3784.53 L 642.278,3794.2 L 653.293,3806.43 L 661.523,3820.69 L 666.61,3836.35 L 668.331,3852.72 L 666.61,3869.09 L 661.523,3884.74 L 653.293,3899 L 642.278,3911.23 L 628.961,3920.91 L 613.923,3927.6 L 597.821,3931.03 L 581.36,3931.03 L 565.259,3927.6 L 550.22,3920.91 L 546.191,3917.98 L 543.34,3919.54 L 540.386,3920.44 L 537.314,3920.74 L 235.22,3920.74 L 232.148,3920.44 L 229.193,3919.54 L 226.471,3918.08 L 224.084,3916.13 L 205.604,3897.65 L 203.646,3895.26 L 202.191,3892.54 L 201.294,3889.58 L 200.992,3886.51 L 200.992,3408.9 L 201.294,3405.83 L 202.191,3402.88 L 203.646,3400.16 L 205.604,3397.77 L 410.336,3193.04 L 412.723,3191.08 L 415.445,3189.62 L 418.4,3188.73 L 421.472,3188.42 L 452.992,3188.43 z " style="fill-opacity:1.000000;fill:rgb(50,13,183);stroke:rgb(0,0,0);stroke-width:2"/></g>
<g fill-rule="evenodd"><path d="M 626.22,1036.22 L 626.22,1044.09 L 452.992,1044.09 L 452.992,996.85 L 626.22,996.85 L 626.22,1004.72 L 669.42,1004.72 L 682.165,995.463 L 697.203,988.767 L 713.305,985.345 L 729.766,985.345 L 745.867,988.767 L 760.906,995.463 L 774.223,1005.14 L 785.238,1017.37 L 793.468,1031.63 L 798.555,1047.28 L 800.276,1063.65 L 798.555,1080.02 L 793.468,1095.68 L 785.238,1109.94 L 774.223,1122.17 L 760.906,1131.84 L 745.867,1138.54 L 729.766,1141.96 L 713.305,1141.96 L 697.203,1138.54 L 682.165,1131.84 L 668.848,1122.17 L 657.833,1109.94 L 649.603,1095.68 L 644.516,1080.02 L 642.795,1063.65 L 644.516,1047.28 L 648.111,1036.22 L 626.22,1036.22 z " style="fill-opacity:1.000000;fill:rgb(49,88,163);stroke:rgb(0,0,0);stroke-width:2"/></g>
<g fill-rule="evenodd"><path d="M 626.22,1429.92 L 626.22,1437.8 L 452.992,1437.8 L 452.992,1390.55 L 626.22,1390.55 L 626.22,1398.42 L 877.362,1398.42 L 880.434,1398.73 L 883.388,1399.62 L 886.111,1401.08 L 888.497,1403.04 L 907.451,1421.99 L 911.244,1419.23 L 926.282,1412.54 L 942.384,1409.12 L 958.845,1409.12 L 974.946,1412.54 L 989.984,1419.23 L 1003.3,1428.91 L 1014.32,1441.14 L 1022.55,1455.4 L 1027.63,1471.05 L 1029.35,1487.43 L 1027.63,1503.8 L 1022.55,1519.45 L 1014.32,1533.71 L 1003.3,1545.94 L 989.984,1555.62 L 974.946,1562.31 L 958.845,1565.73 L 942.384,1565.73 L 926.282,1562.31 L 911.244,1555.62 L 897.927,1545.94 L 886.912,1533.71 L 878.681,1519.45 L 873.595,1503.8 L 871.874,1487.43 L 873.595,1471.05 L 878.681,1455.4 L 885.136,1444.22 L 870.839,1429.92 L 626.22,1429.92 z " style="fill-opacity:1.000000;fill:rgb(90,37,93);stroke:rgb(0,0,0);stroke-width:2"/></g>
<g fill-rule="evenodd"><path d="M 626.22,1508.66 L 626.22,1516.54 L 452.992,1516.54 L 452.992,1469.29 L 626.22,1469.29 L 626.22,1477.16 L 714.55,1477.16 L 717.622,1477.47 L 720.576,1478.36 L 723.299,1479.82 L 725.685,1481.78 L 730.324,1486.42 L 734.118,1483.66 L 749.156,1476.96 L 765.258,1473.54 L 781.719,1473.54 L 797.82,1476.96 L 812.858,1483.66 L 826.176,1493.34 L 837.19,1505.57 L 845.421,1519.82 L 850.508,1535.48 L 852.228,1551.85 L 850.508,1568.22 L 845.421,1583.88 L 837.19,1598.13 L 826.176,1610.37 L 812.858,1620.04 L 797.82,1626.74 L 781.719,1630.16 L 765.258,1630.16 L 749.156,1626.74 L 734.118,1620.04 L 720.801,1610.37 L 709.786,1598.13 L 701.555,1583.88 L 696.469,1568.22 L 694.748,1551.85 L 696.469,1535.48 L 701.555,1519.82 L 708.001,1508.66 L 626.22,1508.66 z " style="fill-opacity:1.000000;fill:rgb(5,23,88);stroke:rgb(0,0,0);stroke-width:2"/></g>
<g fill-rule="evenodd"><path d="M 843.583,677.441 L 827.81,677.441 L 827.81,745.945 L 843.583,745.945 L 843.583,737.677 L 973.504,737.677 L 973.504,785.709 L 843.583,785.709 L 843.583,777.441 L 812.062,777.441 L 808.99,777.138 L 806.035,776.242 L 803.313,774.787 L 800.926,772.828 L 798.968,770.442 L 797.513,767.719 L 796.616,764.765 L 796.314,761.693 L 796.314,721.259 L 626.24,721.259 L 626.22,729.154 L 458.044,729.154 L 389.306,797.892 L 389.306,1820.47 L 452.491,1883.65 L 459.298,1883.96 L 462.252,1884.85 L 464.975,1886.31 L 467.361,1888.27 L 498.631,1919.53 L 500.59,1921.92 L 502.045,1924.64 L 502.941,1927.6 L 503.244,1930.67 L 503.244,2388.13 L 502.941,2391.21 L 502.045,2394.16 L 500.59,2396.88 L 498.631,2399.27 L 437.22,2460.68 L 437.22,2479.76 L 452.992,2479.76 L 452.992,2471.89 L 626.22,2471.89 L 626.22,2519.13 L 452.992,2519.13 L 452.992,2511.26 L 421.472,2511.26 L 418.4,2510.96 L 415.445,2510.06 L 412.723,2508.6 L 410.336,2506.65 L 408.378,2504.26 L 406.923,2501.54 L 406.026,2498.58 L 405.724,2495.51 L 405.724,2454.16 L 406.026,2451.08 L 406.923,2448.13 L 408.378,2445.41 L 410.336,2443.02 L 471.748,2381.61 L 471.748,1937.19 L 449.703,1915.15 L 442.896,1914.85 L 439.941,1913.95 L 437.219,1912.49 L 434.832,1910.54 L 362.422,1838.13 L 360.464,1835.74 L 359.009,1833.02 L 358.112,1830.06 L 357.81,1826.99 L 357.81,791.369 L 358.112,788.297 L 359.009,785.342 L 360.464,782.62 L 362.422,780.233 L 448.28,694.375 L 450.667,692.417 L 452.972,691.185 L 452.988,681.87 L 626.22,681.87 L 626.24,689.763 L 796.314,689.763 L 796.314,661.693 L 796.616,658.621 L 797.513,655.666 L 798.968,652.944 L 800.926,650.557 L 803.313,648.599 L 806.035,647.144 L 808.99,646.247 L 812.062,645.945 L 843.583,645.945 L 843.583,637.677 L 973.504,637.677 L 973.504,645.945 L 989.274,645.945 L 989.274,436.9 L 788.636,236.26 L 730.197,236.26 L 726.356,235.882 L 722.664,234.761 L 719.26,232.942 L 716.277,230.494 L 713.829,227.511 L 712.01,224.108 L 710.607,218.504 L 710.512,206.731 L 650.748,206.731 L 650.748,211.575 L 650.37,215.415 L 649.25,219.108 L 647.431,222.511 L 644.982,225.494 L 641.999,227.942 L 638.596,229.761 L 634.903,230.882 L 631.063,231.26 L 558.267,231.165 L 554.483,230.412 L 549.26,227.942 L 546.277,225.494 L 543.829,222.511 L 542.01,219.108 L 540.89,215.415 L 540.512,211.575 L 540.512,201.731 L 483.37,201.731 L 480.298,201.428 L 477.344,200.532 L 474.621,199.077 L 472.235,197.119 L 442.555,167.441 L 417.559,167.441 L 417.559,218.622 L 283.701,218.622 L 283.701,84.7638 L 417.559,84.7638 L 417.559,135.945 L 449.078,135.945 L 452.15,136.247 L 455.104,137.144 L 457.827,138.599 L 460.213,140.557 L 489.893,170.235 L 540.512,170.235 L 540.512,160.394 L 540.89,156.553 L 542.01,152.861 L 543.829,149.457 L 546.277,146.474 L 549.26,144.026 L 554.483,141.556 L 558.267,140.803 L 631.063,140.709 L 634.903,141.087 L 638.596,142.207 L 641.999,144.026 L 644.982,146.474 L 647.431,149.457 L 649.25,152.861 L 650.653,158.464 L 650.748,175.235 L 710.512,175.235 L 710.607,163.464 L 711.359,159.679 L 712.836,156.114 L 714.98,152.906 L 719.26,149.026 L 722.664,147.207 L 726.356,146.087 L 730.197,145.709 L 801.063,145.709 L 806.777,146.556 L 811.999,149.026 L 814.982,151.474 L 817.431,154.457 L 819.9,159.679 L 820.653,163.464 L 820.748,216.575 L 820.37,220.415 L 819.718,222.8 L 1016.16,419.241 L 1018.12,421.628 L 1019.57,424.35 L 1020.47,427.305 L 1020.77,430.377 L 1020.77,645.945 L 1257.76,645.945 L 1257.76,637.677 L 1387.68,637.677 L 1387.68,685.709 L 1257.76,685.709 L 1257.76,677.441 L 1241.98,677.441 L 1241.98,745.945 L 1257.76,745.945 L 1257.76,737.677 L 1387.68,737.677 L 1387.68,785.709 L 1257.76,785.709 L 1257.76,777.441 L 1226.24,777.441 L 1223.16,777.138 L 1220.21,776.242 L 1217.49,774.787 L 1215.1,772.828 L 1213.14,770.442 L 1211.69,767.719 L 1210.79,764.765 L 1210.49,761.693 L 1210.49,677.441 L 973.504,677.441 L 973.504,685.709 L 843.583,685.709 L 843.583,677.441 z " style="fill-opacity:1.000000;fill:rgb(233,94,212);stroke:rgb(0,0,0);stroke-width:2"/></g>
<g fill-rule="evenodd"><path d="M 1397.24,3456.45 L 1397.24,3414.57 L 1649.21,3414.57 L 1649.21,3469.69 L 1517.94,3469.69 L 1504.29,3483.33 L 1501.9,3485.29 L 1499.18,3486.74 L 1496.23,3487.64 L 1493.16,3487.94 L 948.577,3487.94 L 770.852,3665.67 L 768.465,3667.63 L 765.742,3669.08 L 762.788,3669.98 L 759.716,3670.28 L 408.408,3670.28 L 405.336,3669.98 L 402.381,3669.08 L 399.658,3667.63 L 397.272,3665.67 L 362.73,3631.13 L 360.772,3628.74 L 359.317,3626.02 L 358.42,3623.06 L 358.118,3619.99 L 358.118,3330.52 L 358.42,3327.45 L 359.317,3324.49 L 360.772,3321.77 L 362.73,3319.38 L 410.336,3271.78 L 412.723,3269.82 L 415.445,3268.36 L 418.4,3267.47 L 421.472,3267.16 L 452.992,3267.16 L 452.992,3259.29 L 626.22,3259.29 L 626.22,3306.54 L 452.992,3306.54 L 452.992,3298.66 L 427.995,3298.66 L 389.614,3337.04 L 389.614,3613.47 L 414.931,3638.79 L 753.193,3638.79 L 930.918,3461.06 L 933.305,3459.1 L 936.027,3457.65 L 938.982,3456.75 L 942.054,3456.45 L 1397.24,3456.45 z " style="fill-opacity:1.000000;fill:rgb(171,178,205);stroke:rgb(0,0,0);stroke-width:2"/></g>
<g fill-rule="evenodd"><path d="M 1397.24,3185.43 L 1397.24,3173.62 L 1649.21,3173.62 L 1649.21,3228.74 L 1397.24,3228.74 L 1397.24,3216.93 L 903.475,3216.93 L 668.875,3451.53 L 666.489,3453.49 L 663.766,3454.94 L 660.812,3455.84 L 657.74,3456.14 L 626.22,3456.14 L 626.22,3464.02 L 452.992,3464.02 L 452.992,3416.77 L 626.22,3416.77 L 626.22,3424.64 L 651.217,3424.64 L 885.816,3190.05 L 888.203,3188.09 L 890.925,3186.63 L 893.88,3185.74 L 896.952,3185.43 L 1397.24,3185.43 z " style="fill-opacity:1.000000;fill:rgb(198,155,180);stroke:rgb(0,0,0);stroke-width:2"/></g>
<g fill-rule="evenodd"><path d="M 1397.24,3105.12 L 1397.24,3093.31 L 1649.21,3093.31 L 1649.21,3148.43 L 1397.24,3148.43 L 1397.24,3136.61 L 731.912,3136.61 L 728.84,3136.31 L 725.885,3135.41 L 723.163,3133.96 L 720.776,3132 L 651.217,3062.44 L 626.22,3062.44 L 626.22,3070.31 L 452.992,3070.31 L 452.992,3023.07 L 626.22,3023.07 L 626.22,3030.94 L 657.74,3030.94 L 660.812,3031.25 L 663.766,3032.14 L 666.489,3033.6 L 668.875,3035.56 L 738.435,3105.12 L 1397.24,3105.12 z " style="fill-opacity:1.000000;fill:rgb(84,17,14);stroke:rgb(0,0,0);stroke-width:2"/></g>
<g fill-rule="evenodd"><path d="M 1397.24,3024.8 L 1397.24,3012.99 L 1649.21,3012.99 L 1649.21,3068.11 L 1397.24,3068.11 L 1397.24,3056.3 L 730.338,3056.3 L 727.266,3056 L 724.311,3055.1 L 721.589,3053.64 L 719.202,3051.69 L 651.217,2983.7 L 626.22,2983.7 L 626.22,2991.57 L 452.992,2991.57 L 452.992,2944.33 L 626.22,2944.33 L 626.22,2952.2 L 657.74,2952.2 L 660.812,2952.51 L 663.767,2953.4 L 666.489,2954.86 L 668.876,2956.82 L 736.861,3024.8 L 1397.24,3024.8 z " style="fill-opacity:1.000000;fill:rgb(130,116,65);stroke:rgb(0,0,0);stroke-width:2"/></g>
<g fill-rule="evenodd"><path d="M 1397.24,2944.49 L 1397.24,2932.68 L 1649.21,2932.68 L 1649.21,2987.8 L 1397.24,2987.8 L 1397.24,2975.98 L 1158.62,2975.98 L 1155.55,2975.68 L 1152.6,2974.78 L 1149.87,2973.33 L 1147.49,2971.37 L 844.855,2668.74 L 626.24,2668.74 L 626.22,2676.63 L 452.988,2676.63 L 452.974,2629.36 L 626.22,2629.35 L 626.24,2637.24 L 851.378,2637.24 L 854.45,2637.55 L 857.404,2638.44 L 860.127,2639.9 L 862.513,2641.86 L 1165.14,2944.49 L 1397.24,2944.49 z " style="fill-opacity:1.000000;fill:rgb(33,61,220);stroke:rgb(0,0,0);stroke-width:2"/></g>
<g fill-rule="evenodd"><path d="M 590.668,392.677 L 590.668,456.575 L 600.512,456.575 L 604.352,456.953 L 608.045,458.073 L 611.448,459.892 L 615.729,463.772 L 617.872,466.98 L 619.349,470.546 L 620.197,476.26 L 620.197,547.126 L 619.819,550.966 L 618.698,554.659 L 616.879,558.062 L 614.431,561.045 L 611.448,563.494 L 608.045,565.313 L 604.352,566.433 L 600.512,566.811 L 594.92,566.811 L 594.92,600.169 L 601.606,606.855 L 619.757,607.048 L 628.037,606.232 L 635.576,603.944 L 642.526,600.23 L 648.617,595.231 L 654.534,588.325 L 657.973,586.486 L 661.855,586.103 L 665.588,587.234 L 677.48,596.912 L 687.834,602.446 L 699.065,605.854 L 711.239,607.053 L 764.773,606.917 L 768.507,608.049 L 771.524,610.525 L 773.363,613.966 L 773.746,617.85 L 772.613,621.584 L 765.484,630.57 L 760.308,640.253 L 758.894,644.35 L 757.915,645.885 L 755.21,648.303 L 753.575,649.105 L 750.008,649.763 L 653.474,649.763 L 650.259,649.232 L 641.6,644.754 L 634.062,642.468 L 625.728,641.647 L 467.237,641.647 L 317.543,791.341 L 317.81,794.599 L 317.81,1823.76 L 317.54,1826.99 L 318.617,1837.92 L 321.804,1848.43 L 326.981,1858.11 L 333.946,1866.6 L 336.424,1868.69 L 352.144,1884.42 L 354.311,1887.66 L 355.072,1891.49 L 354.31,1895.32 L 352.143,1898.56 L 350.627,1899.8 L 347.023,1901.3 L 248.756,1901.49 L 240.425,1902.31 L 232.884,1904.6 L 231.236,1905.48 L 231.236,2119.72 L 232.884,2120.6 L 240.425,2122.89 L 248.757,2123.7 L 423.699,2123.9 L 425.575,2124.47 L 428.819,2126.63 L 430.987,2129.88 L 431.556,2131.75 L 431.748,2169.68 L 430.987,2173.51 L 428.819,2176.75 L 425.575,2178.92 L 421.748,2179.68 L 248.757,2179.68 L 240.427,2180.5 L 232.885,2182.79 L 231.236,2183.67 L 231.236,2397.91 L 232.885,2398.79 L 240.425,2401.07 L 246.397,2401.66 L 249.913,2402.68 L 252.827,2404.9 L 253.931,2406.37 L 255.249,2409.78 L 255.418,2552.64 L 402.75,2552.64 L 404.701,2552.83 L 408.306,2554.32 L 409.821,2555.57 L 411.989,2558.81 L 412.75,2562.64 L 412.75,2597.39 L 413.569,2605.71 L 415.47,2612.64 L 415.087,2616.52 L 413.569,2621.53 L 412.75,2629.86 L 412.75,2676.13 L 413.569,2684.45 L 415.47,2691.38 L 415.087,2695.26 L 413.569,2700.27 L 412.75,2708.6 L 412.75,2754.87 L 413.569,2763.19 L 415.47,2770.12 L 415.087,2774 L 413.569,2779.01 L 412.75,2787.34 L 412.75,2833.61 L 413.569,2841.93 L 415.47,2848.86 L 415.087,2852.74 L 413.453,2858.93 L 423.736,2869.21 L 432.964,2869.34 L 434.551,2869.74 L 437.612,2871.23 L 444.997,2873.47 L 452.972,2873.47 L 452.992,2865.57 L 626.239,2865.58 L 626.224,2912.85 L 452.992,2912.85 L 452.972,2904.97 L 444.961,2904.97 L 437.22,2907.4 L 437.22,3107.24 L 444.983,3109.69 L 452.992,3109.68 L 452.992,3101.81 L 626.22,3101.81 L 626.22,3109.68 L 657.74,3109.68 L 660.812,3109.99 L 663.766,3110.88 L 666.489,3112.34 L 668.875,3114.3 L 670.834,3116.68 L 672.289,3119.41 L 673.185,3122.36 L 673.488,3125.43 L 673.488,3361.65 L 673.185,3364.73 L 672.289,3367.68 L 670.834,3370.4 L 668.875,3372.79 L 666.489,3374.75 L 663.766,3376.2 L 660.812,3377.1 L 657.74,3377.4 L 626.22,3377.4 L 626.22,3385.28 L 452.992,3385.28 L 452.992,3377.4 L 437.22,3377.4 L 437.22,3582.12 L 452.992,3582.13 L 452.992,3574.25 L 626.22,3574.25 L 626.22,3621.5 L 452.992,3621.5 L 452.992,3613.62 L 421.472,3613.62 L 418.4,3613.32 L 415.445,3612.42 L 412.723,3610.97 L 410.336,3609.01 L 408.378,3606.62 L 406.923,3603.9 L 406.026,3600.95 L 405.724,3597.87 L 405.724,3361.65 L 406.026,3358.58 L 406.923,3355.63 L 408.378,3352.9 L 410.336,3350.52 L 412.723,3348.56 L 415.445,3347.1 L 418.4,3346.21 L 421.472,3345.9 L 452.992,3345.9 L 452.992,3338.03 L 626.22,3338.03 L 626.22,3345.9 L 641.992,3345.9 L 641.992,3141.18 L 626.22,3141.18 L 626.22,3149.06 L 452.992,3149.06 L 452.992,3141.18 L 444.977,3141.18 L 437.611,3143.42 L 434.551,3144.9 L 432.964,3145.3 L 419.632,3145.43 L 417.628,3147.23 L 414.538,3148.69 L 410.543,3149.23 L 400.035,3152.42 L 390.348,3157.6 L 381.858,3164.56 L 379.765,3167.04 L 179.603,3367.2 L 177.13,3369.29 L 170.162,3377.78 L 164.985,3387.47 L 161.798,3397.97 L 160.722,3408.9 L 160.992,3412.13 L 160.992,3883.28 L 160.722,3886.51 L 161.591,3897.56 L 161.147,3899.59 L 160.291,3901.49 L 159.061,3903.17 L 157.509,3904.56 L 155.704,3905.6 L 153.723,3906.24 L 151.652,3906.45 L 92.6979,3906.45 L 84.0304,3905.65 L 77.1601,3903.78 L 70.7847,3900.61 L 65.1459,3896.25 L 60.4636,3890.89 L 56.91,3884.72 L 54.6226,3877.97 L 53.3839,3867.49 L 53.3839,228.705 L 53.5846,226.712 L 54.1785,224.798 L 55.1419,223.042 L 56.436,221.513 L 58.009,220.272 L 59.7977,219.37 L 61.7303,218.843 L 63.7292,218.711 L 65.7144,218.98 L 67.6059,219.64 L 69.3281,220.663 L 78.6359,230.69 L 95.4309,243.216 L 114.558,252.328 L 121.496,254.432 L 130.63,249.611 L 130.63,215.491 L 117.165,209.655 L 105.846,201.431 L 96.4831,191.033 L 89.4871,178.915 L 85.1633,165.608 L 83.7008,151.693 L 85.1633,137.778 L 89.4871,124.47 L 96.4831,112.353 L 105.846,101.955 L 117.165,93.7306 L 129.948,88.0395 L 143.634,85.1304 L 157.626,85.1304 L 171.312,88.0395 L 184.094,93.7306 L 195.414,101.955 L 204.777,112.353 L 211.773,124.47 L 215.501,135.945 L 249.078,135.945 L 252.15,136.247 L 255.104,137.144 L 257.827,138.599 L 260.213,140.557 L 262.172,142.944 L 263.627,145.666 L 264.523,148.621 L 264.826,151.693 L 264.826,225.162 L 298.527,258.863 L 417.067,258.863 L 425.397,258.042 L 432.937,255.755 L 439.89,252.039 L 445.977,247.043 L 452.417,239.497 L 454.047,238.408 L 457.781,237.275 L 461.665,237.658 L 472.438,240.925 L 483.368,242.001 L 486.598,241.731 L 503.126,241.731 L 504.884,241.887 L 508.182,243.103 L 510.855,245.386 L 518.999,255.103 L 520.836,258.544 L 521.218,262.426 L 520.835,264.347 L 518.996,267.787 L 512.089,273.704 L 507.092,279.794 L 503.376,286.746 L 501.088,294.283 L 500.275,302.562 L 500.467,320.715 L 507.152,327.401 L 540.512,327.401 L 540.512,321.811 L 540.89,317.971 L 542.01,314.278 L 543.829,310.875 L 546.277,307.892 L 549.26,305.443 L 552.664,303.624 L 556.356,302.504 L 560.197,302.126 L 631.063,302.126 L 636.777,302.974 L 640.343,304.45 L 643.551,306.594 L 647.431,310.875 L 649.9,316.097 L 650.653,319.881 L 650.748,372.992 L 649.9,378.706 L 648.424,382.272 L 646.28,385.48 L 641.999,389.36 L 638.596,391.179 L 634.903,392.299 L 631.063,392.677 L 590.668,392.677M 170.63,215.491 L 170.63,249.612 L 179.762,254.432 L 186.7,252.328 L 205.826,243.216 L 222.621,230.69 L 229.343,223.507 L 230.979,222.506 L 233.33,221.743 L 233.33,167.441 L 215.501,167.441 L 211.773,178.915 L 204.777,191.033 L 195.414,201.431 L 184.094,209.655 L 170.63,215.491M 529.646,534.696 L 529.646,476.26 L 530.024,472.419 L 531.144,468.727 L 532.963,465.323 L 535.411,462.34 L 538.394,459.892 L 541.798,458.073 L 547.401,456.67 L 559.172,456.575 L 559.172,392.627 L 554.483,391.83 L 550.917,390.353 L 547.709,388.209 L 544.43,384.739 L 500.354,384.739 L 500.275,392.241 L 500.649,398.04 L 500.265,399.962 L 499.514,401.773 L 497.037,404.787 L 495.406,405.875 L 491.671,407.005 L 489.711,407.004 L 485.978,405.869 L 484.349,404.779 L 481.411,401.497 L 475.321,396.5 L 468.373,392.787 L 460.832,390.499 L 452.5,389.679 L 248.757,389.679 L 240.425,390.498 L 232.885,392.786 L 225.936,396.5 L 219.844,401.499 L 214.847,407.589 L 211.133,414.539 L 208.845,422.08 L 208.024,430.415 L 208.024,571.158 L 208.845,579.494 L 211.133,587.034 L 214.847,593.983 L 219.844,600.073 L 225.937,605.072 L 232.885,608.787 L 240.425,611.073 L 246.397,611.661 L 249.913,612.68 L 252.827,614.897 L 253.931,616.367 L 255.249,619.782 L 255.418,762.637 L 301.705,762.637 L 416.953,647.388 L 415.208,644.784 L 414.477,642.343 L 414.344,621.895 L 415.105,618.068 L 417.273,614.824 L 420.517,612.656 L 424.344,611.895 L 452.447,611.895 L 529.646,534.696M 554.92,566.811 L 547.401,566.716 L 543.104,565.78 L 508.187,600.696 L 514.263,603.943 L 521.805,606.232 L 530.083,607.048 L 548.234,606.855 L 554.92,600.169 L 554.92,566.811 z " style="fill-opacity:1.000000;fill:rgb(135,112,233);stroke:rgb(0,0,0);stroke-width:2"/></g>
<g fill-rule="evenodd"><path d="M 752.086,456.575 L 763.859,456.67 L 767.643,457.422 L 771.209,458.899 L 774.417,461.043 L 777.146,463.772 L 779.29,466.98 L 780.767,470.546 L 781.614,476.26 L 781.614,547.126 L 781.236,550.966 L 780.116,554.659 L 777.146,559.614 L 772.866,563.494 L 767.643,565.963 L 763.859,566.716 L 710.748,566.811 L 706.908,566.433 L 703.215,565.313 L 698.26,562.343 L 694.38,558.062 L 691.911,552.84 L 691.158,549.056 L 691.063,476.26 L 691.911,470.546 L 693.387,466.98 L 695.531,463.772 L 699.812,459.892 L 703.215,458.073 L 706.908,456.953 L 710.748,456.575 L 720.59,456.575 L 720.59,395.156 L 716.277,391.912 L 713.829,388.929 L 711.359,383.706 L 710.607,379.922 L 710.512,326.811 L 710.89,322.971 L 712.01,319.278 L 714.98,314.323 L 719.26,310.443 L 724.483,307.974 L 728.267,307.221 L 801.063,307.126 L 804.903,307.504 L 808.596,308.624 L 813.551,311.594 L 817.431,315.875 L 819.9,321.097 L 820.653,324.881 L 820.748,377.992 L 820.37,381.833 L 819.25,385.525 L 817.431,388.929 L 813.551,393.209 L 808.596,396.179 L 804.903,397.299 L 801.063,397.677 L 752.086,397.677 L 752.086,456.575 z " style="fill-opacity:1.000000;fill:rgb(62,161,65);stroke:rgb(0,0,0);stroke-width:2"/></g>
<g fill-rule="evenodd"><path d="M 1397.24,2001.18 L 1378.77,2001.18 L 1377.55,2012.82 L 1372.46,2028.48 L 1364.23,2042.73 L 1353.22,2054.96 L 1339.9,2064.64 L 1324.86,2071.34 L 1308.76,2074.76 L 1292.3,2074.76 L 1276.2,2071.34 L 1261.16,2064.64 L 1247.84,2054.96 L 1236.83,2042.73 L 1228.59,2028.48 L 1223.51,2012.82 L 1221.79,1996.45 L 1223.51,1980.08 L 1228.59,1964.42 L 1236.83,1950.17 L 1247.84,1937.93 L 1261.16,1928.26 L 1276.2,1921.56 L 1292.3,1918.14 L 1308.76,1918.14 L 1324.86,1921.56 L 1339.9,1928.26 L 1353.22,1937.93 L 1364.23,1950.17 L 1372.46,1964.42 L 1374.17,1969.69 L 1397.24,1969.68 L 1397.24,1957.87 L 1649.21,1957.87 L 1649.21,2012.99 L 1397.24,2012.99 L 1397.24,2001.18 z " style="fill-opacity:1.000000;fill:rgb(225,252,103);stroke:rgb(0,0,0);stroke-width:2"/></g>
<g fill-rule="evenodd"><path d="M 1397.24,3346.06 L 1397.24,3334.25 L 1649.21,3334.25 L 1649.21,3389.37 L 1397.24,3389.37 L 1397.24,3377.56 L 1371.98,3377.56 L 1366.81,3393.96 L 1358.58,3408.22 L 1347.57,3420.45 L 1334.25,3430.13 L 1319.21,3436.82 L 1303.11,3440.25 L 1286.65,3440.25 L 1270.55,3436.82 L 1255.51,3430.13 L 1242.19,3420.45 L 1231.18,3408.22 L 1222.95,3393.96 L 1217.86,3378.31 L 1216.14,3361.94 L 1217.86,3345.57 L 1222.95,3329.91 L 1231.18,3315.65 L 1242.19,3303.42 L 1255.51,3293.75 L 1270.55,3287.05 L 1286.65,3283.63 L 1303.11,3283.63 L 1319.21,3287.05 L 1334.25,3293.75 L 1347.57,3303.42 L 1358.58,3315.65 L 1366.81,3329.91 L 1371.95,3346.06 L 1397.24,3346.06 z " style="fill-opacity:1.000000;fill:rgb(62,1,126);stroke:rgb(0,0,0);stroke-width:2"/></g>
<g fill-rule="evenodd"><path d="M 1397.24,3265.75 L 1397.24,3253.94 L 1649.21,3253.94 L 1649.21,3309.06 L 1397.24,3309.06 L 1397.24,3297.24 L 1370.38,3297.24 L 1367.31,3296.94 L 1364.35,3296.04 L 1361.63,3294.59 L 1359.24,3292.63 L 1334.04,3267.42 L 1078.62,3267.42 L 815.771,3530.27 L 813.385,3532.23 L 810.662,3533.68 L 807.708,3534.58 L 804.636,3534.88 L 626.22,3534.88 L 626.22,3542.76 L 452.992,3542.76 L 452.992,3495.51 L 626.22,3495.51 L 626.22,3503.38 L 798.113,3503.38 L 1060.96,3240.54 L 1063.34,3238.58 L 1066.07,3237.13 L 1069.02,3236.23 L 1072.09,3235.93 L 1340.56,3235.93 L 1343.63,3236.23 L 1346.58,3237.13 L 1349.31,3238.58 L 1351.69,3240.54 L 1376.9,3265.75 L 1397.24,3265.75 z " style="fill-opacity:1.000000;fill:rgb(151,234,220);stroke:rgb(0,0,0);stroke-width:2"/></g>
<g fill-rule="evenodd"><path d="M 1397.24,2864.17 L 1397.24,2852.36 L 1649.21,2852.36 L 1649.21,2907.48 L 1397.24,2907.48 L 1397.24,2895.67 L 1365.72,2895.67 L 1362.65,2895.37 L 1359.7,2894.47 L 1356.97,2893.01 L 1354.59,2891.06 L 1053.53,2590 L 626.22,2590 L 626.22,2597.87 L 452.992,2597.87 L 452.992,2550.63 L 626.22,2550.63 L 626.22,2558.5 L 1060.05,2558.5 L 1063.13,2558.81 L 1066.08,2559.7 L 1068.8,2561.16 L 1071.19,2563.12 L 1372.25,2864.17 L 1397.24,2864.17 z " style="fill-opacity:1.000000;fill:rgb(107,150,143);stroke:rgb(0,0,0);stroke-width:2"/></g>
<g fill-rule="evenodd"><path d="M 2205.26,3774.88 L 2240.07,3774.88 L 2244.99,3766.26 L 2244.39,3762.25 L 2244.58,3760.3 L 2246.07,3756.69 L 2248.83,3753.93 L 2252.44,3752.44 L 2321.65,3752.24 L 2325.48,3753 L 2328.72,3755.17 L 2330.89,3758.42 L 2331.65,3762.24 L 2331.6,3868.12 L 2330.47,3877.72 L 2328.23,3884.49 L 2324.72,3890.68 L 2320.08,3896.08 L 2314.47,3900.47 L 2308.11,3903.69 L 2301.26,3905.61 L 2293.73,3906.4 L 2189.89,3906.45 L 2186.05,3905.69 L 2182.8,3903.51 L 2180.64,3900.25 L 2179.89,3896.41 L 2180.67,3892.58 L 2182.86,3889.34 L 2186.13,3887.19 L 2195.95,3883.2 L 2212.28,3872.45 L 2226.21,3858.72 L 2237.19,3842.53 L 2244.79,3824.54 L 2245,3823.51 L 2240.07,3814.88 L 2205.26,3814.88 L 2200.94,3824.57 L 2193.65,3834.61 L 2184.42,3842.91 L 2173.68,3849.12 L 2161.87,3852.95 L 2149.53,3854.25 L 2030.79,3854.25 L 2018.44,3852.95 L 2006.64,3849.12 L 1995.89,3842.91 L 1986.67,3834.61 L 1979.37,3824.57 L 1975.06,3814.88 L 1942.19,3814.88 L 1937.65,3819.43 L 1935.32,3823.51 L 1935.52,3824.55 L 1943.12,3842.53 L 1954.1,3858.72 L 1968.03,3872.45 L 1984.37,3883.2 L 1994.19,3887.19 L 1997.45,3889.34 L 1999.64,3892.58 L 2000.22,3894.46 L 2000.24,3898.37 L 1998.75,3901.99 L 1995.99,3904.76 L 1994.26,3905.69 L 1990.42,3906.45 L 1815.24,3906.46 L 1798.86,3910 L 1782.4,3910 L 1766.02,3906.46 L 710.82,3906.45 L 706.993,3905.69 L 703.749,3903.53 L 701.581,3900.28 L 700.82,3896.46 L 701.581,3892.63 L 703.766,3887.35 L 708.33,3864.41 L 708.33,3841.02 L 703.766,3818.08 L 694.816,3796.47 L 681.821,3777.02 L 665.281,3760.48 L 645.833,3747.49 L 624.225,3738.54 L 601.285,3733.97 L 577.895,3733.97 L 554.955,3738.54 L 533.345,3747.49 L 513.898,3760.48 L 508.791,3765.32 L 505.187,3766.81 L 501.284,3766.82 L 499.408,3766.25 L 496.163,3764.08 L 494.92,3762.56 L 493.426,3758.96 L 493.234,3732.22 L 492.413,3723.9 L 491.821,3721.33 L 491.821,3719.24 L 492.313,3717.02 L 493.198,3715.13 L 494.457,3713.46 L 497.699,3711.15 L 499.687,3710.5 L 501.766,3710.28 L 756.486,3710.28 L 759.715,3710.55 L 770.644,3709.48 L 781.153,3706.29 L 790.837,3701.11 L 799.325,3694.15 L 801.419,3691.67 L 851.983,3641.11 L 855.227,3638.94 L 857.103,3638.37 L 861.005,3638.37 L 864.61,3639.86 L 866.125,3641.11 L 868.293,3644.35 L 868.862,3646.23 L 869.054,3649.81 L 875.434,3681.88 L 887.946,3712.09 L 906.11,3739.27 L 929.231,3762.39 L 956.415,3780.56 L 986.622,3793.07 L 1018.69,3799.45 L 1051.39,3799.45 L 1083.46,3793.07 L 1113.66,3780.56 L 1140.85,3762.39 L 1163.97,3739.27 L 1182.13,3712.09 L 1194.64,3681.88 L 1201.02,3649.81 L 1201.02,3617.12 L 1194.64,3585.05 L 1182.13,3554.84 L 1174.55,3543.5 L 1173.06,3539.89 L 1172.87,3537.94 L 1173.63,3534.12 L 1175.8,3530.87 L 1179.04,3528.7 L 1182.87,3527.94 L 1489.93,3527.94 L 1493.16,3528.21 L 1504.08,3527.14 L 1514.59,3523.95 L 1524.28,3518.77 L 1533.71,3511.23 L 1536.93,3510.07 L 1648.72,3509.93 L 1655.39,3509.49 L 1657.42,3509.93 L 1659.32,3510.78 L 1661,3512.01 L 1662.39,3513.57 L 1663.43,3515.37 L 1664.07,3517.35 L 1664.29,3519.42 L 1664.1,3712.2 L 1664.87,3720.05 L 1667.16,3727.6 L 1670.88,3734.56 L 1674.77,3739.3 L 1675.88,3740.65 L 1681.98,3745.66 L 1688.93,3749.37 L 1696.48,3751.66 L 1704.33,3752.44 L 1925.92,3752.24 L 1927.88,3752.44 L 1931.48,3753.93 L 1934.24,3756.69 L 1935.73,3760.3 L 1935.92,3762.25 L 1935.32,3766.26 L 1940.24,3774.88 L 1975.06,3774.88 L 1979.37,3765.2 L 1986.67,3755.16 L 1995.89,3746.85 L 2006.64,3740.64 L 2018.44,3736.81 L 2030.79,3735.51 L 2149.53,3735.51 L 2161.87,3736.81 L 2173.68,3740.64 L 2184.42,3746.85 L 2193.65,3755.16 L 2200.94,3765.2 L 2205.26,3774.88 z " style="fill-opacity:1.000000;fill:rgb(56,92,42);stroke:rgb(0,0,0);stroke-width:2"/></g>
<g fill-rule="evenodd"><path d="M 1975.06,2318.19 L 1979.37,2308.5 L 1986.67,2298.46 L 1995.89,2290.16 L 2006.64,2283.95 L 2018.44,2280.12 L 2030.79,2278.82 L 2149.53,2278.82 L 2161.87,2280.12 L 2173.68,2283.95 L 2184.42,2290.16 L 2193.65,2298.46 L 2200.94,2308.5 L 2205.26,2318.19 L 2240.07,2318.19 L 2244.99,2309.57 L 2244.39,2305.56 L 2244.58,2303.61 L 2246.07,2300 L 2248.83,2297.24 L 2252.44,2295.74 L 2321.65,2295.55 L 2323.6,2295.74 L 2327.21,2297.24 L 2328.72,2298.48 L 2330.89,2301.72 L 2331.65,2305.55 L 2331.65,2559.8 L 2331.46,2561.75 L 2329.97,2565.36 L 2328.72,2566.87 L 2325.48,2569.04 L 2321.65,2569.8 L 2252.44,2569.61 L 2248.83,2568.12 L 2246.07,2565.35 L 2244.58,2561.74 L 2244.39,2559.79 L 2244.99,2555.79 L 2240.07,2547.17 L 2205.26,2547.16 L 2200.94,2556.85 L 2193.65,2566.89 L 2184.42,2575.2 L 2173.68,2581.4 L 2161.87,2585.24 L 2149.53,2586.54 L 2030.79,2586.54 L 2018.44,2585.24 L 2006.64,2581.4 L 1995.89,2575.2 L 1986.67,2566.89 L 1979.37,2556.85 L 1975.06,2547.16 L 1940.24,2547.17 L 1935.32,2555.79 L 1935.92,2559.79 L 1935.73,2561.75 L 1934.24,2565.35 L 1931.48,2568.12 L 1927.88,2569.61 L 1704.33,2569.61 L 1696.48,2570.38 L 1688.93,2572.67 L 1681.98,2576.39 L 1675.88,2581.39 L 1670.88,2587.49 L 1667.16,2594.44 L 1664.87,2601.99 L 1664.1,2609.84 L 1664.29,2802.62 L 1664.07,2804.69 L 1663.43,2806.67 L 1662.39,2808.48 L 1661.01,2810.03 L 1659.33,2811.26 L 1657.43,2812.11 L 1655.39,2812.56 L 1648.72,2812.12 L 1397.74,2812.12 L 1389.4,2812.94 L 1384.31,2814.32 L 1380.73,2814.08 L 1377.47,2812.6 L 1376.09,2811.45 L 1101.76,2537.12 L 1099.66,2534.64 L 1091.18,2527.67 L 1081.49,2522.5 L 1070.98,2519.31 L 1060.05,2518.23 L 1056.82,2518.5 L 674.511,2518.31 L 672.635,2517.74 L 669.391,2515.57 L 667.223,2512.33 L 666.654,2510.45 L 666.462,2472.38 L 665.641,2464.05 L 663.354,2456.51 L 659.64,2449.56 L 654.641,2443.47 L 648.549,2438.47 L 641.601,2434.75 L 634.062,2432.47 L 625.728,2431.65 L 544.132,2431.65 L 542.085,2431.44 L 540.124,2430.81 L 538.334,2429.79 L 536.789,2428.43 L 535.555,2426.79 L 534.684,2424.92 L 534.213,2422.92 L 534.163,2420.86 L 534.534,2418.84 L 535.313,2416.93 L 539.248,2409.57 L 542.437,2399.06 L 543.514,2388.13 L 543.244,2384.9 L 543.244,1933.9 L 543.513,1930.67 L 542.437,1919.74 L 539.248,1909.23 L 534.073,1899.55 L 527.103,1891.06 L 524.633,1888.96 L 517.135,1881.47 L 514.966,1878.23 L 514.396,1876.35 L 514.204,1874.4 L 514.965,1870.57 L 515.889,1868.84 L 519.606,1864.85 L 519.606,1831.5 L 452.992,1831.5 L 452.992,1823.62 L 421.472,1823.62 L 418.4,1823.32 L 415.445,1822.42 L 412.723,1820.96 L 410.336,1819.01 L 408.378,1816.62 L 406.923,1813.9 L 406.026,1810.94 L 405.724,1807.87 L 405.724,1099.21 L 406.026,1096.14 L 406.923,1093.18 L 408.378,1090.46 L 410.336,1088.08 L 412.723,1086.12 L 415.445,1084.66 L 418.4,1083.77 L 421.472,1083.46 L 452.992,1083.46 L 452.992,1075.59 L 626.22,1075.59 L 626.22,1122.83 L 452.992,1122.83 L 452.992,1114.96 L 437.22,1114.96 L 437.22,1319.68 L 452.992,1319.68 L 452.992,1311.81 L 626.22,1311.81 L 626.22,1320.51 L 634.062,1319.74 L 641.603,1317.45 L 644.667,1315.96 L 646.251,1315.57 L 659.578,1315.43 L 661.156,1314.13 L 662.885,1313.2 L 666.712,1312.44 L 924.726,1312.44 L 928.553,1313.2 L 931.797,1315.37 L 968.041,1351.61 L 970.209,1354.86 L 970.97,1358.68 L 970.778,1360.64 L 969.285,1364.24 L 966.526,1367 L 962.921,1368.49 L 938.919,1368.68 L 918.372,1372.61 L 916.611,1372.49 L 913.289,1371.34 L 908.482,1367.6 L 898.798,1362.42 L 888.29,1359.23 L 877.362,1358.16 L 874.132,1358.42 L 666.712,1358.42 L 662.885,1357.66 L 661.156,1356.74 L 659.578,1355.43 L 646.249,1355.3 L 644.663,1354.9 L 641.6,1353.42 L 634.062,1351.13 L 626.22,1350.36 L 626.22,1359.06 L 452.992,1359.06 L 452.992,1351.18 L 437.22,1351.18 L 437.22,1555.9 L 452.992,1555.9 L 452.992,1548.03 L 626.22,1548.03 L 626.22,1595.28 L 452.992,1595.28 L 452.992,1587.4 L 437.22,1587.4 L 437.22,1792.12 L 452.992,1792.12 L 452.992,1784.25 L 626.22,1784.25 L 626.22,1792.12 L 634.236,1792.12 L 641.6,1789.89 L 644.663,1788.4 L 646.249,1788.01 L 659.578,1787.87 L 661.156,1786.57 L 662.885,1785.64 L 666.712,1784.88 L 1090.99,1784.88 L 1094.82,1785.64 L 1096.55,1786.57 L 1099.31,1789.33 L 1100.23,1791.05 L 1100.99,1794.88 L 1100.23,1798.71 L 1097.3,1805.78 L 1092.74,1828.72 L 1092.74,1852.11 L 1097.3,1875.05 L 1106.25,1896.66 L 1119.25,1916.11 L 1135.79,1932.65 L 1155.24,1945.64 L 1176.84,1954.59 L 1179.43,1955.3 L 1182.68,1957.47 L 1183.92,1958.99 L 1184.85,1960.71 L 1185.61,1964.54 L 1181.79,1984.75 L 1181.79,2008.14 L 1186.35,2031.08 L 1195.3,2052.69 L 1208.29,2072.14 L 1224.83,2088.68 L 1244.28,2101.67 L 1265.89,2110.63 L 1288.83,2115.19 L 1312.22,2115.19 L 1335.16,2110.63 L 1356.77,2101.67 L 1376.22,2088.68 L 1392.76,2072.14 L 1403.66,2056.16 L 1405.18,2054.92 L 1408.78,2053.43 L 1648.72,2053.23 L 1653.31,2052.78 L 1655.39,2052.79 L 1657.43,2053.24 L 1659.33,2054.09 L 1661.01,2055.32 L 1662.39,2056.88 L 1663.43,2058.68 L 1664.07,2060.66 L 1664.29,2062.73 L 1664.1,2255.51 L 1664.87,2263.36 L 1667.16,2270.91 L 1670.88,2277.86 L 1675.88,2283.96 L 1681.98,2288.96 L 1688.93,2292.68 L 1696.48,2294.97 L 1704.33,2295.74 L 1927.88,2295.74 L 1931.48,2297.24 L 1934.24,2300 L 1935.73,2303.61 L 1935.92,2305.56 L 1935.32,2309.57 L 1940.24,2318.19 L 1975.06,2318.19M 559.606,1831.5 L 559.606,1864.85 L 566.264,1871.51 L 625.747,1871.74 L 634.062,1870.92 L 641.601,1868.63 L 648.549,1864.91 L 654.641,1859.92 L 659.64,1853.83 L 663.354,1846.88 L 665.641,1839.34 L 665.757,1838.16 L 655.471,1827.87 L 626.22,1827.87 L 626.22,1831.5 L 559.606,1831.5M 2110.16,2397.56 L 2110.16,2467.8 L 2149.53,2467.8 L 2161.87,2469.09 L 2173.68,2472.93 L 2184.42,2479.13 L 2193.65,2487.44 L 2200.94,2497.48 L 2205.26,2507.16 L 2240.07,2507.16 L 2245,2498.54 L 2244.79,2497.5 L 2237.19,2479.52 L 2226.21,2463.33 L 2212.28,2449.59 L 2197.74,2439.79 L 2195.54,2436.53 L 2194.77,2432.68 L 2195.54,2428.82 L 2197.74,2425.57 L 2212.28,2415.76 L 2226.21,2402.02 L 2237.19,2385.84 L 2244.79,2367.85 L 2245,2366.81 L 2240.07,2358.19 L 2205.26,2358.19 L 2200.94,2367.87 L 2193.65,2377.92 L 2184.42,2386.22 L 2173.68,2392.43 L 2161.87,2396.26 L 2149.53,2397.56 L 2110.16,2397.56M 2070.16,2397.56 L 2030.79,2397.56 L 2018.44,2396.26 L 2006.64,2392.43 L 1995.89,2386.22 L 1986.67,2377.92 L 1979.37,2367.87 L 1975.06,2358.19 L 1955.64,2358.19 L 1955.64,2403.54 L 1968.03,2415.76 L 1982.58,2425.57 L 1984.77,2428.82 L 1985.55,2432.68 L 1984.77,2436.53 L 1982.58,2439.79 L 1968.03,2449.59 L 1955.64,2461.81 L 1955.64,2507.16 L 1975.06,2507.16 L 1979.37,2497.48 L 1986.67,2487.44 L 1995.89,2479.13 L 2006.64,2472.93 L 2018.44,2469.09 L 2030.79,2467.8 L 2070.16,2467.8 L 2070.16,2397.56 z " style="fill-opacity:1.000000;fill:rgb(236,176,59);stroke:rgb(0,0,0);stroke-width:2"/></g>
<g fill-rule="evenodd"><path d="M 1455.75,268.463 L 1957.24,268.463 L 1957.34,262.598 L 1958.09,258.813 L 1959.57,255.248 L 1961.71,252.04 L 1964.44,249.311 L 1967.65,247.167 L 1971.21,245.69 L 1975,244.937 L 2213.15,244.843 L 2216.99,245.221 L 2220.68,246.341 L 2225.64,249.311 L 2229.52,253.591 L 2231.99,258.813 L 2232.83,264.528 L 2232.83,303.898 L 2232.46,307.738 L 2231.34,311.431 L 2229.52,314.834 L 2227.07,317.817 L 2224.09,320.265 L 2220.68,322.084 L 2216.99,323.204 L 2213.15,323.583 L 1975,323.488 L 1971.21,322.735 L 1967.65,321.258 L 1964.44,319.114 L 1961.71,316.386 L 1959.57,313.177 L 1958.09,309.612 L 1957.34,305.827 L 1957.24,299.959 L 1453.85,299.959 L 1451.28,304.063 L 1447,307.942 L 1441.78,310.412 L 1437.99,311.165 L 1377.62,311.26 L 1241.98,446.9 L 1241.98,545.945 L 1257.76,545.945 L 1257.76,537.677 L 1387.68,537.677 L 1387.68,585.709 L 1257.76,585.709 L 1257.76,577.441 L 1226.24,577.441 L 1223.16,577.138 L 1220.21,576.242 L 1217.49,574.787 L 1215.1,572.828 L 1213.14,570.442 L 1211.69,567.719 L 1210.79,564.765 L 1210.49,561.693 L 1210.49,440.377 L 1210.79,437.305 L 1211.69,434.35 L 1213.14,431.628 L 1215.1,429.241 L 1346.54,297.8 L 1345.89,295.415 L 1345.51,291.575 L 1345.61,238.464 L 1347.01,232.861 L 1349.98,227.906 L 1352.71,225.177 L 1355.92,223.033 L 1359.48,221.556 L 1363.27,220.803 L 1436.06,220.709 L 1439.9,221.087 L 1443.6,222.207 L 1447,224.026 L 1451.28,227.906 L 1453.42,231.114 L 1454.9,234.679 L 1455.75,240.394 L 1455.75,268.463 z " style="fill-opacity:1.000000;fill:rgb(251,50,175);stroke:rgb(0,0,0);stroke-width:2"/></g>
<g fill-rule="evenodd"><path d="M 1397.24,1809.05 L 1397.24,1797.24 L 1649.21,1797.24 L 1649.21,1852.36 L 1397.24,1852.36 L 1397.24,1840.55 L 1352.27,1840.55 L 1349.19,1840.25 L 1346.24,1839.35 L 1343.52,1837.9 L 1341.13,1835.94 L 1250.07,1744.88 L 626.22,1744.88 L 626.22,1752.76 L 452.992,1752.76 L 452.992,1705.51 L 626.22,1705.51 L 626.22,1713.38 L 1256.6,1713.38 L 1259.67,1713.69 L 1262.62,1714.58 L 1265.35,1716.04 L 1267.73,1718 L 1358.79,1809.05 L 1397.24,1809.05 z " style="fill-opacity:1.000000;fill:rgb(60,84,236);stroke:rgb(0,0,0);stroke-width:2"/></g>
<g fill-rule="evenodd"><path d="M 1397.24,1889.37 L 1397.24,1877.56 L 1649.21,1877.56 L 1649.21,1932.68 L 1397.24,1932.68 L 1397.24,1920.86 L 1365.72,1920.86 L 1362.65,1920.56 L 1359.7,1919.66 L 1356.98,1918.21 L 1354.59,1916.25 L 1294.5,1856.16 L 1288.57,1856.16 L 1283.41,1872.44 L 1275.18,1886.7 L 1264.17,1898.93 L 1250.85,1908.61 L 1235.81,1915.3 L 1219.71,1918.73 L 1203.25,1918.73 L 1187.15,1915.3 L 1172.11,1908.61 L 1158.79,1898.93 L 1147.78,1886.7 L 1139.55,1872.44 L 1134.46,1856.79 L 1132.74,1840.42 L 1134.46,1824.05 L 1139.55,1808.39 L 1147.78,1794.14 L 1158.79,1781.9 L 1172.11,1772.23 L 1187.15,1765.53 L 1203.25,1762.11 L 1219.71,1762.11 L 1235.81,1765.53 L 1250.85,1772.23 L 1264.17,1781.9 L 1275.18,1794.14 L 1283.41,1808.39 L 1288.57,1824.67 L 1301.02,1824.67 L 1304.09,1824.97 L 1307.05,1825.87 L 1309.77,1827.32 L 1312.16,1829.28 L 1372.25,1889.37 L 1397.24,1889.37 z " style="fill-opacity:1.000000;fill:rgb(24,219,92);stroke:rgb(0,0,0);stroke-width:2"/></g>
<g fill-rule="evenodd"><path d="M 1455.75,407.401 L 1489.11,407.401 L 1495.79,400.715 L 1495.98,382.564 L 1495.17,374.284 L 1492.88,366.744 L 1489.17,359.795 L 1485.17,354.593 L 1484.41,352.689 L 1484.06,350.671 L 1484.12,348.623 L 1484.6,346.631 L 1485.48,344.779 L 1486.71,343.144 L 1488.26,341.796 L 1490.04,340.79 L 1491.99,340.169 L 1494.03,339.959 L 1924.71,339.959 L 1928.17,340.577 L 1931.2,342.356 L 1934.59,346.238 L 1943.66,353.681 L 1946.13,355.216 L 1947.51,356.601 L 1949.36,360.043 L 1949.74,363.927 L 1949.36,365.851 L 1947.52,369.294 L 1946.13,370.681 L 1943.66,372.22 L 1934.59,379.666 L 1927.14,388.74 L 1921.61,399.093 L 1918.2,410.325 L 1917,422.497 L 1917,460.887 L 1918.54,476.354 L 1918.26,478.133 L 1916.78,481.401 L 1812.8,585.61 L 1810.33,587.704 L 1803.36,596.192 L 1798.18,605.876 L 1795,616.385 L 1793.92,627.315 L 1794.19,630.545 L 1794.19,680.757 L 1793.98,682.804 L 1793.35,684.765 L 1792.33,686.556 L 1790.97,688.101 L 1789.33,689.335 L 1787.46,690.206 L 1785.46,690.676 L 1783.4,690.726 L 1781.38,690.353 L 1768.14,686.114 L 1755.97,684.915 L 1528.6,684.915 L 1516.43,686.114 L 1505.19,689.521 L 1494.84,695.054 L 1485.77,702.5 L 1478.32,711.575 L 1472.79,721.927 L 1469.38,733.16 L 1468.18,745.332 L 1468.18,823.09 L 1469.38,835.262 L 1472.79,846.496 L 1478.17,856.906 L 1478.64,860.456 L 1478.39,862.236 L 1476.96,865.521 L 1465.65,882.448 L 1456.7,904.056 L 1452.14,926.998 L 1452.14,950.386 L 1453.41,956.749 L 1551.38,1054.72 L 1596.2,1054.72 L 1605.52,1052.87 L 1627.12,1043.92 L 1646.57,1030.92 L 1663.11,1014.38 L 1673.47,998.885 L 1676.23,996.126 L 1677.96,995.202 L 1681.78,994.441 L 1716.3,994.441 L 1719.53,994.711 L 1730.46,993.634 L 1740.96,990.445 L 1750.65,985.268 L 1759.14,978.301 L 1761.23,975.828 L 1887.07,849.986 L 1889.55,847.894 L 1896.51,839.404 L 1901.69,829.72 L 1904.88,819.211 L 1905.95,808.283 L 1905.68,805.053 L 1905.68,666.717 L 1905.89,664.686 L 1906.51,662.739 L 1907.51,660.959 L 1908.85,659.418 L 1910.47,658.182 L 1912.32,657.301 L 1914.3,656.813 L 1916.34,656.738 L 1918.35,657.079 L 1920.25,657.822 L 1921.97,658.936 L 1923.41,660.374 L 1928.82,666.964 L 1934.91,671.961 L 1941.86,675.675 L 1949.4,677.964 L 1957.73,678.784 L 2068.39,678.552 L 2075.04,671.901 L 2075.04,638.543 L 1975,638.449 L 1969.4,637.045 L 1965.99,635.226 L 1963.01,632.778 L 1960.56,629.795 L 1958.74,626.391 L 1957.34,620.788 L 1957.24,579.488 L 1958.09,573.774 L 1959.57,570.209 L 1963.01,565.569 L 1965.99,563.121 L 1971.21,560.651 L 1976.93,559.803 L 2213.15,559.803 L 2216.99,560.181 L 2220.68,561.302 L 2224.09,563.121 L 2227.07,565.569 L 2229.52,568.552 L 2231.34,571.955 L 2232.46,575.648 L 2232.82,579.173 L 2266.19,579.173 L 2272.89,572.471 L 2273.07,560.223 L 2272.25,551.961 L 2269.97,544.42 L 2266.25,537.471 L 2261.25,531.38 L 2255.16,526.382 L 2250.21,523.516 L 2248.82,522.13 L 2246.98,518.689 L 2246.6,516.767 L 2246.98,512.884 L 2248.82,509.442 L 2255.49,503.719 L 2262.93,494.644 L 2268.47,484.291 L 2271.88,473.059 L 2273.08,460.886 L 2273.08,422.497 L 2271.88,410.325 L 2268.47,399.093 L 2262.93,388.74 L 2255.49,379.666 L 2246.41,372.218 L 2243.94,370.678 L 2242.56,369.291 L 2241.47,367.661 L 2240.34,363.927 L 2240.72,360.044 L 2242.56,356.604 L 2243.95,355.218 L 2246.42,353.683 L 2255.49,346.238 L 2262.93,337.164 L 2268.47,326.811 L 2271.88,315.579 L 2273.08,303.406 L 2273.08,265.017 L 2271.88,252.845 L 2268.47,241.613 L 2262.94,231.26 L 2255.49,222.186 L 2246.42,214.74 L 2236.06,209.206 L 2224.83,205.798 L 2212.66,204.599 L 1977.42,204.599 L 1965.25,205.798 L 1954.01,209.206 L 1943.66,214.74 L 1934.59,222.187 L 1931.2,226.067 L 1929.76,227.091 L 1928.17,227.845 L 1924.71,228.463 L 1502.13,228.463 L 1498.57,227.806 L 1495.47,225.92 L 1494.23,224.588 L 1492.56,221.367 L 1491.38,217.479 L 1485.85,207.125 L 1482.14,202.309 L 1481.39,200.498 L 1481.01,196.615 L 1481.39,194.692 L 1483.23,191.251 L 1486.25,188.776 L 1488.06,188.025 L 1491.94,187.643 L 1495.68,188.776 L 1505.19,193.863 L 1516.43,197.27 L 1528.6,198.469 L 1755.96,198.469 L 1768.14,197.27 L 1779.37,193.863 L 1789.72,188.33 L 1798.8,180.884 L 1806.24,171.809 L 1811.78,161.457 L 1815.18,150.224 L 1816.38,138.052 L 1816.57,61.434 L 1817.14,59.5581 L 1819.31,56.3138 L 1820.83,55.0702 L 1824.43,53.5771 L 2292.34,53.3849 L 2302.92,54.5656 L 2309.68,56.8055 L 2315.88,60.3154 L 2319.89,63.5874 L 2324.57,68.9497 L 2328.13,75.1262 L 2330.81,83.779 L 2331.65,92.3489 L 2331.65,1103.11 L 2331.46,1105.06 L 2329.97,1108.66 L 2327.21,1111.42 L 2325.48,1112.35 L 2321.65,1113.11 L 2252.44,1112.92 L 2248.83,1111.42 L 2246.07,1108.66 L 2244.58,1105.05 L 2244.39,1103.1 L 2244.99,1099.09 L 2240.07,1090.47 L 2205.26,1090.47 L 2200.94,1100.16 L 2193.65,1110.2 L 2184.42,1118.5 L 2173.68,1124.71 L 2161.87,1128.55 L 2149.53,1129.84 L 2030.79,1129.84 L 2018.44,1128.55 L 2006.64,1124.71 L 1995.89,1118.5 L 1986.67,1110.2 L 1979.37,1100.16 L 1975.06,1090.47 L 1940.24,1090.47 L 1935.32,1099.09 L 1935.92,1103.1 L 1935.73,1105.05 L 1934.24,1108.66 L 1931.48,1111.42 L 1927.88,1112.92 L 1925.92,1113.11 L 1704.33,1112.92 L 1696.48,1113.69 L 1688.93,1115.98 L 1681.98,1119.7 L 1675.88,1124.7 L 1670.88,1130.8 L 1667.16,1137.75 L 1664.87,1145.3 L 1664.1,1153.15 L 1664.29,1345.93 L 1664.07,1348 L 1663.43,1349.98 L 1662.39,1351.78 L 1661.01,1353.34 L 1659.33,1354.57 L 1657.43,1355.42 L 1655.39,1355.87 L 1648.72,1355.43 L 1397.73,1355.43 L 1389.4,1356.25 L 1384.31,1357.62 L 1382.51,1357.67 L 1380.74,1357.39 L 1377.48,1355.91 L 1028.91,1007.58 L 1026.82,1005.1 L 1018.33,998.138 L 1008.65,992.963 L 998.139,989.774 L 987.211,988.697 L 977.454,988.967 L 975.503,988.775 L 971.898,987.282 L 927.365,943.02 L 925.197,939.776 L 924.436,935.949 L 924.628,933.998 L 926.121,930.393 L 928.88,927.634 L 932.485,926.141 L 973.014,925.949 L 981.344,925.129 L 988.885,922.841 L 995.834,919.128 L 1001.92,914.13 L 1006.92,908.039 L 1010.64,901.09 L 1012.92,893.549 L 1013.74,885.216 L 1013.74,838.168 L 1012.92,829.835 L 1010.64,822.295 L 1006.74,814.597 L 1006.36,810.713 L 1007.49,806.979 L 1010.64,801.089 L 1012.92,793.549 L 1013.74,785.216 L 1013.74,738.168 L 1012.69,728.319 L 1012.72,726.25 L 1013.18,724.231 L 1014.04,722.35 L 1015.27,720.687 L 1016.82,719.314 L 1018.62,718.288 L 1020.59,717.655 L 1022.65,717.441 L 1160.49,717.441 L 1162.44,717.633 L 1166.04,719.126 L 1168.8,721.885 L 1170.3,725.49 L 1170.49,758.463 L 1170.22,761.693 L 1171.29,772.621 L 1174.48,783.129 L 1179.66,792.814 L 1186.63,801.302 L 1195.11,808.268 L 1204.8,813.445 L 1213.99,816.434 L 1217,818.909 L 1218.09,820.54 L 1219.23,824.274 L 1219.23,826.235 L 1218.33,829.836 L 1217.81,835.111 L 1224.4,841.693 L 1257.76,841.693 L 1257.76,837.677 L 1387.68,837.677 L 1387.68,841.693 L 1398.88,841.693 L 1404.92,835.65 L 1404.92,472.677 L 1363.27,472.582 L 1359.48,471.83 L 1355.92,470.353 L 1352.71,468.209 L 1349.98,465.48 L 1347.01,460.525 L 1345.61,454.922 L 1345.61,399.881 L 1347.01,394.278 L 1349.98,389.323 L 1354.26,385.443 L 1357.66,383.624 L 1361.36,382.504 L 1365.2,382.126 L 1437.99,382.221 L 1441.78,382.974 L 1447,385.443 L 1449.98,387.892 L 1452.43,390.875 L 1454.25,394.278 L 1455.37,397.971 L 1455.75,401.811 L 1455.75,407.401M 1416.9,913.156 L 1421.1,908.038 L 1424.81,901.09 L 1427.1,893.549 L 1427.62,888.275 L 1421.03,881.693 L 1416.9,881.693 L 1416.9,913.156M 1455.75,447.401 L 1455.75,452.992 L 1455.37,456.833 L 1454.25,460.525 L 1451.28,465.48 L 1448.55,468.209 L 1445.34,470.353 L 1441.78,471.83 L 1436.42,472.66 L 1436.42,512.774 L 1455.29,512.915 L 1463.59,512.098 L 1471.13,509.809 L 1478.08,506.096 L 1484.17,501.097 L 1489.17,495.007 L 1492.88,488.057 L 1495.17,480.516 L 1495.98,472.239 L 1495.79,454.087 L 1489.11,447.401 L 1455.75,447.401M 1302.72,885.709 L 1257.76,885.709 L 1257.76,881.693 L 1224.4,881.693 L 1217.81,888.274 L 1218.33,893.549 L 1220.62,901.09 L 1224.33,908.038 L 1229.33,914.13 L 1235.42,919.128 L 1242.37,922.841 L 1249.91,925.129 L 1258.22,925.946 L 1296.05,925.731 L 1302.72,919.065 L 1302.72,885.709M 1385.4,885.709 L 1342.72,885.709 L 1342.72,919.065 L 1349.38,925.73 L 1385.4,925.936 L 1385.4,885.709M 2205.25,1050.47 L 2240.07,1050.47 L 2245,1041.85 L 2244.79,1040.81 L 2237.19,1022.82 L 2226.21,1006.64 L 2212.28,992.901 L 2195.95,982.148 L 2177.82,974.789 L 2158.58,971.101 L 2110.79,971.101 L 2110.79,990.463 L 2110.48,993.535 L 2109.59,996.489 L 2108.13,999.212 L 2106.17,1001.6 L 2096.67,1011.1 L 2149.53,1011.1 L 2161.87,1012.4 L 2173.68,1016.24 L 2184.42,1022.44 L 2193.65,1030.75 L 2200.94,1040.79 L 2205.25,1050.47M 1975.06,1050.47 L 1979.37,1040.79 L 1986.67,1030.75 L 1995.89,1022.44 L 2006.64,1016.24 L 2018.44,1012.4 L 2030.79,1011.1 L 2052.13,1011.1 L 2079.29,983.94 L 2079.29,971.101 L 2021.74,971.101 L 2002.49,974.789 L 1984.37,982.148 L 1968.03,992.901 L 1954.1,1006.64 L 1943.12,1022.82 L 1935.52,1040.81 L 1935.32,1041.84 L 1940.24,1050.47 L 1975.06,1050.47M 2115.04,638.543 L 2115.04,671.901 L 2121.69,678.552 L 2232.35,678.784 L 2240.67,677.964 L 2248.21,675.676 L 2255.16,671.962 L 2261.25,666.964 L 2266.25,660.872 L 2269.97,653.923 L 2272.25,646.385 L 2273.07,638.123 L 2272.89,625.874 L 2266.19,619.173 L 2232.82,619.173 L 2232.46,622.699 L 2231.34,626.391 L 2228.37,631.346 L 2224.09,635.226 L 2220.68,637.045 L 2216.99,638.165 L 2213.15,638.543 L 2115.04,638.543 z " style="fill-opacity:1.000000;fill:rgb(2,26,254);stroke:rgb(0,0,0);stroke-width:2"/></g>
<g fill-rule="evenodd"><path d="M 2018.46,481.063 L 1865.68,633.838 L 1865.68,808.283 L 1865.38,811.355 L 1864.49,814.309 L 1863.03,817.032 L 1861.07,819.418 L 1730.66,949.828 L 1728.28,951.787 L 1725.55,953.242 L 1722.6,954.138 L 1719.53,954.441 L 1647.97,954.441 L 1642.81,970.719 L 1634.58,984.975 L 1623.57,997.208 L 1610.25,1006.88 L 1595.21,1013.58 L 1579.11,1017 L 1562.65,1017 L 1546.55,1013.58 L 1531.51,1006.88 L 1518.19,997.208 L 1507.18,984.975 L 1498.95,970.719 L 1493.86,955.064 L 1492.14,938.693 L 1493.86,922.322 L 1498.95,906.666 L 1507.18,892.411 L 1518.19,880.178 L 1531.51,870.502 L 1546.55,863.807 L 1562.65,860.384 L 1579.11,860.384 L 1595.21,863.807 L 1610.25,870.502 L 1623.57,880.178 L 1634.58,892.411 L 1642.81,906.666 L 1647.97,922.945 L 1713,922.945 L 1834.19,801.76 L 1834.19,627.315 L 1834.49,624.243 L 1835.39,621.288 L 1836.84,618.566 L 1838.8,616.179 L 1974.14,480.841 L 1971.21,480.215 L 1967.65,478.739 L 1963.01,475.297 L 1960.56,472.314 L 1958.74,468.911 L 1957.34,463.307 L 1957.34,420.078 L 1958.09,416.294 L 1959.57,412.728 L 1961.71,409.52 L 1964.44,406.791 L 1969.4,403.821 L 1973.09,402.701 L 1976.93,402.323 L 2213.15,402.323 L 2216.99,402.701 L 2220.68,403.821 L 2225.64,406.791 L 2229.52,411.071 L 2231.99,416.294 L 2232.83,422.008 L 2232.83,461.378 L 2232.46,465.218 L 2230.51,470.657 L 2227.07,475.297 L 2224.09,477.745 L 2218.86,480.215 L 2213.15,481.063 L 2018.46,481.063 z " style="fill-opacity:1.000000;fill:rgb(67,251,250);stroke:rgb(0,0,0);stroke-width:2"/></g>
<g fill-rule="evenodd"><path d="M 1397.24,1407.48 L 1397.24,1395.67 L 1649.21,1395.67 L 1649.21,1450.79 L 1397.24,1450.79 L 1397.24,1438.98 L 1365.72,1438.97 L 1362.65,1438.67 L 1359.7,1437.78 L 1356.97,1436.32 L 1354.59,1434.36 L 980.689,1060.46 L 950.22,1060.46 L 947.148,1060.16 L 944.193,1059.26 L 941.471,1057.81 L 939.084,1055.85 L 683.231,799.999 L 626.24,799.999 L 626.22,807.894 L 452.988,807.894 L 452.975,760.619 L 626.22,760.61 L 626.24,768.503 L 689.754,768.503 L 692.826,768.805 L 695.78,769.702 L 698.503,771.157 L 700.889,773.115 L 956.743,1028.97 L 987.212,1028.97 L 990.284,1029.27 L 993.238,1030.17 L 995.961,1031.62 L 998.347,1033.58 L 1372.25,1407.48 L 1397.24,1407.48 z " style="fill-opacity:1.000000;fill:rgb(170,58,251);stroke:rgb(0,0,0);stroke-width:2"/></g>
<g fill-rule="evenodd"><path d="M 1397.24,1487.8 L 1397.24,1475.98 L 1649.21,1475.98 L 1649.21,1531.1 L 1397.24,1531.1 L 1397.24,1519.29 L 1365.72,1519.29 L 1362.65,1518.99 L 1359.7,1518.09 L 1356.97,1516.64 L 1354.59,1514.68 L 947.641,1107.73 L 930.644,1107.73 L 927.572,1107.43 L 924.617,1106.53 L 921.895,1105.08 L 919.508,1103.12 L 695.129,878.739 L 626.22,878.739 L 626.22,886.614 L 452.992,886.614 L 452.992,839.37 L 626.22,839.37 L 626.22,847.243 L 701.652,847.243 L 704.724,847.545 L 707.678,848.442 L 710.401,849.897 L 712.787,851.855 L 937.167,1076.23 L 954.164,1076.23 L 957.236,1076.54 L 960.19,1077.43 L 962.913,1078.89 L 965.299,1080.85 L 1372.25,1487.79 L 1397.24,1487.8 z " style="fill-opacity:1.000000;fill:rgb(41,209,230);stroke:rgb(0,0,0);stroke-width:2"/></g>
<g fill-rule="evenodd"><path d="M 1397.24,1568.11 L 1397.24,1556.3 L 1649.21,1556.3 L 1649.21,1611.42 L 1397.24,1611.42 L 1397.24,1599.6 L 1365.72,1599.6 L 1362.65,1599.3 L 1359.7,1598.41 L 1356.97,1596.95 L 1354.59,1594.99 L 953.295,1193.7 L 626.22,1193.7 L 626.22,1201.57 L 452.992,1201.57 L 452.992,1154.33 L 626.22,1154.33 L 626.22,1162.2 L 959.818,1162.2 L 962.89,1162.51 L 965.844,1163.4 L 968.567,1164.86 L 970.953,1166.82 L 1372.25,1568.11 L 1397.24,1568.11 z " style="fill-opacity:1.000000;fill:rgb(5,60,124);stroke:rgb(0,0,0);stroke-width:2"/></g>
<g fill-rule="evenodd"><path d="M 1397.24,1648.43 L 1397.24,1636.61 L 1649.21,1636.61 L 1649.21,1691.73 L 1397.24,1691.73 L 1397.24,1679.92 L 1359.44,1679.92 L 1356.37,1679.62 L 1353.41,1678.72 L 1350.69,1677.27 L 1348.3,1675.31 L 945.437,1272.44 L 626.22,1272.44 L 626.22,1280.31 L 452.992,1280.31 L 452.992,1233.07 L 626.22,1233.07 L 626.22,1240.94 L 951.96,1240.94 L 955.032,1241.25 L 957.986,1242.14 L 960.709,1243.6 L 963.095,1245.56 L 1365.96,1648.42 L 1397.24,1648.43 z " style="fill-opacity:1.000000;fill:rgb(148,117,216);stroke:rgb(0,0,0);stroke-width:2"/></g>
<g fill-rule="evenodd"><path d="M 1397.24,1728.74 L 1397.24,1716.93 L 1649.21,1716.93 L 1649.21,1772.05 L 1397.24,1772.05 L 1397.24,1760.24 L 1365.72,1760.23 L 1362.65,1759.93 L 1359.7,1759.04 L 1356.97,1757.58 L 1354.59,1755.62 L 1278.18,1679.22 L 670.818,1679.22 L 667.746,1678.92 L 664.791,1678.02 L 662.069,1676.56 L 659.682,1674.61 L 651.217,1666.14 L 626.22,1666.14 L 626.22,1674.02 L 452.992,1674.02 L 452.992,1626.77 L 626.22,1626.77 L 626.22,1634.64 L 657.74,1634.64 L 660.812,1634.95 L 663.766,1635.84 L 666.489,1637.3 L 668.875,1639.26 L 677.341,1647.72 L 1284.71,1647.72 L 1287.78,1648.03 L 1290.73,1648.92 L 1293.46,1650.38 L 1295.84,1652.34 L 1372.25,1728.74 L 1397.24,1728.74 z " style="fill-opacity:1.000000;fill:rgb(190,97,137);stroke:rgb(0,0,0);stroke-width:2"/></g>
</svg>
