<?xml version="1.0" standalone="no"?>
<!DOCTYPE svg PUBLIC "-//W3C//DTD SVG 1.1//EN"
"http://www.w3.org/Graphics/SVG/1.1/DTD/svg11.dtd">
<svg width="114.482" height="190.072" viewBox="0 0 2385.04 3959.84" version="1.1"
xmlns="http://www.w3.org/2000/svg"
xmlns:xlink="http://www.w3.org/1999/xlink">
<g fill-rule="evenodd"><path d="M 11.4159,3869.68 L 11.4159,90.1569 L 12.9299,74.7949 L 17.4099,60.0249 L 24.6859,46.4109 L 34.4779,34.4789 L 46.4099,24.6869 L 60.0239,17.4109 L 74.7959,12.9289 L 90.1559,11.4169 L 2294.88,11.4169 L 2310.24,12.9289 L 2325.01,17.4109 L 2338.63,24.6869 L 2350.56,34.4789 L 2360.35,46.4109 L 2367.63,60.0249 L 2372.11,74.7949 L 2373.62,90.1569 L 2373.62,3869.68 L 2372.11,3885.04 L 2367.63,3899.82 L 2360.35,3913.43 L 2350.56,3925.36 L 2338.63,3935.15 L 2325.01,3942.43 L 2310.24,3946.91 L 2294.88,3948.42 L 90.1559,3948.42 L 74.7959,3946.91 L 60.0239,3942.43 L 46.4099,3935.15 L 34.4779,3925.36 L 24.6859,3913.43 L 17.4099,3899.82 L 12.9299,3885.04 L 11.4159,3869.68M 1704.33,3712.2 L 2365.75,3712.2 L 2365.75,2609.84 L 1704.33,2609.84 L 1704.33,3712.2M 1704.33,2255.51 L 2365.75,2255.51 L 2365.75,1153.15 L 1704.33,1153.15 L 1704.33,2255.51M 368.533,2446.3 L 291.762,2446.3 L 290.37,2446.88 L 289.793,2448.27 L 289.944,2449.02 L 290.67,2449.9 L 301.756,2457.29 L 308.892,2464.43 L 312.497,2471.64 L 313.007,2472.28 L 314.14,2472.73 L 315.639,2472.17 L 316.09,2471.48 L 316.163,2470.27 L 312.107,2462.11 L 304.402,2454.37 L 298.264,2450.24 L 368.533,2450.24 L 368.533,2470.76 L 369.185,2472.23 L 370.708,2472.72 L 371.819,2472.23 L 372.47,2470.76 L 372.47,2425.77 L 372.094,2424.61 L 370.708,2423.81 L 369.185,2424.31 L 368.533,2425.77 L 368.533,2446.3M 368.533,656.299 L 291.762,656.298 L 290.37,656.875 L 289.793,658.268 L 289.944,659.022 L 290.67,659.905 L 301.756,667.295 L 308.892,674.431 L 312.497,681.643 L 313.007,682.283 L 314.14,682.728 L 315.639,682.166 L 316.09,681.482 L 316.163,680.268 L 312.107,672.114 L 304.402,664.373 L 298.264,660.235 L 368.533,660.235 L 368.533,680.763 L 369.185,682.226 L 370.708,682.721 L 371.819,682.226 L 372.47,680.763 L 372.47,635.769 L 372.094,634.612 L 370.708,633.811 L 369.185,634.306 L 368.533,635.769 L 368.533,656.299 z " style="fill-opacity:1.000000;fill:rgb(103,198,105);stroke:rgb(0,0,0);stroke-width:2"/></g>
</svg>
