<?xml version="1.0" standalone="no"?>
<!DOCTYPE svg PUBLIC "-//W3C//DTD SVG 1.1//EN"
"http://www.w3.org/Graphics/SVG/1.1/DTD/svg11.dtd">
<svg width="114.482" height="190.072" viewBox="0 0 2385.04 3959.84" version="1.1"
xmlns="http://www.w3.org/2000/svg"
xmlns:xlink="http://www.w3.org/1999/xlink">
<g fill-rule="evenodd"><path d="M -4.54747e-13,3959.84 L -4.54747e-13,4.54747e-13 L 2385.04,4.54747e-13 L 2385.04,3959.84 L -4.54747e-13,3959.84 z " style="fill-opacity:0.200000;fill:rgb(103,198,105);"/></g>
<polyline points="6.68992,3869.68 6.68992,90.1569 6.71392,89.6929 8.22792,74.3309 8.40792,73.4229 12.8879,58.6529 13.2419,57.7969 20.5179,44.1829 21.0319,43.4129 30.8239,31.4809 31.4799,30.8249 43.4119,21.0329 44.1819,20.5189 57.7959,13.2429 58.6519,12.8889 73.4239,8.40691 74.3319,8.22691 89.6919,6.71491 90.1559,6.69091 2294.88,6.69091 2295.34,6.71491 2310.7,8.22691 2311.61,8.40691 2326.38,12.8889 2327.24,13.2429 2340.85,20.5189 2341.62,21.0329 2353.55,30.8249 2354.21,31.4809 2364,43.4129 2364.52,44.1829 2371.79,57.7969 2372.15,58.6529 2376.63,73.4229 2376.81,74.3309 2378.32,89.6929 2378.35,90.1569 2378.35,3869.68 2378.32,3870.15 2376.81,3885.51 2376.63,3886.41 2372.15,3901.19 2371.79,3902.04 2364.52,3915.65 2364,3916.42 2354.21,3928.36 2353.55,3929.01 2341.62,3938.8 2340.85,3939.32 2327.24,3946.6 2326.38,3946.95 2311.61,3951.43 2310.7,3951.61 2295.34,3953.12 2294.88,3953.15 90.1559,3953.15 89.6919,3953.12 74.3319,3951.61 73.4239,3951.43 58.6519,3946.95 57.7959,3946.6 44.1819,3939.32 43.4119,3938.8 31.4799,3929.01 30.8239,3928.36 21.0319,3916.42 20.5179,3915.65 13.2419,3902.04 12.8879,3901.19 8.40792,3886.41 8.22792,3885.51 6.71392,3870.15 6.68992,3869.68" style="stroke:rgb(103,198,105);stroke-width:9.448819;fill:none;stroke-opacity:0.5;stroke-linecap:round;stroke-linejoin:round;;fill:none"/>
<polyline points="6.68992,3869.68 6.68992,90.1569 6.71392,89.6929 8.22792,74.3309 8.40792,73.4229 12.8879,58.6529 13.2419,57.7969 20.5179,44.1829 21.0319,43.4129 30.8239,31.4809 31.4799,30.8249 43.4119,21.0329 44.1819,20.5189 57.7959,13.2429 58.6519,12.8889 73.4239,8.40691 74.3319,8.22691 89.6919,6.71491 90.1559,6.69091 2294.88,6.69091 2295.34,6.71491 2310.7,8.22691 2311.61,8.40691 2326.38,12.8889 2327.24,13.2429 2340.85,20.5189 2341.62,21.0329 2353.55,30.8249 2354.21,31.4809 2364,43.4129 2364.52,44.1829 2371.79,57.7969 2372.15,58.6529 2376.63,73.4229 2376.81,74.3309 2378.32,89.6929 2378.35,90.1569 2378.35,3869.68 2378.32,3870.15 2376.81,3885.51 2376.63,3886.41 2372.15,3901.19 2371.79,3902.04 2364.52,3915.65 2364,3916.42 2354.21,3928.36 2353.55,3929.01 2341.62,3938.8 2340.85,3939.32 2327.24,3946.6 2326.38,3946.95 2311.61,3951.43 2310.7,3951.61 2295.34,3953.12 2294.88,3953.15 90.1559,3953.15 89.6919,3953.12 74.3319,3951.61 73.4239,3951.43 58.6519,3946.95 57.7959,3946.6 44.1819,3939.32 43.4119,3938.8 31.4799,3929.01 30.8239,3928.36 21.0319,3916.42 20.5179,3915.65 13.2419,3902.04 12.8879,3901.19 8.40792,3886.41 8.22792,3885.51 6.71392,3870.15 6.68992,3869.68" style="stroke:rgb(0,0,0);stroke-width:1px;fill:none;stroke-opacity:1;stroke-linecap:round;stroke-linejoin:round;;fill:none"/>
<polyline points="1709.05,2250.78 1709.05,1157.87 2361.02,1157.87 2361.02,2250.78 1709.05,2250.78" style="stroke:rgb(103,198,105);stroke-width:9.448819;fill:none;stroke-opacity:0.5;stroke-linecap:round;stroke-linejoin:round;;fill:none"/>
<polyline points="1709.05,2250.78 1709.05,1157.87 2361.02,1157.87 2361.02,2250.78 1709.05,2250.78" style="stroke:rgb(0,0,0);stroke-width:1px;fill:none;stroke-opacity:1;stroke-linecap:round;stroke-linejoin:round;;fill:none"/>
<polyline points="1709.05,3707.48 1709.05,2614.56 2361.02,2614.56 2361.02,3707.48 1709.05,3707.48" style="stroke:rgb(103,198,105);stroke-width:9.448819;fill:none;stroke-opacity:0.5;stroke-linecap:round;stroke-linejoin:round;;fill:none"/>
<polyline points="1709.05,3707.48 1709.05,2614.56 2361.02,2614.56 2361.02,3707.48 1709.05,3707.48" style="stroke:rgb(0,0,0);stroke-width:1px;fill:none;stroke-opacity:1;stroke-linecap:round;stroke-linejoin:round;;fill:none"/>
<g fill-rule="evenodd"><path d="M 11.4159,3869.68 L 11.4159,90.1569 L 12.9299,74.7949 L 17.4099,60.0249 L 24.6859,46.4109 L 34.4779,34.4789 L 46.4099,24.6869 L 60.0239,17.4109 L 74.7959,12.9289 L 90.1559,11.4169 L 2294.88,11.4169 L 2310.24,12.9289 L 2325.01,17.4109 L 2338.63,24.6869 L 2350.56,34.4789 L 2360.35,46.4109 L 2367.63,60.0249 L 2372.11,74.7949 L 2373.62,90.1569 L 2373.62,3869.68 L 2372.11,3885.04 L 2367.63,3899.82 L 2360.35,3913.43 L 2350.56,3925.36 L 2338.63,3935.15 L 2325.01,3942.43 L 2310.24,3946.91 L 2294.88,3948.42 L 90.1559,3948.42 L 74.7959,3946.91 L 60.0239,3942.43 L 46.4099,3935.15 L 34.4779,3925.36 L 24.6859,3913.43 L 17.4099,3899.82 L 12.9299,3885.04 L 11.4159,3869.68M 1704.33,3712.2 L 2365.75,3712.2 L 2365.75,2609.84 L 1704.33,2609.84 L 1704.33,3712.2M 1704.33,2255.51 L 2365.75,2255.51 L 2365.75,1153.15 L 1704.33,1153.15 L 1704.33,2255.51M 368.533,2446.3 L 291.762,2446.3 L 290.37,2446.88 L 289.793,2448.27 L 289.944,2449.02 L 290.67,2449.9 L 301.756,2457.29 L 308.892,2464.43 L 312.497,2471.64 L 313.007,2472.28 L 314.14,2472.73 L 315.639,2472.17 L 316.09,2471.48 L 316.163,2470.27 L 312.107,2462.11 L 304.402,2454.37 L 298.264,2450.24 L 368.533,2450.24 L 368.533,2470.76 L 369.185,2472.23 L 370.708,2472.72 L 371.819,2472.23 L 372.47,2470.76 L 372.47,2425.77 L 372.094,2424.61 L 370.708,2423.81 L 369.185,2424.31 L 368.533,2425.77 L 368.533,2446.3M 368.533,656.299 L 291.762,656.298 L 290.37,656.875 L 289.793,658.268 L 289.944,659.022 L 290.67,659.905 L 301.756,667.295 L 308.892,674.431 L 312.497,681.643 L 313.007,682.283 L 314.14,682.728 L 315.639,682.166 L 316.09,681.482 L 316.163,680.268 L 312.107,672.114 L 304.402,664.373 L 298.264,660.235 L 368.533,660.235 L 368.533,680.763 L 369.185,682.226 L 370.708,682.721 L 371.819,682.226 L 372.47,680.763 L 372.47,635.769 L 372.094,634.612 L 370.708,633.811 L 369.185,634.306 L 368.533,635.769 L 368.533,656.299 z " style="fill-opacity:1.000000;fill:rgb(103,198,105);stroke:rgb(0,0,0);stroke-width:2"/></g>
</svg>
