<?xml version="1.0" standalone="no"?>
<!DOCTYPE svg PUBLIC "-//W3C//DTD SVG 1.1//EN"
"http://www.w3.org/Graphics/SVG/1.1/DTD/svg11.dtd">
<svg width="114.482" height="190.072" viewBox="0 0 2385.04 3959.84" version="1.1"
xmlns="http://www.w3.org/2000/svg"
xmlns:xlink="http://www.w3.org/1999/xlink">
<polyline points="1503.7,138.537 1505.6,147.991 1509.72,154.531 1515.15,159.181 1521.02,161.901 1527.42,162.901 1756.46,162.951 1765.36,161.249 1775.4,153.937 1779.01,147.883 1780.73,141.053 1780.87,59.8069 1779.16,50.8969 1776.48,45.8689 1770.39,39.7829 1765.69,37.2069 1758.39,35.4869 1528.11,35.3929 1519.2,37.0949 1509.17,44.4069 1505.56,50.4609 1503.83,57.2909 1503.7,138.537" style="stroke:rgb(103,198,105);stroke-width:9.448819;fill:none;stroke-opacity:0.5;stroke-linecap:round;stroke-linejoin:round;;fill:none"/>
<polyline points="1503.7,138.537 1505.6,147.991 1509.72,154.531 1515.15,159.181 1521.02,161.901 1527.42,162.901 1756.46,162.951 1765.36,161.249 1775.4,153.937 1779.01,147.883 1780.73,141.053 1780.87,59.8069 1779.16,50.8969 1776.48,45.8689 1770.39,39.7829 1765.69,37.2069 1758.39,35.4869 1528.11,35.3929 1519.2,37.0949 1509.17,44.4069 1505.56,50.4609 1503.83,57.2909 1503.7,138.537" style="stroke:rgb(0,0,0);stroke-width:1px;fill:none;stroke-opacity:1;stroke-linecap:round;stroke-linejoin:round;;fill:none"/>
<polyline points="1503.7,823.577 1505.6,833.029 1509.72,839.571 1515.15,844.221 1521.02,846.941 1527.42,847.941 1756.46,847.991 1765.36,846.289 1775.4,838.977 1779.01,832.923 1780.73,826.093 1780.87,744.847 1779.16,735.937 1776.48,730.909 1770.39,724.823 1765.69,722.247 1758.39,720.527 1528.11,720.433 1519.2,722.135 1509.17,729.447 1505.56,735.501 1503.83,742.331 1503.7,823.577" style="stroke:rgb(115,81,255);stroke-width:9.448819;fill:none;stroke-opacity:0.5;stroke-linecap:round;stroke-linejoin:round;;fill:none"/>
<polyline points="1503.7,823.577 1505.6,833.029 1509.72,839.571 1515.15,844.221 1521.02,846.941 1527.42,847.941 1756.46,847.991 1765.36,846.289 1775.4,838.977 1779.01,832.923 1780.73,826.093 1780.87,744.847 1779.16,735.937 1776.48,730.909 1770.39,724.823 1765.69,722.247 1758.39,720.527 1528.11,720.433 1519.2,722.135 1509.17,729.447 1505.56,735.501 1503.83,742.331 1503.7,823.577" style="stroke:rgb(0,0,0);stroke-width:1px;fill:none;stroke-opacity:1;stroke-linecap:round;stroke-linejoin:round;;fill:none"/>
<polyline points="838.858,885.707 838.858,837.677 839.654,835.051 841.774,833.311 973.504,832.951 976.128,833.749 977.868,835.869 978.228,885.707 977.432,888.333 975.31,890.073 843.582,890.433 840.242,889.049 838.858,885.707" style="stroke:rgb(74,236,41);stroke-width:9.448819;fill:none;stroke-opacity:0.5;stroke-linecap:round;stroke-linejoin:round;;fill:none"/>
<polyline points="838.858,885.707 838.858,837.677 839.654,835.051 841.774,833.311 973.504,832.951 976.128,833.749 977.868,835.869 978.228,885.707 977.432,888.333 975.31,890.073 843.582,890.433 840.242,889.049 838.858,885.707" style="stroke:rgb(0,0,0);stroke-width:1px;fill:none;stroke-opacity:1;stroke-linecap:round;stroke-linejoin:round;;fill:none"/>
<polyline points="838.858,585.707 838.858,537.677 839.654,535.051 841.774,533.311 973.504,532.951 976.128,533.749 977.868,535.869 978.228,585.707 977.432,588.333 975.31,590.073 843.582,590.433 840.242,589.049 838.858,585.707" style="stroke:rgb(205,186,171);stroke-width:9.448819;fill:none;stroke-opacity:0.5;stroke-linecap:round;stroke-linejoin:round;;fill:none"/>
<polyline points="838.858,585.707 838.858,537.677 839.654,535.051 841.774,533.311 973.504,532.951 976.128,533.749 977.868,535.869 978.228,585.707 977.432,588.333 975.31,590.073 843.582,590.433 840.242,589.049 838.858,585.707" style="stroke:rgb(0,0,0);stroke-width:1px;fill:none;stroke-opacity:1;stroke-linecap:round;stroke-linejoin:round;;fill:none"/>
<polyline points="448.266,965.353 448.266,918.109 449.65,914.769 452.07,913.475 626.22,913.385 628.844,914.181 630.854,917.187 630.944,965.353 630.148,967.979 627.142,969.987 452.992,970.077 449.65,968.695 448.266,965.353" style="stroke:rgb(242,251,227);stroke-width:9.448819;fill:none;stroke-opacity:0.5;stroke-linecap:round;stroke-linejoin:round;;fill:none"/>
<polyline points="448.266,965.353 448.266,918.109 449.65,914.769 452.07,913.475 626.22,913.385 628.844,914.181 630.854,917.187 630.944,965.353 630.148,967.979 627.142,969.987 452.992,970.077 449.65,968.695 448.266,965.353" style="stroke:rgb(0,0,0);stroke-width:1px;fill:none;stroke-opacity:1;stroke-linecap:round;stroke-linejoin:round;;fill:none"/>
<polyline points="243.522,2083.46 243.532,1941.71 245.632,1937.79 453.008,1936.99 456.936,1939.09 457.726,2083.48 455.626,2087.41 248.246,2088.19 244.906,2086.8 243.522,2083.46" style="stroke:rgb(70,124,194);stroke-width:9.448819;fill:none;stroke-opacity:0.5;stroke-linecap:round;stroke-linejoin:round;;fill:none"/>
<polyline points="243.522,2083.46 243.532,1941.71 245.632,1937.79 453.008,1936.99 456.936,1939.09 457.726,2083.48 455.626,2087.41 248.246,2088.19 244.906,2086.8 243.522,2083.46" style="stroke:rgb(0,0,0);stroke-width:1px;fill:none;stroke-opacity:1;stroke-linecap:round;stroke-linejoin:round;;fill:none"/>
<polyline points="243.522,571.653 243.532,429.903 245.632,425.975 453.008,425.185 456.936,427.285 457.726,571.669 455.626,575.597 248.246,576.377 244.906,574.993 243.522,571.653" style="stroke:rgb(84,248,27);stroke-width:9.448819;fill:none;stroke-opacity:0.5;stroke-linecap:round;stroke-linejoin:round;;fill:none"/>
<polyline points="243.522,571.653 243.532,429.903 245.632,425.975 453.008,425.185 456.936,427.285 457.726,571.669 455.626,575.597 248.246,576.377 244.906,574.993 243.522,571.653" style="stroke:rgb(0,0,0);stroke-width:1px;fill:none;stroke-opacity:1;stroke-linecap:round;stroke-linejoin:round;;fill:none"/>
<polyline points="243.522,2361.65 243.532,2219.9 245.632,2215.97 453.008,2215.18 456.936,2217.28 457.726,2361.67 455.626,2365.6 248.246,2366.38 244.906,2364.99 243.522,2361.65" style="stroke:rgb(232,231,141);stroke-width:9.448819;fill:none;stroke-opacity:0.5;stroke-linecap:round;stroke-linejoin:round;;fill:none"/>
<polyline points="243.522,2361.65 243.532,2219.9 245.632,2215.97 453.008,2215.18 456.936,2217.28 457.726,2361.67 455.626,2365.6 248.246,2366.38 244.906,2364.99 243.522,2361.65" style="stroke:rgb(0,0,0);stroke-width:1px;fill:none;stroke-opacity:1;stroke-linecap:round;stroke-linejoin:round;;fill:none"/>
<polyline points="243.522,3873.46 243.532,3731.71 245.632,3727.79 453.008,3726.99 456.936,3729.09 457.726,3873.48 455.626,3877.41 248.246,3878.19 244.906,3876.8 243.522,3873.46" style="stroke:rgb(118,90,46);stroke-width:9.448819;fill:none;stroke-opacity:0.5;stroke-linecap:round;stroke-linejoin:round;;fill:none"/>
<polyline points="243.522,3873.46 243.532,3731.71 245.632,3727.79 453.008,3726.99 456.936,3729.09 457.726,3873.48 455.626,3877.41 248.246,3878.19 244.906,3876.8 243.522,3873.46" style="stroke:rgb(0,0,0);stroke-width:1px;fill:none;stroke-opacity:1;stroke-linecap:round;stroke-linejoin:round;;fill:none"/>
<polyline points="448.266,2755.35 448.266,2708.11 449.65,2704.77 452.07,2703.47 626.22,2703.38 628.844,2704.18 630.854,2707.19 630.944,2755.35 630.148,2757.98 627.142,2759.99 452.992,2760.08 449.65,2758.69 448.266,2755.35" style="stroke:rgb(99,51,159);stroke-width:9.448819;fill:none;stroke-opacity:0.5;stroke-linecap:round;stroke-linejoin:round;;fill:none"/>
<polyline points="448.266,2755.35 448.266,2708.11 449.65,2704.77 452.07,2703.47 626.22,2703.38 628.844,2704.18 630.854,2707.19 630.944,2755.35 630.148,2757.98 627.142,2759.99 452.992,2760.08 449.65,2758.69 448.266,2755.35" style="stroke:rgb(0,0,0);stroke-width:1px;fill:none;stroke-opacity:1;stroke-linecap:round;stroke-linejoin:round;;fill:none"/>
<polyline points="448.266,2834.09 448.266,2786.85 449.064,2784.22 451.184,2782.48 626.22,2782.12 630.148,2784.22 630.944,2790 641.414,2790 645.704,2776.54 654.166,2761.83 666.112,2748.44 679.812,2738.46 695.706,2731.27 713.73,2727.44 731.172,2727.54 747.752,2731.09 763.252,2737.96 777.808,2748.44 789.484,2761.41 798.208,2776.52 803.472,2792.64 805.398,2809.98 803.678,2827.34 798.208,2844.42 789.484,2859.53 778.158,2872.15 763.252,2882.98 747.752,2889.85 730.19,2893.5 713.73,2893.5 696.646,2889.98 679.812,2882.48 666.112,2872.5 654.436,2859.53 645.704,2844.4 641.414,2830.94 630.944,2830.94 630.148,2836.72 626.22,2838.82 452.992,2838.82 449.65,2837.43 448.266,2834.09" style="stroke:rgb(201,154,102);stroke-width:9.448819;fill:none;stroke-opacity:0.5;stroke-linecap:round;stroke-linejoin:round;;fill:none"/>
<polyline points="448.266,2834.09 448.266,2786.85 449.064,2784.22 451.184,2782.48 626.22,2782.12 630.148,2784.22 630.944,2790 641.414,2790 645.704,2776.54 654.166,2761.83 666.112,2748.44 679.812,2738.46 695.706,2731.27 713.73,2727.44 731.172,2727.54 747.752,2731.09 763.252,2737.96 777.808,2748.44 789.484,2761.41 798.208,2776.52 803.472,2792.64 805.398,2809.98 803.678,2827.34 798.208,2844.42 789.484,2859.53 778.158,2872.15 763.252,2882.98 747.752,2889.85 730.19,2893.5 713.73,2893.5 696.646,2889.98 679.812,2882.48 666.112,2872.5 654.436,2859.53 645.704,2844.4 641.414,2830.94 630.944,2830.94 630.148,2836.72 626.22,2838.82 452.992,2838.82 449.65,2837.43 448.266,2834.09" style="stroke:rgb(0,0,0);stroke-width:1px;fill:none;stroke-opacity:1;stroke-linecap:round;stroke-linejoin:round;;fill:none"/>
<polyline points="196.266,3886.51 196.266,3408.9 199.478,3397.93 406.994,3189.69 413.218,3185.46 421.472,3183.7 448.266,3183.7 449.064,3177.92 452.992,3175.82 628.844,3176.62 630.944,3180.55 630.944,3227.79 630.148,3230.42 627.142,3232.43 452.992,3232.52 449.064,3230.42 448.266,3224.64 429.95,3224.64 237.212,3417.38 237.212,3878.03 243.698,3884.52 512.616,3884.52 507.872,3869.58 506.15,3853.21 507.872,3835.85 513.34,3818.77 522.376,3803.27 533.74,3790.69 547.442,3780.7 563.336,3773.51 580.376,3769.78 597.82,3769.68 615.382,3773.34 631.736,3780.7 645.438,3790.69 656.802,3803.27 665.838,3818.77 671.308,3835.85 673.028,3853.21 671.308,3869.58 666.016,3886.2 657.384,3901.36 645.438,3914.74 630.882,3925.22 615.382,3932.09 597.82,3935.75 581.36,3935.75 564.276,3932.22 545.834,3923.56 537.314,3925.46 235.22,3925.46 227.822,3924.06 220.742,3919.47 199.992,3898.26 197.668,3893.91 196.266,3886.51" style="stroke:rgb(50,13,183);stroke-width:9.448819;fill:none;stroke-opacity:0.5;stroke-linecap:round;stroke-linejoin:round;;fill:none"/>
<polyline points="196.266,3886.51 196.266,3408.9 199.478,3397.93 406.994,3189.69 413.218,3185.46 421.472,3183.7 448.266,3183.7 449.064,3177.92 452.992,3175.82 628.844,3176.62 630.944,3180.55 630.944,3227.79 630.148,3230.42 627.142,3232.43 452.992,3232.52 449.064,3230.42 448.266,3224.64 429.95,3224.64 237.212,3417.38 237.212,3878.03 243.698,3884.52 512.616,3884.52 507.872,3869.58 506.15,3853.21 507.872,3835.85 513.34,3818.77 522.376,3803.27 533.74,3790.69 547.442,3780.7 563.336,3773.51 580.376,3769.78 597.82,3769.68 615.382,3773.34 631.736,3780.7 645.438,3790.69 656.802,3803.27 665.838,3818.77 671.308,3835.85 673.028,3853.21 671.308,3869.58 666.016,3886.2 657.384,3901.36 645.438,3914.74 630.882,3925.22 615.382,3932.09 597.82,3935.75 581.36,3935.75 564.276,3932.22 545.834,3923.56 537.314,3925.46 235.22,3925.46 227.822,3924.06 220.742,3919.47 199.992,3898.26 197.668,3893.91 196.266,3886.51" style="stroke:rgb(0,0,0);stroke-width:1px;fill:none;stroke-opacity:1;stroke-linecap:round;stroke-linejoin:round;;fill:none"/>
<polyline points="448.266,1044.09 448.266,996.849 449.65,993.509 452.07,992.215 626.22,992.125 630.148,994.225 630.944,999.997 667.884,999.997 680.242,991.145 695.742,984.273 712.81,980.645 730.258,980.645 747.326,984.273 762.826,991.145 777.384,1001.63 788.748,1014.21 797.784,1029.7 803.048,1045.82 804.974,1064.15 803.048,1081.48 797.784,1097.6 788.748,1113.1 777.384,1125.68 763.682,1135.66 747.326,1143.03 730.258,1146.66 712.81,1146.66 695.742,1143.03 679.388,1135.66 665.686,1125.68 653.74,1112.3 645.286,1097.6 639.816,1080.52 638.07,1063.65 639.816,1046.79 641.608,1040.94 630.944,1040.94 630.148,1046.72 626.22,1048.82 452.992,1048.82 449.65,1047.43 448.266,1044.09" style="stroke:rgb(49,88,163);stroke-width:9.448819;fill:none;stroke-opacity:0.5;stroke-linecap:round;stroke-linejoin:round;;fill:none"/>
<polyline points="448.266,1044.09 448.266,996.849 449.65,993.509 452.07,992.215 626.22,992.125 630.148,994.225 630.944,999.997 667.884,999.997 680.242,991.145 695.742,984.273 712.81,980.645 730.258,980.645 747.326,984.273 762.826,991.145 777.384,1001.63 788.748,1014.21 797.784,1029.7 803.048,1045.82 804.974,1064.15 803.048,1081.48 797.784,1097.6 788.748,1113.1 777.384,1125.68 763.682,1135.66 747.326,1143.03 730.258,1146.66 712.81,1146.66 695.742,1143.03 679.388,1135.66 665.686,1125.68 653.74,1112.3 645.286,1097.6 639.816,1080.52 638.07,1063.65 639.816,1046.79 641.608,1040.94 630.944,1040.94 630.148,1046.72 626.22,1048.82 452.992,1048.82 449.65,1047.43 448.266,1044.09" style="stroke:rgb(0,0,0);stroke-width:1px;fill:none;stroke-opacity:1;stroke-linecap:round;stroke-linejoin:round;;fill:none"/>
<polyline points="448.266,1437.79 448.266,1390.55 449.65,1387.21 452.07,1385.92 626.22,1385.82 630.148,1387.92 630.944,1393.7 877.824,1393.72 884.758,1395.1 889.108,1397.42 907.938,1415.79 924.822,1408.04 942.382,1404.39 959.338,1404.42 975.928,1407.92 992.76,1415.41 1006.81,1425.75 1018.41,1438.78 1026.64,1453.03 1032.33,1470.56 1034.05,1487.92 1032.13,1505.25 1026.86,1521.37 1018.41,1536.07 1006.46,1549.45 992.76,1559.44 976.406,1566.8 959.338,1570.43 941.888,1570.43 924.822,1566.8 908.466,1559.44 894.414,1549.1 882.82,1536.07 874.59,1521.81 869.1,1505.25 867.174,1486.93 869.1,1469.59 874.364,1453.48 879.232,1444.99 868.882,1434.64 630.944,1434.64 630.148,1440.42 626.22,1442.52 452.992,1442.52 449.65,1441.13 448.266,1437.79" style="stroke:rgb(90,37,93);stroke-width:9.448819;fill:none;stroke-opacity:0.5;stroke-linecap:round;stroke-linejoin:round;;fill:none"/>
<polyline points="448.266,1437.79 448.266,1390.55 449.65,1387.21 452.07,1385.92 626.22,1385.82 630.148,1387.92 630.944,1393.7 877.824,1393.72 884.758,1395.1 889.108,1397.42 907.938,1415.79 924.822,1408.04 942.382,1404.39 959.338,1404.42 975.928,1407.92 992.76,1415.41 1006.81,1425.75 1018.41,1438.78 1026.64,1453.03 1032.33,1470.56 1034.05,1487.92 1032.13,1505.25 1026.86,1521.37 1018.41,1536.07 1006.46,1549.45 992.76,1559.44 976.406,1566.8 959.338,1570.43 941.888,1570.43 924.822,1566.8 908.466,1559.44 894.414,1549.1 882.82,1536.07 874.59,1521.81 869.1,1505.25 867.174,1486.93 869.1,1469.59 874.364,1453.48 879.232,1444.99 868.882,1434.64 630.944,1434.64 630.148,1440.42 626.22,1442.52 452.992,1442.52 449.65,1441.13 448.266,1437.79" style="stroke:rgb(0,0,0);stroke-width:1px;fill:none;stroke-opacity:1;stroke-linecap:round;stroke-linejoin:round;;fill:none"/>
<polyline points="448.266,1516.53 448.266,1469.29 449.65,1465.95 452.07,1464.66 626.22,1464.57 630.148,1466.66 630.944,1472.44 715.012,1472.46 722.802,1474.2 730.81,1480.22 748.172,1472.34 764.762,1468.84 782.212,1468.84 799.28,1472.47 814.778,1479.34 829.336,1489.82 840.7,1502.4 849.736,1517.9 855,1534.02 856.952,1551.85 855.206,1568.71 849.512,1586.24 840.7,1601.29 828.952,1614.19 814.778,1624.36 799.28,1631.23 782.212,1634.86 764.762,1634.86 747.696,1631.23 731.34,1623.86 717.288,1613.53 706.274,1601.29 697.464,1586.24 691.974,1569.68 690.022,1551.85 691.974,1534.02 697.062,1518.36 699.816,1513.38 630.944,1513.38 630.148,1519.16 626.22,1521.26 452.992,1521.26 449.65,1519.87 448.266,1516.53" style="stroke:rgb(5,23,88);stroke-width:9.448819;fill:none;stroke-opacity:0.5;stroke-linecap:round;stroke-linejoin:round;;fill:none"/>
<polyline points="448.266,1516.53 448.266,1469.29 449.65,1465.95 452.07,1464.66 626.22,1464.57 630.148,1466.66 630.944,1472.44 715.012,1472.46 722.802,1474.2 730.81,1480.22 748.172,1472.34 764.762,1468.84 782.212,1468.84 799.28,1472.47 814.778,1479.34 829.336,1489.82 840.7,1502.4 849.736,1517.9 855,1534.02 856.952,1551.85 855.206,1568.71 849.512,1586.24 840.7,1601.29 828.952,1614.19 814.778,1624.36 799.28,1631.23 782.212,1634.86 764.762,1634.86 747.696,1631.23 731.34,1623.86 717.288,1613.53 706.274,1601.29 697.464,1586.24 691.974,1569.68 690.022,1551.85 691.974,1534.02 697.062,1518.36 699.816,1513.38 630.944,1513.38 630.148,1519.16 626.22,1521.26 452.992,1521.26 449.65,1519.87 448.266,1516.53" style="stroke:rgb(0,0,0);stroke-width:1px;fill:none;stroke-opacity:1;stroke-linecap:round;stroke-linejoin:round;;fill:none"/>
<polyline points="278.976,218.621 278.976,84.7629 279.772,82.1389 282.778,80.1289 419.366,80.3989 421.486,82.1389 422.282,84.7629 422.282,131.219 449.078,131.219 457.33,132.977 463.552,137.215 491.848,165.509 535.786,165.509 536.368,155.181 540.176,146.459 546.732,140.033 558.26,136.079 631.056,135.983 639.966,137.685 647.978,142.821 653.416,150.633 655.34,157.871 655.444,170.509 705.824,170.509 706.724,158.757 711.05,150.279 717.032,144.859 725.892,141.385 801.062,140.983 808.148,142.035 818.634,148.477 824.534,158.757 825.376,163.455 824.978,221.379 1019.5,415.899 1023.74,422.123 1025.49,430.375 1025.49,641.219 1253.03,641.219 1253.83,635.051 1257.75,632.951 1387.68,632.951 1391.02,634.335 1392.31,636.755 1392.4,685.707 1391.6,688.333 1389.48,690.073 1257.75,690.433 1253.83,688.333 1253.03,682.165 1246.71,682.165 1246.71,741.219 1253.03,741.219 1253.83,735.051 1257.75,732.951 1389.48,733.311 1391.6,735.051 1392.4,737.677 1392.4,785.707 1391.6,788.333 1388.6,790.341 1257.75,790.433 1253.83,788.333 1253.03,782.165 1225.77,782.141 1215.26,778.953 1208.97,772.669 1205.79,762.155 1205.76,682.165 978.228,682.165 977.432,688.333 973.504,690.433 843.582,690.433 839.654,688.333 838.858,682.165 832.534,682.165 832.534,741.219 838.858,741.219 839.654,735.051 843.582,732.951 975.31,733.311 977.432,735.051 978.228,737.677 977.432,788.333 973.504,790.433 843.582,790.433 839.654,788.333 838.858,782.165 812.062,782.165 804.664,780.763 797.274,775.825 792.094,766.135 791.588,725.983 630.952,725.983 630.144,731.783 626.22,733.877 460,733.877 394.03,799.849 394.03,1818.51 454.534,1879.01 463.622,1880.33 470.7,1884.92 504.24,1918.92 506.566,1923.27 507.968,1930.67 507.642,2391.67 506.21,2396.38 501.972,2402.61 441.944,2462.64 441.944,2475.04 448.266,2475.04 449.064,2469.26 452.992,2467.16 627.142,2467.25 630.148,2469.26 630.944,2471.89 630.944,2519.13 630.148,2521.76 627.142,2523.77 452.07,2523.77 448.626,2520.94 448.266,2515.98 421.472,2515.98 413.218,2514.22 404.724,2507.26 401.324,2499.04 400.998,2454.16 404.21,2443.18 467.022,2379.65 467.022,1939.15 447.66,1919.79 438.57,1918.47 431.49,1913.88 359.08,1841.47 354.842,1835.24 353.41,1830.52 353.41,787.833 354.842,783.115 359.08,776.891 448.252,688.375 448.624,680.055 452.066,677.235 626.22,677.145 630.144,679.237 630.952,685.037 791.588,685.037 791.914,658.157 793.346,653.439 797.274,647.559 801.084,644.431 808.526,641.545 838.858,641.219 839.216,635.869 842.66,633.043 973.504,632.951 977.432,635.051 978.228,641.219 984.548,641.219 984.548,438.855 786.678,240.983 730.196,240.983 721.292,239.281 716.262,236.593 709.662,229.737 706.022,219.651 705.824,211.455 655.472,211.455 653.77,220.479 648.634,228.491 644.226,232.109 635.366,235.583 557.344,235.797 546.732,231.933 540.176,225.507 536.368,216.785 535.786,206.455 478.926,205.949 469.236,200.769 440.598,172.165 422.282,172.165 422.282,218.621 421.486,221.245 419.366,222.985 283.7,223.345 280.36,221.961 278.976,218.621" style="stroke:rgb(233,94,212);stroke-width:9.448819;fill:none;stroke-opacity:0.5;stroke-linecap:round;stroke-linejoin:round;;fill:none"/>
<polyline points="278.976,218.621 278.976,84.7629 279.772,82.1389 282.778,80.1289 419.366,80.3989 421.486,82.1389 422.282,84.7629 422.282,131.219 449.078,131.219 457.33,132.977 463.552,137.215 491.848,165.509 535.786,165.509 536.368,155.181 540.176,146.459 546.732,140.033 558.26,136.079 631.056,135.983 639.966,137.685 647.978,142.821 653.416,150.633 655.34,157.871 655.444,170.509 705.824,170.509 706.724,158.757 711.05,150.279 717.032,144.859 725.892,141.385 801.062,140.983 808.148,142.035 818.634,148.477 824.534,158.757 825.376,163.455 824.978,221.379 1019.5,415.899 1023.74,422.123 1025.49,430.375 1025.49,641.219 1253.03,641.219 1253.83,635.051 1257.75,632.951 1387.68,632.951 1391.02,634.335 1392.31,636.755 1392.4,685.707 1391.6,688.333 1389.48,690.073 1257.75,690.433 1253.83,688.333 1253.03,682.165 1246.71,682.165 1246.71,741.219 1253.03,741.219 1253.83,735.051 1257.75,732.951 1389.48,733.311 1391.6,735.051 1392.4,737.677 1392.4,785.707 1391.6,788.333 1388.6,790.341 1257.75,790.433 1253.83,788.333 1253.03,782.165 1225.77,782.141 1215.26,778.953 1208.97,772.669 1205.79,762.155 1205.76,682.165 978.228,682.165 977.432,688.333 973.504,690.433 843.582,690.433 839.654,688.333 838.858,682.165 832.534,682.165 832.534,741.219 838.858,741.219 839.654,735.051 843.582,732.951 975.31,733.311 977.432,735.051 978.228,737.677 977.432,788.333 973.504,790.433 843.582,790.433 839.654,788.333 838.858,782.165 812.062,782.165 804.664,780.763 797.274,775.825 792.094,766.135 791.588,725.983 630.952,725.983 630.144,731.783 626.22,733.877 460,733.877 394.03,799.849 394.03,1818.51 454.534,1879.01 463.622,1880.33 470.7,1884.92 504.24,1918.92 506.566,1923.27 507.968,1930.67 507.642,2391.67 506.21,2396.38 501.972,2402.61 441.944,2462.64 441.944,2475.04 448.266,2475.04 449.064,2469.26 452.992,2467.16 627.142,2467.25 630.148,2469.26 630.944,2471.89 630.944,2519.13 630.148,2521.76 627.142,2523.77 452.07,2523.77 448.626,2520.94 448.266,2515.98 421.472,2515.98 413.218,2514.22 404.724,2507.26 401.324,2499.04 400.998,2454.16 404.21,2443.18 467.022,2379.65 467.022,1939.15 447.66,1919.79 438.57,1918.47 431.49,1913.88 359.08,1841.47 354.842,1835.24 353.41,1830.52 353.41,787.833 354.842,783.115 359.08,776.891 448.252,688.375 448.624,680.055 452.066,677.235 626.22,677.145 630.144,679.237 630.952,685.037 791.588,685.037 791.914,658.157 793.346,653.439 797.274,647.559 801.084,644.431 808.526,641.545 838.858,641.219 839.216,635.869 842.66,633.043 973.504,632.951 977.432,635.051 978.228,641.219 984.548,641.219 984.548,438.855 786.678,240.983 730.196,240.983 721.292,239.281 716.262,236.593 709.662,229.737 706.022,219.651 705.824,211.455 655.472,211.455 653.77,220.479 648.634,228.491 644.226,232.109 635.366,235.583 557.344,235.797 546.732,231.933 540.176,225.507 536.368,216.785 535.786,206.455 478.926,205.949 469.236,200.769 440.598,172.165 422.282,172.165 422.282,218.621 421.486,221.245 419.366,222.985 283.7,223.345 280.36,221.961 278.976,218.621" style="stroke:rgb(0,0,0);stroke-width:1px;fill:none;stroke-opacity:1;stroke-linecap:round;stroke-linejoin:round;;fill:none"/>
<polyline points="353.392,3619.99 353.898,3326.07 359.388,3316.04 409.724,3266.16 414.074,3263.84 421.008,3262.46 448.266,3262.44 448.626,3257.48 452.07,3254.66 627.142,3254.66 630.148,3256.66 630.944,3259.29 630.944,3306.53 629.56,3309.87 626.22,3311.26 452.992,3311.26 449.064,3309.16 448.266,3303.38 429.952,3303.38 394.338,3339 394.338,3611.51 416.888,3634.06 751.234,3634.06 927.576,3457.72 933.8,3453.48 938.518,3452.05 1392.52,3451.72 1392.52,3414.57 1393.31,3411.94 1396.32,3409.93 1649.21,3409.84 1651.84,3410.64 1653.85,3413.64 1653.94,3469.68 1653.14,3472.31 1651.02,3474.05 1519.89,3474.41 1504.9,3488.94 1496.69,3492.34 950.534,3492.67 774.192,3669.01 767.968,3673.25 763.25,3674.68 404.872,3674.68 400.154,3673.25 394.274,3669.32 359.388,3634.46 354.794,3627.39 353.392,3619.99" style="stroke:rgb(171,178,205);stroke-width:9.448819;fill:none;stroke-opacity:0.5;stroke-linecap:round;stroke-linejoin:round;;fill:none"/>
<polyline points="353.392,3619.99 353.898,3326.07 359.388,3316.04 409.724,3266.16 414.074,3263.84 421.008,3262.46 448.266,3262.44 448.626,3257.48 452.07,3254.66 627.142,3254.66 630.148,3256.66 630.944,3259.29 630.944,3306.53 629.56,3309.87 626.22,3311.26 452.992,3311.26 449.064,3309.16 448.266,3303.38 429.952,3303.38 394.338,3339 394.338,3611.51 416.888,3634.06 751.234,3634.06 927.576,3457.72 933.8,3453.48 938.518,3452.05 1392.52,3451.72 1392.52,3414.57 1393.31,3411.94 1396.32,3409.93 1649.21,3409.84 1651.84,3410.64 1653.85,3413.64 1653.94,3469.68 1653.14,3472.31 1651.02,3474.05 1519.89,3474.41 1504.9,3488.94 1496.69,3492.34 950.534,3492.67 774.192,3669.01 767.968,3673.25 763.25,3674.68 404.872,3674.68 400.154,3673.25 394.274,3669.32 359.388,3634.46 354.794,3627.39 353.392,3619.99" style="stroke:rgb(0,0,0);stroke-width:1px;fill:none;stroke-opacity:1;stroke-linecap:round;stroke-linejoin:round;;fill:none"/>
<polyline points="448.266,3464.01 448.266,3416.77 449.65,3413.43 452.07,3412.14 626.22,3412.05 630.148,3414.14 630.944,3419.92 649.26,3419.92 882.474,3186.7 892.508,3181.21 1392.52,3180.71 1392.88,3171.81 1394.62,3169.69 1397.24,3168.9 1649.21,3168.9 1651.84,3169.69 1653.85,3172.7 1653.94,3228.74 1652.55,3232.08 1649.21,3233.46 1397.24,3233.46 1394.62,3232.67 1392.88,3230.55 1392.52,3221.65 905.43,3221.65 672.216,3454.87 665.992,3459.11 657.738,3460.86 630.944,3460.86 630.148,3466.64 626.22,3468.74 452.992,3468.74 449.65,3467.35 448.266,3464.01" style="stroke:rgb(198,155,180);stroke-width:9.448819;fill:none;stroke-opacity:0.5;stroke-linecap:round;stroke-linejoin:round;;fill:none"/>
<polyline points="448.266,3464.01 448.266,3416.77 449.65,3413.43 452.07,3412.14 626.22,3412.05 630.148,3414.14 630.944,3419.92 649.26,3419.92 882.474,3186.7 892.508,3181.21 1392.52,3180.71 1392.88,3171.81 1394.62,3169.69 1397.24,3168.9 1649.21,3168.9 1651.84,3169.69 1653.85,3172.7 1653.94,3228.74 1652.55,3232.08 1649.21,3233.46 1397.24,3233.46 1394.62,3232.67 1392.88,3230.55 1392.52,3221.65 905.43,3221.65 672.216,3454.87 665.992,3459.11 657.738,3460.86 630.944,3460.86 630.148,3466.64 626.22,3468.74 452.992,3468.74 449.65,3467.35 448.266,3464.01" style="stroke:rgb(0,0,0);stroke-width:1px;fill:none;stroke-opacity:1;stroke-linecap:round;stroke-linejoin:round;;fill:none"/>
<polyline points="448.266,3070.31 448.266,3023.07 449.65,3019.73 452.07,3018.44 626.22,3018.34 630.148,3020.44 630.944,3026.22 658.202,3026.24 665.136,3027.62 669.486,3029.94 740.39,3100.39 1392.52,3100.39 1392.88,3091.5 1394.62,3089.38 1397.24,3088.58 1649.21,3088.58 1652.55,3089.96 1653.94,3093.31 1653.94,3148.42 1652.55,3151.76 1649.21,3153.15 1397.24,3153.15 1394.62,3152.35 1392.88,3150.23 1392.52,3141.34 731.448,3141.31 723.658,3139.58 717.434,3135.34 649.258,3067.16 630.944,3067.16 630.148,3072.94 626.22,3075.04 452.992,3075.04 449.65,3073.65 448.266,3070.31" style="stroke:rgb(84,17,14);stroke-width:9.448819;fill:none;stroke-opacity:0.5;stroke-linecap:round;stroke-linejoin:round;;fill:none"/>
<polyline points="448.266,3070.31 448.266,3023.07 449.65,3019.73 452.07,3018.44 626.22,3018.34 630.148,3020.44 630.944,3026.22 658.202,3026.24 665.136,3027.62 669.486,3029.94 740.39,3100.39 1392.52,3100.39 1392.88,3091.5 1394.62,3089.38 1397.24,3088.58 1649.21,3088.58 1652.55,3089.96 1653.94,3093.31 1653.94,3148.42 1652.55,3151.76 1649.21,3153.15 1397.24,3153.15 1394.62,3152.35 1392.88,3150.23 1392.52,3141.34 731.448,3141.31 723.658,3139.58 717.434,3135.34 649.258,3067.16 630.944,3067.16 630.148,3072.94 626.22,3075.04 452.992,3075.04 449.65,3073.65 448.266,3070.31" style="stroke:rgb(0,0,0);stroke-width:1px;fill:none;stroke-opacity:1;stroke-linecap:round;stroke-linejoin:round;;fill:none"/>
<polyline points="448.266,2991.57 448.266,2944.33 449.65,2940.99 452.07,2939.7 626.22,2939.6 630.148,2941.7 630.944,2947.48 658.202,2947.5 665.138,2948.88 669.486,2951.2 738.818,3020.08 1392.52,3020.08 1392.88,3011.18 1394.62,3009.06 1397.24,3008.27 1649.21,3008.27 1652.55,3009.65 1653.94,3012.99 1653.94,3068.11 1652.55,3071.45 1649.21,3072.83 1397.24,3072.83 1394.62,3072.04 1392.88,3069.92 1392.52,3061.02 729.874,3061 722.938,3059.62 716.204,3055.34 649.258,2988.42 630.944,2988.42 630.148,2994.2 626.22,2996.3 452.992,2996.3 449.65,2994.91 448.266,2991.57" style="stroke:rgb(130,116,65);stroke-width:9.448819;fill:none;stroke-opacity:0.5;stroke-linecap:round;stroke-linejoin:round;;fill:none"/>
<polyline points="448.266,2991.57 448.266,2944.33 449.65,2940.99 452.07,2939.7 626.22,2939.6 630.148,2941.7 630.944,2947.48 658.202,2947.5 665.138,2948.88 669.486,2951.2 738.818,3020.08 1392.52,3020.08 1392.88,3011.18 1394.62,3009.06 1397.24,3008.27 1649.21,3008.27 1652.55,3009.65 1653.94,3012.99 1653.94,3068.11 1652.55,3071.45 1649.21,3072.83 1397.24,3072.83 1394.62,3072.04 1392.88,3069.92 1392.52,3061.02 729.874,3061 722.938,3059.62 716.204,3055.34 649.258,2988.42 630.944,2988.42 630.148,2994.2 626.22,2996.3 452.992,2996.3 449.65,2994.91 448.266,2991.57" style="stroke:rgb(0,0,0);stroke-width:1px;fill:none;stroke-opacity:1;stroke-linecap:round;stroke-linejoin:round;;fill:none"/>
<polyline points="448.248,2629.36 448.262,2676.63 449.648,2679.97 452.066,2681.27 626.22,2681.36 630.144,2679.26 630.952,2673.46 842.898,2673.46 1144.14,2974.71 1154.18,2980.2 1392.52,2980.71 1392.88,2989.6 1394.62,2991.72 1397.24,2992.52 1649.21,2992.52 1651.84,2991.72 1653.85,2988.72 1653.94,2932.68 1653.14,2930.05 1650.13,2928.04 1397.24,2927.95 1394.62,2928.75 1392.88,2930.87 1392.52,2939.76 1167.1,2939.76 865.854,2638.51 855.82,2633.02 630.952,2632.52 630.144,2626.72 626.22,2624.62 452.972,2624.64 449.632,2626.02 448.248,2629.36" style="stroke:rgb(33,61,220);stroke-width:9.448819;fill:none;stroke-opacity:0.5;stroke-linecap:round;stroke-linejoin:round;;fill:none"/>
<polyline points="448.248,2629.36 448.262,2676.63 449.648,2679.97 452.066,2681.27 626.22,2681.36 630.144,2679.26 630.952,2673.46 842.898,2673.46 1144.14,2974.71 1154.18,2980.2 1392.52,2980.71 1392.88,2989.6 1394.62,2991.72 1397.24,2992.52 1649.21,2992.52 1651.84,2991.72 1653.85,2988.72 1653.94,2932.68 1653.14,2930.05 1650.13,2928.04 1397.24,2927.95 1394.62,2928.75 1392.88,2930.87 1392.52,2939.76 1167.1,2939.76 865.854,2638.51 855.82,2633.02 630.952,2632.52 630.144,2626.72 626.22,2624.62 452.972,2624.64 449.632,2626.02 448.248,2629.36" style="stroke:rgb(0,0,0);stroke-width:1px;fill:none;stroke-opacity:1;stroke-linecap:round;stroke-linejoin:round;;fill:none"/>
<polyline points="48.6579,3867.49 48.6579,228.705 50.0359,222.525 53.5099,217.803 58.5519,214.811 66.3479,214.297 72.2959,216.987 81.8039,227.159 97.8799,239.149 121.008,249.347 125.904,246.763 125.904,218.591 114.822,213.757 102.334,204.591 92.6599,193.809 84.9939,180.375 80.4639,166.101 78.9759,151.693 80.4639,137.283 84.9939,123.009 92.3899,109.989 103.068,98.1309 114.802,89.6389 128.964,83.4169 143.14,80.4309 157.624,80.4049 173.232,83.7229 186.456,89.6389 198.19,98.1309 208.868,109.989 215.864,122.107 218.932,131.219 252.612,131.545 260.054,134.431 263.864,137.559 268.148,144.295 269.526,151.229 269.55,223.203 300.484,254.137 416.836,254.137 431.12,251.369 442.656,243.655 449.792,235.569 457.318,232.573 473.364,236.269 483.404,237.255 505.3,237.179 510.57,239.027 513.922,241.793 522.62,252.067 525.358,257.173 525.918,261.963 522.678,270.745 511.038,282.431 505.744,295.207 505.17,318.737 509.108,322.675 535.786,322.675 536.368,316.599 540.176,307.877 547.032,301.275 555.892,297.801 631.062,297.401 638.584,298.607 646.636,303.015 651.7,308.853 655.376,319.873 655.472,372.983 652.35,384.895 644.718,393.221 636.274,396.819 595.392,397.401 595.392,451.849 605.722,452.431 614.62,456.391 622.236,465.171 624.92,476.259 624.338,552.337 621.046,560.289 614.444,567.145 605.722,570.953 599.644,571.535 599.644,598.211 603.582,602.151 627.11,601.575 639.888,596.281 652.306,584.157 656.6,581.965 662.316,581.401 667.804,583.061 680.108,592.959 689.65,598.059 699.99,601.197 711.466,602.327 764.76,602.191 769.878,603.527 775.69,608.297 777.884,612.595 778.446,618.313 776.796,623.775 769.45,633.173 761.514,648.945 755.654,653.345 750.008,654.487 653.474,654.487 648.77,653.715 633.134,647.123 625.498,646.371 469.192,646.371 322.43,793.135 322.282,1826.96 323.272,1836.99 326.188,1846.61 330.928,1855.47 356.072,1881.79 358.676,1885.85 359.796,1891.49 358.674,1897.12 355.642,1901.73 347.948,1905.93 248.99,1906.21 235.96,1908.6 235.96,2116.59 248.988,2118.98 424.394,2119.22 432.158,2123.29 436.28,2131.73 436.38,2170.6 435.35,2175.31 432.746,2179.37 426.496,2183.55 421.748,2184.4 248.986,2184.4 235.96,2186.79 235.96,2394.78 252.036,2398.46 256.604,2402.06 259.892,2408.91 260.136,2547.91 403.212,2547.93 410.734,2550.27 416.352,2557 417.474,2562.63 417.474,2597.15 420.176,2612.24 417.474,2630.09 417.474,2675.89 420.176,2690.98 417.474,2708.83 417.474,2754.63 420.176,2769.72 417.474,2787.57 417.474,2833.37 420.176,2848.46 418.714,2857.51 425.72,2864.51 434.112,2864.76 445.696,2868.74 448.258,2868.74 449.068,2862.94 452.992,2860.84 626.238,2860.86 629.58,2862.24 630.872,2864.66 630.948,2912.85 629.564,2916.19 627.144,2917.49 452.992,2917.58 449.068,2915.48 448.258,2909.69 441.944,2910.87 441.944,3103.77 448.266,3104.96 449.064,3099.18 452.992,3097.08 626.22,3097.08 630.148,3099.18 630.944,3104.96 657.738,3104.96 665.992,3106.72 674.486,3113.68 677.886,3121.9 678.212,3361.65 676.454,3369.9 671.872,3376.44 665.136,3380.72 657.738,3382.12 630.944,3382.12 630.148,3387.9 626.22,3390 452.992,3390 449.064,3387.9 448.266,3382.12 441.944,3382.12 441.944,3577.4 448.266,3577.4 449.064,3571.63 452.992,3569.53 627.142,3569.62 630.148,3571.63 630.944,3574.25 630.854,3622.42 628.844,3625.42 626.22,3626.22 452.992,3626.22 449.064,3624.12 448.266,3618.34 417.936,3618.02 410.494,3615.13 406.684,3612 402.4,3605.27 400.998,3597.87 400.998,3361.65 404.21,3350.67 410.494,3344.39 421.008,3341.2 448.266,3341.18 449.064,3335.4 452.992,3333.31 626.22,3333.31 630.148,3335.4 630.944,3341.18 637.266,3341.18 637.266,3145.9 630.944,3145.9 630.148,3151.68 626.22,3153.78 452.992,3153.78 449.064,3151.68 448.266,3145.9 445.678,3145.9 433.566,3149.98 421.458,3150.14 415.88,3153.22 401.852,3156.8 392.986,3161.54 385.186,3167.94 180.508,3372.62 174.108,3380.42 169.37,3389.28 166.452,3398.9 165.464,3408.94 165.462,3886.52 166.304,3897.88 164.598,3903.43 159.862,3908.65 152.142,3911.15 92.6979,3911.18 75.9159,3908.33 67.8959,3904.34 56.3679,3893.25 50.1479,3879.49 48.6579,3867.49" style="stroke:rgb(135,112,233);stroke-width:9.448819;fill:none;stroke-opacity:0.5;stroke-linecap:round;stroke-linejoin:round;;fill:none"/>
<polyline points="48.6579,3867.49 48.6579,228.705 50.0359,222.525 53.5099,217.803 58.5519,214.811 66.3479,214.297 72.2959,216.987 81.8039,227.159 97.8799,239.149 121.008,249.347 125.904,246.763 125.904,218.591 114.822,213.757 102.334,204.591 92.6599,193.809 84.9939,180.375 80.4639,166.101 78.9759,151.693 80.4639,137.283 84.9939,123.009 92.3899,109.989 103.068,98.1309 114.802,89.6389 128.964,83.4169 143.14,80.4309 157.624,80.4049 173.232,83.7229 186.456,89.6389 198.19,98.1309 208.868,109.989 215.864,122.107 218.932,131.219 252.612,131.545 260.054,134.431 263.864,137.559 268.148,144.295 269.526,151.229 269.55,223.203 300.484,254.137 416.836,254.137 431.12,251.369 442.656,243.655 449.792,235.569 457.318,232.573 473.364,236.269 483.404,237.255 505.3,237.179 510.57,239.027 513.922,241.793 522.62,252.067 525.358,257.173 525.918,261.963 522.678,270.745 511.038,282.431 505.744,295.207 505.17,318.737 509.108,322.675 535.786,322.675 536.368,316.599 540.176,307.877 547.032,301.275 555.892,297.801 631.062,297.401 638.584,298.607 646.636,303.015 651.7,308.853 655.376,319.873 655.472,372.983 652.35,384.895 644.718,393.221 636.274,396.819 595.392,397.401 595.392,451.849 605.722,452.431 614.62,456.391 622.236,465.171 624.92,476.259 624.338,552.337 621.046,560.289 614.444,567.145 605.722,570.953 599.644,571.535 599.644,598.211 603.582,602.151 627.11,601.575 639.888,596.281 652.306,584.157 656.6,581.965 662.316,581.401 667.804,583.061 680.108,592.959 689.65,598.059 699.99,601.197 711.466,602.327 764.76,602.191 769.878,603.527 775.69,608.297 777.884,612.595 778.446,618.313 776.796,623.775 769.45,633.173 761.514,648.945 755.654,653.345 750.008,654.487 653.474,654.487 648.77,653.715 633.134,647.123 625.498,646.371 469.192,646.371 322.43,793.135 322.282,1826.96 323.272,1836.99 326.188,1846.61 330.928,1855.47 356.072,1881.79 358.676,1885.85 359.796,1891.49 358.674,1897.12 355.642,1901.73 347.948,1905.93 248.99,1906.21 235.96,1908.6 235.96,2116.59 248.988,2118.98 424.394,2119.22 432.158,2123.29 436.28,2131.73 436.38,2170.6 435.35,2175.31 432.746,2179.37 426.496,2183.55 421.748,2184.4 248.986,2184.4 235.96,2186.79 235.96,2394.78 252.036,2398.46 256.604,2402.06 259.892,2408.91 260.136,2547.91 403.212,2547.93 410.734,2550.27 416.352,2557 417.474,2562.63 417.474,2597.15 420.176,2612.24 417.474,2630.09 417.474,2675.89 420.176,2690.98 417.474,2708.83 417.474,2754.63 420.176,2769.72 417.474,2787.57 417.474,2833.37 420.176,2848.46 418.714,2857.51 425.72,2864.51 434.112,2864.76 445.696,2868.74 448.258,2868.74 449.068,2862.94 452.992,2860.84 626.238,2860.86 629.58,2862.24 630.872,2864.66 630.948,2912.85 629.564,2916.19 627.144,2917.49 452.992,2917.58 449.068,2915.48 448.258,2909.69 441.944,2910.87 441.944,3103.77 448.266,3104.96 449.064,3099.18 452.992,3097.08 626.22,3097.08 630.148,3099.18 630.944,3104.96 657.738,3104.96 665.992,3106.72 674.486,3113.68 677.886,3121.9 678.212,3361.65 676.454,3369.9 671.872,3376.44 665.136,3380.72 657.738,3382.12 630.944,3382.12 630.148,3387.9 626.22,3390 452.992,3390 449.064,3387.9 448.266,3382.12 441.944,3382.12 441.944,3577.4 448.266,3577.4 449.064,3571.63 452.992,3569.53 627.142,3569.62 630.148,3571.63 630.944,3574.25 630.854,3622.42 628.844,3625.42 626.22,3626.22 452.992,3626.22 449.064,3624.12 448.266,3618.34 417.936,3618.02 410.494,3615.13 406.684,3612 402.4,3605.27 400.998,3597.87 400.998,3361.65 404.21,3350.67 410.494,3344.39 421.008,3341.2 448.266,3341.18 449.064,3335.4 452.992,3333.31 626.22,3333.31 630.148,3335.4 630.944,3341.18 637.266,3341.18 637.266,3145.9 630.944,3145.9 630.148,3151.68 626.22,3153.78 452.992,3153.78 449.064,3151.68 448.266,3145.9 445.678,3145.9 433.566,3149.98 421.458,3150.14 415.88,3153.22 401.852,3156.8 392.986,3161.54 385.186,3167.94 180.508,3372.62 174.108,3380.42 169.37,3389.28 166.452,3398.9 165.464,3408.94 165.462,3886.52 166.304,3897.88 164.598,3903.43 159.862,3908.65 152.142,3911.15 92.6979,3911.18 75.9159,3908.33 67.8959,3904.34 56.3679,3893.25 50.1479,3879.49 48.6579,3867.49" style="stroke:rgb(0,0,0);stroke-width:1px;fill:none;stroke-opacity:1;stroke-linecap:round;stroke-linejoin:round;;fill:none"/>
<polyline points="212.748,570.927 213.5,423.005 218.794,410.225 223.2,404.855 234.702,397.171 248.988,394.403 452.266,394.403 466.554,397.171 472.684,400.447 483.35,409.795 491.668,411.729 498.028,409.805 503.564,404.203 505.362,398.351 505.028,389.463 542.394,389.463 548.292,394.281 554.446,396.615 554.446,451.887 546.252,452.085 536.166,455.725 529.31,462.325 525.502,471.047 524.92,532.739 450.488,607.169 423.422,607.261 418.708,608.291 413.932,611.483 410.74,616.259 409.618,621.925 409.752,642.373 410.914,646.745 299.748,757.911 260.136,757.911 259.892,618.913 256.604,612.059 252.036,608.459 234.702,604.401 223.2,596.715 215.518,585.215 212.748,570.927" style="stroke:rgb(135,112,233);stroke-width:9.448819;fill:none;stroke-opacity:0.5;stroke-linecap:round;stroke-linejoin:round;;fill:none"/>
<polyline points="212.748,570.927 213.5,423.005 218.794,410.225 223.2,404.855 234.702,397.171 248.988,394.403 452.266,394.403 466.554,397.171 472.684,400.447 483.35,409.795 491.668,411.729 498.028,409.805 503.564,404.203 505.362,398.351 505.028,389.463 542.394,389.463 548.292,394.281 554.446,396.615 554.446,451.887 546.252,452.085 536.166,455.725 529.31,462.325 525.502,471.047 524.92,532.739 450.488,607.169 423.422,607.261 418.708,608.291 413.932,611.483 410.74,616.259 409.618,621.925 409.752,642.373 410.914,646.745 299.748,757.911 260.136,757.911 259.892,618.913 256.604,612.059 252.036,608.459 234.702,604.401 223.2,596.715 215.518,585.215 212.748,570.927" style="stroke:rgb(0,0,0);stroke-width:1px;fill:none;stroke-opacity:1;stroke-linecap:round;stroke-linejoin:round;;fill:none"/>
<polyline points="175.354,246.763 175.354,218.591 186.436,213.757 198.924,204.591 208.868,193.395 215.864,181.277 218.932,172.165 228.604,172.165 228.604,218.425 219.458,227.153 203.374,239.151 180.248,249.347 175.354,246.763" style="stroke:rgb(135,112,233);stroke-width:9.448819;fill:none;stroke-opacity:0.5;stroke-linecap:round;stroke-linejoin:round;;fill:none"/>
<polyline points="175.354,246.763 175.354,218.591 186.436,213.757 198.924,204.591 208.868,193.395 215.864,181.277 218.932,172.165 228.604,172.165 228.604,218.425 219.458,227.153 203.374,239.151 180.248,249.347 175.354,246.763" style="stroke:rgb(0,0,0);stroke-width:1px;fill:none;stroke-opacity:1;stroke-linecap:round;stroke-linejoin:round;;fill:none"/>
<polyline points="516.032,599.531 530.288,602.319 546.256,602.151 550.194,598.211 550.194,571.475 544.618,570.945 516.032,599.531" style="stroke:rgb(135,112,233);stroke-width:9.448819;fill:none;stroke-opacity:0.5;stroke-linecap:round;stroke-linejoin:round;;fill:none"/>
<polyline points="516.032,599.531 530.288,602.319 546.256,602.151 550.194,598.211 550.194,571.475 544.618,570.945 516.032,599.531" style="stroke:rgb(0,0,0);stroke-width:1px;fill:none;stroke-opacity:1;stroke-linecap:round;stroke-linejoin:round;;fill:none"/>
<polyline points="686.338,476.265 689.022,465.171 696.638,456.391 705.536,452.431 715.864,451.849 715.864,397.513 709.836,391.455 705.882,379.929 705.81,326.347 707.488,317.905 711.328,311.325 717.24,306.171 728.26,302.495 801.526,302.423 809.966,304.103 816.548,307.941 821.7,313.853 825.376,324.873 825.448,378.455 823.77,386.895 821.292,391.649 815.978,397.261 805.366,401.999 756.81,402.401 756.81,451.887 764.78,452.035 773.832,454.971 781.074,461.147 785.438,469.851 786.338,476.259 786.338,547.125 784.636,556.029 780.798,562.611 774.884,567.763 763.866,571.439 710.284,571.511 701.842,569.833 695.262,565.993 690.108,560.081 686.432,549.061 686.338,476.265" style="stroke:rgb(62,161,65);stroke-width:9.448819;fill:none;stroke-opacity:0.5;stroke-linecap:round;stroke-linejoin:round;;fill:none"/>
<polyline points="686.338,476.265 689.022,465.171 696.638,456.391 705.536,452.431 715.864,451.849 715.864,397.513 709.836,391.455 705.882,379.929 705.81,326.347 707.488,317.905 711.328,311.325 717.24,306.171 728.26,302.495 801.526,302.423 809.966,304.103 816.548,307.941 821.7,313.853 825.376,324.873 825.448,378.455 823.77,386.895 821.292,391.649 815.978,397.261 805.366,401.999 756.81,402.401 756.81,451.887 764.78,452.035 773.832,454.971 781.074,461.147 785.438,469.851 786.338,476.259 786.338,547.125 784.636,556.029 780.798,562.611 774.884,567.763 763.866,571.439 710.284,571.511 701.842,569.833 695.262,565.993 690.108,560.081 686.432,549.061 686.338,476.265" style="stroke:rgb(0,0,0);stroke-width:1px;fill:none;stroke-opacity:1;stroke-linecap:round;stroke-linejoin:round;;fill:none"/>
<polyline points="1217.06,1996.45 1218.81,2013.31 1224.28,2030.4 1232.73,2045.09 1244.68,2058.47 1259.23,2068.95 1274.73,2075.83 1291.31,2079.38 1308.76,2079.48 1326.78,2075.65 1342.67,2068.46 1356.38,2058.47 1368.32,2045.09 1376.78,2030.4 1382.04,2014.28 1383.02,2005.9 1392.52,2005.9 1392.88,2014.8 1394.62,2016.92 1397.24,2017.71 1651.02,2017.35 1653.14,2015.61 1653.94,2012.99 1653.94,1957.87 1652.55,1954.53 1649.21,1953.15 1397.24,1953.15 1394.62,1953.94 1392.88,1956.06 1392.52,1964.96 1377.6,1964.96 1367.74,1947 1356.38,1934.42 1342.67,1924.43 1325.84,1916.94 1309.74,1913.52 1292.3,1913.41 1274.73,1917.07 1259.23,1923.94 1244.33,1934.77 1232.73,1947.8 1224.28,1962.5 1218.81,1979.58 1217.06,1996.45" style="stroke:rgb(225,252,103);stroke-width:9.448819;fill:none;stroke-opacity:0.5;stroke-linecap:round;stroke-linejoin:round;;fill:none"/>
<polyline points="1217.06,1996.45 1218.81,2013.31 1224.28,2030.4 1232.73,2045.09 1244.68,2058.47 1259.23,2068.95 1274.73,2075.83 1291.31,2079.38 1308.76,2079.48 1326.78,2075.65 1342.67,2068.46 1356.38,2058.47 1368.32,2045.09 1376.78,2030.4 1382.04,2014.28 1383.02,2005.9 1392.52,2005.9 1392.88,2014.8 1394.62,2016.92 1397.24,2017.71 1651.02,2017.35 1653.14,2015.61 1653.94,2012.99 1653.94,1957.87 1652.55,1954.53 1649.21,1953.15 1397.24,1953.15 1394.62,1953.94 1392.88,1956.06 1392.52,1964.96 1377.6,1964.96 1367.74,1947 1356.38,1934.42 1342.67,1924.43 1325.84,1916.94 1309.74,1913.52 1292.3,1913.41 1274.73,1917.07 1259.23,1923.94 1244.33,1934.77 1232.73,1947.8 1224.28,1962.5 1218.81,1979.58 1217.06,1996.45" style="stroke:rgb(0,0,0);stroke-width:1px;fill:none;stroke-opacity:1;stroke-linecap:round;stroke-linejoin:round;;fill:none"/>
<polyline points="1211.42,3361.94 1213.16,3378.8 1218.63,3395.88 1227.36,3410.99 1239.03,3423.96 1252.73,3433.95 1269.09,3441.31 1285.67,3444.87 1303.11,3444.97 1321.13,3441.14 1337.03,3433.95 1350.73,3423.96 1362.67,3410.58 1371.14,3395.86 1375.44,3382.28 1392.52,3382.28 1392.88,3391.18 1394.62,3393.3 1397.24,3394.09 1651.02,3393.73 1653.14,3391.99 1653.94,3389.37 1653.94,3334.25 1652.55,3330.91 1649.21,3329.53 1397.24,3329.53 1394.62,3330.32 1392.88,3332.44 1392.52,3341.34 1375.41,3341.34 1371.14,3328 1362.41,3312.88 1350.73,3299.91 1337.03,3289.92 1320.2,3282.43 1303.11,3278.9 1286.65,3278.9 1268.63,3282.73 1252.73,3289.92 1238.68,3300.26 1227.36,3312.88 1218.63,3327.99 1213.16,3345.07 1211.42,3361.94" style="stroke:rgb(62,1,126);stroke-width:9.448819;fill:none;stroke-opacity:0.5;stroke-linecap:round;stroke-linejoin:round;;fill:none"/>
<polyline points="1211.42,3361.94 1213.16,3378.8 1218.63,3395.88 1227.36,3410.99 1239.03,3423.96 1252.73,3433.95 1269.09,3441.31 1285.67,3444.87 1303.11,3444.97 1321.13,3441.14 1337.03,3433.95 1350.73,3423.96 1362.67,3410.58 1371.14,3395.86 1375.44,3382.28 1392.52,3382.28 1392.88,3391.18 1394.62,3393.3 1397.24,3394.09 1651.02,3393.73 1653.14,3391.99 1653.94,3389.37 1653.94,3334.25 1652.55,3330.91 1649.21,3329.53 1397.24,3329.53 1394.62,3330.32 1392.88,3332.44 1392.52,3341.34 1375.41,3341.34 1371.14,3328 1362.41,3312.88 1350.73,3299.91 1337.03,3289.92 1320.2,3282.43 1303.11,3278.9 1286.65,3278.9 1268.63,3282.73 1252.73,3289.92 1238.68,3300.26 1227.36,3312.88 1218.63,3327.99 1213.16,3345.07 1211.42,3361.94" style="stroke:rgb(0,0,0);stroke-width:1px;fill:none;stroke-opacity:1;stroke-linecap:round;stroke-linejoin:round;;fill:none"/>
<polyline points="448.266,3542.75 448.266,3495.51 449.65,3492.17 452.07,3490.88 626.22,3490.79 630.148,3492.89 630.944,3498.66 796.156,3498.66 1057.62,3237.2 1067.65,3231.71 1341.02,3231.23 1347.95,3232.6 1352.3,3234.93 1378.86,3261.02 1392.52,3261.02 1392.88,3252.13 1394.62,3250.01 1397.24,3249.21 1649.21,3249.21 1651.84,3250.01 1653.85,3253.01 1653.94,3309.05 1652.55,3312.39 1649.21,3313.78 1397.24,3313.78 1394.62,3312.98 1392.88,3310.86 1392.52,3301.97 1369.91,3301.94 1359.4,3298.75 1332.08,3272.15 1080.57,3272.15 819.112,3533.61 812.888,3537.85 804.634,3539.6 630.944,3539.6 630.148,3545.38 626.22,3547.48 452.992,3547.48 449.65,3546.09 448.266,3542.75" style="stroke:rgb(151,234,220);stroke-width:9.448819;fill:none;stroke-opacity:0.5;stroke-linecap:round;stroke-linejoin:round;;fill:none"/>
<polyline points="448.266,3542.75 448.266,3495.51 449.65,3492.17 452.07,3490.88 626.22,3490.79 630.148,3492.89 630.944,3498.66 796.156,3498.66 1057.62,3237.2 1067.65,3231.71 1341.02,3231.23 1347.95,3232.6 1352.3,3234.93 1378.86,3261.02 1392.52,3261.02 1392.88,3252.13 1394.62,3250.01 1397.24,3249.21 1649.21,3249.21 1651.84,3250.01 1653.85,3253.01 1653.94,3309.05 1652.55,3312.39 1649.21,3313.78 1397.24,3313.78 1394.62,3312.98 1392.88,3310.86 1392.52,3301.97 1369.91,3301.94 1359.4,3298.75 1332.08,3272.15 1080.57,3272.15 819.112,3533.61 812.888,3537.85 804.634,3539.6 630.944,3539.6 630.148,3545.38 626.22,3547.48 452.992,3547.48 449.65,3546.09 448.266,3542.75" style="stroke:rgb(0,0,0);stroke-width:1px;fill:none;stroke-opacity:1;stroke-linecap:round;stroke-linejoin:round;;fill:none"/>
<polyline points="448.266,2597.87 448.266,2550.63 449.65,2547.29 452.992,2545.9 626.22,2545.9 630.148,2548 630.944,2553.78 1064.5,2554.28 1074.53,2559.77 1374.2,2859.45 1392.52,2859.45 1392.88,2850.55 1394.62,2848.43 1397.24,2847.64 1650.13,2847.73 1653.14,2849.74 1653.94,2852.36 1653.85,2908.4 1652.55,2910.82 1649.21,2912.2 1397.24,2912.2 1394.62,2911.41 1392.88,2909.29 1392.52,2900.39 1365.72,2900.39 1357.47,2898.63 1351.25,2894.4 1051.57,2594.72 630.944,2594.72 630.148,2600.5 626.22,2602.6 452.992,2602.6 449.65,2601.21 448.266,2597.87" style="stroke:rgb(107,150,143);stroke-width:9.448819;fill:none;stroke-opacity:0.5;stroke-linecap:round;stroke-linejoin:round;;fill:none"/>
<polyline points="448.266,2597.87 448.266,2550.63 449.65,2547.29 452.992,2545.9 626.22,2545.9 630.148,2548 630.944,2553.78 1064.5,2554.28 1074.53,2559.77 1374.2,2859.45 1392.52,2859.45 1392.88,2850.55 1394.62,2848.43 1397.24,2847.64 1650.13,2847.73 1653.14,2849.74 1653.94,2852.36 1653.85,2908.4 1652.55,2910.82 1649.21,2912.2 1397.24,2912.2 1394.62,2911.41 1392.88,2909.29 1392.52,2900.39 1365.72,2900.39 1357.47,2898.63 1351.25,2894.4 1051.57,2594.72 630.944,2594.72 630.148,2600.5 626.22,2602.6 452.992,2602.6 449.65,2601.21 448.266,2597.87" style="stroke:rgb(0,0,0);stroke-width:1px;fill:none;stroke-opacity:1;stroke-linecap:round;stroke-linejoin:round;;fill:none"/>
<polyline points="487.096,3721.33 487.84,3715.5 491.162,3710.07 495.572,3706.93 501.272,3705.58 759.68,3705.81 769.716,3704.82 779.336,3701.9 788.2,3697.16 795.994,3690.77 848.642,3637.76 855.73,3633.85 861.926,3633.73 867.606,3636.21 872.562,3642.33 879.976,3680.5 892.132,3709.85 909.778,3736.26 932.242,3758.72 958.652,3776.37 988,3788.52 1019.15,3794.72 1050.92,3794.72 1082.08,3788.52 1111.42,3776.37 1137.84,3758.72 1160.3,3736.26 1177.94,3709.85 1190.1,3680.5 1196.3,3649.34 1196.3,3617.58 1190.1,3586.42 1177.94,3557.08 1168.48,3541.04 1169.26,3532.31 1172.46,3527.53 1177.23,3524.34 1182.87,3523.22 1493.12,3523.47 1503.16,3522.48 1512.78,3519.56 1521.66,3514.81 1531.4,3507.1 1536.12,3505.42 1655.74,3504.77 1661.26,3506.47 1664.52,3508.86 1667.93,3513.92 1668.99,3518.93 1669.52,3719.12 1674.82,3731.92 1684.61,3741.71 1697.41,3747.01 1704.56,3747.71 1928.34,3747.73 1934.11,3750 1938.17,3754.07 1940.32,3759.15 1940.23,3765.34 1942.98,3770.15 1971.99,3770.15 1975.28,3762.83 1982.84,3752.38 1993.11,3743.03 2005.18,3736.15 2017.95,3732.11 2030.29,3730.81 2149.53,3730.79 2163.33,3732.31 2175.6,3736.33 2187.58,3743.34 2197.47,3752.38 2205.03,3762.83 2208.32,3770.15 2237.33,3770.15 2240.08,3765.34 2239.99,3759.16 2242.14,3754.07 2246.2,3750 2251.51,3747.8 2322.57,3747.61 2327.29,3748.64 2332.06,3751.83 2335.25,3756.61 2336.28,3761.32 2336.3,3868.67 2334.96,3879.21 2328.83,3893.01 2322.99,3899.79 2309.39,3908.24 2293.74,3911.12 2188.96,3911.09 2184.24,3910.05 2180.17,3907.43 2176.7,3902.87 2175.16,3896.39 2176.31,3890.75 2180.26,3885.39 2193.74,3879 2209.3,3868.76 2222.56,3855.68 2233.02,3840.26 2239.87,3824.05 2237.33,3819.6 2208.32,3819.6 2204.76,3827.34 2197.47,3837.38 2186.79,3847 2175.6,3853.43 2163.33,3857.45 2149.53,3858.97 2030.79,3858.97 2017.95,3857.65 2004.72,3853.43 1992.73,3846.42 1982.84,3837.38 1975.55,3827.34 1971.99,3819.6 1944.15,3819.6 1940.44,3824.05 1947.29,3840.26 1957.75,3855.68 1971.02,3868.76 1986.58,3879 1996.78,3883.24 2000.77,3885.98 2003.56,3889.93 2004.89,3893.74 2004.87,3899.27 2002.69,3904.6 1998.22,3908.92 1990.42,3911.18 1815.74,3911.18 1798.86,3914.72 1781.9,3914.7 1765.51,3911.18 710.818,3911.18 705.184,3910.06 700.408,3906.87 697.216,3902.09 696.186,3897.38 703.604,3863.94 703.604,3841.48 699.222,3819.46 690.628,3798.71 678.15,3780.03 662.268,3764.15 643.594,3751.67 622.846,3743.08 600.818,3738.7 578.36,3738.7 556.332,3743.08 535.582,3751.67 516.854,3764.19 511.362,3769.28 506.108,3771.45 499.912,3771.33 492.99,3767.58 488.794,3759.89 488.51,3732.47 487.096,3721.33" style="stroke:rgb(56,92,42);stroke-width:9.448819;fill:none;stroke-opacity:0.5;stroke-linecap:round;stroke-linejoin:round;;fill:none"/>
<polyline points="487.096,3721.33 487.84,3715.5 491.162,3710.07 495.572,3706.93 501.272,3705.58 759.68,3705.81 769.716,3704.82 779.336,3701.9 788.2,3697.16 795.994,3690.77 848.642,3637.76 855.73,3633.85 861.926,3633.73 867.606,3636.21 872.562,3642.33 879.976,3680.5 892.132,3709.85 909.778,3736.26 932.242,3758.72 958.652,3776.37 988,3788.52 1019.15,3794.72 1050.92,3794.72 1082.08,3788.52 1111.42,3776.37 1137.84,3758.72 1160.3,3736.26 1177.94,3709.85 1190.1,3680.5 1196.3,3649.34 1196.3,3617.58 1190.1,3586.42 1177.94,3557.08 1168.48,3541.04 1169.26,3532.31 1172.46,3527.53 1177.23,3524.34 1182.87,3523.22 1493.12,3523.47 1503.16,3522.48 1512.78,3519.56 1521.66,3514.81 1531.4,3507.1 1536.12,3505.42 1655.74,3504.77 1661.26,3506.47 1664.52,3508.86 1667.93,3513.92 1668.99,3518.93 1669.52,3719.12 1674.82,3731.92 1684.61,3741.71 1697.41,3747.01 1704.56,3747.71 1928.34,3747.73 1934.11,3750 1938.17,3754.07 1940.32,3759.15 1940.23,3765.34 1942.98,3770.15 1971.99,3770.15 1975.28,3762.83 1982.84,3752.38 1993.11,3743.03 2005.18,3736.15 2017.95,3732.11 2030.29,3730.81 2149.53,3730.79 2163.33,3732.31 2175.6,3736.33 2187.58,3743.34 2197.47,3752.38 2205.03,3762.83 2208.32,3770.15 2237.33,3770.15 2240.08,3765.34 2239.99,3759.16 2242.14,3754.07 2246.2,3750 2251.51,3747.8 2322.57,3747.61 2327.29,3748.64 2332.06,3751.83 2335.25,3756.61 2336.28,3761.32 2336.3,3868.67 2334.96,3879.21 2328.83,3893.01 2322.99,3899.79 2309.39,3908.24 2293.74,3911.12 2188.96,3911.09 2184.24,3910.05 2180.17,3907.43 2176.7,3902.87 2175.16,3896.39 2176.31,3890.75 2180.26,3885.39 2193.74,3879 2209.3,3868.76 2222.56,3855.68 2233.02,3840.26 2239.87,3824.05 2237.33,3819.6 2208.32,3819.6 2204.76,3827.34 2197.47,3837.38 2186.79,3847 2175.6,3853.43 2163.33,3857.45 2149.53,3858.97 2030.79,3858.97 2017.95,3857.65 2004.72,3853.43 1992.73,3846.42 1982.84,3837.38 1975.55,3827.34 1971.99,3819.6 1944.15,3819.6 1940.44,3824.05 1947.29,3840.26 1957.75,3855.68 1971.02,3868.76 1986.58,3879 1996.78,3883.24 2000.77,3885.98 2003.56,3889.93 2004.89,3893.74 2004.87,3899.27 2002.69,3904.6 1998.22,3908.92 1990.42,3911.18 1815.74,3911.18 1798.86,3914.72 1781.9,3914.7 1765.51,3911.18 710.818,3911.18 705.184,3910.06 700.408,3906.87 697.216,3902.09 696.186,3897.38 703.604,3863.94 703.604,3841.48 699.222,3819.46 690.628,3798.71 678.15,3780.03 662.268,3764.15 643.594,3751.67 622.846,3743.08 600.818,3738.7 578.36,3738.7 556.332,3743.08 535.582,3751.67 516.854,3764.19 511.362,3769.28 506.108,3771.45 499.912,3771.33 492.99,3767.58 488.794,3759.89 488.51,3732.47 487.096,3721.33" style="stroke:rgb(0,0,0);stroke-width:1px;fill:none;stroke-opacity:1;stroke-linecap:round;stroke-linejoin:round;;fill:none"/>
<polyline points="400.998,1807.87 400.998,1099.21 402.4,1091.81 406.684,1085.08 414.074,1080.14 421.472,1078.74 448.266,1078.74 449.064,1072.96 452.992,1070.86 628.028,1071.22 630.148,1072.96 630.944,1075.59 630.944,1122.83 630.148,1125.46 627.142,1127.47 452.992,1127.56 449.064,1125.46 448.266,1119.68 441.944,1119.68 441.944,1314.96 448.266,1314.96 449.064,1309.18 452.992,1307.08 626.22,1307.08 630.148,1309.18 630.944,1315.29 645.104,1310.98 657.854,1310.72 666.712,1307.71 924.726,1307.71 930.36,1308.84 935.136,1312.03 971.38,1348.27 974.842,1353.93 975.36,1361.78 973.212,1366.86 969.866,1370.34 963.86,1373.12 939.384,1373.4 918.046,1377.32 911.032,1375.49 896.98,1366.8 887.364,1363.88 877.326,1362.9 666.712,1363.15 657.854,1360.14 645.1,1359.88 630.944,1355.57 630.148,1361.68 626.22,1363.78 452.992,1363.78 449.064,1361.68 448.266,1355.9 441.944,1355.9 441.944,1551.18 448.266,1551.18 449.064,1545.4 452.992,1543.31 626.22,1543.31 629.56,1544.69 630.944,1548.03 630.944,1595.27 630.148,1597.9 627.142,1599.91 452.992,1600 449.064,1597.9 448.266,1592.12 441.944,1592.12 441.944,1787.4 448.266,1787.4 449.064,1781.63 452.992,1779.53 626.22,1779.53 630.148,1781.63 630.944,1787.4 645.646,1783.32 657.854,1783.16 666.712,1780.15 1090.99,1780.15 1096.41,1781.19 1103.1,1786.51 1105.72,1794.88 1101.84,1807.16 1097.46,1829.18 1097.46,1851.65 1101.84,1873.67 1110.44,1894.42 1122.92,1913.09 1138.8,1928.97 1157.47,1941.45 1181.39,1951 1187.57,1955.99 1190.33,1964.52 1186.51,1985.19 1186.51,2007.67 1190.89,2029.7 1199.49,2050.45 1211.96,2069.13 1227.84,2085.01 1246.52,2097.48 1267.27,2106.08 1289.29,2110.46 1311.76,2110.46 1333.78,2106.08 1354.53,2097.48 1373.21,2085.01 1389.1,2069.11 1400.18,2052.97 1407.86,2048.79 1655.42,2048.07 1663.8,2051.51 1667.53,2056.32 1669.01,2062.74 1669.52,2262.43 1674.82,2275.22 1684.61,2285.01 1690.75,2288.29 1704.56,2291.02 1928.8,2291.11 1934.11,2293.31 1938.17,2297.38 1940.32,2302.46 1940.23,2308.65 1942.98,2313.46 1971.99,2313.46 1975.28,2306.14 1982.84,2295.68 1993.11,2286.33 2005.18,2279.46 2017.95,2275.42 2030.79,2274.09 2149.53,2274.09 2163.33,2275.62 2175.6,2279.63 2187.58,2286.64 2197.47,2295.68 2205.03,2306.14 2208.32,2313.46 2237.33,2313.46 2240.08,2308.65 2239.99,2302.46 2242.14,2297.38 2246.2,2293.31 2251.51,2291.11 2321.64,2290.82 2329.64,2293.18 2334.82,2299.1 2336.38,2305.55 2335.82,2563.56 2331.89,2570.37 2327.29,2573.4 2322.57,2574.43 2252.42,2574.33 2246.2,2572.04 2242.14,2567.97 2239.99,2562.89 2240.08,2556.7 2237.33,2551.89 2208.32,2551.89 2205.03,2559.21 2197.47,2569.67 2186.79,2579.29 2175.6,2585.72 2163.33,2589.73 2149.53,2591.26 2030.79,2591.26 2016.98,2589.73 2004.72,2585.72 1992.73,2578.71 1982.84,2569.67 1975.28,2559.21 1971.99,2551.89 1942.98,2551.89 1940.23,2556.7 1940.32,2562.89 1938.17,2567.98 1934.11,2572.04 1927.87,2574.33 1697.4,2575.04 1684.61,2580.33 1679.24,2584.75 1671.54,2596.26 1669.52,2602.92 1669.01,2802.61 1667.53,2809.02 1663.8,2813.84 1655.74,2817.27 1397.97,2816.84 1384.77,2819.01 1378.78,2818.38 1372.75,2814.79 1096.33,2538.02 1088.54,2531.62 1079.67,2526.88 1070.06,2523.96 1060.02,2522.98 673.816,2522.98 666.05,2518.91 662.702,2513.7 660.984,2464.97 655.692,2452.19 645.91,2442.41 633.134,2437.12 625.496,2436.37 544.132,2436.37 538.686,2435.31 533.666,2431.98 530.402,2426.92 529.516,2420.01 537.78,2398.13 538.768,2388.09 538.768,1930.7 537.78,1920.66 534.862,1911.04 530.126,1902.18 513.794,1884.81 509.874,1877.72 510.516,1868.98 514.88,1862.99 514.88,1836.22 452.992,1836.22 449.064,1834.12 448.266,1828.34 417.028,1827.84 409.724,1824.62 404.724,1819.62 402.4,1815.27 400.998,1807.87" style="stroke:rgb(236,176,59);stroke-width:9.448819;fill:none;stroke-opacity:0.5;stroke-linecap:round;stroke-linejoin:round;;fill:none"/>
<polyline points="400.998,1807.87 400.998,1099.21 402.4,1091.81 406.684,1085.08 414.074,1080.14 421.472,1078.74 448.266,1078.74 449.064,1072.96 452.992,1070.86 628.028,1071.22 630.148,1072.96 630.944,1075.59 630.944,1122.83 630.148,1125.46 627.142,1127.47 452.992,1127.56 449.064,1125.46 448.266,1119.68 441.944,1119.68 441.944,1314.96 448.266,1314.96 449.064,1309.18 452.992,1307.08 626.22,1307.08 630.148,1309.18 630.944,1315.29 645.104,1310.98 657.854,1310.72 666.712,1307.71 924.726,1307.71 930.36,1308.84 935.136,1312.03 971.38,1348.27 974.842,1353.93 975.36,1361.78 973.212,1366.86 969.866,1370.34 963.86,1373.12 939.384,1373.4 918.046,1377.32 911.032,1375.49 896.98,1366.8 887.364,1363.88 877.326,1362.9 666.712,1363.15 657.854,1360.14 645.1,1359.88 630.944,1355.57 630.148,1361.68 626.22,1363.78 452.992,1363.78 449.064,1361.68 448.266,1355.9 441.944,1355.9 441.944,1551.18 448.266,1551.18 449.064,1545.4 452.992,1543.31 626.22,1543.31 629.56,1544.69 630.944,1548.03 630.944,1595.27 630.148,1597.9 627.142,1599.91 452.992,1600 449.064,1597.9 448.266,1592.12 441.944,1592.12 441.944,1787.4 448.266,1787.4 449.064,1781.63 452.992,1779.53 626.22,1779.53 630.148,1781.63 630.944,1787.4 645.646,1783.32 657.854,1783.16 666.712,1780.15 1090.99,1780.15 1096.41,1781.19 1103.1,1786.51 1105.72,1794.88 1101.84,1807.16 1097.46,1829.18 1097.46,1851.65 1101.84,1873.67 1110.44,1894.42 1122.92,1913.09 1138.8,1928.97 1157.47,1941.45 1181.39,1951 1187.57,1955.99 1190.33,1964.52 1186.51,1985.19 1186.51,2007.67 1190.89,2029.7 1199.49,2050.45 1211.96,2069.13 1227.84,2085.01 1246.52,2097.48 1267.27,2106.08 1289.29,2110.46 1311.76,2110.46 1333.78,2106.08 1354.53,2097.48 1373.21,2085.01 1389.1,2069.11 1400.18,2052.97 1407.86,2048.79 1655.42,2048.07 1663.8,2051.51 1667.53,2056.32 1669.01,2062.74 1669.52,2262.43 1674.82,2275.22 1684.61,2285.01 1690.75,2288.29 1704.56,2291.02 1928.8,2291.11 1934.11,2293.31 1938.17,2297.38 1940.32,2302.46 1940.23,2308.65 1942.98,2313.46 1971.99,2313.46 1975.28,2306.14 1982.84,2295.68 1993.11,2286.33 2005.18,2279.46 2017.95,2275.42 2030.79,2274.09 2149.53,2274.09 2163.33,2275.62 2175.6,2279.63 2187.58,2286.64 2197.47,2295.68 2205.03,2306.14 2208.32,2313.46 2237.33,2313.46 2240.08,2308.65 2239.99,2302.46 2242.14,2297.38 2246.2,2293.31 2251.51,2291.11 2321.64,2290.82 2329.64,2293.18 2334.82,2299.1 2336.38,2305.55 2335.82,2563.56 2331.89,2570.37 2327.29,2573.4 2322.57,2574.43 2252.42,2574.33 2246.2,2572.04 2242.14,2567.97 2239.99,2562.89 2240.08,2556.7 2237.33,2551.89 2208.32,2551.89 2205.03,2559.21 2197.47,2569.67 2186.79,2579.29 2175.6,2585.72 2163.33,2589.73 2149.53,2591.26 2030.79,2591.26 2016.98,2589.73 2004.72,2585.72 1992.73,2578.71 1982.84,2569.67 1975.28,2559.21 1971.99,2551.89 1942.98,2551.89 1940.23,2556.7 1940.32,2562.89 1938.17,2567.98 1934.11,2572.04 1927.87,2574.33 1697.4,2575.04 1684.61,2580.33 1679.24,2584.75 1671.54,2596.26 1669.52,2602.92 1669.01,2802.61 1667.53,2809.02 1663.8,2813.84 1655.74,2817.27 1397.97,2816.84 1384.77,2819.01 1378.78,2818.38 1372.75,2814.79 1096.33,2538.02 1088.54,2531.62 1079.67,2526.88 1070.06,2523.96 1060.02,2522.98 673.816,2522.98 666.05,2518.91 662.702,2513.7 660.984,2464.97 655.692,2452.19 645.91,2442.41 633.134,2437.12 625.496,2436.37 544.132,2436.37 538.686,2435.31 533.666,2431.98 530.402,2426.92 529.516,2420.01 537.78,2398.13 538.768,2388.09 538.768,1930.7 537.78,1920.66 534.862,1911.04 530.126,1902.18 513.794,1884.81 509.874,1877.72 510.516,1868.98 514.88,1862.99 514.88,1836.22 452.992,1836.22 449.064,1834.12 448.266,1828.34 417.028,1827.84 409.724,1824.62 404.724,1819.62 402.4,1815.27 400.998,1807.87" style="stroke:rgb(0,0,0);stroke-width:1px;fill:none;stroke-opacity:1;stroke-linecap:round;stroke-linejoin:round;;fill:none"/>
<polyline points="564.33,1862.89 564.33,1836.22 626.22,1836.22 628.844,1835.42 630.798,1832.6 653.514,1832.6 660.598,1839.68 655.692,1851.19 651.284,1856.56 639.782,1864.24 633.134,1866.26 568.228,1866.79 564.33,1862.89" style="stroke:rgb(236,176,59);stroke-width:9.448819;fill:none;stroke-opacity:0.5;stroke-linecap:round;stroke-linejoin:round;;fill:none"/>
<polyline points="564.33,1862.89 564.33,1836.22 626.22,1836.22 628.844,1835.42 630.798,1832.6 653.514,1832.6 660.598,1839.68 655.692,1851.19 651.284,1856.56 639.782,1864.24 633.134,1866.26 568.228,1866.79 564.33,1862.89" style="stroke:rgb(0,0,0);stroke-width:1px;fill:none;stroke-opacity:1;stroke-linecap:round;stroke-linejoin:round;;fill:none"/>
<polyline points="2114.88,2463.07 2114.88,2402.28 2149.53,2402.28 2163.33,2400.75 2175.6,2396.74 2187.58,2389.73 2197.47,2380.69 2205.03,2370.23 2208.32,2362.91 2237.33,2362.91 2239.87,2367.36 2233.02,2383.57 2222.56,2398.99 2209.28,2412.09 2194.39,2422.22 2191.18,2427 2190.04,2432.68 2191.18,2438.35 2194.39,2443.13 2209.28,2453.27 2222.56,2466.36 2233.02,2481.78 2239.87,2497.99 2237.33,2502.44 2208.32,2502.44 2205.03,2495.12 2197.47,2484.66 2187.58,2475.62 2175.6,2468.61 2163.33,2464.6 2149.53,2463.07 2114.88,2463.07" style="stroke:rgb(236,176,59);stroke-width:9.448819;fill:none;stroke-opacity:0.5;stroke-linecap:round;stroke-linejoin:round;;fill:none"/>
<polyline points="2114.88,2463.07 2114.88,2402.28 2149.53,2402.28 2163.33,2400.75 2175.6,2396.74 2187.58,2389.73 2197.47,2380.69 2205.03,2370.23 2208.32,2362.91 2237.33,2362.91 2239.87,2367.36 2233.02,2383.57 2222.56,2398.99 2209.28,2412.09 2194.39,2422.22 2191.18,2427 2190.04,2432.68 2191.18,2438.35 2194.39,2443.13 2209.28,2453.27 2222.56,2466.36 2233.02,2481.78 2239.87,2497.99 2237.33,2502.44 2208.32,2502.44 2205.03,2495.12 2197.47,2484.66 2187.58,2475.62 2175.6,2468.61 2163.33,2464.6 2149.53,2463.07 2114.88,2463.07" style="stroke:rgb(0,0,0);stroke-width:1px;fill:none;stroke-opacity:1;stroke-linecap:round;stroke-linejoin:round;;fill:none"/>
<polyline points="1960.37,2502.44 1960.37,2463.78 1971.03,2453.26 1985.92,2443.13 1989.13,2438.35 1990.27,2432.68 1989.13,2427 1985.92,2422.22 1971.03,2412.09 1960.37,2401.57 1960.37,2362.91 1971.99,2362.91 1975.28,2370.23 1983.15,2381.07 1993.53,2390.31 2005.18,2396.92 2017.95,2400.96 2030.29,2402.26 2065.43,2402.28 2065.43,2463.07 2030.29,2463.09 2017.95,2464.39 2005.18,2468.43 1993.11,2475.31 1983.5,2483.93 1975.28,2495.12 1971.99,2502.44 1960.37,2502.44" style="stroke:rgb(236,176,59);stroke-width:9.448819;fill:none;stroke-opacity:0.5;stroke-linecap:round;stroke-linejoin:round;;fill:none"/>
<polyline points="1960.37,2502.44 1960.37,2463.78 1971.03,2453.26 1985.92,2443.13 1989.13,2438.35 1990.27,2432.68 1989.13,2427 1985.92,2422.22 1971.03,2412.09 1960.37,2401.57 1960.37,2362.91 1971.99,2362.91 1975.28,2370.23 1983.15,2381.07 1993.53,2390.31 2005.18,2396.92 2017.95,2400.96 2030.29,2402.26 2065.43,2402.28 2065.43,2463.07 2030.29,2463.09 2017.95,2464.39 2005.18,2468.43 1993.11,2475.31 1983.5,2483.93 1975.28,2495.12 1971.99,2502.44 1960.37,2502.44" style="stroke:rgb(0,0,0);stroke-width:1px;fill:none;stroke-opacity:1;stroke-linecap:round;stroke-linejoin:round;;fill:none"/>
<polyline points="1205.76,561.693 1205.76,440.377 1207.52,432.123 1211.76,425.899 1341.28,296.379 1341.02,237.315 1342.64,231.051 1346.25,224.999 1353.29,219.103 1358.56,216.921 1436.06,215.983 1445.82,218.039 1454.86,224.819 1459.45,233.419 1460.47,263.737 1952.59,263.737 1953.73,257.005 1958.37,248.697 1965.84,242.801 1975,240.213 2213.61,240.139 2222.05,241.819 2228.63,245.657 2233.44,250.965 2236.51,257.441 2237.56,264.527 2237.56,303.897 2235.86,312.801 2233.17,317.831 2227.08,323.917 2222.05,326.605 2213.61,328.283 1975,328.211 1965.84,325.623 1958.37,319.725 1953.73,311.419 1952.59,304.683 1456.46,304.683 1449.62,311.869 1438.91,315.797 1379.58,315.981 1246.71,448.857 1246.71,541.219 1253.03,541.219 1253.83,535.051 1257.75,532.951 1389.48,533.311 1391.6,535.051 1392.4,537.677 1391.6,588.333 1387.68,590.433 1256.83,590.341 1253.39,587.515 1253.03,582.165 1225.77,582.141 1215.26,578.953 1208.97,572.669 1205.76,561.693" style="stroke:rgb(251,50,175);stroke-width:9.448819;fill:none;stroke-opacity:0.5;stroke-linecap:round;stroke-linejoin:round;;fill:none"/>
<polyline points="1205.76,561.693 1205.76,440.377 1207.52,432.123 1211.76,425.899 1341.28,296.379 1341.02,237.315 1342.64,231.051 1346.25,224.999 1353.29,219.103 1358.56,216.921 1436.06,215.983 1445.82,218.039 1454.86,224.819 1459.45,233.419 1460.47,263.737 1952.59,263.737 1953.73,257.005 1958.37,248.697 1965.84,242.801 1975,240.213 2213.61,240.139 2222.05,241.819 2228.63,245.657 2233.44,250.965 2236.51,257.441 2237.56,264.527 2237.56,303.897 2235.86,312.801 2233.17,317.831 2227.08,323.917 2222.05,326.605 2213.61,328.283 1975,328.211 1965.84,325.623 1958.37,319.725 1953.73,311.419 1952.59,304.683 1456.46,304.683 1449.62,311.869 1438.91,315.797 1379.58,315.981 1246.71,448.857 1246.71,541.219 1253.03,541.219 1253.83,535.051 1257.75,532.951 1389.48,533.311 1391.6,535.051 1392.4,537.677 1391.6,588.333 1387.68,590.433 1256.83,590.341 1253.39,587.515 1253.03,582.165 1225.77,582.141 1215.26,578.953 1208.97,572.669 1205.76,561.693" style="stroke:rgb(0,0,0);stroke-width:1px;fill:none;stroke-opacity:1;stroke-linecap:round;stroke-linejoin:round;;fill:none"/>
<polyline points="448.266,1752.75 448.266,1705.51 449.65,1702.17 452.992,1700.79 626.22,1700.79 630.148,1702.89 630.944,1708.66 1257.06,1708.68 1264.85,1710.42 1271.07,1714.65 1360.75,1804.33 1392.52,1804.33 1392.88,1795.43 1394.62,1793.31 1397.24,1792.52 1651.02,1792.88 1653.14,1794.62 1653.94,1797.24 1653.94,1852.36 1652.55,1855.7 1649.21,1857.08 1397.24,1857.08 1394.62,1856.29 1392.88,1854.17 1392.52,1845.27 1347.82,1844.77 1337.79,1839.28 1248.12,1749.6 630.944,1749.6 630.148,1755.38 626.22,1757.48 452.992,1757.48 449.65,1756.09 448.266,1752.75" style="stroke:rgb(60,84,236);stroke-width:9.448819;fill:none;stroke-opacity:0.5;stroke-linecap:round;stroke-linejoin:round;;fill:none"/>
<polyline points="448.266,1752.75 448.266,1705.51 449.65,1702.17 452.992,1700.79 626.22,1700.79 630.148,1702.89 630.944,1708.66 1257.06,1708.68 1264.85,1710.42 1271.07,1714.65 1360.75,1804.33 1392.52,1804.33 1392.88,1795.43 1394.62,1793.31 1397.24,1792.52 1651.02,1792.88 1653.14,1794.62 1653.94,1797.24 1653.94,1852.36 1652.55,1855.7 1649.21,1857.08 1397.24,1857.08 1394.62,1856.29 1392.88,1854.17 1392.52,1845.27 1347.82,1844.77 1337.79,1839.28 1248.12,1749.6 630.944,1749.6 630.148,1755.38 626.22,1757.48 452.992,1757.48 449.65,1756.09 448.266,1752.75" style="stroke:rgb(0,0,0);stroke-width:1px;fill:none;stroke-opacity:1;stroke-linecap:round;stroke-linejoin:round;;fill:none"/>
<polyline points="1128.01,1840.42 1129.76,1857.28 1135.05,1873.9 1144.27,1889.86 1155.63,1902.44 1169.33,1912.43 1185.69,1919.79 1202.27,1923.35 1220.69,1923.35 1237.27,1919.79 1253.63,1912.43 1267.33,1902.44 1278.69,1889.86 1287.74,1874.35 1292.54,1860.89 1353.98,1921.86 1358.33,1924.18 1365.26,1925.56 1392.52,1925.59 1392.88,1934.48 1396.32,1937.31 1649.21,1937.4 1651.84,1936.6 1653.85,1933.6 1653.94,1877.56 1653.14,1874.93 1650.13,1872.92 1397.24,1872.83 1394.62,1873.63 1392.88,1875.75 1392.52,1884.64 1374.2,1884.64 1312.77,1823.67 1304.56,1820.27 1292.02,1819.94 1287.74,1806.48 1279.27,1791.77 1267.33,1778.39 1252.77,1767.91 1237.27,1761.04 1220.69,1757.49 1202.75,1757.41 1185.69,1761.04 1169.33,1768.4 1155.63,1778.39 1143.69,1791.77 1135.23,1806.47 1129.97,1822.58 1128.01,1840.42" style="stroke:rgb(24,219,92);stroke-width:9.448819;fill:none;stroke-opacity:0.5;stroke-linecap:round;stroke-linejoin:round;;fill:none"/>
<polyline points="1128.01,1840.42 1129.76,1857.28 1135.05,1873.9 1144.27,1889.86 1155.63,1902.44 1169.33,1912.43 1185.69,1919.79 1202.27,1923.35 1220.69,1923.35 1237.27,1919.79 1253.63,1912.43 1267.33,1902.44 1278.69,1889.86 1287.74,1874.35 1292.54,1860.89 1353.98,1921.86 1358.33,1924.18 1365.26,1925.56 1392.52,1925.59 1392.88,1934.48 1396.32,1937.31 1649.21,1937.4 1651.84,1936.6 1653.85,1933.6 1653.94,1877.56 1653.14,1874.93 1650.13,1872.92 1397.24,1872.83 1394.62,1873.63 1392.88,1875.75 1392.52,1884.64 1374.2,1884.64 1312.77,1823.67 1304.56,1820.27 1292.02,1819.94 1287.74,1806.48 1279.27,1791.77 1267.33,1778.39 1252.77,1767.91 1237.27,1761.04 1220.69,1757.49 1202.75,1757.41 1185.69,1761.04 1169.33,1768.4 1155.63,1778.39 1143.69,1791.77 1135.23,1806.47 1129.97,1822.58 1128.01,1840.42" style="stroke:rgb(0,0,0);stroke-width:1px;fill:none;stroke-opacity:1;stroke-linecap:round;stroke-linejoin:round;;fill:none"/>
<polyline points="919.716,936.179 922.192,927.767 926.254,923.705 931.552,921.509 972.77,921.225 987.068,918.455 998.566,910.773 1006.25,899.273 1009.02,884.983 1009.02,838.399 1008.27,830.761 1002.2,815.917 1001.65,810.249 1008.27,792.621 1009.02,784.983 1008.11,725.203 1011.48,717.873 1019.14,713.157 1160.49,712.715 1168.67,715.197 1172.73,719.259 1174.93,724.553 1174.96,761.657 1175.95,771.695 1178.87,781.311 1183.6,790.175 1189.98,797.945 1197.75,804.321 1206.65,809.081 1216.26,812.289 1220.5,815.735 1223.9,823.581 1222.73,833.349 1226.35,836.967 1253.1,836.967 1254.41,834.335 1257.75,832.951 1387.68,832.951 1391.02,834.335 1392.33,836.967 1396.92,836.967 1400.19,833.693 1400.19,477.389 1358.56,476.463 1349.37,471.549 1342.64,462.333 1340.88,454.921 1340.92,399.303 1342.64,392.469 1345.93,386.893 1352.03,381.275 1359.98,377.983 1365.2,377.401 1438.91,377.587 1449.02,381.171 1453.63,384.893 1458.77,392.905 1460.47,402.675 1487.15,402.675 1491.09,398.737 1490.51,375.209 1488.49,368.561 1480.78,356.341 1479.4,348.475 1481.21,342.757 1483.6,339.587 1487.72,336.673 1493.55,335.259 1924.71,335.233 1929.8,336.145 1934.21,338.717 1950.85,353.257 1953.87,358.667 1954.46,364.155 1951.31,372.107 1937.94,383.023 1931.09,391.377 1925.99,400.909 1922.85,411.249 1921.73,422.727 1922.56,480.079 1920.12,484.737 1813.7,591.033 1807.3,598.829 1802.57,607.691 1799.65,617.309 1798.66,627.349 1798.89,681.243 1797.46,687.093 1793.81,691.881 1788.54,694.805 1783.51,695.447 1767.17,690.765 1755.73,689.639 1528.83,689.639 1517.35,690.769 1507.01,693.907 1497.48,699.001 1489.13,705.855 1482.27,714.211 1477.17,723.743 1474.04,734.085 1472.91,745.563 1472.91,822.857 1474.04,834.335 1477.18,844.709 1482.68,855.491 1483.32,861.109 1480.89,868.145 1469.84,884.685 1461.25,905.433 1456.86,927.461 1457.76,954.421 1553.34,1050 1595.73,1050 1604.14,1048.32 1624.89,1039.73 1643.56,1027.25 1659.44,1011.37 1669.54,996.259 1675.73,991.035 1681.78,989.715 1719.49,989.965 1729.53,988.977 1739.15,986.059 1748.01,981.321 1755.81,974.921 1886.17,844.563 1892.56,836.765 1897.3,827.901 1900.22,818.285 1901.21,808.247 1900.96,666.717 1902,661.311 1905.28,656.317 1913.17,652.225 1920.07,652.677 1925.29,655.581 1937.55,668.013 1950.33,673.307 1957.95,674.059 2066.43,673.831 2070.31,669.943 2070.31,643.263 1974.42,643.137 1967.17,641.211 1959.36,635.773 1954.58,628.617 1952.65,621.371 1952.52,579.499 1955.46,567.879 1962.99,559.467 1969.84,556.129 1976.93,555.077 2213.15,555.077 2222.05,556.779 2227.08,559.467 2233.68,566.323 2237.01,574.447 2264.23,574.447 2268.2,570.485 2267.6,552.885 2265.58,546.235 2257.9,534.737 2245.03,524.945 2241.88,516.999 2242.46,511.513 2245.13,506.485 2252.1,500.401 2258.99,492.007 2264.08,482.473 2267.22,472.131 2268.35,460.653 2268.35,422.729 2267.22,411.251 2264.08,400.909 2258.99,391.375 2252.13,383.023 2239.21,372.629 2235.63,364.387 2236.2,358.669 2238.77,353.787 2252.13,342.881 2258.99,334.527 2264.08,324.993 2267.22,314.651 2268.35,303.173 2268.35,265.249 2267.22,253.771 2264.08,243.429 2258.99,233.897 2252.13,225.543 2243.78,218.687 2234.24,213.591 2223.9,210.453 2212.42,209.323 1977.65,209.323 1966.17,210.453 1955.83,213.591 1946.3,218.687 1932.5,230.939 1924.71,233.187 1502.13,233.187 1496.88,232.219 1490.77,227.809 1481.87,209.695 1478.05,204.673 1476.29,196.381 1479.07,189.023 1484.44,184.409 1492.41,182.941 1507.01,189.475 1517.35,192.613 1528.83,193.743 1755.73,193.743 1767.21,192.613 1777.55,189.477 1787.08,184.383 1795.44,177.527 1802.29,169.171 1807.39,159.639 1810.53,149.297 1811.66,137.813 1811.9,60.7349 1815.81,53.1409 1823.51,48.9429 2292.34,48.6589 2303.44,49.8689 2312.01,52.6949 2322.88,59.9249 2328.67,66.5929 2332.46,73.2369 2335.32,82.3809 2336.38,92.3489 2336.38,1103.11 2333.89,1111.29 2329.43,1115.59 2321.64,1117.83 2251.51,1117.55 2246.2,1115.35 2242.14,1111.28 2239.99,1106.19 2240.08,1100.01 2237.33,1095.19 2208.32,1095.19 2205.03,1102.52 2197.47,1112.97 2187.58,1122.01 2175.6,1129.02 2163.33,1133.04 2149.53,1134.57 2030.29,1134.54 2017.95,1133.24 2005.18,1129.2 1993.11,1122.32 1982.84,1112.97 1975.28,1102.52 1971.99,1095.19 1942.98,1095.19 1940.23,1100.01 1940.32,1106.2 1938.17,1111.28 1934.11,1115.35 1926.39,1117.81 1697.41,1118.34 1690.75,1120.36 1679.24,1128.06 1671.54,1139.57 1669.52,1146.22 1669.01,1345.92 1667.53,1352.33 1663.8,1357.15 1655.74,1360.58 1397.97,1360.15 1381.78,1362.33 1374.13,1359.25 1023.49,1008.48 1015.7,1002.08 1006.83,997.347 997.212,994.429 975.04,993.475 969.278,991.213 924.034,946.369 920.832,941.583 919.716,936.179" style="stroke:rgb(2,26,254);stroke-width:9.448819;fill:none;stroke-opacity:0.5;stroke-linecap:round;stroke-linejoin:round;;fill:none"/>
<polyline points="919.716,936.179 922.192,927.767 926.254,923.705 931.552,921.509 972.77,921.225 987.068,918.455 998.566,910.773 1006.25,899.273 1009.02,884.983 1009.02,838.399 1008.27,830.761 1002.2,815.917 1001.65,810.249 1008.27,792.621 1009.02,784.983 1008.11,725.203 1011.48,717.873 1019.14,713.157 1160.49,712.715 1168.67,715.197 1172.73,719.259 1174.93,724.553 1174.96,761.657 1175.95,771.695 1178.87,781.311 1183.6,790.175 1189.98,797.945 1197.75,804.321 1206.65,809.081 1216.26,812.289 1220.5,815.735 1223.9,823.581 1222.73,833.349 1226.35,836.967 1253.1,836.967 1254.41,834.335 1257.75,832.951 1387.68,832.951 1391.02,834.335 1392.33,836.967 1396.92,836.967 1400.19,833.693 1400.19,477.389 1358.56,476.463 1349.37,471.549 1342.64,462.333 1340.88,454.921 1340.92,399.303 1342.64,392.469 1345.93,386.893 1352.03,381.275 1359.98,377.983 1365.2,377.401 1438.91,377.587 1449.02,381.171 1453.63,384.893 1458.77,392.905 1460.47,402.675 1487.15,402.675 1491.09,398.737 1490.51,375.209 1488.49,368.561 1480.78,356.341 1479.4,348.475 1481.21,342.757 1483.6,339.587 1487.72,336.673 1493.55,335.259 1924.71,335.233 1929.8,336.145 1934.21,338.717 1950.85,353.257 1953.87,358.667 1954.46,364.155 1951.31,372.107 1937.94,383.023 1931.09,391.377 1925.99,400.909 1922.85,411.249 1921.73,422.727 1922.56,480.079 1920.12,484.737 1813.7,591.033 1807.3,598.829 1802.57,607.691 1799.65,617.309 1798.66,627.349 1798.89,681.243 1797.46,687.093 1793.81,691.881 1788.54,694.805 1783.51,695.447 1767.17,690.765 1755.73,689.639 1528.83,689.639 1517.35,690.769 1507.01,693.907 1497.48,699.001 1489.13,705.855 1482.27,714.211 1477.17,723.743 1474.04,734.085 1472.91,745.563 1472.91,822.857 1474.04,834.335 1477.18,844.709 1482.68,855.491 1483.32,861.109 1480.89,868.145 1469.84,884.685 1461.25,905.433 1456.86,927.461 1457.76,954.421 1553.34,1050 1595.73,1050 1604.14,1048.32 1624.89,1039.73 1643.56,1027.25 1659.44,1011.37 1669.54,996.259 1675.73,991.035 1681.78,989.715 1719.49,989.965 1729.53,988.977 1739.15,986.059 1748.01,981.321 1755.81,974.921 1886.17,844.563 1892.56,836.765 1897.3,827.901 1900.22,818.285 1901.21,808.247 1900.96,666.717 1902,661.311 1905.28,656.317 1913.17,652.225 1920.07,652.677 1925.29,655.581 1937.55,668.013 1950.33,673.307 1957.95,674.059 2066.43,673.831 2070.31,669.943 2070.31,643.263 1974.42,643.137 1967.17,641.211 1959.36,635.773 1954.58,628.617 1952.65,621.371 1952.52,579.499 1955.46,567.879 1962.99,559.467 1969.84,556.129 1976.93,555.077 2213.15,555.077 2222.05,556.779 2227.08,559.467 2233.68,566.323 2237.01,574.447 2264.23,574.447 2268.2,570.485 2267.6,552.885 2265.58,546.235 2257.9,534.737 2245.03,524.945 2241.88,516.999 2242.46,511.513 2245.13,506.485 2252.1,500.401 2258.99,492.007 2264.08,482.473 2267.22,472.131 2268.35,460.653 2268.35,422.729 2267.22,411.251 2264.08,400.909 2258.99,391.375 2252.13,383.023 2239.21,372.629 2235.63,364.387 2236.2,358.669 2238.77,353.787 2252.13,342.881 2258.99,334.527 2264.08,324.993 2267.22,314.651 2268.35,303.173 2268.35,265.249 2267.22,253.771 2264.08,243.429 2258.99,233.897 2252.13,225.543 2243.78,218.687 2234.24,213.591 2223.9,210.453 2212.42,209.323 1977.65,209.323 1966.17,210.453 1955.83,213.591 1946.3,218.687 1932.5,230.939 1924.71,233.187 1502.13,233.187 1496.88,232.219 1490.77,227.809 1481.87,209.695 1478.05,204.673 1476.29,196.381 1479.07,189.023 1484.44,184.409 1492.41,182.941 1507.01,189.475 1517.35,192.613 1528.83,193.743 1755.73,193.743 1767.21,192.613 1777.55,189.477 1787.08,184.383 1795.44,177.527 1802.29,169.171 1807.39,159.639 1810.53,149.297 1811.66,137.813 1811.9,60.7349 1815.81,53.1409 1823.51,48.9429 2292.34,48.6589 2303.44,49.8689 2312.01,52.6949 2322.88,59.9249 2328.67,66.5929 2332.46,73.2369 2335.32,82.3809 2336.38,92.3489 2336.38,1103.11 2333.89,1111.29 2329.43,1115.59 2321.64,1117.83 2251.51,1117.55 2246.2,1115.35 2242.14,1111.28 2239.99,1106.19 2240.08,1100.01 2237.33,1095.19 2208.32,1095.19 2205.03,1102.52 2197.47,1112.97 2187.58,1122.01 2175.6,1129.02 2163.33,1133.04 2149.53,1134.57 2030.29,1134.54 2017.95,1133.24 2005.18,1129.2 1993.11,1122.32 1982.84,1112.97 1975.28,1102.52 1971.99,1095.19 1942.98,1095.19 1940.23,1100.01 1940.32,1106.2 1938.17,1111.28 1934.11,1115.35 1926.39,1117.81 1697.41,1118.34 1690.75,1120.36 1679.24,1128.06 1671.54,1139.57 1669.52,1146.22 1669.01,1345.92 1667.53,1352.33 1663.8,1357.15 1655.74,1360.58 1397.97,1360.15 1381.78,1362.33 1374.13,1359.25 1023.49,1008.48 1015.7,1002.08 1006.83,997.347 997.212,994.429 975.04,993.475 969.278,991.213 924.034,946.369 920.832,941.583 919.716,936.179" style="stroke:rgb(0,0,0);stroke-width:1px;fill:none;stroke-opacity:1;stroke-linecap:round;stroke-linejoin:round;;fill:none"/>
<polyline points="1222.73,890.035 1225.01,899.273 1228.28,905.401 1238.06,915.179 1244.19,918.455 1258.43,921.219 1294.08,921.017 1297.99,917.107 1297.99,890.433 1257.75,890.433 1254.41,889.049 1253.1,886.417 1226.35,886.417 1222.73,890.035" style="stroke:rgb(2,26,254);stroke-width:9.448819;fill:none;stroke-opacity:0.5;stroke-linecap:round;stroke-linejoin:round;;fill:none"/>
<polyline points="1222.73,890.035 1225.01,899.273 1228.28,905.401 1238.06,915.179 1244.19,918.455 1258.43,921.219 1294.08,921.017 1297.99,917.107 1297.99,890.433 1257.75,890.433 1254.41,889.049 1253.1,886.417 1226.35,886.417 1222.73,890.035" style="stroke:rgb(0,0,0);stroke-width:1px;fill:none;stroke-opacity:1;stroke-linecap:round;stroke-linejoin:round;;fill:none"/>
<polyline points="1347.44,917.107 1347.44,890.433 1380.67,890.433 1380.67,921.183 1351.35,921.017 1347.44,917.107" style="stroke:rgb(2,26,254);stroke-width:9.448819;fill:none;stroke-opacity:0.5;stroke-linecap:round;stroke-linejoin:round;;fill:none"/>
<polyline points="1347.44,917.107 1347.44,890.433 1380.67,890.433 1380.67,921.183 1351.35,921.017 1347.44,917.107" style="stroke:rgb(0,0,0);stroke-width:1px;fill:none;stroke-opacity:1;stroke-linecap:round;stroke-linejoin:round;;fill:none"/>
<polyline points="1421.62,895.327 1421.62,888.959 1422.69,890.035 1421.62,895.327" style="stroke:rgb(2,26,254);stroke-width:9.448819;fill:none;stroke-opacity:0.5;stroke-linecap:round;stroke-linejoin:round;;fill:none"/>
<polyline points="1421.62,895.327 1421.62,888.959 1422.69,890.035 1421.62,895.327" style="stroke:rgb(0,0,0);stroke-width:1px;fill:none;stroke-opacity:1;stroke-linecap:round;stroke-linejoin:round;;fill:none"/>
<polyline points="1441.14,508.085 1441.14,476.707 1447.97,474.281 1455,468.385 1458.77,461.895 1460.47,452.125 1487.15,452.125 1491.09,456.063 1490.51,479.589 1485.22,492.369 1480.81,497.739 1469.31,505.423 1462.66,507.441 1441.14,508.085" style="stroke:rgb(2,26,254);stroke-width:9.448819;fill:none;stroke-opacity:0.5;stroke-linecap:round;stroke-linejoin:round;;fill:none"/>
<polyline points="1441.14,508.085 1441.14,476.707 1447.97,474.281 1455,468.385 1458.77,461.895 1460.47,452.125 1487.15,452.125 1491.09,456.063 1490.51,479.589 1485.22,492.369 1480.81,497.739 1469.31,505.423 1462.66,507.441 1441.14,508.085" style="stroke:rgb(0,0,0);stroke-width:1px;fill:none;stroke-opacity:1;stroke-linecap:round;stroke-linejoin:round;;fill:none"/>
<polyline points="1940.44,1041.3 1942.98,1045.74 1971.99,1045.74 1975.28,1038.42 1983.5,1027.23 1993.11,1018.62 2004.72,1011.92 2017.95,1007.7 2030.79,1006.38 2050.17,1006.38 2074.56,981.983 2074.56,975.825 2022.18,975.825 2003.84,979.341 1986.58,986.349 1971.02,996.591 1957.75,1009.67 1947.29,1025.09 1940.44,1041.3" style="stroke:rgb(2,26,254);stroke-width:9.448819;fill:none;stroke-opacity:0.5;stroke-linecap:round;stroke-linejoin:round;;fill:none"/>
<polyline points="1940.44,1041.3 1942.98,1045.74 1971.99,1045.74 1975.28,1038.42 1983.5,1027.23 1993.11,1018.62 2004.72,1011.92 2017.95,1007.7 2030.79,1006.38 2050.17,1006.38 2074.56,981.983 2074.56,975.825 2022.18,975.825 2003.84,979.341 1986.58,986.349 1971.02,996.591 1957.75,1009.67 1947.29,1025.09 1940.44,1041.3" style="stroke:rgb(0,0,0);stroke-width:1px;fill:none;stroke-opacity:1;stroke-linecap:round;stroke-linejoin:round;;fill:none"/>
<polyline points="2108.07,1006.38 2112.3,1001.44 2115,994.905 2115.51,975.825 2158.13,975.825 2176.48,979.341 2193.74,986.349 2209.3,996.591 2222.56,1009.67 2233.02,1025.09 2239.87,1041.3 2237.33,1045.74 2208.32,1045.74 2205.03,1038.42 2197.47,1027.97 2187.58,1018.93 2175.6,1011.92 2163.33,1007.9 2149.53,1006.38 2108.07,1006.38" style="stroke:rgb(2,26,254);stroke-width:9.448819;fill:none;stroke-opacity:0.5;stroke-linecap:round;stroke-linejoin:round;;fill:none"/>
<polyline points="2108.07,1006.38 2112.3,1001.44 2115,994.905 2115.51,975.825 2158.13,975.825 2176.48,979.341 2193.74,986.349 2209.3,996.591 2222.56,1009.67 2233.02,1025.09 2239.87,1041.3 2237.33,1045.74 2208.32,1045.74 2205.03,1038.42 2197.47,1027.97 2187.58,1018.93 2175.6,1011.92 2163.33,1007.9 2149.53,1006.38 2108.07,1006.38" style="stroke:rgb(0,0,0);stroke-width:1px;fill:none;stroke-opacity:1;stroke-linecap:round;stroke-linejoin:round;;fill:none"/>
<polyline points="2119.76,669.943 2119.76,643.267 2217.45,642.865 2226.31,639.391 2231.54,634.845 2237.01,623.897 2264.23,623.897 2268.2,627.859 2267.6,645.457 2262.31,658.233 2252.53,668.013 2239.75,673.307 2123.65,673.831 2119.76,669.943" style="stroke:rgb(2,26,254);stroke-width:9.448819;fill:none;stroke-opacity:0.5;stroke-linecap:round;stroke-linejoin:round;;fill:none"/>
<polyline points="2119.76,669.943 2119.76,643.267 2217.45,642.865 2226.31,639.391 2231.54,634.845 2237.01,623.897 2264.23,623.897 2268.2,627.859 2267.6,645.457 2262.31,658.233 2252.53,668.013 2239.75,673.307 2123.65,673.831 2119.76,669.943" style="stroke:rgb(0,0,0);stroke-width:1px;fill:none;stroke-opacity:1;stroke-linecap:round;stroke-linejoin:round;;fill:none"/>
<polyline points="1487.42,938.693 1489.16,955.557 1494.63,972.641 1503.09,987.337 1514.68,1000.37 1529.59,1011.2 1545.09,1018.07 1562.16,1021.7 1579.61,1021.7 1596.2,1018.2 1613.03,1010.7 1626.73,1000.72 1638.09,988.135 1647.14,972.623 1651.43,959.165 1719.52,959.165 1726.92,957.763 1731.27,955.439 1864.41,822.759 1868.65,816.535 1870.41,808.283 1870.41,635.793 2020.41,485.787 2213.15,485.787 2220.23,484.735 2226.61,481.735 2234.68,472.883 2237.54,461.841 2237.51,421.313 2236.51,414.921 2233.44,408.445 2228.63,403.139 2223.11,399.769 2213.15,397.597 1976.93,397.597 1968.02,399.299 1961.53,403.065 1955.64,410.103 1952.7,419.155 1952.61,463.307 1956.39,474.541 1965.41,482.891 1835.46,612.837 1830.86,619.917 1829.46,627.315 1829.46,799.803 1711.05,918.219 1651.43,918.219 1647.14,904.761 1638.09,889.249 1626.73,876.665 1613.03,866.679 1596.2,859.185 1579.61,855.685 1562.16,855.685 1545.09,859.313 1529.59,866.185 1514.68,877.015 1503.09,890.047 1494.63,904.743 1489.16,921.827 1487.42,938.693" style="stroke:rgb(67,251,250);stroke-width:9.448819;fill:none;stroke-opacity:0.5;stroke-linecap:round;stroke-linejoin:round;;fill:none"/>
<polyline points="1487.42,938.693 1489.16,955.557 1494.63,972.641 1503.09,987.337 1514.68,1000.37 1529.59,1011.2 1545.09,1018.07 1562.16,1021.7 1579.61,1021.7 1596.2,1018.2 1613.03,1010.7 1626.73,1000.72 1638.09,988.135 1647.14,972.623 1651.43,959.165 1719.52,959.165 1726.92,957.763 1731.27,955.439 1864.41,822.759 1868.65,816.535 1870.41,808.283 1870.41,635.793 2020.41,485.787 2213.15,485.787 2220.23,484.735 2226.61,481.735 2234.68,472.883 2237.54,461.841 2237.51,421.313 2236.51,414.921 2233.44,408.445 2228.63,403.139 2223.11,399.769 2213.15,397.597 1976.93,397.597 1968.02,399.299 1961.53,403.065 1955.64,410.103 1952.7,419.155 1952.61,463.307 1956.39,474.541 1965.41,482.891 1835.46,612.837 1830.86,619.917 1829.46,627.315 1829.46,799.803 1711.05,918.219 1651.43,918.219 1647.14,904.761 1638.09,889.249 1626.73,876.665 1613.03,866.679 1596.2,859.185 1579.61,855.685 1562.16,855.685 1545.09,859.313 1529.59,866.185 1514.68,877.015 1503.09,890.047 1494.63,904.743 1489.16,921.827 1487.42,938.693" style="stroke:rgb(0,0,0);stroke-width:1px;fill:none;stroke-opacity:1;stroke-linecap:round;stroke-linejoin:round;;fill:none"/>
<polyline points="448.25,760.619 448.262,807.893 449.06,810.519 452.066,812.527 626.22,812.617 630.144,810.525 630.952,804.723 681.272,804.723 936.086,1059.5 941.966,1063.43 946.684,1064.86 978.732,1065.19 1354.75,1440.49 1365.26,1443.67 1392.52,1443.7 1392.88,1452.59 1394.62,1454.71 1397.24,1455.51 1649.21,1455.51 1653.14,1453.41 1653.94,1395.67 1653.14,1393.04 1650.13,1391.03 1397.24,1390.94 1394.62,1391.74 1392.88,1393.86 1392.52,1402.75 1374.2,1402.75 1001.69,1030.24 995.464,1026 990.746,1024.57 958.698,1024.24 700.73,766.989 689.752,763.777 630.952,763.777 630.144,757.977 626.22,755.885 452.974,755.893 449.634,757.277 448.25,760.619" style="stroke:rgb(170,58,251);stroke-width:9.448819;fill:none;stroke-opacity:0.5;stroke-linecap:round;stroke-linejoin:round;;fill:none"/>
<polyline points="448.25,760.619 448.262,807.893 449.06,810.519 452.066,812.527 626.22,812.617 630.144,810.525 630.952,804.723 681.272,804.723 936.086,1059.5 941.966,1063.43 946.684,1064.86 978.732,1065.19 1354.75,1440.49 1365.26,1443.67 1392.52,1443.7 1392.88,1452.59 1394.62,1454.71 1397.24,1455.51 1649.21,1455.51 1653.14,1453.41 1653.94,1395.67 1653.14,1393.04 1650.13,1391.03 1397.24,1390.94 1394.62,1391.74 1392.88,1393.86 1392.52,1402.75 1374.2,1402.75 1001.69,1030.24 995.464,1026 990.746,1024.57 958.698,1024.24 700.73,766.989 689.752,763.777 630.952,763.777 630.144,757.977 626.22,755.885 452.974,755.893 449.634,757.277 448.25,760.619" style="stroke:rgb(0,0,0);stroke-width:1px;fill:none;stroke-opacity:1;stroke-linecap:round;stroke-linejoin:round;;fill:none"/>
<polyline points="448.266,886.613 448.266,839.369 449.65,836.029 452.07,834.735 626.22,834.645 630.148,836.745 630.944,842.517 701.652,842.517 712.628,845.729 939.122,1071.51 958.606,1072.01 968.64,1077.5 1374.2,1483.07 1392.52,1483.07 1392.88,1474.17 1394.62,1472.05 1397.24,1471.26 1650.13,1471.35 1653.14,1473.36 1653.94,1475.98 1653.14,1533.73 1649.21,1535.82 1397.24,1535.82 1394.62,1535.03 1392.88,1532.91 1392.52,1524.01 1365.26,1523.99 1354.75,1520.8 945.684,1112.45 926.2,1111.95 916.166,1106.46 693.172,883.463 630.944,883.463 630.148,889.239 626.22,891.337 452.992,891.337 449.65,889.953 448.266,886.613" style="stroke:rgb(41,209,230);stroke-width:9.448819;fill:none;stroke-opacity:0.5;stroke-linecap:round;stroke-linejoin:round;;fill:none"/>
<polyline points="448.266,886.613 448.266,839.369 449.65,836.029 452.07,834.735 626.22,834.645 630.148,836.745 630.944,842.517 701.652,842.517 712.628,845.729 939.122,1071.51 958.606,1072.01 968.64,1077.5 1374.2,1483.07 1392.52,1483.07 1392.88,1474.17 1394.62,1472.05 1397.24,1471.26 1650.13,1471.35 1653.14,1473.36 1653.94,1475.98 1653.14,1533.73 1649.21,1535.82 1397.24,1535.82 1394.62,1535.03 1392.88,1532.91 1392.52,1524.01 1365.26,1523.99 1354.75,1520.8 945.684,1112.45 926.2,1111.95 916.166,1106.46 693.172,883.463 630.944,883.463 630.148,889.239 626.22,891.337 452.992,891.337 449.65,889.953 448.266,886.613" style="stroke:rgb(0,0,0);stroke-width:1px;fill:none;stroke-opacity:1;stroke-linecap:round;stroke-linejoin:round;;fill:none"/>
<polyline points="448.266,1201.57 448.266,1154.33 449.65,1150.99 452.992,1149.6 626.22,1149.6 630.148,1151.7 630.944,1157.48 959.818,1157.48 967.214,1158.88 974.294,1163.47 1374.2,1563.38 1392.52,1563.38 1392.88,1554.49 1394.62,1552.37 1397.24,1551.57 1650.13,1551.66 1653.14,1553.67 1653.94,1556.3 1653.58,1613.22 1651.84,1615.34 1649.21,1616.14 1397.24,1616.14 1394.62,1615.34 1392.88,1613.22 1392.52,1604.33 1365.26,1604.3 1354.75,1601.12 951.338,1198.42 630.944,1198.42 630.148,1204.2 626.22,1206.3 452.992,1206.3 449.65,1204.91 448.266,1201.57" style="stroke:rgb(5,60,124);stroke-width:9.448819;fill:none;stroke-opacity:0.5;stroke-linecap:round;stroke-linejoin:round;;fill:none"/>
<polyline points="448.266,1201.57 448.266,1154.33 449.65,1150.99 452.992,1149.6 626.22,1149.6 630.148,1151.7 630.944,1157.48 959.818,1157.48 967.214,1158.88 974.294,1163.47 1374.2,1563.38 1392.52,1563.38 1392.88,1554.49 1394.62,1552.37 1397.24,1551.57 1650.13,1551.66 1653.14,1553.67 1653.94,1556.3 1653.58,1613.22 1651.84,1615.34 1649.21,1616.14 1397.24,1616.14 1394.62,1615.34 1392.88,1613.22 1392.52,1604.33 1365.26,1604.3 1354.75,1601.12 951.338,1198.42 630.944,1198.42 630.148,1204.2 626.22,1206.3 452.992,1206.3 449.65,1204.91 448.266,1201.57" style="stroke:rgb(0,0,0);stroke-width:1px;fill:none;stroke-opacity:1;stroke-linecap:round;stroke-linejoin:round;;fill:none"/>
<polyline points="448.266,1280.31 448.266,1233.07 449.65,1229.73 452.992,1228.34 626.22,1228.34 630.148,1230.44 630.944,1236.22 951.96,1236.22 959.356,1237.62 966.436,1242.21 1367.92,1643.7 1392.52,1643.7 1392.88,1634.8 1394.62,1632.68 1397.24,1631.89 1650.13,1631.98 1653.14,1633.99 1653.94,1636.61 1653.58,1693.54 1651.84,1695.66 1649.21,1696.45 1397.24,1696.45 1394.62,1695.66 1392.88,1693.54 1392.52,1684.64 1358.98,1684.62 1348.46,1681.43 943.48,1277.16 630.944,1277.16 630.148,1282.94 626.22,1285.04 452.992,1285.04 449.65,1283.65 448.266,1280.31" style="stroke:rgb(148,117,216);stroke-width:9.448819;fill:none;stroke-opacity:0.5;stroke-linecap:round;stroke-linejoin:round;;fill:none"/>
<polyline points="448.266,1280.31 448.266,1233.07 449.65,1229.73 452.992,1228.34 626.22,1228.34 630.148,1230.44 630.944,1236.22 951.96,1236.22 959.356,1237.62 966.436,1242.21 1367.92,1643.7 1392.52,1643.7 1392.88,1634.8 1394.62,1632.68 1397.24,1631.89 1650.13,1631.98 1653.14,1633.99 1653.94,1636.61 1653.58,1693.54 1651.84,1695.66 1649.21,1696.45 1397.24,1696.45 1394.62,1695.66 1392.88,1693.54 1392.52,1684.64 1358.98,1684.62 1348.46,1681.43 943.48,1277.16 630.944,1277.16 630.148,1282.94 626.22,1285.04 452.992,1285.04 449.65,1283.65 448.266,1280.31" style="stroke:rgb(0,0,0);stroke-width:1px;fill:none;stroke-opacity:1;stroke-linecap:round;stroke-linejoin:round;;fill:none"/>
<polyline points="448.266,1674.01 448.266,1626.77 449.65,1623.43 452.992,1622.05 626.22,1622.05 630.148,1624.14 630.944,1629.92 657.74,1629.92 665.136,1631.32 671.872,1635.6 679.296,1643 1285.17,1643.02 1292.96,1644.75 1299.18,1648.99 1374.2,1724.01 1392.52,1724.01 1392.88,1715.12 1394.62,1713 1397.24,1712.2 1651.02,1712.56 1653.14,1714.3 1653.94,1716.93 1653.94,1772.05 1652.55,1775.39 1649.21,1776.77 1396.32,1776.68 1392.88,1773.85 1392.52,1764.96 1365.26,1764.93 1358.33,1763.56 1353.98,1761.23 1276.23,1683.94 670.816,1683.94 659.84,1680.73 649.26,1670.86 630.944,1670.86 630.148,1676.64 626.22,1678.74 452.992,1678.74 449.65,1677.35 448.266,1674.01" style="stroke:rgb(190,97,137);stroke-width:9.448819;fill:none;stroke-opacity:0.5;stroke-linecap:round;stroke-linejoin:round;;fill:none"/>
<polyline points="448.266,1674.01 448.266,1626.77 449.65,1623.43 452.992,1622.05 626.22,1622.05 630.148,1624.14 630.944,1629.92 657.74,1629.92 665.136,1631.32 671.872,1635.6 679.296,1643 1285.17,1643.02 1292.96,1644.75 1299.18,1648.99 1374.2,1724.01 1392.52,1724.01 1392.88,1715.12 1394.62,1713 1397.24,1712.2 1651.02,1712.56 1653.14,1714.3 1653.94,1716.93 1653.94,1772.05 1652.55,1775.39 1649.21,1776.77 1396.32,1776.68 1392.88,1773.85 1392.52,1764.96 1365.26,1764.93 1358.33,1763.56 1353.98,1761.23 1276.23,1683.94 670.816,1683.94 659.84,1680.73 649.26,1670.86 630.944,1670.86 630.148,1676.64 626.22,1678.74 452.992,1678.74 449.65,1677.35 448.266,1674.01" style="stroke:rgb(0,0,0);stroke-width:1px;fill:none;stroke-opacity:1;stroke-linecap:round;stroke-linejoin:round;;fill:none"/>
</svg>
