G04 #@! TF.GenerationSoftware,KiCad,Pcbnew,(5.1.0)-1*
G04 #@! TF.CreationDate,2020-09-20T19:40:15+01:00*
G04 #@! TF.ProjectId,Temp Top Board,54656d70-2054-46f7-9020-426f6172642e,-*
G04 #@! TF.SameCoordinates,Original*
G04 #@! TF.FileFunction,Copper,L2,Bot*
G04 #@! TF.FilePolarity,Positive*
%FSLAX46Y46*%
G04 Gerber Fmt 4.6, Leading zero omitted, Abs format (unit mm)*
G04 Created by KiCad (PCBNEW (5.1.0)-1) date 2020-09-20 19:40:15*
%MOMM*%
%LPD*%
G04 APERTURE LIST*
%ADD10C,0.150000*%
%ADD11C,1.200000*%
%ADD12O,1.750000X1.200000*%
%ADD13R,3.000000X3.000000*%
%ADD14C,3.000000*%
%ADD15R,1.700000X1.700000*%
%ADD16O,1.700000X1.700000*%
%ADD17O,1.200000X1.750000*%
%ADD18R,1.600000X1.600000*%
%ADD19C,1.600000*%
%ADD20C,1.700000*%
%ADD21O,1.700000X2.000000*%
%ADD22C,1.150000*%
%ADD23R,1.320800X0.558800*%
%ADD24R,2.000000X1.905000*%
%ADD25O,2.000000X1.905000*%
%ADD26C,0.400000*%
%ADD27C,1.000000*%
%ADD28C,0.254000*%
G04 APERTURE END LIST*
D10*
G36*
X157899505Y-107151204D02*
G01*
X157923773Y-107154804D01*
X157947572Y-107160765D01*
X157970671Y-107169030D01*
X157992850Y-107179520D01*
X158013893Y-107192132D01*
X158033599Y-107206747D01*
X158051777Y-107223223D01*
X158068253Y-107241401D01*
X158082868Y-107261107D01*
X158095480Y-107282150D01*
X158105970Y-107304329D01*
X158114235Y-107327428D01*
X158120196Y-107351227D01*
X158123796Y-107375495D01*
X158125000Y-107399999D01*
X158125000Y-108100001D01*
X158123796Y-108124505D01*
X158120196Y-108148773D01*
X158114235Y-108172572D01*
X158105970Y-108195671D01*
X158095480Y-108217850D01*
X158082868Y-108238893D01*
X158068253Y-108258599D01*
X158051777Y-108276777D01*
X158033599Y-108293253D01*
X158013893Y-108307868D01*
X157992850Y-108320480D01*
X157970671Y-108330970D01*
X157947572Y-108339235D01*
X157923773Y-108345196D01*
X157899505Y-108348796D01*
X157875001Y-108350000D01*
X156624999Y-108350000D01*
X156600495Y-108348796D01*
X156576227Y-108345196D01*
X156552428Y-108339235D01*
X156529329Y-108330970D01*
X156507150Y-108320480D01*
X156486107Y-108307868D01*
X156466401Y-108293253D01*
X156448223Y-108276777D01*
X156431747Y-108258599D01*
X156417132Y-108238893D01*
X156404520Y-108217850D01*
X156394030Y-108195671D01*
X156385765Y-108172572D01*
X156379804Y-108148773D01*
X156376204Y-108124505D01*
X156375000Y-108100001D01*
X156375000Y-107399999D01*
X156376204Y-107375495D01*
X156379804Y-107351227D01*
X156385765Y-107327428D01*
X156394030Y-107304329D01*
X156404520Y-107282150D01*
X156417132Y-107261107D01*
X156431747Y-107241401D01*
X156448223Y-107223223D01*
X156466401Y-107206747D01*
X156486107Y-107192132D01*
X156507150Y-107179520D01*
X156529329Y-107169030D01*
X156552428Y-107160765D01*
X156576227Y-107154804D01*
X156600495Y-107151204D01*
X156624999Y-107150000D01*
X157875001Y-107150000D01*
X157899505Y-107151204D01*
X157899505Y-107151204D01*
G37*
D11*
X157250000Y-107750000D03*
D12*
X157250000Y-105750000D03*
X157250000Y-103750000D03*
X157250000Y-101750000D03*
D10*
G36*
X112899505Y-97651204D02*
G01*
X112923773Y-97654804D01*
X112947572Y-97660765D01*
X112970671Y-97669030D01*
X112992850Y-97679520D01*
X113013893Y-97692132D01*
X113033599Y-97706747D01*
X113051777Y-97723223D01*
X113068253Y-97741401D01*
X113082868Y-97761107D01*
X113095480Y-97782150D01*
X113105970Y-97804329D01*
X113114235Y-97827428D01*
X113120196Y-97851227D01*
X113123796Y-97875495D01*
X113125000Y-97899999D01*
X113125000Y-98600001D01*
X113123796Y-98624505D01*
X113120196Y-98648773D01*
X113114235Y-98672572D01*
X113105970Y-98695671D01*
X113095480Y-98717850D01*
X113082868Y-98738893D01*
X113068253Y-98758599D01*
X113051777Y-98776777D01*
X113033599Y-98793253D01*
X113013893Y-98807868D01*
X112992850Y-98820480D01*
X112970671Y-98830970D01*
X112947572Y-98839235D01*
X112923773Y-98845196D01*
X112899505Y-98848796D01*
X112875001Y-98850000D01*
X111624999Y-98850000D01*
X111600495Y-98848796D01*
X111576227Y-98845196D01*
X111552428Y-98839235D01*
X111529329Y-98830970D01*
X111507150Y-98820480D01*
X111486107Y-98807868D01*
X111466401Y-98793253D01*
X111448223Y-98776777D01*
X111431747Y-98758599D01*
X111417132Y-98738893D01*
X111404520Y-98717850D01*
X111394030Y-98695671D01*
X111385765Y-98672572D01*
X111379804Y-98648773D01*
X111376204Y-98624505D01*
X111375000Y-98600001D01*
X111375000Y-97899999D01*
X111376204Y-97875495D01*
X111379804Y-97851227D01*
X111385765Y-97827428D01*
X111394030Y-97804329D01*
X111404520Y-97782150D01*
X111417132Y-97761107D01*
X111431747Y-97741401D01*
X111448223Y-97723223D01*
X111466401Y-97706747D01*
X111486107Y-97692132D01*
X111507150Y-97679520D01*
X111529329Y-97669030D01*
X111552428Y-97660765D01*
X111576227Y-97654804D01*
X111600495Y-97651204D01*
X111624999Y-97650000D01*
X112875001Y-97650000D01*
X112899505Y-97651204D01*
X112899505Y-97651204D01*
G37*
D11*
X112250000Y-98250000D03*
D12*
X112250000Y-96250000D03*
X112250000Y-94250000D03*
X112250000Y-92250000D03*
X112250000Y-90250000D03*
D13*
X112000000Y-80750000D03*
D14*
X112000000Y-75670000D03*
D15*
X116320000Y-70830000D03*
D16*
X116320000Y-68290000D03*
X118860000Y-70830000D03*
X118860000Y-68290000D03*
X121400000Y-70830000D03*
X121400000Y-68290000D03*
X123940000Y-70830000D03*
X123940000Y-68290000D03*
X126480000Y-70830000D03*
X126480000Y-68290000D03*
X129020000Y-70830000D03*
X129020000Y-68290000D03*
X131560000Y-70830000D03*
X131560000Y-68290000D03*
X134100000Y-70830000D03*
X134100000Y-68290000D03*
X136640000Y-70830000D03*
X136640000Y-68290000D03*
X139180000Y-70830000D03*
X139180000Y-68290000D03*
X141720000Y-70830000D03*
X141720000Y-68290000D03*
X144260000Y-70830000D03*
X144260000Y-68290000D03*
X146800000Y-70830000D03*
X146800000Y-68290000D03*
X149340000Y-70830000D03*
X149340000Y-68290000D03*
X151880000Y-70830000D03*
X151880000Y-68290000D03*
X154420000Y-70830000D03*
X154420000Y-68290000D03*
X156960000Y-70830000D03*
X156960000Y-68290000D03*
X159500000Y-70830000D03*
X159500000Y-68290000D03*
X162040000Y-70830000D03*
X162040000Y-68290000D03*
X164580000Y-70830000D03*
X164580000Y-68290000D03*
D17*
X130250000Y-63750000D03*
X132250000Y-63750000D03*
X134250000Y-63750000D03*
X136250000Y-63750000D03*
D10*
G36*
X138624505Y-62876204D02*
G01*
X138648773Y-62879804D01*
X138672572Y-62885765D01*
X138695671Y-62894030D01*
X138717850Y-62904520D01*
X138738893Y-62917132D01*
X138758599Y-62931747D01*
X138776777Y-62948223D01*
X138793253Y-62966401D01*
X138807868Y-62986107D01*
X138820480Y-63007150D01*
X138830970Y-63029329D01*
X138839235Y-63052428D01*
X138845196Y-63076227D01*
X138848796Y-63100495D01*
X138850000Y-63124999D01*
X138850000Y-64375001D01*
X138848796Y-64399505D01*
X138845196Y-64423773D01*
X138839235Y-64447572D01*
X138830970Y-64470671D01*
X138820480Y-64492850D01*
X138807868Y-64513893D01*
X138793253Y-64533599D01*
X138776777Y-64551777D01*
X138758599Y-64568253D01*
X138738893Y-64582868D01*
X138717850Y-64595480D01*
X138695671Y-64605970D01*
X138672572Y-64614235D01*
X138648773Y-64620196D01*
X138624505Y-64623796D01*
X138600001Y-64625000D01*
X137899999Y-64625000D01*
X137875495Y-64623796D01*
X137851227Y-64620196D01*
X137827428Y-64614235D01*
X137804329Y-64605970D01*
X137782150Y-64595480D01*
X137761107Y-64582868D01*
X137741401Y-64568253D01*
X137723223Y-64551777D01*
X137706747Y-64533599D01*
X137692132Y-64513893D01*
X137679520Y-64492850D01*
X137669030Y-64470671D01*
X137660765Y-64447572D01*
X137654804Y-64423773D01*
X137651204Y-64399505D01*
X137650000Y-64375001D01*
X137650000Y-63124999D01*
X137651204Y-63100495D01*
X137654804Y-63076227D01*
X137660765Y-63052428D01*
X137669030Y-63029329D01*
X137679520Y-63007150D01*
X137692132Y-62986107D01*
X137706747Y-62966401D01*
X137723223Y-62948223D01*
X137741401Y-62931747D01*
X137761107Y-62917132D01*
X137782150Y-62904520D01*
X137804329Y-62894030D01*
X137827428Y-62885765D01*
X137851227Y-62879804D01*
X137875495Y-62876204D01*
X137899999Y-62875000D01*
X138600001Y-62875000D01*
X138624505Y-62876204D01*
X138624505Y-62876204D01*
G37*
D11*
X138250000Y-63750000D03*
D10*
G36*
X159149505Y-91901204D02*
G01*
X159173773Y-91904804D01*
X159197572Y-91910765D01*
X159220671Y-91919030D01*
X159242850Y-91929520D01*
X159263893Y-91942132D01*
X159283599Y-91956747D01*
X159301777Y-91973223D01*
X159318253Y-91991401D01*
X159332868Y-92011107D01*
X159345480Y-92032150D01*
X159355970Y-92054329D01*
X159364235Y-92077428D01*
X159370196Y-92101227D01*
X159373796Y-92125495D01*
X159375000Y-92149999D01*
X159375000Y-92850001D01*
X159373796Y-92874505D01*
X159370196Y-92898773D01*
X159364235Y-92922572D01*
X159355970Y-92945671D01*
X159345480Y-92967850D01*
X159332868Y-92988893D01*
X159318253Y-93008599D01*
X159301777Y-93026777D01*
X159283599Y-93043253D01*
X159263893Y-93057868D01*
X159242850Y-93070480D01*
X159220671Y-93080970D01*
X159197572Y-93089235D01*
X159173773Y-93095196D01*
X159149505Y-93098796D01*
X159125001Y-93100000D01*
X157874999Y-93100000D01*
X157850495Y-93098796D01*
X157826227Y-93095196D01*
X157802428Y-93089235D01*
X157779329Y-93080970D01*
X157757150Y-93070480D01*
X157736107Y-93057868D01*
X157716401Y-93043253D01*
X157698223Y-93026777D01*
X157681747Y-93008599D01*
X157667132Y-92988893D01*
X157654520Y-92967850D01*
X157644030Y-92945671D01*
X157635765Y-92922572D01*
X157629804Y-92898773D01*
X157626204Y-92874505D01*
X157625000Y-92850001D01*
X157625000Y-92149999D01*
X157626204Y-92125495D01*
X157629804Y-92101227D01*
X157635765Y-92077428D01*
X157644030Y-92054329D01*
X157654520Y-92032150D01*
X157667132Y-92011107D01*
X157681747Y-91991401D01*
X157698223Y-91973223D01*
X157716401Y-91956747D01*
X157736107Y-91942132D01*
X157757150Y-91929520D01*
X157779329Y-91919030D01*
X157802428Y-91910765D01*
X157826227Y-91904804D01*
X157850495Y-91901204D01*
X157874999Y-91900000D01*
X159125001Y-91900000D01*
X159149505Y-91901204D01*
X159149505Y-91901204D01*
G37*
D11*
X158500000Y-92500000D03*
D12*
X158500000Y-94500000D03*
X158500000Y-96500000D03*
D10*
G36*
X163374505Y-75876204D02*
G01*
X163398773Y-75879804D01*
X163422572Y-75885765D01*
X163445671Y-75894030D01*
X163467850Y-75904520D01*
X163488893Y-75917132D01*
X163508599Y-75931747D01*
X163526777Y-75948223D01*
X163543253Y-75966401D01*
X163557868Y-75986107D01*
X163570480Y-76007150D01*
X163580970Y-76029329D01*
X163589235Y-76052428D01*
X163595196Y-76076227D01*
X163598796Y-76100495D01*
X163600000Y-76124999D01*
X163600000Y-77375001D01*
X163598796Y-77399505D01*
X163595196Y-77423773D01*
X163589235Y-77447572D01*
X163580970Y-77470671D01*
X163570480Y-77492850D01*
X163557868Y-77513893D01*
X163543253Y-77533599D01*
X163526777Y-77551777D01*
X163508599Y-77568253D01*
X163488893Y-77582868D01*
X163467850Y-77595480D01*
X163445671Y-77605970D01*
X163422572Y-77614235D01*
X163398773Y-77620196D01*
X163374505Y-77623796D01*
X163350001Y-77625000D01*
X162649999Y-77625000D01*
X162625495Y-77623796D01*
X162601227Y-77620196D01*
X162577428Y-77614235D01*
X162554329Y-77605970D01*
X162532150Y-77595480D01*
X162511107Y-77582868D01*
X162491401Y-77568253D01*
X162473223Y-77551777D01*
X162456747Y-77533599D01*
X162442132Y-77513893D01*
X162429520Y-77492850D01*
X162419030Y-77470671D01*
X162410765Y-77447572D01*
X162404804Y-77423773D01*
X162401204Y-77399505D01*
X162400000Y-77375001D01*
X162400000Y-76124999D01*
X162401204Y-76100495D01*
X162404804Y-76076227D01*
X162410765Y-76052428D01*
X162419030Y-76029329D01*
X162429520Y-76007150D01*
X162442132Y-75986107D01*
X162456747Y-75966401D01*
X162473223Y-75948223D01*
X162491401Y-75931747D01*
X162511107Y-75917132D01*
X162532150Y-75904520D01*
X162554329Y-75894030D01*
X162577428Y-75885765D01*
X162601227Y-75879804D01*
X162625495Y-75876204D01*
X162649999Y-75875000D01*
X163350001Y-75875000D01*
X163374505Y-75876204D01*
X163374505Y-75876204D01*
G37*
D11*
X163000000Y-76750000D03*
D17*
X161000000Y-76750000D03*
X170250000Y-75750000D03*
D10*
G36*
X168624505Y-74876204D02*
G01*
X168648773Y-74879804D01*
X168672572Y-74885765D01*
X168695671Y-74894030D01*
X168717850Y-74904520D01*
X168738893Y-74917132D01*
X168758599Y-74931747D01*
X168776777Y-74948223D01*
X168793253Y-74966401D01*
X168807868Y-74986107D01*
X168820480Y-75007150D01*
X168830970Y-75029329D01*
X168839235Y-75052428D01*
X168845196Y-75076227D01*
X168848796Y-75100495D01*
X168850000Y-75124999D01*
X168850000Y-76375001D01*
X168848796Y-76399505D01*
X168845196Y-76423773D01*
X168839235Y-76447572D01*
X168830970Y-76470671D01*
X168820480Y-76492850D01*
X168807868Y-76513893D01*
X168793253Y-76533599D01*
X168776777Y-76551777D01*
X168758599Y-76568253D01*
X168738893Y-76582868D01*
X168717850Y-76595480D01*
X168695671Y-76605970D01*
X168672572Y-76614235D01*
X168648773Y-76620196D01*
X168624505Y-76623796D01*
X168600001Y-76625000D01*
X167899999Y-76625000D01*
X167875495Y-76623796D01*
X167851227Y-76620196D01*
X167827428Y-76614235D01*
X167804329Y-76605970D01*
X167782150Y-76595480D01*
X167761107Y-76582868D01*
X167741401Y-76568253D01*
X167723223Y-76551777D01*
X167706747Y-76533599D01*
X167692132Y-76513893D01*
X167679520Y-76492850D01*
X167669030Y-76470671D01*
X167660765Y-76447572D01*
X167654804Y-76423773D01*
X167651204Y-76399505D01*
X167650000Y-76375001D01*
X167650000Y-75124999D01*
X167651204Y-75100495D01*
X167654804Y-75076227D01*
X167660765Y-75052428D01*
X167669030Y-75029329D01*
X167679520Y-75007150D01*
X167692132Y-74986107D01*
X167706747Y-74966401D01*
X167723223Y-74948223D01*
X167741401Y-74931747D01*
X167761107Y-74917132D01*
X167782150Y-74904520D01*
X167804329Y-74894030D01*
X167827428Y-74885765D01*
X167851227Y-74879804D01*
X167875495Y-74876204D01*
X167899999Y-74875000D01*
X168600001Y-74875000D01*
X168624505Y-74876204D01*
X168624505Y-74876204D01*
G37*
D11*
X168250000Y-75750000D03*
D18*
X119500000Y-112000000D03*
D19*
X119500000Y-115500000D03*
X166250000Y-99250000D03*
D18*
X169750000Y-99250000D03*
D16*
X161134999Y-117325001D03*
D15*
X163674999Y-117325001D03*
X156474999Y-117325001D03*
D16*
X153934999Y-117325001D03*
D10*
G36*
X169874504Y-86001204D02*
G01*
X169898773Y-86004804D01*
X169922571Y-86010765D01*
X169945671Y-86019030D01*
X169967849Y-86029520D01*
X169988893Y-86042133D01*
X170008598Y-86056747D01*
X170026777Y-86073223D01*
X170043253Y-86091402D01*
X170057867Y-86111107D01*
X170070480Y-86132151D01*
X170080970Y-86154329D01*
X170089235Y-86177429D01*
X170095196Y-86201227D01*
X170098796Y-86225496D01*
X170100000Y-86250000D01*
X170100000Y-87750000D01*
X170098796Y-87774504D01*
X170095196Y-87798773D01*
X170089235Y-87822571D01*
X170080970Y-87845671D01*
X170070480Y-87867849D01*
X170057867Y-87888893D01*
X170043253Y-87908598D01*
X170026777Y-87926777D01*
X170008598Y-87943253D01*
X169988893Y-87957867D01*
X169967849Y-87970480D01*
X169945671Y-87980970D01*
X169922571Y-87989235D01*
X169898773Y-87995196D01*
X169874504Y-87998796D01*
X169850000Y-88000000D01*
X168650000Y-88000000D01*
X168625496Y-87998796D01*
X168601227Y-87995196D01*
X168577429Y-87989235D01*
X168554329Y-87980970D01*
X168532151Y-87970480D01*
X168511107Y-87957867D01*
X168491402Y-87943253D01*
X168473223Y-87926777D01*
X168456747Y-87908598D01*
X168442133Y-87888893D01*
X168429520Y-87867849D01*
X168419030Y-87845671D01*
X168410765Y-87822571D01*
X168404804Y-87798773D01*
X168401204Y-87774504D01*
X168400000Y-87750000D01*
X168400000Y-86250000D01*
X168401204Y-86225496D01*
X168404804Y-86201227D01*
X168410765Y-86177429D01*
X168419030Y-86154329D01*
X168429520Y-86132151D01*
X168442133Y-86111107D01*
X168456747Y-86091402D01*
X168473223Y-86073223D01*
X168491402Y-86056747D01*
X168511107Y-86042133D01*
X168532151Y-86029520D01*
X168554329Y-86019030D01*
X168577429Y-86010765D01*
X168601227Y-86004804D01*
X168625496Y-86001204D01*
X168650000Y-86000000D01*
X169850000Y-86000000D01*
X169874504Y-86001204D01*
X169874504Y-86001204D01*
G37*
D20*
X169250000Y-87000000D03*
D21*
X166750000Y-87000000D03*
D10*
G36*
X165349505Y-92551204D02*
G01*
X165373773Y-92554804D01*
X165397572Y-92560765D01*
X165420671Y-92569030D01*
X165442850Y-92579520D01*
X165463893Y-92592132D01*
X165483599Y-92606747D01*
X165501777Y-92623223D01*
X165518253Y-92641401D01*
X165532868Y-92661107D01*
X165545480Y-92682150D01*
X165555970Y-92704329D01*
X165564235Y-92727428D01*
X165570196Y-92751227D01*
X165573796Y-92775495D01*
X165575000Y-92799999D01*
X165575000Y-93700001D01*
X165573796Y-93724505D01*
X165570196Y-93748773D01*
X165564235Y-93772572D01*
X165555970Y-93795671D01*
X165545480Y-93817850D01*
X165532868Y-93838893D01*
X165518253Y-93858599D01*
X165501777Y-93876777D01*
X165483599Y-93893253D01*
X165463893Y-93907868D01*
X165442850Y-93920480D01*
X165420671Y-93930970D01*
X165397572Y-93939235D01*
X165373773Y-93945196D01*
X165349505Y-93948796D01*
X165325001Y-93950000D01*
X164674999Y-93950000D01*
X164650495Y-93948796D01*
X164626227Y-93945196D01*
X164602428Y-93939235D01*
X164579329Y-93930970D01*
X164557150Y-93920480D01*
X164536107Y-93907868D01*
X164516401Y-93893253D01*
X164498223Y-93876777D01*
X164481747Y-93858599D01*
X164467132Y-93838893D01*
X164454520Y-93817850D01*
X164444030Y-93795671D01*
X164435765Y-93772572D01*
X164429804Y-93748773D01*
X164426204Y-93724505D01*
X164425000Y-93700001D01*
X164425000Y-92799999D01*
X164426204Y-92775495D01*
X164429804Y-92751227D01*
X164435765Y-92727428D01*
X164444030Y-92704329D01*
X164454520Y-92682150D01*
X164467132Y-92661107D01*
X164481747Y-92641401D01*
X164498223Y-92623223D01*
X164516401Y-92606747D01*
X164536107Y-92592132D01*
X164557150Y-92579520D01*
X164579329Y-92569030D01*
X164602428Y-92560765D01*
X164626227Y-92554804D01*
X164650495Y-92551204D01*
X164674999Y-92550000D01*
X165325001Y-92550000D01*
X165349505Y-92551204D01*
X165349505Y-92551204D01*
G37*
D22*
X165000000Y-93250000D03*
D10*
G36*
X163299505Y-92551204D02*
G01*
X163323773Y-92554804D01*
X163347572Y-92560765D01*
X163370671Y-92569030D01*
X163392850Y-92579520D01*
X163413893Y-92592132D01*
X163433599Y-92606747D01*
X163451777Y-92623223D01*
X163468253Y-92641401D01*
X163482868Y-92661107D01*
X163495480Y-92682150D01*
X163505970Y-92704329D01*
X163514235Y-92727428D01*
X163520196Y-92751227D01*
X163523796Y-92775495D01*
X163525000Y-92799999D01*
X163525000Y-93700001D01*
X163523796Y-93724505D01*
X163520196Y-93748773D01*
X163514235Y-93772572D01*
X163505970Y-93795671D01*
X163495480Y-93817850D01*
X163482868Y-93838893D01*
X163468253Y-93858599D01*
X163451777Y-93876777D01*
X163433599Y-93893253D01*
X163413893Y-93907868D01*
X163392850Y-93920480D01*
X163370671Y-93930970D01*
X163347572Y-93939235D01*
X163323773Y-93945196D01*
X163299505Y-93948796D01*
X163275001Y-93950000D01*
X162624999Y-93950000D01*
X162600495Y-93948796D01*
X162576227Y-93945196D01*
X162552428Y-93939235D01*
X162529329Y-93930970D01*
X162507150Y-93920480D01*
X162486107Y-93907868D01*
X162466401Y-93893253D01*
X162448223Y-93876777D01*
X162431747Y-93858599D01*
X162417132Y-93838893D01*
X162404520Y-93817850D01*
X162394030Y-93795671D01*
X162385765Y-93772572D01*
X162379804Y-93748773D01*
X162376204Y-93724505D01*
X162375000Y-93700001D01*
X162375000Y-92799999D01*
X162376204Y-92775495D01*
X162379804Y-92751227D01*
X162385765Y-92727428D01*
X162394030Y-92704329D01*
X162404520Y-92682150D01*
X162417132Y-92661107D01*
X162431747Y-92641401D01*
X162448223Y-92623223D01*
X162466401Y-92606747D01*
X162486107Y-92592132D01*
X162507150Y-92579520D01*
X162529329Y-92569030D01*
X162552428Y-92560765D01*
X162576227Y-92554804D01*
X162600495Y-92551204D01*
X162624999Y-92550000D01*
X163275001Y-92550000D01*
X163299505Y-92551204D01*
X163299505Y-92551204D01*
G37*
D22*
X162950000Y-93250000D03*
D10*
G36*
X161474505Y-81326204D02*
G01*
X161498773Y-81329804D01*
X161522572Y-81335765D01*
X161545671Y-81344030D01*
X161567850Y-81354520D01*
X161588893Y-81367132D01*
X161608599Y-81381747D01*
X161626777Y-81398223D01*
X161643253Y-81416401D01*
X161657868Y-81436107D01*
X161670480Y-81457150D01*
X161680970Y-81479329D01*
X161689235Y-81502428D01*
X161695196Y-81526227D01*
X161698796Y-81550495D01*
X161700000Y-81574999D01*
X161700000Y-82225001D01*
X161698796Y-82249505D01*
X161695196Y-82273773D01*
X161689235Y-82297572D01*
X161680970Y-82320671D01*
X161670480Y-82342850D01*
X161657868Y-82363893D01*
X161643253Y-82383599D01*
X161626777Y-82401777D01*
X161608599Y-82418253D01*
X161588893Y-82432868D01*
X161567850Y-82445480D01*
X161545671Y-82455970D01*
X161522572Y-82464235D01*
X161498773Y-82470196D01*
X161474505Y-82473796D01*
X161450001Y-82475000D01*
X160549999Y-82475000D01*
X160525495Y-82473796D01*
X160501227Y-82470196D01*
X160477428Y-82464235D01*
X160454329Y-82455970D01*
X160432150Y-82445480D01*
X160411107Y-82432868D01*
X160391401Y-82418253D01*
X160373223Y-82401777D01*
X160356747Y-82383599D01*
X160342132Y-82363893D01*
X160329520Y-82342850D01*
X160319030Y-82320671D01*
X160310765Y-82297572D01*
X160304804Y-82273773D01*
X160301204Y-82249505D01*
X160300000Y-82225001D01*
X160300000Y-81574999D01*
X160301204Y-81550495D01*
X160304804Y-81526227D01*
X160310765Y-81502428D01*
X160319030Y-81479329D01*
X160329520Y-81457150D01*
X160342132Y-81436107D01*
X160356747Y-81416401D01*
X160373223Y-81398223D01*
X160391401Y-81381747D01*
X160411107Y-81367132D01*
X160432150Y-81354520D01*
X160454329Y-81344030D01*
X160477428Y-81335765D01*
X160501227Y-81329804D01*
X160525495Y-81326204D01*
X160549999Y-81325000D01*
X161450001Y-81325000D01*
X161474505Y-81326204D01*
X161474505Y-81326204D01*
G37*
D22*
X161000000Y-81900000D03*
D10*
G36*
X161474505Y-79276204D02*
G01*
X161498773Y-79279804D01*
X161522572Y-79285765D01*
X161545671Y-79294030D01*
X161567850Y-79304520D01*
X161588893Y-79317132D01*
X161608599Y-79331747D01*
X161626777Y-79348223D01*
X161643253Y-79366401D01*
X161657868Y-79386107D01*
X161670480Y-79407150D01*
X161680970Y-79429329D01*
X161689235Y-79452428D01*
X161695196Y-79476227D01*
X161698796Y-79500495D01*
X161700000Y-79524999D01*
X161700000Y-80175001D01*
X161698796Y-80199505D01*
X161695196Y-80223773D01*
X161689235Y-80247572D01*
X161680970Y-80270671D01*
X161670480Y-80292850D01*
X161657868Y-80313893D01*
X161643253Y-80333599D01*
X161626777Y-80351777D01*
X161608599Y-80368253D01*
X161588893Y-80382868D01*
X161567850Y-80395480D01*
X161545671Y-80405970D01*
X161522572Y-80414235D01*
X161498773Y-80420196D01*
X161474505Y-80423796D01*
X161450001Y-80425000D01*
X160549999Y-80425000D01*
X160525495Y-80423796D01*
X160501227Y-80420196D01*
X160477428Y-80414235D01*
X160454329Y-80405970D01*
X160432150Y-80395480D01*
X160411107Y-80382868D01*
X160391401Y-80368253D01*
X160373223Y-80351777D01*
X160356747Y-80333599D01*
X160342132Y-80313893D01*
X160329520Y-80292850D01*
X160319030Y-80270671D01*
X160310765Y-80247572D01*
X160304804Y-80223773D01*
X160301204Y-80199505D01*
X160300000Y-80175001D01*
X160300000Y-79524999D01*
X160301204Y-79500495D01*
X160304804Y-79476227D01*
X160310765Y-79452428D01*
X160319030Y-79429329D01*
X160329520Y-79407150D01*
X160342132Y-79386107D01*
X160356747Y-79366401D01*
X160373223Y-79348223D01*
X160391401Y-79331747D01*
X160411107Y-79317132D01*
X160432150Y-79304520D01*
X160454329Y-79294030D01*
X160477428Y-79285765D01*
X160501227Y-79279804D01*
X160525495Y-79276204D01*
X160549999Y-79275000D01*
X161450001Y-79275000D01*
X161474505Y-79276204D01*
X161474505Y-79276204D01*
G37*
D22*
X161000000Y-79850000D03*
D10*
G36*
X170974505Y-79151204D02*
G01*
X170998773Y-79154804D01*
X171022572Y-79160765D01*
X171045671Y-79169030D01*
X171067850Y-79179520D01*
X171088893Y-79192132D01*
X171108599Y-79206747D01*
X171126777Y-79223223D01*
X171143253Y-79241401D01*
X171157868Y-79261107D01*
X171170480Y-79282150D01*
X171180970Y-79304329D01*
X171189235Y-79327428D01*
X171195196Y-79351227D01*
X171198796Y-79375495D01*
X171200000Y-79399999D01*
X171200000Y-80050001D01*
X171198796Y-80074505D01*
X171195196Y-80098773D01*
X171189235Y-80122572D01*
X171180970Y-80145671D01*
X171170480Y-80167850D01*
X171157868Y-80188893D01*
X171143253Y-80208599D01*
X171126777Y-80226777D01*
X171108599Y-80243253D01*
X171088893Y-80257868D01*
X171067850Y-80270480D01*
X171045671Y-80280970D01*
X171022572Y-80289235D01*
X170998773Y-80295196D01*
X170974505Y-80298796D01*
X170950001Y-80300000D01*
X170049999Y-80300000D01*
X170025495Y-80298796D01*
X170001227Y-80295196D01*
X169977428Y-80289235D01*
X169954329Y-80280970D01*
X169932150Y-80270480D01*
X169911107Y-80257868D01*
X169891401Y-80243253D01*
X169873223Y-80226777D01*
X169856747Y-80208599D01*
X169842132Y-80188893D01*
X169829520Y-80167850D01*
X169819030Y-80145671D01*
X169810765Y-80122572D01*
X169804804Y-80098773D01*
X169801204Y-80074505D01*
X169800000Y-80050001D01*
X169800000Y-79399999D01*
X169801204Y-79375495D01*
X169804804Y-79351227D01*
X169810765Y-79327428D01*
X169819030Y-79304329D01*
X169829520Y-79282150D01*
X169842132Y-79261107D01*
X169856747Y-79241401D01*
X169873223Y-79223223D01*
X169891401Y-79206747D01*
X169911107Y-79192132D01*
X169932150Y-79179520D01*
X169954329Y-79169030D01*
X169977428Y-79160765D01*
X170001227Y-79154804D01*
X170025495Y-79151204D01*
X170049999Y-79150000D01*
X170950001Y-79150000D01*
X170974505Y-79151204D01*
X170974505Y-79151204D01*
G37*
D22*
X170500000Y-79725000D03*
D10*
G36*
X170974505Y-81201204D02*
G01*
X170998773Y-81204804D01*
X171022572Y-81210765D01*
X171045671Y-81219030D01*
X171067850Y-81229520D01*
X171088893Y-81242132D01*
X171108599Y-81256747D01*
X171126777Y-81273223D01*
X171143253Y-81291401D01*
X171157868Y-81311107D01*
X171170480Y-81332150D01*
X171180970Y-81354329D01*
X171189235Y-81377428D01*
X171195196Y-81401227D01*
X171198796Y-81425495D01*
X171200000Y-81449999D01*
X171200000Y-82100001D01*
X171198796Y-82124505D01*
X171195196Y-82148773D01*
X171189235Y-82172572D01*
X171180970Y-82195671D01*
X171170480Y-82217850D01*
X171157868Y-82238893D01*
X171143253Y-82258599D01*
X171126777Y-82276777D01*
X171108599Y-82293253D01*
X171088893Y-82307868D01*
X171067850Y-82320480D01*
X171045671Y-82330970D01*
X171022572Y-82339235D01*
X170998773Y-82345196D01*
X170974505Y-82348796D01*
X170950001Y-82350000D01*
X170049999Y-82350000D01*
X170025495Y-82348796D01*
X170001227Y-82345196D01*
X169977428Y-82339235D01*
X169954329Y-82330970D01*
X169932150Y-82320480D01*
X169911107Y-82307868D01*
X169891401Y-82293253D01*
X169873223Y-82276777D01*
X169856747Y-82258599D01*
X169842132Y-82238893D01*
X169829520Y-82217850D01*
X169819030Y-82195671D01*
X169810765Y-82172572D01*
X169804804Y-82148773D01*
X169801204Y-82124505D01*
X169800000Y-82100001D01*
X169800000Y-81449999D01*
X169801204Y-81425495D01*
X169804804Y-81401227D01*
X169810765Y-81377428D01*
X169819030Y-81354329D01*
X169829520Y-81332150D01*
X169842132Y-81311107D01*
X169856747Y-81291401D01*
X169873223Y-81273223D01*
X169891401Y-81256747D01*
X169911107Y-81242132D01*
X169932150Y-81229520D01*
X169954329Y-81219030D01*
X169977428Y-81210765D01*
X170001227Y-81204804D01*
X170025495Y-81201204D01*
X170049999Y-81200000D01*
X170950001Y-81200000D01*
X170974505Y-81201204D01*
X170974505Y-81201204D01*
G37*
D22*
X170500000Y-81775000D03*
D23*
X169500000Y-92250000D03*
X167315600Y-91310200D03*
X167315600Y-93189800D03*
D24*
X126500000Y-112000000D03*
D25*
X126500000Y-114540000D03*
X126500000Y-117080000D03*
D26*
X170375000Y-81900000D02*
X170500000Y-81775000D01*
X166400000Y-81900000D02*
X170375000Y-81900000D01*
X161000000Y-81900000D02*
X166400000Y-81900000D01*
X137489999Y-69980001D02*
X136640000Y-70830000D01*
X137929999Y-69540001D02*
X137489999Y-69980001D01*
X160060003Y-69540001D02*
X137929999Y-69540001D01*
X160750001Y-70229999D02*
X160060003Y-69540001D01*
X166400000Y-81900000D02*
X166400000Y-77150000D01*
X166400000Y-77150000D02*
X164000000Y-74750000D01*
X164000000Y-74750000D02*
X164000000Y-74250000D01*
X164000000Y-74250000D02*
X162250000Y-72500000D01*
X160750000Y-71390002D02*
X160750001Y-70229999D01*
X162250000Y-72500000D02*
X161859998Y-72500000D01*
X161859998Y-72500000D02*
X160750000Y-71390002D01*
X138250000Y-64725000D02*
X138250000Y-63750000D01*
X137929999Y-65045001D02*
X138250000Y-64725000D01*
X137929999Y-69540001D02*
X137929999Y-65045001D01*
X166255200Y-91310200D02*
X165000000Y-90055000D01*
X167315600Y-91310200D02*
X166255200Y-91310200D01*
X165000000Y-90055000D02*
X165000000Y-85500000D01*
X165000000Y-85500000D02*
X166250000Y-84250000D01*
X166250000Y-84250000D02*
X171250000Y-84250000D01*
X171250000Y-84250000D02*
X172437990Y-83062010D01*
X172437990Y-83062010D02*
X172437990Y-74937990D01*
X165782081Y-70830000D02*
X164580000Y-70830000D01*
X168129998Y-70830000D02*
X165782081Y-70830000D01*
X172237988Y-74937990D02*
X168129998Y-70830000D01*
X172437990Y-74937990D02*
X172237988Y-74937990D01*
X125540000Y-115500000D02*
X126500000Y-114540000D01*
X119500000Y-115500000D02*
X125540000Y-115500000D01*
X131899998Y-114540000D02*
X134684999Y-117325001D01*
X126500000Y-114540000D02*
X131899998Y-114540000D01*
X160285000Y-116475002D02*
X161134999Y-117325001D01*
X159884998Y-116075000D02*
X160285000Y-116475002D01*
X155185000Y-116075000D02*
X159884998Y-116075000D01*
X153934999Y-117325001D02*
X155185000Y-116075000D01*
X112000000Y-75670000D02*
X115000000Y-78670000D01*
X112250000Y-89250000D02*
X112250000Y-90250000D01*
X115000000Y-86500000D02*
X112250000Y-89250000D01*
X115000000Y-78670000D02*
X115000000Y-86500000D01*
X130250000Y-65025000D02*
X130250000Y-63750000D01*
X127769999Y-67505001D02*
X130250000Y-65025000D01*
X127769999Y-69540001D02*
X127769999Y-67505001D01*
X126480000Y-70830000D02*
X127769999Y-69540001D01*
X127769999Y-67505001D02*
X124514998Y-64250000D01*
X113499999Y-74170001D02*
X112000000Y-75670000D01*
X113499999Y-68500001D02*
X113499999Y-74170001D01*
X117750000Y-64250000D02*
X113499999Y-68500001D01*
X124514998Y-64250000D02*
X117750000Y-64250000D01*
X158500000Y-97500000D02*
X159500000Y-98500000D01*
X158500000Y-96500000D02*
X158500000Y-97500000D01*
X157525000Y-105750000D02*
X157250000Y-105750000D01*
X159500000Y-103775000D02*
X157525000Y-105750000D01*
X159500000Y-98500000D02*
X159500000Y-103775000D01*
X167049999Y-98450001D02*
X166250000Y-99250000D01*
X168376000Y-97124000D02*
X167049999Y-98450001D01*
X168376000Y-91989600D02*
X168376000Y-97124000D01*
X167696600Y-91310200D02*
X168376000Y-91989600D01*
X167315600Y-91310200D02*
X167696600Y-91310200D01*
X156750000Y-91250000D02*
X156750000Y-95025000D01*
X166250000Y-99250000D02*
X162000000Y-95000000D01*
X157250000Y-90750000D02*
X156750000Y-91250000D01*
X162000000Y-95000000D02*
X162000000Y-93994256D01*
X162000000Y-93994256D02*
X161500000Y-93494256D01*
X161500000Y-93494256D02*
X161500000Y-91750000D01*
X161500000Y-91750000D02*
X160500000Y-90750000D01*
X158225000Y-96500000D02*
X158500000Y-96500000D01*
X156750000Y-95025000D02*
X158225000Y-96500000D01*
X160500000Y-90750000D02*
X157250000Y-90750000D01*
X119500000Y-115500000D02*
X118700001Y-114700001D01*
X112000000Y-75670000D02*
X108750000Y-78920000D01*
X108750000Y-78920000D02*
X108750000Y-108000000D01*
X115450001Y-114700001D02*
X117450001Y-114700001D01*
X108750000Y-108000000D02*
X115450001Y-114700001D01*
X118700001Y-114700001D02*
X117450001Y-114700001D01*
X117450001Y-114700001D02*
X117200001Y-114700001D01*
X134684999Y-117325001D02*
X153934999Y-117325001D01*
X130309999Y-69540001D02*
X131560000Y-68290000D01*
X127769999Y-69540001D02*
X130309999Y-69540001D01*
X139180000Y-68290000D02*
X140970000Y-66500000D01*
X150090000Y-66500000D02*
X151880000Y-68290000D01*
X140970000Y-66500000D02*
X150090000Y-66500000D01*
X155170000Y-66500000D02*
X156960000Y-68290000D01*
X150090000Y-66500000D02*
X155170000Y-66500000D01*
X122650001Y-70269997D02*
X122650001Y-71349999D01*
X123940000Y-68290000D02*
X123940000Y-68979998D01*
X123940000Y-68979998D02*
X122650001Y-70269997D01*
X122650001Y-71349999D02*
X120750000Y-73250000D01*
X120750000Y-73250000D02*
X120750000Y-92500000D01*
X117000000Y-96250000D02*
X112250000Y-96250000D01*
X120750000Y-92500000D02*
X117000000Y-96250000D01*
X126480000Y-68290000D02*
X126480000Y-68979998D01*
X113525000Y-94250000D02*
X119250000Y-88525000D01*
X112250000Y-94250000D02*
X113525000Y-94250000D01*
X119250000Y-88525000D02*
X119250000Y-72750000D01*
X120149999Y-67689999D02*
X121589998Y-66250000D01*
X119250000Y-72750000D02*
X120149999Y-71850001D01*
X120149999Y-71850001D02*
X120149999Y-67689999D01*
X124440000Y-66250000D02*
X126480000Y-68290000D01*
X121589998Y-66250000D02*
X124440000Y-66250000D01*
X159500000Y-72032081D02*
X161467919Y-74000000D01*
X159500000Y-70830000D02*
X159500000Y-72032081D01*
X161467919Y-74000000D02*
X162250000Y-74000000D01*
X162250000Y-74000000D02*
X163000000Y-74750000D01*
X163000000Y-74750000D02*
X163000000Y-76750000D01*
X166960000Y-75750000D02*
X168250000Y-75750000D01*
X162040000Y-70830000D02*
X166960000Y-75750000D01*
X155975000Y-103750000D02*
X152500000Y-100275000D01*
X157250000Y-103750000D02*
X155975000Y-103750000D01*
X152500000Y-100275000D02*
X152500000Y-75250000D01*
X151880000Y-74630000D02*
X151880000Y-70830000D01*
X152500000Y-75250000D02*
X151880000Y-74630000D01*
X156000000Y-101750000D02*
X157250000Y-101750000D01*
X153500000Y-99250000D02*
X156000000Y-101750000D01*
X153500000Y-75500000D02*
X153500000Y-99250000D01*
X154420000Y-70830000D02*
X154420000Y-74580000D01*
X154420000Y-74580000D02*
X153500000Y-75500000D01*
X134250000Y-68140000D02*
X134100000Y-68290000D01*
X134250000Y-63750000D02*
X134250000Y-68140000D01*
X161000000Y-79850000D02*
X161000000Y-76750000D01*
X170250000Y-79475000D02*
X170500000Y-79725000D01*
X170250000Y-75750000D02*
X170250000Y-79475000D01*
X136250000Y-67900000D02*
X136640000Y-68290000D01*
X136250000Y-63750000D02*
X136250000Y-67900000D01*
D27*
X117700000Y-112000000D02*
X119500000Y-112000000D01*
X112250000Y-106550000D02*
X117700000Y-112000000D01*
X112250000Y-98250000D02*
X112250000Y-106550000D01*
X119500000Y-112000000D02*
X126500000Y-112000000D01*
X126500000Y-112000000D02*
X155250000Y-112000000D01*
X155250000Y-112000000D02*
X157250000Y-110000000D01*
X157250000Y-110000000D02*
X157250000Y-107750000D01*
D26*
X159750000Y-107750000D02*
X157250000Y-107750000D01*
X161000000Y-106500000D02*
X159750000Y-107750000D01*
X161000000Y-94025000D02*
X161000000Y-106500000D01*
X158500000Y-92500000D02*
X159475000Y-92500000D01*
X159475000Y-92500000D02*
X161000000Y-94025000D01*
D27*
X111275000Y-98250000D02*
X112250000Y-98250000D01*
X110000000Y-96975000D02*
X111275000Y-98250000D01*
X110000000Y-87750000D02*
X110000000Y-96975000D01*
X112000000Y-80750000D02*
X112000000Y-85750000D01*
X112000000Y-85750000D02*
X110000000Y-87750000D01*
D26*
X157809999Y-71679999D02*
X157809999Y-73559999D01*
X156960000Y-70830000D02*
X157809999Y-71679999D01*
X157809999Y-73559999D02*
X159250000Y-75000000D01*
X159250000Y-75000000D02*
X159250000Y-85000000D01*
X162950000Y-88700000D02*
X162950000Y-93250000D01*
X159250000Y-85000000D02*
X162950000Y-88700000D01*
X170200000Y-87000000D02*
X171000000Y-87800000D01*
X169250000Y-87000000D02*
X170200000Y-87000000D01*
X169750000Y-98050000D02*
X169750000Y-99250000D01*
X171000000Y-96800000D02*
X169750000Y-98050000D01*
X171000000Y-87800000D02*
X171000000Y-96800000D01*
X169750000Y-113000000D02*
X169750000Y-99250000D01*
X165424999Y-117325001D02*
X169750000Y-113000000D01*
X156474999Y-118575001D02*
X157649998Y-119750000D01*
X156474999Y-117325001D02*
X156474999Y-118575001D01*
X163674999Y-118575001D02*
X163674999Y-117325001D01*
X162500000Y-119750000D02*
X163674999Y-118575001D01*
X157649998Y-119750000D02*
X162500000Y-119750000D01*
X127900000Y-117080000D02*
X130570000Y-119750000D01*
X126500000Y-117080000D02*
X127900000Y-117080000D01*
X156474999Y-118575001D02*
X156174999Y-118575001D01*
X155000000Y-119750000D02*
X138250000Y-119750000D01*
X156174999Y-118575001D02*
X155000000Y-119750000D01*
X130570000Y-119750000D02*
X138250000Y-119750000D01*
X138250000Y-119750000D02*
X138399998Y-119750000D01*
X163674999Y-117325001D02*
X165424999Y-117325001D01*
X132250000Y-65060000D02*
X132250000Y-63750000D01*
X129020000Y-68290000D02*
X132250000Y-65060000D01*
X166750000Y-88400000D02*
X167850000Y-89500000D01*
X166750000Y-87000000D02*
X166750000Y-88400000D01*
X167850000Y-89500000D02*
X168500000Y-89500000D01*
X169500000Y-90500000D02*
X169500000Y-92250000D01*
X168500000Y-89500000D02*
X169500000Y-90500000D01*
X167255400Y-93250000D02*
X167315600Y-93189800D01*
X165000000Y-93250000D02*
X167255400Y-93250000D01*
D28*
G36*
X170912333Y-60771714D02*
G01*
X171210842Y-60861839D01*
X171486162Y-61008229D01*
X171727805Y-61205308D01*
X171926567Y-61445571D01*
X172074874Y-61719858D01*
X172167081Y-62017734D01*
X172203001Y-62359487D01*
X172203000Y-119661494D01*
X172169286Y-120005332D01*
X172079161Y-120303843D01*
X171932771Y-120579162D01*
X171735692Y-120820805D01*
X171495432Y-121019565D01*
X171221143Y-121167873D01*
X170923266Y-121260081D01*
X170581522Y-121296000D01*
X110983904Y-121296000D01*
X110501384Y-121248688D01*
X110069473Y-121118287D01*
X109683519Y-120913072D01*
X108933562Y-120088120D01*
X108819315Y-119876825D01*
X108685900Y-119445834D01*
X108635400Y-118965346D01*
X108635400Y-118364495D01*
X109465000Y-118364495D01*
X109465000Y-118755505D01*
X109541282Y-119139003D01*
X109690915Y-119500250D01*
X109908149Y-119825364D01*
X110184636Y-120101851D01*
X110509750Y-120319085D01*
X110870997Y-120468718D01*
X111254495Y-120545000D01*
X111645505Y-120545000D01*
X112029003Y-120468718D01*
X112390250Y-120319085D01*
X112715364Y-120101851D01*
X112991851Y-119825364D01*
X113209085Y-119500250D01*
X113358718Y-119139003D01*
X113435000Y-118755505D01*
X113435000Y-118364495D01*
X113358718Y-117980997D01*
X113209085Y-117619750D01*
X112991851Y-117294636D01*
X112715364Y-117018149D01*
X112390250Y-116800915D01*
X112029003Y-116651282D01*
X111645505Y-116575000D01*
X111254495Y-116575000D01*
X110870997Y-116651282D01*
X110509750Y-116800915D01*
X110184636Y-117018149D01*
X109908149Y-117294636D01*
X109690915Y-117619750D01*
X109541282Y-117980997D01*
X109465000Y-118364495D01*
X108635400Y-118364495D01*
X108635400Y-116492702D01*
X118686903Y-116492702D01*
X118758486Y-116736671D01*
X119013996Y-116857571D01*
X119288184Y-116926300D01*
X119570512Y-116940217D01*
X119850130Y-116898787D01*
X120116292Y-116803603D01*
X120241514Y-116736671D01*
X120313097Y-116492702D01*
X119500000Y-115679605D01*
X118686903Y-116492702D01*
X108635400Y-116492702D01*
X108635400Y-115570512D01*
X118059783Y-115570512D01*
X118101213Y-115850130D01*
X118196397Y-116116292D01*
X118263329Y-116241514D01*
X118507298Y-116313097D01*
X119320395Y-115500000D01*
X119679605Y-115500000D01*
X120492702Y-116313097D01*
X120736671Y-116241514D01*
X120857571Y-115986004D01*
X120926300Y-115711816D01*
X120940217Y-115429488D01*
X120898787Y-115149870D01*
X120803603Y-114883708D01*
X120736671Y-114758486D01*
X120492702Y-114686903D01*
X119679605Y-115500000D01*
X119320395Y-115500000D01*
X118507298Y-114686903D01*
X118263329Y-114758486D01*
X118142429Y-115013996D01*
X118073700Y-115288184D01*
X118059783Y-115570512D01*
X108635400Y-115570512D01*
X108635400Y-114507298D01*
X118686903Y-114507298D01*
X119500000Y-115320395D01*
X120313097Y-114507298D01*
X120241514Y-114263329D01*
X119986004Y-114142429D01*
X119711816Y-114073700D01*
X119429488Y-114059783D01*
X119149870Y-114101213D01*
X118883708Y-114196397D01*
X118758486Y-114263329D01*
X118686903Y-114507298D01*
X108635400Y-114507298D01*
X108635400Y-87750000D01*
X108859509Y-87750000D01*
X108865000Y-87805752D01*
X108865001Y-96919239D01*
X108859509Y-96975000D01*
X108881423Y-97197498D01*
X108946324Y-97411446D01*
X108946325Y-97411447D01*
X109051717Y-97608623D01*
X109193552Y-97781449D01*
X109236860Y-97816991D01*
X110433008Y-99013140D01*
X110468551Y-99056449D01*
X110641377Y-99198284D01*
X110838553Y-99303676D01*
X111052501Y-99368577D01*
X111115000Y-99374733D01*
X111115001Y-106494239D01*
X111109509Y-106550000D01*
X111131423Y-106772498D01*
X111196324Y-106986446D01*
X111236376Y-107061377D01*
X111301717Y-107183623D01*
X111443552Y-107356449D01*
X111486860Y-107391991D01*
X116858009Y-112763141D01*
X116893551Y-112806449D01*
X117066377Y-112948284D01*
X117239873Y-113041019D01*
X117263553Y-113053676D01*
X117477501Y-113118577D01*
X117700000Y-113140491D01*
X117755751Y-113135000D01*
X118159043Y-113135000D01*
X118169463Y-113154494D01*
X118248815Y-113251185D01*
X118345506Y-113330537D01*
X118455820Y-113389502D01*
X118575518Y-113425812D01*
X118700000Y-113438072D01*
X120300000Y-113438072D01*
X120424482Y-113425812D01*
X120544180Y-113389502D01*
X120654494Y-113330537D01*
X120751185Y-113251185D01*
X120830537Y-113154494D01*
X120840957Y-113135000D01*
X124891788Y-113135000D01*
X124910498Y-113196680D01*
X124969463Y-113306994D01*
X125048815Y-113403685D01*
X125145506Y-113483037D01*
X125237219Y-113532059D01*
X125124031Y-113673077D01*
X124980429Y-113948906D01*
X124909437Y-114167020D01*
X125029406Y-114413000D01*
X126373000Y-114413000D01*
X126373000Y-114393000D01*
X126627000Y-114393000D01*
X126627000Y-114413000D01*
X127970594Y-114413000D01*
X128090563Y-114167020D01*
X128019571Y-113948906D01*
X127875969Y-113673077D01*
X127762781Y-113532059D01*
X127854494Y-113483037D01*
X127951185Y-113403685D01*
X128030537Y-113306994D01*
X128089502Y-113196680D01*
X128108212Y-113135000D01*
X155194249Y-113135000D01*
X155250000Y-113140491D01*
X155305751Y-113135000D01*
X155305752Y-113135000D01*
X155472499Y-113118577D01*
X155686447Y-113053676D01*
X155883623Y-112948284D01*
X156056449Y-112806449D01*
X156091996Y-112763135D01*
X158013141Y-110841991D01*
X158056449Y-110806449D01*
X158198284Y-110633623D01*
X158303676Y-110436447D01*
X158368577Y-110222499D01*
X158385000Y-110055752D01*
X158385000Y-110055751D01*
X158390491Y-110000001D01*
X158385000Y-109944249D01*
X158385000Y-108824771D01*
X158502962Y-108727962D01*
X158613405Y-108593387D01*
X158617888Y-108585000D01*
X159708982Y-108585000D01*
X159750000Y-108589040D01*
X159791018Y-108585000D01*
X159791019Y-108585000D01*
X159913689Y-108572918D01*
X160071087Y-108525172D01*
X160216146Y-108447636D01*
X160343291Y-108343291D01*
X160369445Y-108311422D01*
X161561432Y-107119437D01*
X161593291Y-107093291D01*
X161620256Y-107060435D01*
X161697636Y-106966146D01*
X161775172Y-106821087D01*
X161822918Y-106663689D01*
X161829697Y-106594863D01*
X161835000Y-106541019D01*
X161839040Y-106500000D01*
X161835000Y-106458982D01*
X161835000Y-100242702D01*
X165436903Y-100242702D01*
X165508486Y-100486671D01*
X165763996Y-100607571D01*
X166038184Y-100676300D01*
X166320512Y-100690217D01*
X166600130Y-100648787D01*
X166866292Y-100553603D01*
X166991514Y-100486671D01*
X167063097Y-100242702D01*
X166250000Y-99429605D01*
X165436903Y-100242702D01*
X161835000Y-100242702D01*
X161835000Y-99320512D01*
X164809783Y-99320512D01*
X164851213Y-99600130D01*
X164946397Y-99866292D01*
X165013329Y-99991514D01*
X165257298Y-100063097D01*
X166070395Y-99250000D01*
X166429605Y-99250000D01*
X167242702Y-100063097D01*
X167486671Y-99991514D01*
X167607571Y-99736004D01*
X167676300Y-99461816D01*
X167690217Y-99179488D01*
X167648787Y-98899870D01*
X167553603Y-98633708D01*
X167486671Y-98508486D01*
X167242702Y-98436903D01*
X166429605Y-99250000D01*
X166070395Y-99250000D01*
X165257298Y-98436903D01*
X165013329Y-98508486D01*
X164892429Y-98763996D01*
X164823700Y-99038184D01*
X164809783Y-99320512D01*
X161835000Y-99320512D01*
X161835000Y-98257298D01*
X165436903Y-98257298D01*
X166250000Y-99070395D01*
X167063097Y-98257298D01*
X166991514Y-98013329D01*
X166736004Y-97892429D01*
X166461816Y-97823700D01*
X166179488Y-97809783D01*
X165899870Y-97851213D01*
X165633708Y-97946397D01*
X165508486Y-98013329D01*
X165436903Y-98257298D01*
X161835000Y-98257298D01*
X161835000Y-94096860D01*
X161886595Y-94193387D01*
X161997038Y-94327962D01*
X162131613Y-94438405D01*
X162285149Y-94520472D01*
X162451745Y-94571008D01*
X162624999Y-94588072D01*
X163275001Y-94588072D01*
X163448255Y-94571008D01*
X163614851Y-94520472D01*
X163768387Y-94438405D01*
X163902962Y-94327962D01*
X163975000Y-94240184D01*
X164047038Y-94327962D01*
X164181613Y-94438405D01*
X164335149Y-94520472D01*
X164501745Y-94571008D01*
X164674999Y-94588072D01*
X165325001Y-94588072D01*
X165498255Y-94571008D01*
X165664851Y-94520472D01*
X165818387Y-94438405D01*
X165952962Y-94327962D01*
X166063405Y-94193387D01*
X166121339Y-94085000D01*
X166497713Y-94085000D01*
X166530718Y-94095012D01*
X166655200Y-94107272D01*
X167976000Y-94107272D01*
X168100482Y-94095012D01*
X168220180Y-94058702D01*
X168330494Y-93999737D01*
X168427185Y-93920385D01*
X168506537Y-93823694D01*
X168565502Y-93713380D01*
X168601812Y-93593682D01*
X168614072Y-93469200D01*
X168614072Y-93124560D01*
X168715118Y-93155212D01*
X168839600Y-93167472D01*
X170160400Y-93167472D01*
X170165001Y-93167019D01*
X170165001Y-96454130D01*
X169188578Y-97430555D01*
X169156709Y-97456709D01*
X169071819Y-97560149D01*
X169052364Y-97583855D01*
X168974828Y-97728914D01*
X168949635Y-97811964D01*
X168825518Y-97824188D01*
X168705820Y-97860498D01*
X168595506Y-97919463D01*
X168498815Y-97998815D01*
X168419463Y-98095506D01*
X168360498Y-98205820D01*
X168324188Y-98325518D01*
X168311928Y-98450000D01*
X168311928Y-100050000D01*
X168324188Y-100174482D01*
X168360498Y-100294180D01*
X168419463Y-100404494D01*
X168498815Y-100501185D01*
X168595506Y-100580537D01*
X168705820Y-100639502D01*
X168825518Y-100675812D01*
X168915001Y-100684625D01*
X168915000Y-112654132D01*
X165156890Y-116412243D01*
X165150811Y-116350519D01*
X165114501Y-116230821D01*
X165055536Y-116120507D01*
X164976184Y-116023816D01*
X164879493Y-115944464D01*
X164769179Y-115885499D01*
X164649481Y-115849189D01*
X164524999Y-115836929D01*
X162824999Y-115836929D01*
X162700517Y-115849189D01*
X162580819Y-115885499D01*
X162470505Y-115944464D01*
X162373814Y-116023816D01*
X162294462Y-116120507D01*
X162235497Y-116230821D01*
X162211033Y-116311467D01*
X162135268Y-116227413D01*
X161901919Y-116053360D01*
X161639098Y-115928176D01*
X161491889Y-115883525D01*
X161261999Y-116004846D01*
X161261999Y-117198001D01*
X161281999Y-117198001D01*
X161281999Y-117452001D01*
X161261999Y-117452001D01*
X161261999Y-118645156D01*
X161491889Y-118766477D01*
X161639098Y-118721826D01*
X161901919Y-118596642D01*
X162135268Y-118422589D01*
X162211033Y-118338535D01*
X162235497Y-118419181D01*
X162294462Y-118529495D01*
X162373814Y-118626186D01*
X162411785Y-118657348D01*
X162154133Y-118915000D01*
X157995867Y-118915000D01*
X157738214Y-118657347D01*
X157776184Y-118626186D01*
X157855536Y-118529495D01*
X157914501Y-118419181D01*
X157950811Y-118299483D01*
X157963071Y-118175001D01*
X157963071Y-117681892D01*
X159693518Y-117681892D01*
X159790842Y-117956253D01*
X159939821Y-118206356D01*
X160134730Y-118422589D01*
X160368079Y-118596642D01*
X160630900Y-118721826D01*
X160778109Y-118766477D01*
X161007999Y-118645156D01*
X161007999Y-117452001D01*
X159814185Y-117452001D01*
X159693518Y-117681892D01*
X157963071Y-117681892D01*
X157963071Y-116968110D01*
X159693518Y-116968110D01*
X159814185Y-117198001D01*
X161007999Y-117198001D01*
X161007999Y-116004846D01*
X160778109Y-115883525D01*
X160630900Y-115928176D01*
X160368079Y-116053360D01*
X160134730Y-116227413D01*
X159939821Y-116443646D01*
X159790842Y-116693749D01*
X159693518Y-116968110D01*
X157963071Y-116968110D01*
X157963071Y-116475001D01*
X157950811Y-116350519D01*
X157914501Y-116230821D01*
X157855536Y-116120507D01*
X157776184Y-116023816D01*
X157679493Y-115944464D01*
X157569179Y-115885499D01*
X157449481Y-115849189D01*
X157324999Y-115836929D01*
X155624999Y-115836929D01*
X155500517Y-115849189D01*
X155380819Y-115885499D01*
X155270505Y-115944464D01*
X155173814Y-116023816D01*
X155094462Y-116120507D01*
X155035497Y-116230821D01*
X155011033Y-116311467D01*
X154935268Y-116227413D01*
X154701919Y-116053360D01*
X154439098Y-115928176D01*
X154291889Y-115883525D01*
X154061999Y-116004846D01*
X154061999Y-117198001D01*
X154081999Y-117198001D01*
X154081999Y-117452001D01*
X154061999Y-117452001D01*
X154061999Y-118645156D01*
X154291889Y-118766477D01*
X154439098Y-118721826D01*
X154701919Y-118596642D01*
X154935268Y-118422589D01*
X155011033Y-118338535D01*
X155035497Y-118419181D01*
X155075365Y-118493767D01*
X154654133Y-118915000D01*
X130915868Y-118915000D01*
X129682760Y-117681892D01*
X152493518Y-117681892D01*
X152590842Y-117956253D01*
X152739821Y-118206356D01*
X152934730Y-118422589D01*
X153168079Y-118596642D01*
X153430900Y-118721826D01*
X153578109Y-118766477D01*
X153807999Y-118645156D01*
X153807999Y-117452001D01*
X152614185Y-117452001D01*
X152493518Y-117681892D01*
X129682760Y-117681892D01*
X128968978Y-116968110D01*
X152493518Y-116968110D01*
X152614185Y-117198001D01*
X153807999Y-117198001D01*
X153807999Y-116004846D01*
X153578109Y-115883525D01*
X153430900Y-115928176D01*
X153168079Y-116053360D01*
X152934730Y-116227413D01*
X152739821Y-116443646D01*
X152590842Y-116693749D01*
X152493518Y-116968110D01*
X128968978Y-116968110D01*
X128519446Y-116518579D01*
X128493291Y-116486709D01*
X128366146Y-116382364D01*
X128221087Y-116304828D01*
X128063689Y-116257082D01*
X127941019Y-116245000D01*
X127941018Y-116245000D01*
X127900000Y-116240960D01*
X127899118Y-116241047D01*
X127873845Y-116193765D01*
X127675463Y-115952037D01*
X127496101Y-115804837D01*
X127681315Y-115649437D01*
X127875969Y-115406923D01*
X128019571Y-115131094D01*
X128090563Y-114912980D01*
X127970594Y-114667000D01*
X126627000Y-114667000D01*
X126627000Y-114687000D01*
X126373000Y-114687000D01*
X126373000Y-114667000D01*
X125029406Y-114667000D01*
X124909437Y-114912980D01*
X124980429Y-115131094D01*
X125124031Y-115406923D01*
X125318685Y-115649437D01*
X125503899Y-115804837D01*
X125324537Y-115952037D01*
X125126155Y-116193765D01*
X124978745Y-116469551D01*
X124887970Y-116768796D01*
X124857319Y-117080000D01*
X124887970Y-117391204D01*
X124978745Y-117690449D01*
X125126155Y-117966235D01*
X125324537Y-118207963D01*
X125566265Y-118406345D01*
X125842051Y-118553755D01*
X126141296Y-118644530D01*
X126374514Y-118667500D01*
X126625486Y-118667500D01*
X126858704Y-118644530D01*
X127157949Y-118553755D01*
X127433735Y-118406345D01*
X127675463Y-118207963D01*
X127752827Y-118113695D01*
X129950559Y-120311427D01*
X129976709Y-120343291D01*
X130103854Y-120447636D01*
X130248913Y-120525172D01*
X130406311Y-120572918D01*
X130528981Y-120585000D01*
X130528983Y-120585000D01*
X130569999Y-120589040D01*
X130611015Y-120585000D01*
X154958982Y-120585000D01*
X155000000Y-120589040D01*
X155041018Y-120585000D01*
X155041019Y-120585000D01*
X155163689Y-120572918D01*
X155321087Y-120525172D01*
X155466146Y-120447636D01*
X155593291Y-120343291D01*
X155619445Y-120311422D01*
X156324999Y-119605869D01*
X157030561Y-120311432D01*
X157056707Y-120343291D01*
X157183852Y-120447636D01*
X157328911Y-120525172D01*
X157486309Y-120572918D01*
X157608979Y-120585000D01*
X157608980Y-120585000D01*
X157649998Y-120589040D01*
X157691016Y-120585000D01*
X162458982Y-120585000D01*
X162500000Y-120589040D01*
X162541018Y-120585000D01*
X162541019Y-120585000D01*
X162663689Y-120572918D01*
X162821087Y-120525172D01*
X162966146Y-120447636D01*
X163093291Y-120343291D01*
X163119445Y-120311422D01*
X164236432Y-119194437D01*
X164268290Y-119168292D01*
X164294439Y-119136430D01*
X164334225Y-119087950D01*
X164372635Y-119041147D01*
X164450171Y-118896088D01*
X164475353Y-118813073D01*
X164524999Y-118813073D01*
X164649481Y-118800813D01*
X164769179Y-118764503D01*
X164879493Y-118705538D01*
X164976184Y-118626186D01*
X165055536Y-118529495D01*
X165114501Y-118419181D01*
X165131089Y-118364495D01*
X167465000Y-118364495D01*
X167465000Y-118755505D01*
X167541282Y-119139003D01*
X167690915Y-119500250D01*
X167908149Y-119825364D01*
X168184636Y-120101851D01*
X168509750Y-120319085D01*
X168870997Y-120468718D01*
X169254495Y-120545000D01*
X169645505Y-120545000D01*
X170029003Y-120468718D01*
X170390250Y-120319085D01*
X170715364Y-120101851D01*
X170991851Y-119825364D01*
X171209085Y-119500250D01*
X171358718Y-119139003D01*
X171435000Y-118755505D01*
X171435000Y-118364495D01*
X171358718Y-117980997D01*
X171209085Y-117619750D01*
X170991851Y-117294636D01*
X170715364Y-117018149D01*
X170390250Y-116800915D01*
X170029003Y-116651282D01*
X169645505Y-116575000D01*
X169254495Y-116575000D01*
X168870997Y-116651282D01*
X168509750Y-116800915D01*
X168184636Y-117018149D01*
X167908149Y-117294636D01*
X167690915Y-117619750D01*
X167541282Y-117980997D01*
X167465000Y-118364495D01*
X165131089Y-118364495D01*
X165150811Y-118299483D01*
X165163071Y-118175001D01*
X165163071Y-118160001D01*
X165383981Y-118160001D01*
X165424999Y-118164041D01*
X165466017Y-118160001D01*
X165466018Y-118160001D01*
X165588688Y-118147919D01*
X165746086Y-118100173D01*
X165891145Y-118022637D01*
X166018290Y-117918292D01*
X166044445Y-117886422D01*
X170311428Y-113619440D01*
X170343291Y-113593291D01*
X170447636Y-113466146D01*
X170525172Y-113321087D01*
X170572918Y-113163689D01*
X170585000Y-113041019D01*
X170585000Y-113041018D01*
X170589040Y-113000001D01*
X170585000Y-112958982D01*
X170585000Y-100684625D01*
X170674482Y-100675812D01*
X170794180Y-100639502D01*
X170904494Y-100580537D01*
X171001185Y-100501185D01*
X171080537Y-100404494D01*
X171139502Y-100294180D01*
X171175812Y-100174482D01*
X171188072Y-100050000D01*
X171188072Y-98450000D01*
X171175812Y-98325518D01*
X171139502Y-98205820D01*
X171080537Y-98095506D01*
X171001185Y-97998815D01*
X170990677Y-97990191D01*
X171561432Y-97419437D01*
X171593291Y-97393291D01*
X171697636Y-97266146D01*
X171775172Y-97121087D01*
X171822918Y-96963689D01*
X171835000Y-96841019D01*
X171839040Y-96800000D01*
X171835000Y-96758982D01*
X171835000Y-87841018D01*
X171839040Y-87800000D01*
X171834099Y-87749828D01*
X171822918Y-87636311D01*
X171775172Y-87478913D01*
X171697636Y-87333854D01*
X171680976Y-87313554D01*
X171619439Y-87238570D01*
X171619437Y-87238568D01*
X171593291Y-87206709D01*
X171561433Y-87180564D01*
X170819445Y-86438578D01*
X170793291Y-86406709D01*
X170738072Y-86361392D01*
X170738072Y-86250000D01*
X170721008Y-86076746D01*
X170670472Y-85910150D01*
X170588405Y-85756614D01*
X170477962Y-85622038D01*
X170343386Y-85511595D01*
X170189850Y-85429528D01*
X170023254Y-85378992D01*
X169850000Y-85361928D01*
X168650000Y-85361928D01*
X168476746Y-85378992D01*
X168310150Y-85429528D01*
X168156614Y-85511595D01*
X168022038Y-85622038D01*
X167911595Y-85756614D01*
X167857223Y-85858337D01*
X167805134Y-85794866D01*
X167579014Y-85609294D01*
X167321034Y-85471401D01*
X167041111Y-85386487D01*
X166750000Y-85357815D01*
X166458890Y-85386487D01*
X166178967Y-85471401D01*
X165920987Y-85609294D01*
X165694866Y-85794866D01*
X165509294Y-86020986D01*
X165371401Y-86278966D01*
X165286487Y-86558889D01*
X165265000Y-86777050D01*
X165265000Y-87222949D01*
X165286487Y-87441110D01*
X165371401Y-87721033D01*
X165509294Y-87979013D01*
X165694866Y-88205134D01*
X165912557Y-88383788D01*
X165910960Y-88400000D01*
X165927082Y-88563688D01*
X165974828Y-88721086D01*
X166041643Y-88846087D01*
X166052365Y-88866146D01*
X166156710Y-88993291D01*
X166188574Y-89019441D01*
X167230563Y-90061432D01*
X167256709Y-90093291D01*
X167288568Y-90119437D01*
X167288570Y-90119439D01*
X167383854Y-90197636D01*
X167528913Y-90275172D01*
X167686311Y-90322918D01*
X167850000Y-90339040D01*
X167891018Y-90335000D01*
X168154132Y-90335000D01*
X168306364Y-90487232D01*
X168218264Y-90440509D01*
X168098449Y-90404588D01*
X167973928Y-90392731D01*
X167601350Y-90395800D01*
X167442600Y-90554550D01*
X167442600Y-91183200D01*
X168452250Y-91183200D01*
X168611000Y-91024450D01*
X168601404Y-90904287D01*
X168564706Y-90784708D01*
X168519007Y-90699875D01*
X168665000Y-90845869D01*
X168665000Y-91359991D01*
X168595420Y-91381098D01*
X168485106Y-91440063D01*
X168468632Y-91453582D01*
X168452250Y-91437200D01*
X167442600Y-91437200D01*
X167442600Y-92065850D01*
X167601350Y-92224600D01*
X167973928Y-92227669D01*
X168098449Y-92215812D01*
X168201528Y-92184909D01*
X168201528Y-92315240D01*
X168100482Y-92284588D01*
X167976000Y-92272328D01*
X166655200Y-92272328D01*
X166530718Y-92284588D01*
X166411020Y-92320898D01*
X166300706Y-92379863D01*
X166257891Y-92415000D01*
X166121339Y-92415000D01*
X166063405Y-92306613D01*
X165952962Y-92172038D01*
X165818387Y-92061595D01*
X165664851Y-91979528D01*
X165498255Y-91928992D01*
X165325001Y-91911928D01*
X164674999Y-91911928D01*
X164501745Y-91928992D01*
X164335149Y-91979528D01*
X164181613Y-92061595D01*
X164047038Y-92172038D01*
X163975000Y-92259816D01*
X163902962Y-92172038D01*
X163785000Y-92075229D01*
X163785000Y-91595950D01*
X166020200Y-91595950D01*
X166029796Y-91716113D01*
X166066494Y-91835692D01*
X166125816Y-91945814D01*
X166205482Y-92042248D01*
X166302431Y-92121286D01*
X166412936Y-92179891D01*
X166532751Y-92215812D01*
X166657272Y-92227669D01*
X167029850Y-92224600D01*
X167188600Y-92065850D01*
X167188600Y-91437200D01*
X166178950Y-91437200D01*
X166020200Y-91595950D01*
X163785000Y-91595950D01*
X163785000Y-91024450D01*
X166020200Y-91024450D01*
X166178950Y-91183200D01*
X167188600Y-91183200D01*
X167188600Y-90554550D01*
X167029850Y-90395800D01*
X166657272Y-90392731D01*
X166532751Y-90404588D01*
X166412936Y-90440509D01*
X166302431Y-90499114D01*
X166205482Y-90578152D01*
X166125816Y-90674586D01*
X166066494Y-90784708D01*
X166029796Y-90904287D01*
X166020200Y-91024450D01*
X163785000Y-91024450D01*
X163785000Y-88741018D01*
X163789040Y-88699999D01*
X163772918Y-88536311D01*
X163725172Y-88378913D01*
X163647636Y-88233854D01*
X163608729Y-88186446D01*
X163543291Y-88106709D01*
X163511428Y-88080560D01*
X160085000Y-84654133D01*
X160085000Y-82978578D01*
X160210149Y-83045472D01*
X160376745Y-83096008D01*
X160549999Y-83113072D01*
X161450001Y-83113072D01*
X161623255Y-83096008D01*
X161789851Y-83045472D01*
X161943387Y-82963405D01*
X162077962Y-82852962D01*
X162174771Y-82735000D01*
X166358981Y-82735000D01*
X166400000Y-82739040D01*
X166441018Y-82735000D01*
X169430614Y-82735000D01*
X169556613Y-82838405D01*
X169710149Y-82920472D01*
X169876745Y-82971008D01*
X170049999Y-82988072D01*
X170950001Y-82988072D01*
X171123255Y-82971008D01*
X171289851Y-82920472D01*
X171443387Y-82838405D01*
X171577962Y-82727962D01*
X171688405Y-82593387D01*
X171770472Y-82439851D01*
X171821008Y-82273255D01*
X171838072Y-82100001D01*
X171838072Y-81449999D01*
X171821008Y-81276745D01*
X171770472Y-81110149D01*
X171688405Y-80956613D01*
X171577962Y-80822038D01*
X171490184Y-80750000D01*
X171577962Y-80677962D01*
X171688405Y-80543387D01*
X171770472Y-80389851D01*
X171821008Y-80223255D01*
X171838072Y-80050001D01*
X171838072Y-79399999D01*
X171821008Y-79226745D01*
X171770472Y-79060149D01*
X171688405Y-78906613D01*
X171577962Y-78772038D01*
X171443387Y-78661595D01*
X171289851Y-78579528D01*
X171123255Y-78528992D01*
X171085000Y-78525224D01*
X171085000Y-76937382D01*
X171127502Y-76902502D01*
X171281833Y-76714449D01*
X171396511Y-76499900D01*
X171467130Y-76267101D01*
X171485000Y-76085664D01*
X171485000Y-75414335D01*
X171467130Y-75232898D01*
X171396511Y-75000099D01*
X171281833Y-74785551D01*
X171127502Y-74597498D01*
X170939448Y-74443167D01*
X170724900Y-74328489D01*
X170492101Y-74257870D01*
X170250000Y-74234025D01*
X170007898Y-74257870D01*
X169775099Y-74328489D01*
X169560551Y-74443167D01*
X169372498Y-74597498D01*
X169340809Y-74636111D01*
X169338405Y-74631613D01*
X169227962Y-74497038D01*
X169093387Y-74386595D01*
X168939851Y-74304528D01*
X168773255Y-74253992D01*
X168600001Y-74236928D01*
X167899999Y-74236928D01*
X167726745Y-74253992D01*
X167560149Y-74304528D01*
X167406613Y-74386595D01*
X167272038Y-74497038D01*
X167161595Y-74631613D01*
X167113138Y-74722269D01*
X164705868Y-72315000D01*
X164707002Y-72315000D01*
X164707002Y-72150156D01*
X164936890Y-72271476D01*
X165084099Y-72226825D01*
X165346920Y-72101641D01*
X165580269Y-71927588D01*
X165775178Y-71711355D01*
X165924157Y-71461252D01*
X166021481Y-71186891D01*
X165900814Y-70957000D01*
X164707000Y-70957000D01*
X164707000Y-70977000D01*
X164453000Y-70977000D01*
X164453000Y-70957000D01*
X164433000Y-70957000D01*
X164433000Y-70703000D01*
X164453000Y-70703000D01*
X164453000Y-70683000D01*
X164707000Y-70683000D01*
X164707000Y-70703000D01*
X165900814Y-70703000D01*
X166021481Y-70473109D01*
X165924157Y-70198748D01*
X165775178Y-69948645D01*
X165580269Y-69732412D01*
X165351244Y-69561584D01*
X165409014Y-69530706D01*
X165611542Y-69364495D01*
X167465000Y-69364495D01*
X167465000Y-69755505D01*
X167541282Y-70139003D01*
X167690915Y-70500250D01*
X167908149Y-70825364D01*
X168184636Y-71101851D01*
X168509750Y-71319085D01*
X168870997Y-71468718D01*
X169254495Y-71545000D01*
X169645505Y-71545000D01*
X170029003Y-71468718D01*
X170390250Y-71319085D01*
X170715364Y-71101851D01*
X170991851Y-70825364D01*
X171209085Y-70500250D01*
X171358718Y-70139003D01*
X171435000Y-69755505D01*
X171435000Y-69364495D01*
X171358718Y-68980997D01*
X171209085Y-68619750D01*
X170991851Y-68294636D01*
X170715364Y-68018149D01*
X170390250Y-67800915D01*
X170029003Y-67651282D01*
X169645505Y-67575000D01*
X169254495Y-67575000D01*
X168870997Y-67651282D01*
X168509750Y-67800915D01*
X168184636Y-68018149D01*
X167908149Y-68294636D01*
X167690915Y-68619750D01*
X167541282Y-68980997D01*
X167465000Y-69364495D01*
X165611542Y-69364495D01*
X165635134Y-69345134D01*
X165820706Y-69119014D01*
X165958599Y-68861034D01*
X166043513Y-68581111D01*
X166072185Y-68290000D01*
X166043513Y-67998889D01*
X165958599Y-67718966D01*
X165820706Y-67460986D01*
X165635134Y-67234866D01*
X165409014Y-67049294D01*
X165151034Y-66911401D01*
X164871111Y-66826487D01*
X164652950Y-66805000D01*
X164507050Y-66805000D01*
X164288889Y-66826487D01*
X164008966Y-66911401D01*
X163750986Y-67049294D01*
X163524866Y-67234866D01*
X163339294Y-67460986D01*
X163310000Y-67515791D01*
X163280706Y-67460986D01*
X163095134Y-67234866D01*
X162869014Y-67049294D01*
X162611034Y-66911401D01*
X162331111Y-66826487D01*
X162112950Y-66805000D01*
X161967050Y-66805000D01*
X161748889Y-66826487D01*
X161468966Y-66911401D01*
X161210986Y-67049294D01*
X160984866Y-67234866D01*
X160799294Y-67460986D01*
X160770000Y-67515791D01*
X160740706Y-67460986D01*
X160555134Y-67234866D01*
X160329014Y-67049294D01*
X160071034Y-66911401D01*
X159791111Y-66826487D01*
X159572950Y-66805000D01*
X159427050Y-66805000D01*
X159208889Y-66826487D01*
X158928966Y-66911401D01*
X158670986Y-67049294D01*
X158444866Y-67234866D01*
X158259294Y-67460986D01*
X158224799Y-67525523D01*
X158155178Y-67408645D01*
X157960269Y-67192412D01*
X157726920Y-67018359D01*
X157464099Y-66893175D01*
X157316890Y-66848524D01*
X157087000Y-66969845D01*
X157087000Y-68163000D01*
X157107000Y-68163000D01*
X157107000Y-68417000D01*
X157087000Y-68417000D01*
X157087000Y-68437000D01*
X156833000Y-68437000D01*
X156833000Y-68417000D01*
X156813000Y-68417000D01*
X156813000Y-68163000D01*
X156833000Y-68163000D01*
X156833000Y-66969845D01*
X156603110Y-66848524D01*
X156455901Y-66893175D01*
X156193080Y-67018359D01*
X155959731Y-67192412D01*
X155764822Y-67408645D01*
X155695201Y-67525523D01*
X155660706Y-67460986D01*
X155475134Y-67234866D01*
X155249014Y-67049294D01*
X154991034Y-66911401D01*
X154711111Y-66826487D01*
X154492950Y-66805000D01*
X154347050Y-66805000D01*
X154128889Y-66826487D01*
X153848966Y-66911401D01*
X153590986Y-67049294D01*
X153364866Y-67234866D01*
X153179294Y-67460986D01*
X153144799Y-67525523D01*
X153075178Y-67408645D01*
X152880269Y-67192412D01*
X152646920Y-67018359D01*
X152384099Y-66893175D01*
X152236890Y-66848524D01*
X152007000Y-66969845D01*
X152007000Y-68163000D01*
X152027000Y-68163000D01*
X152027000Y-68417000D01*
X152007000Y-68417000D01*
X152007000Y-68437000D01*
X151753000Y-68437000D01*
X151753000Y-68417000D01*
X151733000Y-68417000D01*
X151733000Y-68163000D01*
X151753000Y-68163000D01*
X151753000Y-66969845D01*
X151523110Y-66848524D01*
X151375901Y-66893175D01*
X151113080Y-67018359D01*
X150879731Y-67192412D01*
X150684822Y-67408645D01*
X150615201Y-67525523D01*
X150580706Y-67460986D01*
X150395134Y-67234866D01*
X150169014Y-67049294D01*
X149911034Y-66911401D01*
X149631111Y-66826487D01*
X149412950Y-66805000D01*
X149267050Y-66805000D01*
X149048889Y-66826487D01*
X148768966Y-66911401D01*
X148510986Y-67049294D01*
X148284866Y-67234866D01*
X148099294Y-67460986D01*
X148070000Y-67515791D01*
X148040706Y-67460986D01*
X147855134Y-67234866D01*
X147629014Y-67049294D01*
X147371034Y-66911401D01*
X147091111Y-66826487D01*
X146872950Y-66805000D01*
X146727050Y-66805000D01*
X146508889Y-66826487D01*
X146228966Y-66911401D01*
X145970986Y-67049294D01*
X145744866Y-67234866D01*
X145559294Y-67460986D01*
X145530000Y-67515791D01*
X145500706Y-67460986D01*
X145315134Y-67234866D01*
X145089014Y-67049294D01*
X144831034Y-66911401D01*
X144551111Y-66826487D01*
X144332950Y-66805000D01*
X144187050Y-66805000D01*
X143968889Y-66826487D01*
X143688966Y-66911401D01*
X143430986Y-67049294D01*
X143204866Y-67234866D01*
X143019294Y-67460986D01*
X142990000Y-67515791D01*
X142960706Y-67460986D01*
X142775134Y-67234866D01*
X142549014Y-67049294D01*
X142291034Y-66911401D01*
X142011111Y-66826487D01*
X141792950Y-66805000D01*
X141647050Y-66805000D01*
X141428889Y-66826487D01*
X141148966Y-66911401D01*
X140890986Y-67049294D01*
X140664866Y-67234866D01*
X140479294Y-67460986D01*
X140444799Y-67525523D01*
X140375178Y-67408645D01*
X140180269Y-67192412D01*
X139946920Y-67018359D01*
X139684099Y-66893175D01*
X139536890Y-66848524D01*
X139307000Y-66969845D01*
X139307000Y-68163000D01*
X139327000Y-68163000D01*
X139327000Y-68417000D01*
X139307000Y-68417000D01*
X139307000Y-68437000D01*
X139053000Y-68437000D01*
X139053000Y-68417000D01*
X139033000Y-68417000D01*
X139033000Y-68163000D01*
X139053000Y-68163000D01*
X139053000Y-66969845D01*
X138823110Y-66848524D01*
X138764999Y-66866150D01*
X138764999Y-65390869D01*
X138811427Y-65344441D01*
X138843291Y-65318291D01*
X138947395Y-65191440D01*
X139093387Y-65113405D01*
X139227962Y-65002962D01*
X139338405Y-64868387D01*
X139420472Y-64714851D01*
X139471008Y-64548255D01*
X139488072Y-64375001D01*
X139488072Y-63124999D01*
X139471008Y-62951745D01*
X139420472Y-62785149D01*
X139338405Y-62631613D01*
X139227962Y-62497038D01*
X139093387Y-62386595D01*
X138939851Y-62304528D01*
X138773255Y-62253992D01*
X138600001Y-62236928D01*
X137899999Y-62236928D01*
X137726745Y-62253992D01*
X137560149Y-62304528D01*
X137406613Y-62386595D01*
X137272038Y-62497038D01*
X137161595Y-62631613D01*
X137159191Y-62636111D01*
X137127502Y-62597498D01*
X136939449Y-62443167D01*
X136724901Y-62328489D01*
X136492102Y-62257870D01*
X136250000Y-62234025D01*
X136007899Y-62257870D01*
X135775100Y-62328489D01*
X135560552Y-62443167D01*
X135372499Y-62597498D01*
X135250001Y-62746763D01*
X135127502Y-62597498D01*
X134939449Y-62443167D01*
X134724901Y-62328489D01*
X134492102Y-62257870D01*
X134250000Y-62234025D01*
X134007899Y-62257870D01*
X133775100Y-62328489D01*
X133560552Y-62443167D01*
X133372499Y-62597498D01*
X133250001Y-62746763D01*
X133127502Y-62597498D01*
X132939449Y-62443167D01*
X132724901Y-62328489D01*
X132492102Y-62257870D01*
X132250000Y-62234025D01*
X132007899Y-62257870D01*
X131775100Y-62328489D01*
X131560552Y-62443167D01*
X131372499Y-62597498D01*
X131249520Y-62747349D01*
X131206307Y-62683275D01*
X131033474Y-62511922D01*
X130830533Y-62377579D01*
X130605282Y-62285409D01*
X130567609Y-62281538D01*
X130377000Y-62406269D01*
X130377000Y-63623000D01*
X130397000Y-63623000D01*
X130397000Y-63877000D01*
X130377000Y-63877000D01*
X130377000Y-65093731D01*
X130567609Y-65218462D01*
X130605282Y-65214591D01*
X130830533Y-65122421D01*
X131033474Y-64988078D01*
X131206307Y-64816725D01*
X131249519Y-64752651D01*
X131306747Y-64822384D01*
X129303404Y-66825728D01*
X129092950Y-66805000D01*
X128947050Y-66805000D01*
X128728889Y-66826487D01*
X128448966Y-66911401D01*
X128190986Y-67049294D01*
X127964866Y-67234866D01*
X127779294Y-67460986D01*
X127750000Y-67515791D01*
X127720706Y-67460986D01*
X127535134Y-67234866D01*
X127309014Y-67049294D01*
X127051034Y-66911401D01*
X126771111Y-66826487D01*
X126552950Y-66805000D01*
X126407050Y-66805000D01*
X126196596Y-66825728D01*
X125059446Y-65688579D01*
X125033291Y-65656709D01*
X124906146Y-65552364D01*
X124761087Y-65474828D01*
X124603689Y-65427082D01*
X124481019Y-65415000D01*
X124481018Y-65415000D01*
X124440000Y-65410960D01*
X124398982Y-65415000D01*
X121631016Y-65415000D01*
X121589997Y-65410960D01*
X121548979Y-65415000D01*
X121426309Y-65427082D01*
X121268911Y-65474828D01*
X121123852Y-65552364D01*
X120996707Y-65656709D01*
X120970557Y-65688574D01*
X119637416Y-67021715D01*
X119431034Y-66911401D01*
X119151111Y-66826487D01*
X118932950Y-66805000D01*
X118787050Y-66805000D01*
X118568889Y-66826487D01*
X118288966Y-66911401D01*
X118030986Y-67049294D01*
X117804866Y-67234866D01*
X117619294Y-67460986D01*
X117590000Y-67515791D01*
X117560706Y-67460986D01*
X117375134Y-67234866D01*
X117149014Y-67049294D01*
X116891034Y-66911401D01*
X116611111Y-66826487D01*
X116392950Y-66805000D01*
X116247050Y-66805000D01*
X116028889Y-66826487D01*
X115748966Y-66911401D01*
X115490986Y-67049294D01*
X115264866Y-67234866D01*
X115079294Y-67460986D01*
X114941401Y-67718966D01*
X114856487Y-67998889D01*
X114827815Y-68290000D01*
X114856487Y-68581111D01*
X114941401Y-68861034D01*
X115079294Y-69119014D01*
X115264866Y-69345134D01*
X115294687Y-69369607D01*
X115225820Y-69390498D01*
X115115506Y-69449463D01*
X115018815Y-69528815D01*
X114939463Y-69625506D01*
X114880498Y-69735820D01*
X114844188Y-69855518D01*
X114831928Y-69980000D01*
X114831928Y-71680000D01*
X114844188Y-71804482D01*
X114880498Y-71924180D01*
X114939463Y-72034494D01*
X115018815Y-72131185D01*
X115115506Y-72210537D01*
X115225820Y-72269502D01*
X115345518Y-72305812D01*
X115470000Y-72318072D01*
X117170000Y-72318072D01*
X117294482Y-72305812D01*
X117414180Y-72269502D01*
X117524494Y-72210537D01*
X117621185Y-72131185D01*
X117700537Y-72034494D01*
X117759502Y-71924180D01*
X117780393Y-71855313D01*
X117804866Y-71885134D01*
X118030986Y-72070706D01*
X118288966Y-72208599D01*
X118550228Y-72287852D01*
X118474828Y-72428914D01*
X118427082Y-72586312D01*
X118410960Y-72750000D01*
X118415001Y-72791029D01*
X118415000Y-88179131D01*
X113303161Y-93290971D01*
X113253238Y-93250000D01*
X113402502Y-93127502D01*
X113556833Y-92939449D01*
X113671511Y-92724901D01*
X113742130Y-92492102D01*
X113765975Y-92250000D01*
X113742130Y-92007898D01*
X113671511Y-91775099D01*
X113556833Y-91560551D01*
X113402502Y-91372498D01*
X113252652Y-91249519D01*
X113316725Y-91206307D01*
X113488078Y-91033474D01*
X113622421Y-90830533D01*
X113714591Y-90605282D01*
X113718462Y-90567609D01*
X113593731Y-90377000D01*
X112377000Y-90377000D01*
X112377000Y-90397000D01*
X112123000Y-90397000D01*
X112123000Y-90377000D01*
X112103000Y-90377000D01*
X112103000Y-90123000D01*
X112123000Y-90123000D01*
X112123000Y-90103000D01*
X112377000Y-90103000D01*
X112377000Y-90123000D01*
X113593731Y-90123000D01*
X113718462Y-89932391D01*
X113714591Y-89894718D01*
X113622421Y-89669467D01*
X113488078Y-89466526D01*
X113316725Y-89293693D01*
X113114946Y-89157610D01*
X112890496Y-89063507D01*
X112652000Y-89015000D01*
X111848000Y-89015000D01*
X111609504Y-89063507D01*
X111385054Y-89157610D01*
X111183275Y-89293693D01*
X111135000Y-89342385D01*
X111135000Y-88220131D01*
X112763141Y-86591991D01*
X112806449Y-86556449D01*
X112948284Y-86383623D01*
X113053676Y-86186447D01*
X113103471Y-86022295D01*
X113118577Y-85972500D01*
X113140491Y-85750001D01*
X113135000Y-85694249D01*
X113135000Y-82888072D01*
X113500000Y-82888072D01*
X113624482Y-82875812D01*
X113744180Y-82839502D01*
X113854494Y-82780537D01*
X113951185Y-82701185D01*
X114030537Y-82604494D01*
X114089502Y-82494180D01*
X114125812Y-82374482D01*
X114138072Y-82250000D01*
X114138072Y-79250000D01*
X114125812Y-79125518D01*
X114089502Y-79005820D01*
X114030537Y-78895506D01*
X113951185Y-78798815D01*
X113854494Y-78719463D01*
X113744180Y-78660498D01*
X113624482Y-78624188D01*
X113500000Y-78611928D01*
X110500000Y-78611928D01*
X110375518Y-78624188D01*
X110255820Y-78660498D01*
X110145506Y-78719463D01*
X110048815Y-78798815D01*
X109969463Y-78895506D01*
X109910498Y-79005820D01*
X109874188Y-79125518D01*
X109861928Y-79250000D01*
X109861928Y-82250000D01*
X109874188Y-82374482D01*
X109910498Y-82494180D01*
X109969463Y-82604494D01*
X110048815Y-82701185D01*
X110145506Y-82780537D01*
X110255820Y-82839502D01*
X110375518Y-82875812D01*
X110500000Y-82888072D01*
X110865000Y-82888072D01*
X110865001Y-85279867D01*
X109236865Y-86908004D01*
X109193551Y-86943551D01*
X109051716Y-87116377D01*
X108946325Y-87313553D01*
X108946324Y-87313554D01*
X108881423Y-87527502D01*
X108859509Y-87750000D01*
X108635400Y-87750000D01*
X108635400Y-77161653D01*
X110687952Y-77161653D01*
X110843962Y-77477214D01*
X111218745Y-77668020D01*
X111623551Y-77782044D01*
X112042824Y-77814902D01*
X112460451Y-77765334D01*
X112860383Y-77635243D01*
X113156038Y-77477214D01*
X113312048Y-77161653D01*
X112000000Y-75849605D01*
X110687952Y-77161653D01*
X108635400Y-77161653D01*
X108635400Y-75712824D01*
X109855098Y-75712824D01*
X109904666Y-76130451D01*
X110034757Y-76530383D01*
X110192786Y-76826038D01*
X110508347Y-76982048D01*
X111820395Y-75670000D01*
X112179605Y-75670000D01*
X113491653Y-76982048D01*
X113807214Y-76826038D01*
X113998020Y-76451255D01*
X114112044Y-76046449D01*
X114144902Y-75627176D01*
X114095334Y-75209549D01*
X113965243Y-74809617D01*
X113807214Y-74513962D01*
X113491653Y-74357952D01*
X112179605Y-75670000D01*
X111820395Y-75670000D01*
X110508347Y-74357952D01*
X110192786Y-74513962D01*
X110001980Y-74888745D01*
X109887956Y-75293551D01*
X109855098Y-75712824D01*
X108635400Y-75712824D01*
X108635400Y-74178347D01*
X110687952Y-74178347D01*
X112000000Y-75490395D01*
X113312048Y-74178347D01*
X113156038Y-73862786D01*
X112781255Y-73671980D01*
X112376449Y-73557956D01*
X111957176Y-73525098D01*
X111539549Y-73574666D01*
X111139617Y-73704757D01*
X110843962Y-73862786D01*
X110687952Y-74178347D01*
X108635400Y-74178347D01*
X108635400Y-69364495D01*
X109465000Y-69364495D01*
X109465000Y-69755505D01*
X109541282Y-70139003D01*
X109690915Y-70500250D01*
X109908149Y-70825364D01*
X110184636Y-71101851D01*
X110509750Y-71319085D01*
X110870997Y-71468718D01*
X111254495Y-71545000D01*
X111645505Y-71545000D01*
X112029003Y-71468718D01*
X112390250Y-71319085D01*
X112715364Y-71101851D01*
X112991851Y-70825364D01*
X113209085Y-70500250D01*
X113358718Y-70139003D01*
X113435000Y-69755505D01*
X113435000Y-69364495D01*
X113358718Y-68980997D01*
X113209085Y-68619750D01*
X112991851Y-68294636D01*
X112715364Y-68018149D01*
X112390250Y-67800915D01*
X112029003Y-67651282D01*
X111645505Y-67575000D01*
X111254495Y-67575000D01*
X110870997Y-67651282D01*
X110509750Y-67800915D01*
X110184636Y-68018149D01*
X109908149Y-68294636D01*
X109690915Y-68619750D01*
X109541282Y-68980997D01*
X109465000Y-69364495D01*
X108635400Y-69364495D01*
X108635400Y-63877000D01*
X129015000Y-63877000D01*
X129015000Y-64152000D01*
X129063507Y-64390496D01*
X129157610Y-64614946D01*
X129293693Y-64816725D01*
X129466526Y-64988078D01*
X129669467Y-65122421D01*
X129894718Y-65214591D01*
X129932391Y-65218462D01*
X130123000Y-65093731D01*
X130123000Y-63877000D01*
X129015000Y-63877000D01*
X108635400Y-63877000D01*
X108635400Y-63348000D01*
X129015000Y-63348000D01*
X129015000Y-63623000D01*
X130123000Y-63623000D01*
X130123000Y-62406269D01*
X129932391Y-62281538D01*
X129894718Y-62285409D01*
X129669467Y-62377579D01*
X129466526Y-62511922D01*
X129293693Y-62683275D01*
X129157610Y-62885054D01*
X129063507Y-63109504D01*
X129015000Y-63348000D01*
X108635400Y-63348000D01*
X108635400Y-63093505D01*
X108682712Y-62610984D01*
X108813114Y-62179070D01*
X108884167Y-62045439D01*
X109937258Y-60992348D01*
X110054577Y-60928914D01*
X110485561Y-60795502D01*
X110966080Y-60744997D01*
X170568534Y-60738004D01*
X170912333Y-60771714D01*
X170912333Y-60771714D01*
G37*
X170912333Y-60771714D02*
X171210842Y-60861839D01*
X171486162Y-61008229D01*
X171727805Y-61205308D01*
X171926567Y-61445571D01*
X172074874Y-61719858D01*
X172167081Y-62017734D01*
X172203001Y-62359487D01*
X172203000Y-119661494D01*
X172169286Y-120005332D01*
X172079161Y-120303843D01*
X171932771Y-120579162D01*
X171735692Y-120820805D01*
X171495432Y-121019565D01*
X171221143Y-121167873D01*
X170923266Y-121260081D01*
X170581522Y-121296000D01*
X110983904Y-121296000D01*
X110501384Y-121248688D01*
X110069473Y-121118287D01*
X109683519Y-120913072D01*
X108933562Y-120088120D01*
X108819315Y-119876825D01*
X108685900Y-119445834D01*
X108635400Y-118965346D01*
X108635400Y-118364495D01*
X109465000Y-118364495D01*
X109465000Y-118755505D01*
X109541282Y-119139003D01*
X109690915Y-119500250D01*
X109908149Y-119825364D01*
X110184636Y-120101851D01*
X110509750Y-120319085D01*
X110870997Y-120468718D01*
X111254495Y-120545000D01*
X111645505Y-120545000D01*
X112029003Y-120468718D01*
X112390250Y-120319085D01*
X112715364Y-120101851D01*
X112991851Y-119825364D01*
X113209085Y-119500250D01*
X113358718Y-119139003D01*
X113435000Y-118755505D01*
X113435000Y-118364495D01*
X113358718Y-117980997D01*
X113209085Y-117619750D01*
X112991851Y-117294636D01*
X112715364Y-117018149D01*
X112390250Y-116800915D01*
X112029003Y-116651282D01*
X111645505Y-116575000D01*
X111254495Y-116575000D01*
X110870997Y-116651282D01*
X110509750Y-116800915D01*
X110184636Y-117018149D01*
X109908149Y-117294636D01*
X109690915Y-117619750D01*
X109541282Y-117980997D01*
X109465000Y-118364495D01*
X108635400Y-118364495D01*
X108635400Y-116492702D01*
X118686903Y-116492702D01*
X118758486Y-116736671D01*
X119013996Y-116857571D01*
X119288184Y-116926300D01*
X119570512Y-116940217D01*
X119850130Y-116898787D01*
X120116292Y-116803603D01*
X120241514Y-116736671D01*
X120313097Y-116492702D01*
X119500000Y-115679605D01*
X118686903Y-116492702D01*
X108635400Y-116492702D01*
X108635400Y-115570512D01*
X118059783Y-115570512D01*
X118101213Y-115850130D01*
X118196397Y-116116292D01*
X118263329Y-116241514D01*
X118507298Y-116313097D01*
X119320395Y-115500000D01*
X119679605Y-115500000D01*
X120492702Y-116313097D01*
X120736671Y-116241514D01*
X120857571Y-115986004D01*
X120926300Y-115711816D01*
X120940217Y-115429488D01*
X120898787Y-115149870D01*
X120803603Y-114883708D01*
X120736671Y-114758486D01*
X120492702Y-114686903D01*
X119679605Y-115500000D01*
X119320395Y-115500000D01*
X118507298Y-114686903D01*
X118263329Y-114758486D01*
X118142429Y-115013996D01*
X118073700Y-115288184D01*
X118059783Y-115570512D01*
X108635400Y-115570512D01*
X108635400Y-114507298D01*
X118686903Y-114507298D01*
X119500000Y-115320395D01*
X120313097Y-114507298D01*
X120241514Y-114263329D01*
X119986004Y-114142429D01*
X119711816Y-114073700D01*
X119429488Y-114059783D01*
X119149870Y-114101213D01*
X118883708Y-114196397D01*
X118758486Y-114263329D01*
X118686903Y-114507298D01*
X108635400Y-114507298D01*
X108635400Y-87750000D01*
X108859509Y-87750000D01*
X108865000Y-87805752D01*
X108865001Y-96919239D01*
X108859509Y-96975000D01*
X108881423Y-97197498D01*
X108946324Y-97411446D01*
X108946325Y-97411447D01*
X109051717Y-97608623D01*
X109193552Y-97781449D01*
X109236860Y-97816991D01*
X110433008Y-99013140D01*
X110468551Y-99056449D01*
X110641377Y-99198284D01*
X110838553Y-99303676D01*
X111052501Y-99368577D01*
X111115000Y-99374733D01*
X111115001Y-106494239D01*
X111109509Y-106550000D01*
X111131423Y-106772498D01*
X111196324Y-106986446D01*
X111236376Y-107061377D01*
X111301717Y-107183623D01*
X111443552Y-107356449D01*
X111486860Y-107391991D01*
X116858009Y-112763141D01*
X116893551Y-112806449D01*
X117066377Y-112948284D01*
X117239873Y-113041019D01*
X117263553Y-113053676D01*
X117477501Y-113118577D01*
X117700000Y-113140491D01*
X117755751Y-113135000D01*
X118159043Y-113135000D01*
X118169463Y-113154494D01*
X118248815Y-113251185D01*
X118345506Y-113330537D01*
X118455820Y-113389502D01*
X118575518Y-113425812D01*
X118700000Y-113438072D01*
X120300000Y-113438072D01*
X120424482Y-113425812D01*
X120544180Y-113389502D01*
X120654494Y-113330537D01*
X120751185Y-113251185D01*
X120830537Y-113154494D01*
X120840957Y-113135000D01*
X124891788Y-113135000D01*
X124910498Y-113196680D01*
X124969463Y-113306994D01*
X125048815Y-113403685D01*
X125145506Y-113483037D01*
X125237219Y-113532059D01*
X125124031Y-113673077D01*
X124980429Y-113948906D01*
X124909437Y-114167020D01*
X125029406Y-114413000D01*
X126373000Y-114413000D01*
X126373000Y-114393000D01*
X126627000Y-114393000D01*
X126627000Y-114413000D01*
X127970594Y-114413000D01*
X128090563Y-114167020D01*
X128019571Y-113948906D01*
X127875969Y-113673077D01*
X127762781Y-113532059D01*
X127854494Y-113483037D01*
X127951185Y-113403685D01*
X128030537Y-113306994D01*
X128089502Y-113196680D01*
X128108212Y-113135000D01*
X155194249Y-113135000D01*
X155250000Y-113140491D01*
X155305751Y-113135000D01*
X155305752Y-113135000D01*
X155472499Y-113118577D01*
X155686447Y-113053676D01*
X155883623Y-112948284D01*
X156056449Y-112806449D01*
X156091996Y-112763135D01*
X158013141Y-110841991D01*
X158056449Y-110806449D01*
X158198284Y-110633623D01*
X158303676Y-110436447D01*
X158368577Y-110222499D01*
X158385000Y-110055752D01*
X158385000Y-110055751D01*
X158390491Y-110000001D01*
X158385000Y-109944249D01*
X158385000Y-108824771D01*
X158502962Y-108727962D01*
X158613405Y-108593387D01*
X158617888Y-108585000D01*
X159708982Y-108585000D01*
X159750000Y-108589040D01*
X159791018Y-108585000D01*
X159791019Y-108585000D01*
X159913689Y-108572918D01*
X160071087Y-108525172D01*
X160216146Y-108447636D01*
X160343291Y-108343291D01*
X160369445Y-108311422D01*
X161561432Y-107119437D01*
X161593291Y-107093291D01*
X161620256Y-107060435D01*
X161697636Y-106966146D01*
X161775172Y-106821087D01*
X161822918Y-106663689D01*
X161829697Y-106594863D01*
X161835000Y-106541019D01*
X161839040Y-106500000D01*
X161835000Y-106458982D01*
X161835000Y-100242702D01*
X165436903Y-100242702D01*
X165508486Y-100486671D01*
X165763996Y-100607571D01*
X166038184Y-100676300D01*
X166320512Y-100690217D01*
X166600130Y-100648787D01*
X166866292Y-100553603D01*
X166991514Y-100486671D01*
X167063097Y-100242702D01*
X166250000Y-99429605D01*
X165436903Y-100242702D01*
X161835000Y-100242702D01*
X161835000Y-99320512D01*
X164809783Y-99320512D01*
X164851213Y-99600130D01*
X164946397Y-99866292D01*
X165013329Y-99991514D01*
X165257298Y-100063097D01*
X166070395Y-99250000D01*
X166429605Y-99250000D01*
X167242702Y-100063097D01*
X167486671Y-99991514D01*
X167607571Y-99736004D01*
X167676300Y-99461816D01*
X167690217Y-99179488D01*
X167648787Y-98899870D01*
X167553603Y-98633708D01*
X167486671Y-98508486D01*
X167242702Y-98436903D01*
X166429605Y-99250000D01*
X166070395Y-99250000D01*
X165257298Y-98436903D01*
X165013329Y-98508486D01*
X164892429Y-98763996D01*
X164823700Y-99038184D01*
X164809783Y-99320512D01*
X161835000Y-99320512D01*
X161835000Y-98257298D01*
X165436903Y-98257298D01*
X166250000Y-99070395D01*
X167063097Y-98257298D01*
X166991514Y-98013329D01*
X166736004Y-97892429D01*
X166461816Y-97823700D01*
X166179488Y-97809783D01*
X165899870Y-97851213D01*
X165633708Y-97946397D01*
X165508486Y-98013329D01*
X165436903Y-98257298D01*
X161835000Y-98257298D01*
X161835000Y-94096860D01*
X161886595Y-94193387D01*
X161997038Y-94327962D01*
X162131613Y-94438405D01*
X162285149Y-94520472D01*
X162451745Y-94571008D01*
X162624999Y-94588072D01*
X163275001Y-94588072D01*
X163448255Y-94571008D01*
X163614851Y-94520472D01*
X163768387Y-94438405D01*
X163902962Y-94327962D01*
X163975000Y-94240184D01*
X164047038Y-94327962D01*
X164181613Y-94438405D01*
X164335149Y-94520472D01*
X164501745Y-94571008D01*
X164674999Y-94588072D01*
X165325001Y-94588072D01*
X165498255Y-94571008D01*
X165664851Y-94520472D01*
X165818387Y-94438405D01*
X165952962Y-94327962D01*
X166063405Y-94193387D01*
X166121339Y-94085000D01*
X166497713Y-94085000D01*
X166530718Y-94095012D01*
X166655200Y-94107272D01*
X167976000Y-94107272D01*
X168100482Y-94095012D01*
X168220180Y-94058702D01*
X168330494Y-93999737D01*
X168427185Y-93920385D01*
X168506537Y-93823694D01*
X168565502Y-93713380D01*
X168601812Y-93593682D01*
X168614072Y-93469200D01*
X168614072Y-93124560D01*
X168715118Y-93155212D01*
X168839600Y-93167472D01*
X170160400Y-93167472D01*
X170165001Y-93167019D01*
X170165001Y-96454130D01*
X169188578Y-97430555D01*
X169156709Y-97456709D01*
X169071819Y-97560149D01*
X169052364Y-97583855D01*
X168974828Y-97728914D01*
X168949635Y-97811964D01*
X168825518Y-97824188D01*
X168705820Y-97860498D01*
X168595506Y-97919463D01*
X168498815Y-97998815D01*
X168419463Y-98095506D01*
X168360498Y-98205820D01*
X168324188Y-98325518D01*
X168311928Y-98450000D01*
X168311928Y-100050000D01*
X168324188Y-100174482D01*
X168360498Y-100294180D01*
X168419463Y-100404494D01*
X168498815Y-100501185D01*
X168595506Y-100580537D01*
X168705820Y-100639502D01*
X168825518Y-100675812D01*
X168915001Y-100684625D01*
X168915000Y-112654132D01*
X165156890Y-116412243D01*
X165150811Y-116350519D01*
X165114501Y-116230821D01*
X165055536Y-116120507D01*
X164976184Y-116023816D01*
X164879493Y-115944464D01*
X164769179Y-115885499D01*
X164649481Y-115849189D01*
X164524999Y-115836929D01*
X162824999Y-115836929D01*
X162700517Y-115849189D01*
X162580819Y-115885499D01*
X162470505Y-115944464D01*
X162373814Y-116023816D01*
X162294462Y-116120507D01*
X162235497Y-116230821D01*
X162211033Y-116311467D01*
X162135268Y-116227413D01*
X161901919Y-116053360D01*
X161639098Y-115928176D01*
X161491889Y-115883525D01*
X161261999Y-116004846D01*
X161261999Y-117198001D01*
X161281999Y-117198001D01*
X161281999Y-117452001D01*
X161261999Y-117452001D01*
X161261999Y-118645156D01*
X161491889Y-118766477D01*
X161639098Y-118721826D01*
X161901919Y-118596642D01*
X162135268Y-118422589D01*
X162211033Y-118338535D01*
X162235497Y-118419181D01*
X162294462Y-118529495D01*
X162373814Y-118626186D01*
X162411785Y-118657348D01*
X162154133Y-118915000D01*
X157995867Y-118915000D01*
X157738214Y-118657347D01*
X157776184Y-118626186D01*
X157855536Y-118529495D01*
X157914501Y-118419181D01*
X157950811Y-118299483D01*
X157963071Y-118175001D01*
X157963071Y-117681892D01*
X159693518Y-117681892D01*
X159790842Y-117956253D01*
X159939821Y-118206356D01*
X160134730Y-118422589D01*
X160368079Y-118596642D01*
X160630900Y-118721826D01*
X160778109Y-118766477D01*
X161007999Y-118645156D01*
X161007999Y-117452001D01*
X159814185Y-117452001D01*
X159693518Y-117681892D01*
X157963071Y-117681892D01*
X157963071Y-116968110D01*
X159693518Y-116968110D01*
X159814185Y-117198001D01*
X161007999Y-117198001D01*
X161007999Y-116004846D01*
X160778109Y-115883525D01*
X160630900Y-115928176D01*
X160368079Y-116053360D01*
X160134730Y-116227413D01*
X159939821Y-116443646D01*
X159790842Y-116693749D01*
X159693518Y-116968110D01*
X157963071Y-116968110D01*
X157963071Y-116475001D01*
X157950811Y-116350519D01*
X157914501Y-116230821D01*
X157855536Y-116120507D01*
X157776184Y-116023816D01*
X157679493Y-115944464D01*
X157569179Y-115885499D01*
X157449481Y-115849189D01*
X157324999Y-115836929D01*
X155624999Y-115836929D01*
X155500517Y-115849189D01*
X155380819Y-115885499D01*
X155270505Y-115944464D01*
X155173814Y-116023816D01*
X155094462Y-116120507D01*
X155035497Y-116230821D01*
X155011033Y-116311467D01*
X154935268Y-116227413D01*
X154701919Y-116053360D01*
X154439098Y-115928176D01*
X154291889Y-115883525D01*
X154061999Y-116004846D01*
X154061999Y-117198001D01*
X154081999Y-117198001D01*
X154081999Y-117452001D01*
X154061999Y-117452001D01*
X154061999Y-118645156D01*
X154291889Y-118766477D01*
X154439098Y-118721826D01*
X154701919Y-118596642D01*
X154935268Y-118422589D01*
X155011033Y-118338535D01*
X155035497Y-118419181D01*
X155075365Y-118493767D01*
X154654133Y-118915000D01*
X130915868Y-118915000D01*
X129682760Y-117681892D01*
X152493518Y-117681892D01*
X152590842Y-117956253D01*
X152739821Y-118206356D01*
X152934730Y-118422589D01*
X153168079Y-118596642D01*
X153430900Y-118721826D01*
X153578109Y-118766477D01*
X153807999Y-118645156D01*
X153807999Y-117452001D01*
X152614185Y-117452001D01*
X152493518Y-117681892D01*
X129682760Y-117681892D01*
X128968978Y-116968110D01*
X152493518Y-116968110D01*
X152614185Y-117198001D01*
X153807999Y-117198001D01*
X153807999Y-116004846D01*
X153578109Y-115883525D01*
X153430900Y-115928176D01*
X153168079Y-116053360D01*
X152934730Y-116227413D01*
X152739821Y-116443646D01*
X152590842Y-116693749D01*
X152493518Y-116968110D01*
X128968978Y-116968110D01*
X128519446Y-116518579D01*
X128493291Y-116486709D01*
X128366146Y-116382364D01*
X128221087Y-116304828D01*
X128063689Y-116257082D01*
X127941019Y-116245000D01*
X127941018Y-116245000D01*
X127900000Y-116240960D01*
X127899118Y-116241047D01*
X127873845Y-116193765D01*
X127675463Y-115952037D01*
X127496101Y-115804837D01*
X127681315Y-115649437D01*
X127875969Y-115406923D01*
X128019571Y-115131094D01*
X128090563Y-114912980D01*
X127970594Y-114667000D01*
X126627000Y-114667000D01*
X126627000Y-114687000D01*
X126373000Y-114687000D01*
X126373000Y-114667000D01*
X125029406Y-114667000D01*
X124909437Y-114912980D01*
X124980429Y-115131094D01*
X125124031Y-115406923D01*
X125318685Y-115649437D01*
X125503899Y-115804837D01*
X125324537Y-115952037D01*
X125126155Y-116193765D01*
X124978745Y-116469551D01*
X124887970Y-116768796D01*
X124857319Y-117080000D01*
X124887970Y-117391204D01*
X124978745Y-117690449D01*
X125126155Y-117966235D01*
X125324537Y-118207963D01*
X125566265Y-118406345D01*
X125842051Y-118553755D01*
X126141296Y-118644530D01*
X126374514Y-118667500D01*
X126625486Y-118667500D01*
X126858704Y-118644530D01*
X127157949Y-118553755D01*
X127433735Y-118406345D01*
X127675463Y-118207963D01*
X127752827Y-118113695D01*
X129950559Y-120311427D01*
X129976709Y-120343291D01*
X130103854Y-120447636D01*
X130248913Y-120525172D01*
X130406311Y-120572918D01*
X130528981Y-120585000D01*
X130528983Y-120585000D01*
X130569999Y-120589040D01*
X130611015Y-120585000D01*
X154958982Y-120585000D01*
X155000000Y-120589040D01*
X155041018Y-120585000D01*
X155041019Y-120585000D01*
X155163689Y-120572918D01*
X155321087Y-120525172D01*
X155466146Y-120447636D01*
X155593291Y-120343291D01*
X155619445Y-120311422D01*
X156324999Y-119605869D01*
X157030561Y-120311432D01*
X157056707Y-120343291D01*
X157183852Y-120447636D01*
X157328911Y-120525172D01*
X157486309Y-120572918D01*
X157608979Y-120585000D01*
X157608980Y-120585000D01*
X157649998Y-120589040D01*
X157691016Y-120585000D01*
X162458982Y-120585000D01*
X162500000Y-120589040D01*
X162541018Y-120585000D01*
X162541019Y-120585000D01*
X162663689Y-120572918D01*
X162821087Y-120525172D01*
X162966146Y-120447636D01*
X163093291Y-120343291D01*
X163119445Y-120311422D01*
X164236432Y-119194437D01*
X164268290Y-119168292D01*
X164294439Y-119136430D01*
X164334225Y-119087950D01*
X164372635Y-119041147D01*
X164450171Y-118896088D01*
X164475353Y-118813073D01*
X164524999Y-118813073D01*
X164649481Y-118800813D01*
X164769179Y-118764503D01*
X164879493Y-118705538D01*
X164976184Y-118626186D01*
X165055536Y-118529495D01*
X165114501Y-118419181D01*
X165131089Y-118364495D01*
X167465000Y-118364495D01*
X167465000Y-118755505D01*
X167541282Y-119139003D01*
X167690915Y-119500250D01*
X167908149Y-119825364D01*
X168184636Y-120101851D01*
X168509750Y-120319085D01*
X168870997Y-120468718D01*
X169254495Y-120545000D01*
X169645505Y-120545000D01*
X170029003Y-120468718D01*
X170390250Y-120319085D01*
X170715364Y-120101851D01*
X170991851Y-119825364D01*
X171209085Y-119500250D01*
X171358718Y-119139003D01*
X171435000Y-118755505D01*
X171435000Y-118364495D01*
X171358718Y-117980997D01*
X171209085Y-117619750D01*
X170991851Y-117294636D01*
X170715364Y-117018149D01*
X170390250Y-116800915D01*
X170029003Y-116651282D01*
X169645505Y-116575000D01*
X169254495Y-116575000D01*
X168870997Y-116651282D01*
X168509750Y-116800915D01*
X168184636Y-117018149D01*
X167908149Y-117294636D01*
X167690915Y-117619750D01*
X167541282Y-117980997D01*
X167465000Y-118364495D01*
X165131089Y-118364495D01*
X165150811Y-118299483D01*
X165163071Y-118175001D01*
X165163071Y-118160001D01*
X165383981Y-118160001D01*
X165424999Y-118164041D01*
X165466017Y-118160001D01*
X165466018Y-118160001D01*
X165588688Y-118147919D01*
X165746086Y-118100173D01*
X165891145Y-118022637D01*
X166018290Y-117918292D01*
X166044445Y-117886422D01*
X170311428Y-113619440D01*
X170343291Y-113593291D01*
X170447636Y-113466146D01*
X170525172Y-113321087D01*
X170572918Y-113163689D01*
X170585000Y-113041019D01*
X170585000Y-113041018D01*
X170589040Y-113000001D01*
X170585000Y-112958982D01*
X170585000Y-100684625D01*
X170674482Y-100675812D01*
X170794180Y-100639502D01*
X170904494Y-100580537D01*
X171001185Y-100501185D01*
X171080537Y-100404494D01*
X171139502Y-100294180D01*
X171175812Y-100174482D01*
X171188072Y-100050000D01*
X171188072Y-98450000D01*
X171175812Y-98325518D01*
X171139502Y-98205820D01*
X171080537Y-98095506D01*
X171001185Y-97998815D01*
X170990677Y-97990191D01*
X171561432Y-97419437D01*
X171593291Y-97393291D01*
X171697636Y-97266146D01*
X171775172Y-97121087D01*
X171822918Y-96963689D01*
X171835000Y-96841019D01*
X171839040Y-96800000D01*
X171835000Y-96758982D01*
X171835000Y-87841018D01*
X171839040Y-87800000D01*
X171834099Y-87749828D01*
X171822918Y-87636311D01*
X171775172Y-87478913D01*
X171697636Y-87333854D01*
X171680976Y-87313554D01*
X171619439Y-87238570D01*
X171619437Y-87238568D01*
X171593291Y-87206709D01*
X171561433Y-87180564D01*
X170819445Y-86438578D01*
X170793291Y-86406709D01*
X170738072Y-86361392D01*
X170738072Y-86250000D01*
X170721008Y-86076746D01*
X170670472Y-85910150D01*
X170588405Y-85756614D01*
X170477962Y-85622038D01*
X170343386Y-85511595D01*
X170189850Y-85429528D01*
X170023254Y-85378992D01*
X169850000Y-85361928D01*
X168650000Y-85361928D01*
X168476746Y-85378992D01*
X168310150Y-85429528D01*
X168156614Y-85511595D01*
X168022038Y-85622038D01*
X167911595Y-85756614D01*
X167857223Y-85858337D01*
X167805134Y-85794866D01*
X167579014Y-85609294D01*
X167321034Y-85471401D01*
X167041111Y-85386487D01*
X166750000Y-85357815D01*
X166458890Y-85386487D01*
X166178967Y-85471401D01*
X165920987Y-85609294D01*
X165694866Y-85794866D01*
X165509294Y-86020986D01*
X165371401Y-86278966D01*
X165286487Y-86558889D01*
X165265000Y-86777050D01*
X165265000Y-87222949D01*
X165286487Y-87441110D01*
X165371401Y-87721033D01*
X165509294Y-87979013D01*
X165694866Y-88205134D01*
X165912557Y-88383788D01*
X165910960Y-88400000D01*
X165927082Y-88563688D01*
X165974828Y-88721086D01*
X166041643Y-88846087D01*
X166052365Y-88866146D01*
X166156710Y-88993291D01*
X166188574Y-89019441D01*
X167230563Y-90061432D01*
X167256709Y-90093291D01*
X167288568Y-90119437D01*
X167288570Y-90119439D01*
X167383854Y-90197636D01*
X167528913Y-90275172D01*
X167686311Y-90322918D01*
X167850000Y-90339040D01*
X167891018Y-90335000D01*
X168154132Y-90335000D01*
X168306364Y-90487232D01*
X168218264Y-90440509D01*
X168098449Y-90404588D01*
X167973928Y-90392731D01*
X167601350Y-90395800D01*
X167442600Y-90554550D01*
X167442600Y-91183200D01*
X168452250Y-91183200D01*
X168611000Y-91024450D01*
X168601404Y-90904287D01*
X168564706Y-90784708D01*
X168519007Y-90699875D01*
X168665000Y-90845869D01*
X168665000Y-91359991D01*
X168595420Y-91381098D01*
X168485106Y-91440063D01*
X168468632Y-91453582D01*
X168452250Y-91437200D01*
X167442600Y-91437200D01*
X167442600Y-92065850D01*
X167601350Y-92224600D01*
X167973928Y-92227669D01*
X168098449Y-92215812D01*
X168201528Y-92184909D01*
X168201528Y-92315240D01*
X168100482Y-92284588D01*
X167976000Y-92272328D01*
X166655200Y-92272328D01*
X166530718Y-92284588D01*
X166411020Y-92320898D01*
X166300706Y-92379863D01*
X166257891Y-92415000D01*
X166121339Y-92415000D01*
X166063405Y-92306613D01*
X165952962Y-92172038D01*
X165818387Y-92061595D01*
X165664851Y-91979528D01*
X165498255Y-91928992D01*
X165325001Y-91911928D01*
X164674999Y-91911928D01*
X164501745Y-91928992D01*
X164335149Y-91979528D01*
X164181613Y-92061595D01*
X164047038Y-92172038D01*
X163975000Y-92259816D01*
X163902962Y-92172038D01*
X163785000Y-92075229D01*
X163785000Y-91595950D01*
X166020200Y-91595950D01*
X166029796Y-91716113D01*
X166066494Y-91835692D01*
X166125816Y-91945814D01*
X166205482Y-92042248D01*
X166302431Y-92121286D01*
X166412936Y-92179891D01*
X166532751Y-92215812D01*
X166657272Y-92227669D01*
X167029850Y-92224600D01*
X167188600Y-92065850D01*
X167188600Y-91437200D01*
X166178950Y-91437200D01*
X166020200Y-91595950D01*
X163785000Y-91595950D01*
X163785000Y-91024450D01*
X166020200Y-91024450D01*
X166178950Y-91183200D01*
X167188600Y-91183200D01*
X167188600Y-90554550D01*
X167029850Y-90395800D01*
X166657272Y-90392731D01*
X166532751Y-90404588D01*
X166412936Y-90440509D01*
X166302431Y-90499114D01*
X166205482Y-90578152D01*
X166125816Y-90674586D01*
X166066494Y-90784708D01*
X166029796Y-90904287D01*
X166020200Y-91024450D01*
X163785000Y-91024450D01*
X163785000Y-88741018D01*
X163789040Y-88699999D01*
X163772918Y-88536311D01*
X163725172Y-88378913D01*
X163647636Y-88233854D01*
X163608729Y-88186446D01*
X163543291Y-88106709D01*
X163511428Y-88080560D01*
X160085000Y-84654133D01*
X160085000Y-82978578D01*
X160210149Y-83045472D01*
X160376745Y-83096008D01*
X160549999Y-83113072D01*
X161450001Y-83113072D01*
X161623255Y-83096008D01*
X161789851Y-83045472D01*
X161943387Y-82963405D01*
X162077962Y-82852962D01*
X162174771Y-82735000D01*
X166358981Y-82735000D01*
X166400000Y-82739040D01*
X166441018Y-82735000D01*
X169430614Y-82735000D01*
X169556613Y-82838405D01*
X169710149Y-82920472D01*
X169876745Y-82971008D01*
X170049999Y-82988072D01*
X170950001Y-82988072D01*
X171123255Y-82971008D01*
X171289851Y-82920472D01*
X171443387Y-82838405D01*
X171577962Y-82727962D01*
X171688405Y-82593387D01*
X171770472Y-82439851D01*
X171821008Y-82273255D01*
X171838072Y-82100001D01*
X171838072Y-81449999D01*
X171821008Y-81276745D01*
X171770472Y-81110149D01*
X171688405Y-80956613D01*
X171577962Y-80822038D01*
X171490184Y-80750000D01*
X171577962Y-80677962D01*
X171688405Y-80543387D01*
X171770472Y-80389851D01*
X171821008Y-80223255D01*
X171838072Y-80050001D01*
X171838072Y-79399999D01*
X171821008Y-79226745D01*
X171770472Y-79060149D01*
X171688405Y-78906613D01*
X171577962Y-78772038D01*
X171443387Y-78661595D01*
X171289851Y-78579528D01*
X171123255Y-78528992D01*
X171085000Y-78525224D01*
X171085000Y-76937382D01*
X171127502Y-76902502D01*
X171281833Y-76714449D01*
X171396511Y-76499900D01*
X171467130Y-76267101D01*
X171485000Y-76085664D01*
X171485000Y-75414335D01*
X171467130Y-75232898D01*
X171396511Y-75000099D01*
X171281833Y-74785551D01*
X171127502Y-74597498D01*
X170939448Y-74443167D01*
X170724900Y-74328489D01*
X170492101Y-74257870D01*
X170250000Y-74234025D01*
X170007898Y-74257870D01*
X169775099Y-74328489D01*
X169560551Y-74443167D01*
X169372498Y-74597498D01*
X169340809Y-74636111D01*
X169338405Y-74631613D01*
X169227962Y-74497038D01*
X169093387Y-74386595D01*
X168939851Y-74304528D01*
X168773255Y-74253992D01*
X168600001Y-74236928D01*
X167899999Y-74236928D01*
X167726745Y-74253992D01*
X167560149Y-74304528D01*
X167406613Y-74386595D01*
X167272038Y-74497038D01*
X167161595Y-74631613D01*
X167113138Y-74722269D01*
X164705868Y-72315000D01*
X164707002Y-72315000D01*
X164707002Y-72150156D01*
X164936890Y-72271476D01*
X165084099Y-72226825D01*
X165346920Y-72101641D01*
X165580269Y-71927588D01*
X165775178Y-71711355D01*
X165924157Y-71461252D01*
X166021481Y-71186891D01*
X165900814Y-70957000D01*
X164707000Y-70957000D01*
X164707000Y-70977000D01*
X164453000Y-70977000D01*
X164453000Y-70957000D01*
X164433000Y-70957000D01*
X164433000Y-70703000D01*
X164453000Y-70703000D01*
X164453000Y-70683000D01*
X164707000Y-70683000D01*
X164707000Y-70703000D01*
X165900814Y-70703000D01*
X166021481Y-70473109D01*
X165924157Y-70198748D01*
X165775178Y-69948645D01*
X165580269Y-69732412D01*
X165351244Y-69561584D01*
X165409014Y-69530706D01*
X165611542Y-69364495D01*
X167465000Y-69364495D01*
X167465000Y-69755505D01*
X167541282Y-70139003D01*
X167690915Y-70500250D01*
X167908149Y-70825364D01*
X168184636Y-71101851D01*
X168509750Y-71319085D01*
X168870997Y-71468718D01*
X169254495Y-71545000D01*
X169645505Y-71545000D01*
X170029003Y-71468718D01*
X170390250Y-71319085D01*
X170715364Y-71101851D01*
X170991851Y-70825364D01*
X171209085Y-70500250D01*
X171358718Y-70139003D01*
X171435000Y-69755505D01*
X171435000Y-69364495D01*
X171358718Y-68980997D01*
X171209085Y-68619750D01*
X170991851Y-68294636D01*
X170715364Y-68018149D01*
X170390250Y-67800915D01*
X170029003Y-67651282D01*
X169645505Y-67575000D01*
X169254495Y-67575000D01*
X168870997Y-67651282D01*
X168509750Y-67800915D01*
X168184636Y-68018149D01*
X167908149Y-68294636D01*
X167690915Y-68619750D01*
X167541282Y-68980997D01*
X167465000Y-69364495D01*
X165611542Y-69364495D01*
X165635134Y-69345134D01*
X165820706Y-69119014D01*
X165958599Y-68861034D01*
X166043513Y-68581111D01*
X166072185Y-68290000D01*
X166043513Y-67998889D01*
X165958599Y-67718966D01*
X165820706Y-67460986D01*
X165635134Y-67234866D01*
X165409014Y-67049294D01*
X165151034Y-66911401D01*
X164871111Y-66826487D01*
X164652950Y-66805000D01*
X164507050Y-66805000D01*
X164288889Y-66826487D01*
X164008966Y-66911401D01*
X163750986Y-67049294D01*
X163524866Y-67234866D01*
X163339294Y-67460986D01*
X163310000Y-67515791D01*
X163280706Y-67460986D01*
X163095134Y-67234866D01*
X162869014Y-67049294D01*
X162611034Y-66911401D01*
X162331111Y-66826487D01*
X162112950Y-66805000D01*
X161967050Y-66805000D01*
X161748889Y-66826487D01*
X161468966Y-66911401D01*
X161210986Y-67049294D01*
X160984866Y-67234866D01*
X160799294Y-67460986D01*
X160770000Y-67515791D01*
X160740706Y-67460986D01*
X160555134Y-67234866D01*
X160329014Y-67049294D01*
X160071034Y-66911401D01*
X159791111Y-66826487D01*
X159572950Y-66805000D01*
X159427050Y-66805000D01*
X159208889Y-66826487D01*
X158928966Y-66911401D01*
X158670986Y-67049294D01*
X158444866Y-67234866D01*
X158259294Y-67460986D01*
X158224799Y-67525523D01*
X158155178Y-67408645D01*
X157960269Y-67192412D01*
X157726920Y-67018359D01*
X157464099Y-66893175D01*
X157316890Y-66848524D01*
X157087000Y-66969845D01*
X157087000Y-68163000D01*
X157107000Y-68163000D01*
X157107000Y-68417000D01*
X157087000Y-68417000D01*
X157087000Y-68437000D01*
X156833000Y-68437000D01*
X156833000Y-68417000D01*
X156813000Y-68417000D01*
X156813000Y-68163000D01*
X156833000Y-68163000D01*
X156833000Y-66969845D01*
X156603110Y-66848524D01*
X156455901Y-66893175D01*
X156193080Y-67018359D01*
X155959731Y-67192412D01*
X155764822Y-67408645D01*
X155695201Y-67525523D01*
X155660706Y-67460986D01*
X155475134Y-67234866D01*
X155249014Y-67049294D01*
X154991034Y-66911401D01*
X154711111Y-66826487D01*
X154492950Y-66805000D01*
X154347050Y-66805000D01*
X154128889Y-66826487D01*
X153848966Y-66911401D01*
X153590986Y-67049294D01*
X153364866Y-67234866D01*
X153179294Y-67460986D01*
X153144799Y-67525523D01*
X153075178Y-67408645D01*
X152880269Y-67192412D01*
X152646920Y-67018359D01*
X152384099Y-66893175D01*
X152236890Y-66848524D01*
X152007000Y-66969845D01*
X152007000Y-68163000D01*
X152027000Y-68163000D01*
X152027000Y-68417000D01*
X152007000Y-68417000D01*
X152007000Y-68437000D01*
X151753000Y-68437000D01*
X151753000Y-68417000D01*
X151733000Y-68417000D01*
X151733000Y-68163000D01*
X151753000Y-68163000D01*
X151753000Y-66969845D01*
X151523110Y-66848524D01*
X151375901Y-66893175D01*
X151113080Y-67018359D01*
X150879731Y-67192412D01*
X150684822Y-67408645D01*
X150615201Y-67525523D01*
X150580706Y-67460986D01*
X150395134Y-67234866D01*
X150169014Y-67049294D01*
X149911034Y-66911401D01*
X149631111Y-66826487D01*
X149412950Y-66805000D01*
X149267050Y-66805000D01*
X149048889Y-66826487D01*
X148768966Y-66911401D01*
X148510986Y-67049294D01*
X148284866Y-67234866D01*
X148099294Y-67460986D01*
X148070000Y-67515791D01*
X148040706Y-67460986D01*
X147855134Y-67234866D01*
X147629014Y-67049294D01*
X147371034Y-66911401D01*
X147091111Y-66826487D01*
X146872950Y-66805000D01*
X146727050Y-66805000D01*
X146508889Y-66826487D01*
X146228966Y-66911401D01*
X145970986Y-67049294D01*
X145744866Y-67234866D01*
X145559294Y-67460986D01*
X145530000Y-67515791D01*
X145500706Y-67460986D01*
X145315134Y-67234866D01*
X145089014Y-67049294D01*
X144831034Y-66911401D01*
X144551111Y-66826487D01*
X144332950Y-66805000D01*
X144187050Y-66805000D01*
X143968889Y-66826487D01*
X143688966Y-66911401D01*
X143430986Y-67049294D01*
X143204866Y-67234866D01*
X143019294Y-67460986D01*
X142990000Y-67515791D01*
X142960706Y-67460986D01*
X142775134Y-67234866D01*
X142549014Y-67049294D01*
X142291034Y-66911401D01*
X142011111Y-66826487D01*
X141792950Y-66805000D01*
X141647050Y-66805000D01*
X141428889Y-66826487D01*
X141148966Y-66911401D01*
X140890986Y-67049294D01*
X140664866Y-67234866D01*
X140479294Y-67460986D01*
X140444799Y-67525523D01*
X140375178Y-67408645D01*
X140180269Y-67192412D01*
X139946920Y-67018359D01*
X139684099Y-66893175D01*
X139536890Y-66848524D01*
X139307000Y-66969845D01*
X139307000Y-68163000D01*
X139327000Y-68163000D01*
X139327000Y-68417000D01*
X139307000Y-68417000D01*
X139307000Y-68437000D01*
X139053000Y-68437000D01*
X139053000Y-68417000D01*
X139033000Y-68417000D01*
X139033000Y-68163000D01*
X139053000Y-68163000D01*
X139053000Y-66969845D01*
X138823110Y-66848524D01*
X138764999Y-66866150D01*
X138764999Y-65390869D01*
X138811427Y-65344441D01*
X138843291Y-65318291D01*
X138947395Y-65191440D01*
X139093387Y-65113405D01*
X139227962Y-65002962D01*
X139338405Y-64868387D01*
X139420472Y-64714851D01*
X139471008Y-64548255D01*
X139488072Y-64375001D01*
X139488072Y-63124999D01*
X139471008Y-62951745D01*
X139420472Y-62785149D01*
X139338405Y-62631613D01*
X139227962Y-62497038D01*
X139093387Y-62386595D01*
X138939851Y-62304528D01*
X138773255Y-62253992D01*
X138600001Y-62236928D01*
X137899999Y-62236928D01*
X137726745Y-62253992D01*
X137560149Y-62304528D01*
X137406613Y-62386595D01*
X137272038Y-62497038D01*
X137161595Y-62631613D01*
X137159191Y-62636111D01*
X137127502Y-62597498D01*
X136939449Y-62443167D01*
X136724901Y-62328489D01*
X136492102Y-62257870D01*
X136250000Y-62234025D01*
X136007899Y-62257870D01*
X135775100Y-62328489D01*
X135560552Y-62443167D01*
X135372499Y-62597498D01*
X135250001Y-62746763D01*
X135127502Y-62597498D01*
X134939449Y-62443167D01*
X134724901Y-62328489D01*
X134492102Y-62257870D01*
X134250000Y-62234025D01*
X134007899Y-62257870D01*
X133775100Y-62328489D01*
X133560552Y-62443167D01*
X133372499Y-62597498D01*
X133250001Y-62746763D01*
X133127502Y-62597498D01*
X132939449Y-62443167D01*
X132724901Y-62328489D01*
X132492102Y-62257870D01*
X132250000Y-62234025D01*
X132007899Y-62257870D01*
X131775100Y-62328489D01*
X131560552Y-62443167D01*
X131372499Y-62597498D01*
X131249520Y-62747349D01*
X131206307Y-62683275D01*
X131033474Y-62511922D01*
X130830533Y-62377579D01*
X130605282Y-62285409D01*
X130567609Y-62281538D01*
X130377000Y-62406269D01*
X130377000Y-63623000D01*
X130397000Y-63623000D01*
X130397000Y-63877000D01*
X130377000Y-63877000D01*
X130377000Y-65093731D01*
X130567609Y-65218462D01*
X130605282Y-65214591D01*
X130830533Y-65122421D01*
X131033474Y-64988078D01*
X131206307Y-64816725D01*
X131249519Y-64752651D01*
X131306747Y-64822384D01*
X129303404Y-66825728D01*
X129092950Y-66805000D01*
X128947050Y-66805000D01*
X128728889Y-66826487D01*
X128448966Y-66911401D01*
X128190986Y-67049294D01*
X127964866Y-67234866D01*
X127779294Y-67460986D01*
X127750000Y-67515791D01*
X127720706Y-67460986D01*
X127535134Y-67234866D01*
X127309014Y-67049294D01*
X127051034Y-66911401D01*
X126771111Y-66826487D01*
X126552950Y-66805000D01*
X126407050Y-66805000D01*
X126196596Y-66825728D01*
X125059446Y-65688579D01*
X125033291Y-65656709D01*
X124906146Y-65552364D01*
X124761087Y-65474828D01*
X124603689Y-65427082D01*
X124481019Y-65415000D01*
X124481018Y-65415000D01*
X124440000Y-65410960D01*
X124398982Y-65415000D01*
X121631016Y-65415000D01*
X121589997Y-65410960D01*
X121548979Y-65415000D01*
X121426309Y-65427082D01*
X121268911Y-65474828D01*
X121123852Y-65552364D01*
X120996707Y-65656709D01*
X120970557Y-65688574D01*
X119637416Y-67021715D01*
X119431034Y-66911401D01*
X119151111Y-66826487D01*
X118932950Y-66805000D01*
X118787050Y-66805000D01*
X118568889Y-66826487D01*
X118288966Y-66911401D01*
X118030986Y-67049294D01*
X117804866Y-67234866D01*
X117619294Y-67460986D01*
X117590000Y-67515791D01*
X117560706Y-67460986D01*
X117375134Y-67234866D01*
X117149014Y-67049294D01*
X116891034Y-66911401D01*
X116611111Y-66826487D01*
X116392950Y-66805000D01*
X116247050Y-66805000D01*
X116028889Y-66826487D01*
X115748966Y-66911401D01*
X115490986Y-67049294D01*
X115264866Y-67234866D01*
X115079294Y-67460986D01*
X114941401Y-67718966D01*
X114856487Y-67998889D01*
X114827815Y-68290000D01*
X114856487Y-68581111D01*
X114941401Y-68861034D01*
X115079294Y-69119014D01*
X115264866Y-69345134D01*
X115294687Y-69369607D01*
X115225820Y-69390498D01*
X115115506Y-69449463D01*
X115018815Y-69528815D01*
X114939463Y-69625506D01*
X114880498Y-69735820D01*
X114844188Y-69855518D01*
X114831928Y-69980000D01*
X114831928Y-71680000D01*
X114844188Y-71804482D01*
X114880498Y-71924180D01*
X114939463Y-72034494D01*
X115018815Y-72131185D01*
X115115506Y-72210537D01*
X115225820Y-72269502D01*
X115345518Y-72305812D01*
X115470000Y-72318072D01*
X117170000Y-72318072D01*
X117294482Y-72305812D01*
X117414180Y-72269502D01*
X117524494Y-72210537D01*
X117621185Y-72131185D01*
X117700537Y-72034494D01*
X117759502Y-71924180D01*
X117780393Y-71855313D01*
X117804866Y-71885134D01*
X118030986Y-72070706D01*
X118288966Y-72208599D01*
X118550228Y-72287852D01*
X118474828Y-72428914D01*
X118427082Y-72586312D01*
X118410960Y-72750000D01*
X118415001Y-72791029D01*
X118415000Y-88179131D01*
X113303161Y-93290971D01*
X113253238Y-93250000D01*
X113402502Y-93127502D01*
X113556833Y-92939449D01*
X113671511Y-92724901D01*
X113742130Y-92492102D01*
X113765975Y-92250000D01*
X113742130Y-92007898D01*
X113671511Y-91775099D01*
X113556833Y-91560551D01*
X113402502Y-91372498D01*
X113252652Y-91249519D01*
X113316725Y-91206307D01*
X113488078Y-91033474D01*
X113622421Y-90830533D01*
X113714591Y-90605282D01*
X113718462Y-90567609D01*
X113593731Y-90377000D01*
X112377000Y-90377000D01*
X112377000Y-90397000D01*
X112123000Y-90397000D01*
X112123000Y-90377000D01*
X112103000Y-90377000D01*
X112103000Y-90123000D01*
X112123000Y-90123000D01*
X112123000Y-90103000D01*
X112377000Y-90103000D01*
X112377000Y-90123000D01*
X113593731Y-90123000D01*
X113718462Y-89932391D01*
X113714591Y-89894718D01*
X113622421Y-89669467D01*
X113488078Y-89466526D01*
X113316725Y-89293693D01*
X113114946Y-89157610D01*
X112890496Y-89063507D01*
X112652000Y-89015000D01*
X111848000Y-89015000D01*
X111609504Y-89063507D01*
X111385054Y-89157610D01*
X111183275Y-89293693D01*
X111135000Y-89342385D01*
X111135000Y-88220131D01*
X112763141Y-86591991D01*
X112806449Y-86556449D01*
X112948284Y-86383623D01*
X113053676Y-86186447D01*
X113103471Y-86022295D01*
X113118577Y-85972500D01*
X113140491Y-85750001D01*
X113135000Y-85694249D01*
X113135000Y-82888072D01*
X113500000Y-82888072D01*
X113624482Y-82875812D01*
X113744180Y-82839502D01*
X113854494Y-82780537D01*
X113951185Y-82701185D01*
X114030537Y-82604494D01*
X114089502Y-82494180D01*
X114125812Y-82374482D01*
X114138072Y-82250000D01*
X114138072Y-79250000D01*
X114125812Y-79125518D01*
X114089502Y-79005820D01*
X114030537Y-78895506D01*
X113951185Y-78798815D01*
X113854494Y-78719463D01*
X113744180Y-78660498D01*
X113624482Y-78624188D01*
X113500000Y-78611928D01*
X110500000Y-78611928D01*
X110375518Y-78624188D01*
X110255820Y-78660498D01*
X110145506Y-78719463D01*
X110048815Y-78798815D01*
X109969463Y-78895506D01*
X109910498Y-79005820D01*
X109874188Y-79125518D01*
X109861928Y-79250000D01*
X109861928Y-82250000D01*
X109874188Y-82374482D01*
X109910498Y-82494180D01*
X109969463Y-82604494D01*
X110048815Y-82701185D01*
X110145506Y-82780537D01*
X110255820Y-82839502D01*
X110375518Y-82875812D01*
X110500000Y-82888072D01*
X110865000Y-82888072D01*
X110865001Y-85279867D01*
X109236865Y-86908004D01*
X109193551Y-86943551D01*
X109051716Y-87116377D01*
X108946325Y-87313553D01*
X108946324Y-87313554D01*
X108881423Y-87527502D01*
X108859509Y-87750000D01*
X108635400Y-87750000D01*
X108635400Y-77161653D01*
X110687952Y-77161653D01*
X110843962Y-77477214D01*
X111218745Y-77668020D01*
X111623551Y-77782044D01*
X112042824Y-77814902D01*
X112460451Y-77765334D01*
X112860383Y-77635243D01*
X113156038Y-77477214D01*
X113312048Y-77161653D01*
X112000000Y-75849605D01*
X110687952Y-77161653D01*
X108635400Y-77161653D01*
X108635400Y-75712824D01*
X109855098Y-75712824D01*
X109904666Y-76130451D01*
X110034757Y-76530383D01*
X110192786Y-76826038D01*
X110508347Y-76982048D01*
X111820395Y-75670000D01*
X112179605Y-75670000D01*
X113491653Y-76982048D01*
X113807214Y-76826038D01*
X113998020Y-76451255D01*
X114112044Y-76046449D01*
X114144902Y-75627176D01*
X114095334Y-75209549D01*
X113965243Y-74809617D01*
X113807214Y-74513962D01*
X113491653Y-74357952D01*
X112179605Y-75670000D01*
X111820395Y-75670000D01*
X110508347Y-74357952D01*
X110192786Y-74513962D01*
X110001980Y-74888745D01*
X109887956Y-75293551D01*
X109855098Y-75712824D01*
X108635400Y-75712824D01*
X108635400Y-74178347D01*
X110687952Y-74178347D01*
X112000000Y-75490395D01*
X113312048Y-74178347D01*
X113156038Y-73862786D01*
X112781255Y-73671980D01*
X112376449Y-73557956D01*
X111957176Y-73525098D01*
X111539549Y-73574666D01*
X111139617Y-73704757D01*
X110843962Y-73862786D01*
X110687952Y-74178347D01*
X108635400Y-74178347D01*
X108635400Y-69364495D01*
X109465000Y-69364495D01*
X109465000Y-69755505D01*
X109541282Y-70139003D01*
X109690915Y-70500250D01*
X109908149Y-70825364D01*
X110184636Y-71101851D01*
X110509750Y-71319085D01*
X110870997Y-71468718D01*
X111254495Y-71545000D01*
X111645505Y-71545000D01*
X112029003Y-71468718D01*
X112390250Y-71319085D01*
X112715364Y-71101851D01*
X112991851Y-70825364D01*
X113209085Y-70500250D01*
X113358718Y-70139003D01*
X113435000Y-69755505D01*
X113435000Y-69364495D01*
X113358718Y-68980997D01*
X113209085Y-68619750D01*
X112991851Y-68294636D01*
X112715364Y-68018149D01*
X112390250Y-67800915D01*
X112029003Y-67651282D01*
X111645505Y-67575000D01*
X111254495Y-67575000D01*
X110870997Y-67651282D01*
X110509750Y-67800915D01*
X110184636Y-68018149D01*
X109908149Y-68294636D01*
X109690915Y-68619750D01*
X109541282Y-68980997D01*
X109465000Y-69364495D01*
X108635400Y-69364495D01*
X108635400Y-63877000D01*
X129015000Y-63877000D01*
X129015000Y-64152000D01*
X129063507Y-64390496D01*
X129157610Y-64614946D01*
X129293693Y-64816725D01*
X129466526Y-64988078D01*
X129669467Y-65122421D01*
X129894718Y-65214591D01*
X129932391Y-65218462D01*
X130123000Y-65093731D01*
X130123000Y-63877000D01*
X129015000Y-63877000D01*
X108635400Y-63877000D01*
X108635400Y-63348000D01*
X129015000Y-63348000D01*
X129015000Y-63623000D01*
X130123000Y-63623000D01*
X130123000Y-62406269D01*
X129932391Y-62281538D01*
X129894718Y-62285409D01*
X129669467Y-62377579D01*
X129466526Y-62511922D01*
X129293693Y-62683275D01*
X129157610Y-62885054D01*
X129063507Y-63109504D01*
X129015000Y-63348000D01*
X108635400Y-63348000D01*
X108635400Y-63093505D01*
X108682712Y-62610984D01*
X108813114Y-62179070D01*
X108884167Y-62045439D01*
X109937258Y-60992348D01*
X110054577Y-60928914D01*
X110485561Y-60795502D01*
X110966080Y-60744997D01*
X170568534Y-60738004D01*
X170912333Y-60771714D01*
G36*
X155719294Y-71659014D02*
G01*
X155904866Y-71885134D01*
X156130986Y-72070706D01*
X156388966Y-72208599D01*
X156668889Y-72293513D01*
X156887050Y-72315000D01*
X156974999Y-72315000D01*
X156975000Y-73518971D01*
X156970959Y-73559999D01*
X156987081Y-73723687D01*
X157034827Y-73881085D01*
X157112363Y-74026144D01*
X157112364Y-74026145D01*
X157216709Y-74153290D01*
X157248573Y-74179440D01*
X158415000Y-75345869D01*
X158415001Y-84958971D01*
X158410960Y-85000000D01*
X158427082Y-85163688D01*
X158474828Y-85321086D01*
X158496659Y-85361928D01*
X158552365Y-85466146D01*
X158656710Y-85593291D01*
X158688574Y-85619441D01*
X162115000Y-89045868D01*
X162115001Y-92075228D01*
X161997038Y-92172038D01*
X161886595Y-92306613D01*
X161804528Y-92460149D01*
X161753992Y-92626745D01*
X161736928Y-92799999D01*
X161736928Y-93632364D01*
X161697636Y-93558854D01*
X161624059Y-93469200D01*
X161619439Y-93463570D01*
X161619437Y-93463568D01*
X161593291Y-93431709D01*
X161561433Y-93405564D01*
X160094446Y-91938578D01*
X160068291Y-91906709D01*
X159941440Y-91802605D01*
X159863405Y-91656613D01*
X159752962Y-91522038D01*
X159618387Y-91411595D01*
X159464851Y-91329528D01*
X159298255Y-91278992D01*
X159125001Y-91261928D01*
X157874999Y-91261928D01*
X157701745Y-91278992D01*
X157535149Y-91329528D01*
X157381613Y-91411595D01*
X157247038Y-91522038D01*
X157136595Y-91656613D01*
X157054528Y-91810149D01*
X157003992Y-91976745D01*
X156986928Y-92149999D01*
X156986928Y-92850001D01*
X157003992Y-93023255D01*
X157054528Y-93189851D01*
X157136595Y-93343387D01*
X157247038Y-93477962D01*
X157381613Y-93588405D01*
X157386111Y-93590809D01*
X157347498Y-93622498D01*
X157193167Y-93810551D01*
X157078489Y-94025099D01*
X157007870Y-94257898D01*
X156984025Y-94500000D01*
X157007870Y-94742102D01*
X157078489Y-94974901D01*
X157193167Y-95189449D01*
X157347498Y-95377502D01*
X157497348Y-95500481D01*
X157433275Y-95543693D01*
X157261922Y-95716526D01*
X157127579Y-95919467D01*
X157035409Y-96144718D01*
X157031538Y-96182391D01*
X157156269Y-96373000D01*
X158373000Y-96373000D01*
X158373000Y-96353000D01*
X158627000Y-96353000D01*
X158627000Y-96373000D01*
X159843731Y-96373000D01*
X159968462Y-96182391D01*
X159964591Y-96144718D01*
X159872421Y-95919467D01*
X159738078Y-95716526D01*
X159566725Y-95543693D01*
X159502652Y-95500481D01*
X159652502Y-95377502D01*
X159806833Y-95189449D01*
X159921511Y-94974901D01*
X159992130Y-94742102D01*
X160015975Y-94500000D01*
X159992130Y-94257898D01*
X159966048Y-94171916D01*
X160165000Y-94370869D01*
X160165001Y-106154130D01*
X159404133Y-106915000D01*
X158617888Y-106915000D01*
X158613405Y-106906613D01*
X158502962Y-106772038D01*
X158368387Y-106661595D01*
X158363594Y-106659033D01*
X158488078Y-106533474D01*
X158622421Y-106330533D01*
X158714591Y-106105282D01*
X158718462Y-106067609D01*
X158593731Y-105877000D01*
X157377000Y-105877000D01*
X157377000Y-105897000D01*
X157123000Y-105897000D01*
X157123000Y-105877000D01*
X155906269Y-105877000D01*
X155781538Y-106067609D01*
X155785409Y-106105282D01*
X155877579Y-106330533D01*
X156011922Y-106533474D01*
X156136406Y-106659033D01*
X156131613Y-106661595D01*
X155997038Y-106772038D01*
X155886595Y-106906613D01*
X155804528Y-107060149D01*
X155753992Y-107226745D01*
X155736928Y-107399999D01*
X155736928Y-108100001D01*
X155753992Y-108273255D01*
X155804528Y-108439851D01*
X155886595Y-108593387D01*
X155997038Y-108727962D01*
X156115001Y-108824771D01*
X156115000Y-109529868D01*
X154779869Y-110865000D01*
X128108212Y-110865000D01*
X128089502Y-110803320D01*
X128030537Y-110693006D01*
X127951185Y-110596315D01*
X127854494Y-110516963D01*
X127744180Y-110457998D01*
X127624482Y-110421688D01*
X127500000Y-110409428D01*
X125500000Y-110409428D01*
X125375518Y-110421688D01*
X125255820Y-110457998D01*
X125145506Y-110516963D01*
X125048815Y-110596315D01*
X124969463Y-110693006D01*
X124910498Y-110803320D01*
X124891788Y-110865000D01*
X120840957Y-110865000D01*
X120830537Y-110845506D01*
X120751185Y-110748815D01*
X120654494Y-110669463D01*
X120544180Y-110610498D01*
X120424482Y-110574188D01*
X120300000Y-110561928D01*
X118700000Y-110561928D01*
X118575518Y-110574188D01*
X118455820Y-110610498D01*
X118345506Y-110669463D01*
X118248815Y-110748815D01*
X118169463Y-110845506D01*
X118162906Y-110857774D01*
X113385000Y-106079869D01*
X113385000Y-99324771D01*
X113502962Y-99227962D01*
X113613405Y-99093387D01*
X113695472Y-98939851D01*
X113746008Y-98773255D01*
X113763072Y-98600001D01*
X113763072Y-97899999D01*
X113746008Y-97726745D01*
X113695472Y-97560149D01*
X113613405Y-97406613D01*
X113502962Y-97272038D01*
X113368387Y-97161595D01*
X113363889Y-97159191D01*
X113402502Y-97127502D01*
X113437382Y-97085000D01*
X116958982Y-97085000D01*
X117000000Y-97089040D01*
X117041018Y-97085000D01*
X117041019Y-97085000D01*
X117163689Y-97072918D01*
X117321087Y-97025172D01*
X117466146Y-96947636D01*
X117593291Y-96843291D01*
X117619446Y-96811421D01*
X120815000Y-93615868D01*
X120815000Y-106283646D01*
X120817852Y-106312600D01*
X120817831Y-106315573D01*
X120818764Y-106325092D01*
X120823824Y-106373233D01*
X120824912Y-106384282D01*
X120825024Y-106384650D01*
X120828964Y-106422140D01*
X120841455Y-106482990D01*
X120853082Y-106543942D01*
X120855845Y-106553096D01*
X120855847Y-106553102D01*
X120884702Y-106646317D01*
X120908754Y-106703533D01*
X120932020Y-106761119D01*
X120936510Y-106769564D01*
X120982923Y-106855401D01*
X121017638Y-106906867D01*
X121051636Y-106958821D01*
X121057680Y-106966232D01*
X121119882Y-107041421D01*
X121163930Y-107085162D01*
X121207369Y-107129522D01*
X121214739Y-107135618D01*
X121214744Y-107135623D01*
X121214750Y-107135627D01*
X121290360Y-107197294D01*
X121342041Y-107231632D01*
X121393306Y-107266733D01*
X121401719Y-107271282D01*
X121487880Y-107317094D01*
X121545296Y-107340758D01*
X121602339Y-107365208D01*
X121611475Y-107368036D01*
X121704893Y-107396241D01*
X121765813Y-107408303D01*
X121826530Y-107421209D01*
X121836042Y-107422209D01*
X121933159Y-107431731D01*
X121933163Y-107431731D01*
X121966353Y-107435000D01*
X151533647Y-107435000D01*
X151562601Y-107432148D01*
X151565573Y-107432169D01*
X151575092Y-107431236D01*
X151623218Y-107426178D01*
X151634283Y-107425088D01*
X151634652Y-107424976D01*
X151672140Y-107421036D01*
X151732990Y-107408545D01*
X151793942Y-107396918D01*
X151803096Y-107394155D01*
X151803102Y-107394153D01*
X151896317Y-107365298D01*
X151953533Y-107341246D01*
X152011119Y-107317980D01*
X152019564Y-107313490D01*
X152105401Y-107267077D01*
X152156867Y-107232362D01*
X152208821Y-107198364D01*
X152216232Y-107192320D01*
X152291421Y-107130118D01*
X152335162Y-107086070D01*
X152379522Y-107042631D01*
X152385618Y-107035261D01*
X152385623Y-107035256D01*
X152385627Y-107035250D01*
X152447294Y-106959640D01*
X152481632Y-106907959D01*
X152516733Y-106856694D01*
X152521282Y-106848281D01*
X152567094Y-106762120D01*
X152590758Y-106704704D01*
X152615208Y-106647661D01*
X152618036Y-106638525D01*
X152646241Y-106545107D01*
X152658303Y-106484187D01*
X152671209Y-106423470D01*
X152672209Y-106413958D01*
X152681731Y-106316841D01*
X152681731Y-106316837D01*
X152685000Y-106283647D01*
X152685000Y-101640867D01*
X155355559Y-104311427D01*
X155381709Y-104343291D01*
X155498878Y-104439449D01*
X155508854Y-104447636D01*
X155653913Y-104525172D01*
X155811311Y-104572918D01*
X155974999Y-104589040D01*
X156016018Y-104585000D01*
X156062618Y-104585000D01*
X156097498Y-104627502D01*
X156247348Y-104750481D01*
X156183275Y-104793693D01*
X156011922Y-104966526D01*
X155877579Y-105169467D01*
X155785409Y-105394718D01*
X155781538Y-105432391D01*
X155906269Y-105623000D01*
X157123000Y-105623000D01*
X157123000Y-105603000D01*
X157377000Y-105603000D01*
X157377000Y-105623000D01*
X158593731Y-105623000D01*
X158718462Y-105432391D01*
X158714591Y-105394718D01*
X158622421Y-105169467D01*
X158488078Y-104966526D01*
X158316725Y-104793693D01*
X158252652Y-104750481D01*
X158402502Y-104627502D01*
X158556833Y-104439449D01*
X158671511Y-104224901D01*
X158742130Y-103992102D01*
X158765975Y-103750000D01*
X158742130Y-103507898D01*
X158671511Y-103275099D01*
X158556833Y-103060551D01*
X158402502Y-102872498D01*
X158253238Y-102750000D01*
X158402502Y-102627502D01*
X158556833Y-102439449D01*
X158671511Y-102224901D01*
X158742130Y-101992102D01*
X158765975Y-101750000D01*
X158742130Y-101507898D01*
X158671511Y-101275099D01*
X158556833Y-101060551D01*
X158402502Y-100872498D01*
X158214449Y-100718167D01*
X157999901Y-100603489D01*
X157767102Y-100532870D01*
X157585665Y-100515000D01*
X156914335Y-100515000D01*
X156732898Y-100532870D01*
X156500099Y-100603489D01*
X156285551Y-100718167D01*
X156210571Y-100779702D01*
X154335000Y-98904133D01*
X154335000Y-96817609D01*
X157031538Y-96817609D01*
X157035409Y-96855282D01*
X157127579Y-97080533D01*
X157261922Y-97283474D01*
X157433275Y-97456307D01*
X157635054Y-97592390D01*
X157859504Y-97686493D01*
X158098000Y-97735000D01*
X158373000Y-97735000D01*
X158373000Y-96627000D01*
X158627000Y-96627000D01*
X158627000Y-97735000D01*
X158902000Y-97735000D01*
X159140496Y-97686493D01*
X159364946Y-97592390D01*
X159566725Y-97456307D01*
X159738078Y-97283474D01*
X159872421Y-97080533D01*
X159964591Y-96855282D01*
X159968462Y-96817609D01*
X159843731Y-96627000D01*
X158627000Y-96627000D01*
X158373000Y-96627000D01*
X157156269Y-96627000D01*
X157031538Y-96817609D01*
X154335000Y-96817609D01*
X154335000Y-75845867D01*
X154981426Y-75199442D01*
X155013291Y-75173291D01*
X155117636Y-75046146D01*
X155195172Y-74901087D01*
X155242918Y-74743689D01*
X155255000Y-74621019D01*
X155255000Y-74621009D01*
X155259039Y-74580001D01*
X155255000Y-74538993D01*
X155255000Y-72065793D01*
X155475134Y-71885134D01*
X155660706Y-71659014D01*
X155690000Y-71604209D01*
X155719294Y-71659014D01*
X155719294Y-71659014D01*
G37*
X155719294Y-71659014D02*
X155904866Y-71885134D01*
X156130986Y-72070706D01*
X156388966Y-72208599D01*
X156668889Y-72293513D01*
X156887050Y-72315000D01*
X156974999Y-72315000D01*
X156975000Y-73518971D01*
X156970959Y-73559999D01*
X156987081Y-73723687D01*
X157034827Y-73881085D01*
X157112363Y-74026144D01*
X157112364Y-74026145D01*
X157216709Y-74153290D01*
X157248573Y-74179440D01*
X158415000Y-75345869D01*
X158415001Y-84958971D01*
X158410960Y-85000000D01*
X158427082Y-85163688D01*
X158474828Y-85321086D01*
X158496659Y-85361928D01*
X158552365Y-85466146D01*
X158656710Y-85593291D01*
X158688574Y-85619441D01*
X162115000Y-89045868D01*
X162115001Y-92075228D01*
X161997038Y-92172038D01*
X161886595Y-92306613D01*
X161804528Y-92460149D01*
X161753992Y-92626745D01*
X161736928Y-92799999D01*
X161736928Y-93632364D01*
X161697636Y-93558854D01*
X161624059Y-93469200D01*
X161619439Y-93463570D01*
X161619437Y-93463568D01*
X161593291Y-93431709D01*
X161561433Y-93405564D01*
X160094446Y-91938578D01*
X160068291Y-91906709D01*
X159941440Y-91802605D01*
X159863405Y-91656613D01*
X159752962Y-91522038D01*
X159618387Y-91411595D01*
X159464851Y-91329528D01*
X159298255Y-91278992D01*
X159125001Y-91261928D01*
X157874999Y-91261928D01*
X157701745Y-91278992D01*
X157535149Y-91329528D01*
X157381613Y-91411595D01*
X157247038Y-91522038D01*
X157136595Y-91656613D01*
X157054528Y-91810149D01*
X157003992Y-91976745D01*
X156986928Y-92149999D01*
X156986928Y-92850001D01*
X157003992Y-93023255D01*
X157054528Y-93189851D01*
X157136595Y-93343387D01*
X157247038Y-93477962D01*
X157381613Y-93588405D01*
X157386111Y-93590809D01*
X157347498Y-93622498D01*
X157193167Y-93810551D01*
X157078489Y-94025099D01*
X157007870Y-94257898D01*
X156984025Y-94500000D01*
X157007870Y-94742102D01*
X157078489Y-94974901D01*
X157193167Y-95189449D01*
X157347498Y-95377502D01*
X157497348Y-95500481D01*
X157433275Y-95543693D01*
X157261922Y-95716526D01*
X157127579Y-95919467D01*
X157035409Y-96144718D01*
X157031538Y-96182391D01*
X157156269Y-96373000D01*
X158373000Y-96373000D01*
X158373000Y-96353000D01*
X158627000Y-96353000D01*
X158627000Y-96373000D01*
X159843731Y-96373000D01*
X159968462Y-96182391D01*
X159964591Y-96144718D01*
X159872421Y-95919467D01*
X159738078Y-95716526D01*
X159566725Y-95543693D01*
X159502652Y-95500481D01*
X159652502Y-95377502D01*
X159806833Y-95189449D01*
X159921511Y-94974901D01*
X159992130Y-94742102D01*
X160015975Y-94500000D01*
X159992130Y-94257898D01*
X159966048Y-94171916D01*
X160165000Y-94370869D01*
X160165001Y-106154130D01*
X159404133Y-106915000D01*
X158617888Y-106915000D01*
X158613405Y-106906613D01*
X158502962Y-106772038D01*
X158368387Y-106661595D01*
X158363594Y-106659033D01*
X158488078Y-106533474D01*
X158622421Y-106330533D01*
X158714591Y-106105282D01*
X158718462Y-106067609D01*
X158593731Y-105877000D01*
X157377000Y-105877000D01*
X157377000Y-105897000D01*
X157123000Y-105897000D01*
X157123000Y-105877000D01*
X155906269Y-105877000D01*
X155781538Y-106067609D01*
X155785409Y-106105282D01*
X155877579Y-106330533D01*
X156011922Y-106533474D01*
X156136406Y-106659033D01*
X156131613Y-106661595D01*
X155997038Y-106772038D01*
X155886595Y-106906613D01*
X155804528Y-107060149D01*
X155753992Y-107226745D01*
X155736928Y-107399999D01*
X155736928Y-108100001D01*
X155753992Y-108273255D01*
X155804528Y-108439851D01*
X155886595Y-108593387D01*
X155997038Y-108727962D01*
X156115001Y-108824771D01*
X156115000Y-109529868D01*
X154779869Y-110865000D01*
X128108212Y-110865000D01*
X128089502Y-110803320D01*
X128030537Y-110693006D01*
X127951185Y-110596315D01*
X127854494Y-110516963D01*
X127744180Y-110457998D01*
X127624482Y-110421688D01*
X127500000Y-110409428D01*
X125500000Y-110409428D01*
X125375518Y-110421688D01*
X125255820Y-110457998D01*
X125145506Y-110516963D01*
X125048815Y-110596315D01*
X124969463Y-110693006D01*
X124910498Y-110803320D01*
X124891788Y-110865000D01*
X120840957Y-110865000D01*
X120830537Y-110845506D01*
X120751185Y-110748815D01*
X120654494Y-110669463D01*
X120544180Y-110610498D01*
X120424482Y-110574188D01*
X120300000Y-110561928D01*
X118700000Y-110561928D01*
X118575518Y-110574188D01*
X118455820Y-110610498D01*
X118345506Y-110669463D01*
X118248815Y-110748815D01*
X118169463Y-110845506D01*
X118162906Y-110857774D01*
X113385000Y-106079869D01*
X113385000Y-99324771D01*
X113502962Y-99227962D01*
X113613405Y-99093387D01*
X113695472Y-98939851D01*
X113746008Y-98773255D01*
X113763072Y-98600001D01*
X113763072Y-97899999D01*
X113746008Y-97726745D01*
X113695472Y-97560149D01*
X113613405Y-97406613D01*
X113502962Y-97272038D01*
X113368387Y-97161595D01*
X113363889Y-97159191D01*
X113402502Y-97127502D01*
X113437382Y-97085000D01*
X116958982Y-97085000D01*
X117000000Y-97089040D01*
X117041018Y-97085000D01*
X117041019Y-97085000D01*
X117163689Y-97072918D01*
X117321087Y-97025172D01*
X117466146Y-96947636D01*
X117593291Y-96843291D01*
X117619446Y-96811421D01*
X120815000Y-93615868D01*
X120815000Y-106283646D01*
X120817852Y-106312600D01*
X120817831Y-106315573D01*
X120818764Y-106325092D01*
X120823824Y-106373233D01*
X120824912Y-106384282D01*
X120825024Y-106384650D01*
X120828964Y-106422140D01*
X120841455Y-106482990D01*
X120853082Y-106543942D01*
X120855845Y-106553096D01*
X120855847Y-106553102D01*
X120884702Y-106646317D01*
X120908754Y-106703533D01*
X120932020Y-106761119D01*
X120936510Y-106769564D01*
X120982923Y-106855401D01*
X121017638Y-106906867D01*
X121051636Y-106958821D01*
X121057680Y-106966232D01*
X121119882Y-107041421D01*
X121163930Y-107085162D01*
X121207369Y-107129522D01*
X121214739Y-107135618D01*
X121214744Y-107135623D01*
X121214750Y-107135627D01*
X121290360Y-107197294D01*
X121342041Y-107231632D01*
X121393306Y-107266733D01*
X121401719Y-107271282D01*
X121487880Y-107317094D01*
X121545296Y-107340758D01*
X121602339Y-107365208D01*
X121611475Y-107368036D01*
X121704893Y-107396241D01*
X121765813Y-107408303D01*
X121826530Y-107421209D01*
X121836042Y-107422209D01*
X121933159Y-107431731D01*
X121933163Y-107431731D01*
X121966353Y-107435000D01*
X151533647Y-107435000D01*
X151562601Y-107432148D01*
X151565573Y-107432169D01*
X151575092Y-107431236D01*
X151623218Y-107426178D01*
X151634283Y-107425088D01*
X151634652Y-107424976D01*
X151672140Y-107421036D01*
X151732990Y-107408545D01*
X151793942Y-107396918D01*
X151803096Y-107394155D01*
X151803102Y-107394153D01*
X151896317Y-107365298D01*
X151953533Y-107341246D01*
X152011119Y-107317980D01*
X152019564Y-107313490D01*
X152105401Y-107267077D01*
X152156867Y-107232362D01*
X152208821Y-107198364D01*
X152216232Y-107192320D01*
X152291421Y-107130118D01*
X152335162Y-107086070D01*
X152379522Y-107042631D01*
X152385618Y-107035261D01*
X152385623Y-107035256D01*
X152385627Y-107035250D01*
X152447294Y-106959640D01*
X152481632Y-106907959D01*
X152516733Y-106856694D01*
X152521282Y-106848281D01*
X152567094Y-106762120D01*
X152590758Y-106704704D01*
X152615208Y-106647661D01*
X152618036Y-106638525D01*
X152646241Y-106545107D01*
X152658303Y-106484187D01*
X152671209Y-106423470D01*
X152672209Y-106413958D01*
X152681731Y-106316841D01*
X152681731Y-106316837D01*
X152685000Y-106283647D01*
X152685000Y-101640867D01*
X155355559Y-104311427D01*
X155381709Y-104343291D01*
X155498878Y-104439449D01*
X155508854Y-104447636D01*
X155653913Y-104525172D01*
X155811311Y-104572918D01*
X155974999Y-104589040D01*
X156016018Y-104585000D01*
X156062618Y-104585000D01*
X156097498Y-104627502D01*
X156247348Y-104750481D01*
X156183275Y-104793693D01*
X156011922Y-104966526D01*
X155877579Y-105169467D01*
X155785409Y-105394718D01*
X155781538Y-105432391D01*
X155906269Y-105623000D01*
X157123000Y-105623000D01*
X157123000Y-105603000D01*
X157377000Y-105603000D01*
X157377000Y-105623000D01*
X158593731Y-105623000D01*
X158718462Y-105432391D01*
X158714591Y-105394718D01*
X158622421Y-105169467D01*
X158488078Y-104966526D01*
X158316725Y-104793693D01*
X158252652Y-104750481D01*
X158402502Y-104627502D01*
X158556833Y-104439449D01*
X158671511Y-104224901D01*
X158742130Y-103992102D01*
X158765975Y-103750000D01*
X158742130Y-103507898D01*
X158671511Y-103275099D01*
X158556833Y-103060551D01*
X158402502Y-102872498D01*
X158253238Y-102750000D01*
X158402502Y-102627502D01*
X158556833Y-102439449D01*
X158671511Y-102224901D01*
X158742130Y-101992102D01*
X158765975Y-101750000D01*
X158742130Y-101507898D01*
X158671511Y-101275099D01*
X158556833Y-101060551D01*
X158402502Y-100872498D01*
X158214449Y-100718167D01*
X157999901Y-100603489D01*
X157767102Y-100532870D01*
X157585665Y-100515000D01*
X156914335Y-100515000D01*
X156732898Y-100532870D01*
X156500099Y-100603489D01*
X156285551Y-100718167D01*
X156210571Y-100779702D01*
X154335000Y-98904133D01*
X154335000Y-96817609D01*
X157031538Y-96817609D01*
X157035409Y-96855282D01*
X157127579Y-97080533D01*
X157261922Y-97283474D01*
X157433275Y-97456307D01*
X157635054Y-97592390D01*
X157859504Y-97686493D01*
X158098000Y-97735000D01*
X158373000Y-97735000D01*
X158373000Y-96627000D01*
X158627000Y-96627000D01*
X158627000Y-97735000D01*
X158902000Y-97735000D01*
X159140496Y-97686493D01*
X159364946Y-97592390D01*
X159566725Y-97456307D01*
X159738078Y-97283474D01*
X159872421Y-97080533D01*
X159964591Y-96855282D01*
X159968462Y-96817609D01*
X159843731Y-96627000D01*
X158627000Y-96627000D01*
X158373000Y-96627000D01*
X157156269Y-96627000D01*
X157031538Y-96817609D01*
X154335000Y-96817609D01*
X154335000Y-75845867D01*
X154981426Y-75199442D01*
X155013291Y-75173291D01*
X155117636Y-75046146D01*
X155195172Y-74901087D01*
X155242918Y-74743689D01*
X155255000Y-74621019D01*
X155255000Y-74621009D01*
X155259039Y-74580001D01*
X155255000Y-74538993D01*
X155255000Y-72065793D01*
X155475134Y-71885134D01*
X155660706Y-71659014D01*
X155690000Y-71604209D01*
X155719294Y-71659014D01*
G36*
X126607000Y-70703000D02*
G01*
X126627000Y-70703000D01*
X126627000Y-70957000D01*
X126607000Y-70957000D01*
X126607000Y-72150155D01*
X126836890Y-72271476D01*
X126984099Y-72226825D01*
X127246920Y-72101641D01*
X127480269Y-71927588D01*
X127675178Y-71711355D01*
X127744799Y-71594477D01*
X127779294Y-71659014D01*
X127964866Y-71885134D01*
X128190986Y-72070706D01*
X128448966Y-72208599D01*
X128728889Y-72293513D01*
X128947050Y-72315000D01*
X129092950Y-72315000D01*
X129311111Y-72293513D01*
X129591034Y-72208599D01*
X129849014Y-72070706D01*
X130075134Y-71885134D01*
X130260706Y-71659014D01*
X130290000Y-71604209D01*
X130319294Y-71659014D01*
X130504866Y-71885134D01*
X130730986Y-72070706D01*
X130988966Y-72208599D01*
X131268889Y-72293513D01*
X131487050Y-72315000D01*
X131632950Y-72315000D01*
X131851111Y-72293513D01*
X132131034Y-72208599D01*
X132389014Y-72070706D01*
X132615134Y-71885134D01*
X132800706Y-71659014D01*
X132830000Y-71604209D01*
X132859294Y-71659014D01*
X133044866Y-71885134D01*
X133270986Y-72070706D01*
X133528966Y-72208599D01*
X133808889Y-72293513D01*
X134027050Y-72315000D01*
X134172950Y-72315000D01*
X134391111Y-72293513D01*
X134671034Y-72208599D01*
X134929014Y-72070706D01*
X135155134Y-71885134D01*
X135340706Y-71659014D01*
X135370000Y-71604209D01*
X135399294Y-71659014D01*
X135584866Y-71885134D01*
X135810986Y-72070706D01*
X136068966Y-72208599D01*
X136348889Y-72293513D01*
X136567050Y-72315000D01*
X136712950Y-72315000D01*
X136931111Y-72293513D01*
X137211034Y-72208599D01*
X137469014Y-72070706D01*
X137695134Y-71885134D01*
X137880706Y-71659014D01*
X137910000Y-71604209D01*
X137939294Y-71659014D01*
X138124866Y-71885134D01*
X138350986Y-72070706D01*
X138608966Y-72208599D01*
X138888889Y-72293513D01*
X139107050Y-72315000D01*
X139252950Y-72315000D01*
X139471111Y-72293513D01*
X139751034Y-72208599D01*
X140009014Y-72070706D01*
X140235134Y-71885134D01*
X140420706Y-71659014D01*
X140450000Y-71604209D01*
X140479294Y-71659014D01*
X140664866Y-71885134D01*
X140890986Y-72070706D01*
X141148966Y-72208599D01*
X141428889Y-72293513D01*
X141647050Y-72315000D01*
X141792950Y-72315000D01*
X142011111Y-72293513D01*
X142291034Y-72208599D01*
X142549014Y-72070706D01*
X142775134Y-71885134D01*
X142960706Y-71659014D01*
X142990000Y-71604209D01*
X143019294Y-71659014D01*
X143204866Y-71885134D01*
X143430986Y-72070706D01*
X143688966Y-72208599D01*
X143968889Y-72293513D01*
X144187050Y-72315000D01*
X144332950Y-72315000D01*
X144551111Y-72293513D01*
X144831034Y-72208599D01*
X145089014Y-72070706D01*
X145315134Y-71885134D01*
X145500706Y-71659014D01*
X145535201Y-71594477D01*
X145604822Y-71711355D01*
X145799731Y-71927588D01*
X146033080Y-72101641D01*
X146295901Y-72226825D01*
X146443110Y-72271476D01*
X146673000Y-72150155D01*
X146673000Y-70957000D01*
X146653000Y-70957000D01*
X146653000Y-70703000D01*
X146673000Y-70703000D01*
X146673000Y-70683000D01*
X146927000Y-70683000D01*
X146927000Y-70703000D01*
X146947000Y-70703000D01*
X146947000Y-70957000D01*
X146927000Y-70957000D01*
X146927000Y-72150155D01*
X147156890Y-72271476D01*
X147304099Y-72226825D01*
X147566920Y-72101641D01*
X147800269Y-71927588D01*
X147995178Y-71711355D01*
X148064799Y-71594477D01*
X148099294Y-71659014D01*
X148284866Y-71885134D01*
X148510986Y-72070706D01*
X148768966Y-72208599D01*
X149048889Y-72293513D01*
X149267050Y-72315000D01*
X149412950Y-72315000D01*
X149631111Y-72293513D01*
X149911034Y-72208599D01*
X150169014Y-72070706D01*
X150395134Y-71885134D01*
X150580706Y-71659014D01*
X150610000Y-71604209D01*
X150639294Y-71659014D01*
X150824866Y-71885134D01*
X151045001Y-72065794D01*
X151045000Y-74588981D01*
X151040960Y-74630000D01*
X151052779Y-74749999D01*
X151057082Y-74793688D01*
X151104828Y-74951086D01*
X151182364Y-75096145D01*
X151286709Y-75223291D01*
X151318578Y-75249446D01*
X151645072Y-75575939D01*
X151566841Y-75568269D01*
X151566837Y-75568269D01*
X151533647Y-75565000D01*
X121966353Y-75565000D01*
X121937399Y-75567852D01*
X121934427Y-75567831D01*
X121924909Y-75568764D01*
X121876790Y-75573821D01*
X121865717Y-75574912D01*
X121865348Y-75575024D01*
X121827860Y-75578964D01*
X121767017Y-75591453D01*
X121706058Y-75603082D01*
X121696902Y-75605846D01*
X121603683Y-75634702D01*
X121585000Y-75642556D01*
X121585000Y-73595867D01*
X123110533Y-72070335D01*
X123110986Y-72070706D01*
X123368966Y-72208599D01*
X123648889Y-72293513D01*
X123867050Y-72315000D01*
X124012950Y-72315000D01*
X124231111Y-72293513D01*
X124511034Y-72208599D01*
X124769014Y-72070706D01*
X124995134Y-71885134D01*
X125180706Y-71659014D01*
X125215201Y-71594477D01*
X125284822Y-71711355D01*
X125479731Y-71927588D01*
X125713080Y-72101641D01*
X125975901Y-72226825D01*
X126123110Y-72271476D01*
X126353000Y-72150155D01*
X126353000Y-70957000D01*
X126333000Y-70957000D01*
X126333000Y-70703000D01*
X126353000Y-70703000D01*
X126353000Y-70683000D01*
X126607000Y-70683000D01*
X126607000Y-70703000D01*
X126607000Y-70703000D01*
G37*
X126607000Y-70703000D02*
X126627000Y-70703000D01*
X126627000Y-70957000D01*
X126607000Y-70957000D01*
X126607000Y-72150155D01*
X126836890Y-72271476D01*
X126984099Y-72226825D01*
X127246920Y-72101641D01*
X127480269Y-71927588D01*
X127675178Y-71711355D01*
X127744799Y-71594477D01*
X127779294Y-71659014D01*
X127964866Y-71885134D01*
X128190986Y-72070706D01*
X128448966Y-72208599D01*
X128728889Y-72293513D01*
X128947050Y-72315000D01*
X129092950Y-72315000D01*
X129311111Y-72293513D01*
X129591034Y-72208599D01*
X129849014Y-72070706D01*
X130075134Y-71885134D01*
X130260706Y-71659014D01*
X130290000Y-71604209D01*
X130319294Y-71659014D01*
X130504866Y-71885134D01*
X130730986Y-72070706D01*
X130988966Y-72208599D01*
X131268889Y-72293513D01*
X131487050Y-72315000D01*
X131632950Y-72315000D01*
X131851111Y-72293513D01*
X132131034Y-72208599D01*
X132389014Y-72070706D01*
X132615134Y-71885134D01*
X132800706Y-71659014D01*
X132830000Y-71604209D01*
X132859294Y-71659014D01*
X133044866Y-71885134D01*
X133270986Y-72070706D01*
X133528966Y-72208599D01*
X133808889Y-72293513D01*
X134027050Y-72315000D01*
X134172950Y-72315000D01*
X134391111Y-72293513D01*
X134671034Y-72208599D01*
X134929014Y-72070706D01*
X135155134Y-71885134D01*
X135340706Y-71659014D01*
X135370000Y-71604209D01*
X135399294Y-71659014D01*
X135584866Y-71885134D01*
X135810986Y-72070706D01*
X136068966Y-72208599D01*
X136348889Y-72293513D01*
X136567050Y-72315000D01*
X136712950Y-72315000D01*
X136931111Y-72293513D01*
X137211034Y-72208599D01*
X137469014Y-72070706D01*
X137695134Y-71885134D01*
X137880706Y-71659014D01*
X137910000Y-71604209D01*
X137939294Y-71659014D01*
X138124866Y-71885134D01*
X138350986Y-72070706D01*
X138608966Y-72208599D01*
X138888889Y-72293513D01*
X139107050Y-72315000D01*
X139252950Y-72315000D01*
X139471111Y-72293513D01*
X139751034Y-72208599D01*
X140009014Y-72070706D01*
X140235134Y-71885134D01*
X140420706Y-71659014D01*
X140450000Y-71604209D01*
X140479294Y-71659014D01*
X140664866Y-71885134D01*
X140890986Y-72070706D01*
X141148966Y-72208599D01*
X141428889Y-72293513D01*
X141647050Y-72315000D01*
X141792950Y-72315000D01*
X142011111Y-72293513D01*
X142291034Y-72208599D01*
X142549014Y-72070706D01*
X142775134Y-71885134D01*
X142960706Y-71659014D01*
X142990000Y-71604209D01*
X143019294Y-71659014D01*
X143204866Y-71885134D01*
X143430986Y-72070706D01*
X143688966Y-72208599D01*
X143968889Y-72293513D01*
X144187050Y-72315000D01*
X144332950Y-72315000D01*
X144551111Y-72293513D01*
X144831034Y-72208599D01*
X145089014Y-72070706D01*
X145315134Y-71885134D01*
X145500706Y-71659014D01*
X145535201Y-71594477D01*
X145604822Y-71711355D01*
X145799731Y-71927588D01*
X146033080Y-72101641D01*
X146295901Y-72226825D01*
X146443110Y-72271476D01*
X146673000Y-72150155D01*
X146673000Y-70957000D01*
X146653000Y-70957000D01*
X146653000Y-70703000D01*
X146673000Y-70703000D01*
X146673000Y-70683000D01*
X146927000Y-70683000D01*
X146927000Y-70703000D01*
X146947000Y-70703000D01*
X146947000Y-70957000D01*
X146927000Y-70957000D01*
X146927000Y-72150155D01*
X147156890Y-72271476D01*
X147304099Y-72226825D01*
X147566920Y-72101641D01*
X147800269Y-71927588D01*
X147995178Y-71711355D01*
X148064799Y-71594477D01*
X148099294Y-71659014D01*
X148284866Y-71885134D01*
X148510986Y-72070706D01*
X148768966Y-72208599D01*
X149048889Y-72293513D01*
X149267050Y-72315000D01*
X149412950Y-72315000D01*
X149631111Y-72293513D01*
X149911034Y-72208599D01*
X150169014Y-72070706D01*
X150395134Y-71885134D01*
X150580706Y-71659014D01*
X150610000Y-71604209D01*
X150639294Y-71659014D01*
X150824866Y-71885134D01*
X151045001Y-72065794D01*
X151045000Y-74588981D01*
X151040960Y-74630000D01*
X151052779Y-74749999D01*
X151057082Y-74793688D01*
X151104828Y-74951086D01*
X151182364Y-75096145D01*
X151286709Y-75223291D01*
X151318578Y-75249446D01*
X151645072Y-75575939D01*
X151566841Y-75568269D01*
X151566837Y-75568269D01*
X151533647Y-75565000D01*
X121966353Y-75565000D01*
X121937399Y-75567852D01*
X121934427Y-75567831D01*
X121924909Y-75568764D01*
X121876790Y-75573821D01*
X121865717Y-75574912D01*
X121865348Y-75575024D01*
X121827860Y-75578964D01*
X121767017Y-75591453D01*
X121706058Y-75603082D01*
X121696902Y-75605846D01*
X121603683Y-75634702D01*
X121585000Y-75642556D01*
X121585000Y-73595867D01*
X123110533Y-72070335D01*
X123110986Y-72070706D01*
X123368966Y-72208599D01*
X123648889Y-72293513D01*
X123867050Y-72315000D01*
X124012950Y-72315000D01*
X124231111Y-72293513D01*
X124511034Y-72208599D01*
X124769014Y-72070706D01*
X124995134Y-71885134D01*
X125180706Y-71659014D01*
X125215201Y-71594477D01*
X125284822Y-71711355D01*
X125479731Y-71927588D01*
X125713080Y-72101641D01*
X125975901Y-72226825D01*
X126123110Y-72271476D01*
X126353000Y-72150155D01*
X126353000Y-70957000D01*
X126333000Y-70957000D01*
X126333000Y-70703000D01*
X126353000Y-70703000D01*
X126353000Y-70683000D01*
X126607000Y-70683000D01*
X126607000Y-70703000D01*
G36*
X127779294Y-69119014D02*
G01*
X127964866Y-69345134D01*
X128190986Y-69530706D01*
X128245791Y-69560000D01*
X128190986Y-69589294D01*
X127964866Y-69774866D01*
X127779294Y-70000986D01*
X127744799Y-70065523D01*
X127675178Y-69948645D01*
X127480269Y-69732412D01*
X127251244Y-69561584D01*
X127309014Y-69530706D01*
X127535134Y-69345134D01*
X127720706Y-69119014D01*
X127750000Y-69064209D01*
X127779294Y-69119014D01*
X127779294Y-69119014D01*
G37*
X127779294Y-69119014D02*
X127964866Y-69345134D01*
X128190986Y-69530706D01*
X128245791Y-69560000D01*
X128190986Y-69589294D01*
X127964866Y-69774866D01*
X127779294Y-70000986D01*
X127744799Y-70065523D01*
X127675178Y-69948645D01*
X127480269Y-69732412D01*
X127251244Y-69561584D01*
X127309014Y-69530706D01*
X127535134Y-69345134D01*
X127720706Y-69119014D01*
X127750000Y-69064209D01*
X127779294Y-69119014D01*
G36*
X130364822Y-69171355D02*
G01*
X130559731Y-69387588D01*
X130788756Y-69558416D01*
X130730986Y-69589294D01*
X130504866Y-69774866D01*
X130319294Y-70000986D01*
X130290000Y-70055791D01*
X130260706Y-70000986D01*
X130075134Y-69774866D01*
X129849014Y-69589294D01*
X129794209Y-69560000D01*
X129849014Y-69530706D01*
X130075134Y-69345134D01*
X130260706Y-69119014D01*
X130295201Y-69054477D01*
X130364822Y-69171355D01*
X130364822Y-69171355D01*
G37*
X130364822Y-69171355D02*
X130559731Y-69387588D01*
X130788756Y-69558416D01*
X130730986Y-69589294D01*
X130504866Y-69774866D01*
X130319294Y-70000986D01*
X130290000Y-70055791D01*
X130260706Y-70000986D01*
X130075134Y-69774866D01*
X129849014Y-69589294D01*
X129794209Y-69560000D01*
X129849014Y-69530706D01*
X130075134Y-69345134D01*
X130260706Y-69119014D01*
X130295201Y-69054477D01*
X130364822Y-69171355D01*
G36*
X121527000Y-68163000D02*
G01*
X121547000Y-68163000D01*
X121547000Y-68417000D01*
X121527000Y-68417000D01*
X121527000Y-68437000D01*
X121273000Y-68437000D01*
X121273000Y-68417000D01*
X121253000Y-68417000D01*
X121253000Y-68163000D01*
X121273000Y-68163000D01*
X121273000Y-68143000D01*
X121527000Y-68143000D01*
X121527000Y-68163000D01*
X121527000Y-68163000D01*
G37*
X121527000Y-68163000D02*
X121547000Y-68163000D01*
X121547000Y-68417000D01*
X121527000Y-68417000D01*
X121527000Y-68437000D01*
X121273000Y-68437000D01*
X121273000Y-68417000D01*
X121253000Y-68417000D01*
X121253000Y-68163000D01*
X121273000Y-68163000D01*
X121273000Y-68143000D01*
X121527000Y-68143000D01*
X121527000Y-68163000D01*
G36*
X131687000Y-68163000D02*
G01*
X131707000Y-68163000D01*
X131707000Y-68417000D01*
X131687000Y-68417000D01*
X131687000Y-68437000D01*
X131433000Y-68437000D01*
X131433000Y-68417000D01*
X131413000Y-68417000D01*
X131413000Y-68163000D01*
X131433000Y-68163000D01*
X131433000Y-68143000D01*
X131687000Y-68143000D01*
X131687000Y-68163000D01*
X131687000Y-68163000D01*
G37*
X131687000Y-68163000D02*
X131707000Y-68163000D01*
X131707000Y-68417000D01*
X131687000Y-68417000D01*
X131687000Y-68437000D01*
X131433000Y-68437000D01*
X131433000Y-68417000D01*
X131413000Y-68417000D01*
X131413000Y-68163000D01*
X131433000Y-68163000D01*
X131433000Y-68143000D01*
X131687000Y-68143000D01*
X131687000Y-68163000D01*
M02*
