M48
; DRILL file {KiCad (5.1.0)-1} date 20/09/2020 19:40:06
; FORMAT={3:3/ absolute / metric / suppress leading zeros}
; #@! TF.CreationDate,2020-09-20T19:40:06+01:00
; #@! TF.GenerationSoftware,Kicad,Pcbnew,(5.1.0)-1
FMAT,2
METRIC,TZ
T1C0.750
T2C0.800
T3C1.000
T4C1.100
T5C1.520
T6C2.700
%
G90
G05
T1
X158500Y-94500
X112250Y-98250
X130250Y-63750
X132250Y-63750
X134250Y-63750
X136250Y-63750
X138250Y-63750
X168250Y-75750
X170250Y-75750
X157250Y-101750
X157250Y-103750
X157250Y-105750
X157250Y-107750
X158500Y-92500
X158500Y-96500
X112250Y-90250
X112250Y-92250
X112250Y-94250
X112250Y-96250
X161000Y-76750
X163000Y-76750
T2
X166250Y-99250
X169750Y-99250
X119500Y-112000
X119500Y-115500
T3
X153935Y-117325
X156475Y-117325
X161135Y-117325
X163675Y-117325
X116320Y-68290
X116320Y-70830
X118860Y-68290
X118860Y-70830
X121400Y-68290
X121400Y-70830
X123940Y-68290
X123940Y-70830
X126480Y-68290
X126480Y-70830
X129020Y-68290
X129020Y-70830
X131560Y-68290
X131560Y-70830
X134100Y-68290
X134100Y-70830
X136640Y-68290
X136640Y-70830
X139180Y-68290
X139180Y-70830
X141720Y-68290
X141720Y-70830
X144260Y-68290
X144260Y-70830
X146800Y-68290
X146800Y-70830
X149340Y-68290
X149340Y-70830
X151880Y-68290
X151880Y-70830
X154420Y-68290
X154420Y-70830
X156960Y-68290
X156960Y-70830
X159500Y-68290
X159500Y-70830
X162040Y-68290
X162040Y-70830
X164580Y-68290
X164580Y-70830
X166750Y-87000
X169250Y-87000
T4
X126500Y-112000
X126500Y-114540
X126500Y-117080
T5
X112000Y-75670
X112000Y-80750
T6
X169450Y-118560
X111450Y-69560
X111450Y-118560
X169450Y-69560
T0
M30
