G04 #@! TF.GenerationSoftware,KiCad,Pcbnew,(5.1.0)-1*
G04 #@! TF.CreationDate,2020-03-11T19:31:41+00:00*
G04 #@! TF.ProjectId,Line Generator,4c696e65-2047-4656-9e65-7261746f722e,rev?*
G04 #@! TF.SameCoordinates,Original*
G04 #@! TF.FileFunction,Copper,L1,Top*
G04 #@! TF.FilePolarity,Positive*
%FSLAX46Y46*%
G04 Gerber Fmt 4.6, Leading zero omitted, Abs format (unit mm)*
G04 Created by KiCad (PCBNEW (5.1.0)-1) date 2020-03-11 19:31:41*
%MOMM*%
%LPD*%
G04 APERTURE LIST*
%ADD10C,0.100000*%
%ADD11C,1.000000*%
%ADD12C,1.600000*%
%ADD13R,1.000000X1.000000*%
%ADD14O,1.000000X1.000000*%
%ADD15R,0.800000X0.900000*%
%ADD16C,1.150000*%
%ADD17C,0.500000*%
%ADD18R,1.300000X0.600000*%
%ADD19C,1.800000*%
%ADD20R,0.600000X1.300000*%
%ADD21R,0.900000X0.800000*%
%ADD22C,0.375000*%
%ADD23C,0.500000*%
%ADD24C,1.000000*%
%ADD25C,0.254000*%
G04 APERTURE END LIST*
D10*
G36*
X212274504Y-69751204D02*
G01*
X212298773Y-69754804D01*
X212322571Y-69760765D01*
X212345671Y-69769030D01*
X212367849Y-69779520D01*
X212388893Y-69792133D01*
X212408598Y-69806747D01*
X212426777Y-69823223D01*
X212443253Y-69841402D01*
X212457867Y-69861107D01*
X212470480Y-69882151D01*
X212480970Y-69904329D01*
X212489235Y-69927429D01*
X212495196Y-69951227D01*
X212498796Y-69975496D01*
X212500000Y-70000000D01*
X212500000Y-75000000D01*
X212498796Y-75024504D01*
X212495196Y-75048773D01*
X212489235Y-75072571D01*
X212480970Y-75095671D01*
X212470480Y-75117849D01*
X212457867Y-75138893D01*
X212443253Y-75158598D01*
X212426777Y-75176777D01*
X212408598Y-75193253D01*
X212388893Y-75207867D01*
X212367849Y-75220480D01*
X212345671Y-75230970D01*
X212322571Y-75239235D01*
X212298773Y-75245196D01*
X212274504Y-75248796D01*
X212250000Y-75250000D01*
X211750000Y-75250000D01*
X211725496Y-75248796D01*
X211701227Y-75245196D01*
X211677429Y-75239235D01*
X211654329Y-75230970D01*
X211632151Y-75220480D01*
X211611107Y-75207867D01*
X211591402Y-75193253D01*
X211573223Y-75176777D01*
X211556747Y-75158598D01*
X211542133Y-75138893D01*
X211529520Y-75117849D01*
X211519030Y-75095671D01*
X211510765Y-75072571D01*
X211504804Y-75048773D01*
X211501204Y-75024504D01*
X211500000Y-75000000D01*
X211500000Y-70000000D01*
X211501204Y-69975496D01*
X211504804Y-69951227D01*
X211510765Y-69927429D01*
X211519030Y-69904329D01*
X211529520Y-69882151D01*
X211542133Y-69861107D01*
X211556747Y-69841402D01*
X211573223Y-69823223D01*
X211591402Y-69806747D01*
X211611107Y-69792133D01*
X211632151Y-69779520D01*
X211654329Y-69769030D01*
X211677429Y-69760765D01*
X211701227Y-69754804D01*
X211725496Y-69751204D01*
X211750000Y-69750000D01*
X212250000Y-69750000D01*
X212274504Y-69751204D01*
X212274504Y-69751204D01*
G37*
D11*
X212000000Y-72500000D03*
D10*
G36*
X210274504Y-69751204D02*
G01*
X210298773Y-69754804D01*
X210322571Y-69760765D01*
X210345671Y-69769030D01*
X210367849Y-69779520D01*
X210388893Y-69792133D01*
X210408598Y-69806747D01*
X210426777Y-69823223D01*
X210443253Y-69841402D01*
X210457867Y-69861107D01*
X210470480Y-69882151D01*
X210480970Y-69904329D01*
X210489235Y-69927429D01*
X210495196Y-69951227D01*
X210498796Y-69975496D01*
X210500000Y-70000000D01*
X210500000Y-75000000D01*
X210498796Y-75024504D01*
X210495196Y-75048773D01*
X210489235Y-75072571D01*
X210480970Y-75095671D01*
X210470480Y-75117849D01*
X210457867Y-75138893D01*
X210443253Y-75158598D01*
X210426777Y-75176777D01*
X210408598Y-75193253D01*
X210388893Y-75207867D01*
X210367849Y-75220480D01*
X210345671Y-75230970D01*
X210322571Y-75239235D01*
X210298773Y-75245196D01*
X210274504Y-75248796D01*
X210250000Y-75250000D01*
X209750000Y-75250000D01*
X209725496Y-75248796D01*
X209701227Y-75245196D01*
X209677429Y-75239235D01*
X209654329Y-75230970D01*
X209632151Y-75220480D01*
X209611107Y-75207867D01*
X209591402Y-75193253D01*
X209573223Y-75176777D01*
X209556747Y-75158598D01*
X209542133Y-75138893D01*
X209529520Y-75117849D01*
X209519030Y-75095671D01*
X209510765Y-75072571D01*
X209504804Y-75048773D01*
X209501204Y-75024504D01*
X209500000Y-75000000D01*
X209500000Y-70000000D01*
X209501204Y-69975496D01*
X209504804Y-69951227D01*
X209510765Y-69927429D01*
X209519030Y-69904329D01*
X209529520Y-69882151D01*
X209542133Y-69861107D01*
X209556747Y-69841402D01*
X209573223Y-69823223D01*
X209591402Y-69806747D01*
X209611107Y-69792133D01*
X209632151Y-69779520D01*
X209654329Y-69769030D01*
X209677429Y-69760765D01*
X209701227Y-69754804D01*
X209725496Y-69751204D01*
X209750000Y-69750000D01*
X210250000Y-69750000D01*
X210274504Y-69751204D01*
X210274504Y-69751204D01*
G37*
D11*
X210000000Y-72500000D03*
D10*
G36*
X208274504Y-69751204D02*
G01*
X208298773Y-69754804D01*
X208322571Y-69760765D01*
X208345671Y-69769030D01*
X208367849Y-69779520D01*
X208388893Y-69792133D01*
X208408598Y-69806747D01*
X208426777Y-69823223D01*
X208443253Y-69841402D01*
X208457867Y-69861107D01*
X208470480Y-69882151D01*
X208480970Y-69904329D01*
X208489235Y-69927429D01*
X208495196Y-69951227D01*
X208498796Y-69975496D01*
X208500000Y-70000000D01*
X208500000Y-75000000D01*
X208498796Y-75024504D01*
X208495196Y-75048773D01*
X208489235Y-75072571D01*
X208480970Y-75095671D01*
X208470480Y-75117849D01*
X208457867Y-75138893D01*
X208443253Y-75158598D01*
X208426777Y-75176777D01*
X208408598Y-75193253D01*
X208388893Y-75207867D01*
X208367849Y-75220480D01*
X208345671Y-75230970D01*
X208322571Y-75239235D01*
X208298773Y-75245196D01*
X208274504Y-75248796D01*
X208250000Y-75250000D01*
X207750000Y-75250000D01*
X207725496Y-75248796D01*
X207701227Y-75245196D01*
X207677429Y-75239235D01*
X207654329Y-75230970D01*
X207632151Y-75220480D01*
X207611107Y-75207867D01*
X207591402Y-75193253D01*
X207573223Y-75176777D01*
X207556747Y-75158598D01*
X207542133Y-75138893D01*
X207529520Y-75117849D01*
X207519030Y-75095671D01*
X207510765Y-75072571D01*
X207504804Y-75048773D01*
X207501204Y-75024504D01*
X207500000Y-75000000D01*
X207500000Y-70000000D01*
X207501204Y-69975496D01*
X207504804Y-69951227D01*
X207510765Y-69927429D01*
X207519030Y-69904329D01*
X207529520Y-69882151D01*
X207542133Y-69861107D01*
X207556747Y-69841402D01*
X207573223Y-69823223D01*
X207591402Y-69806747D01*
X207611107Y-69792133D01*
X207632151Y-69779520D01*
X207654329Y-69769030D01*
X207677429Y-69760765D01*
X207701227Y-69754804D01*
X207725496Y-69751204D01*
X207750000Y-69750000D01*
X208250000Y-69750000D01*
X208274504Y-69751204D01*
X208274504Y-69751204D01*
G37*
D11*
X208000000Y-72500000D03*
D10*
G36*
X206274504Y-69751204D02*
G01*
X206298773Y-69754804D01*
X206322571Y-69760765D01*
X206345671Y-69769030D01*
X206367849Y-69779520D01*
X206388893Y-69792133D01*
X206408598Y-69806747D01*
X206426777Y-69823223D01*
X206443253Y-69841402D01*
X206457867Y-69861107D01*
X206470480Y-69882151D01*
X206480970Y-69904329D01*
X206489235Y-69927429D01*
X206495196Y-69951227D01*
X206498796Y-69975496D01*
X206500000Y-70000000D01*
X206500000Y-75000000D01*
X206498796Y-75024504D01*
X206495196Y-75048773D01*
X206489235Y-75072571D01*
X206480970Y-75095671D01*
X206470480Y-75117849D01*
X206457867Y-75138893D01*
X206443253Y-75158598D01*
X206426777Y-75176777D01*
X206408598Y-75193253D01*
X206388893Y-75207867D01*
X206367849Y-75220480D01*
X206345671Y-75230970D01*
X206322571Y-75239235D01*
X206298773Y-75245196D01*
X206274504Y-75248796D01*
X206250000Y-75250000D01*
X205750000Y-75250000D01*
X205725496Y-75248796D01*
X205701227Y-75245196D01*
X205677429Y-75239235D01*
X205654329Y-75230970D01*
X205632151Y-75220480D01*
X205611107Y-75207867D01*
X205591402Y-75193253D01*
X205573223Y-75176777D01*
X205556747Y-75158598D01*
X205542133Y-75138893D01*
X205529520Y-75117849D01*
X205519030Y-75095671D01*
X205510765Y-75072571D01*
X205504804Y-75048773D01*
X205501204Y-75024504D01*
X205500000Y-75000000D01*
X205500000Y-70000000D01*
X205501204Y-69975496D01*
X205504804Y-69951227D01*
X205510765Y-69927429D01*
X205519030Y-69904329D01*
X205529520Y-69882151D01*
X205542133Y-69861107D01*
X205556747Y-69841402D01*
X205573223Y-69823223D01*
X205591402Y-69806747D01*
X205611107Y-69792133D01*
X205632151Y-69779520D01*
X205654329Y-69769030D01*
X205677429Y-69760765D01*
X205701227Y-69754804D01*
X205725496Y-69751204D01*
X205750000Y-69750000D01*
X206250000Y-69750000D01*
X206274504Y-69751204D01*
X206274504Y-69751204D01*
G37*
D11*
X206000000Y-72500000D03*
D10*
G36*
X214974504Y-73251204D02*
G01*
X214998773Y-73254804D01*
X215022571Y-73260765D01*
X215045671Y-73269030D01*
X215067849Y-73279520D01*
X215088893Y-73292133D01*
X215108598Y-73306747D01*
X215126777Y-73323223D01*
X215143253Y-73341402D01*
X215157867Y-73361107D01*
X215170480Y-73382151D01*
X215180970Y-73404329D01*
X215189235Y-73427429D01*
X215195196Y-73451227D01*
X215198796Y-73475496D01*
X215200000Y-73500000D01*
X215200000Y-76000000D01*
X215198796Y-76024504D01*
X215195196Y-76048773D01*
X215189235Y-76072571D01*
X215180970Y-76095671D01*
X215170480Y-76117849D01*
X215157867Y-76138893D01*
X215143253Y-76158598D01*
X215126777Y-76176777D01*
X215108598Y-76193253D01*
X215088893Y-76207867D01*
X215067849Y-76220480D01*
X215045671Y-76230970D01*
X215022571Y-76239235D01*
X214998773Y-76245196D01*
X214974504Y-76248796D01*
X214950000Y-76250000D01*
X213850000Y-76250000D01*
X213825496Y-76248796D01*
X213801227Y-76245196D01*
X213777429Y-76239235D01*
X213754329Y-76230970D01*
X213732151Y-76220480D01*
X213711107Y-76207867D01*
X213691402Y-76193253D01*
X213673223Y-76176777D01*
X213656747Y-76158598D01*
X213642133Y-76138893D01*
X213629520Y-76117849D01*
X213619030Y-76095671D01*
X213610765Y-76072571D01*
X213604804Y-76048773D01*
X213601204Y-76024504D01*
X213600000Y-76000000D01*
X213600000Y-73500000D01*
X213601204Y-73475496D01*
X213604804Y-73451227D01*
X213610765Y-73427429D01*
X213619030Y-73404329D01*
X213629520Y-73382151D01*
X213642133Y-73361107D01*
X213656747Y-73341402D01*
X213673223Y-73323223D01*
X213691402Y-73306747D01*
X213711107Y-73292133D01*
X213732151Y-73279520D01*
X213754329Y-73269030D01*
X213777429Y-73260765D01*
X213801227Y-73254804D01*
X213825496Y-73251204D01*
X213850000Y-73250000D01*
X214950000Y-73250000D01*
X214974504Y-73251204D01*
X214974504Y-73251204D01*
G37*
D12*
X214400000Y-74750000D03*
D10*
G36*
X204174504Y-73251204D02*
G01*
X204198773Y-73254804D01*
X204222571Y-73260765D01*
X204245671Y-73269030D01*
X204267849Y-73279520D01*
X204288893Y-73292133D01*
X204308598Y-73306747D01*
X204326777Y-73323223D01*
X204343253Y-73341402D01*
X204357867Y-73361107D01*
X204370480Y-73382151D01*
X204380970Y-73404329D01*
X204389235Y-73427429D01*
X204395196Y-73451227D01*
X204398796Y-73475496D01*
X204400000Y-73500000D01*
X204400000Y-76000000D01*
X204398796Y-76024504D01*
X204395196Y-76048773D01*
X204389235Y-76072571D01*
X204380970Y-76095671D01*
X204370480Y-76117849D01*
X204357867Y-76138893D01*
X204343253Y-76158598D01*
X204326777Y-76176777D01*
X204308598Y-76193253D01*
X204288893Y-76207867D01*
X204267849Y-76220480D01*
X204245671Y-76230970D01*
X204222571Y-76239235D01*
X204198773Y-76245196D01*
X204174504Y-76248796D01*
X204150000Y-76250000D01*
X203050000Y-76250000D01*
X203025496Y-76248796D01*
X203001227Y-76245196D01*
X202977429Y-76239235D01*
X202954329Y-76230970D01*
X202932151Y-76220480D01*
X202911107Y-76207867D01*
X202891402Y-76193253D01*
X202873223Y-76176777D01*
X202856747Y-76158598D01*
X202842133Y-76138893D01*
X202829520Y-76117849D01*
X202819030Y-76095671D01*
X202810765Y-76072571D01*
X202804804Y-76048773D01*
X202801204Y-76024504D01*
X202800000Y-76000000D01*
X202800000Y-73500000D01*
X202801204Y-73475496D01*
X202804804Y-73451227D01*
X202810765Y-73427429D01*
X202819030Y-73404329D01*
X202829520Y-73382151D01*
X202842133Y-73361107D01*
X202856747Y-73341402D01*
X202873223Y-73323223D01*
X202891402Y-73306747D01*
X202911107Y-73292133D01*
X202932151Y-73279520D01*
X202954329Y-73269030D01*
X202977429Y-73260765D01*
X203001227Y-73254804D01*
X203025496Y-73251204D01*
X203050000Y-73250000D01*
X204150000Y-73250000D01*
X204174504Y-73251204D01*
X204174504Y-73251204D01*
G37*
D12*
X203600000Y-74750000D03*
D13*
X212250000Y-82850000D03*
X214750000Y-82850000D03*
X230000000Y-83700000D03*
D14*
X230000000Y-84970000D03*
X230000000Y-86240000D03*
D15*
X211300000Y-88000000D03*
X213200000Y-88000000D03*
X212250000Y-86000000D03*
D10*
G36*
X206374505Y-78301204D02*
G01*
X206398773Y-78304804D01*
X206422572Y-78310765D01*
X206445671Y-78319030D01*
X206467850Y-78329520D01*
X206488893Y-78342132D01*
X206508599Y-78356747D01*
X206526777Y-78373223D01*
X206543253Y-78391401D01*
X206557868Y-78411107D01*
X206570480Y-78432150D01*
X206580970Y-78454329D01*
X206589235Y-78477428D01*
X206595196Y-78501227D01*
X206598796Y-78525495D01*
X206600000Y-78549999D01*
X206600000Y-79450001D01*
X206598796Y-79474505D01*
X206595196Y-79498773D01*
X206589235Y-79522572D01*
X206580970Y-79545671D01*
X206570480Y-79567850D01*
X206557868Y-79588893D01*
X206543253Y-79608599D01*
X206526777Y-79626777D01*
X206508599Y-79643253D01*
X206488893Y-79657868D01*
X206467850Y-79670480D01*
X206445671Y-79680970D01*
X206422572Y-79689235D01*
X206398773Y-79695196D01*
X206374505Y-79698796D01*
X206350001Y-79700000D01*
X205699999Y-79700000D01*
X205675495Y-79698796D01*
X205651227Y-79695196D01*
X205627428Y-79689235D01*
X205604329Y-79680970D01*
X205582150Y-79670480D01*
X205561107Y-79657868D01*
X205541401Y-79643253D01*
X205523223Y-79626777D01*
X205506747Y-79608599D01*
X205492132Y-79588893D01*
X205479520Y-79567850D01*
X205469030Y-79545671D01*
X205460765Y-79522572D01*
X205454804Y-79498773D01*
X205451204Y-79474505D01*
X205450000Y-79450001D01*
X205450000Y-78549999D01*
X205451204Y-78525495D01*
X205454804Y-78501227D01*
X205460765Y-78477428D01*
X205469030Y-78454329D01*
X205479520Y-78432150D01*
X205492132Y-78411107D01*
X205506747Y-78391401D01*
X205523223Y-78373223D01*
X205541401Y-78356747D01*
X205561107Y-78342132D01*
X205582150Y-78329520D01*
X205604329Y-78319030D01*
X205627428Y-78310765D01*
X205651227Y-78304804D01*
X205675495Y-78301204D01*
X205699999Y-78300000D01*
X206350001Y-78300000D01*
X206374505Y-78301204D01*
X206374505Y-78301204D01*
G37*
D16*
X206025000Y-79000000D03*
D10*
G36*
X204324505Y-78301204D02*
G01*
X204348773Y-78304804D01*
X204372572Y-78310765D01*
X204395671Y-78319030D01*
X204417850Y-78329520D01*
X204438893Y-78342132D01*
X204458599Y-78356747D01*
X204476777Y-78373223D01*
X204493253Y-78391401D01*
X204507868Y-78411107D01*
X204520480Y-78432150D01*
X204530970Y-78454329D01*
X204539235Y-78477428D01*
X204545196Y-78501227D01*
X204548796Y-78525495D01*
X204550000Y-78549999D01*
X204550000Y-79450001D01*
X204548796Y-79474505D01*
X204545196Y-79498773D01*
X204539235Y-79522572D01*
X204530970Y-79545671D01*
X204520480Y-79567850D01*
X204507868Y-79588893D01*
X204493253Y-79608599D01*
X204476777Y-79626777D01*
X204458599Y-79643253D01*
X204438893Y-79657868D01*
X204417850Y-79670480D01*
X204395671Y-79680970D01*
X204372572Y-79689235D01*
X204348773Y-79695196D01*
X204324505Y-79698796D01*
X204300001Y-79700000D01*
X203649999Y-79700000D01*
X203625495Y-79698796D01*
X203601227Y-79695196D01*
X203577428Y-79689235D01*
X203554329Y-79680970D01*
X203532150Y-79670480D01*
X203511107Y-79657868D01*
X203491401Y-79643253D01*
X203473223Y-79626777D01*
X203456747Y-79608599D01*
X203442132Y-79588893D01*
X203429520Y-79567850D01*
X203419030Y-79545671D01*
X203410765Y-79522572D01*
X203404804Y-79498773D01*
X203401204Y-79474505D01*
X203400000Y-79450001D01*
X203400000Y-78549999D01*
X203401204Y-78525495D01*
X203404804Y-78501227D01*
X203410765Y-78477428D01*
X203419030Y-78454329D01*
X203429520Y-78432150D01*
X203442132Y-78411107D01*
X203456747Y-78391401D01*
X203473223Y-78373223D01*
X203491401Y-78356747D01*
X203511107Y-78342132D01*
X203532150Y-78329520D01*
X203554329Y-78319030D01*
X203577428Y-78310765D01*
X203601227Y-78304804D01*
X203625495Y-78301204D01*
X203649999Y-78300000D01*
X204300001Y-78300000D01*
X204324505Y-78301204D01*
X204324505Y-78301204D01*
G37*
D16*
X203975000Y-79000000D03*
D10*
G36*
X210874505Y-78051204D02*
G01*
X210898773Y-78054804D01*
X210922572Y-78060765D01*
X210945671Y-78069030D01*
X210967850Y-78079520D01*
X210988893Y-78092132D01*
X211008599Y-78106747D01*
X211026777Y-78123223D01*
X211043253Y-78141401D01*
X211057868Y-78161107D01*
X211070480Y-78182150D01*
X211080970Y-78204329D01*
X211089235Y-78227428D01*
X211095196Y-78251227D01*
X211098796Y-78275495D01*
X211100000Y-78299999D01*
X211100000Y-79200001D01*
X211098796Y-79224505D01*
X211095196Y-79248773D01*
X211089235Y-79272572D01*
X211080970Y-79295671D01*
X211070480Y-79317850D01*
X211057868Y-79338893D01*
X211043253Y-79358599D01*
X211026777Y-79376777D01*
X211008599Y-79393253D01*
X210988893Y-79407868D01*
X210967850Y-79420480D01*
X210945671Y-79430970D01*
X210922572Y-79439235D01*
X210898773Y-79445196D01*
X210874505Y-79448796D01*
X210850001Y-79450000D01*
X210199999Y-79450000D01*
X210175495Y-79448796D01*
X210151227Y-79445196D01*
X210127428Y-79439235D01*
X210104329Y-79430970D01*
X210082150Y-79420480D01*
X210061107Y-79407868D01*
X210041401Y-79393253D01*
X210023223Y-79376777D01*
X210006747Y-79358599D01*
X209992132Y-79338893D01*
X209979520Y-79317850D01*
X209969030Y-79295671D01*
X209960765Y-79272572D01*
X209954804Y-79248773D01*
X209951204Y-79224505D01*
X209950000Y-79200001D01*
X209950000Y-78299999D01*
X209951204Y-78275495D01*
X209954804Y-78251227D01*
X209960765Y-78227428D01*
X209969030Y-78204329D01*
X209979520Y-78182150D01*
X209992132Y-78161107D01*
X210006747Y-78141401D01*
X210023223Y-78123223D01*
X210041401Y-78106747D01*
X210061107Y-78092132D01*
X210082150Y-78079520D01*
X210104329Y-78069030D01*
X210127428Y-78060765D01*
X210151227Y-78054804D01*
X210175495Y-78051204D01*
X210199999Y-78050000D01*
X210850001Y-78050000D01*
X210874505Y-78051204D01*
X210874505Y-78051204D01*
G37*
D16*
X210525000Y-78750000D03*
D10*
G36*
X208824505Y-78051204D02*
G01*
X208848773Y-78054804D01*
X208872572Y-78060765D01*
X208895671Y-78069030D01*
X208917850Y-78079520D01*
X208938893Y-78092132D01*
X208958599Y-78106747D01*
X208976777Y-78123223D01*
X208993253Y-78141401D01*
X209007868Y-78161107D01*
X209020480Y-78182150D01*
X209030970Y-78204329D01*
X209039235Y-78227428D01*
X209045196Y-78251227D01*
X209048796Y-78275495D01*
X209050000Y-78299999D01*
X209050000Y-79200001D01*
X209048796Y-79224505D01*
X209045196Y-79248773D01*
X209039235Y-79272572D01*
X209030970Y-79295671D01*
X209020480Y-79317850D01*
X209007868Y-79338893D01*
X208993253Y-79358599D01*
X208976777Y-79376777D01*
X208958599Y-79393253D01*
X208938893Y-79407868D01*
X208917850Y-79420480D01*
X208895671Y-79430970D01*
X208872572Y-79439235D01*
X208848773Y-79445196D01*
X208824505Y-79448796D01*
X208800001Y-79450000D01*
X208149999Y-79450000D01*
X208125495Y-79448796D01*
X208101227Y-79445196D01*
X208077428Y-79439235D01*
X208054329Y-79430970D01*
X208032150Y-79420480D01*
X208011107Y-79407868D01*
X207991401Y-79393253D01*
X207973223Y-79376777D01*
X207956747Y-79358599D01*
X207942132Y-79338893D01*
X207929520Y-79317850D01*
X207919030Y-79295671D01*
X207910765Y-79272572D01*
X207904804Y-79248773D01*
X207901204Y-79224505D01*
X207900000Y-79200001D01*
X207900000Y-78299999D01*
X207901204Y-78275495D01*
X207904804Y-78251227D01*
X207910765Y-78227428D01*
X207919030Y-78204329D01*
X207929520Y-78182150D01*
X207942132Y-78161107D01*
X207956747Y-78141401D01*
X207973223Y-78123223D01*
X207991401Y-78106747D01*
X208011107Y-78092132D01*
X208032150Y-78079520D01*
X208054329Y-78069030D01*
X208077428Y-78060765D01*
X208101227Y-78054804D01*
X208125495Y-78051204D01*
X208149999Y-78050000D01*
X208800001Y-78050000D01*
X208824505Y-78051204D01*
X208824505Y-78051204D01*
G37*
D16*
X208475000Y-78750000D03*
D10*
G36*
X214674505Y-78151204D02*
G01*
X214698773Y-78154804D01*
X214722572Y-78160765D01*
X214745671Y-78169030D01*
X214767850Y-78179520D01*
X214788893Y-78192132D01*
X214808599Y-78206747D01*
X214826777Y-78223223D01*
X214843253Y-78241401D01*
X214857868Y-78261107D01*
X214870480Y-78282150D01*
X214880970Y-78304329D01*
X214889235Y-78327428D01*
X214895196Y-78351227D01*
X214898796Y-78375495D01*
X214900000Y-78399999D01*
X214900000Y-79300001D01*
X214898796Y-79324505D01*
X214895196Y-79348773D01*
X214889235Y-79372572D01*
X214880970Y-79395671D01*
X214870480Y-79417850D01*
X214857868Y-79438893D01*
X214843253Y-79458599D01*
X214826777Y-79476777D01*
X214808599Y-79493253D01*
X214788893Y-79507868D01*
X214767850Y-79520480D01*
X214745671Y-79530970D01*
X214722572Y-79539235D01*
X214698773Y-79545196D01*
X214674505Y-79548796D01*
X214650001Y-79550000D01*
X213999999Y-79550000D01*
X213975495Y-79548796D01*
X213951227Y-79545196D01*
X213927428Y-79539235D01*
X213904329Y-79530970D01*
X213882150Y-79520480D01*
X213861107Y-79507868D01*
X213841401Y-79493253D01*
X213823223Y-79476777D01*
X213806747Y-79458599D01*
X213792132Y-79438893D01*
X213779520Y-79417850D01*
X213769030Y-79395671D01*
X213760765Y-79372572D01*
X213754804Y-79348773D01*
X213751204Y-79324505D01*
X213750000Y-79300001D01*
X213750000Y-78399999D01*
X213751204Y-78375495D01*
X213754804Y-78351227D01*
X213760765Y-78327428D01*
X213769030Y-78304329D01*
X213779520Y-78282150D01*
X213792132Y-78261107D01*
X213806747Y-78241401D01*
X213823223Y-78223223D01*
X213841401Y-78206747D01*
X213861107Y-78192132D01*
X213882150Y-78179520D01*
X213904329Y-78169030D01*
X213927428Y-78160765D01*
X213951227Y-78154804D01*
X213975495Y-78151204D01*
X213999999Y-78150000D01*
X214650001Y-78150000D01*
X214674505Y-78151204D01*
X214674505Y-78151204D01*
G37*
D16*
X214325000Y-78850000D03*
D10*
G36*
X212624505Y-78151204D02*
G01*
X212648773Y-78154804D01*
X212672572Y-78160765D01*
X212695671Y-78169030D01*
X212717850Y-78179520D01*
X212738893Y-78192132D01*
X212758599Y-78206747D01*
X212776777Y-78223223D01*
X212793253Y-78241401D01*
X212807868Y-78261107D01*
X212820480Y-78282150D01*
X212830970Y-78304329D01*
X212839235Y-78327428D01*
X212845196Y-78351227D01*
X212848796Y-78375495D01*
X212850000Y-78399999D01*
X212850000Y-79300001D01*
X212848796Y-79324505D01*
X212845196Y-79348773D01*
X212839235Y-79372572D01*
X212830970Y-79395671D01*
X212820480Y-79417850D01*
X212807868Y-79438893D01*
X212793253Y-79458599D01*
X212776777Y-79476777D01*
X212758599Y-79493253D01*
X212738893Y-79507868D01*
X212717850Y-79520480D01*
X212695671Y-79530970D01*
X212672572Y-79539235D01*
X212648773Y-79545196D01*
X212624505Y-79548796D01*
X212600001Y-79550000D01*
X211949999Y-79550000D01*
X211925495Y-79548796D01*
X211901227Y-79545196D01*
X211877428Y-79539235D01*
X211854329Y-79530970D01*
X211832150Y-79520480D01*
X211811107Y-79507868D01*
X211791401Y-79493253D01*
X211773223Y-79476777D01*
X211756747Y-79458599D01*
X211742132Y-79438893D01*
X211729520Y-79417850D01*
X211719030Y-79395671D01*
X211710765Y-79372572D01*
X211704804Y-79348773D01*
X211701204Y-79324505D01*
X211700000Y-79300001D01*
X211700000Y-78399999D01*
X211701204Y-78375495D01*
X211704804Y-78351227D01*
X211710765Y-78327428D01*
X211719030Y-78304329D01*
X211729520Y-78282150D01*
X211742132Y-78261107D01*
X211756747Y-78241401D01*
X211773223Y-78223223D01*
X211791401Y-78206747D01*
X211811107Y-78192132D01*
X211832150Y-78179520D01*
X211854329Y-78169030D01*
X211877428Y-78160765D01*
X211901227Y-78154804D01*
X211925495Y-78151204D01*
X211949999Y-78150000D01*
X212600001Y-78150000D01*
X212624505Y-78151204D01*
X212624505Y-78151204D01*
G37*
D16*
X212275000Y-78850000D03*
D17*
X226400000Y-73000000D03*
D10*
G36*
X226400000Y-72250602D02*
G01*
X226424534Y-72250602D01*
X226473365Y-72255412D01*
X226521490Y-72264984D01*
X226568445Y-72279228D01*
X226613778Y-72298005D01*
X226657051Y-72321136D01*
X226697850Y-72348396D01*
X226735779Y-72379524D01*
X226770476Y-72414221D01*
X226801604Y-72452150D01*
X226828864Y-72492949D01*
X226851995Y-72536222D01*
X226870772Y-72581555D01*
X226885016Y-72628510D01*
X226894588Y-72676635D01*
X226899398Y-72725466D01*
X226899398Y-72750000D01*
X226900000Y-72750000D01*
X226900000Y-73250000D01*
X226899398Y-73250000D01*
X226899398Y-73274534D01*
X226894588Y-73323365D01*
X226885016Y-73371490D01*
X226870772Y-73418445D01*
X226851995Y-73463778D01*
X226828864Y-73507051D01*
X226801604Y-73547850D01*
X226770476Y-73585779D01*
X226735779Y-73620476D01*
X226697850Y-73651604D01*
X226657051Y-73678864D01*
X226613778Y-73701995D01*
X226568445Y-73720772D01*
X226521490Y-73735016D01*
X226473365Y-73744588D01*
X226424534Y-73749398D01*
X226400000Y-73749398D01*
X226400000Y-73750000D01*
X225900000Y-73750000D01*
X225900000Y-72250000D01*
X226400000Y-72250000D01*
X226400000Y-72250602D01*
X226400000Y-72250602D01*
G37*
D17*
X225100000Y-73000000D03*
D10*
G36*
X225600000Y-73750000D02*
G01*
X225100000Y-73750000D01*
X225100000Y-73749398D01*
X225075466Y-73749398D01*
X225026635Y-73744588D01*
X224978510Y-73735016D01*
X224931555Y-73720772D01*
X224886222Y-73701995D01*
X224842949Y-73678864D01*
X224802150Y-73651604D01*
X224764221Y-73620476D01*
X224729524Y-73585779D01*
X224698396Y-73547850D01*
X224671136Y-73507051D01*
X224648005Y-73463778D01*
X224629228Y-73418445D01*
X224614984Y-73371490D01*
X224605412Y-73323365D01*
X224600602Y-73274534D01*
X224600602Y-73250000D01*
X224600000Y-73250000D01*
X224600000Y-72750000D01*
X224600602Y-72750000D01*
X224600602Y-72725466D01*
X224605412Y-72676635D01*
X224614984Y-72628510D01*
X224629228Y-72581555D01*
X224648005Y-72536222D01*
X224671136Y-72492949D01*
X224698396Y-72452150D01*
X224729524Y-72414221D01*
X224764221Y-72379524D01*
X224802150Y-72348396D01*
X224842949Y-72321136D01*
X224886222Y-72298005D01*
X224931555Y-72279228D01*
X224978510Y-72264984D01*
X225026635Y-72255412D01*
X225075466Y-72250602D01*
X225100000Y-72250602D01*
X225100000Y-72250000D01*
X225600000Y-72250000D01*
X225600000Y-73750000D01*
X225600000Y-73750000D01*
G37*
D18*
X216550000Y-85150000D03*
X216550000Y-87050000D03*
X218650000Y-86100000D03*
D19*
X224050000Y-70500000D03*
X229130000Y-73040000D03*
X236750000Y-70500000D03*
D10*
G36*
X206074505Y-98401204D02*
G01*
X206098773Y-98404804D01*
X206122572Y-98410765D01*
X206145671Y-98419030D01*
X206167850Y-98429520D01*
X206188893Y-98442132D01*
X206208599Y-98456747D01*
X206226777Y-98473223D01*
X206243253Y-98491401D01*
X206257868Y-98511107D01*
X206270480Y-98532150D01*
X206280970Y-98554329D01*
X206289235Y-98577428D01*
X206295196Y-98601227D01*
X206298796Y-98625495D01*
X206300000Y-98649999D01*
X206300000Y-99550001D01*
X206298796Y-99574505D01*
X206295196Y-99598773D01*
X206289235Y-99622572D01*
X206280970Y-99645671D01*
X206270480Y-99667850D01*
X206257868Y-99688893D01*
X206243253Y-99708599D01*
X206226777Y-99726777D01*
X206208599Y-99743253D01*
X206188893Y-99757868D01*
X206167850Y-99770480D01*
X206145671Y-99780970D01*
X206122572Y-99789235D01*
X206098773Y-99795196D01*
X206074505Y-99798796D01*
X206050001Y-99800000D01*
X205399999Y-99800000D01*
X205375495Y-99798796D01*
X205351227Y-99795196D01*
X205327428Y-99789235D01*
X205304329Y-99780970D01*
X205282150Y-99770480D01*
X205261107Y-99757868D01*
X205241401Y-99743253D01*
X205223223Y-99726777D01*
X205206747Y-99708599D01*
X205192132Y-99688893D01*
X205179520Y-99667850D01*
X205169030Y-99645671D01*
X205160765Y-99622572D01*
X205154804Y-99598773D01*
X205151204Y-99574505D01*
X205150000Y-99550001D01*
X205150000Y-98649999D01*
X205151204Y-98625495D01*
X205154804Y-98601227D01*
X205160765Y-98577428D01*
X205169030Y-98554329D01*
X205179520Y-98532150D01*
X205192132Y-98511107D01*
X205206747Y-98491401D01*
X205223223Y-98473223D01*
X205241401Y-98456747D01*
X205261107Y-98442132D01*
X205282150Y-98429520D01*
X205304329Y-98419030D01*
X205327428Y-98410765D01*
X205351227Y-98404804D01*
X205375495Y-98401204D01*
X205399999Y-98400000D01*
X206050001Y-98400000D01*
X206074505Y-98401204D01*
X206074505Y-98401204D01*
G37*
D16*
X205725000Y-99100000D03*
D10*
G36*
X204024505Y-98401204D02*
G01*
X204048773Y-98404804D01*
X204072572Y-98410765D01*
X204095671Y-98419030D01*
X204117850Y-98429520D01*
X204138893Y-98442132D01*
X204158599Y-98456747D01*
X204176777Y-98473223D01*
X204193253Y-98491401D01*
X204207868Y-98511107D01*
X204220480Y-98532150D01*
X204230970Y-98554329D01*
X204239235Y-98577428D01*
X204245196Y-98601227D01*
X204248796Y-98625495D01*
X204250000Y-98649999D01*
X204250000Y-99550001D01*
X204248796Y-99574505D01*
X204245196Y-99598773D01*
X204239235Y-99622572D01*
X204230970Y-99645671D01*
X204220480Y-99667850D01*
X204207868Y-99688893D01*
X204193253Y-99708599D01*
X204176777Y-99726777D01*
X204158599Y-99743253D01*
X204138893Y-99757868D01*
X204117850Y-99770480D01*
X204095671Y-99780970D01*
X204072572Y-99789235D01*
X204048773Y-99795196D01*
X204024505Y-99798796D01*
X204000001Y-99800000D01*
X203349999Y-99800000D01*
X203325495Y-99798796D01*
X203301227Y-99795196D01*
X203277428Y-99789235D01*
X203254329Y-99780970D01*
X203232150Y-99770480D01*
X203211107Y-99757868D01*
X203191401Y-99743253D01*
X203173223Y-99726777D01*
X203156747Y-99708599D01*
X203142132Y-99688893D01*
X203129520Y-99667850D01*
X203119030Y-99645671D01*
X203110765Y-99622572D01*
X203104804Y-99598773D01*
X203101204Y-99574505D01*
X203100000Y-99550001D01*
X203100000Y-98649999D01*
X203101204Y-98625495D01*
X203104804Y-98601227D01*
X203110765Y-98577428D01*
X203119030Y-98554329D01*
X203129520Y-98532150D01*
X203142132Y-98511107D01*
X203156747Y-98491401D01*
X203173223Y-98473223D01*
X203191401Y-98456747D01*
X203211107Y-98442132D01*
X203232150Y-98429520D01*
X203254329Y-98419030D01*
X203277428Y-98410765D01*
X203301227Y-98404804D01*
X203325495Y-98401204D01*
X203349999Y-98400000D01*
X204000001Y-98400000D01*
X204024505Y-98401204D01*
X204024505Y-98401204D01*
G37*
D16*
X203675000Y-99100000D03*
D13*
X203450000Y-96100000D03*
X205950000Y-96100000D03*
D17*
X217000000Y-97850000D03*
D10*
G36*
X216250000Y-98350000D02*
G01*
X216250000Y-97850000D01*
X216250602Y-97850000D01*
X216250602Y-97825466D01*
X216255412Y-97776635D01*
X216264984Y-97728510D01*
X216279228Y-97681555D01*
X216298005Y-97636222D01*
X216321136Y-97592949D01*
X216348396Y-97552150D01*
X216379524Y-97514221D01*
X216414221Y-97479524D01*
X216452150Y-97448396D01*
X216492949Y-97421136D01*
X216536222Y-97398005D01*
X216581555Y-97379228D01*
X216628510Y-97364984D01*
X216676635Y-97355412D01*
X216725466Y-97350602D01*
X216750000Y-97350602D01*
X216750000Y-97350000D01*
X217250000Y-97350000D01*
X217250000Y-97350602D01*
X217274534Y-97350602D01*
X217323365Y-97355412D01*
X217371490Y-97364984D01*
X217418445Y-97379228D01*
X217463778Y-97398005D01*
X217507051Y-97421136D01*
X217547850Y-97448396D01*
X217585779Y-97479524D01*
X217620476Y-97514221D01*
X217651604Y-97552150D01*
X217678864Y-97592949D01*
X217701995Y-97636222D01*
X217720772Y-97681555D01*
X217735016Y-97728510D01*
X217744588Y-97776635D01*
X217749398Y-97825466D01*
X217749398Y-97850000D01*
X217750000Y-97850000D01*
X217750000Y-98350000D01*
X216250000Y-98350000D01*
X216250000Y-98350000D01*
G37*
D17*
X217000000Y-99150000D03*
D10*
G36*
X217749398Y-99150000D02*
G01*
X217749398Y-99174534D01*
X217744588Y-99223365D01*
X217735016Y-99271490D01*
X217720772Y-99318445D01*
X217701995Y-99363778D01*
X217678864Y-99407051D01*
X217651604Y-99447850D01*
X217620476Y-99485779D01*
X217585779Y-99520476D01*
X217547850Y-99551604D01*
X217507051Y-99578864D01*
X217463778Y-99601995D01*
X217418445Y-99620772D01*
X217371490Y-99635016D01*
X217323365Y-99644588D01*
X217274534Y-99649398D01*
X217250000Y-99649398D01*
X217250000Y-99650000D01*
X216750000Y-99650000D01*
X216750000Y-99649398D01*
X216725466Y-99649398D01*
X216676635Y-99644588D01*
X216628510Y-99635016D01*
X216581555Y-99620772D01*
X216536222Y-99601995D01*
X216492949Y-99578864D01*
X216452150Y-99551604D01*
X216414221Y-99520476D01*
X216379524Y-99485779D01*
X216348396Y-99447850D01*
X216321136Y-99407051D01*
X216298005Y-99363778D01*
X216279228Y-99318445D01*
X216264984Y-99271490D01*
X216255412Y-99223365D01*
X216250602Y-99174534D01*
X216250602Y-99150000D01*
X216250000Y-99150000D01*
X216250000Y-98650000D01*
X217750000Y-98650000D01*
X217750000Y-99150000D01*
X217749398Y-99150000D01*
X217749398Y-99150000D01*
G37*
D20*
X217250000Y-90700000D03*
X218200000Y-92800000D03*
X216300000Y-92800000D03*
D21*
X213500000Y-92700000D03*
X213500000Y-90800000D03*
X211500000Y-91750000D03*
D10*
G36*
X206124505Y-90301204D02*
G01*
X206148773Y-90304804D01*
X206172572Y-90310765D01*
X206195671Y-90319030D01*
X206217850Y-90329520D01*
X206238893Y-90342132D01*
X206258599Y-90356747D01*
X206276777Y-90373223D01*
X206293253Y-90391401D01*
X206307868Y-90411107D01*
X206320480Y-90432150D01*
X206330970Y-90454329D01*
X206339235Y-90477428D01*
X206345196Y-90501227D01*
X206348796Y-90525495D01*
X206350000Y-90549999D01*
X206350000Y-91450001D01*
X206348796Y-91474505D01*
X206345196Y-91498773D01*
X206339235Y-91522572D01*
X206330970Y-91545671D01*
X206320480Y-91567850D01*
X206307868Y-91588893D01*
X206293253Y-91608599D01*
X206276777Y-91626777D01*
X206258599Y-91643253D01*
X206238893Y-91657868D01*
X206217850Y-91670480D01*
X206195671Y-91680970D01*
X206172572Y-91689235D01*
X206148773Y-91695196D01*
X206124505Y-91698796D01*
X206100001Y-91700000D01*
X205449999Y-91700000D01*
X205425495Y-91698796D01*
X205401227Y-91695196D01*
X205377428Y-91689235D01*
X205354329Y-91680970D01*
X205332150Y-91670480D01*
X205311107Y-91657868D01*
X205291401Y-91643253D01*
X205273223Y-91626777D01*
X205256747Y-91608599D01*
X205242132Y-91588893D01*
X205229520Y-91567850D01*
X205219030Y-91545671D01*
X205210765Y-91522572D01*
X205204804Y-91498773D01*
X205201204Y-91474505D01*
X205200000Y-91450001D01*
X205200000Y-90549999D01*
X205201204Y-90525495D01*
X205204804Y-90501227D01*
X205210765Y-90477428D01*
X205219030Y-90454329D01*
X205229520Y-90432150D01*
X205242132Y-90411107D01*
X205256747Y-90391401D01*
X205273223Y-90373223D01*
X205291401Y-90356747D01*
X205311107Y-90342132D01*
X205332150Y-90329520D01*
X205354329Y-90319030D01*
X205377428Y-90310765D01*
X205401227Y-90304804D01*
X205425495Y-90301204D01*
X205449999Y-90300000D01*
X206100001Y-90300000D01*
X206124505Y-90301204D01*
X206124505Y-90301204D01*
G37*
D16*
X205775000Y-91000000D03*
D10*
G36*
X204074505Y-90301204D02*
G01*
X204098773Y-90304804D01*
X204122572Y-90310765D01*
X204145671Y-90319030D01*
X204167850Y-90329520D01*
X204188893Y-90342132D01*
X204208599Y-90356747D01*
X204226777Y-90373223D01*
X204243253Y-90391401D01*
X204257868Y-90411107D01*
X204270480Y-90432150D01*
X204280970Y-90454329D01*
X204289235Y-90477428D01*
X204295196Y-90501227D01*
X204298796Y-90525495D01*
X204300000Y-90549999D01*
X204300000Y-91450001D01*
X204298796Y-91474505D01*
X204295196Y-91498773D01*
X204289235Y-91522572D01*
X204280970Y-91545671D01*
X204270480Y-91567850D01*
X204257868Y-91588893D01*
X204243253Y-91608599D01*
X204226777Y-91626777D01*
X204208599Y-91643253D01*
X204188893Y-91657868D01*
X204167850Y-91670480D01*
X204145671Y-91680970D01*
X204122572Y-91689235D01*
X204098773Y-91695196D01*
X204074505Y-91698796D01*
X204050001Y-91700000D01*
X203399999Y-91700000D01*
X203375495Y-91698796D01*
X203351227Y-91695196D01*
X203327428Y-91689235D01*
X203304329Y-91680970D01*
X203282150Y-91670480D01*
X203261107Y-91657868D01*
X203241401Y-91643253D01*
X203223223Y-91626777D01*
X203206747Y-91608599D01*
X203192132Y-91588893D01*
X203179520Y-91567850D01*
X203169030Y-91545671D01*
X203160765Y-91522572D01*
X203154804Y-91498773D01*
X203151204Y-91474505D01*
X203150000Y-91450001D01*
X203150000Y-90549999D01*
X203151204Y-90525495D01*
X203154804Y-90501227D01*
X203160765Y-90477428D01*
X203169030Y-90454329D01*
X203179520Y-90432150D01*
X203192132Y-90411107D01*
X203206747Y-90391401D01*
X203223223Y-90373223D01*
X203241401Y-90356747D01*
X203261107Y-90342132D01*
X203282150Y-90329520D01*
X203304329Y-90319030D01*
X203327428Y-90310765D01*
X203351227Y-90304804D01*
X203375495Y-90301204D01*
X203399999Y-90300000D01*
X204050001Y-90300000D01*
X204074505Y-90301204D01*
X204074505Y-90301204D01*
G37*
D16*
X203725000Y-91000000D03*
D10*
G36*
X210574505Y-94801204D02*
G01*
X210598773Y-94804804D01*
X210622572Y-94810765D01*
X210645671Y-94819030D01*
X210667850Y-94829520D01*
X210688893Y-94842132D01*
X210708599Y-94856747D01*
X210726777Y-94873223D01*
X210743253Y-94891401D01*
X210757868Y-94911107D01*
X210770480Y-94932150D01*
X210780970Y-94954329D01*
X210789235Y-94977428D01*
X210795196Y-95001227D01*
X210798796Y-95025495D01*
X210800000Y-95049999D01*
X210800000Y-95950001D01*
X210798796Y-95974505D01*
X210795196Y-95998773D01*
X210789235Y-96022572D01*
X210780970Y-96045671D01*
X210770480Y-96067850D01*
X210757868Y-96088893D01*
X210743253Y-96108599D01*
X210726777Y-96126777D01*
X210708599Y-96143253D01*
X210688893Y-96157868D01*
X210667850Y-96170480D01*
X210645671Y-96180970D01*
X210622572Y-96189235D01*
X210598773Y-96195196D01*
X210574505Y-96198796D01*
X210550001Y-96200000D01*
X209899999Y-96200000D01*
X209875495Y-96198796D01*
X209851227Y-96195196D01*
X209827428Y-96189235D01*
X209804329Y-96180970D01*
X209782150Y-96170480D01*
X209761107Y-96157868D01*
X209741401Y-96143253D01*
X209723223Y-96126777D01*
X209706747Y-96108599D01*
X209692132Y-96088893D01*
X209679520Y-96067850D01*
X209669030Y-96045671D01*
X209660765Y-96022572D01*
X209654804Y-95998773D01*
X209651204Y-95974505D01*
X209650000Y-95950001D01*
X209650000Y-95049999D01*
X209651204Y-95025495D01*
X209654804Y-95001227D01*
X209660765Y-94977428D01*
X209669030Y-94954329D01*
X209679520Y-94932150D01*
X209692132Y-94911107D01*
X209706747Y-94891401D01*
X209723223Y-94873223D01*
X209741401Y-94856747D01*
X209761107Y-94842132D01*
X209782150Y-94829520D01*
X209804329Y-94819030D01*
X209827428Y-94810765D01*
X209851227Y-94804804D01*
X209875495Y-94801204D01*
X209899999Y-94800000D01*
X210550001Y-94800000D01*
X210574505Y-94801204D01*
X210574505Y-94801204D01*
G37*
D16*
X210225000Y-95500000D03*
D10*
G36*
X212624505Y-94801204D02*
G01*
X212648773Y-94804804D01*
X212672572Y-94810765D01*
X212695671Y-94819030D01*
X212717850Y-94829520D01*
X212738893Y-94842132D01*
X212758599Y-94856747D01*
X212776777Y-94873223D01*
X212793253Y-94891401D01*
X212807868Y-94911107D01*
X212820480Y-94932150D01*
X212830970Y-94954329D01*
X212839235Y-94977428D01*
X212845196Y-95001227D01*
X212848796Y-95025495D01*
X212850000Y-95049999D01*
X212850000Y-95950001D01*
X212848796Y-95974505D01*
X212845196Y-95998773D01*
X212839235Y-96022572D01*
X212830970Y-96045671D01*
X212820480Y-96067850D01*
X212807868Y-96088893D01*
X212793253Y-96108599D01*
X212776777Y-96126777D01*
X212758599Y-96143253D01*
X212738893Y-96157868D01*
X212717850Y-96170480D01*
X212695671Y-96180970D01*
X212672572Y-96189235D01*
X212648773Y-96195196D01*
X212624505Y-96198796D01*
X212600001Y-96200000D01*
X211949999Y-96200000D01*
X211925495Y-96198796D01*
X211901227Y-96195196D01*
X211877428Y-96189235D01*
X211854329Y-96180970D01*
X211832150Y-96170480D01*
X211811107Y-96157868D01*
X211791401Y-96143253D01*
X211773223Y-96126777D01*
X211756747Y-96108599D01*
X211742132Y-96088893D01*
X211729520Y-96067850D01*
X211719030Y-96045671D01*
X211710765Y-96022572D01*
X211704804Y-95998773D01*
X211701204Y-95974505D01*
X211700000Y-95950001D01*
X211700000Y-95049999D01*
X211701204Y-95025495D01*
X211704804Y-95001227D01*
X211710765Y-94977428D01*
X211719030Y-94954329D01*
X211729520Y-94932150D01*
X211742132Y-94911107D01*
X211756747Y-94891401D01*
X211773223Y-94873223D01*
X211791401Y-94856747D01*
X211811107Y-94842132D01*
X211832150Y-94829520D01*
X211854329Y-94819030D01*
X211877428Y-94810765D01*
X211901227Y-94804804D01*
X211925495Y-94801204D01*
X211949999Y-94800000D01*
X212600001Y-94800000D01*
X212624505Y-94801204D01*
X212624505Y-94801204D01*
G37*
D16*
X212275000Y-95500000D03*
D19*
X236750000Y-96750000D03*
X229130000Y-99290000D03*
X224050000Y-96750000D03*
D10*
G36*
X214674505Y-80151204D02*
G01*
X214698773Y-80154804D01*
X214722572Y-80160765D01*
X214745671Y-80169030D01*
X214767850Y-80179520D01*
X214788893Y-80192132D01*
X214808599Y-80206747D01*
X214826777Y-80223223D01*
X214843253Y-80241401D01*
X214857868Y-80261107D01*
X214870480Y-80282150D01*
X214880970Y-80304329D01*
X214889235Y-80327428D01*
X214895196Y-80351227D01*
X214898796Y-80375495D01*
X214900000Y-80399999D01*
X214900000Y-81300001D01*
X214898796Y-81324505D01*
X214895196Y-81348773D01*
X214889235Y-81372572D01*
X214880970Y-81395671D01*
X214870480Y-81417850D01*
X214857868Y-81438893D01*
X214843253Y-81458599D01*
X214826777Y-81476777D01*
X214808599Y-81493253D01*
X214788893Y-81507868D01*
X214767850Y-81520480D01*
X214745671Y-81530970D01*
X214722572Y-81539235D01*
X214698773Y-81545196D01*
X214674505Y-81548796D01*
X214650001Y-81550000D01*
X213999999Y-81550000D01*
X213975495Y-81548796D01*
X213951227Y-81545196D01*
X213927428Y-81539235D01*
X213904329Y-81530970D01*
X213882150Y-81520480D01*
X213861107Y-81507868D01*
X213841401Y-81493253D01*
X213823223Y-81476777D01*
X213806747Y-81458599D01*
X213792132Y-81438893D01*
X213779520Y-81417850D01*
X213769030Y-81395671D01*
X213760765Y-81372572D01*
X213754804Y-81348773D01*
X213751204Y-81324505D01*
X213750000Y-81300001D01*
X213750000Y-80399999D01*
X213751204Y-80375495D01*
X213754804Y-80351227D01*
X213760765Y-80327428D01*
X213769030Y-80304329D01*
X213779520Y-80282150D01*
X213792132Y-80261107D01*
X213806747Y-80241401D01*
X213823223Y-80223223D01*
X213841401Y-80206747D01*
X213861107Y-80192132D01*
X213882150Y-80179520D01*
X213904329Y-80169030D01*
X213927428Y-80160765D01*
X213951227Y-80154804D01*
X213975495Y-80151204D01*
X213999999Y-80150000D01*
X214650001Y-80150000D01*
X214674505Y-80151204D01*
X214674505Y-80151204D01*
G37*
D16*
X214325000Y-80850000D03*
D10*
G36*
X212624505Y-80151204D02*
G01*
X212648773Y-80154804D01*
X212672572Y-80160765D01*
X212695671Y-80169030D01*
X212717850Y-80179520D01*
X212738893Y-80192132D01*
X212758599Y-80206747D01*
X212776777Y-80223223D01*
X212793253Y-80241401D01*
X212807868Y-80261107D01*
X212820480Y-80282150D01*
X212830970Y-80304329D01*
X212839235Y-80327428D01*
X212845196Y-80351227D01*
X212848796Y-80375495D01*
X212850000Y-80399999D01*
X212850000Y-81300001D01*
X212848796Y-81324505D01*
X212845196Y-81348773D01*
X212839235Y-81372572D01*
X212830970Y-81395671D01*
X212820480Y-81417850D01*
X212807868Y-81438893D01*
X212793253Y-81458599D01*
X212776777Y-81476777D01*
X212758599Y-81493253D01*
X212738893Y-81507868D01*
X212717850Y-81520480D01*
X212695671Y-81530970D01*
X212672572Y-81539235D01*
X212648773Y-81545196D01*
X212624505Y-81548796D01*
X212600001Y-81550000D01*
X211949999Y-81550000D01*
X211925495Y-81548796D01*
X211901227Y-81545196D01*
X211877428Y-81539235D01*
X211854329Y-81530970D01*
X211832150Y-81520480D01*
X211811107Y-81507868D01*
X211791401Y-81493253D01*
X211773223Y-81476777D01*
X211756747Y-81458599D01*
X211742132Y-81438893D01*
X211729520Y-81417850D01*
X211719030Y-81395671D01*
X211710765Y-81372572D01*
X211704804Y-81348773D01*
X211701204Y-81324505D01*
X211700000Y-81300001D01*
X211700000Y-80399999D01*
X211701204Y-80375495D01*
X211704804Y-80351227D01*
X211710765Y-80327428D01*
X211719030Y-80304329D01*
X211729520Y-80282150D01*
X211742132Y-80261107D01*
X211756747Y-80241401D01*
X211773223Y-80223223D01*
X211791401Y-80206747D01*
X211811107Y-80192132D01*
X211832150Y-80179520D01*
X211854329Y-80169030D01*
X211877428Y-80160765D01*
X211901227Y-80154804D01*
X211925495Y-80151204D01*
X211949999Y-80150000D01*
X212600001Y-80150000D01*
X212624505Y-80151204D01*
X212624505Y-80151204D01*
G37*
D16*
X212275000Y-80850000D03*
D10*
G36*
X219224505Y-78901204D02*
G01*
X219248773Y-78904804D01*
X219272572Y-78910765D01*
X219295671Y-78919030D01*
X219317850Y-78929520D01*
X219338893Y-78942132D01*
X219358599Y-78956747D01*
X219376777Y-78973223D01*
X219393253Y-78991401D01*
X219407868Y-79011107D01*
X219420480Y-79032150D01*
X219430970Y-79054329D01*
X219439235Y-79077428D01*
X219445196Y-79101227D01*
X219448796Y-79125495D01*
X219450000Y-79149999D01*
X219450000Y-79800001D01*
X219448796Y-79824505D01*
X219445196Y-79848773D01*
X219439235Y-79872572D01*
X219430970Y-79895671D01*
X219420480Y-79917850D01*
X219407868Y-79938893D01*
X219393253Y-79958599D01*
X219376777Y-79976777D01*
X219358599Y-79993253D01*
X219338893Y-80007868D01*
X219317850Y-80020480D01*
X219295671Y-80030970D01*
X219272572Y-80039235D01*
X219248773Y-80045196D01*
X219224505Y-80048796D01*
X219200001Y-80050000D01*
X218299999Y-80050000D01*
X218275495Y-80048796D01*
X218251227Y-80045196D01*
X218227428Y-80039235D01*
X218204329Y-80030970D01*
X218182150Y-80020480D01*
X218161107Y-80007868D01*
X218141401Y-79993253D01*
X218123223Y-79976777D01*
X218106747Y-79958599D01*
X218092132Y-79938893D01*
X218079520Y-79917850D01*
X218069030Y-79895671D01*
X218060765Y-79872572D01*
X218054804Y-79848773D01*
X218051204Y-79824505D01*
X218050000Y-79800001D01*
X218050000Y-79149999D01*
X218051204Y-79125495D01*
X218054804Y-79101227D01*
X218060765Y-79077428D01*
X218069030Y-79054329D01*
X218079520Y-79032150D01*
X218092132Y-79011107D01*
X218106747Y-78991401D01*
X218123223Y-78973223D01*
X218141401Y-78956747D01*
X218161107Y-78942132D01*
X218182150Y-78929520D01*
X218204329Y-78919030D01*
X218227428Y-78910765D01*
X218251227Y-78904804D01*
X218275495Y-78901204D01*
X218299999Y-78900000D01*
X219200001Y-78900000D01*
X219224505Y-78901204D01*
X219224505Y-78901204D01*
G37*
D16*
X218750000Y-79475000D03*
D10*
G36*
X219224505Y-80951204D02*
G01*
X219248773Y-80954804D01*
X219272572Y-80960765D01*
X219295671Y-80969030D01*
X219317850Y-80979520D01*
X219338893Y-80992132D01*
X219358599Y-81006747D01*
X219376777Y-81023223D01*
X219393253Y-81041401D01*
X219407868Y-81061107D01*
X219420480Y-81082150D01*
X219430970Y-81104329D01*
X219439235Y-81127428D01*
X219445196Y-81151227D01*
X219448796Y-81175495D01*
X219450000Y-81199999D01*
X219450000Y-81850001D01*
X219448796Y-81874505D01*
X219445196Y-81898773D01*
X219439235Y-81922572D01*
X219430970Y-81945671D01*
X219420480Y-81967850D01*
X219407868Y-81988893D01*
X219393253Y-82008599D01*
X219376777Y-82026777D01*
X219358599Y-82043253D01*
X219338893Y-82057868D01*
X219317850Y-82070480D01*
X219295671Y-82080970D01*
X219272572Y-82089235D01*
X219248773Y-82095196D01*
X219224505Y-82098796D01*
X219200001Y-82100000D01*
X218299999Y-82100000D01*
X218275495Y-82098796D01*
X218251227Y-82095196D01*
X218227428Y-82089235D01*
X218204329Y-82080970D01*
X218182150Y-82070480D01*
X218161107Y-82057868D01*
X218141401Y-82043253D01*
X218123223Y-82026777D01*
X218106747Y-82008599D01*
X218092132Y-81988893D01*
X218079520Y-81967850D01*
X218069030Y-81945671D01*
X218060765Y-81922572D01*
X218054804Y-81898773D01*
X218051204Y-81874505D01*
X218050000Y-81850001D01*
X218050000Y-81199999D01*
X218051204Y-81175495D01*
X218054804Y-81151227D01*
X218060765Y-81127428D01*
X218069030Y-81104329D01*
X218079520Y-81082150D01*
X218092132Y-81061107D01*
X218106747Y-81041401D01*
X218123223Y-81023223D01*
X218141401Y-81006747D01*
X218161107Y-80992132D01*
X218182150Y-80979520D01*
X218204329Y-80969030D01*
X218227428Y-80960765D01*
X218251227Y-80954804D01*
X218275495Y-80951204D01*
X218299999Y-80950000D01*
X219200001Y-80950000D01*
X219224505Y-80951204D01*
X219224505Y-80951204D01*
G37*
D16*
X218750000Y-81525000D03*
D10*
G36*
X212624505Y-97551204D02*
G01*
X212648773Y-97554804D01*
X212672572Y-97560765D01*
X212695671Y-97569030D01*
X212717850Y-97579520D01*
X212738893Y-97592132D01*
X212758599Y-97606747D01*
X212776777Y-97623223D01*
X212793253Y-97641401D01*
X212807868Y-97661107D01*
X212820480Y-97682150D01*
X212830970Y-97704329D01*
X212839235Y-97727428D01*
X212845196Y-97751227D01*
X212848796Y-97775495D01*
X212850000Y-97799999D01*
X212850000Y-98700001D01*
X212848796Y-98724505D01*
X212845196Y-98748773D01*
X212839235Y-98772572D01*
X212830970Y-98795671D01*
X212820480Y-98817850D01*
X212807868Y-98838893D01*
X212793253Y-98858599D01*
X212776777Y-98876777D01*
X212758599Y-98893253D01*
X212738893Y-98907868D01*
X212717850Y-98920480D01*
X212695671Y-98930970D01*
X212672572Y-98939235D01*
X212648773Y-98945196D01*
X212624505Y-98948796D01*
X212600001Y-98950000D01*
X211949999Y-98950000D01*
X211925495Y-98948796D01*
X211901227Y-98945196D01*
X211877428Y-98939235D01*
X211854329Y-98930970D01*
X211832150Y-98920480D01*
X211811107Y-98907868D01*
X211791401Y-98893253D01*
X211773223Y-98876777D01*
X211756747Y-98858599D01*
X211742132Y-98838893D01*
X211729520Y-98817850D01*
X211719030Y-98795671D01*
X211710765Y-98772572D01*
X211704804Y-98748773D01*
X211701204Y-98724505D01*
X211700000Y-98700001D01*
X211700000Y-97799999D01*
X211701204Y-97775495D01*
X211704804Y-97751227D01*
X211710765Y-97727428D01*
X211719030Y-97704329D01*
X211729520Y-97682150D01*
X211742132Y-97661107D01*
X211756747Y-97641401D01*
X211773223Y-97623223D01*
X211791401Y-97606747D01*
X211811107Y-97592132D01*
X211832150Y-97579520D01*
X211854329Y-97569030D01*
X211877428Y-97560765D01*
X211901227Y-97554804D01*
X211925495Y-97551204D01*
X211949999Y-97550000D01*
X212600001Y-97550000D01*
X212624505Y-97551204D01*
X212624505Y-97551204D01*
G37*
D16*
X212275000Y-98250000D03*
D10*
G36*
X210574505Y-97551204D02*
G01*
X210598773Y-97554804D01*
X210622572Y-97560765D01*
X210645671Y-97569030D01*
X210667850Y-97579520D01*
X210688893Y-97592132D01*
X210708599Y-97606747D01*
X210726777Y-97623223D01*
X210743253Y-97641401D01*
X210757868Y-97661107D01*
X210770480Y-97682150D01*
X210780970Y-97704329D01*
X210789235Y-97727428D01*
X210795196Y-97751227D01*
X210798796Y-97775495D01*
X210800000Y-97799999D01*
X210800000Y-98700001D01*
X210798796Y-98724505D01*
X210795196Y-98748773D01*
X210789235Y-98772572D01*
X210780970Y-98795671D01*
X210770480Y-98817850D01*
X210757868Y-98838893D01*
X210743253Y-98858599D01*
X210726777Y-98876777D01*
X210708599Y-98893253D01*
X210688893Y-98907868D01*
X210667850Y-98920480D01*
X210645671Y-98930970D01*
X210622572Y-98939235D01*
X210598773Y-98945196D01*
X210574505Y-98948796D01*
X210550001Y-98950000D01*
X209899999Y-98950000D01*
X209875495Y-98948796D01*
X209851227Y-98945196D01*
X209827428Y-98939235D01*
X209804329Y-98930970D01*
X209782150Y-98920480D01*
X209761107Y-98907868D01*
X209741401Y-98893253D01*
X209723223Y-98876777D01*
X209706747Y-98858599D01*
X209692132Y-98838893D01*
X209679520Y-98817850D01*
X209669030Y-98795671D01*
X209660765Y-98772572D01*
X209654804Y-98748773D01*
X209651204Y-98724505D01*
X209650000Y-98700001D01*
X209650000Y-97799999D01*
X209651204Y-97775495D01*
X209654804Y-97751227D01*
X209660765Y-97727428D01*
X209669030Y-97704329D01*
X209679520Y-97682150D01*
X209692132Y-97661107D01*
X209706747Y-97641401D01*
X209723223Y-97623223D01*
X209741401Y-97606747D01*
X209761107Y-97592132D01*
X209782150Y-97579520D01*
X209804329Y-97569030D01*
X209827428Y-97560765D01*
X209851227Y-97554804D01*
X209875495Y-97551204D01*
X209899999Y-97550000D01*
X210550001Y-97550000D01*
X210574505Y-97551204D01*
X210574505Y-97551204D01*
G37*
D16*
X210225000Y-98250000D03*
D10*
G36*
X204074505Y-92801204D02*
G01*
X204098773Y-92804804D01*
X204122572Y-92810765D01*
X204145671Y-92819030D01*
X204167850Y-92829520D01*
X204188893Y-92842132D01*
X204208599Y-92856747D01*
X204226777Y-92873223D01*
X204243253Y-92891401D01*
X204257868Y-92911107D01*
X204270480Y-92932150D01*
X204280970Y-92954329D01*
X204289235Y-92977428D01*
X204295196Y-93001227D01*
X204298796Y-93025495D01*
X204300000Y-93049999D01*
X204300000Y-93950001D01*
X204298796Y-93974505D01*
X204295196Y-93998773D01*
X204289235Y-94022572D01*
X204280970Y-94045671D01*
X204270480Y-94067850D01*
X204257868Y-94088893D01*
X204243253Y-94108599D01*
X204226777Y-94126777D01*
X204208599Y-94143253D01*
X204188893Y-94157868D01*
X204167850Y-94170480D01*
X204145671Y-94180970D01*
X204122572Y-94189235D01*
X204098773Y-94195196D01*
X204074505Y-94198796D01*
X204050001Y-94200000D01*
X203399999Y-94200000D01*
X203375495Y-94198796D01*
X203351227Y-94195196D01*
X203327428Y-94189235D01*
X203304329Y-94180970D01*
X203282150Y-94170480D01*
X203261107Y-94157868D01*
X203241401Y-94143253D01*
X203223223Y-94126777D01*
X203206747Y-94108599D01*
X203192132Y-94088893D01*
X203179520Y-94067850D01*
X203169030Y-94045671D01*
X203160765Y-94022572D01*
X203154804Y-93998773D01*
X203151204Y-93974505D01*
X203150000Y-93950001D01*
X203150000Y-93049999D01*
X203151204Y-93025495D01*
X203154804Y-93001227D01*
X203160765Y-92977428D01*
X203169030Y-92954329D01*
X203179520Y-92932150D01*
X203192132Y-92911107D01*
X203206747Y-92891401D01*
X203223223Y-92873223D01*
X203241401Y-92856747D01*
X203261107Y-92842132D01*
X203282150Y-92829520D01*
X203304329Y-92819030D01*
X203327428Y-92810765D01*
X203351227Y-92804804D01*
X203375495Y-92801204D01*
X203399999Y-92800000D01*
X204050001Y-92800000D01*
X204074505Y-92801204D01*
X204074505Y-92801204D01*
G37*
D16*
X203725000Y-93500000D03*
D10*
G36*
X206124505Y-92801204D02*
G01*
X206148773Y-92804804D01*
X206172572Y-92810765D01*
X206195671Y-92819030D01*
X206217850Y-92829520D01*
X206238893Y-92842132D01*
X206258599Y-92856747D01*
X206276777Y-92873223D01*
X206293253Y-92891401D01*
X206307868Y-92911107D01*
X206320480Y-92932150D01*
X206330970Y-92954329D01*
X206339235Y-92977428D01*
X206345196Y-93001227D01*
X206348796Y-93025495D01*
X206350000Y-93049999D01*
X206350000Y-93950001D01*
X206348796Y-93974505D01*
X206345196Y-93998773D01*
X206339235Y-94022572D01*
X206330970Y-94045671D01*
X206320480Y-94067850D01*
X206307868Y-94088893D01*
X206293253Y-94108599D01*
X206276777Y-94126777D01*
X206258599Y-94143253D01*
X206238893Y-94157868D01*
X206217850Y-94170480D01*
X206195671Y-94180970D01*
X206172572Y-94189235D01*
X206148773Y-94195196D01*
X206124505Y-94198796D01*
X206100001Y-94200000D01*
X205449999Y-94200000D01*
X205425495Y-94198796D01*
X205401227Y-94195196D01*
X205377428Y-94189235D01*
X205354329Y-94180970D01*
X205332150Y-94170480D01*
X205311107Y-94157868D01*
X205291401Y-94143253D01*
X205273223Y-94126777D01*
X205256747Y-94108599D01*
X205242132Y-94088893D01*
X205229520Y-94067850D01*
X205219030Y-94045671D01*
X205210765Y-94022572D01*
X205204804Y-93998773D01*
X205201204Y-93974505D01*
X205200000Y-93950001D01*
X205200000Y-93049999D01*
X205201204Y-93025495D01*
X205204804Y-93001227D01*
X205210765Y-92977428D01*
X205219030Y-92954329D01*
X205229520Y-92932150D01*
X205242132Y-92911107D01*
X205256747Y-92891401D01*
X205273223Y-92873223D01*
X205291401Y-92856747D01*
X205311107Y-92842132D01*
X205332150Y-92829520D01*
X205354329Y-92819030D01*
X205377428Y-92810765D01*
X205401227Y-92804804D01*
X205425495Y-92801204D01*
X205449999Y-92800000D01*
X206100001Y-92800000D01*
X206124505Y-92801204D01*
X206124505Y-92801204D01*
G37*
D16*
X205775000Y-93500000D03*
D22*
X212000000Y-78750000D02*
X212175000Y-78750000D01*
X212175000Y-78750000D02*
X212275000Y-78850000D01*
D23*
X210525000Y-78750000D02*
X212000000Y-78750000D01*
X212000000Y-78750000D02*
X212000000Y-72500000D01*
D24*
X212863500Y-71636500D02*
X212000000Y-72500000D01*
D23*
X236750000Y-70500000D02*
X235460800Y-69210800D01*
X235460800Y-69210800D02*
X215289200Y-69210800D01*
X215289200Y-69210800D02*
X212863500Y-71636500D01*
D22*
X202987400Y-90262400D02*
X203725000Y-91000000D01*
D23*
X203675000Y-99100000D02*
X203675000Y-97212800D01*
X203675000Y-97212800D02*
X203450000Y-96987800D01*
X203450000Y-96100000D02*
X203450000Y-96987800D01*
D22*
X212275000Y-80850000D02*
X212250000Y-80875000D01*
D23*
X212250000Y-80875000D02*
X212250000Y-82850000D01*
X212275000Y-80850000D02*
X212275000Y-78850000D01*
D22*
X203725000Y-93500000D02*
X203450000Y-93775000D01*
D23*
X203450000Y-93775000D02*
X203450000Y-96100000D01*
X203725000Y-93500000D02*
X203725000Y-91000000D01*
X236750000Y-70500000D02*
X240400000Y-74150000D01*
X240400000Y-93100000D02*
X236750000Y-96750000D01*
X240400000Y-74150000D02*
X240400000Y-93100000D01*
X205386600Y-69300000D02*
X204900000Y-69786600D01*
X210586300Y-69300000D02*
X205386600Y-69300000D01*
X202725010Y-90000010D02*
X203725000Y-91000000D01*
X202725010Y-78340990D02*
X202725010Y-90000010D01*
X202798976Y-78340990D02*
X202725010Y-78340990D01*
X204900000Y-76239966D02*
X202798976Y-78340990D01*
X204900000Y-69786600D02*
X204900000Y-76239966D01*
X211429290Y-70202290D02*
X212863500Y-71636500D01*
X211429290Y-70142990D02*
X211429290Y-70202290D01*
X210586300Y-69300000D02*
X211429290Y-70142990D01*
D24*
X229112200Y-83700000D02*
X220362200Y-83700000D01*
X220362200Y-83700000D02*
X218650000Y-85412200D01*
X230000000Y-83700000D02*
X229112200Y-83700000D01*
X218650000Y-86100000D02*
X218650000Y-85412200D01*
D22*
X213200000Y-88418900D02*
X213200000Y-88000000D01*
X213200000Y-88418900D02*
X213200000Y-88837800D01*
X213500000Y-89137800D02*
X213200000Y-88837800D01*
X213500000Y-90800000D02*
X213500000Y-89137800D01*
X213500000Y-89137800D02*
X218215600Y-89137800D01*
X218215600Y-89137800D02*
X222383400Y-84970000D01*
X222383400Y-84970000D02*
X229112200Y-84970000D01*
X230000000Y-84970000D02*
X229112200Y-84970000D01*
X209429290Y-73070710D02*
X209429290Y-75070710D01*
X210000000Y-72500000D02*
X209429290Y-73070710D01*
X209429290Y-75070710D02*
X207250000Y-77250000D01*
X207250000Y-77250000D02*
X207250000Y-81500000D01*
X207250000Y-81500000D02*
X210250000Y-84500000D01*
X210250000Y-84500000D02*
X210250000Y-85750000D01*
X210250000Y-85750000D02*
X211500000Y-87000000D01*
X213200000Y-87950000D02*
X213200000Y-88000000D01*
X212250000Y-87000000D02*
X213200000Y-87950000D01*
X211500000Y-87000000D02*
X212250000Y-87000000D01*
D24*
X217937800Y-90700000D02*
X222397800Y-86240000D01*
X222397800Y-86240000D02*
X230000000Y-86240000D01*
X217250000Y-90700000D02*
X217937800Y-90700000D01*
D22*
X210225000Y-95500000D02*
X206913900Y-92188900D01*
X206913900Y-92188900D02*
X205285200Y-92188900D01*
X205285200Y-92188900D02*
X204811100Y-91714800D01*
X204811100Y-91714800D02*
X204811100Y-86746800D01*
X204811100Y-86746800D02*
X203968800Y-85904500D01*
X203968800Y-85904500D02*
X203968800Y-83982200D01*
X203968800Y-83982200D02*
X205000000Y-82951000D01*
X205000000Y-82951000D02*
X205000000Y-78281000D01*
X205000000Y-78281000D02*
X208000000Y-75281000D01*
X208000000Y-75281000D02*
X208000000Y-72500000D01*
X206000000Y-72500000D02*
X206000000Y-76161300D01*
X206000000Y-76161300D02*
X203975000Y-78186300D01*
X203975000Y-78186300D02*
X203975000Y-79000000D01*
X206025000Y-81887200D02*
X206025000Y-79000000D01*
X206025000Y-82083498D02*
X206025000Y-81887200D01*
X208250000Y-84308498D02*
X206025000Y-82083498D01*
X208250000Y-86750000D02*
X208250000Y-84308498D01*
X209500000Y-88000000D02*
X208250000Y-86750000D01*
X211300000Y-88000000D02*
X209500000Y-88000000D01*
X212250000Y-86000000D02*
X213037800Y-86000000D01*
X218750000Y-81525000D02*
X217587900Y-82687100D01*
X217587900Y-82687100D02*
X217587900Y-87553400D01*
X217587900Y-87553400D02*
X217366100Y-87775200D01*
X217366100Y-87775200D02*
X214813000Y-87775200D01*
X214813000Y-87775200D02*
X213037800Y-86000000D01*
X216550000Y-87050000D02*
X216550000Y-86362200D01*
X216550000Y-86362200D02*
X215862200Y-86362200D01*
X215862200Y-86362200D02*
X213749200Y-84249200D01*
X213749200Y-84249200D02*
X212076200Y-84249200D01*
X212076200Y-84249200D02*
X208475000Y-80648000D01*
X208475000Y-80648000D02*
X208475000Y-78750000D01*
X218200000Y-92800000D02*
X217512200Y-92800000D01*
X217512200Y-92800000D02*
X217512200Y-92456100D01*
X217512200Y-92456100D02*
X216818200Y-91762100D01*
X216818200Y-91762100D02*
X213046200Y-91762100D01*
X213046200Y-91762100D02*
X212246200Y-90962100D01*
X212246200Y-90962100D02*
X205812900Y-90962100D01*
X205812900Y-90962100D02*
X205775000Y-91000000D01*
X212275000Y-98250000D02*
X211254800Y-97229800D01*
X211254800Y-97229800D02*
X211254800Y-92783000D01*
X211254800Y-92783000D02*
X211500000Y-92537800D01*
X211500000Y-91750000D02*
X211500000Y-92537800D01*
X212275000Y-95500000D02*
X213500000Y-94275000D01*
X213500000Y-94275000D02*
X213500000Y-92700000D01*
X216550000Y-80561300D02*
X216611300Y-80500000D01*
X216611300Y-80500000D02*
X219449500Y-80500000D01*
X219449500Y-80500000D02*
X226400000Y-73549500D01*
X226400000Y-73549500D02*
X226400000Y-73000000D01*
X216550000Y-80561300D02*
X214838700Y-78850000D01*
X214838700Y-78850000D02*
X214325000Y-78850000D01*
X216550000Y-84462200D02*
X216550000Y-80561300D01*
X229130000Y-73040000D02*
X226440000Y-73040000D01*
X226440000Y-73040000D02*
X226400000Y-73000000D01*
X216550000Y-85150000D02*
X216550000Y-84462200D01*
X205725000Y-99100000D02*
X206542100Y-99917100D01*
X206542100Y-99917100D02*
X216232900Y-99917100D01*
X216232900Y-99917100D02*
X217000000Y-99150000D01*
X225342100Y-99150000D02*
X225342100Y-96161300D01*
X225342100Y-96161300D02*
X223357200Y-94176400D01*
X223357200Y-94176400D02*
X217676400Y-94176400D01*
X217676400Y-94176400D02*
X216300000Y-92800000D01*
X229130000Y-99290000D02*
X225482100Y-99290000D01*
X225482100Y-99290000D02*
X225342100Y-99150000D01*
X225342100Y-99150000D02*
X217000000Y-99150000D01*
X214750000Y-82850000D02*
X214750000Y-81962200D01*
X214750000Y-81962200D02*
X214325000Y-81537200D01*
X214325000Y-81537200D02*
X214325000Y-80850000D01*
X218750000Y-79350000D02*
X217121900Y-77721900D01*
X217121900Y-77721900D02*
X213750800Y-77721900D01*
X213750800Y-77721900D02*
X213327900Y-78144800D01*
X213327900Y-78144800D02*
X213327900Y-79852900D01*
X213327900Y-79852900D02*
X214325000Y-80850000D01*
X218750000Y-79350000D02*
X218750000Y-79475000D01*
X225100000Y-73000000D02*
X218750000Y-79350000D01*
X224050000Y-70500000D02*
X225100000Y-71550000D01*
X225100000Y-71550000D02*
X225100000Y-73000000D01*
X210225000Y-98250000D02*
X208987800Y-98250000D01*
X208987800Y-98250000D02*
X206837800Y-96100000D01*
X217000000Y-97850000D02*
X214443000Y-97850000D01*
X214443000Y-97850000D02*
X212951200Y-99341800D01*
X212951200Y-99341800D02*
X211316800Y-99341800D01*
X211316800Y-99341800D02*
X210225000Y-98250000D01*
X205950000Y-96100000D02*
X206837800Y-96100000D01*
X205775000Y-93500000D02*
X205950000Y-93675000D01*
X205950000Y-93675000D02*
X205950000Y-96100000D01*
X224050000Y-96750000D02*
X218100000Y-96750000D01*
X218100000Y-96750000D02*
X217000000Y-97850000D01*
D25*
G36*
X240615773Y-69165279D02*
G01*
X240727148Y-69198905D01*
X240829859Y-69253518D01*
X240920014Y-69327046D01*
X240994168Y-69416682D01*
X241049497Y-69519011D01*
X241083897Y-69630141D01*
X241098000Y-69764318D01*
X241098001Y-99980333D01*
X241084720Y-100115776D01*
X241051095Y-100227146D01*
X240996482Y-100329860D01*
X240922954Y-100420014D01*
X240833318Y-100494168D01*
X240730989Y-100549497D01*
X240619859Y-100583897D01*
X240485681Y-100598000D01*
X203269657Y-100598000D01*
X203134224Y-100584720D01*
X203022854Y-100551095D01*
X202920140Y-100496482D01*
X202829986Y-100422954D01*
X202755832Y-100333318D01*
X202700503Y-100230989D01*
X202666103Y-100119859D01*
X202652000Y-99985681D01*
X202652000Y-96831154D01*
X202682131Y-96867869D01*
X202739537Y-96914981D01*
X202805030Y-96949988D01*
X202823000Y-96955439D01*
X202823000Y-96957006D01*
X202819967Y-96987800D01*
X202832073Y-97110712D01*
X202863041Y-97212799D01*
X202867926Y-97228903D01*
X202926148Y-97337828D01*
X203004500Y-97433301D01*
X203028423Y-97452934D01*
X203048001Y-97472512D01*
X203048001Y-98101839D01*
X203000644Y-98127152D01*
X202905354Y-98205354D01*
X202827152Y-98300644D01*
X202769042Y-98409359D01*
X202733259Y-98527322D01*
X202721176Y-98649999D01*
X202721176Y-99550001D01*
X202733259Y-99672678D01*
X202769042Y-99790641D01*
X202827152Y-99899356D01*
X202905354Y-99994646D01*
X203000644Y-100072848D01*
X203109359Y-100130958D01*
X203227322Y-100166741D01*
X203349999Y-100178824D01*
X204000001Y-100178824D01*
X204122678Y-100166741D01*
X204240641Y-100130958D01*
X204349356Y-100072848D01*
X204444646Y-99994646D01*
X204522848Y-99899356D01*
X204580958Y-99790641D01*
X204616741Y-99672678D01*
X204628824Y-99550001D01*
X204628824Y-98649999D01*
X204616741Y-98527322D01*
X204580958Y-98409359D01*
X204522848Y-98300644D01*
X204444646Y-98205354D01*
X204349356Y-98127152D01*
X204302000Y-98101839D01*
X204302000Y-97243593D01*
X204305033Y-97212799D01*
X204292927Y-97089887D01*
X204272195Y-97021542D01*
X204257075Y-96971697D01*
X204206545Y-96877162D01*
X204217869Y-96867869D01*
X204264981Y-96810463D01*
X204299988Y-96744970D01*
X204321545Y-96673905D01*
X204328824Y-96600000D01*
X204328824Y-95600000D01*
X204321545Y-95526095D01*
X204299988Y-95455030D01*
X204264981Y-95389537D01*
X204217869Y-95332131D01*
X204160463Y-95285019D01*
X204094970Y-95250012D01*
X204077000Y-95244561D01*
X204077000Y-94576165D01*
X204172678Y-94566741D01*
X204290641Y-94530958D01*
X204399356Y-94472848D01*
X204494646Y-94394646D01*
X204572848Y-94299356D01*
X204630958Y-94190641D01*
X204666741Y-94072678D01*
X204678824Y-93950001D01*
X204678824Y-93049999D01*
X204666741Y-92927322D01*
X204630958Y-92809359D01*
X204572848Y-92700644D01*
X204494646Y-92605354D01*
X204399356Y-92527152D01*
X204352000Y-92501839D01*
X204352000Y-92045211D01*
X204410007Y-92115893D01*
X204431549Y-92133572D01*
X204866430Y-92568454D01*
X204884107Y-92589993D01*
X204905643Y-92607667D01*
X204905645Y-92607669D01*
X204964091Y-92655634D01*
X204927152Y-92700644D01*
X204869042Y-92809359D01*
X204833259Y-92927322D01*
X204821176Y-93049999D01*
X204821176Y-93950001D01*
X204833259Y-94072678D01*
X204869042Y-94190641D01*
X204927152Y-94299356D01*
X205005354Y-94394646D01*
X205100644Y-94472848D01*
X205209359Y-94530958D01*
X205327322Y-94566741D01*
X205385500Y-94572471D01*
X205385501Y-95227529D01*
X205376095Y-95228455D01*
X205305030Y-95250012D01*
X205239537Y-95285019D01*
X205182131Y-95332131D01*
X205135019Y-95389537D01*
X205100012Y-95455030D01*
X205078455Y-95526095D01*
X205071176Y-95600000D01*
X205071176Y-96600000D01*
X205078455Y-96673905D01*
X205100012Y-96744970D01*
X205135019Y-96810463D01*
X205182131Y-96867869D01*
X205239537Y-96914981D01*
X205305030Y-96949988D01*
X205376095Y-96971545D01*
X205450000Y-96978824D01*
X206450000Y-96978824D01*
X206523905Y-96971545D01*
X206594970Y-96949988D01*
X206660463Y-96914981D01*
X206717869Y-96867869D01*
X206758201Y-96818724D01*
X208569030Y-98629554D01*
X208586707Y-98651093D01*
X208608243Y-98668767D01*
X208608245Y-98668769D01*
X208672662Y-98721635D01*
X208695175Y-98733668D01*
X208770730Y-98774053D01*
X208877139Y-98806332D01*
X208960071Y-98814500D01*
X208960073Y-98814500D01*
X208987799Y-98817231D01*
X209015525Y-98814500D01*
X209282454Y-98814500D01*
X209283259Y-98822678D01*
X209319042Y-98940641D01*
X209377152Y-99049356D01*
X209455354Y-99144646D01*
X209550644Y-99222848D01*
X209659359Y-99280958D01*
X209777322Y-99316741D01*
X209899999Y-99328824D01*
X210505501Y-99328824D01*
X210529277Y-99352600D01*
X206775924Y-99352600D01*
X206678824Y-99255500D01*
X206678824Y-98649999D01*
X206666741Y-98527322D01*
X206630958Y-98409359D01*
X206572848Y-98300644D01*
X206494646Y-98205354D01*
X206399356Y-98127152D01*
X206290641Y-98069042D01*
X206172678Y-98033259D01*
X206050001Y-98021176D01*
X205399999Y-98021176D01*
X205277322Y-98033259D01*
X205159359Y-98069042D01*
X205050644Y-98127152D01*
X204955354Y-98205354D01*
X204877152Y-98300644D01*
X204819042Y-98409359D01*
X204783259Y-98527322D01*
X204771176Y-98649999D01*
X204771176Y-99550001D01*
X204783259Y-99672678D01*
X204819042Y-99790641D01*
X204877152Y-99899356D01*
X204955354Y-99994646D01*
X205050644Y-100072848D01*
X205159359Y-100130958D01*
X205277322Y-100166741D01*
X205399999Y-100178824D01*
X206005500Y-100178824D01*
X206123332Y-100296656D01*
X206141007Y-100318193D01*
X206162543Y-100335867D01*
X206162545Y-100335869D01*
X206201689Y-100367993D01*
X206226963Y-100388735D01*
X206325030Y-100441153D01*
X206431439Y-100473432D01*
X206514371Y-100481600D01*
X206514374Y-100481600D01*
X206542100Y-100484331D01*
X206569826Y-100481600D01*
X216205174Y-100481600D01*
X216232900Y-100484331D01*
X216260626Y-100481600D01*
X216260629Y-100481600D01*
X216343561Y-100473432D01*
X216449970Y-100441153D01*
X216548037Y-100388735D01*
X216633993Y-100318193D01*
X216651672Y-100296651D01*
X216919499Y-100028824D01*
X217250000Y-100028824D01*
X217274449Y-100026416D01*
X217299009Y-100026416D01*
X217372914Y-100019137D01*
X217469047Y-100000015D01*
X217540110Y-99978458D01*
X217630666Y-99940949D01*
X217696162Y-99905941D01*
X217777661Y-99851485D01*
X217835066Y-99804374D01*
X217904374Y-99735066D01*
X217921252Y-99714500D01*
X225109529Y-99714500D01*
X225166963Y-99761635D01*
X225265030Y-99814053D01*
X225371439Y-99846332D01*
X225454371Y-99854500D01*
X225454374Y-99854500D01*
X225482100Y-99857231D01*
X225509826Y-99854500D01*
X227981609Y-99854500D01*
X227998337Y-99894886D01*
X228138089Y-100104040D01*
X228315960Y-100281911D01*
X228525114Y-100421663D01*
X228757513Y-100517926D01*
X229004226Y-100567000D01*
X229255774Y-100567000D01*
X229502487Y-100517926D01*
X229734886Y-100421663D01*
X229944040Y-100281911D01*
X230121911Y-100104040D01*
X230261663Y-99894886D01*
X230357926Y-99662487D01*
X230407000Y-99415774D01*
X230407000Y-99164226D01*
X230357926Y-98917513D01*
X230261663Y-98685114D01*
X230121911Y-98475960D01*
X229944040Y-98298089D01*
X229734886Y-98158337D01*
X229502487Y-98062074D01*
X229255774Y-98013000D01*
X229004226Y-98013000D01*
X228757513Y-98062074D01*
X228525114Y-98158337D01*
X228315960Y-98298089D01*
X228138089Y-98475960D01*
X227998337Y-98685114D01*
X227981609Y-98725500D01*
X225906600Y-98725500D01*
X225906600Y-96189018D01*
X225909330Y-96161299D01*
X225906600Y-96133580D01*
X225906600Y-96133571D01*
X225898432Y-96050639D01*
X225866153Y-95944230D01*
X225813735Y-95846163D01*
X225743193Y-95760207D01*
X225721651Y-95742528D01*
X223775972Y-93796849D01*
X223758293Y-93775307D01*
X223672337Y-93704765D01*
X223574270Y-93652347D01*
X223467861Y-93620068D01*
X223384929Y-93611900D01*
X223384926Y-93611900D01*
X223357200Y-93609169D01*
X223329474Y-93611900D01*
X218840939Y-93611900D01*
X218849988Y-93594970D01*
X218871545Y-93523905D01*
X218878824Y-93450000D01*
X218878824Y-92150000D01*
X218871545Y-92076095D01*
X218849988Y-92005030D01*
X218814981Y-91939537D01*
X218767869Y-91882131D01*
X218710463Y-91835019D01*
X218644970Y-91800012D01*
X218573905Y-91778455D01*
X218500000Y-91771176D01*
X217900000Y-91771176D01*
X217826095Y-91778455D01*
X217755030Y-91800012D01*
X217689537Y-91835019D01*
X217689485Y-91835062D01*
X217580266Y-91725843D01*
X217623905Y-91721545D01*
X217694970Y-91699988D01*
X217760463Y-91664981D01*
X217817869Y-91617869D01*
X217851409Y-91577000D01*
X217894721Y-91577000D01*
X217937800Y-91581243D01*
X217980879Y-91577000D01*
X218109722Y-91564310D01*
X218275037Y-91514162D01*
X218427392Y-91432727D01*
X218560933Y-91323133D01*
X218588397Y-91289668D01*
X219072783Y-90805282D01*
X222023000Y-90805282D01*
X222023000Y-91194718D01*
X222098975Y-91576670D01*
X222248005Y-91936461D01*
X222464364Y-92260264D01*
X222739736Y-92535636D01*
X223063539Y-92751995D01*
X223423330Y-92901025D01*
X223805282Y-92977000D01*
X224194718Y-92977000D01*
X224576670Y-92901025D01*
X224936461Y-92751995D01*
X225260264Y-92535636D01*
X225535636Y-92260264D01*
X225751995Y-91936461D01*
X225901025Y-91576670D01*
X225977000Y-91194718D01*
X225977000Y-90805282D01*
X234023000Y-90805282D01*
X234023000Y-91194718D01*
X234098975Y-91576670D01*
X234248005Y-91936461D01*
X234464364Y-92260264D01*
X234739736Y-92535636D01*
X235063539Y-92751995D01*
X235423330Y-92901025D01*
X235805282Y-92977000D01*
X236194718Y-92977000D01*
X236576670Y-92901025D01*
X236936461Y-92751995D01*
X237260264Y-92535636D01*
X237535636Y-92260264D01*
X237751995Y-91936461D01*
X237901025Y-91576670D01*
X237977000Y-91194718D01*
X237977000Y-90805282D01*
X237901025Y-90423330D01*
X237751995Y-90063539D01*
X237535636Y-89739736D01*
X237260264Y-89464364D01*
X236936461Y-89248005D01*
X236576670Y-89098975D01*
X236194718Y-89023000D01*
X235805282Y-89023000D01*
X235423330Y-89098975D01*
X235063539Y-89248005D01*
X234739736Y-89464364D01*
X234464364Y-89739736D01*
X234248005Y-90063539D01*
X234098975Y-90423330D01*
X234023000Y-90805282D01*
X225977000Y-90805282D01*
X225901025Y-90423330D01*
X225751995Y-90063539D01*
X225535636Y-89739736D01*
X225260264Y-89464364D01*
X224936461Y-89248005D01*
X224576670Y-89098975D01*
X224194718Y-89023000D01*
X223805282Y-89023000D01*
X223423330Y-89098975D01*
X223063539Y-89248005D01*
X222739736Y-89464364D01*
X222464364Y-89739736D01*
X222248005Y-90063539D01*
X222098975Y-90423330D01*
X222023000Y-90805282D01*
X219072783Y-90805282D01*
X222761065Y-87117000D01*
X230043079Y-87117000D01*
X230171922Y-87104310D01*
X230337237Y-87054162D01*
X230489592Y-86972727D01*
X230623133Y-86863133D01*
X230732727Y-86729592D01*
X230814162Y-86577237D01*
X230864310Y-86411922D01*
X230881243Y-86240000D01*
X230864310Y-86068078D01*
X230814162Y-85902763D01*
X230761619Y-85804462D01*
X230858865Y-85712020D01*
X230987123Y-85530206D01*
X231077446Y-85326864D01*
X231094119Y-85271874D01*
X230967954Y-85097000D01*
X230127000Y-85097000D01*
X230127000Y-85117000D01*
X229873000Y-85117000D01*
X229873000Y-85097000D01*
X229032046Y-85097000D01*
X228905881Y-85271874D01*
X228922554Y-85326864D01*
X228938605Y-85363000D01*
X222440869Y-85363000D01*
X222397799Y-85358758D01*
X222354730Y-85363000D01*
X222354721Y-85363000D01*
X222225878Y-85375690D01*
X222060563Y-85425838D01*
X221908208Y-85507273D01*
X221774667Y-85616867D01*
X221747203Y-85650332D01*
X217696634Y-89700901D01*
X217694970Y-89700012D01*
X217623905Y-89678455D01*
X217550000Y-89671176D01*
X216950000Y-89671176D01*
X216876095Y-89678455D01*
X216805030Y-89700012D01*
X216739537Y-89735019D01*
X216682131Y-89782131D01*
X216635019Y-89839537D01*
X216600012Y-89905030D01*
X216578455Y-89976095D01*
X216571176Y-90050000D01*
X216571176Y-90144727D01*
X216517273Y-90210408D01*
X216435838Y-90362763D01*
X216385690Y-90528078D01*
X216368757Y-90700000D01*
X216385690Y-90871922D01*
X216435838Y-91037237D01*
X216517273Y-91189592D01*
X216523845Y-91197600D01*
X214588007Y-91197600D01*
X214585000Y-91085750D01*
X214426250Y-90927000D01*
X213627000Y-90927000D01*
X213627000Y-90947000D01*
X213373000Y-90947000D01*
X213373000Y-90927000D01*
X213353000Y-90927000D01*
X213353000Y-90673000D01*
X213373000Y-90673000D01*
X213373000Y-89923750D01*
X213627000Y-89923750D01*
X213627000Y-90673000D01*
X214426250Y-90673000D01*
X214585000Y-90514250D01*
X214588072Y-90400000D01*
X214575812Y-90275518D01*
X214539502Y-90155820D01*
X214480537Y-90045506D01*
X214401185Y-89948815D01*
X214304494Y-89869463D01*
X214194180Y-89810498D01*
X214074482Y-89774188D01*
X213950000Y-89761928D01*
X213785750Y-89765000D01*
X213627000Y-89923750D01*
X213373000Y-89923750D01*
X213214250Y-89765000D01*
X213050000Y-89761928D01*
X212925518Y-89774188D01*
X212805820Y-89810498D01*
X212695506Y-89869463D01*
X212598815Y-89948815D01*
X212519463Y-90045506D01*
X212460498Y-90155820D01*
X212424188Y-90275518D01*
X212411928Y-90400000D01*
X212412537Y-90422657D01*
X212356861Y-90405768D01*
X212273929Y-90397600D01*
X212273926Y-90397600D01*
X212246200Y-90394869D01*
X212218474Y-90397600D01*
X206707725Y-90397600D01*
X206680958Y-90309359D01*
X206622848Y-90200644D01*
X206544646Y-90105354D01*
X206449356Y-90027152D01*
X206340641Y-89969042D01*
X206222678Y-89933259D01*
X206100001Y-89921176D01*
X205449999Y-89921176D01*
X205375600Y-89928504D01*
X205375600Y-86881255D01*
X205423330Y-86901025D01*
X205805282Y-86977000D01*
X206194718Y-86977000D01*
X206576670Y-86901025D01*
X206936461Y-86751995D01*
X207260264Y-86535636D01*
X207535636Y-86260264D01*
X207685500Y-86035977D01*
X207685500Y-86722274D01*
X207682769Y-86750000D01*
X207685500Y-86777726D01*
X207685500Y-86777728D01*
X207693668Y-86860660D01*
X207725947Y-86967069D01*
X207778365Y-87065137D01*
X207848907Y-87151093D01*
X207870449Y-87168772D01*
X209081232Y-88379556D01*
X209098907Y-88401093D01*
X209120443Y-88418767D01*
X209120445Y-88418769D01*
X209184863Y-88471635D01*
X209282930Y-88524053D01*
X209389339Y-88556332D01*
X209472271Y-88564500D01*
X209472274Y-88564500D01*
X209500000Y-88567231D01*
X209527726Y-88564500D01*
X210540769Y-88564500D01*
X210550012Y-88594970D01*
X210585019Y-88660463D01*
X210632131Y-88717869D01*
X210689537Y-88764981D01*
X210755030Y-88799988D01*
X210826095Y-88821545D01*
X210900000Y-88828824D01*
X211700000Y-88828824D01*
X211773905Y-88821545D01*
X211844970Y-88799988D01*
X211910463Y-88764981D01*
X211967869Y-88717869D01*
X212014981Y-88660463D01*
X212049988Y-88594970D01*
X212071545Y-88523905D01*
X212078824Y-88450000D01*
X212161928Y-88450000D01*
X212174188Y-88574482D01*
X212210498Y-88694180D01*
X212269463Y-88804494D01*
X212348815Y-88901185D01*
X212445506Y-88980537D01*
X212555820Y-89039502D01*
X212675518Y-89075812D01*
X212800000Y-89088072D01*
X212914250Y-89085000D01*
X213073000Y-88926250D01*
X213073000Y-88127000D01*
X213327000Y-88127000D01*
X213327000Y-88926250D01*
X213485750Y-89085000D01*
X213600000Y-89088072D01*
X213724482Y-89075812D01*
X213844180Y-89039502D01*
X213954494Y-88980537D01*
X214051185Y-88901185D01*
X214130537Y-88804494D01*
X214189502Y-88694180D01*
X214225812Y-88574482D01*
X214238072Y-88450000D01*
X214235000Y-88285750D01*
X214076250Y-88127000D01*
X213327000Y-88127000D01*
X213073000Y-88127000D01*
X212323750Y-88127000D01*
X212165000Y-88285750D01*
X212161928Y-88450000D01*
X212078824Y-88450000D01*
X212078824Y-87550000D01*
X212071545Y-87476095D01*
X212049988Y-87405030D01*
X212014981Y-87339537D01*
X211967869Y-87282131D01*
X211910463Y-87235019D01*
X211844970Y-87200012D01*
X211773905Y-87178455D01*
X211700000Y-87171176D01*
X210900000Y-87171176D01*
X210826095Y-87178455D01*
X210755030Y-87200012D01*
X210689537Y-87235019D01*
X210632131Y-87282131D01*
X210585019Y-87339537D01*
X210550012Y-87405030D01*
X210540769Y-87435500D01*
X209733824Y-87435500D01*
X208814500Y-86516177D01*
X208814500Y-84336223D01*
X208817231Y-84308497D01*
X208813824Y-84273905D01*
X208806332Y-84197837D01*
X208774053Y-84091428D01*
X208739893Y-84027520D01*
X208721635Y-83993360D01*
X208668769Y-83928943D01*
X208668767Y-83928941D01*
X208651093Y-83907405D01*
X208629557Y-83889731D01*
X206589500Y-81849675D01*
X206589500Y-80031304D01*
X206590641Y-80030958D01*
X206699356Y-79972848D01*
X206794646Y-79894646D01*
X206872848Y-79799356D01*
X206930958Y-79690641D01*
X206966741Y-79572678D01*
X206978824Y-79450001D01*
X206978824Y-78549999D01*
X206966741Y-78427322D01*
X206930958Y-78309359D01*
X206872848Y-78200644D01*
X206794646Y-78105354D01*
X206699356Y-78027152D01*
X206590641Y-77969042D01*
X206472678Y-77933259D01*
X206350001Y-77921176D01*
X206158147Y-77921176D01*
X208379557Y-75699767D01*
X208401093Y-75682093D01*
X208471635Y-75596137D01*
X208477640Y-75584902D01*
X208490641Y-75580958D01*
X208599356Y-75522848D01*
X208694646Y-75444646D01*
X208772848Y-75349356D01*
X208830958Y-75240641D01*
X208862068Y-75138084D01*
X208861928Y-75250000D01*
X208874188Y-75374482D01*
X208910498Y-75494180D01*
X208969463Y-75604494D01*
X209048815Y-75701185D01*
X209145506Y-75780537D01*
X209255820Y-75839502D01*
X209375518Y-75875812D01*
X209500000Y-75888072D01*
X209714250Y-75885000D01*
X209873000Y-75726250D01*
X209873000Y-72627000D01*
X209853000Y-72627000D01*
X209853000Y-72373000D01*
X209873000Y-72373000D01*
X209873000Y-72353000D01*
X210127000Y-72353000D01*
X210127000Y-72373000D01*
X210147000Y-72373000D01*
X210147000Y-72627000D01*
X210127000Y-72627000D01*
X210127000Y-75726250D01*
X210285750Y-75885000D01*
X210500000Y-75888072D01*
X210624482Y-75875812D01*
X210744180Y-75839502D01*
X210854494Y-75780537D01*
X210951185Y-75701185D01*
X211030537Y-75604494D01*
X211089502Y-75494180D01*
X211125812Y-75374482D01*
X211138072Y-75250000D01*
X211137932Y-75138084D01*
X211169042Y-75240641D01*
X211227152Y-75349356D01*
X211305354Y-75444646D01*
X211373001Y-75500162D01*
X211373000Y-77950929D01*
X211372848Y-77950644D01*
X211294646Y-77855354D01*
X211199356Y-77777152D01*
X211090641Y-77719042D01*
X210972678Y-77683259D01*
X210850001Y-77671176D01*
X210199999Y-77671176D01*
X210077322Y-77683259D01*
X209959359Y-77719042D01*
X209850644Y-77777152D01*
X209755354Y-77855354D01*
X209677152Y-77950644D01*
X209619042Y-78059359D01*
X209583259Y-78177322D01*
X209571176Y-78299999D01*
X209571176Y-79200001D01*
X209583259Y-79322678D01*
X209619042Y-79440641D01*
X209677152Y-79549356D01*
X209755354Y-79644646D01*
X209850644Y-79722848D01*
X209959359Y-79780958D01*
X210077322Y-79816741D01*
X210199999Y-79828824D01*
X210850001Y-79828824D01*
X210972678Y-79816741D01*
X211090641Y-79780958D01*
X211199356Y-79722848D01*
X211294646Y-79644646D01*
X211372848Y-79549356D01*
X211373274Y-79548559D01*
X211427152Y-79649356D01*
X211505354Y-79744646D01*
X211600644Y-79822848D01*
X211648001Y-79848161D01*
X211648000Y-79851839D01*
X211600644Y-79877152D01*
X211505354Y-79955354D01*
X211427152Y-80050644D01*
X211369042Y-80159359D01*
X211333259Y-80277322D01*
X211321176Y-80399999D01*
X211321176Y-81300001D01*
X211333259Y-81422678D01*
X211369042Y-81540641D01*
X211427152Y-81649356D01*
X211505354Y-81744646D01*
X211600644Y-81822848D01*
X211623000Y-81834798D01*
X211623001Y-81994561D01*
X211605030Y-82000012D01*
X211539537Y-82035019D01*
X211482131Y-82082131D01*
X211435019Y-82139537D01*
X211400012Y-82205030D01*
X211378455Y-82276095D01*
X211371176Y-82350000D01*
X211371176Y-82745852D01*
X209039500Y-80414177D01*
X209039500Y-79781304D01*
X209040641Y-79780958D01*
X209149356Y-79722848D01*
X209244646Y-79644646D01*
X209322848Y-79549356D01*
X209380958Y-79440641D01*
X209416741Y-79322678D01*
X209428824Y-79200001D01*
X209428824Y-78299999D01*
X209416741Y-78177322D01*
X209380958Y-78059359D01*
X209322848Y-77950644D01*
X209244646Y-77855354D01*
X209149356Y-77777152D01*
X209040641Y-77719042D01*
X208922678Y-77683259D01*
X208800001Y-77671176D01*
X208149999Y-77671176D01*
X208027322Y-77683259D01*
X207909359Y-77719042D01*
X207800644Y-77777152D01*
X207705354Y-77855354D01*
X207627152Y-77950644D01*
X207569042Y-78059359D01*
X207533259Y-78177322D01*
X207521176Y-78299999D01*
X207521176Y-79200001D01*
X207533259Y-79322678D01*
X207569042Y-79440641D01*
X207627152Y-79549356D01*
X207705354Y-79644646D01*
X207800644Y-79722848D01*
X207909359Y-79780958D01*
X207910500Y-79781304D01*
X207910500Y-80620274D01*
X207907769Y-80648000D01*
X207910500Y-80675726D01*
X207910500Y-80675728D01*
X207918668Y-80758660D01*
X207950947Y-80865069D01*
X208003365Y-80963137D01*
X208073907Y-81049093D01*
X208095449Y-81066772D01*
X211657430Y-84628754D01*
X211675107Y-84650293D01*
X211696643Y-84667967D01*
X211696645Y-84667969D01*
X211710663Y-84679473D01*
X211761063Y-84720835D01*
X211859130Y-84773253D01*
X211965539Y-84805532D01*
X212048471Y-84813700D01*
X212048474Y-84813700D01*
X212076200Y-84816431D01*
X212103926Y-84813700D01*
X213515377Y-84813700D01*
X215443428Y-86741751D01*
X215461107Y-86763293D01*
X215505820Y-86799988D01*
X215521176Y-86812590D01*
X215521176Y-87210700D01*
X215046824Y-87210700D01*
X213456572Y-85620449D01*
X213438893Y-85598907D01*
X213352937Y-85528365D01*
X213254870Y-85475947D01*
X213148461Y-85443668D01*
X213065529Y-85435500D01*
X213065526Y-85435500D01*
X213037800Y-85432769D01*
X213010074Y-85435500D01*
X213009231Y-85435500D01*
X212999988Y-85405030D01*
X212964981Y-85339537D01*
X212917869Y-85282131D01*
X212860463Y-85235019D01*
X212794970Y-85200012D01*
X212723905Y-85178455D01*
X212650000Y-85171176D01*
X211850000Y-85171176D01*
X211776095Y-85178455D01*
X211705030Y-85200012D01*
X211639537Y-85235019D01*
X211582131Y-85282131D01*
X211535019Y-85339537D01*
X211500012Y-85405030D01*
X211478455Y-85476095D01*
X211471176Y-85550000D01*
X211471176Y-86450000D01*
X211478455Y-86523905D01*
X211500012Y-86594970D01*
X211535019Y-86660463D01*
X211582131Y-86717869D01*
X211639537Y-86764981D01*
X211705030Y-86799988D01*
X211776095Y-86821545D01*
X211850000Y-86828824D01*
X212650000Y-86828824D01*
X212723905Y-86821545D01*
X212794970Y-86799988D01*
X212860463Y-86764981D01*
X212917869Y-86717869D01*
X212935663Y-86696187D01*
X213154477Y-86915000D01*
X213072998Y-86915000D01*
X213072998Y-87073748D01*
X212914250Y-86915000D01*
X212800000Y-86911928D01*
X212675518Y-86924188D01*
X212555820Y-86960498D01*
X212445506Y-87019463D01*
X212348815Y-87098815D01*
X212269463Y-87195506D01*
X212210498Y-87305820D01*
X212174188Y-87425518D01*
X212161928Y-87550000D01*
X212165000Y-87714250D01*
X212323750Y-87873000D01*
X213073000Y-87873000D01*
X213073000Y-87853000D01*
X213327000Y-87853000D01*
X213327000Y-87873000D01*
X214076250Y-87873000D01*
X214094363Y-87854887D01*
X214394233Y-88154756D01*
X214411907Y-88176293D01*
X214497863Y-88246835D01*
X214595930Y-88299253D01*
X214702339Y-88331532D01*
X214785271Y-88339700D01*
X214785274Y-88339700D01*
X214813000Y-88342431D01*
X214840726Y-88339700D01*
X217338374Y-88339700D01*
X217366100Y-88342431D01*
X217393826Y-88339700D01*
X217393829Y-88339700D01*
X217476761Y-88331532D01*
X217583170Y-88299253D01*
X217681237Y-88246835D01*
X217767193Y-88176293D01*
X217784872Y-88154751D01*
X217967451Y-87972172D01*
X217988993Y-87954493D01*
X218059535Y-87868537D01*
X218111953Y-87770470D01*
X218144232Y-87664061D01*
X218152400Y-87581129D01*
X218155131Y-87553400D01*
X218152400Y-87525671D01*
X218152400Y-86826155D01*
X218160408Y-86832727D01*
X218312763Y-86914162D01*
X218478078Y-86964310D01*
X218650000Y-86981243D01*
X218821921Y-86964310D01*
X218987236Y-86914162D01*
X219139591Y-86832727D01*
X219205273Y-86778824D01*
X219300000Y-86778824D01*
X219373905Y-86771545D01*
X219444970Y-86749988D01*
X219510463Y-86714981D01*
X219567869Y-86667869D01*
X219614981Y-86610463D01*
X219649988Y-86544970D01*
X219671545Y-86473905D01*
X219678824Y-86400000D01*
X219678824Y-85800000D01*
X219671545Y-85726095D01*
X219649988Y-85655030D01*
X219649099Y-85653366D01*
X220725465Y-84577000D01*
X228938605Y-84577000D01*
X228922554Y-84613136D01*
X228905881Y-84668126D01*
X229032046Y-84843000D01*
X229873000Y-84843000D01*
X229873000Y-84823000D01*
X230127000Y-84823000D01*
X230127000Y-84843000D01*
X230967954Y-84843000D01*
X231094119Y-84668126D01*
X231077446Y-84613136D01*
X230987123Y-84409794D01*
X230873961Y-84249379D01*
X230878824Y-84200000D01*
X230878824Y-83724560D01*
X230881243Y-83700000D01*
X230878824Y-83675440D01*
X230878824Y-83200000D01*
X230871545Y-83126095D01*
X230849988Y-83055030D01*
X230814981Y-82989537D01*
X230767869Y-82932131D01*
X230710463Y-82885019D01*
X230644970Y-82850012D01*
X230573905Y-82828455D01*
X230500000Y-82821176D01*
X229500000Y-82821176D01*
X229481481Y-82823000D01*
X220405269Y-82823000D01*
X220362199Y-82818758D01*
X220319130Y-82823000D01*
X220319121Y-82823000D01*
X220190278Y-82835690D01*
X220024963Y-82885838D01*
X219872608Y-82967273D01*
X219739067Y-83076867D01*
X219711603Y-83110332D01*
X218152400Y-84669535D01*
X218152400Y-82920923D01*
X218594500Y-82478824D01*
X219200001Y-82478824D01*
X219322678Y-82466741D01*
X219440641Y-82430958D01*
X219549356Y-82372848D01*
X219644646Y-82294646D01*
X219722848Y-82199356D01*
X219780958Y-82090641D01*
X219816741Y-81972678D01*
X219828824Y-81850001D01*
X219828824Y-81199999D01*
X219816741Y-81077322D01*
X219780958Y-80959359D01*
X219780543Y-80958582D01*
X219850593Y-80901093D01*
X219868272Y-80879551D01*
X222042978Y-78704845D01*
X222023000Y-78805282D01*
X222023000Y-79194718D01*
X222098975Y-79576670D01*
X222248005Y-79936461D01*
X222464364Y-80260264D01*
X222739736Y-80535636D01*
X223063539Y-80751995D01*
X223423330Y-80901025D01*
X223805282Y-80977000D01*
X224194718Y-80977000D01*
X224576670Y-80901025D01*
X224936461Y-80751995D01*
X225260264Y-80535636D01*
X225535636Y-80260264D01*
X225751995Y-79936461D01*
X225901025Y-79576670D01*
X225977000Y-79194718D01*
X225977000Y-78805282D01*
X234023000Y-78805282D01*
X234023000Y-79194718D01*
X234098975Y-79576670D01*
X234248005Y-79936461D01*
X234464364Y-80260264D01*
X234739736Y-80535636D01*
X235063539Y-80751995D01*
X235423330Y-80901025D01*
X235805282Y-80977000D01*
X236194718Y-80977000D01*
X236576670Y-80901025D01*
X236936461Y-80751995D01*
X237260264Y-80535636D01*
X237535636Y-80260264D01*
X237751995Y-79936461D01*
X237901025Y-79576670D01*
X237977000Y-79194718D01*
X237977000Y-78805282D01*
X237901025Y-78423330D01*
X237751995Y-78063539D01*
X237535636Y-77739736D01*
X237260264Y-77464364D01*
X236936461Y-77248005D01*
X236576670Y-77098975D01*
X236194718Y-77023000D01*
X235805282Y-77023000D01*
X235423330Y-77098975D01*
X235063539Y-77248005D01*
X234739736Y-77464364D01*
X234464364Y-77739736D01*
X234248005Y-78063539D01*
X234098975Y-78423330D01*
X234023000Y-78805282D01*
X225977000Y-78805282D01*
X225901025Y-78423330D01*
X225751995Y-78063539D01*
X225535636Y-77739736D01*
X225260264Y-77464364D01*
X224936461Y-77248005D01*
X224576670Y-77098975D01*
X224194718Y-77023000D01*
X223805282Y-77023000D01*
X223704845Y-77042978D01*
X226660332Y-74087491D01*
X226690110Y-74078458D01*
X226780666Y-74040949D01*
X226846162Y-74005941D01*
X226927661Y-73951485D01*
X226985066Y-73904374D01*
X227054374Y-73835066D01*
X227101485Y-73777661D01*
X227155941Y-73696162D01*
X227190949Y-73630666D01*
X227201787Y-73604500D01*
X227981609Y-73604500D01*
X227998337Y-73644886D01*
X228138089Y-73854040D01*
X228315960Y-74031911D01*
X228525114Y-74171663D01*
X228757513Y-74267926D01*
X229004226Y-74317000D01*
X229255774Y-74317000D01*
X229502487Y-74267926D01*
X229734886Y-74171663D01*
X229944040Y-74031911D01*
X230121911Y-73854040D01*
X230261663Y-73644886D01*
X230357926Y-73412487D01*
X230407000Y-73165774D01*
X230407000Y-72914226D01*
X230357926Y-72667513D01*
X230261663Y-72435114D01*
X230121911Y-72225960D01*
X229944040Y-72048089D01*
X229734886Y-71908337D01*
X229502487Y-71812074D01*
X229255774Y-71763000D01*
X229004226Y-71763000D01*
X228757513Y-71812074D01*
X228525114Y-71908337D01*
X228315960Y-72048089D01*
X228138089Y-72225960D01*
X227998337Y-72435114D01*
X227981609Y-72475500D01*
X227233193Y-72475500D01*
X227228458Y-72459890D01*
X227190949Y-72369334D01*
X227155941Y-72303838D01*
X227101485Y-72222339D01*
X227054374Y-72164934D01*
X226985066Y-72095626D01*
X226927661Y-72048515D01*
X226846162Y-71994059D01*
X226780666Y-71959051D01*
X226690110Y-71921542D01*
X226619047Y-71899985D01*
X226522914Y-71880863D01*
X226449009Y-71873584D01*
X226424449Y-71873584D01*
X226400000Y-71871176D01*
X225900000Y-71871176D01*
X225826095Y-71878455D01*
X225755030Y-71900012D01*
X225750000Y-71902701D01*
X225744970Y-71900012D01*
X225673905Y-71878455D01*
X225664500Y-71877529D01*
X225664500Y-71577718D01*
X225667230Y-71549999D01*
X225664500Y-71522281D01*
X225664500Y-71522271D01*
X225656332Y-71439339D01*
X225624053Y-71332930D01*
X225589893Y-71269022D01*
X225571635Y-71234862D01*
X225543348Y-71200395D01*
X225501093Y-71148907D01*
X225479551Y-71131228D01*
X225261197Y-70912874D01*
X225277926Y-70872487D01*
X225327000Y-70625774D01*
X225327000Y-70374226D01*
X225277926Y-70127513D01*
X225181663Y-69895114D01*
X225143367Y-69837800D01*
X235201089Y-69837800D01*
X235516886Y-70153597D01*
X235473000Y-70374226D01*
X235473000Y-70625774D01*
X235522074Y-70872487D01*
X235618337Y-71104886D01*
X235758089Y-71314040D01*
X235935960Y-71491911D01*
X236145114Y-71631663D01*
X236377513Y-71727926D01*
X236624226Y-71777000D01*
X236875774Y-71777000D01*
X237096403Y-71733114D01*
X239773000Y-74409711D01*
X239773001Y-92840288D01*
X237096403Y-95516886D01*
X236875774Y-95473000D01*
X236624226Y-95473000D01*
X236377513Y-95522074D01*
X236145114Y-95618337D01*
X235935960Y-95758089D01*
X235758089Y-95935960D01*
X235618337Y-96145114D01*
X235522074Y-96377513D01*
X235473000Y-96624226D01*
X235473000Y-96875774D01*
X235522074Y-97122487D01*
X235618337Y-97354886D01*
X235758089Y-97564040D01*
X235935960Y-97741911D01*
X236145114Y-97881663D01*
X236377513Y-97977926D01*
X236624226Y-98027000D01*
X236875774Y-98027000D01*
X237122487Y-97977926D01*
X237354886Y-97881663D01*
X237564040Y-97741911D01*
X237741911Y-97564040D01*
X237881663Y-97354886D01*
X237977926Y-97122487D01*
X238027000Y-96875774D01*
X238027000Y-96624226D01*
X237983114Y-96403597D01*
X240821573Y-93565138D01*
X240845501Y-93545501D01*
X240923853Y-93450028D01*
X240956292Y-93389340D01*
X240982075Y-93341104D01*
X241017927Y-93222913D01*
X241030033Y-93100000D01*
X241027000Y-93069206D01*
X241027000Y-74180794D01*
X241030033Y-74150000D01*
X241017927Y-74027087D01*
X240982075Y-73908896D01*
X240923853Y-73799972D01*
X240905543Y-73777661D01*
X240845501Y-73704499D01*
X240821574Y-73684863D01*
X237983114Y-70846403D01*
X238027000Y-70625774D01*
X238027000Y-70374226D01*
X237977926Y-70127513D01*
X237881663Y-69895114D01*
X237741911Y-69685960D01*
X237564040Y-69508089D01*
X237354886Y-69368337D01*
X237122487Y-69272074D01*
X236875774Y-69223000D01*
X236624226Y-69223000D01*
X236403597Y-69266886D01*
X236288711Y-69152000D01*
X240480342Y-69152000D01*
X240615773Y-69165279D01*
X240615773Y-69165279D01*
G37*
X240615773Y-69165279D02*
X240727148Y-69198905D01*
X240829859Y-69253518D01*
X240920014Y-69327046D01*
X240994168Y-69416682D01*
X241049497Y-69519011D01*
X241083897Y-69630141D01*
X241098000Y-69764318D01*
X241098001Y-99980333D01*
X241084720Y-100115776D01*
X241051095Y-100227146D01*
X240996482Y-100329860D01*
X240922954Y-100420014D01*
X240833318Y-100494168D01*
X240730989Y-100549497D01*
X240619859Y-100583897D01*
X240485681Y-100598000D01*
X203269657Y-100598000D01*
X203134224Y-100584720D01*
X203022854Y-100551095D01*
X202920140Y-100496482D01*
X202829986Y-100422954D01*
X202755832Y-100333318D01*
X202700503Y-100230989D01*
X202666103Y-100119859D01*
X202652000Y-99985681D01*
X202652000Y-96831154D01*
X202682131Y-96867869D01*
X202739537Y-96914981D01*
X202805030Y-96949988D01*
X202823000Y-96955439D01*
X202823000Y-96957006D01*
X202819967Y-96987800D01*
X202832073Y-97110712D01*
X202863041Y-97212799D01*
X202867926Y-97228903D01*
X202926148Y-97337828D01*
X203004500Y-97433301D01*
X203028423Y-97452934D01*
X203048001Y-97472512D01*
X203048001Y-98101839D01*
X203000644Y-98127152D01*
X202905354Y-98205354D01*
X202827152Y-98300644D01*
X202769042Y-98409359D01*
X202733259Y-98527322D01*
X202721176Y-98649999D01*
X202721176Y-99550001D01*
X202733259Y-99672678D01*
X202769042Y-99790641D01*
X202827152Y-99899356D01*
X202905354Y-99994646D01*
X203000644Y-100072848D01*
X203109359Y-100130958D01*
X203227322Y-100166741D01*
X203349999Y-100178824D01*
X204000001Y-100178824D01*
X204122678Y-100166741D01*
X204240641Y-100130958D01*
X204349356Y-100072848D01*
X204444646Y-99994646D01*
X204522848Y-99899356D01*
X204580958Y-99790641D01*
X204616741Y-99672678D01*
X204628824Y-99550001D01*
X204628824Y-98649999D01*
X204616741Y-98527322D01*
X204580958Y-98409359D01*
X204522848Y-98300644D01*
X204444646Y-98205354D01*
X204349356Y-98127152D01*
X204302000Y-98101839D01*
X204302000Y-97243593D01*
X204305033Y-97212799D01*
X204292927Y-97089887D01*
X204272195Y-97021542D01*
X204257075Y-96971697D01*
X204206545Y-96877162D01*
X204217869Y-96867869D01*
X204264981Y-96810463D01*
X204299988Y-96744970D01*
X204321545Y-96673905D01*
X204328824Y-96600000D01*
X204328824Y-95600000D01*
X204321545Y-95526095D01*
X204299988Y-95455030D01*
X204264981Y-95389537D01*
X204217869Y-95332131D01*
X204160463Y-95285019D01*
X204094970Y-95250012D01*
X204077000Y-95244561D01*
X204077000Y-94576165D01*
X204172678Y-94566741D01*
X204290641Y-94530958D01*
X204399356Y-94472848D01*
X204494646Y-94394646D01*
X204572848Y-94299356D01*
X204630958Y-94190641D01*
X204666741Y-94072678D01*
X204678824Y-93950001D01*
X204678824Y-93049999D01*
X204666741Y-92927322D01*
X204630958Y-92809359D01*
X204572848Y-92700644D01*
X204494646Y-92605354D01*
X204399356Y-92527152D01*
X204352000Y-92501839D01*
X204352000Y-92045211D01*
X204410007Y-92115893D01*
X204431549Y-92133572D01*
X204866430Y-92568454D01*
X204884107Y-92589993D01*
X204905643Y-92607667D01*
X204905645Y-92607669D01*
X204964091Y-92655634D01*
X204927152Y-92700644D01*
X204869042Y-92809359D01*
X204833259Y-92927322D01*
X204821176Y-93049999D01*
X204821176Y-93950001D01*
X204833259Y-94072678D01*
X204869042Y-94190641D01*
X204927152Y-94299356D01*
X205005354Y-94394646D01*
X205100644Y-94472848D01*
X205209359Y-94530958D01*
X205327322Y-94566741D01*
X205385500Y-94572471D01*
X205385501Y-95227529D01*
X205376095Y-95228455D01*
X205305030Y-95250012D01*
X205239537Y-95285019D01*
X205182131Y-95332131D01*
X205135019Y-95389537D01*
X205100012Y-95455030D01*
X205078455Y-95526095D01*
X205071176Y-95600000D01*
X205071176Y-96600000D01*
X205078455Y-96673905D01*
X205100012Y-96744970D01*
X205135019Y-96810463D01*
X205182131Y-96867869D01*
X205239537Y-96914981D01*
X205305030Y-96949988D01*
X205376095Y-96971545D01*
X205450000Y-96978824D01*
X206450000Y-96978824D01*
X206523905Y-96971545D01*
X206594970Y-96949988D01*
X206660463Y-96914981D01*
X206717869Y-96867869D01*
X206758201Y-96818724D01*
X208569030Y-98629554D01*
X208586707Y-98651093D01*
X208608243Y-98668767D01*
X208608245Y-98668769D01*
X208672662Y-98721635D01*
X208695175Y-98733668D01*
X208770730Y-98774053D01*
X208877139Y-98806332D01*
X208960071Y-98814500D01*
X208960073Y-98814500D01*
X208987799Y-98817231D01*
X209015525Y-98814500D01*
X209282454Y-98814500D01*
X209283259Y-98822678D01*
X209319042Y-98940641D01*
X209377152Y-99049356D01*
X209455354Y-99144646D01*
X209550644Y-99222848D01*
X209659359Y-99280958D01*
X209777322Y-99316741D01*
X209899999Y-99328824D01*
X210505501Y-99328824D01*
X210529277Y-99352600D01*
X206775924Y-99352600D01*
X206678824Y-99255500D01*
X206678824Y-98649999D01*
X206666741Y-98527322D01*
X206630958Y-98409359D01*
X206572848Y-98300644D01*
X206494646Y-98205354D01*
X206399356Y-98127152D01*
X206290641Y-98069042D01*
X206172678Y-98033259D01*
X206050001Y-98021176D01*
X205399999Y-98021176D01*
X205277322Y-98033259D01*
X205159359Y-98069042D01*
X205050644Y-98127152D01*
X204955354Y-98205354D01*
X204877152Y-98300644D01*
X204819042Y-98409359D01*
X204783259Y-98527322D01*
X204771176Y-98649999D01*
X204771176Y-99550001D01*
X204783259Y-99672678D01*
X204819042Y-99790641D01*
X204877152Y-99899356D01*
X204955354Y-99994646D01*
X205050644Y-100072848D01*
X205159359Y-100130958D01*
X205277322Y-100166741D01*
X205399999Y-100178824D01*
X206005500Y-100178824D01*
X206123332Y-100296656D01*
X206141007Y-100318193D01*
X206162543Y-100335867D01*
X206162545Y-100335869D01*
X206201689Y-100367993D01*
X206226963Y-100388735D01*
X206325030Y-100441153D01*
X206431439Y-100473432D01*
X206514371Y-100481600D01*
X206514374Y-100481600D01*
X206542100Y-100484331D01*
X206569826Y-100481600D01*
X216205174Y-100481600D01*
X216232900Y-100484331D01*
X216260626Y-100481600D01*
X216260629Y-100481600D01*
X216343561Y-100473432D01*
X216449970Y-100441153D01*
X216548037Y-100388735D01*
X216633993Y-100318193D01*
X216651672Y-100296651D01*
X216919499Y-100028824D01*
X217250000Y-100028824D01*
X217274449Y-100026416D01*
X217299009Y-100026416D01*
X217372914Y-100019137D01*
X217469047Y-100000015D01*
X217540110Y-99978458D01*
X217630666Y-99940949D01*
X217696162Y-99905941D01*
X217777661Y-99851485D01*
X217835066Y-99804374D01*
X217904374Y-99735066D01*
X217921252Y-99714500D01*
X225109529Y-99714500D01*
X225166963Y-99761635D01*
X225265030Y-99814053D01*
X225371439Y-99846332D01*
X225454371Y-99854500D01*
X225454374Y-99854500D01*
X225482100Y-99857231D01*
X225509826Y-99854500D01*
X227981609Y-99854500D01*
X227998337Y-99894886D01*
X228138089Y-100104040D01*
X228315960Y-100281911D01*
X228525114Y-100421663D01*
X228757513Y-100517926D01*
X229004226Y-100567000D01*
X229255774Y-100567000D01*
X229502487Y-100517926D01*
X229734886Y-100421663D01*
X229944040Y-100281911D01*
X230121911Y-100104040D01*
X230261663Y-99894886D01*
X230357926Y-99662487D01*
X230407000Y-99415774D01*
X230407000Y-99164226D01*
X230357926Y-98917513D01*
X230261663Y-98685114D01*
X230121911Y-98475960D01*
X229944040Y-98298089D01*
X229734886Y-98158337D01*
X229502487Y-98062074D01*
X229255774Y-98013000D01*
X229004226Y-98013000D01*
X228757513Y-98062074D01*
X228525114Y-98158337D01*
X228315960Y-98298089D01*
X228138089Y-98475960D01*
X227998337Y-98685114D01*
X227981609Y-98725500D01*
X225906600Y-98725500D01*
X225906600Y-96189018D01*
X225909330Y-96161299D01*
X225906600Y-96133580D01*
X225906600Y-96133571D01*
X225898432Y-96050639D01*
X225866153Y-95944230D01*
X225813735Y-95846163D01*
X225743193Y-95760207D01*
X225721651Y-95742528D01*
X223775972Y-93796849D01*
X223758293Y-93775307D01*
X223672337Y-93704765D01*
X223574270Y-93652347D01*
X223467861Y-93620068D01*
X223384929Y-93611900D01*
X223384926Y-93611900D01*
X223357200Y-93609169D01*
X223329474Y-93611900D01*
X218840939Y-93611900D01*
X218849988Y-93594970D01*
X218871545Y-93523905D01*
X218878824Y-93450000D01*
X218878824Y-92150000D01*
X218871545Y-92076095D01*
X218849988Y-92005030D01*
X218814981Y-91939537D01*
X218767869Y-91882131D01*
X218710463Y-91835019D01*
X218644970Y-91800012D01*
X218573905Y-91778455D01*
X218500000Y-91771176D01*
X217900000Y-91771176D01*
X217826095Y-91778455D01*
X217755030Y-91800012D01*
X217689537Y-91835019D01*
X217689485Y-91835062D01*
X217580266Y-91725843D01*
X217623905Y-91721545D01*
X217694970Y-91699988D01*
X217760463Y-91664981D01*
X217817869Y-91617869D01*
X217851409Y-91577000D01*
X217894721Y-91577000D01*
X217937800Y-91581243D01*
X217980879Y-91577000D01*
X218109722Y-91564310D01*
X218275037Y-91514162D01*
X218427392Y-91432727D01*
X218560933Y-91323133D01*
X218588397Y-91289668D01*
X219072783Y-90805282D01*
X222023000Y-90805282D01*
X222023000Y-91194718D01*
X222098975Y-91576670D01*
X222248005Y-91936461D01*
X222464364Y-92260264D01*
X222739736Y-92535636D01*
X223063539Y-92751995D01*
X223423330Y-92901025D01*
X223805282Y-92977000D01*
X224194718Y-92977000D01*
X224576670Y-92901025D01*
X224936461Y-92751995D01*
X225260264Y-92535636D01*
X225535636Y-92260264D01*
X225751995Y-91936461D01*
X225901025Y-91576670D01*
X225977000Y-91194718D01*
X225977000Y-90805282D01*
X234023000Y-90805282D01*
X234023000Y-91194718D01*
X234098975Y-91576670D01*
X234248005Y-91936461D01*
X234464364Y-92260264D01*
X234739736Y-92535636D01*
X235063539Y-92751995D01*
X235423330Y-92901025D01*
X235805282Y-92977000D01*
X236194718Y-92977000D01*
X236576670Y-92901025D01*
X236936461Y-92751995D01*
X237260264Y-92535636D01*
X237535636Y-92260264D01*
X237751995Y-91936461D01*
X237901025Y-91576670D01*
X237977000Y-91194718D01*
X237977000Y-90805282D01*
X237901025Y-90423330D01*
X237751995Y-90063539D01*
X237535636Y-89739736D01*
X237260264Y-89464364D01*
X236936461Y-89248005D01*
X236576670Y-89098975D01*
X236194718Y-89023000D01*
X235805282Y-89023000D01*
X235423330Y-89098975D01*
X235063539Y-89248005D01*
X234739736Y-89464364D01*
X234464364Y-89739736D01*
X234248005Y-90063539D01*
X234098975Y-90423330D01*
X234023000Y-90805282D01*
X225977000Y-90805282D01*
X225901025Y-90423330D01*
X225751995Y-90063539D01*
X225535636Y-89739736D01*
X225260264Y-89464364D01*
X224936461Y-89248005D01*
X224576670Y-89098975D01*
X224194718Y-89023000D01*
X223805282Y-89023000D01*
X223423330Y-89098975D01*
X223063539Y-89248005D01*
X222739736Y-89464364D01*
X222464364Y-89739736D01*
X222248005Y-90063539D01*
X222098975Y-90423330D01*
X222023000Y-90805282D01*
X219072783Y-90805282D01*
X222761065Y-87117000D01*
X230043079Y-87117000D01*
X230171922Y-87104310D01*
X230337237Y-87054162D01*
X230489592Y-86972727D01*
X230623133Y-86863133D01*
X230732727Y-86729592D01*
X230814162Y-86577237D01*
X230864310Y-86411922D01*
X230881243Y-86240000D01*
X230864310Y-86068078D01*
X230814162Y-85902763D01*
X230761619Y-85804462D01*
X230858865Y-85712020D01*
X230987123Y-85530206D01*
X231077446Y-85326864D01*
X231094119Y-85271874D01*
X230967954Y-85097000D01*
X230127000Y-85097000D01*
X230127000Y-85117000D01*
X229873000Y-85117000D01*
X229873000Y-85097000D01*
X229032046Y-85097000D01*
X228905881Y-85271874D01*
X228922554Y-85326864D01*
X228938605Y-85363000D01*
X222440869Y-85363000D01*
X222397799Y-85358758D01*
X222354730Y-85363000D01*
X222354721Y-85363000D01*
X222225878Y-85375690D01*
X222060563Y-85425838D01*
X221908208Y-85507273D01*
X221774667Y-85616867D01*
X221747203Y-85650332D01*
X217696634Y-89700901D01*
X217694970Y-89700012D01*
X217623905Y-89678455D01*
X217550000Y-89671176D01*
X216950000Y-89671176D01*
X216876095Y-89678455D01*
X216805030Y-89700012D01*
X216739537Y-89735019D01*
X216682131Y-89782131D01*
X216635019Y-89839537D01*
X216600012Y-89905030D01*
X216578455Y-89976095D01*
X216571176Y-90050000D01*
X216571176Y-90144727D01*
X216517273Y-90210408D01*
X216435838Y-90362763D01*
X216385690Y-90528078D01*
X216368757Y-90700000D01*
X216385690Y-90871922D01*
X216435838Y-91037237D01*
X216517273Y-91189592D01*
X216523845Y-91197600D01*
X214588007Y-91197600D01*
X214585000Y-91085750D01*
X214426250Y-90927000D01*
X213627000Y-90927000D01*
X213627000Y-90947000D01*
X213373000Y-90947000D01*
X213373000Y-90927000D01*
X213353000Y-90927000D01*
X213353000Y-90673000D01*
X213373000Y-90673000D01*
X213373000Y-89923750D01*
X213627000Y-89923750D01*
X213627000Y-90673000D01*
X214426250Y-90673000D01*
X214585000Y-90514250D01*
X214588072Y-90400000D01*
X214575812Y-90275518D01*
X214539502Y-90155820D01*
X214480537Y-90045506D01*
X214401185Y-89948815D01*
X214304494Y-89869463D01*
X214194180Y-89810498D01*
X214074482Y-89774188D01*
X213950000Y-89761928D01*
X213785750Y-89765000D01*
X213627000Y-89923750D01*
X213373000Y-89923750D01*
X213214250Y-89765000D01*
X213050000Y-89761928D01*
X212925518Y-89774188D01*
X212805820Y-89810498D01*
X212695506Y-89869463D01*
X212598815Y-89948815D01*
X212519463Y-90045506D01*
X212460498Y-90155820D01*
X212424188Y-90275518D01*
X212411928Y-90400000D01*
X212412537Y-90422657D01*
X212356861Y-90405768D01*
X212273929Y-90397600D01*
X212273926Y-90397600D01*
X212246200Y-90394869D01*
X212218474Y-90397600D01*
X206707725Y-90397600D01*
X206680958Y-90309359D01*
X206622848Y-90200644D01*
X206544646Y-90105354D01*
X206449356Y-90027152D01*
X206340641Y-89969042D01*
X206222678Y-89933259D01*
X206100001Y-89921176D01*
X205449999Y-89921176D01*
X205375600Y-89928504D01*
X205375600Y-86881255D01*
X205423330Y-86901025D01*
X205805282Y-86977000D01*
X206194718Y-86977000D01*
X206576670Y-86901025D01*
X206936461Y-86751995D01*
X207260264Y-86535636D01*
X207535636Y-86260264D01*
X207685500Y-86035977D01*
X207685500Y-86722274D01*
X207682769Y-86750000D01*
X207685500Y-86777726D01*
X207685500Y-86777728D01*
X207693668Y-86860660D01*
X207725947Y-86967069D01*
X207778365Y-87065137D01*
X207848907Y-87151093D01*
X207870449Y-87168772D01*
X209081232Y-88379556D01*
X209098907Y-88401093D01*
X209120443Y-88418767D01*
X209120445Y-88418769D01*
X209184863Y-88471635D01*
X209282930Y-88524053D01*
X209389339Y-88556332D01*
X209472271Y-88564500D01*
X209472274Y-88564500D01*
X209500000Y-88567231D01*
X209527726Y-88564500D01*
X210540769Y-88564500D01*
X210550012Y-88594970D01*
X210585019Y-88660463D01*
X210632131Y-88717869D01*
X210689537Y-88764981D01*
X210755030Y-88799988D01*
X210826095Y-88821545D01*
X210900000Y-88828824D01*
X211700000Y-88828824D01*
X211773905Y-88821545D01*
X211844970Y-88799988D01*
X211910463Y-88764981D01*
X211967869Y-88717869D01*
X212014981Y-88660463D01*
X212049988Y-88594970D01*
X212071545Y-88523905D01*
X212078824Y-88450000D01*
X212161928Y-88450000D01*
X212174188Y-88574482D01*
X212210498Y-88694180D01*
X212269463Y-88804494D01*
X212348815Y-88901185D01*
X212445506Y-88980537D01*
X212555820Y-89039502D01*
X212675518Y-89075812D01*
X212800000Y-89088072D01*
X212914250Y-89085000D01*
X213073000Y-88926250D01*
X213073000Y-88127000D01*
X213327000Y-88127000D01*
X213327000Y-88926250D01*
X213485750Y-89085000D01*
X213600000Y-89088072D01*
X213724482Y-89075812D01*
X213844180Y-89039502D01*
X213954494Y-88980537D01*
X214051185Y-88901185D01*
X214130537Y-88804494D01*
X214189502Y-88694180D01*
X214225812Y-88574482D01*
X214238072Y-88450000D01*
X214235000Y-88285750D01*
X214076250Y-88127000D01*
X213327000Y-88127000D01*
X213073000Y-88127000D01*
X212323750Y-88127000D01*
X212165000Y-88285750D01*
X212161928Y-88450000D01*
X212078824Y-88450000D01*
X212078824Y-87550000D01*
X212071545Y-87476095D01*
X212049988Y-87405030D01*
X212014981Y-87339537D01*
X211967869Y-87282131D01*
X211910463Y-87235019D01*
X211844970Y-87200012D01*
X211773905Y-87178455D01*
X211700000Y-87171176D01*
X210900000Y-87171176D01*
X210826095Y-87178455D01*
X210755030Y-87200012D01*
X210689537Y-87235019D01*
X210632131Y-87282131D01*
X210585019Y-87339537D01*
X210550012Y-87405030D01*
X210540769Y-87435500D01*
X209733824Y-87435500D01*
X208814500Y-86516177D01*
X208814500Y-84336223D01*
X208817231Y-84308497D01*
X208813824Y-84273905D01*
X208806332Y-84197837D01*
X208774053Y-84091428D01*
X208739893Y-84027520D01*
X208721635Y-83993360D01*
X208668769Y-83928943D01*
X208668767Y-83928941D01*
X208651093Y-83907405D01*
X208629557Y-83889731D01*
X206589500Y-81849675D01*
X206589500Y-80031304D01*
X206590641Y-80030958D01*
X206699356Y-79972848D01*
X206794646Y-79894646D01*
X206872848Y-79799356D01*
X206930958Y-79690641D01*
X206966741Y-79572678D01*
X206978824Y-79450001D01*
X206978824Y-78549999D01*
X206966741Y-78427322D01*
X206930958Y-78309359D01*
X206872848Y-78200644D01*
X206794646Y-78105354D01*
X206699356Y-78027152D01*
X206590641Y-77969042D01*
X206472678Y-77933259D01*
X206350001Y-77921176D01*
X206158147Y-77921176D01*
X208379557Y-75699767D01*
X208401093Y-75682093D01*
X208471635Y-75596137D01*
X208477640Y-75584902D01*
X208490641Y-75580958D01*
X208599356Y-75522848D01*
X208694646Y-75444646D01*
X208772848Y-75349356D01*
X208830958Y-75240641D01*
X208862068Y-75138084D01*
X208861928Y-75250000D01*
X208874188Y-75374482D01*
X208910498Y-75494180D01*
X208969463Y-75604494D01*
X209048815Y-75701185D01*
X209145506Y-75780537D01*
X209255820Y-75839502D01*
X209375518Y-75875812D01*
X209500000Y-75888072D01*
X209714250Y-75885000D01*
X209873000Y-75726250D01*
X209873000Y-72627000D01*
X209853000Y-72627000D01*
X209853000Y-72373000D01*
X209873000Y-72373000D01*
X209873000Y-72353000D01*
X210127000Y-72353000D01*
X210127000Y-72373000D01*
X210147000Y-72373000D01*
X210147000Y-72627000D01*
X210127000Y-72627000D01*
X210127000Y-75726250D01*
X210285750Y-75885000D01*
X210500000Y-75888072D01*
X210624482Y-75875812D01*
X210744180Y-75839502D01*
X210854494Y-75780537D01*
X210951185Y-75701185D01*
X211030537Y-75604494D01*
X211089502Y-75494180D01*
X211125812Y-75374482D01*
X211138072Y-75250000D01*
X211137932Y-75138084D01*
X211169042Y-75240641D01*
X211227152Y-75349356D01*
X211305354Y-75444646D01*
X211373001Y-75500162D01*
X211373000Y-77950929D01*
X211372848Y-77950644D01*
X211294646Y-77855354D01*
X211199356Y-77777152D01*
X211090641Y-77719042D01*
X210972678Y-77683259D01*
X210850001Y-77671176D01*
X210199999Y-77671176D01*
X210077322Y-77683259D01*
X209959359Y-77719042D01*
X209850644Y-77777152D01*
X209755354Y-77855354D01*
X209677152Y-77950644D01*
X209619042Y-78059359D01*
X209583259Y-78177322D01*
X209571176Y-78299999D01*
X209571176Y-79200001D01*
X209583259Y-79322678D01*
X209619042Y-79440641D01*
X209677152Y-79549356D01*
X209755354Y-79644646D01*
X209850644Y-79722848D01*
X209959359Y-79780958D01*
X210077322Y-79816741D01*
X210199999Y-79828824D01*
X210850001Y-79828824D01*
X210972678Y-79816741D01*
X211090641Y-79780958D01*
X211199356Y-79722848D01*
X211294646Y-79644646D01*
X211372848Y-79549356D01*
X211373274Y-79548559D01*
X211427152Y-79649356D01*
X211505354Y-79744646D01*
X211600644Y-79822848D01*
X211648001Y-79848161D01*
X211648000Y-79851839D01*
X211600644Y-79877152D01*
X211505354Y-79955354D01*
X211427152Y-80050644D01*
X211369042Y-80159359D01*
X211333259Y-80277322D01*
X211321176Y-80399999D01*
X211321176Y-81300001D01*
X211333259Y-81422678D01*
X211369042Y-81540641D01*
X211427152Y-81649356D01*
X211505354Y-81744646D01*
X211600644Y-81822848D01*
X211623000Y-81834798D01*
X211623001Y-81994561D01*
X211605030Y-82000012D01*
X211539537Y-82035019D01*
X211482131Y-82082131D01*
X211435019Y-82139537D01*
X211400012Y-82205030D01*
X211378455Y-82276095D01*
X211371176Y-82350000D01*
X211371176Y-82745852D01*
X209039500Y-80414177D01*
X209039500Y-79781304D01*
X209040641Y-79780958D01*
X209149356Y-79722848D01*
X209244646Y-79644646D01*
X209322848Y-79549356D01*
X209380958Y-79440641D01*
X209416741Y-79322678D01*
X209428824Y-79200001D01*
X209428824Y-78299999D01*
X209416741Y-78177322D01*
X209380958Y-78059359D01*
X209322848Y-77950644D01*
X209244646Y-77855354D01*
X209149356Y-77777152D01*
X209040641Y-77719042D01*
X208922678Y-77683259D01*
X208800001Y-77671176D01*
X208149999Y-77671176D01*
X208027322Y-77683259D01*
X207909359Y-77719042D01*
X207800644Y-77777152D01*
X207705354Y-77855354D01*
X207627152Y-77950644D01*
X207569042Y-78059359D01*
X207533259Y-78177322D01*
X207521176Y-78299999D01*
X207521176Y-79200001D01*
X207533259Y-79322678D01*
X207569042Y-79440641D01*
X207627152Y-79549356D01*
X207705354Y-79644646D01*
X207800644Y-79722848D01*
X207909359Y-79780958D01*
X207910500Y-79781304D01*
X207910500Y-80620274D01*
X207907769Y-80648000D01*
X207910500Y-80675726D01*
X207910500Y-80675728D01*
X207918668Y-80758660D01*
X207950947Y-80865069D01*
X208003365Y-80963137D01*
X208073907Y-81049093D01*
X208095449Y-81066772D01*
X211657430Y-84628754D01*
X211675107Y-84650293D01*
X211696643Y-84667967D01*
X211696645Y-84667969D01*
X211710663Y-84679473D01*
X211761063Y-84720835D01*
X211859130Y-84773253D01*
X211965539Y-84805532D01*
X212048471Y-84813700D01*
X212048474Y-84813700D01*
X212076200Y-84816431D01*
X212103926Y-84813700D01*
X213515377Y-84813700D01*
X215443428Y-86741751D01*
X215461107Y-86763293D01*
X215505820Y-86799988D01*
X215521176Y-86812590D01*
X215521176Y-87210700D01*
X215046824Y-87210700D01*
X213456572Y-85620449D01*
X213438893Y-85598907D01*
X213352937Y-85528365D01*
X213254870Y-85475947D01*
X213148461Y-85443668D01*
X213065529Y-85435500D01*
X213065526Y-85435500D01*
X213037800Y-85432769D01*
X213010074Y-85435500D01*
X213009231Y-85435500D01*
X212999988Y-85405030D01*
X212964981Y-85339537D01*
X212917869Y-85282131D01*
X212860463Y-85235019D01*
X212794970Y-85200012D01*
X212723905Y-85178455D01*
X212650000Y-85171176D01*
X211850000Y-85171176D01*
X211776095Y-85178455D01*
X211705030Y-85200012D01*
X211639537Y-85235019D01*
X211582131Y-85282131D01*
X211535019Y-85339537D01*
X211500012Y-85405030D01*
X211478455Y-85476095D01*
X211471176Y-85550000D01*
X211471176Y-86450000D01*
X211478455Y-86523905D01*
X211500012Y-86594970D01*
X211535019Y-86660463D01*
X211582131Y-86717869D01*
X211639537Y-86764981D01*
X211705030Y-86799988D01*
X211776095Y-86821545D01*
X211850000Y-86828824D01*
X212650000Y-86828824D01*
X212723905Y-86821545D01*
X212794970Y-86799988D01*
X212860463Y-86764981D01*
X212917869Y-86717869D01*
X212935663Y-86696187D01*
X213154477Y-86915000D01*
X213072998Y-86915000D01*
X213072998Y-87073748D01*
X212914250Y-86915000D01*
X212800000Y-86911928D01*
X212675518Y-86924188D01*
X212555820Y-86960498D01*
X212445506Y-87019463D01*
X212348815Y-87098815D01*
X212269463Y-87195506D01*
X212210498Y-87305820D01*
X212174188Y-87425518D01*
X212161928Y-87550000D01*
X212165000Y-87714250D01*
X212323750Y-87873000D01*
X213073000Y-87873000D01*
X213073000Y-87853000D01*
X213327000Y-87853000D01*
X213327000Y-87873000D01*
X214076250Y-87873000D01*
X214094363Y-87854887D01*
X214394233Y-88154756D01*
X214411907Y-88176293D01*
X214497863Y-88246835D01*
X214595930Y-88299253D01*
X214702339Y-88331532D01*
X214785271Y-88339700D01*
X214785274Y-88339700D01*
X214813000Y-88342431D01*
X214840726Y-88339700D01*
X217338374Y-88339700D01*
X217366100Y-88342431D01*
X217393826Y-88339700D01*
X217393829Y-88339700D01*
X217476761Y-88331532D01*
X217583170Y-88299253D01*
X217681237Y-88246835D01*
X217767193Y-88176293D01*
X217784872Y-88154751D01*
X217967451Y-87972172D01*
X217988993Y-87954493D01*
X218059535Y-87868537D01*
X218111953Y-87770470D01*
X218144232Y-87664061D01*
X218152400Y-87581129D01*
X218155131Y-87553400D01*
X218152400Y-87525671D01*
X218152400Y-86826155D01*
X218160408Y-86832727D01*
X218312763Y-86914162D01*
X218478078Y-86964310D01*
X218650000Y-86981243D01*
X218821921Y-86964310D01*
X218987236Y-86914162D01*
X219139591Y-86832727D01*
X219205273Y-86778824D01*
X219300000Y-86778824D01*
X219373905Y-86771545D01*
X219444970Y-86749988D01*
X219510463Y-86714981D01*
X219567869Y-86667869D01*
X219614981Y-86610463D01*
X219649988Y-86544970D01*
X219671545Y-86473905D01*
X219678824Y-86400000D01*
X219678824Y-85800000D01*
X219671545Y-85726095D01*
X219649988Y-85655030D01*
X219649099Y-85653366D01*
X220725465Y-84577000D01*
X228938605Y-84577000D01*
X228922554Y-84613136D01*
X228905881Y-84668126D01*
X229032046Y-84843000D01*
X229873000Y-84843000D01*
X229873000Y-84823000D01*
X230127000Y-84823000D01*
X230127000Y-84843000D01*
X230967954Y-84843000D01*
X231094119Y-84668126D01*
X231077446Y-84613136D01*
X230987123Y-84409794D01*
X230873961Y-84249379D01*
X230878824Y-84200000D01*
X230878824Y-83724560D01*
X230881243Y-83700000D01*
X230878824Y-83675440D01*
X230878824Y-83200000D01*
X230871545Y-83126095D01*
X230849988Y-83055030D01*
X230814981Y-82989537D01*
X230767869Y-82932131D01*
X230710463Y-82885019D01*
X230644970Y-82850012D01*
X230573905Y-82828455D01*
X230500000Y-82821176D01*
X229500000Y-82821176D01*
X229481481Y-82823000D01*
X220405269Y-82823000D01*
X220362199Y-82818758D01*
X220319130Y-82823000D01*
X220319121Y-82823000D01*
X220190278Y-82835690D01*
X220024963Y-82885838D01*
X219872608Y-82967273D01*
X219739067Y-83076867D01*
X219711603Y-83110332D01*
X218152400Y-84669535D01*
X218152400Y-82920923D01*
X218594500Y-82478824D01*
X219200001Y-82478824D01*
X219322678Y-82466741D01*
X219440641Y-82430958D01*
X219549356Y-82372848D01*
X219644646Y-82294646D01*
X219722848Y-82199356D01*
X219780958Y-82090641D01*
X219816741Y-81972678D01*
X219828824Y-81850001D01*
X219828824Y-81199999D01*
X219816741Y-81077322D01*
X219780958Y-80959359D01*
X219780543Y-80958582D01*
X219850593Y-80901093D01*
X219868272Y-80879551D01*
X222042978Y-78704845D01*
X222023000Y-78805282D01*
X222023000Y-79194718D01*
X222098975Y-79576670D01*
X222248005Y-79936461D01*
X222464364Y-80260264D01*
X222739736Y-80535636D01*
X223063539Y-80751995D01*
X223423330Y-80901025D01*
X223805282Y-80977000D01*
X224194718Y-80977000D01*
X224576670Y-80901025D01*
X224936461Y-80751995D01*
X225260264Y-80535636D01*
X225535636Y-80260264D01*
X225751995Y-79936461D01*
X225901025Y-79576670D01*
X225977000Y-79194718D01*
X225977000Y-78805282D01*
X234023000Y-78805282D01*
X234023000Y-79194718D01*
X234098975Y-79576670D01*
X234248005Y-79936461D01*
X234464364Y-80260264D01*
X234739736Y-80535636D01*
X235063539Y-80751995D01*
X235423330Y-80901025D01*
X235805282Y-80977000D01*
X236194718Y-80977000D01*
X236576670Y-80901025D01*
X236936461Y-80751995D01*
X237260264Y-80535636D01*
X237535636Y-80260264D01*
X237751995Y-79936461D01*
X237901025Y-79576670D01*
X237977000Y-79194718D01*
X237977000Y-78805282D01*
X237901025Y-78423330D01*
X237751995Y-78063539D01*
X237535636Y-77739736D01*
X237260264Y-77464364D01*
X236936461Y-77248005D01*
X236576670Y-77098975D01*
X236194718Y-77023000D01*
X235805282Y-77023000D01*
X235423330Y-77098975D01*
X235063539Y-77248005D01*
X234739736Y-77464364D01*
X234464364Y-77739736D01*
X234248005Y-78063539D01*
X234098975Y-78423330D01*
X234023000Y-78805282D01*
X225977000Y-78805282D01*
X225901025Y-78423330D01*
X225751995Y-78063539D01*
X225535636Y-77739736D01*
X225260264Y-77464364D01*
X224936461Y-77248005D01*
X224576670Y-77098975D01*
X224194718Y-77023000D01*
X223805282Y-77023000D01*
X223704845Y-77042978D01*
X226660332Y-74087491D01*
X226690110Y-74078458D01*
X226780666Y-74040949D01*
X226846162Y-74005941D01*
X226927661Y-73951485D01*
X226985066Y-73904374D01*
X227054374Y-73835066D01*
X227101485Y-73777661D01*
X227155941Y-73696162D01*
X227190949Y-73630666D01*
X227201787Y-73604500D01*
X227981609Y-73604500D01*
X227998337Y-73644886D01*
X228138089Y-73854040D01*
X228315960Y-74031911D01*
X228525114Y-74171663D01*
X228757513Y-74267926D01*
X229004226Y-74317000D01*
X229255774Y-74317000D01*
X229502487Y-74267926D01*
X229734886Y-74171663D01*
X229944040Y-74031911D01*
X230121911Y-73854040D01*
X230261663Y-73644886D01*
X230357926Y-73412487D01*
X230407000Y-73165774D01*
X230407000Y-72914226D01*
X230357926Y-72667513D01*
X230261663Y-72435114D01*
X230121911Y-72225960D01*
X229944040Y-72048089D01*
X229734886Y-71908337D01*
X229502487Y-71812074D01*
X229255774Y-71763000D01*
X229004226Y-71763000D01*
X228757513Y-71812074D01*
X228525114Y-71908337D01*
X228315960Y-72048089D01*
X228138089Y-72225960D01*
X227998337Y-72435114D01*
X227981609Y-72475500D01*
X227233193Y-72475500D01*
X227228458Y-72459890D01*
X227190949Y-72369334D01*
X227155941Y-72303838D01*
X227101485Y-72222339D01*
X227054374Y-72164934D01*
X226985066Y-72095626D01*
X226927661Y-72048515D01*
X226846162Y-71994059D01*
X226780666Y-71959051D01*
X226690110Y-71921542D01*
X226619047Y-71899985D01*
X226522914Y-71880863D01*
X226449009Y-71873584D01*
X226424449Y-71873584D01*
X226400000Y-71871176D01*
X225900000Y-71871176D01*
X225826095Y-71878455D01*
X225755030Y-71900012D01*
X225750000Y-71902701D01*
X225744970Y-71900012D01*
X225673905Y-71878455D01*
X225664500Y-71877529D01*
X225664500Y-71577718D01*
X225667230Y-71549999D01*
X225664500Y-71522281D01*
X225664500Y-71522271D01*
X225656332Y-71439339D01*
X225624053Y-71332930D01*
X225589893Y-71269022D01*
X225571635Y-71234862D01*
X225543348Y-71200395D01*
X225501093Y-71148907D01*
X225479551Y-71131228D01*
X225261197Y-70912874D01*
X225277926Y-70872487D01*
X225327000Y-70625774D01*
X225327000Y-70374226D01*
X225277926Y-70127513D01*
X225181663Y-69895114D01*
X225143367Y-69837800D01*
X235201089Y-69837800D01*
X235516886Y-70153597D01*
X235473000Y-70374226D01*
X235473000Y-70625774D01*
X235522074Y-70872487D01*
X235618337Y-71104886D01*
X235758089Y-71314040D01*
X235935960Y-71491911D01*
X236145114Y-71631663D01*
X236377513Y-71727926D01*
X236624226Y-71777000D01*
X236875774Y-71777000D01*
X237096403Y-71733114D01*
X239773000Y-74409711D01*
X239773001Y-92840288D01*
X237096403Y-95516886D01*
X236875774Y-95473000D01*
X236624226Y-95473000D01*
X236377513Y-95522074D01*
X236145114Y-95618337D01*
X235935960Y-95758089D01*
X235758089Y-95935960D01*
X235618337Y-96145114D01*
X235522074Y-96377513D01*
X235473000Y-96624226D01*
X235473000Y-96875774D01*
X235522074Y-97122487D01*
X235618337Y-97354886D01*
X235758089Y-97564040D01*
X235935960Y-97741911D01*
X236145114Y-97881663D01*
X236377513Y-97977926D01*
X236624226Y-98027000D01*
X236875774Y-98027000D01*
X237122487Y-97977926D01*
X237354886Y-97881663D01*
X237564040Y-97741911D01*
X237741911Y-97564040D01*
X237881663Y-97354886D01*
X237977926Y-97122487D01*
X238027000Y-96875774D01*
X238027000Y-96624226D01*
X237983114Y-96403597D01*
X240821573Y-93565138D01*
X240845501Y-93545501D01*
X240923853Y-93450028D01*
X240956292Y-93389340D01*
X240982075Y-93341104D01*
X241017927Y-93222913D01*
X241030033Y-93100000D01*
X241027000Y-93069206D01*
X241027000Y-74180794D01*
X241030033Y-74150000D01*
X241017927Y-74027087D01*
X240982075Y-73908896D01*
X240923853Y-73799972D01*
X240905543Y-73777661D01*
X240845501Y-73704499D01*
X240821574Y-73684863D01*
X237983114Y-70846403D01*
X238027000Y-70625774D01*
X238027000Y-70374226D01*
X237977926Y-70127513D01*
X237881663Y-69895114D01*
X237741911Y-69685960D01*
X237564040Y-69508089D01*
X237354886Y-69368337D01*
X237122487Y-69272074D01*
X236875774Y-69223000D01*
X236624226Y-69223000D01*
X236403597Y-69266886D01*
X236288711Y-69152000D01*
X240480342Y-69152000D01*
X240615773Y-69165279D01*
M02*
