G04 #@! TF.GenerationSoftware,KiCad,Pcbnew,(5.1.0)-1*
G04 #@! TF.CreationDate,2020-03-11T19:31:42+00:00*
G04 #@! TF.ProjectId,Line Generator,4c696e65-2047-4656-9e65-7261746f722e,rev?*
G04 #@! TF.SameCoordinates,Original*
G04 #@! TF.FileFunction,Soldermask,Top*
G04 #@! TF.FilePolarity,Negative*
%FSLAX46Y46*%
G04 Gerber Fmt 4.6, Leading zero omitted, Abs format (unit mm)*
G04 Created by KiCad (PCBNEW (5.1.0)-1) date 2020-03-11 19:31:42*
%MOMM*%
%LPD*%
G04 APERTURE LIST*
%ADD10C,0.100000*%
G04 APERTURE END LIST*
D10*
G36*
X229407395Y-98375546D02*
G01*
X229580466Y-98447234D01*
X229580467Y-98447235D01*
X229736227Y-98551310D01*
X229868690Y-98683773D01*
X229868691Y-98683775D01*
X229972766Y-98839534D01*
X230044454Y-99012605D01*
X230081000Y-99196333D01*
X230081000Y-99383667D01*
X230044454Y-99567395D01*
X229972766Y-99740466D01*
X229972765Y-99740467D01*
X229868690Y-99896227D01*
X229736227Y-100028690D01*
X229657818Y-100081081D01*
X229580466Y-100132766D01*
X229407395Y-100204454D01*
X229223667Y-100241000D01*
X229036333Y-100241000D01*
X228852605Y-100204454D01*
X228679534Y-100132766D01*
X228602182Y-100081081D01*
X228523773Y-100028690D01*
X228391310Y-99896227D01*
X228287235Y-99740467D01*
X228287234Y-99740466D01*
X228215546Y-99567395D01*
X228179000Y-99383667D01*
X228179000Y-99196333D01*
X228215546Y-99012605D01*
X228287234Y-98839534D01*
X228391309Y-98683775D01*
X228391310Y-98683773D01*
X228523773Y-98551310D01*
X228679533Y-98447235D01*
X228679534Y-98447234D01*
X228852605Y-98375546D01*
X229036333Y-98339000D01*
X229223667Y-98339000D01*
X229407395Y-98375546D01*
X229407395Y-98375546D01*
G37*
G36*
X206188674Y-98353465D02*
G01*
X206226367Y-98364899D01*
X206261103Y-98383466D01*
X206291548Y-98408452D01*
X206316534Y-98438897D01*
X206335101Y-98473633D01*
X206346535Y-98511326D01*
X206351000Y-98556661D01*
X206351000Y-99643339D01*
X206346535Y-99688674D01*
X206335101Y-99726367D01*
X206316534Y-99761103D01*
X206291548Y-99791548D01*
X206261103Y-99816534D01*
X206226367Y-99835101D01*
X206188674Y-99846535D01*
X206143339Y-99851000D01*
X205306661Y-99851000D01*
X205261326Y-99846535D01*
X205223633Y-99835101D01*
X205188897Y-99816534D01*
X205158452Y-99791548D01*
X205133466Y-99761103D01*
X205114899Y-99726367D01*
X205103465Y-99688674D01*
X205099000Y-99643339D01*
X205099000Y-98556661D01*
X205103465Y-98511326D01*
X205114899Y-98473633D01*
X205133466Y-98438897D01*
X205158452Y-98408452D01*
X205188897Y-98383466D01*
X205223633Y-98364899D01*
X205261326Y-98353465D01*
X205306661Y-98349000D01*
X206143339Y-98349000D01*
X206188674Y-98353465D01*
X206188674Y-98353465D01*
G37*
G36*
X204138674Y-98353465D02*
G01*
X204176367Y-98364899D01*
X204211103Y-98383466D01*
X204241548Y-98408452D01*
X204266534Y-98438897D01*
X204285101Y-98473633D01*
X204296535Y-98511326D01*
X204301000Y-98556661D01*
X204301000Y-99643339D01*
X204296535Y-99688674D01*
X204285101Y-99726367D01*
X204266534Y-99761103D01*
X204241548Y-99791548D01*
X204211103Y-99816534D01*
X204176367Y-99835101D01*
X204138674Y-99846535D01*
X204093339Y-99851000D01*
X203256661Y-99851000D01*
X203211326Y-99846535D01*
X203173633Y-99835101D01*
X203138897Y-99816534D01*
X203108452Y-99791548D01*
X203083466Y-99761103D01*
X203064899Y-99726367D01*
X203053465Y-99688674D01*
X203049000Y-99643339D01*
X203049000Y-98556661D01*
X203053465Y-98511326D01*
X203064899Y-98473633D01*
X203083466Y-98438897D01*
X203108452Y-98408452D01*
X203138897Y-98383466D01*
X203173633Y-98364899D01*
X203211326Y-98353465D01*
X203256661Y-98349000D01*
X204093339Y-98349000D01*
X204138674Y-98353465D01*
X204138674Y-98353465D01*
G37*
G36*
X217262199Y-97299954D02*
G01*
X217274450Y-97300556D01*
X217292869Y-97300556D01*
X217315149Y-97302750D01*
X217399233Y-97319476D01*
X217420660Y-97325976D01*
X217499858Y-97358780D01*
X217505303Y-97361691D01*
X217505309Y-97361693D01*
X217514169Y-97366429D01*
X217514173Y-97366432D01*
X217519614Y-97369340D01*
X217590899Y-97416971D01*
X217608204Y-97431172D01*
X217668828Y-97491796D01*
X217683029Y-97509101D01*
X217730660Y-97580386D01*
X217733568Y-97585827D01*
X217733571Y-97585831D01*
X217738307Y-97594691D01*
X217738309Y-97594697D01*
X217741220Y-97600142D01*
X217774024Y-97679340D01*
X217780524Y-97700767D01*
X217797250Y-97784851D01*
X217799444Y-97807131D01*
X217799444Y-97825550D01*
X217800046Y-97837801D01*
X217801852Y-97856139D01*
X217801852Y-98343860D01*
X217800263Y-98359999D01*
X217797348Y-98369608D01*
X217792610Y-98378472D01*
X217786237Y-98386237D01*
X217773794Y-98396448D01*
X217763425Y-98403378D01*
X217746098Y-98420705D01*
X217732485Y-98441080D01*
X217723109Y-98463720D01*
X217718329Y-98487753D01*
X217718330Y-98512257D01*
X217723112Y-98536290D01*
X217732490Y-98558929D01*
X217746105Y-98579302D01*
X217763432Y-98596629D01*
X217773802Y-98603558D01*
X217786237Y-98613763D01*
X217792610Y-98621528D01*
X217797348Y-98630392D01*
X217800263Y-98640001D01*
X217801852Y-98656140D01*
X217801852Y-99143862D01*
X217800046Y-99162199D01*
X217799444Y-99174450D01*
X217799444Y-99192869D01*
X217797250Y-99215149D01*
X217780524Y-99299233D01*
X217774024Y-99320660D01*
X217741220Y-99399858D01*
X217738309Y-99405303D01*
X217738307Y-99405309D01*
X217733571Y-99414169D01*
X217733568Y-99414173D01*
X217730660Y-99419614D01*
X217683029Y-99490899D01*
X217668828Y-99508204D01*
X217608204Y-99568828D01*
X217590899Y-99583029D01*
X217519614Y-99630660D01*
X217514173Y-99633568D01*
X217514169Y-99633571D01*
X217505309Y-99638307D01*
X217505303Y-99638309D01*
X217499858Y-99641220D01*
X217420660Y-99674024D01*
X217399233Y-99680524D01*
X217315149Y-99697250D01*
X217292869Y-99699444D01*
X217274450Y-99699444D01*
X217262199Y-99700046D01*
X217243862Y-99701852D01*
X216756138Y-99701852D01*
X216737801Y-99700046D01*
X216725550Y-99699444D01*
X216707131Y-99699444D01*
X216684851Y-99697250D01*
X216600767Y-99680524D01*
X216579340Y-99674024D01*
X216500142Y-99641220D01*
X216494697Y-99638309D01*
X216494691Y-99638307D01*
X216485831Y-99633571D01*
X216485827Y-99633568D01*
X216480386Y-99630660D01*
X216409101Y-99583029D01*
X216391796Y-99568828D01*
X216331172Y-99508204D01*
X216316971Y-99490899D01*
X216269340Y-99419614D01*
X216266432Y-99414173D01*
X216266429Y-99414169D01*
X216261693Y-99405309D01*
X216261691Y-99405303D01*
X216258780Y-99399858D01*
X216225976Y-99320660D01*
X216219476Y-99299233D01*
X216202750Y-99215149D01*
X216200556Y-99192869D01*
X216200556Y-99174450D01*
X216199954Y-99162199D01*
X216198148Y-99143862D01*
X216198148Y-98656140D01*
X216199737Y-98640001D01*
X216202652Y-98630392D01*
X216207390Y-98621528D01*
X216213763Y-98613763D01*
X216226206Y-98603552D01*
X216236575Y-98596622D01*
X216253902Y-98579295D01*
X216267515Y-98558920D01*
X216276891Y-98536280D01*
X216281671Y-98512247D01*
X216281670Y-98487743D01*
X216276888Y-98463710D01*
X216267510Y-98441071D01*
X216253895Y-98420698D01*
X216236568Y-98403371D01*
X216226198Y-98396442D01*
X216213763Y-98386237D01*
X216207390Y-98378472D01*
X216202652Y-98369608D01*
X216199737Y-98359999D01*
X216198148Y-98343860D01*
X216198148Y-97856139D01*
X216199954Y-97837801D01*
X216200556Y-97825550D01*
X216200556Y-97807131D01*
X216202750Y-97784851D01*
X216219476Y-97700767D01*
X216225976Y-97679340D01*
X216258780Y-97600142D01*
X216261691Y-97594697D01*
X216261693Y-97594691D01*
X216266429Y-97585831D01*
X216266432Y-97585827D01*
X216269340Y-97580386D01*
X216316971Y-97509101D01*
X216331172Y-97491796D01*
X216391796Y-97431172D01*
X216409101Y-97416971D01*
X216480386Y-97369340D01*
X216485827Y-97366432D01*
X216485831Y-97366429D01*
X216494691Y-97361693D01*
X216494697Y-97361691D01*
X216500142Y-97358780D01*
X216579340Y-97325976D01*
X216600767Y-97319476D01*
X216684851Y-97302750D01*
X216707131Y-97300556D01*
X216725550Y-97300556D01*
X216737801Y-97299954D01*
X216756139Y-97298148D01*
X217243861Y-97298148D01*
X217262199Y-97299954D01*
X217262199Y-97299954D01*
G37*
G36*
X210688674Y-97503465D02*
G01*
X210726367Y-97514899D01*
X210761103Y-97533466D01*
X210791548Y-97558452D01*
X210816534Y-97588897D01*
X210835101Y-97623633D01*
X210846535Y-97661326D01*
X210851000Y-97706661D01*
X210851000Y-98793339D01*
X210846535Y-98838674D01*
X210835101Y-98876367D01*
X210816534Y-98911103D01*
X210791548Y-98941548D01*
X210761103Y-98966534D01*
X210726367Y-98985101D01*
X210688674Y-98996535D01*
X210643339Y-99001000D01*
X209806661Y-99001000D01*
X209761326Y-98996535D01*
X209723633Y-98985101D01*
X209688897Y-98966534D01*
X209658452Y-98941548D01*
X209633466Y-98911103D01*
X209614899Y-98876367D01*
X209603465Y-98838674D01*
X209599000Y-98793339D01*
X209599000Y-97706661D01*
X209603465Y-97661326D01*
X209614899Y-97623633D01*
X209633466Y-97588897D01*
X209658452Y-97558452D01*
X209688897Y-97533466D01*
X209723633Y-97514899D01*
X209761326Y-97503465D01*
X209806661Y-97499000D01*
X210643339Y-97499000D01*
X210688674Y-97503465D01*
X210688674Y-97503465D01*
G37*
G36*
X212738674Y-97503465D02*
G01*
X212776367Y-97514899D01*
X212811103Y-97533466D01*
X212841548Y-97558452D01*
X212866534Y-97588897D01*
X212885101Y-97623633D01*
X212896535Y-97661326D01*
X212901000Y-97706661D01*
X212901000Y-98793339D01*
X212896535Y-98838674D01*
X212885101Y-98876367D01*
X212866534Y-98911103D01*
X212841548Y-98941548D01*
X212811103Y-98966534D01*
X212776367Y-98985101D01*
X212738674Y-98996535D01*
X212693339Y-99001000D01*
X211856661Y-99001000D01*
X211811326Y-98996535D01*
X211773633Y-98985101D01*
X211738897Y-98966534D01*
X211708452Y-98941548D01*
X211683466Y-98911103D01*
X211664899Y-98876367D01*
X211653465Y-98838674D01*
X211649000Y-98793339D01*
X211649000Y-97706661D01*
X211653465Y-97661326D01*
X211664899Y-97623633D01*
X211683466Y-97588897D01*
X211708452Y-97558452D01*
X211738897Y-97533466D01*
X211773633Y-97514899D01*
X211811326Y-97503465D01*
X211856661Y-97499000D01*
X212693339Y-97499000D01*
X212738674Y-97503465D01*
X212738674Y-97503465D01*
G37*
G36*
X237027395Y-95835546D02*
G01*
X237200466Y-95907234D01*
X237200467Y-95907235D01*
X237356227Y-96011310D01*
X237488690Y-96143773D01*
X237488691Y-96143775D01*
X237592766Y-96299534D01*
X237664454Y-96472605D01*
X237701000Y-96656333D01*
X237701000Y-96843667D01*
X237664454Y-97027395D01*
X237592766Y-97200466D01*
X237592765Y-97200467D01*
X237488690Y-97356227D01*
X237356227Y-97488690D01*
X237317002Y-97514899D01*
X237200466Y-97592766D01*
X237027395Y-97664454D01*
X236843667Y-97701000D01*
X236656333Y-97701000D01*
X236472605Y-97664454D01*
X236299534Y-97592766D01*
X236182998Y-97514899D01*
X236143773Y-97488690D01*
X236011310Y-97356227D01*
X235907235Y-97200467D01*
X235907234Y-97200466D01*
X235835546Y-97027395D01*
X235799000Y-96843667D01*
X235799000Y-96656333D01*
X235835546Y-96472605D01*
X235907234Y-96299534D01*
X236011309Y-96143775D01*
X236011310Y-96143773D01*
X236143773Y-96011310D01*
X236299533Y-95907235D01*
X236299534Y-95907234D01*
X236472605Y-95835546D01*
X236656333Y-95799000D01*
X236843667Y-95799000D01*
X237027395Y-95835546D01*
X237027395Y-95835546D01*
G37*
G36*
X224327395Y-95835546D02*
G01*
X224500466Y-95907234D01*
X224500467Y-95907235D01*
X224656227Y-96011310D01*
X224788690Y-96143773D01*
X224788691Y-96143775D01*
X224892766Y-96299534D01*
X224964454Y-96472605D01*
X225001000Y-96656333D01*
X225001000Y-96843667D01*
X224964454Y-97027395D01*
X224892766Y-97200466D01*
X224892765Y-97200467D01*
X224788690Y-97356227D01*
X224656227Y-97488690D01*
X224617002Y-97514899D01*
X224500466Y-97592766D01*
X224327395Y-97664454D01*
X224143667Y-97701000D01*
X223956333Y-97701000D01*
X223772605Y-97664454D01*
X223599534Y-97592766D01*
X223482998Y-97514899D01*
X223443773Y-97488690D01*
X223311310Y-97356227D01*
X223207235Y-97200467D01*
X223207234Y-97200466D01*
X223135546Y-97027395D01*
X223099000Y-96843667D01*
X223099000Y-96656333D01*
X223135546Y-96472605D01*
X223207234Y-96299534D01*
X223311309Y-96143775D01*
X223311310Y-96143773D01*
X223443773Y-96011310D01*
X223599533Y-95907235D01*
X223599534Y-95907234D01*
X223772605Y-95835546D01*
X223956333Y-95799000D01*
X224143667Y-95799000D01*
X224327395Y-95835546D01*
X224327395Y-95835546D01*
G37*
G36*
X204001000Y-96651000D02*
G01*
X202899000Y-96651000D01*
X202899000Y-95549000D01*
X204001000Y-95549000D01*
X204001000Y-96651000D01*
X204001000Y-96651000D01*
G37*
G36*
X206501000Y-96651000D02*
G01*
X205399000Y-96651000D01*
X205399000Y-95549000D01*
X206501000Y-95549000D01*
X206501000Y-96651000D01*
X206501000Y-96651000D01*
G37*
G36*
X210688674Y-94753465D02*
G01*
X210726367Y-94764899D01*
X210761103Y-94783466D01*
X210791548Y-94808452D01*
X210816534Y-94838897D01*
X210835101Y-94873633D01*
X210846535Y-94911326D01*
X210851000Y-94956661D01*
X210851000Y-96043339D01*
X210846535Y-96088674D01*
X210835101Y-96126367D01*
X210816534Y-96161103D01*
X210791548Y-96191548D01*
X210761103Y-96216534D01*
X210726367Y-96235101D01*
X210688674Y-96246535D01*
X210643339Y-96251000D01*
X209806661Y-96251000D01*
X209761326Y-96246535D01*
X209723633Y-96235101D01*
X209688897Y-96216534D01*
X209658452Y-96191548D01*
X209633466Y-96161103D01*
X209614899Y-96126367D01*
X209603465Y-96088674D01*
X209599000Y-96043339D01*
X209599000Y-94956661D01*
X209603465Y-94911326D01*
X209614899Y-94873633D01*
X209633466Y-94838897D01*
X209658452Y-94808452D01*
X209688897Y-94783466D01*
X209723633Y-94764899D01*
X209761326Y-94753465D01*
X209806661Y-94749000D01*
X210643339Y-94749000D01*
X210688674Y-94753465D01*
X210688674Y-94753465D01*
G37*
G36*
X212738674Y-94753465D02*
G01*
X212776367Y-94764899D01*
X212811103Y-94783466D01*
X212841548Y-94808452D01*
X212866534Y-94838897D01*
X212885101Y-94873633D01*
X212896535Y-94911326D01*
X212901000Y-94956661D01*
X212901000Y-96043339D01*
X212896535Y-96088674D01*
X212885101Y-96126367D01*
X212866534Y-96161103D01*
X212841548Y-96191548D01*
X212811103Y-96216534D01*
X212776367Y-96235101D01*
X212738674Y-96246535D01*
X212693339Y-96251000D01*
X211856661Y-96251000D01*
X211811326Y-96246535D01*
X211773633Y-96235101D01*
X211738897Y-96216534D01*
X211708452Y-96191548D01*
X211683466Y-96161103D01*
X211664899Y-96126367D01*
X211653465Y-96088674D01*
X211649000Y-96043339D01*
X211649000Y-94956661D01*
X211653465Y-94911326D01*
X211664899Y-94873633D01*
X211683466Y-94838897D01*
X211708452Y-94808452D01*
X211738897Y-94783466D01*
X211773633Y-94764899D01*
X211811326Y-94753465D01*
X211856661Y-94749000D01*
X212693339Y-94749000D01*
X212738674Y-94753465D01*
X212738674Y-94753465D01*
G37*
G36*
X204188674Y-92753465D02*
G01*
X204226367Y-92764899D01*
X204261103Y-92783466D01*
X204291548Y-92808452D01*
X204316534Y-92838897D01*
X204335101Y-92873633D01*
X204346535Y-92911326D01*
X204351000Y-92956661D01*
X204351000Y-94043339D01*
X204346535Y-94088674D01*
X204335101Y-94126367D01*
X204316534Y-94161103D01*
X204291548Y-94191548D01*
X204261103Y-94216534D01*
X204226367Y-94235101D01*
X204188674Y-94246535D01*
X204143339Y-94251000D01*
X203306661Y-94251000D01*
X203261326Y-94246535D01*
X203223633Y-94235101D01*
X203188897Y-94216534D01*
X203158452Y-94191548D01*
X203133466Y-94161103D01*
X203114899Y-94126367D01*
X203103465Y-94088674D01*
X203099000Y-94043339D01*
X203099000Y-92956661D01*
X203103465Y-92911326D01*
X203114899Y-92873633D01*
X203133466Y-92838897D01*
X203158452Y-92808452D01*
X203188897Y-92783466D01*
X203223633Y-92764899D01*
X203261326Y-92753465D01*
X203306661Y-92749000D01*
X204143339Y-92749000D01*
X204188674Y-92753465D01*
X204188674Y-92753465D01*
G37*
G36*
X206238674Y-92753465D02*
G01*
X206276367Y-92764899D01*
X206311103Y-92783466D01*
X206341548Y-92808452D01*
X206366534Y-92838897D01*
X206385101Y-92873633D01*
X206396535Y-92911326D01*
X206401000Y-92956661D01*
X206401000Y-94043339D01*
X206396535Y-94088674D01*
X206385101Y-94126367D01*
X206366534Y-94161103D01*
X206341548Y-94191548D01*
X206311103Y-94216534D01*
X206276367Y-94235101D01*
X206238674Y-94246535D01*
X206193339Y-94251000D01*
X205356661Y-94251000D01*
X205311326Y-94246535D01*
X205273633Y-94235101D01*
X205238897Y-94216534D01*
X205208452Y-94191548D01*
X205183466Y-94161103D01*
X205164899Y-94126367D01*
X205153465Y-94088674D01*
X205149000Y-94043339D01*
X205149000Y-92956661D01*
X205153465Y-92911326D01*
X205164899Y-92873633D01*
X205183466Y-92838897D01*
X205208452Y-92808452D01*
X205238897Y-92783466D01*
X205273633Y-92764899D01*
X205311326Y-92753465D01*
X205356661Y-92749000D01*
X206193339Y-92749000D01*
X206238674Y-92753465D01*
X206238674Y-92753465D01*
G37*
G36*
X218570000Y-93520000D02*
G01*
X217830000Y-93520000D01*
X217830000Y-92080000D01*
X218570000Y-92080000D01*
X218570000Y-93520000D01*
X218570000Y-93520000D01*
G37*
G36*
X216670000Y-93520000D02*
G01*
X215930000Y-93520000D01*
X215930000Y-92080000D01*
X216670000Y-92080000D01*
X216670000Y-93520000D01*
X216670000Y-93520000D01*
G37*
G36*
X214001000Y-93151000D02*
G01*
X212999000Y-93151000D01*
X212999000Y-92249000D01*
X214001000Y-92249000D01*
X214001000Y-93151000D01*
X214001000Y-93151000D01*
G37*
G36*
X236375256Y-89391298D02*
G01*
X236481579Y-89412447D01*
X236782042Y-89536903D01*
X237052451Y-89717585D01*
X237282415Y-89947549D01*
X237282416Y-89947551D01*
X237463098Y-90217960D01*
X237587553Y-90518422D01*
X237651000Y-90837389D01*
X237651000Y-91162611D01*
X237587553Y-91481578D01*
X237477805Y-91746535D01*
X237463097Y-91782042D01*
X237282415Y-92052451D01*
X237052451Y-92282415D01*
X236782042Y-92463097D01*
X236481579Y-92587553D01*
X236375256Y-92608702D01*
X236162611Y-92651000D01*
X235837389Y-92651000D01*
X235624744Y-92608702D01*
X235518421Y-92587553D01*
X235217958Y-92463097D01*
X234947549Y-92282415D01*
X234717585Y-92052451D01*
X234536903Y-91782042D01*
X234522196Y-91746535D01*
X234412447Y-91481578D01*
X234349000Y-91162611D01*
X234349000Y-90837389D01*
X234412447Y-90518422D01*
X234536902Y-90217960D01*
X234717584Y-89947551D01*
X234717585Y-89947549D01*
X234947549Y-89717585D01*
X235217958Y-89536903D01*
X235518421Y-89412447D01*
X235624744Y-89391298D01*
X235837389Y-89349000D01*
X236162611Y-89349000D01*
X236375256Y-89391298D01*
X236375256Y-89391298D01*
G37*
G36*
X224375256Y-89391298D02*
G01*
X224481579Y-89412447D01*
X224782042Y-89536903D01*
X225052451Y-89717585D01*
X225282415Y-89947549D01*
X225282416Y-89947551D01*
X225463098Y-90217960D01*
X225587553Y-90518422D01*
X225651000Y-90837389D01*
X225651000Y-91162611D01*
X225587553Y-91481578D01*
X225477805Y-91746535D01*
X225463097Y-91782042D01*
X225282415Y-92052451D01*
X225052451Y-92282415D01*
X224782042Y-92463097D01*
X224481579Y-92587553D01*
X224375256Y-92608702D01*
X224162611Y-92651000D01*
X223837389Y-92651000D01*
X223624744Y-92608702D01*
X223518421Y-92587553D01*
X223217958Y-92463097D01*
X222947549Y-92282415D01*
X222717585Y-92052451D01*
X222536903Y-91782042D01*
X222522196Y-91746535D01*
X222412447Y-91481578D01*
X222349000Y-91162611D01*
X222349000Y-90837389D01*
X222412447Y-90518422D01*
X222536902Y-90217960D01*
X222717584Y-89947551D01*
X222717585Y-89947549D01*
X222947549Y-89717585D01*
X223217958Y-89536903D01*
X223518421Y-89412447D01*
X223624744Y-89391298D01*
X223837389Y-89349000D01*
X224162611Y-89349000D01*
X224375256Y-89391298D01*
X224375256Y-89391298D01*
G37*
G36*
X212001000Y-92201000D02*
G01*
X210999000Y-92201000D01*
X210999000Y-91299000D01*
X212001000Y-91299000D01*
X212001000Y-92201000D01*
X212001000Y-92201000D01*
G37*
G36*
X204188674Y-90253465D02*
G01*
X204226367Y-90264899D01*
X204261103Y-90283466D01*
X204291548Y-90308452D01*
X204316534Y-90338897D01*
X204335101Y-90373633D01*
X204346535Y-90411326D01*
X204351000Y-90456661D01*
X204351000Y-91543339D01*
X204346535Y-91588674D01*
X204335101Y-91626367D01*
X204316534Y-91661103D01*
X204291548Y-91691548D01*
X204261103Y-91716534D01*
X204226367Y-91735101D01*
X204188674Y-91746535D01*
X204143339Y-91751000D01*
X203306661Y-91751000D01*
X203261326Y-91746535D01*
X203223633Y-91735101D01*
X203188897Y-91716534D01*
X203158452Y-91691548D01*
X203133466Y-91661103D01*
X203114899Y-91626367D01*
X203103465Y-91588674D01*
X203099000Y-91543339D01*
X203099000Y-90456661D01*
X203103465Y-90411326D01*
X203114899Y-90373633D01*
X203133466Y-90338897D01*
X203158452Y-90308452D01*
X203188897Y-90283466D01*
X203223633Y-90264899D01*
X203261326Y-90253465D01*
X203306661Y-90249000D01*
X204143339Y-90249000D01*
X204188674Y-90253465D01*
X204188674Y-90253465D01*
G37*
G36*
X206238674Y-90253465D02*
G01*
X206276367Y-90264899D01*
X206311103Y-90283466D01*
X206341548Y-90308452D01*
X206366534Y-90338897D01*
X206385101Y-90373633D01*
X206396535Y-90411326D01*
X206401000Y-90456661D01*
X206401000Y-91543339D01*
X206396535Y-91588674D01*
X206385101Y-91626367D01*
X206366534Y-91661103D01*
X206341548Y-91691548D01*
X206311103Y-91716534D01*
X206276367Y-91735101D01*
X206238674Y-91746535D01*
X206193339Y-91751000D01*
X205356661Y-91751000D01*
X205311326Y-91746535D01*
X205273633Y-91735101D01*
X205238897Y-91716534D01*
X205208452Y-91691548D01*
X205183466Y-91661103D01*
X205164899Y-91626367D01*
X205153465Y-91588674D01*
X205149000Y-91543339D01*
X205149000Y-90456661D01*
X205153465Y-90411326D01*
X205164899Y-90373633D01*
X205183466Y-90338897D01*
X205208452Y-90308452D01*
X205238897Y-90283466D01*
X205273633Y-90264899D01*
X205311326Y-90253465D01*
X205356661Y-90249000D01*
X206193339Y-90249000D01*
X206238674Y-90253465D01*
X206238674Y-90253465D01*
G37*
G36*
X217620000Y-91420000D02*
G01*
X216880000Y-91420000D01*
X216880000Y-89980000D01*
X217620000Y-89980000D01*
X217620000Y-91420000D01*
X217620000Y-91420000D01*
G37*
G36*
X214001000Y-91251000D02*
G01*
X212999000Y-91251000D01*
X212999000Y-90349000D01*
X214001000Y-90349000D01*
X214001000Y-91251000D01*
X214001000Y-91251000D01*
G37*
G36*
X213651000Y-88501000D02*
G01*
X212749000Y-88501000D01*
X212749000Y-87499000D01*
X213651000Y-87499000D01*
X213651000Y-88501000D01*
X213651000Y-88501000D01*
G37*
G36*
X211751000Y-88501000D02*
G01*
X210849000Y-88501000D01*
X210849000Y-87499000D01*
X211751000Y-87499000D01*
X211751000Y-88501000D01*
X211751000Y-88501000D01*
G37*
G36*
X217270000Y-87420000D02*
G01*
X215830000Y-87420000D01*
X215830000Y-86680000D01*
X217270000Y-86680000D01*
X217270000Y-87420000D01*
X217270000Y-87420000D01*
G37*
G36*
X230551000Y-84251000D02*
G01*
X230322735Y-84251000D01*
X230298349Y-84253402D01*
X230274900Y-84260515D01*
X230253289Y-84272066D01*
X230234347Y-84287611D01*
X230218802Y-84306553D01*
X230207251Y-84328164D01*
X230200138Y-84351613D01*
X230197736Y-84375999D01*
X230200138Y-84400385D01*
X230207251Y-84423834D01*
X230218802Y-84445445D01*
X230234347Y-84464387D01*
X230253289Y-84479932D01*
X230263802Y-84486233D01*
X230307600Y-84509644D01*
X230307602Y-84509645D01*
X230307601Y-84509645D01*
X230391501Y-84578499D01*
X230460357Y-84662400D01*
X230496995Y-84730945D01*
X230511521Y-84758121D01*
X230543027Y-84861985D01*
X230553666Y-84970000D01*
X230543027Y-85078015D01*
X230511521Y-85181879D01*
X230511519Y-85181882D01*
X230460357Y-85277600D01*
X230391501Y-85361501D01*
X230307600Y-85430357D01*
X230239055Y-85466995D01*
X230211879Y-85481521D01*
X230199131Y-85485388D01*
X230176504Y-85494760D01*
X230156130Y-85508374D01*
X230138803Y-85525701D01*
X230125189Y-85546075D01*
X230115812Y-85568714D01*
X230111031Y-85592747D01*
X230111031Y-85617251D01*
X230115811Y-85641285D01*
X230125188Y-85663924D01*
X230138802Y-85684298D01*
X230156129Y-85701625D01*
X230176503Y-85715239D01*
X230199131Y-85724612D01*
X230211879Y-85728479D01*
X230239055Y-85743005D01*
X230307600Y-85779643D01*
X230391501Y-85848499D01*
X230460357Y-85932400D01*
X230496995Y-86000945D01*
X230511521Y-86028121D01*
X230543027Y-86131985D01*
X230553666Y-86240000D01*
X230543027Y-86348015D01*
X230511521Y-86451879D01*
X230505524Y-86463098D01*
X230460357Y-86547600D01*
X230391501Y-86631501D01*
X230307600Y-86700357D01*
X230239055Y-86736995D01*
X230211879Y-86751521D01*
X230108015Y-86783027D01*
X230027067Y-86791000D01*
X229972933Y-86791000D01*
X229891985Y-86783027D01*
X229788121Y-86751521D01*
X229760945Y-86736995D01*
X229692400Y-86700357D01*
X229608499Y-86631501D01*
X229539643Y-86547600D01*
X229494476Y-86463098D01*
X229488479Y-86451879D01*
X229456973Y-86348015D01*
X229446334Y-86240000D01*
X229456973Y-86131985D01*
X229488479Y-86028121D01*
X229503005Y-86000945D01*
X229539643Y-85932400D01*
X229608499Y-85848499D01*
X229692400Y-85779643D01*
X229760945Y-85743005D01*
X229788121Y-85728479D01*
X229800869Y-85724612D01*
X229823496Y-85715240D01*
X229843870Y-85701626D01*
X229861197Y-85684299D01*
X229874811Y-85663925D01*
X229884188Y-85641286D01*
X229888969Y-85617253D01*
X229888969Y-85592749D01*
X229884189Y-85568715D01*
X229874812Y-85546076D01*
X229861198Y-85525702D01*
X229843871Y-85508375D01*
X229823497Y-85494761D01*
X229800869Y-85485388D01*
X229788121Y-85481521D01*
X229760945Y-85466995D01*
X229692400Y-85430357D01*
X229608499Y-85361501D01*
X229539643Y-85277600D01*
X229488481Y-85181882D01*
X229488479Y-85181879D01*
X229456973Y-85078015D01*
X229446334Y-84970000D01*
X229456973Y-84861985D01*
X229488479Y-84758121D01*
X229503005Y-84730945D01*
X229539643Y-84662400D01*
X229608499Y-84578499D01*
X229692399Y-84509645D01*
X229692398Y-84509645D01*
X229692400Y-84509644D01*
X229736193Y-84486236D01*
X229756563Y-84472625D01*
X229773890Y-84455298D01*
X229787504Y-84434924D01*
X229796881Y-84412285D01*
X229801662Y-84388252D01*
X229801662Y-84363748D01*
X229796882Y-84339714D01*
X229787505Y-84317076D01*
X229773891Y-84296701D01*
X229756564Y-84279374D01*
X229736190Y-84265760D01*
X229713551Y-84256383D01*
X229689518Y-84251602D01*
X229677265Y-84251000D01*
X229449000Y-84251000D01*
X229449000Y-83149000D01*
X230551000Y-83149000D01*
X230551000Y-84251000D01*
X230551000Y-84251000D01*
G37*
G36*
X206375256Y-83391298D02*
G01*
X206481579Y-83412447D01*
X206782042Y-83536903D01*
X207052451Y-83717585D01*
X207282415Y-83947549D01*
X207282416Y-83947551D01*
X207463098Y-84217960D01*
X207479013Y-84256383D01*
X207583918Y-84509645D01*
X207587553Y-84518422D01*
X207651000Y-84837389D01*
X207651000Y-85162611D01*
X207628127Y-85277600D01*
X207587553Y-85481579D01*
X207463097Y-85782042D01*
X207282415Y-86052451D01*
X207052451Y-86282415D01*
X206782042Y-86463097D01*
X206481579Y-86587553D01*
X206375256Y-86608702D01*
X206162611Y-86651000D01*
X205837389Y-86651000D01*
X205624744Y-86608702D01*
X205518421Y-86587553D01*
X205217958Y-86463097D01*
X204947549Y-86282415D01*
X204717585Y-86052451D01*
X204536903Y-85782042D01*
X204412447Y-85481579D01*
X204371873Y-85277600D01*
X204349000Y-85162611D01*
X204349000Y-84837389D01*
X204412447Y-84518422D01*
X204416083Y-84509645D01*
X204520987Y-84256383D01*
X204536902Y-84217960D01*
X204717584Y-83947551D01*
X204717585Y-83947549D01*
X204947549Y-83717585D01*
X205217958Y-83536903D01*
X205518421Y-83412447D01*
X205624744Y-83391298D01*
X205837389Y-83349000D01*
X206162611Y-83349000D01*
X206375256Y-83391298D01*
X206375256Y-83391298D01*
G37*
G36*
X212701000Y-86501000D02*
G01*
X211799000Y-86501000D01*
X211799000Y-85499000D01*
X212701000Y-85499000D01*
X212701000Y-86501000D01*
X212701000Y-86501000D01*
G37*
G36*
X219370000Y-86470000D02*
G01*
X217930000Y-86470000D01*
X217930000Y-85730000D01*
X219370000Y-85730000D01*
X219370000Y-86470000D01*
X219370000Y-86470000D01*
G37*
G36*
X217270000Y-85520000D02*
G01*
X215830000Y-85520000D01*
X215830000Y-84780000D01*
X217270000Y-84780000D01*
X217270000Y-85520000D01*
X217270000Y-85520000D01*
G37*
G36*
X215301000Y-83401000D02*
G01*
X214199000Y-83401000D01*
X214199000Y-82299000D01*
X215301000Y-82299000D01*
X215301000Y-83401000D01*
X215301000Y-83401000D01*
G37*
G36*
X212801000Y-83401000D02*
G01*
X211699000Y-83401000D01*
X211699000Y-82299000D01*
X212801000Y-82299000D01*
X212801000Y-83401000D01*
X212801000Y-83401000D01*
G37*
G36*
X219338674Y-80903465D02*
G01*
X219376367Y-80914899D01*
X219411103Y-80933466D01*
X219441548Y-80958452D01*
X219466534Y-80988897D01*
X219485101Y-81023633D01*
X219496535Y-81061326D01*
X219501000Y-81106661D01*
X219501000Y-81943339D01*
X219496535Y-81988674D01*
X219485101Y-82026367D01*
X219466534Y-82061103D01*
X219441548Y-82091548D01*
X219411103Y-82116534D01*
X219376367Y-82135101D01*
X219338674Y-82146535D01*
X219293339Y-82151000D01*
X218206661Y-82151000D01*
X218161326Y-82146535D01*
X218123633Y-82135101D01*
X218088897Y-82116534D01*
X218058452Y-82091548D01*
X218033466Y-82061103D01*
X218014899Y-82026367D01*
X218003465Y-81988674D01*
X217999000Y-81943339D01*
X217999000Y-81106661D01*
X218003465Y-81061326D01*
X218014899Y-81023633D01*
X218033466Y-80988897D01*
X218058452Y-80958452D01*
X218088897Y-80933466D01*
X218123633Y-80914899D01*
X218161326Y-80903465D01*
X218206661Y-80899000D01*
X219293339Y-80899000D01*
X219338674Y-80903465D01*
X219338674Y-80903465D01*
G37*
G36*
X214788674Y-80103465D02*
G01*
X214826367Y-80114899D01*
X214861103Y-80133466D01*
X214891548Y-80158452D01*
X214916534Y-80188897D01*
X214935101Y-80223633D01*
X214946535Y-80261326D01*
X214951000Y-80306661D01*
X214951000Y-81393339D01*
X214946535Y-81438674D01*
X214935101Y-81476367D01*
X214916534Y-81511103D01*
X214891548Y-81541548D01*
X214861103Y-81566534D01*
X214826367Y-81585101D01*
X214788674Y-81596535D01*
X214743339Y-81601000D01*
X213906661Y-81601000D01*
X213861326Y-81596535D01*
X213823633Y-81585101D01*
X213788897Y-81566534D01*
X213758452Y-81541548D01*
X213733466Y-81511103D01*
X213714899Y-81476367D01*
X213703465Y-81438674D01*
X213699000Y-81393339D01*
X213699000Y-80306661D01*
X213703465Y-80261326D01*
X213714899Y-80223633D01*
X213733466Y-80188897D01*
X213758452Y-80158452D01*
X213788897Y-80133466D01*
X213823633Y-80114899D01*
X213861326Y-80103465D01*
X213906661Y-80099000D01*
X214743339Y-80099000D01*
X214788674Y-80103465D01*
X214788674Y-80103465D01*
G37*
G36*
X212738674Y-80103465D02*
G01*
X212776367Y-80114899D01*
X212811103Y-80133466D01*
X212841548Y-80158452D01*
X212866534Y-80188897D01*
X212885101Y-80223633D01*
X212896535Y-80261326D01*
X212901000Y-80306661D01*
X212901000Y-81393339D01*
X212896535Y-81438674D01*
X212885101Y-81476367D01*
X212866534Y-81511103D01*
X212841548Y-81541548D01*
X212811103Y-81566534D01*
X212776367Y-81585101D01*
X212738674Y-81596535D01*
X212693339Y-81601000D01*
X211856661Y-81601000D01*
X211811326Y-81596535D01*
X211773633Y-81585101D01*
X211738897Y-81566534D01*
X211708452Y-81541548D01*
X211683466Y-81511103D01*
X211664899Y-81476367D01*
X211653465Y-81438674D01*
X211649000Y-81393339D01*
X211649000Y-80306661D01*
X211653465Y-80261326D01*
X211664899Y-80223633D01*
X211683466Y-80188897D01*
X211708452Y-80158452D01*
X211738897Y-80133466D01*
X211773633Y-80114899D01*
X211811326Y-80103465D01*
X211856661Y-80099000D01*
X212693339Y-80099000D01*
X212738674Y-80103465D01*
X212738674Y-80103465D01*
G37*
G36*
X224375256Y-77391298D02*
G01*
X224481579Y-77412447D01*
X224782042Y-77536903D01*
X225052451Y-77717585D01*
X225282415Y-77947549D01*
X225463097Y-78217958D01*
X225463098Y-78217960D01*
X225587553Y-78518422D01*
X225651000Y-78837389D01*
X225651000Y-79162611D01*
X225627267Y-79281925D01*
X225587553Y-79481579D01*
X225538087Y-79601000D01*
X225477805Y-79746535D01*
X225463097Y-79782042D01*
X225282415Y-80052451D01*
X225052451Y-80282415D01*
X224782042Y-80463097D01*
X224481579Y-80587553D01*
X224375256Y-80608702D01*
X224162611Y-80651000D01*
X223837389Y-80651000D01*
X223624744Y-80608702D01*
X223518421Y-80587553D01*
X223217958Y-80463097D01*
X222947549Y-80282415D01*
X222717585Y-80052451D01*
X222536903Y-79782042D01*
X222522196Y-79746535D01*
X222461913Y-79601000D01*
X222412447Y-79481579D01*
X222372733Y-79281925D01*
X222349000Y-79162611D01*
X222349000Y-78837389D01*
X222412447Y-78518422D01*
X222536902Y-78217960D01*
X222536903Y-78217958D01*
X222717585Y-77947549D01*
X222947549Y-77717585D01*
X223217958Y-77536903D01*
X223518421Y-77412447D01*
X223624744Y-77391298D01*
X223837389Y-77349000D01*
X224162611Y-77349000D01*
X224375256Y-77391298D01*
X224375256Y-77391298D01*
G37*
G36*
X236375256Y-77391298D02*
G01*
X236481579Y-77412447D01*
X236782042Y-77536903D01*
X237052451Y-77717585D01*
X237282415Y-77947549D01*
X237463097Y-78217958D01*
X237463098Y-78217960D01*
X237587553Y-78518422D01*
X237651000Y-78837389D01*
X237651000Y-79162611D01*
X237627267Y-79281925D01*
X237587553Y-79481579D01*
X237538087Y-79601000D01*
X237477805Y-79746535D01*
X237463097Y-79782042D01*
X237282415Y-80052451D01*
X237052451Y-80282415D01*
X236782042Y-80463097D01*
X236481579Y-80587553D01*
X236375256Y-80608702D01*
X236162611Y-80651000D01*
X235837389Y-80651000D01*
X235624744Y-80608702D01*
X235518421Y-80587553D01*
X235217958Y-80463097D01*
X234947549Y-80282415D01*
X234717585Y-80052451D01*
X234536903Y-79782042D01*
X234522196Y-79746535D01*
X234461913Y-79601000D01*
X234412447Y-79481579D01*
X234372733Y-79281925D01*
X234349000Y-79162611D01*
X234349000Y-78837389D01*
X234412447Y-78518422D01*
X234536902Y-78217960D01*
X234536903Y-78217958D01*
X234717585Y-77947549D01*
X234947549Y-77717585D01*
X235217958Y-77536903D01*
X235518421Y-77412447D01*
X235624744Y-77391298D01*
X235837389Y-77349000D01*
X236162611Y-77349000D01*
X236375256Y-77391298D01*
X236375256Y-77391298D01*
G37*
G36*
X219338674Y-78853465D02*
G01*
X219376367Y-78864899D01*
X219411103Y-78883466D01*
X219441548Y-78908452D01*
X219466534Y-78938897D01*
X219485101Y-78973633D01*
X219496535Y-79011326D01*
X219501000Y-79056661D01*
X219501000Y-79893339D01*
X219496535Y-79938674D01*
X219485101Y-79976367D01*
X219466534Y-80011103D01*
X219441548Y-80041548D01*
X219411103Y-80066534D01*
X219376367Y-80085101D01*
X219338674Y-80096535D01*
X219293339Y-80101000D01*
X218206661Y-80101000D01*
X218161326Y-80096535D01*
X218123633Y-80085101D01*
X218088897Y-80066534D01*
X218058452Y-80041548D01*
X218033466Y-80011103D01*
X218014899Y-79976367D01*
X218003465Y-79938674D01*
X217999000Y-79893339D01*
X217999000Y-79056661D01*
X218003465Y-79011326D01*
X218014899Y-78973633D01*
X218033466Y-78938897D01*
X218058452Y-78908452D01*
X218088897Y-78883466D01*
X218123633Y-78864899D01*
X218161326Y-78853465D01*
X218206661Y-78849000D01*
X219293339Y-78849000D01*
X219338674Y-78853465D01*
X219338674Y-78853465D01*
G37*
G36*
X206488674Y-78253465D02*
G01*
X206526367Y-78264899D01*
X206561103Y-78283466D01*
X206591548Y-78308452D01*
X206616534Y-78338897D01*
X206635101Y-78373633D01*
X206646535Y-78411326D01*
X206651000Y-78456661D01*
X206651000Y-79543339D01*
X206646535Y-79588674D01*
X206635101Y-79626367D01*
X206616534Y-79661103D01*
X206591548Y-79691548D01*
X206561103Y-79716534D01*
X206526367Y-79735101D01*
X206488674Y-79746535D01*
X206443339Y-79751000D01*
X205606661Y-79751000D01*
X205561326Y-79746535D01*
X205523633Y-79735101D01*
X205488897Y-79716534D01*
X205458452Y-79691548D01*
X205433466Y-79661103D01*
X205414899Y-79626367D01*
X205403465Y-79588674D01*
X205399000Y-79543339D01*
X205399000Y-78456661D01*
X205403465Y-78411326D01*
X205414899Y-78373633D01*
X205433466Y-78338897D01*
X205458452Y-78308452D01*
X205488897Y-78283466D01*
X205523633Y-78264899D01*
X205561326Y-78253465D01*
X205606661Y-78249000D01*
X206443339Y-78249000D01*
X206488674Y-78253465D01*
X206488674Y-78253465D01*
G37*
G36*
X204438674Y-78253465D02*
G01*
X204476367Y-78264899D01*
X204511103Y-78283466D01*
X204541548Y-78308452D01*
X204566534Y-78338897D01*
X204585101Y-78373633D01*
X204596535Y-78411326D01*
X204601000Y-78456661D01*
X204601000Y-79543339D01*
X204596535Y-79588674D01*
X204585101Y-79626367D01*
X204566534Y-79661103D01*
X204541548Y-79691548D01*
X204511103Y-79716534D01*
X204476367Y-79735101D01*
X204438674Y-79746535D01*
X204393339Y-79751000D01*
X203556661Y-79751000D01*
X203511326Y-79746535D01*
X203473633Y-79735101D01*
X203438897Y-79716534D01*
X203408452Y-79691548D01*
X203383466Y-79661103D01*
X203364899Y-79626367D01*
X203353465Y-79588674D01*
X203349000Y-79543339D01*
X203349000Y-78456661D01*
X203353465Y-78411326D01*
X203364899Y-78373633D01*
X203383466Y-78338897D01*
X203408452Y-78308452D01*
X203438897Y-78283466D01*
X203473633Y-78264899D01*
X203511326Y-78253465D01*
X203556661Y-78249000D01*
X204393339Y-78249000D01*
X204438674Y-78253465D01*
X204438674Y-78253465D01*
G37*
G36*
X214788674Y-78103465D02*
G01*
X214826367Y-78114899D01*
X214861103Y-78133466D01*
X214891548Y-78158452D01*
X214916534Y-78188897D01*
X214935101Y-78223633D01*
X214946535Y-78261326D01*
X214951000Y-78306661D01*
X214951000Y-79393339D01*
X214946535Y-79438674D01*
X214935101Y-79476367D01*
X214916534Y-79511103D01*
X214891548Y-79541548D01*
X214861103Y-79566534D01*
X214826367Y-79585101D01*
X214788674Y-79596535D01*
X214743339Y-79601000D01*
X213906661Y-79601000D01*
X213861326Y-79596535D01*
X213823633Y-79585101D01*
X213788897Y-79566534D01*
X213758452Y-79541548D01*
X213733466Y-79511103D01*
X213714899Y-79476367D01*
X213703465Y-79438674D01*
X213699000Y-79393339D01*
X213699000Y-78306661D01*
X213703465Y-78261326D01*
X213714899Y-78223633D01*
X213733466Y-78188897D01*
X213758452Y-78158452D01*
X213788897Y-78133466D01*
X213823633Y-78114899D01*
X213861326Y-78103465D01*
X213906661Y-78099000D01*
X214743339Y-78099000D01*
X214788674Y-78103465D01*
X214788674Y-78103465D01*
G37*
G36*
X212738674Y-78103465D02*
G01*
X212776367Y-78114899D01*
X212811103Y-78133466D01*
X212841548Y-78158452D01*
X212866534Y-78188897D01*
X212885101Y-78223633D01*
X212896535Y-78261326D01*
X212901000Y-78306661D01*
X212901000Y-79393339D01*
X212896535Y-79438674D01*
X212885101Y-79476367D01*
X212866534Y-79511103D01*
X212841548Y-79541548D01*
X212811103Y-79566534D01*
X212776367Y-79585101D01*
X212738674Y-79596535D01*
X212693339Y-79601000D01*
X211856661Y-79601000D01*
X211811326Y-79596535D01*
X211773633Y-79585101D01*
X211738897Y-79566534D01*
X211708452Y-79541548D01*
X211683466Y-79511103D01*
X211664899Y-79476367D01*
X211653465Y-79438674D01*
X211649000Y-79393339D01*
X211649000Y-78306661D01*
X211653465Y-78261326D01*
X211664899Y-78223633D01*
X211683466Y-78188897D01*
X211708452Y-78158452D01*
X211738897Y-78133466D01*
X211773633Y-78114899D01*
X211811326Y-78103465D01*
X211856661Y-78099000D01*
X212693339Y-78099000D01*
X212738674Y-78103465D01*
X212738674Y-78103465D01*
G37*
G36*
X208938674Y-78003465D02*
G01*
X208976367Y-78014899D01*
X209011103Y-78033466D01*
X209041548Y-78058452D01*
X209066534Y-78088897D01*
X209085101Y-78123633D01*
X209096535Y-78161326D01*
X209101000Y-78206661D01*
X209101000Y-79293339D01*
X209096535Y-79338674D01*
X209085101Y-79376367D01*
X209066534Y-79411103D01*
X209041548Y-79441548D01*
X209011103Y-79466534D01*
X208976367Y-79485101D01*
X208938674Y-79496535D01*
X208893339Y-79501000D01*
X208056661Y-79501000D01*
X208011326Y-79496535D01*
X207973633Y-79485101D01*
X207938897Y-79466534D01*
X207908452Y-79441548D01*
X207883466Y-79411103D01*
X207864899Y-79376367D01*
X207853465Y-79338674D01*
X207849000Y-79293339D01*
X207849000Y-78206661D01*
X207853465Y-78161326D01*
X207864899Y-78123633D01*
X207883466Y-78088897D01*
X207908452Y-78058452D01*
X207938897Y-78033466D01*
X207973633Y-78014899D01*
X208011326Y-78003465D01*
X208056661Y-77999000D01*
X208893339Y-77999000D01*
X208938674Y-78003465D01*
X208938674Y-78003465D01*
G37*
G36*
X210988674Y-78003465D02*
G01*
X211026367Y-78014899D01*
X211061103Y-78033466D01*
X211091548Y-78058452D01*
X211116534Y-78088897D01*
X211135101Y-78123633D01*
X211146535Y-78161326D01*
X211151000Y-78206661D01*
X211151000Y-79293339D01*
X211146535Y-79338674D01*
X211135101Y-79376367D01*
X211116534Y-79411103D01*
X211091548Y-79441548D01*
X211061103Y-79466534D01*
X211026367Y-79485101D01*
X210988674Y-79496535D01*
X210943339Y-79501000D01*
X210106661Y-79501000D01*
X210061326Y-79496535D01*
X210023633Y-79485101D01*
X209988897Y-79466534D01*
X209958452Y-79441548D01*
X209933466Y-79411103D01*
X209914899Y-79376367D01*
X209903465Y-79338674D01*
X209899000Y-79293339D01*
X209899000Y-78206661D01*
X209903465Y-78161326D01*
X209914899Y-78123633D01*
X209933466Y-78088897D01*
X209958452Y-78058452D01*
X209988897Y-78033466D01*
X210023633Y-78014899D01*
X210061326Y-78003465D01*
X210106661Y-77999000D01*
X210943339Y-77999000D01*
X210988674Y-78003465D01*
X210988674Y-78003465D01*
G37*
G36*
X204305997Y-73203051D02*
G01*
X204339652Y-73213261D01*
X204370665Y-73229838D01*
X204397851Y-73252149D01*
X204420162Y-73279335D01*
X204436739Y-73310348D01*
X204446949Y-73344003D01*
X204451000Y-73385138D01*
X204451000Y-76114862D01*
X204446949Y-76155997D01*
X204436739Y-76189652D01*
X204420162Y-76220665D01*
X204397851Y-76247851D01*
X204370665Y-76270162D01*
X204339652Y-76286739D01*
X204305997Y-76296949D01*
X204264862Y-76301000D01*
X202935138Y-76301000D01*
X202894003Y-76296949D01*
X202860348Y-76286739D01*
X202829335Y-76270162D01*
X202802149Y-76247851D01*
X202779838Y-76220665D01*
X202763261Y-76189652D01*
X202753051Y-76155997D01*
X202749000Y-76114862D01*
X202749000Y-73385138D01*
X202753051Y-73344003D01*
X202763261Y-73310348D01*
X202779838Y-73279335D01*
X202802149Y-73252149D01*
X202829335Y-73229838D01*
X202860348Y-73213261D01*
X202894003Y-73203051D01*
X202935138Y-73199000D01*
X204264862Y-73199000D01*
X204305997Y-73203051D01*
X204305997Y-73203051D01*
G37*
G36*
X215105997Y-73203051D02*
G01*
X215139652Y-73213261D01*
X215170665Y-73229838D01*
X215197851Y-73252149D01*
X215220162Y-73279335D01*
X215236739Y-73310348D01*
X215246949Y-73344003D01*
X215251000Y-73385138D01*
X215251000Y-76114862D01*
X215246949Y-76155997D01*
X215236739Y-76189652D01*
X215220162Y-76220665D01*
X215197851Y-76247851D01*
X215170665Y-76270162D01*
X215139652Y-76286739D01*
X215105997Y-76296949D01*
X215064862Y-76301000D01*
X213735138Y-76301000D01*
X213694003Y-76296949D01*
X213660348Y-76286739D01*
X213629335Y-76270162D01*
X213602149Y-76247851D01*
X213579838Y-76220665D01*
X213563261Y-76189652D01*
X213553051Y-76155997D01*
X213549000Y-76114862D01*
X213549000Y-73385138D01*
X213553051Y-73344003D01*
X213563261Y-73310348D01*
X213579838Y-73279335D01*
X213602149Y-73252149D01*
X213629335Y-73229838D01*
X213660348Y-73213261D01*
X213694003Y-73203051D01*
X213735138Y-73199000D01*
X215064862Y-73199000D01*
X215105997Y-73203051D01*
X215105997Y-73203051D01*
G37*
G36*
X212379434Y-69703686D02*
G01*
X212419284Y-69715774D01*
X212455999Y-69735399D01*
X212488186Y-69761814D01*
X212514601Y-69794001D01*
X212534226Y-69830716D01*
X212546314Y-69870566D01*
X212551000Y-69918141D01*
X212551000Y-75081859D01*
X212546314Y-75129434D01*
X212534226Y-75169284D01*
X212514601Y-75205999D01*
X212488186Y-75238186D01*
X212455999Y-75264601D01*
X212419284Y-75284226D01*
X212379434Y-75296314D01*
X212331859Y-75301000D01*
X211668141Y-75301000D01*
X211620566Y-75296314D01*
X211580716Y-75284226D01*
X211544001Y-75264601D01*
X211511814Y-75238186D01*
X211485399Y-75205999D01*
X211465774Y-75169284D01*
X211453686Y-75129434D01*
X211449000Y-75081859D01*
X211449000Y-69918141D01*
X211453686Y-69870566D01*
X211465774Y-69830716D01*
X211485399Y-69794001D01*
X211511814Y-69761814D01*
X211544001Y-69735399D01*
X211580716Y-69715774D01*
X211620566Y-69703686D01*
X211668141Y-69699000D01*
X212331859Y-69699000D01*
X212379434Y-69703686D01*
X212379434Y-69703686D01*
G37*
G36*
X210379434Y-69703686D02*
G01*
X210419284Y-69715774D01*
X210455999Y-69735399D01*
X210488186Y-69761814D01*
X210514601Y-69794001D01*
X210534226Y-69830716D01*
X210546314Y-69870566D01*
X210551000Y-69918141D01*
X210551000Y-75081859D01*
X210546314Y-75129434D01*
X210534226Y-75169284D01*
X210514601Y-75205999D01*
X210488186Y-75238186D01*
X210455999Y-75264601D01*
X210419284Y-75284226D01*
X210379434Y-75296314D01*
X210331859Y-75301000D01*
X209668141Y-75301000D01*
X209620566Y-75296314D01*
X209580716Y-75284226D01*
X209544001Y-75264601D01*
X209511814Y-75238186D01*
X209485399Y-75205999D01*
X209465774Y-75169284D01*
X209453686Y-75129434D01*
X209449000Y-75081859D01*
X209449000Y-69918141D01*
X209453686Y-69870566D01*
X209465774Y-69830716D01*
X209485399Y-69794001D01*
X209511814Y-69761814D01*
X209544001Y-69735399D01*
X209580716Y-69715774D01*
X209620566Y-69703686D01*
X209668141Y-69699000D01*
X210331859Y-69699000D01*
X210379434Y-69703686D01*
X210379434Y-69703686D01*
G37*
G36*
X208379434Y-69703686D02*
G01*
X208419284Y-69715774D01*
X208455999Y-69735399D01*
X208488186Y-69761814D01*
X208514601Y-69794001D01*
X208534226Y-69830716D01*
X208546314Y-69870566D01*
X208551000Y-69918141D01*
X208551000Y-75081859D01*
X208546314Y-75129434D01*
X208534226Y-75169284D01*
X208514601Y-75205999D01*
X208488186Y-75238186D01*
X208455999Y-75264601D01*
X208419284Y-75284226D01*
X208379434Y-75296314D01*
X208331859Y-75301000D01*
X207668141Y-75301000D01*
X207620566Y-75296314D01*
X207580716Y-75284226D01*
X207544001Y-75264601D01*
X207511814Y-75238186D01*
X207485399Y-75205999D01*
X207465774Y-75169284D01*
X207453686Y-75129434D01*
X207449000Y-75081859D01*
X207449000Y-69918141D01*
X207453686Y-69870566D01*
X207465774Y-69830716D01*
X207485399Y-69794001D01*
X207511814Y-69761814D01*
X207544001Y-69735399D01*
X207580716Y-69715774D01*
X207620566Y-69703686D01*
X207668141Y-69699000D01*
X208331859Y-69699000D01*
X208379434Y-69703686D01*
X208379434Y-69703686D01*
G37*
G36*
X206379434Y-69703686D02*
G01*
X206419284Y-69715774D01*
X206455999Y-69735399D01*
X206488186Y-69761814D01*
X206514601Y-69794001D01*
X206534226Y-69830716D01*
X206546314Y-69870566D01*
X206551000Y-69918141D01*
X206551000Y-75081859D01*
X206546314Y-75129434D01*
X206534226Y-75169284D01*
X206514601Y-75205999D01*
X206488186Y-75238186D01*
X206455999Y-75264601D01*
X206419284Y-75284226D01*
X206379434Y-75296314D01*
X206331859Y-75301000D01*
X205668141Y-75301000D01*
X205620566Y-75296314D01*
X205580716Y-75284226D01*
X205544001Y-75264601D01*
X205511814Y-75238186D01*
X205485399Y-75205999D01*
X205465774Y-75169284D01*
X205453686Y-75129434D01*
X205449000Y-75081859D01*
X205449000Y-69918141D01*
X205453686Y-69870566D01*
X205465774Y-69830716D01*
X205485399Y-69794001D01*
X205511814Y-69761814D01*
X205544001Y-69735399D01*
X205580716Y-69715774D01*
X205620566Y-69703686D01*
X205668141Y-69699000D01*
X206331859Y-69699000D01*
X206379434Y-69703686D01*
X206379434Y-69703686D01*
G37*
G36*
X229407395Y-72125546D02*
G01*
X229580466Y-72197234D01*
X229630086Y-72230389D01*
X229736227Y-72301310D01*
X229868690Y-72433773D01*
X229868691Y-72433775D01*
X229972766Y-72589534D01*
X230044454Y-72762605D01*
X230081000Y-72946333D01*
X230081000Y-73133667D01*
X230044454Y-73317395D01*
X229972766Y-73490466D01*
X229972765Y-73490467D01*
X229868690Y-73646227D01*
X229736227Y-73778690D01*
X229702468Y-73801247D01*
X229580466Y-73882766D01*
X229407395Y-73954454D01*
X229223667Y-73991000D01*
X229036333Y-73991000D01*
X228852605Y-73954454D01*
X228679534Y-73882766D01*
X228557532Y-73801247D01*
X228523773Y-73778690D01*
X228391310Y-73646227D01*
X228287235Y-73490467D01*
X228287234Y-73490466D01*
X228215546Y-73317395D01*
X228179000Y-73133667D01*
X228179000Y-72946333D01*
X228215546Y-72762605D01*
X228287234Y-72589534D01*
X228391309Y-72433775D01*
X228391310Y-72433773D01*
X228523773Y-72301310D01*
X228629914Y-72230389D01*
X228679534Y-72197234D01*
X228852605Y-72125546D01*
X229036333Y-72089000D01*
X229223667Y-72089000D01*
X229407395Y-72125546D01*
X229407395Y-72125546D01*
G37*
G36*
X225609999Y-72199737D02*
G01*
X225619608Y-72202652D01*
X225628472Y-72207390D01*
X225636237Y-72213763D01*
X225646448Y-72226206D01*
X225653378Y-72236575D01*
X225670705Y-72253902D01*
X225691080Y-72267515D01*
X225713720Y-72276891D01*
X225737753Y-72281671D01*
X225762257Y-72281670D01*
X225786290Y-72276888D01*
X225808929Y-72267510D01*
X225829302Y-72253895D01*
X225846629Y-72236568D01*
X225853558Y-72226198D01*
X225863763Y-72213763D01*
X225871528Y-72207390D01*
X225880392Y-72202652D01*
X225890001Y-72199737D01*
X225906140Y-72198148D01*
X226393861Y-72198148D01*
X226412199Y-72199954D01*
X226424450Y-72200556D01*
X226442869Y-72200556D01*
X226465149Y-72202750D01*
X226549233Y-72219476D01*
X226570660Y-72225976D01*
X226649858Y-72258780D01*
X226655303Y-72261691D01*
X226655309Y-72261693D01*
X226664169Y-72266429D01*
X226664173Y-72266432D01*
X226669614Y-72269340D01*
X226740899Y-72316971D01*
X226758204Y-72331172D01*
X226818828Y-72391796D01*
X226833029Y-72409101D01*
X226880660Y-72480386D01*
X226883568Y-72485827D01*
X226883571Y-72485831D01*
X226888307Y-72494691D01*
X226888309Y-72494697D01*
X226891220Y-72500142D01*
X226924024Y-72579340D01*
X226930524Y-72600767D01*
X226947250Y-72684851D01*
X226949444Y-72707131D01*
X226949444Y-72725550D01*
X226950046Y-72737801D01*
X226951852Y-72756139D01*
X226951852Y-73243862D01*
X226950046Y-73262199D01*
X226949444Y-73274450D01*
X226949444Y-73292869D01*
X226947250Y-73315149D01*
X226930524Y-73399233D01*
X226924024Y-73420660D01*
X226891220Y-73499858D01*
X226888309Y-73505303D01*
X226888307Y-73505309D01*
X226883571Y-73514169D01*
X226883568Y-73514173D01*
X226880660Y-73519614D01*
X226833029Y-73590899D01*
X226818828Y-73608204D01*
X226758204Y-73668828D01*
X226740899Y-73683029D01*
X226669614Y-73730660D01*
X226664173Y-73733568D01*
X226664169Y-73733571D01*
X226655309Y-73738307D01*
X226655303Y-73738309D01*
X226649858Y-73741220D01*
X226570660Y-73774024D01*
X226549233Y-73780524D01*
X226465149Y-73797250D01*
X226442869Y-73799444D01*
X226424450Y-73799444D01*
X226412199Y-73800046D01*
X226393862Y-73801852D01*
X225906140Y-73801852D01*
X225890001Y-73800263D01*
X225880392Y-73797348D01*
X225871528Y-73792610D01*
X225863763Y-73786237D01*
X225853552Y-73773794D01*
X225846622Y-73763425D01*
X225829295Y-73746098D01*
X225808920Y-73732485D01*
X225786280Y-73723109D01*
X225762247Y-73718329D01*
X225737743Y-73718330D01*
X225713710Y-73723112D01*
X225691071Y-73732490D01*
X225670698Y-73746105D01*
X225653371Y-73763432D01*
X225646442Y-73773802D01*
X225636237Y-73786237D01*
X225628472Y-73792610D01*
X225619608Y-73797348D01*
X225609999Y-73800263D01*
X225593860Y-73801852D01*
X225106138Y-73801852D01*
X225087801Y-73800046D01*
X225075550Y-73799444D01*
X225057131Y-73799444D01*
X225034851Y-73797250D01*
X224950767Y-73780524D01*
X224929340Y-73774024D01*
X224850142Y-73741220D01*
X224844697Y-73738309D01*
X224844691Y-73738307D01*
X224835831Y-73733571D01*
X224835827Y-73733568D01*
X224830386Y-73730660D01*
X224759101Y-73683029D01*
X224741796Y-73668828D01*
X224681172Y-73608204D01*
X224666971Y-73590899D01*
X224619340Y-73519614D01*
X224616432Y-73514173D01*
X224616429Y-73514169D01*
X224611693Y-73505309D01*
X224611691Y-73505303D01*
X224608780Y-73499858D01*
X224575976Y-73420660D01*
X224569476Y-73399233D01*
X224552750Y-73315149D01*
X224550556Y-73292869D01*
X224550556Y-73274450D01*
X224549954Y-73262199D01*
X224548148Y-73243862D01*
X224548148Y-72756139D01*
X224549954Y-72737801D01*
X224550556Y-72725550D01*
X224550556Y-72707131D01*
X224552750Y-72684851D01*
X224569476Y-72600767D01*
X224575976Y-72579340D01*
X224608780Y-72500142D01*
X224611691Y-72494697D01*
X224611693Y-72494691D01*
X224616429Y-72485831D01*
X224616432Y-72485827D01*
X224619340Y-72480386D01*
X224666971Y-72409101D01*
X224681172Y-72391796D01*
X224741796Y-72331172D01*
X224759101Y-72316971D01*
X224830386Y-72269340D01*
X224835827Y-72266432D01*
X224835831Y-72266429D01*
X224844691Y-72261693D01*
X224844697Y-72261691D01*
X224850142Y-72258780D01*
X224929340Y-72225976D01*
X224950767Y-72219476D01*
X225034851Y-72202750D01*
X225057131Y-72200556D01*
X225075550Y-72200556D01*
X225087801Y-72199954D01*
X225106139Y-72198148D01*
X225593860Y-72198148D01*
X225609999Y-72199737D01*
X225609999Y-72199737D01*
G37*
G36*
X237027395Y-69585546D02*
G01*
X237200466Y-69657234D01*
X237200467Y-69657235D01*
X237356227Y-69761310D01*
X237488690Y-69893773D01*
X237488691Y-69893775D01*
X237592766Y-70049534D01*
X237664454Y-70222605D01*
X237701000Y-70406333D01*
X237701000Y-70593667D01*
X237664454Y-70777395D01*
X237592766Y-70950466D01*
X237592765Y-70950467D01*
X237488690Y-71106227D01*
X237356227Y-71238690D01*
X237277818Y-71291081D01*
X237200466Y-71342766D01*
X237027395Y-71414454D01*
X236843667Y-71451000D01*
X236656333Y-71451000D01*
X236472605Y-71414454D01*
X236299534Y-71342766D01*
X236222182Y-71291081D01*
X236143773Y-71238690D01*
X236011310Y-71106227D01*
X235907235Y-70950467D01*
X235907234Y-70950466D01*
X235835546Y-70777395D01*
X235799000Y-70593667D01*
X235799000Y-70406333D01*
X235835546Y-70222605D01*
X235907234Y-70049534D01*
X236011309Y-69893775D01*
X236011310Y-69893773D01*
X236143773Y-69761310D01*
X236299533Y-69657235D01*
X236299534Y-69657234D01*
X236472605Y-69585546D01*
X236656333Y-69549000D01*
X236843667Y-69549000D01*
X237027395Y-69585546D01*
X237027395Y-69585546D01*
G37*
G36*
X224327395Y-69585546D02*
G01*
X224500466Y-69657234D01*
X224500467Y-69657235D01*
X224656227Y-69761310D01*
X224788690Y-69893773D01*
X224788691Y-69893775D01*
X224892766Y-70049534D01*
X224964454Y-70222605D01*
X225001000Y-70406333D01*
X225001000Y-70593667D01*
X224964454Y-70777395D01*
X224892766Y-70950466D01*
X224892765Y-70950467D01*
X224788690Y-71106227D01*
X224656227Y-71238690D01*
X224577818Y-71291081D01*
X224500466Y-71342766D01*
X224327395Y-71414454D01*
X224143667Y-71451000D01*
X223956333Y-71451000D01*
X223772605Y-71414454D01*
X223599534Y-71342766D01*
X223522182Y-71291081D01*
X223443773Y-71238690D01*
X223311310Y-71106227D01*
X223207235Y-70950467D01*
X223207234Y-70950466D01*
X223135546Y-70777395D01*
X223099000Y-70593667D01*
X223099000Y-70406333D01*
X223135546Y-70222605D01*
X223207234Y-70049534D01*
X223311309Y-69893775D01*
X223311310Y-69893773D01*
X223443773Y-69761310D01*
X223599533Y-69657235D01*
X223599534Y-69657234D01*
X223772605Y-69585546D01*
X223956333Y-69549000D01*
X224143667Y-69549000D01*
X224327395Y-69585546D01*
X224327395Y-69585546D01*
G37*
M02*
