G04 #@! TF.GenerationSoftware,KiCad,Pcbnew,(5.1.0)-1*
G04 #@! TF.CreationDate,2020-03-11T13:06:58+00:00*
G04 #@! TF.ProjectId,2D Top Board,32442054-6f70-4204-926f-6172642e6b69,-*
G04 #@! TF.SameCoordinates,Original*
G04 #@! TF.FileFunction,Soldermask,Bot*
G04 #@! TF.FilePolarity,Negative*
%FSLAX46Y46*%
G04 Gerber Fmt 4.6, Leading zero omitted, Abs format (unit mm)*
G04 Created by KiCad (PCBNEW (5.1.0)-1) date 2020-03-11 13:06:58*
%MOMM*%
%LPD*%
G04 APERTURE LIST*
%ADD10C,2.700000*%
%ADD11R,1.700000X1.700000*%
%ADD12O,1.700000X1.700000*%
%ADD13C,2.050000*%
%ADD14R,2.050000X2.050000*%
%ADD15C,3.000000*%
%ADD16R,3.000000X3.000000*%
G04 APERTURE END LIST*
D10*
X111450000Y-69560000D03*
D11*
X116320000Y-70830000D03*
D12*
X116320000Y-68290000D03*
X118860000Y-70830000D03*
X118860000Y-68290000D03*
X121400000Y-70830000D03*
X121400000Y-68290000D03*
X123940000Y-70830000D03*
X123940000Y-68290000D03*
X126480000Y-70830000D03*
X126480000Y-68290000D03*
X129020000Y-70830000D03*
X129020000Y-68290000D03*
X131560000Y-70830000D03*
X131560000Y-68290000D03*
X134100000Y-70830000D03*
X134100000Y-68290000D03*
X136640000Y-70830000D03*
X136640000Y-68290000D03*
X139180000Y-70830000D03*
X139180000Y-68290000D03*
X141720000Y-70830000D03*
X141720000Y-68290000D03*
X144260000Y-70830000D03*
X144260000Y-68290000D03*
X146800000Y-70830000D03*
X146800000Y-68290000D03*
X149340000Y-70830000D03*
X149340000Y-68290000D03*
X151880000Y-70830000D03*
X151880000Y-68290000D03*
X154420000Y-70830000D03*
X154420000Y-68290000D03*
X156960000Y-70830000D03*
X156960000Y-68290000D03*
X159500000Y-70830000D03*
X159500000Y-68290000D03*
X162040000Y-70830000D03*
X162040000Y-68290000D03*
X164580000Y-70830000D03*
X164580000Y-68290000D03*
D10*
X169450000Y-118560000D03*
X111450000Y-118560000D03*
X169450000Y-69560000D03*
D13*
X113000000Y-110460000D03*
D14*
X113000000Y-106500000D03*
D15*
X112750000Y-96170000D03*
X112750000Y-91090000D03*
D16*
X112750000Y-101250000D03*
D15*
X112750000Y-86010000D03*
X112750000Y-80930000D03*
X112750000Y-75850000D03*
M02*
