M48
; DRILL file {KiCad (5.1.0)-1} date 11/03/2020 13:05:55
; FORMAT={3:3/ absolute / metric / suppress leading zeros}
; #@! TF.CreationDate,2020-03-11T13:05:55+00:00
; #@! TF.GenerationSoftware,Kicad,Pcbnew,(5.1.0)-1
FMAT,2
METRIC,TZ
T1C0.600
T2C1.000
T3C1.520
T4C1.700
T5C2.700
%
G90
G05
T1
X116874Y-113659
X149178Y-118800
X149429Y-109550
X163443Y-116135
X163645Y-111452
X163994Y-108535
X165080Y-115407
X165150Y-105600
X166968Y-112384
X167359Y-102262
X168158Y-110766
X169113Y-107600
X172105Y-92355
X172307Y-106868
X173187Y-102255
X173982Y-105823
X175200Y-92949
X176611Y-102255
X177451Y-113112
X178202Y-110132
X178268Y-111576
X179828Y-116405
X180166Y-111800
X180534Y-107800
X183132Y-92269
X183673Y-117549
X183948Y-118649
X184371Y-91031
X190270Y-86105
X190469Y-87450
T2
X116320Y-68290
X116320Y-70830
X118860Y-68290
X118860Y-70830
X121400Y-68290
X121400Y-70830
X123940Y-68290
X123940Y-70830
X126480Y-68290
X126480Y-70830
X129020Y-68290
X129020Y-70830
X131560Y-68290
X131560Y-70830
X134100Y-68290
X134100Y-70830
X136640Y-68290
X136640Y-70830
X139180Y-68290
X139180Y-70830
X141720Y-68290
X141720Y-70830
X144260Y-68290
X144260Y-70830
X146800Y-68290
X146800Y-70830
X149340Y-68290
X149340Y-70830
X151880Y-68290
X151880Y-70830
X154420Y-68290
X154420Y-70830
X156960Y-68290
X156960Y-70830
X159500Y-68290
X159500Y-70830
X162040Y-68290
X162040Y-70830
X164580Y-68290
X164580Y-70830
T3
X112750Y-75850
X112750Y-80930
X112750Y-86010
X112750Y-91090
X112750Y-96170
X112750Y-101250
T4
X113000Y-106500
X113000Y-110460
T5
X111450Y-69560
X111450Y-118560
X169450Y-118560
X169450Y-69560
T0
M30
