G04 #@! TF.GenerationSoftware,KiCad,Pcbnew,(5.1.0)-1*
G04 #@! TF.CreationDate,2020-03-11T13:06:58+00:00*
G04 #@! TF.ProjectId,2D Top Board,32442054-6f70-4204-926f-6172642e6b69,-*
G04 #@! TF.SameCoordinates,Original*
G04 #@! TF.FileFunction,Soldermask,Top*
G04 #@! TF.FilePolarity,Negative*
%FSLAX46Y46*%
G04 Gerber Fmt 4.6, Leading zero omitted, Abs format (unit mm)*
G04 Created by KiCad (PCBNEW (5.1.0)-1) date 2020-03-11 13:06:58*
%MOMM*%
%LPD*%
G04 APERTURE LIST*
%ADD10C,2.700000*%
%ADD11R,1.700000X1.700000*%
%ADD12O,1.700000X1.700000*%
%ADD13C,0.150000*%
%ADD14C,0.950000*%
%ADD15C,1.000000*%
%ADD16C,1.600000*%
%ADD17C,2.050000*%
%ADD18R,2.050000X2.050000*%
%ADD19C,3.000000*%
%ADD20R,3.000000X3.000000*%
%ADD21R,0.740000X1.440000*%
%ADD22C,1.150000*%
%ADD23R,0.900000X0.900000*%
%ADD24R,2.750000X2.750000*%
%ADD25R,0.260000X0.830000*%
%ADD26R,0.830000X0.260000*%
%ADD27R,2.000000X3.800000*%
%ADD28R,2.000000X1.500000*%
%ADD29C,0.300000*%
%ADD30R,3.020000X1.340000*%
%ADD31R,1.650000X0.600000*%
%ADD32R,1.850000X0.600000*%
%ADD33R,0.600000X1.650000*%
%ADD34R,0.600000X1.850000*%
G04 APERTURE END LIST*
D10*
X111450000Y-69560000D03*
D11*
X116320000Y-70830000D03*
D12*
X116320000Y-68290000D03*
X118860000Y-70830000D03*
X118860000Y-68290000D03*
X121400000Y-70830000D03*
X121400000Y-68290000D03*
X123940000Y-70830000D03*
X123940000Y-68290000D03*
X126480000Y-70830000D03*
X126480000Y-68290000D03*
X129020000Y-70830000D03*
X129020000Y-68290000D03*
X131560000Y-70830000D03*
X131560000Y-68290000D03*
X134100000Y-70830000D03*
X134100000Y-68290000D03*
X136640000Y-70830000D03*
X136640000Y-68290000D03*
X139180000Y-70830000D03*
X139180000Y-68290000D03*
X141720000Y-70830000D03*
X141720000Y-68290000D03*
X144260000Y-70830000D03*
X144260000Y-68290000D03*
X146800000Y-70830000D03*
X146800000Y-68290000D03*
X149340000Y-70830000D03*
X149340000Y-68290000D03*
X151880000Y-70830000D03*
X151880000Y-68290000D03*
X154420000Y-70830000D03*
X154420000Y-68290000D03*
X156960000Y-70830000D03*
X156960000Y-68290000D03*
X159500000Y-70830000D03*
X159500000Y-68290000D03*
X162040000Y-70830000D03*
X162040000Y-68290000D03*
X164580000Y-70830000D03*
X164580000Y-68290000D03*
D10*
X169450000Y-118560000D03*
X111450000Y-118560000D03*
X169450000Y-69560000D03*
D13*
G36*
X179260779Y-78301144D02*
G01*
X179283834Y-78304563D01*
X179306443Y-78310227D01*
X179328387Y-78318079D01*
X179349457Y-78328044D01*
X179369448Y-78340026D01*
X179388168Y-78353910D01*
X179405438Y-78369562D01*
X179421090Y-78386832D01*
X179434974Y-78405552D01*
X179446956Y-78425543D01*
X179456921Y-78446613D01*
X179464773Y-78468557D01*
X179470437Y-78491166D01*
X179473856Y-78514221D01*
X179475000Y-78537500D01*
X179475000Y-79112500D01*
X179473856Y-79135779D01*
X179470437Y-79158834D01*
X179464773Y-79181443D01*
X179456921Y-79203387D01*
X179446956Y-79224457D01*
X179434974Y-79244448D01*
X179421090Y-79263168D01*
X179405438Y-79280438D01*
X179388168Y-79296090D01*
X179369448Y-79309974D01*
X179349457Y-79321956D01*
X179328387Y-79331921D01*
X179306443Y-79339773D01*
X179283834Y-79345437D01*
X179260779Y-79348856D01*
X179237500Y-79350000D01*
X178762500Y-79350000D01*
X178739221Y-79348856D01*
X178716166Y-79345437D01*
X178693557Y-79339773D01*
X178671613Y-79331921D01*
X178650543Y-79321956D01*
X178630552Y-79309974D01*
X178611832Y-79296090D01*
X178594562Y-79280438D01*
X178578910Y-79263168D01*
X178565026Y-79244448D01*
X178553044Y-79224457D01*
X178543079Y-79203387D01*
X178535227Y-79181443D01*
X178529563Y-79158834D01*
X178526144Y-79135779D01*
X178525000Y-79112500D01*
X178525000Y-78537500D01*
X178526144Y-78514221D01*
X178529563Y-78491166D01*
X178535227Y-78468557D01*
X178543079Y-78446613D01*
X178553044Y-78425543D01*
X178565026Y-78405552D01*
X178578910Y-78386832D01*
X178594562Y-78369562D01*
X178611832Y-78353910D01*
X178630552Y-78340026D01*
X178650543Y-78328044D01*
X178671613Y-78318079D01*
X178693557Y-78310227D01*
X178716166Y-78304563D01*
X178739221Y-78301144D01*
X178762500Y-78300000D01*
X179237500Y-78300000D01*
X179260779Y-78301144D01*
X179260779Y-78301144D01*
G37*
D14*
X179000000Y-78825000D03*
D13*
G36*
X179260779Y-76551144D02*
G01*
X179283834Y-76554563D01*
X179306443Y-76560227D01*
X179328387Y-76568079D01*
X179349457Y-76578044D01*
X179369448Y-76590026D01*
X179388168Y-76603910D01*
X179405438Y-76619562D01*
X179421090Y-76636832D01*
X179434974Y-76655552D01*
X179446956Y-76675543D01*
X179456921Y-76696613D01*
X179464773Y-76718557D01*
X179470437Y-76741166D01*
X179473856Y-76764221D01*
X179475000Y-76787500D01*
X179475000Y-77362500D01*
X179473856Y-77385779D01*
X179470437Y-77408834D01*
X179464773Y-77431443D01*
X179456921Y-77453387D01*
X179446956Y-77474457D01*
X179434974Y-77494448D01*
X179421090Y-77513168D01*
X179405438Y-77530438D01*
X179388168Y-77546090D01*
X179369448Y-77559974D01*
X179349457Y-77571956D01*
X179328387Y-77581921D01*
X179306443Y-77589773D01*
X179283834Y-77595437D01*
X179260779Y-77598856D01*
X179237500Y-77600000D01*
X178762500Y-77600000D01*
X178739221Y-77598856D01*
X178716166Y-77595437D01*
X178693557Y-77589773D01*
X178671613Y-77581921D01*
X178650543Y-77571956D01*
X178630552Y-77559974D01*
X178611832Y-77546090D01*
X178594562Y-77530438D01*
X178578910Y-77513168D01*
X178565026Y-77494448D01*
X178553044Y-77474457D01*
X178543079Y-77453387D01*
X178535227Y-77431443D01*
X178529563Y-77408834D01*
X178526144Y-77385779D01*
X178525000Y-77362500D01*
X178525000Y-76787500D01*
X178526144Y-76764221D01*
X178529563Y-76741166D01*
X178535227Y-76718557D01*
X178543079Y-76696613D01*
X178553044Y-76675543D01*
X178565026Y-76655552D01*
X178578910Y-76636832D01*
X178594562Y-76619562D01*
X178611832Y-76603910D01*
X178630552Y-76590026D01*
X178650543Y-76578044D01*
X178671613Y-76568079D01*
X178693557Y-76560227D01*
X178716166Y-76554563D01*
X178739221Y-76551144D01*
X178762500Y-76550000D01*
X179237500Y-76550000D01*
X179260779Y-76551144D01*
X179260779Y-76551144D01*
G37*
D14*
X179000000Y-77075000D03*
D13*
G36*
X177660779Y-76601144D02*
G01*
X177683834Y-76604563D01*
X177706443Y-76610227D01*
X177728387Y-76618079D01*
X177749457Y-76628044D01*
X177769448Y-76640026D01*
X177788168Y-76653910D01*
X177805438Y-76669562D01*
X177821090Y-76686832D01*
X177834974Y-76705552D01*
X177846956Y-76725543D01*
X177856921Y-76746613D01*
X177864773Y-76768557D01*
X177870437Y-76791166D01*
X177873856Y-76814221D01*
X177875000Y-76837500D01*
X177875000Y-77412500D01*
X177873856Y-77435779D01*
X177870437Y-77458834D01*
X177864773Y-77481443D01*
X177856921Y-77503387D01*
X177846956Y-77524457D01*
X177834974Y-77544448D01*
X177821090Y-77563168D01*
X177805438Y-77580438D01*
X177788168Y-77596090D01*
X177769448Y-77609974D01*
X177749457Y-77621956D01*
X177728387Y-77631921D01*
X177706443Y-77639773D01*
X177683834Y-77645437D01*
X177660779Y-77648856D01*
X177637500Y-77650000D01*
X177162500Y-77650000D01*
X177139221Y-77648856D01*
X177116166Y-77645437D01*
X177093557Y-77639773D01*
X177071613Y-77631921D01*
X177050543Y-77621956D01*
X177030552Y-77609974D01*
X177011832Y-77596090D01*
X176994562Y-77580438D01*
X176978910Y-77563168D01*
X176965026Y-77544448D01*
X176953044Y-77524457D01*
X176943079Y-77503387D01*
X176935227Y-77481443D01*
X176929563Y-77458834D01*
X176926144Y-77435779D01*
X176925000Y-77412500D01*
X176925000Y-76837500D01*
X176926144Y-76814221D01*
X176929563Y-76791166D01*
X176935227Y-76768557D01*
X176943079Y-76746613D01*
X176953044Y-76725543D01*
X176965026Y-76705552D01*
X176978910Y-76686832D01*
X176994562Y-76669562D01*
X177011832Y-76653910D01*
X177030552Y-76640026D01*
X177050543Y-76628044D01*
X177071613Y-76618079D01*
X177093557Y-76610227D01*
X177116166Y-76604563D01*
X177139221Y-76601144D01*
X177162500Y-76600000D01*
X177637500Y-76600000D01*
X177660779Y-76601144D01*
X177660779Y-76601144D01*
G37*
D14*
X177400000Y-77125000D03*
D13*
G36*
X177660779Y-78351144D02*
G01*
X177683834Y-78354563D01*
X177706443Y-78360227D01*
X177728387Y-78368079D01*
X177749457Y-78378044D01*
X177769448Y-78390026D01*
X177788168Y-78403910D01*
X177805438Y-78419562D01*
X177821090Y-78436832D01*
X177834974Y-78455552D01*
X177846956Y-78475543D01*
X177856921Y-78496613D01*
X177864773Y-78518557D01*
X177870437Y-78541166D01*
X177873856Y-78564221D01*
X177875000Y-78587500D01*
X177875000Y-79162500D01*
X177873856Y-79185779D01*
X177870437Y-79208834D01*
X177864773Y-79231443D01*
X177856921Y-79253387D01*
X177846956Y-79274457D01*
X177834974Y-79294448D01*
X177821090Y-79313168D01*
X177805438Y-79330438D01*
X177788168Y-79346090D01*
X177769448Y-79359974D01*
X177749457Y-79371956D01*
X177728387Y-79381921D01*
X177706443Y-79389773D01*
X177683834Y-79395437D01*
X177660779Y-79398856D01*
X177637500Y-79400000D01*
X177162500Y-79400000D01*
X177139221Y-79398856D01*
X177116166Y-79395437D01*
X177093557Y-79389773D01*
X177071613Y-79381921D01*
X177050543Y-79371956D01*
X177030552Y-79359974D01*
X177011832Y-79346090D01*
X176994562Y-79330438D01*
X176978910Y-79313168D01*
X176965026Y-79294448D01*
X176953044Y-79274457D01*
X176943079Y-79253387D01*
X176935227Y-79231443D01*
X176929563Y-79208834D01*
X176926144Y-79185779D01*
X176925000Y-79162500D01*
X176925000Y-78587500D01*
X176926144Y-78564221D01*
X176929563Y-78541166D01*
X176935227Y-78518557D01*
X176943079Y-78496613D01*
X176953044Y-78475543D01*
X176965026Y-78455552D01*
X176978910Y-78436832D01*
X176994562Y-78419562D01*
X177011832Y-78403910D01*
X177030552Y-78390026D01*
X177050543Y-78378044D01*
X177071613Y-78368079D01*
X177093557Y-78360227D01*
X177116166Y-78354563D01*
X177139221Y-78351144D01*
X177162500Y-78350000D01*
X177637500Y-78350000D01*
X177660779Y-78351144D01*
X177660779Y-78351144D01*
G37*
D14*
X177400000Y-78875000D03*
D13*
G36*
X176115779Y-78376144D02*
G01*
X176138834Y-78379563D01*
X176161443Y-78385227D01*
X176183387Y-78393079D01*
X176204457Y-78403044D01*
X176224448Y-78415026D01*
X176243168Y-78428910D01*
X176260438Y-78444562D01*
X176276090Y-78461832D01*
X176289974Y-78480552D01*
X176301956Y-78500543D01*
X176311921Y-78521613D01*
X176319773Y-78543557D01*
X176325437Y-78566166D01*
X176328856Y-78589221D01*
X176330000Y-78612500D01*
X176330000Y-79187500D01*
X176328856Y-79210779D01*
X176325437Y-79233834D01*
X176319773Y-79256443D01*
X176311921Y-79278387D01*
X176301956Y-79299457D01*
X176289974Y-79319448D01*
X176276090Y-79338168D01*
X176260438Y-79355438D01*
X176243168Y-79371090D01*
X176224448Y-79384974D01*
X176204457Y-79396956D01*
X176183387Y-79406921D01*
X176161443Y-79414773D01*
X176138834Y-79420437D01*
X176115779Y-79423856D01*
X176092500Y-79425000D01*
X175617500Y-79425000D01*
X175594221Y-79423856D01*
X175571166Y-79420437D01*
X175548557Y-79414773D01*
X175526613Y-79406921D01*
X175505543Y-79396956D01*
X175485552Y-79384974D01*
X175466832Y-79371090D01*
X175449562Y-79355438D01*
X175433910Y-79338168D01*
X175420026Y-79319448D01*
X175408044Y-79299457D01*
X175398079Y-79278387D01*
X175390227Y-79256443D01*
X175384563Y-79233834D01*
X175381144Y-79210779D01*
X175380000Y-79187500D01*
X175380000Y-78612500D01*
X175381144Y-78589221D01*
X175384563Y-78566166D01*
X175390227Y-78543557D01*
X175398079Y-78521613D01*
X175408044Y-78500543D01*
X175420026Y-78480552D01*
X175433910Y-78461832D01*
X175449562Y-78444562D01*
X175466832Y-78428910D01*
X175485552Y-78415026D01*
X175505543Y-78403044D01*
X175526613Y-78393079D01*
X175548557Y-78385227D01*
X175571166Y-78379563D01*
X175594221Y-78376144D01*
X175617500Y-78375000D01*
X176092500Y-78375000D01*
X176115779Y-78376144D01*
X176115779Y-78376144D01*
G37*
D14*
X175855000Y-78900000D03*
D13*
G36*
X176115779Y-76626144D02*
G01*
X176138834Y-76629563D01*
X176161443Y-76635227D01*
X176183387Y-76643079D01*
X176204457Y-76653044D01*
X176224448Y-76665026D01*
X176243168Y-76678910D01*
X176260438Y-76694562D01*
X176276090Y-76711832D01*
X176289974Y-76730552D01*
X176301956Y-76750543D01*
X176311921Y-76771613D01*
X176319773Y-76793557D01*
X176325437Y-76816166D01*
X176328856Y-76839221D01*
X176330000Y-76862500D01*
X176330000Y-77437500D01*
X176328856Y-77460779D01*
X176325437Y-77483834D01*
X176319773Y-77506443D01*
X176311921Y-77528387D01*
X176301956Y-77549457D01*
X176289974Y-77569448D01*
X176276090Y-77588168D01*
X176260438Y-77605438D01*
X176243168Y-77621090D01*
X176224448Y-77634974D01*
X176204457Y-77646956D01*
X176183387Y-77656921D01*
X176161443Y-77664773D01*
X176138834Y-77670437D01*
X176115779Y-77673856D01*
X176092500Y-77675000D01*
X175617500Y-77675000D01*
X175594221Y-77673856D01*
X175571166Y-77670437D01*
X175548557Y-77664773D01*
X175526613Y-77656921D01*
X175505543Y-77646956D01*
X175485552Y-77634974D01*
X175466832Y-77621090D01*
X175449562Y-77605438D01*
X175433910Y-77588168D01*
X175420026Y-77569448D01*
X175408044Y-77549457D01*
X175398079Y-77528387D01*
X175390227Y-77506443D01*
X175384563Y-77483834D01*
X175381144Y-77460779D01*
X175380000Y-77437500D01*
X175380000Y-76862500D01*
X175381144Y-76839221D01*
X175384563Y-76816166D01*
X175390227Y-76793557D01*
X175398079Y-76771613D01*
X175408044Y-76750543D01*
X175420026Y-76730552D01*
X175433910Y-76711832D01*
X175449562Y-76694562D01*
X175466832Y-76678910D01*
X175485552Y-76665026D01*
X175505543Y-76653044D01*
X175526613Y-76643079D01*
X175548557Y-76635227D01*
X175571166Y-76629563D01*
X175594221Y-76626144D01*
X175617500Y-76625000D01*
X176092500Y-76625000D01*
X176115779Y-76626144D01*
X176115779Y-76626144D01*
G37*
D14*
X175855000Y-77150000D03*
D13*
G36*
X144574504Y-109051204D02*
G01*
X144598773Y-109054804D01*
X144622571Y-109060765D01*
X144645671Y-109069030D01*
X144667849Y-109079520D01*
X144688893Y-109092133D01*
X144708598Y-109106747D01*
X144726777Y-109123223D01*
X144743253Y-109141402D01*
X144757867Y-109161107D01*
X144770480Y-109182151D01*
X144780970Y-109204329D01*
X144789235Y-109227429D01*
X144795196Y-109251227D01*
X144798796Y-109275496D01*
X144800000Y-109300000D01*
X144800000Y-109800000D01*
X144798796Y-109824504D01*
X144795196Y-109848773D01*
X144789235Y-109872571D01*
X144780970Y-109895671D01*
X144770480Y-109917849D01*
X144757867Y-109938893D01*
X144743253Y-109958598D01*
X144726777Y-109976777D01*
X144708598Y-109993253D01*
X144688893Y-110007867D01*
X144667849Y-110020480D01*
X144645671Y-110030970D01*
X144622571Y-110039235D01*
X144598773Y-110045196D01*
X144574504Y-110048796D01*
X144550000Y-110050000D01*
X139550000Y-110050000D01*
X139525496Y-110048796D01*
X139501227Y-110045196D01*
X139477429Y-110039235D01*
X139454329Y-110030970D01*
X139432151Y-110020480D01*
X139411107Y-110007867D01*
X139391402Y-109993253D01*
X139373223Y-109976777D01*
X139356747Y-109958598D01*
X139342133Y-109938893D01*
X139329520Y-109917849D01*
X139319030Y-109895671D01*
X139310765Y-109872571D01*
X139304804Y-109848773D01*
X139301204Y-109824504D01*
X139300000Y-109800000D01*
X139300000Y-109300000D01*
X139301204Y-109275496D01*
X139304804Y-109251227D01*
X139310765Y-109227429D01*
X139319030Y-109204329D01*
X139329520Y-109182151D01*
X139342133Y-109161107D01*
X139356747Y-109141402D01*
X139373223Y-109123223D01*
X139391402Y-109106747D01*
X139411107Y-109092133D01*
X139432151Y-109079520D01*
X139454329Y-109069030D01*
X139477429Y-109060765D01*
X139501227Y-109054804D01*
X139525496Y-109051204D01*
X139550000Y-109050000D01*
X144550000Y-109050000D01*
X144574504Y-109051204D01*
X144574504Y-109051204D01*
G37*
D15*
X142050000Y-109550000D03*
D13*
G36*
X144574504Y-111051204D02*
G01*
X144598773Y-111054804D01*
X144622571Y-111060765D01*
X144645671Y-111069030D01*
X144667849Y-111079520D01*
X144688893Y-111092133D01*
X144708598Y-111106747D01*
X144726777Y-111123223D01*
X144743253Y-111141402D01*
X144757867Y-111161107D01*
X144770480Y-111182151D01*
X144780970Y-111204329D01*
X144789235Y-111227429D01*
X144795196Y-111251227D01*
X144798796Y-111275496D01*
X144800000Y-111300000D01*
X144800000Y-111800000D01*
X144798796Y-111824504D01*
X144795196Y-111848773D01*
X144789235Y-111872571D01*
X144780970Y-111895671D01*
X144770480Y-111917849D01*
X144757867Y-111938893D01*
X144743253Y-111958598D01*
X144726777Y-111976777D01*
X144708598Y-111993253D01*
X144688893Y-112007867D01*
X144667849Y-112020480D01*
X144645671Y-112030970D01*
X144622571Y-112039235D01*
X144598773Y-112045196D01*
X144574504Y-112048796D01*
X144550000Y-112050000D01*
X139550000Y-112050000D01*
X139525496Y-112048796D01*
X139501227Y-112045196D01*
X139477429Y-112039235D01*
X139454329Y-112030970D01*
X139432151Y-112020480D01*
X139411107Y-112007867D01*
X139391402Y-111993253D01*
X139373223Y-111976777D01*
X139356747Y-111958598D01*
X139342133Y-111938893D01*
X139329520Y-111917849D01*
X139319030Y-111895671D01*
X139310765Y-111872571D01*
X139304804Y-111848773D01*
X139301204Y-111824504D01*
X139300000Y-111800000D01*
X139300000Y-111300000D01*
X139301204Y-111275496D01*
X139304804Y-111251227D01*
X139310765Y-111227429D01*
X139319030Y-111204329D01*
X139329520Y-111182151D01*
X139342133Y-111161107D01*
X139356747Y-111141402D01*
X139373223Y-111123223D01*
X139391402Y-111106747D01*
X139411107Y-111092133D01*
X139432151Y-111079520D01*
X139454329Y-111069030D01*
X139477429Y-111060765D01*
X139501227Y-111054804D01*
X139525496Y-111051204D01*
X139550000Y-111050000D01*
X144550000Y-111050000D01*
X144574504Y-111051204D01*
X144574504Y-111051204D01*
G37*
D15*
X142050000Y-111550000D03*
D13*
G36*
X145574504Y-106351204D02*
G01*
X145598773Y-106354804D01*
X145622571Y-106360765D01*
X145645671Y-106369030D01*
X145667849Y-106379520D01*
X145688893Y-106392133D01*
X145708598Y-106406747D01*
X145726777Y-106423223D01*
X145743253Y-106441402D01*
X145757867Y-106461107D01*
X145770480Y-106482151D01*
X145780970Y-106504329D01*
X145789235Y-106527429D01*
X145795196Y-106551227D01*
X145798796Y-106575496D01*
X145800000Y-106600000D01*
X145800000Y-107700000D01*
X145798796Y-107724504D01*
X145795196Y-107748773D01*
X145789235Y-107772571D01*
X145780970Y-107795671D01*
X145770480Y-107817849D01*
X145757867Y-107838893D01*
X145743253Y-107858598D01*
X145726777Y-107876777D01*
X145708598Y-107893253D01*
X145688893Y-107907867D01*
X145667849Y-107920480D01*
X145645671Y-107930970D01*
X145622571Y-107939235D01*
X145598773Y-107945196D01*
X145574504Y-107948796D01*
X145550000Y-107950000D01*
X143050000Y-107950000D01*
X143025496Y-107948796D01*
X143001227Y-107945196D01*
X142977429Y-107939235D01*
X142954329Y-107930970D01*
X142932151Y-107920480D01*
X142911107Y-107907867D01*
X142891402Y-107893253D01*
X142873223Y-107876777D01*
X142856747Y-107858598D01*
X142842133Y-107838893D01*
X142829520Y-107817849D01*
X142819030Y-107795671D01*
X142810765Y-107772571D01*
X142804804Y-107748773D01*
X142801204Y-107724504D01*
X142800000Y-107700000D01*
X142800000Y-106600000D01*
X142801204Y-106575496D01*
X142804804Y-106551227D01*
X142810765Y-106527429D01*
X142819030Y-106504329D01*
X142829520Y-106482151D01*
X142842133Y-106461107D01*
X142856747Y-106441402D01*
X142873223Y-106423223D01*
X142891402Y-106406747D01*
X142911107Y-106392133D01*
X142932151Y-106379520D01*
X142954329Y-106369030D01*
X142977429Y-106360765D01*
X143001227Y-106354804D01*
X143025496Y-106351204D01*
X143050000Y-106350000D01*
X145550000Y-106350000D01*
X145574504Y-106351204D01*
X145574504Y-106351204D01*
G37*
D16*
X144300000Y-107150000D03*
D13*
G36*
X145574504Y-113151204D02*
G01*
X145598773Y-113154804D01*
X145622571Y-113160765D01*
X145645671Y-113169030D01*
X145667849Y-113179520D01*
X145688893Y-113192133D01*
X145708598Y-113206747D01*
X145726777Y-113223223D01*
X145743253Y-113241402D01*
X145757867Y-113261107D01*
X145770480Y-113282151D01*
X145780970Y-113304329D01*
X145789235Y-113327429D01*
X145795196Y-113351227D01*
X145798796Y-113375496D01*
X145800000Y-113400000D01*
X145800000Y-114500000D01*
X145798796Y-114524504D01*
X145795196Y-114548773D01*
X145789235Y-114572571D01*
X145780970Y-114595671D01*
X145770480Y-114617849D01*
X145757867Y-114638893D01*
X145743253Y-114658598D01*
X145726777Y-114676777D01*
X145708598Y-114693253D01*
X145688893Y-114707867D01*
X145667849Y-114720480D01*
X145645671Y-114730970D01*
X145622571Y-114739235D01*
X145598773Y-114745196D01*
X145574504Y-114748796D01*
X145550000Y-114750000D01*
X143050000Y-114750000D01*
X143025496Y-114748796D01*
X143001227Y-114745196D01*
X142977429Y-114739235D01*
X142954329Y-114730970D01*
X142932151Y-114720480D01*
X142911107Y-114707867D01*
X142891402Y-114693253D01*
X142873223Y-114676777D01*
X142856747Y-114658598D01*
X142842133Y-114638893D01*
X142829520Y-114617849D01*
X142819030Y-114595671D01*
X142810765Y-114572571D01*
X142804804Y-114548773D01*
X142801204Y-114524504D01*
X142800000Y-114500000D01*
X142800000Y-113400000D01*
X142801204Y-113375496D01*
X142804804Y-113351227D01*
X142810765Y-113327429D01*
X142819030Y-113304329D01*
X142829520Y-113282151D01*
X142842133Y-113261107D01*
X142856747Y-113241402D01*
X142873223Y-113223223D01*
X142891402Y-113206747D01*
X142911107Y-113192133D01*
X142932151Y-113179520D01*
X142954329Y-113169030D01*
X142977429Y-113160765D01*
X143001227Y-113154804D01*
X143025496Y-113151204D01*
X143050000Y-113150000D01*
X145550000Y-113150000D01*
X145574504Y-113151204D01*
X145574504Y-113151204D01*
G37*
D16*
X144300000Y-113950000D03*
D13*
G36*
X145574504Y-122401204D02*
G01*
X145598773Y-122404804D01*
X145622571Y-122410765D01*
X145645671Y-122419030D01*
X145667849Y-122429520D01*
X145688893Y-122442133D01*
X145708598Y-122456747D01*
X145726777Y-122473223D01*
X145743253Y-122491402D01*
X145757867Y-122511107D01*
X145770480Y-122532151D01*
X145780970Y-122554329D01*
X145789235Y-122577429D01*
X145795196Y-122601227D01*
X145798796Y-122625496D01*
X145800000Y-122650000D01*
X145800000Y-123750000D01*
X145798796Y-123774504D01*
X145795196Y-123798773D01*
X145789235Y-123822571D01*
X145780970Y-123845671D01*
X145770480Y-123867849D01*
X145757867Y-123888893D01*
X145743253Y-123908598D01*
X145726777Y-123926777D01*
X145708598Y-123943253D01*
X145688893Y-123957867D01*
X145667849Y-123970480D01*
X145645671Y-123980970D01*
X145622571Y-123989235D01*
X145598773Y-123995196D01*
X145574504Y-123998796D01*
X145550000Y-124000000D01*
X143050000Y-124000000D01*
X143025496Y-123998796D01*
X143001227Y-123995196D01*
X142977429Y-123989235D01*
X142954329Y-123980970D01*
X142932151Y-123970480D01*
X142911107Y-123957867D01*
X142891402Y-123943253D01*
X142873223Y-123926777D01*
X142856747Y-123908598D01*
X142842133Y-123888893D01*
X142829520Y-123867849D01*
X142819030Y-123845671D01*
X142810765Y-123822571D01*
X142804804Y-123798773D01*
X142801204Y-123774504D01*
X142800000Y-123750000D01*
X142800000Y-122650000D01*
X142801204Y-122625496D01*
X142804804Y-122601227D01*
X142810765Y-122577429D01*
X142819030Y-122554329D01*
X142829520Y-122532151D01*
X142842133Y-122511107D01*
X142856747Y-122491402D01*
X142873223Y-122473223D01*
X142891402Y-122456747D01*
X142911107Y-122442133D01*
X142932151Y-122429520D01*
X142954329Y-122419030D01*
X142977429Y-122410765D01*
X143001227Y-122404804D01*
X143025496Y-122401204D01*
X143050000Y-122400000D01*
X145550000Y-122400000D01*
X145574504Y-122401204D01*
X145574504Y-122401204D01*
G37*
D16*
X144300000Y-123200000D03*
D13*
G36*
X145574504Y-115601204D02*
G01*
X145598773Y-115604804D01*
X145622571Y-115610765D01*
X145645671Y-115619030D01*
X145667849Y-115629520D01*
X145688893Y-115642133D01*
X145708598Y-115656747D01*
X145726777Y-115673223D01*
X145743253Y-115691402D01*
X145757867Y-115711107D01*
X145770480Y-115732151D01*
X145780970Y-115754329D01*
X145789235Y-115777429D01*
X145795196Y-115801227D01*
X145798796Y-115825496D01*
X145800000Y-115850000D01*
X145800000Y-116950000D01*
X145798796Y-116974504D01*
X145795196Y-116998773D01*
X145789235Y-117022571D01*
X145780970Y-117045671D01*
X145770480Y-117067849D01*
X145757867Y-117088893D01*
X145743253Y-117108598D01*
X145726777Y-117126777D01*
X145708598Y-117143253D01*
X145688893Y-117157867D01*
X145667849Y-117170480D01*
X145645671Y-117180970D01*
X145622571Y-117189235D01*
X145598773Y-117195196D01*
X145574504Y-117198796D01*
X145550000Y-117200000D01*
X143050000Y-117200000D01*
X143025496Y-117198796D01*
X143001227Y-117195196D01*
X142977429Y-117189235D01*
X142954329Y-117180970D01*
X142932151Y-117170480D01*
X142911107Y-117157867D01*
X142891402Y-117143253D01*
X142873223Y-117126777D01*
X142856747Y-117108598D01*
X142842133Y-117088893D01*
X142829520Y-117067849D01*
X142819030Y-117045671D01*
X142810765Y-117022571D01*
X142804804Y-116998773D01*
X142801204Y-116974504D01*
X142800000Y-116950000D01*
X142800000Y-115850000D01*
X142801204Y-115825496D01*
X142804804Y-115801227D01*
X142810765Y-115777429D01*
X142819030Y-115754329D01*
X142829520Y-115732151D01*
X142842133Y-115711107D01*
X142856747Y-115691402D01*
X142873223Y-115673223D01*
X142891402Y-115656747D01*
X142911107Y-115642133D01*
X142932151Y-115629520D01*
X142954329Y-115619030D01*
X142977429Y-115610765D01*
X143001227Y-115604804D01*
X143025496Y-115601204D01*
X143050000Y-115600000D01*
X145550000Y-115600000D01*
X145574504Y-115601204D01*
X145574504Y-115601204D01*
G37*
D16*
X144300000Y-116400000D03*
D13*
G36*
X144574504Y-120301204D02*
G01*
X144598773Y-120304804D01*
X144622571Y-120310765D01*
X144645671Y-120319030D01*
X144667849Y-120329520D01*
X144688893Y-120342133D01*
X144708598Y-120356747D01*
X144726777Y-120373223D01*
X144743253Y-120391402D01*
X144757867Y-120411107D01*
X144770480Y-120432151D01*
X144780970Y-120454329D01*
X144789235Y-120477429D01*
X144795196Y-120501227D01*
X144798796Y-120525496D01*
X144800000Y-120550000D01*
X144800000Y-121050000D01*
X144798796Y-121074504D01*
X144795196Y-121098773D01*
X144789235Y-121122571D01*
X144780970Y-121145671D01*
X144770480Y-121167849D01*
X144757867Y-121188893D01*
X144743253Y-121208598D01*
X144726777Y-121226777D01*
X144708598Y-121243253D01*
X144688893Y-121257867D01*
X144667849Y-121270480D01*
X144645671Y-121280970D01*
X144622571Y-121289235D01*
X144598773Y-121295196D01*
X144574504Y-121298796D01*
X144550000Y-121300000D01*
X139550000Y-121300000D01*
X139525496Y-121298796D01*
X139501227Y-121295196D01*
X139477429Y-121289235D01*
X139454329Y-121280970D01*
X139432151Y-121270480D01*
X139411107Y-121257867D01*
X139391402Y-121243253D01*
X139373223Y-121226777D01*
X139356747Y-121208598D01*
X139342133Y-121188893D01*
X139329520Y-121167849D01*
X139319030Y-121145671D01*
X139310765Y-121122571D01*
X139304804Y-121098773D01*
X139301204Y-121074504D01*
X139300000Y-121050000D01*
X139300000Y-120550000D01*
X139301204Y-120525496D01*
X139304804Y-120501227D01*
X139310765Y-120477429D01*
X139319030Y-120454329D01*
X139329520Y-120432151D01*
X139342133Y-120411107D01*
X139356747Y-120391402D01*
X139373223Y-120373223D01*
X139391402Y-120356747D01*
X139411107Y-120342133D01*
X139432151Y-120329520D01*
X139454329Y-120319030D01*
X139477429Y-120310765D01*
X139501227Y-120304804D01*
X139525496Y-120301204D01*
X139550000Y-120300000D01*
X144550000Y-120300000D01*
X144574504Y-120301204D01*
X144574504Y-120301204D01*
G37*
D15*
X142050000Y-120800000D03*
D13*
G36*
X144574504Y-118301204D02*
G01*
X144598773Y-118304804D01*
X144622571Y-118310765D01*
X144645671Y-118319030D01*
X144667849Y-118329520D01*
X144688893Y-118342133D01*
X144708598Y-118356747D01*
X144726777Y-118373223D01*
X144743253Y-118391402D01*
X144757867Y-118411107D01*
X144770480Y-118432151D01*
X144780970Y-118454329D01*
X144789235Y-118477429D01*
X144795196Y-118501227D01*
X144798796Y-118525496D01*
X144800000Y-118550000D01*
X144800000Y-119050000D01*
X144798796Y-119074504D01*
X144795196Y-119098773D01*
X144789235Y-119122571D01*
X144780970Y-119145671D01*
X144770480Y-119167849D01*
X144757867Y-119188893D01*
X144743253Y-119208598D01*
X144726777Y-119226777D01*
X144708598Y-119243253D01*
X144688893Y-119257867D01*
X144667849Y-119270480D01*
X144645671Y-119280970D01*
X144622571Y-119289235D01*
X144598773Y-119295196D01*
X144574504Y-119298796D01*
X144550000Y-119300000D01*
X139550000Y-119300000D01*
X139525496Y-119298796D01*
X139501227Y-119295196D01*
X139477429Y-119289235D01*
X139454329Y-119280970D01*
X139432151Y-119270480D01*
X139411107Y-119257867D01*
X139391402Y-119243253D01*
X139373223Y-119226777D01*
X139356747Y-119208598D01*
X139342133Y-119188893D01*
X139329520Y-119167849D01*
X139319030Y-119145671D01*
X139310765Y-119122571D01*
X139304804Y-119098773D01*
X139301204Y-119074504D01*
X139300000Y-119050000D01*
X139300000Y-118550000D01*
X139301204Y-118525496D01*
X139304804Y-118501227D01*
X139310765Y-118477429D01*
X139319030Y-118454329D01*
X139329520Y-118432151D01*
X139342133Y-118411107D01*
X139356747Y-118391402D01*
X139373223Y-118373223D01*
X139391402Y-118356747D01*
X139411107Y-118342133D01*
X139432151Y-118329520D01*
X139454329Y-118319030D01*
X139477429Y-118310765D01*
X139501227Y-118304804D01*
X139525496Y-118301204D01*
X139550000Y-118300000D01*
X144550000Y-118300000D01*
X144574504Y-118301204D01*
X144574504Y-118301204D01*
G37*
D15*
X142050000Y-118800000D03*
D17*
X113000000Y-110460000D03*
D18*
X113000000Y-106500000D03*
D19*
X112750000Y-96170000D03*
X112750000Y-91090000D03*
D20*
X112750000Y-101250000D03*
D19*
X112750000Y-86010000D03*
X112750000Y-80930000D03*
X112750000Y-75850000D03*
D13*
G36*
X123424504Y-111301204D02*
G01*
X123448773Y-111304804D01*
X123472571Y-111310765D01*
X123495671Y-111319030D01*
X123517849Y-111329520D01*
X123538893Y-111342133D01*
X123558598Y-111356747D01*
X123576777Y-111373223D01*
X123593253Y-111391402D01*
X123607867Y-111411107D01*
X123620480Y-111432151D01*
X123630970Y-111454329D01*
X123639235Y-111477429D01*
X123645196Y-111501227D01*
X123648796Y-111525496D01*
X123650000Y-111550000D01*
X123650000Y-112050000D01*
X123648796Y-112074504D01*
X123645196Y-112098773D01*
X123639235Y-112122571D01*
X123630970Y-112145671D01*
X123620480Y-112167849D01*
X123607867Y-112188893D01*
X123593253Y-112208598D01*
X123576777Y-112226777D01*
X123558598Y-112243253D01*
X123538893Y-112257867D01*
X123517849Y-112270480D01*
X123495671Y-112280970D01*
X123472571Y-112289235D01*
X123448773Y-112295196D01*
X123424504Y-112298796D01*
X123400000Y-112300000D01*
X118400000Y-112300000D01*
X118375496Y-112298796D01*
X118351227Y-112295196D01*
X118327429Y-112289235D01*
X118304329Y-112280970D01*
X118282151Y-112270480D01*
X118261107Y-112257867D01*
X118241402Y-112243253D01*
X118223223Y-112226777D01*
X118206747Y-112208598D01*
X118192133Y-112188893D01*
X118179520Y-112167849D01*
X118169030Y-112145671D01*
X118160765Y-112122571D01*
X118154804Y-112098773D01*
X118151204Y-112074504D01*
X118150000Y-112050000D01*
X118150000Y-111550000D01*
X118151204Y-111525496D01*
X118154804Y-111501227D01*
X118160765Y-111477429D01*
X118169030Y-111454329D01*
X118179520Y-111432151D01*
X118192133Y-111411107D01*
X118206747Y-111391402D01*
X118223223Y-111373223D01*
X118241402Y-111356747D01*
X118261107Y-111342133D01*
X118282151Y-111329520D01*
X118304329Y-111319030D01*
X118327429Y-111310765D01*
X118351227Y-111304804D01*
X118375496Y-111301204D01*
X118400000Y-111300000D01*
X123400000Y-111300000D01*
X123424504Y-111301204D01*
X123424504Y-111301204D01*
G37*
D15*
X120900000Y-111800000D03*
D13*
G36*
X123424504Y-113301204D02*
G01*
X123448773Y-113304804D01*
X123472571Y-113310765D01*
X123495671Y-113319030D01*
X123517849Y-113329520D01*
X123538893Y-113342133D01*
X123558598Y-113356747D01*
X123576777Y-113373223D01*
X123593253Y-113391402D01*
X123607867Y-113411107D01*
X123620480Y-113432151D01*
X123630970Y-113454329D01*
X123639235Y-113477429D01*
X123645196Y-113501227D01*
X123648796Y-113525496D01*
X123650000Y-113550000D01*
X123650000Y-114050000D01*
X123648796Y-114074504D01*
X123645196Y-114098773D01*
X123639235Y-114122571D01*
X123630970Y-114145671D01*
X123620480Y-114167849D01*
X123607867Y-114188893D01*
X123593253Y-114208598D01*
X123576777Y-114226777D01*
X123558598Y-114243253D01*
X123538893Y-114257867D01*
X123517849Y-114270480D01*
X123495671Y-114280970D01*
X123472571Y-114289235D01*
X123448773Y-114295196D01*
X123424504Y-114298796D01*
X123400000Y-114300000D01*
X118400000Y-114300000D01*
X118375496Y-114298796D01*
X118351227Y-114295196D01*
X118327429Y-114289235D01*
X118304329Y-114280970D01*
X118282151Y-114270480D01*
X118261107Y-114257867D01*
X118241402Y-114243253D01*
X118223223Y-114226777D01*
X118206747Y-114208598D01*
X118192133Y-114188893D01*
X118179520Y-114167849D01*
X118169030Y-114145671D01*
X118160765Y-114122571D01*
X118154804Y-114098773D01*
X118151204Y-114074504D01*
X118150000Y-114050000D01*
X118150000Y-113550000D01*
X118151204Y-113525496D01*
X118154804Y-113501227D01*
X118160765Y-113477429D01*
X118169030Y-113454329D01*
X118179520Y-113432151D01*
X118192133Y-113411107D01*
X118206747Y-113391402D01*
X118223223Y-113373223D01*
X118241402Y-113356747D01*
X118261107Y-113342133D01*
X118282151Y-113329520D01*
X118304329Y-113319030D01*
X118327429Y-113310765D01*
X118351227Y-113304804D01*
X118375496Y-113301204D01*
X118400000Y-113300000D01*
X123400000Y-113300000D01*
X123424504Y-113301204D01*
X123424504Y-113301204D01*
G37*
D15*
X120900000Y-113800000D03*
D13*
G36*
X123424504Y-115301204D02*
G01*
X123448773Y-115304804D01*
X123472571Y-115310765D01*
X123495671Y-115319030D01*
X123517849Y-115329520D01*
X123538893Y-115342133D01*
X123558598Y-115356747D01*
X123576777Y-115373223D01*
X123593253Y-115391402D01*
X123607867Y-115411107D01*
X123620480Y-115432151D01*
X123630970Y-115454329D01*
X123639235Y-115477429D01*
X123645196Y-115501227D01*
X123648796Y-115525496D01*
X123650000Y-115550000D01*
X123650000Y-116050000D01*
X123648796Y-116074504D01*
X123645196Y-116098773D01*
X123639235Y-116122571D01*
X123630970Y-116145671D01*
X123620480Y-116167849D01*
X123607867Y-116188893D01*
X123593253Y-116208598D01*
X123576777Y-116226777D01*
X123558598Y-116243253D01*
X123538893Y-116257867D01*
X123517849Y-116270480D01*
X123495671Y-116280970D01*
X123472571Y-116289235D01*
X123448773Y-116295196D01*
X123424504Y-116298796D01*
X123400000Y-116300000D01*
X118400000Y-116300000D01*
X118375496Y-116298796D01*
X118351227Y-116295196D01*
X118327429Y-116289235D01*
X118304329Y-116280970D01*
X118282151Y-116270480D01*
X118261107Y-116257867D01*
X118241402Y-116243253D01*
X118223223Y-116226777D01*
X118206747Y-116208598D01*
X118192133Y-116188893D01*
X118179520Y-116167849D01*
X118169030Y-116145671D01*
X118160765Y-116122571D01*
X118154804Y-116098773D01*
X118151204Y-116074504D01*
X118150000Y-116050000D01*
X118150000Y-115550000D01*
X118151204Y-115525496D01*
X118154804Y-115501227D01*
X118160765Y-115477429D01*
X118169030Y-115454329D01*
X118179520Y-115432151D01*
X118192133Y-115411107D01*
X118206747Y-115391402D01*
X118223223Y-115373223D01*
X118241402Y-115356747D01*
X118261107Y-115342133D01*
X118282151Y-115329520D01*
X118304329Y-115319030D01*
X118327429Y-115310765D01*
X118351227Y-115304804D01*
X118375496Y-115301204D01*
X118400000Y-115300000D01*
X123400000Y-115300000D01*
X123424504Y-115301204D01*
X123424504Y-115301204D01*
G37*
D15*
X120900000Y-115800000D03*
D13*
G36*
X123424504Y-117301204D02*
G01*
X123448773Y-117304804D01*
X123472571Y-117310765D01*
X123495671Y-117319030D01*
X123517849Y-117329520D01*
X123538893Y-117342133D01*
X123558598Y-117356747D01*
X123576777Y-117373223D01*
X123593253Y-117391402D01*
X123607867Y-117411107D01*
X123620480Y-117432151D01*
X123630970Y-117454329D01*
X123639235Y-117477429D01*
X123645196Y-117501227D01*
X123648796Y-117525496D01*
X123650000Y-117550000D01*
X123650000Y-118050000D01*
X123648796Y-118074504D01*
X123645196Y-118098773D01*
X123639235Y-118122571D01*
X123630970Y-118145671D01*
X123620480Y-118167849D01*
X123607867Y-118188893D01*
X123593253Y-118208598D01*
X123576777Y-118226777D01*
X123558598Y-118243253D01*
X123538893Y-118257867D01*
X123517849Y-118270480D01*
X123495671Y-118280970D01*
X123472571Y-118289235D01*
X123448773Y-118295196D01*
X123424504Y-118298796D01*
X123400000Y-118300000D01*
X118400000Y-118300000D01*
X118375496Y-118298796D01*
X118351227Y-118295196D01*
X118327429Y-118289235D01*
X118304329Y-118280970D01*
X118282151Y-118270480D01*
X118261107Y-118257867D01*
X118241402Y-118243253D01*
X118223223Y-118226777D01*
X118206747Y-118208598D01*
X118192133Y-118188893D01*
X118179520Y-118167849D01*
X118169030Y-118145671D01*
X118160765Y-118122571D01*
X118154804Y-118098773D01*
X118151204Y-118074504D01*
X118150000Y-118050000D01*
X118150000Y-117550000D01*
X118151204Y-117525496D01*
X118154804Y-117501227D01*
X118160765Y-117477429D01*
X118169030Y-117454329D01*
X118179520Y-117432151D01*
X118192133Y-117411107D01*
X118206747Y-117391402D01*
X118223223Y-117373223D01*
X118241402Y-117356747D01*
X118261107Y-117342133D01*
X118282151Y-117329520D01*
X118304329Y-117319030D01*
X118327429Y-117310765D01*
X118351227Y-117304804D01*
X118375496Y-117301204D01*
X118400000Y-117300000D01*
X123400000Y-117300000D01*
X123424504Y-117301204D01*
X123424504Y-117301204D01*
G37*
D15*
X120900000Y-117800000D03*
D13*
G36*
X124424504Y-108601204D02*
G01*
X124448773Y-108604804D01*
X124472571Y-108610765D01*
X124495671Y-108619030D01*
X124517849Y-108629520D01*
X124538893Y-108642133D01*
X124558598Y-108656747D01*
X124576777Y-108673223D01*
X124593253Y-108691402D01*
X124607867Y-108711107D01*
X124620480Y-108732151D01*
X124630970Y-108754329D01*
X124639235Y-108777429D01*
X124645196Y-108801227D01*
X124648796Y-108825496D01*
X124650000Y-108850000D01*
X124650000Y-109950000D01*
X124648796Y-109974504D01*
X124645196Y-109998773D01*
X124639235Y-110022571D01*
X124630970Y-110045671D01*
X124620480Y-110067849D01*
X124607867Y-110088893D01*
X124593253Y-110108598D01*
X124576777Y-110126777D01*
X124558598Y-110143253D01*
X124538893Y-110157867D01*
X124517849Y-110170480D01*
X124495671Y-110180970D01*
X124472571Y-110189235D01*
X124448773Y-110195196D01*
X124424504Y-110198796D01*
X124400000Y-110200000D01*
X121900000Y-110200000D01*
X121875496Y-110198796D01*
X121851227Y-110195196D01*
X121827429Y-110189235D01*
X121804329Y-110180970D01*
X121782151Y-110170480D01*
X121761107Y-110157867D01*
X121741402Y-110143253D01*
X121723223Y-110126777D01*
X121706747Y-110108598D01*
X121692133Y-110088893D01*
X121679520Y-110067849D01*
X121669030Y-110045671D01*
X121660765Y-110022571D01*
X121654804Y-109998773D01*
X121651204Y-109974504D01*
X121650000Y-109950000D01*
X121650000Y-108850000D01*
X121651204Y-108825496D01*
X121654804Y-108801227D01*
X121660765Y-108777429D01*
X121669030Y-108754329D01*
X121679520Y-108732151D01*
X121692133Y-108711107D01*
X121706747Y-108691402D01*
X121723223Y-108673223D01*
X121741402Y-108656747D01*
X121761107Y-108642133D01*
X121782151Y-108629520D01*
X121804329Y-108619030D01*
X121827429Y-108610765D01*
X121851227Y-108604804D01*
X121875496Y-108601204D01*
X121900000Y-108600000D01*
X124400000Y-108600000D01*
X124424504Y-108601204D01*
X124424504Y-108601204D01*
G37*
D16*
X123150000Y-109400000D03*
D13*
G36*
X124424504Y-119401204D02*
G01*
X124448773Y-119404804D01*
X124472571Y-119410765D01*
X124495671Y-119419030D01*
X124517849Y-119429520D01*
X124538893Y-119442133D01*
X124558598Y-119456747D01*
X124576777Y-119473223D01*
X124593253Y-119491402D01*
X124607867Y-119511107D01*
X124620480Y-119532151D01*
X124630970Y-119554329D01*
X124639235Y-119577429D01*
X124645196Y-119601227D01*
X124648796Y-119625496D01*
X124650000Y-119650000D01*
X124650000Y-120750000D01*
X124648796Y-120774504D01*
X124645196Y-120798773D01*
X124639235Y-120822571D01*
X124630970Y-120845671D01*
X124620480Y-120867849D01*
X124607867Y-120888893D01*
X124593253Y-120908598D01*
X124576777Y-120926777D01*
X124558598Y-120943253D01*
X124538893Y-120957867D01*
X124517849Y-120970480D01*
X124495671Y-120980970D01*
X124472571Y-120989235D01*
X124448773Y-120995196D01*
X124424504Y-120998796D01*
X124400000Y-121000000D01*
X121900000Y-121000000D01*
X121875496Y-120998796D01*
X121851227Y-120995196D01*
X121827429Y-120989235D01*
X121804329Y-120980970D01*
X121782151Y-120970480D01*
X121761107Y-120957867D01*
X121741402Y-120943253D01*
X121723223Y-120926777D01*
X121706747Y-120908598D01*
X121692133Y-120888893D01*
X121679520Y-120867849D01*
X121669030Y-120845671D01*
X121660765Y-120822571D01*
X121654804Y-120798773D01*
X121651204Y-120774504D01*
X121650000Y-120750000D01*
X121650000Y-119650000D01*
X121651204Y-119625496D01*
X121654804Y-119601227D01*
X121660765Y-119577429D01*
X121669030Y-119554329D01*
X121679520Y-119532151D01*
X121692133Y-119511107D01*
X121706747Y-119491402D01*
X121723223Y-119473223D01*
X121741402Y-119456747D01*
X121761107Y-119442133D01*
X121782151Y-119429520D01*
X121804329Y-119419030D01*
X121827429Y-119410765D01*
X121851227Y-119404804D01*
X121875496Y-119401204D01*
X121900000Y-119400000D01*
X124400000Y-119400000D01*
X124424504Y-119401204D01*
X124424504Y-119401204D01*
G37*
D16*
X123150000Y-120200000D03*
D13*
G36*
X132024504Y-111301204D02*
G01*
X132048773Y-111304804D01*
X132072571Y-111310765D01*
X132095671Y-111319030D01*
X132117849Y-111329520D01*
X132138893Y-111342133D01*
X132158598Y-111356747D01*
X132176777Y-111373223D01*
X132193253Y-111391402D01*
X132207867Y-111411107D01*
X132220480Y-111432151D01*
X132230970Y-111454329D01*
X132239235Y-111477429D01*
X132245196Y-111501227D01*
X132248796Y-111525496D01*
X132250000Y-111550000D01*
X132250000Y-112050000D01*
X132248796Y-112074504D01*
X132245196Y-112098773D01*
X132239235Y-112122571D01*
X132230970Y-112145671D01*
X132220480Y-112167849D01*
X132207867Y-112188893D01*
X132193253Y-112208598D01*
X132176777Y-112226777D01*
X132158598Y-112243253D01*
X132138893Y-112257867D01*
X132117849Y-112270480D01*
X132095671Y-112280970D01*
X132072571Y-112289235D01*
X132048773Y-112295196D01*
X132024504Y-112298796D01*
X132000000Y-112300000D01*
X127000000Y-112300000D01*
X126975496Y-112298796D01*
X126951227Y-112295196D01*
X126927429Y-112289235D01*
X126904329Y-112280970D01*
X126882151Y-112270480D01*
X126861107Y-112257867D01*
X126841402Y-112243253D01*
X126823223Y-112226777D01*
X126806747Y-112208598D01*
X126792133Y-112188893D01*
X126779520Y-112167849D01*
X126769030Y-112145671D01*
X126760765Y-112122571D01*
X126754804Y-112098773D01*
X126751204Y-112074504D01*
X126750000Y-112050000D01*
X126750000Y-111550000D01*
X126751204Y-111525496D01*
X126754804Y-111501227D01*
X126760765Y-111477429D01*
X126769030Y-111454329D01*
X126779520Y-111432151D01*
X126792133Y-111411107D01*
X126806747Y-111391402D01*
X126823223Y-111373223D01*
X126841402Y-111356747D01*
X126861107Y-111342133D01*
X126882151Y-111329520D01*
X126904329Y-111319030D01*
X126927429Y-111310765D01*
X126951227Y-111304804D01*
X126975496Y-111301204D01*
X127000000Y-111300000D01*
X132000000Y-111300000D01*
X132024504Y-111301204D01*
X132024504Y-111301204D01*
G37*
D15*
X129500000Y-111800000D03*
D13*
G36*
X132024504Y-113301204D02*
G01*
X132048773Y-113304804D01*
X132072571Y-113310765D01*
X132095671Y-113319030D01*
X132117849Y-113329520D01*
X132138893Y-113342133D01*
X132158598Y-113356747D01*
X132176777Y-113373223D01*
X132193253Y-113391402D01*
X132207867Y-113411107D01*
X132220480Y-113432151D01*
X132230970Y-113454329D01*
X132239235Y-113477429D01*
X132245196Y-113501227D01*
X132248796Y-113525496D01*
X132250000Y-113550000D01*
X132250000Y-114050000D01*
X132248796Y-114074504D01*
X132245196Y-114098773D01*
X132239235Y-114122571D01*
X132230970Y-114145671D01*
X132220480Y-114167849D01*
X132207867Y-114188893D01*
X132193253Y-114208598D01*
X132176777Y-114226777D01*
X132158598Y-114243253D01*
X132138893Y-114257867D01*
X132117849Y-114270480D01*
X132095671Y-114280970D01*
X132072571Y-114289235D01*
X132048773Y-114295196D01*
X132024504Y-114298796D01*
X132000000Y-114300000D01*
X127000000Y-114300000D01*
X126975496Y-114298796D01*
X126951227Y-114295196D01*
X126927429Y-114289235D01*
X126904329Y-114280970D01*
X126882151Y-114270480D01*
X126861107Y-114257867D01*
X126841402Y-114243253D01*
X126823223Y-114226777D01*
X126806747Y-114208598D01*
X126792133Y-114188893D01*
X126779520Y-114167849D01*
X126769030Y-114145671D01*
X126760765Y-114122571D01*
X126754804Y-114098773D01*
X126751204Y-114074504D01*
X126750000Y-114050000D01*
X126750000Y-113550000D01*
X126751204Y-113525496D01*
X126754804Y-113501227D01*
X126760765Y-113477429D01*
X126769030Y-113454329D01*
X126779520Y-113432151D01*
X126792133Y-113411107D01*
X126806747Y-113391402D01*
X126823223Y-113373223D01*
X126841402Y-113356747D01*
X126861107Y-113342133D01*
X126882151Y-113329520D01*
X126904329Y-113319030D01*
X126927429Y-113310765D01*
X126951227Y-113304804D01*
X126975496Y-113301204D01*
X127000000Y-113300000D01*
X132000000Y-113300000D01*
X132024504Y-113301204D01*
X132024504Y-113301204D01*
G37*
D15*
X129500000Y-113800000D03*
D13*
G36*
X132024504Y-115301204D02*
G01*
X132048773Y-115304804D01*
X132072571Y-115310765D01*
X132095671Y-115319030D01*
X132117849Y-115329520D01*
X132138893Y-115342133D01*
X132158598Y-115356747D01*
X132176777Y-115373223D01*
X132193253Y-115391402D01*
X132207867Y-115411107D01*
X132220480Y-115432151D01*
X132230970Y-115454329D01*
X132239235Y-115477429D01*
X132245196Y-115501227D01*
X132248796Y-115525496D01*
X132250000Y-115550000D01*
X132250000Y-116050000D01*
X132248796Y-116074504D01*
X132245196Y-116098773D01*
X132239235Y-116122571D01*
X132230970Y-116145671D01*
X132220480Y-116167849D01*
X132207867Y-116188893D01*
X132193253Y-116208598D01*
X132176777Y-116226777D01*
X132158598Y-116243253D01*
X132138893Y-116257867D01*
X132117849Y-116270480D01*
X132095671Y-116280970D01*
X132072571Y-116289235D01*
X132048773Y-116295196D01*
X132024504Y-116298796D01*
X132000000Y-116300000D01*
X127000000Y-116300000D01*
X126975496Y-116298796D01*
X126951227Y-116295196D01*
X126927429Y-116289235D01*
X126904329Y-116280970D01*
X126882151Y-116270480D01*
X126861107Y-116257867D01*
X126841402Y-116243253D01*
X126823223Y-116226777D01*
X126806747Y-116208598D01*
X126792133Y-116188893D01*
X126779520Y-116167849D01*
X126769030Y-116145671D01*
X126760765Y-116122571D01*
X126754804Y-116098773D01*
X126751204Y-116074504D01*
X126750000Y-116050000D01*
X126750000Y-115550000D01*
X126751204Y-115525496D01*
X126754804Y-115501227D01*
X126760765Y-115477429D01*
X126769030Y-115454329D01*
X126779520Y-115432151D01*
X126792133Y-115411107D01*
X126806747Y-115391402D01*
X126823223Y-115373223D01*
X126841402Y-115356747D01*
X126861107Y-115342133D01*
X126882151Y-115329520D01*
X126904329Y-115319030D01*
X126927429Y-115310765D01*
X126951227Y-115304804D01*
X126975496Y-115301204D01*
X127000000Y-115300000D01*
X132000000Y-115300000D01*
X132024504Y-115301204D01*
X132024504Y-115301204D01*
G37*
D15*
X129500000Y-115800000D03*
D13*
G36*
X132024504Y-117301204D02*
G01*
X132048773Y-117304804D01*
X132072571Y-117310765D01*
X132095671Y-117319030D01*
X132117849Y-117329520D01*
X132138893Y-117342133D01*
X132158598Y-117356747D01*
X132176777Y-117373223D01*
X132193253Y-117391402D01*
X132207867Y-117411107D01*
X132220480Y-117432151D01*
X132230970Y-117454329D01*
X132239235Y-117477429D01*
X132245196Y-117501227D01*
X132248796Y-117525496D01*
X132250000Y-117550000D01*
X132250000Y-118050000D01*
X132248796Y-118074504D01*
X132245196Y-118098773D01*
X132239235Y-118122571D01*
X132230970Y-118145671D01*
X132220480Y-118167849D01*
X132207867Y-118188893D01*
X132193253Y-118208598D01*
X132176777Y-118226777D01*
X132158598Y-118243253D01*
X132138893Y-118257867D01*
X132117849Y-118270480D01*
X132095671Y-118280970D01*
X132072571Y-118289235D01*
X132048773Y-118295196D01*
X132024504Y-118298796D01*
X132000000Y-118300000D01*
X127000000Y-118300000D01*
X126975496Y-118298796D01*
X126951227Y-118295196D01*
X126927429Y-118289235D01*
X126904329Y-118280970D01*
X126882151Y-118270480D01*
X126861107Y-118257867D01*
X126841402Y-118243253D01*
X126823223Y-118226777D01*
X126806747Y-118208598D01*
X126792133Y-118188893D01*
X126779520Y-118167849D01*
X126769030Y-118145671D01*
X126760765Y-118122571D01*
X126754804Y-118098773D01*
X126751204Y-118074504D01*
X126750000Y-118050000D01*
X126750000Y-117550000D01*
X126751204Y-117525496D01*
X126754804Y-117501227D01*
X126760765Y-117477429D01*
X126769030Y-117454329D01*
X126779520Y-117432151D01*
X126792133Y-117411107D01*
X126806747Y-117391402D01*
X126823223Y-117373223D01*
X126841402Y-117356747D01*
X126861107Y-117342133D01*
X126882151Y-117329520D01*
X126904329Y-117319030D01*
X126927429Y-117310765D01*
X126951227Y-117304804D01*
X126975496Y-117301204D01*
X127000000Y-117300000D01*
X132000000Y-117300000D01*
X132024504Y-117301204D01*
X132024504Y-117301204D01*
G37*
D15*
X129500000Y-117800000D03*
D13*
G36*
X132024504Y-119301204D02*
G01*
X132048773Y-119304804D01*
X132072571Y-119310765D01*
X132095671Y-119319030D01*
X132117849Y-119329520D01*
X132138893Y-119342133D01*
X132158598Y-119356747D01*
X132176777Y-119373223D01*
X132193253Y-119391402D01*
X132207867Y-119411107D01*
X132220480Y-119432151D01*
X132230970Y-119454329D01*
X132239235Y-119477429D01*
X132245196Y-119501227D01*
X132248796Y-119525496D01*
X132250000Y-119550000D01*
X132250000Y-120050000D01*
X132248796Y-120074504D01*
X132245196Y-120098773D01*
X132239235Y-120122571D01*
X132230970Y-120145671D01*
X132220480Y-120167849D01*
X132207867Y-120188893D01*
X132193253Y-120208598D01*
X132176777Y-120226777D01*
X132158598Y-120243253D01*
X132138893Y-120257867D01*
X132117849Y-120270480D01*
X132095671Y-120280970D01*
X132072571Y-120289235D01*
X132048773Y-120295196D01*
X132024504Y-120298796D01*
X132000000Y-120300000D01*
X127000000Y-120300000D01*
X126975496Y-120298796D01*
X126951227Y-120295196D01*
X126927429Y-120289235D01*
X126904329Y-120280970D01*
X126882151Y-120270480D01*
X126861107Y-120257867D01*
X126841402Y-120243253D01*
X126823223Y-120226777D01*
X126806747Y-120208598D01*
X126792133Y-120188893D01*
X126779520Y-120167849D01*
X126769030Y-120145671D01*
X126760765Y-120122571D01*
X126754804Y-120098773D01*
X126751204Y-120074504D01*
X126750000Y-120050000D01*
X126750000Y-119550000D01*
X126751204Y-119525496D01*
X126754804Y-119501227D01*
X126760765Y-119477429D01*
X126769030Y-119454329D01*
X126779520Y-119432151D01*
X126792133Y-119411107D01*
X126806747Y-119391402D01*
X126823223Y-119373223D01*
X126841402Y-119356747D01*
X126861107Y-119342133D01*
X126882151Y-119329520D01*
X126904329Y-119319030D01*
X126927429Y-119310765D01*
X126951227Y-119304804D01*
X126975496Y-119301204D01*
X127000000Y-119300000D01*
X132000000Y-119300000D01*
X132024504Y-119301204D01*
X132024504Y-119301204D01*
G37*
D15*
X129500000Y-119800000D03*
D13*
G36*
X133024504Y-108601204D02*
G01*
X133048773Y-108604804D01*
X133072571Y-108610765D01*
X133095671Y-108619030D01*
X133117849Y-108629520D01*
X133138893Y-108642133D01*
X133158598Y-108656747D01*
X133176777Y-108673223D01*
X133193253Y-108691402D01*
X133207867Y-108711107D01*
X133220480Y-108732151D01*
X133230970Y-108754329D01*
X133239235Y-108777429D01*
X133245196Y-108801227D01*
X133248796Y-108825496D01*
X133250000Y-108850000D01*
X133250000Y-109950000D01*
X133248796Y-109974504D01*
X133245196Y-109998773D01*
X133239235Y-110022571D01*
X133230970Y-110045671D01*
X133220480Y-110067849D01*
X133207867Y-110088893D01*
X133193253Y-110108598D01*
X133176777Y-110126777D01*
X133158598Y-110143253D01*
X133138893Y-110157867D01*
X133117849Y-110170480D01*
X133095671Y-110180970D01*
X133072571Y-110189235D01*
X133048773Y-110195196D01*
X133024504Y-110198796D01*
X133000000Y-110200000D01*
X130500000Y-110200000D01*
X130475496Y-110198796D01*
X130451227Y-110195196D01*
X130427429Y-110189235D01*
X130404329Y-110180970D01*
X130382151Y-110170480D01*
X130361107Y-110157867D01*
X130341402Y-110143253D01*
X130323223Y-110126777D01*
X130306747Y-110108598D01*
X130292133Y-110088893D01*
X130279520Y-110067849D01*
X130269030Y-110045671D01*
X130260765Y-110022571D01*
X130254804Y-109998773D01*
X130251204Y-109974504D01*
X130250000Y-109950000D01*
X130250000Y-108850000D01*
X130251204Y-108825496D01*
X130254804Y-108801227D01*
X130260765Y-108777429D01*
X130269030Y-108754329D01*
X130279520Y-108732151D01*
X130292133Y-108711107D01*
X130306747Y-108691402D01*
X130323223Y-108673223D01*
X130341402Y-108656747D01*
X130361107Y-108642133D01*
X130382151Y-108629520D01*
X130404329Y-108619030D01*
X130427429Y-108610765D01*
X130451227Y-108604804D01*
X130475496Y-108601204D01*
X130500000Y-108600000D01*
X133000000Y-108600000D01*
X133024504Y-108601204D01*
X133024504Y-108601204D01*
G37*
D16*
X131750000Y-109400000D03*
D13*
G36*
X133024504Y-121401204D02*
G01*
X133048773Y-121404804D01*
X133072571Y-121410765D01*
X133095671Y-121419030D01*
X133117849Y-121429520D01*
X133138893Y-121442133D01*
X133158598Y-121456747D01*
X133176777Y-121473223D01*
X133193253Y-121491402D01*
X133207867Y-121511107D01*
X133220480Y-121532151D01*
X133230970Y-121554329D01*
X133239235Y-121577429D01*
X133245196Y-121601227D01*
X133248796Y-121625496D01*
X133250000Y-121650000D01*
X133250000Y-122750000D01*
X133248796Y-122774504D01*
X133245196Y-122798773D01*
X133239235Y-122822571D01*
X133230970Y-122845671D01*
X133220480Y-122867849D01*
X133207867Y-122888893D01*
X133193253Y-122908598D01*
X133176777Y-122926777D01*
X133158598Y-122943253D01*
X133138893Y-122957867D01*
X133117849Y-122970480D01*
X133095671Y-122980970D01*
X133072571Y-122989235D01*
X133048773Y-122995196D01*
X133024504Y-122998796D01*
X133000000Y-123000000D01*
X130500000Y-123000000D01*
X130475496Y-122998796D01*
X130451227Y-122995196D01*
X130427429Y-122989235D01*
X130404329Y-122980970D01*
X130382151Y-122970480D01*
X130361107Y-122957867D01*
X130341402Y-122943253D01*
X130323223Y-122926777D01*
X130306747Y-122908598D01*
X130292133Y-122888893D01*
X130279520Y-122867849D01*
X130269030Y-122845671D01*
X130260765Y-122822571D01*
X130254804Y-122798773D01*
X130251204Y-122774504D01*
X130250000Y-122750000D01*
X130250000Y-121650000D01*
X130251204Y-121625496D01*
X130254804Y-121601227D01*
X130260765Y-121577429D01*
X130269030Y-121554329D01*
X130279520Y-121532151D01*
X130292133Y-121511107D01*
X130306747Y-121491402D01*
X130323223Y-121473223D01*
X130341402Y-121456747D01*
X130361107Y-121442133D01*
X130382151Y-121429520D01*
X130404329Y-121419030D01*
X130427429Y-121410765D01*
X130451227Y-121404804D01*
X130475496Y-121401204D01*
X130500000Y-121400000D01*
X133000000Y-121400000D01*
X133024504Y-121401204D01*
X133024504Y-121401204D01*
G37*
D16*
X131750000Y-122200000D03*
D13*
G36*
X167374504Y-78951204D02*
G01*
X167398773Y-78954804D01*
X167422571Y-78960765D01*
X167445671Y-78969030D01*
X167467849Y-78979520D01*
X167488893Y-78992133D01*
X167508598Y-79006747D01*
X167526777Y-79023223D01*
X167543253Y-79041402D01*
X167557867Y-79061107D01*
X167570480Y-79082151D01*
X167580970Y-79104329D01*
X167589235Y-79127429D01*
X167595196Y-79151227D01*
X167598796Y-79175496D01*
X167600000Y-79200000D01*
X167600000Y-81700000D01*
X167598796Y-81724504D01*
X167595196Y-81748773D01*
X167589235Y-81772571D01*
X167580970Y-81795671D01*
X167570480Y-81817849D01*
X167557867Y-81838893D01*
X167543253Y-81858598D01*
X167526777Y-81876777D01*
X167508598Y-81893253D01*
X167488893Y-81907867D01*
X167467849Y-81920480D01*
X167445671Y-81930970D01*
X167422571Y-81939235D01*
X167398773Y-81945196D01*
X167374504Y-81948796D01*
X167350000Y-81950000D01*
X166250000Y-81950000D01*
X166225496Y-81948796D01*
X166201227Y-81945196D01*
X166177429Y-81939235D01*
X166154329Y-81930970D01*
X166132151Y-81920480D01*
X166111107Y-81907867D01*
X166091402Y-81893253D01*
X166073223Y-81876777D01*
X166056747Y-81858598D01*
X166042133Y-81838893D01*
X166029520Y-81817849D01*
X166019030Y-81795671D01*
X166010765Y-81772571D01*
X166004804Y-81748773D01*
X166001204Y-81724504D01*
X166000000Y-81700000D01*
X166000000Y-79200000D01*
X166001204Y-79175496D01*
X166004804Y-79151227D01*
X166010765Y-79127429D01*
X166019030Y-79104329D01*
X166029520Y-79082151D01*
X166042133Y-79061107D01*
X166056747Y-79041402D01*
X166073223Y-79023223D01*
X166091402Y-79006747D01*
X166111107Y-78992133D01*
X166132151Y-78979520D01*
X166154329Y-78969030D01*
X166177429Y-78960765D01*
X166201227Y-78954804D01*
X166225496Y-78951204D01*
X166250000Y-78950000D01*
X167350000Y-78950000D01*
X167374504Y-78951204D01*
X167374504Y-78951204D01*
G37*
D16*
X166800000Y-80450000D03*
D13*
G36*
X156574504Y-78951204D02*
G01*
X156598773Y-78954804D01*
X156622571Y-78960765D01*
X156645671Y-78969030D01*
X156667849Y-78979520D01*
X156688893Y-78992133D01*
X156708598Y-79006747D01*
X156726777Y-79023223D01*
X156743253Y-79041402D01*
X156757867Y-79061107D01*
X156770480Y-79082151D01*
X156780970Y-79104329D01*
X156789235Y-79127429D01*
X156795196Y-79151227D01*
X156798796Y-79175496D01*
X156800000Y-79200000D01*
X156800000Y-81700000D01*
X156798796Y-81724504D01*
X156795196Y-81748773D01*
X156789235Y-81772571D01*
X156780970Y-81795671D01*
X156770480Y-81817849D01*
X156757867Y-81838893D01*
X156743253Y-81858598D01*
X156726777Y-81876777D01*
X156708598Y-81893253D01*
X156688893Y-81907867D01*
X156667849Y-81920480D01*
X156645671Y-81930970D01*
X156622571Y-81939235D01*
X156598773Y-81945196D01*
X156574504Y-81948796D01*
X156550000Y-81950000D01*
X155450000Y-81950000D01*
X155425496Y-81948796D01*
X155401227Y-81945196D01*
X155377429Y-81939235D01*
X155354329Y-81930970D01*
X155332151Y-81920480D01*
X155311107Y-81907867D01*
X155291402Y-81893253D01*
X155273223Y-81876777D01*
X155256747Y-81858598D01*
X155242133Y-81838893D01*
X155229520Y-81817849D01*
X155219030Y-81795671D01*
X155210765Y-81772571D01*
X155204804Y-81748773D01*
X155201204Y-81724504D01*
X155200000Y-81700000D01*
X155200000Y-79200000D01*
X155201204Y-79175496D01*
X155204804Y-79151227D01*
X155210765Y-79127429D01*
X155219030Y-79104329D01*
X155229520Y-79082151D01*
X155242133Y-79061107D01*
X155256747Y-79041402D01*
X155273223Y-79023223D01*
X155291402Y-79006747D01*
X155311107Y-78992133D01*
X155332151Y-78979520D01*
X155354329Y-78969030D01*
X155377429Y-78960765D01*
X155401227Y-78954804D01*
X155425496Y-78951204D01*
X155450000Y-78950000D01*
X156550000Y-78950000D01*
X156574504Y-78951204D01*
X156574504Y-78951204D01*
G37*
D16*
X156000000Y-80450000D03*
D13*
G36*
X164674504Y-79951204D02*
G01*
X164698773Y-79954804D01*
X164722571Y-79960765D01*
X164745671Y-79969030D01*
X164767849Y-79979520D01*
X164788893Y-79992133D01*
X164808598Y-80006747D01*
X164826777Y-80023223D01*
X164843253Y-80041402D01*
X164857867Y-80061107D01*
X164870480Y-80082151D01*
X164880970Y-80104329D01*
X164889235Y-80127429D01*
X164895196Y-80151227D01*
X164898796Y-80175496D01*
X164900000Y-80200000D01*
X164900000Y-85200000D01*
X164898796Y-85224504D01*
X164895196Y-85248773D01*
X164889235Y-85272571D01*
X164880970Y-85295671D01*
X164870480Y-85317849D01*
X164857867Y-85338893D01*
X164843253Y-85358598D01*
X164826777Y-85376777D01*
X164808598Y-85393253D01*
X164788893Y-85407867D01*
X164767849Y-85420480D01*
X164745671Y-85430970D01*
X164722571Y-85439235D01*
X164698773Y-85445196D01*
X164674504Y-85448796D01*
X164650000Y-85450000D01*
X164150000Y-85450000D01*
X164125496Y-85448796D01*
X164101227Y-85445196D01*
X164077429Y-85439235D01*
X164054329Y-85430970D01*
X164032151Y-85420480D01*
X164011107Y-85407867D01*
X163991402Y-85393253D01*
X163973223Y-85376777D01*
X163956747Y-85358598D01*
X163942133Y-85338893D01*
X163929520Y-85317849D01*
X163919030Y-85295671D01*
X163910765Y-85272571D01*
X163904804Y-85248773D01*
X163901204Y-85224504D01*
X163900000Y-85200000D01*
X163900000Y-80200000D01*
X163901204Y-80175496D01*
X163904804Y-80151227D01*
X163910765Y-80127429D01*
X163919030Y-80104329D01*
X163929520Y-80082151D01*
X163942133Y-80061107D01*
X163956747Y-80041402D01*
X163973223Y-80023223D01*
X163991402Y-80006747D01*
X164011107Y-79992133D01*
X164032151Y-79979520D01*
X164054329Y-79969030D01*
X164077429Y-79960765D01*
X164101227Y-79954804D01*
X164125496Y-79951204D01*
X164150000Y-79950000D01*
X164650000Y-79950000D01*
X164674504Y-79951204D01*
X164674504Y-79951204D01*
G37*
D15*
X164400000Y-82700000D03*
D13*
G36*
X162674504Y-79951204D02*
G01*
X162698773Y-79954804D01*
X162722571Y-79960765D01*
X162745671Y-79969030D01*
X162767849Y-79979520D01*
X162788893Y-79992133D01*
X162808598Y-80006747D01*
X162826777Y-80023223D01*
X162843253Y-80041402D01*
X162857867Y-80061107D01*
X162870480Y-80082151D01*
X162880970Y-80104329D01*
X162889235Y-80127429D01*
X162895196Y-80151227D01*
X162898796Y-80175496D01*
X162900000Y-80200000D01*
X162900000Y-85200000D01*
X162898796Y-85224504D01*
X162895196Y-85248773D01*
X162889235Y-85272571D01*
X162880970Y-85295671D01*
X162870480Y-85317849D01*
X162857867Y-85338893D01*
X162843253Y-85358598D01*
X162826777Y-85376777D01*
X162808598Y-85393253D01*
X162788893Y-85407867D01*
X162767849Y-85420480D01*
X162745671Y-85430970D01*
X162722571Y-85439235D01*
X162698773Y-85445196D01*
X162674504Y-85448796D01*
X162650000Y-85450000D01*
X162150000Y-85450000D01*
X162125496Y-85448796D01*
X162101227Y-85445196D01*
X162077429Y-85439235D01*
X162054329Y-85430970D01*
X162032151Y-85420480D01*
X162011107Y-85407867D01*
X161991402Y-85393253D01*
X161973223Y-85376777D01*
X161956747Y-85358598D01*
X161942133Y-85338893D01*
X161929520Y-85317849D01*
X161919030Y-85295671D01*
X161910765Y-85272571D01*
X161904804Y-85248773D01*
X161901204Y-85224504D01*
X161900000Y-85200000D01*
X161900000Y-80200000D01*
X161901204Y-80175496D01*
X161904804Y-80151227D01*
X161910765Y-80127429D01*
X161919030Y-80104329D01*
X161929520Y-80082151D01*
X161942133Y-80061107D01*
X161956747Y-80041402D01*
X161973223Y-80023223D01*
X161991402Y-80006747D01*
X162011107Y-79992133D01*
X162032151Y-79979520D01*
X162054329Y-79969030D01*
X162077429Y-79960765D01*
X162101227Y-79954804D01*
X162125496Y-79951204D01*
X162150000Y-79950000D01*
X162650000Y-79950000D01*
X162674504Y-79951204D01*
X162674504Y-79951204D01*
G37*
D15*
X162400000Y-82700000D03*
D13*
G36*
X160674504Y-79951204D02*
G01*
X160698773Y-79954804D01*
X160722571Y-79960765D01*
X160745671Y-79969030D01*
X160767849Y-79979520D01*
X160788893Y-79992133D01*
X160808598Y-80006747D01*
X160826777Y-80023223D01*
X160843253Y-80041402D01*
X160857867Y-80061107D01*
X160870480Y-80082151D01*
X160880970Y-80104329D01*
X160889235Y-80127429D01*
X160895196Y-80151227D01*
X160898796Y-80175496D01*
X160900000Y-80200000D01*
X160900000Y-85200000D01*
X160898796Y-85224504D01*
X160895196Y-85248773D01*
X160889235Y-85272571D01*
X160880970Y-85295671D01*
X160870480Y-85317849D01*
X160857867Y-85338893D01*
X160843253Y-85358598D01*
X160826777Y-85376777D01*
X160808598Y-85393253D01*
X160788893Y-85407867D01*
X160767849Y-85420480D01*
X160745671Y-85430970D01*
X160722571Y-85439235D01*
X160698773Y-85445196D01*
X160674504Y-85448796D01*
X160650000Y-85450000D01*
X160150000Y-85450000D01*
X160125496Y-85448796D01*
X160101227Y-85445196D01*
X160077429Y-85439235D01*
X160054329Y-85430970D01*
X160032151Y-85420480D01*
X160011107Y-85407867D01*
X159991402Y-85393253D01*
X159973223Y-85376777D01*
X159956747Y-85358598D01*
X159942133Y-85338893D01*
X159929520Y-85317849D01*
X159919030Y-85295671D01*
X159910765Y-85272571D01*
X159904804Y-85248773D01*
X159901204Y-85224504D01*
X159900000Y-85200000D01*
X159900000Y-80200000D01*
X159901204Y-80175496D01*
X159904804Y-80151227D01*
X159910765Y-80127429D01*
X159919030Y-80104329D01*
X159929520Y-80082151D01*
X159942133Y-80061107D01*
X159956747Y-80041402D01*
X159973223Y-80023223D01*
X159991402Y-80006747D01*
X160011107Y-79992133D01*
X160032151Y-79979520D01*
X160054329Y-79969030D01*
X160077429Y-79960765D01*
X160101227Y-79954804D01*
X160125496Y-79951204D01*
X160150000Y-79950000D01*
X160650000Y-79950000D01*
X160674504Y-79951204D01*
X160674504Y-79951204D01*
G37*
D15*
X160400000Y-82700000D03*
D13*
G36*
X158674504Y-79951204D02*
G01*
X158698773Y-79954804D01*
X158722571Y-79960765D01*
X158745671Y-79969030D01*
X158767849Y-79979520D01*
X158788893Y-79992133D01*
X158808598Y-80006747D01*
X158826777Y-80023223D01*
X158843253Y-80041402D01*
X158857867Y-80061107D01*
X158870480Y-80082151D01*
X158880970Y-80104329D01*
X158889235Y-80127429D01*
X158895196Y-80151227D01*
X158898796Y-80175496D01*
X158900000Y-80200000D01*
X158900000Y-85200000D01*
X158898796Y-85224504D01*
X158895196Y-85248773D01*
X158889235Y-85272571D01*
X158880970Y-85295671D01*
X158870480Y-85317849D01*
X158857867Y-85338893D01*
X158843253Y-85358598D01*
X158826777Y-85376777D01*
X158808598Y-85393253D01*
X158788893Y-85407867D01*
X158767849Y-85420480D01*
X158745671Y-85430970D01*
X158722571Y-85439235D01*
X158698773Y-85445196D01*
X158674504Y-85448796D01*
X158650000Y-85450000D01*
X158150000Y-85450000D01*
X158125496Y-85448796D01*
X158101227Y-85445196D01*
X158077429Y-85439235D01*
X158054329Y-85430970D01*
X158032151Y-85420480D01*
X158011107Y-85407867D01*
X157991402Y-85393253D01*
X157973223Y-85376777D01*
X157956747Y-85358598D01*
X157942133Y-85338893D01*
X157929520Y-85317849D01*
X157919030Y-85295671D01*
X157910765Y-85272571D01*
X157904804Y-85248773D01*
X157901204Y-85224504D01*
X157900000Y-85200000D01*
X157900000Y-80200000D01*
X157901204Y-80175496D01*
X157904804Y-80151227D01*
X157910765Y-80127429D01*
X157919030Y-80104329D01*
X157929520Y-80082151D01*
X157942133Y-80061107D01*
X157956747Y-80041402D01*
X157973223Y-80023223D01*
X157991402Y-80006747D01*
X158011107Y-79992133D01*
X158032151Y-79979520D01*
X158054329Y-79969030D01*
X158077429Y-79960765D01*
X158101227Y-79954804D01*
X158125496Y-79951204D01*
X158150000Y-79950000D01*
X158650000Y-79950000D01*
X158674504Y-79951204D01*
X158674504Y-79951204D01*
G37*
D15*
X158400000Y-82700000D03*
D21*
X186200000Y-80250000D03*
X187150000Y-82350000D03*
X185250000Y-82350000D03*
D13*
G36*
X183574505Y-81601204D02*
G01*
X183598773Y-81604804D01*
X183622572Y-81610765D01*
X183645671Y-81619030D01*
X183667850Y-81629520D01*
X183688893Y-81642132D01*
X183708599Y-81656747D01*
X183726777Y-81673223D01*
X183743253Y-81691401D01*
X183757868Y-81711107D01*
X183770480Y-81732150D01*
X183780970Y-81754329D01*
X183789235Y-81777428D01*
X183795196Y-81801227D01*
X183798796Y-81825495D01*
X183800000Y-81849999D01*
X183800000Y-82750001D01*
X183798796Y-82774505D01*
X183795196Y-82798773D01*
X183789235Y-82822572D01*
X183780970Y-82845671D01*
X183770480Y-82867850D01*
X183757868Y-82888893D01*
X183743253Y-82908599D01*
X183726777Y-82926777D01*
X183708599Y-82943253D01*
X183688893Y-82957868D01*
X183667850Y-82970480D01*
X183645671Y-82980970D01*
X183622572Y-82989235D01*
X183598773Y-82995196D01*
X183574505Y-82998796D01*
X183550001Y-83000000D01*
X182899999Y-83000000D01*
X182875495Y-82998796D01*
X182851227Y-82995196D01*
X182827428Y-82989235D01*
X182804329Y-82980970D01*
X182782150Y-82970480D01*
X182761107Y-82957868D01*
X182741401Y-82943253D01*
X182723223Y-82926777D01*
X182706747Y-82908599D01*
X182692132Y-82888893D01*
X182679520Y-82867850D01*
X182669030Y-82845671D01*
X182660765Y-82822572D01*
X182654804Y-82798773D01*
X182651204Y-82774505D01*
X182650000Y-82750001D01*
X182650000Y-81849999D01*
X182651204Y-81825495D01*
X182654804Y-81801227D01*
X182660765Y-81777428D01*
X182669030Y-81754329D01*
X182679520Y-81732150D01*
X182692132Y-81711107D01*
X182706747Y-81691401D01*
X182723223Y-81673223D01*
X182741401Y-81656747D01*
X182761107Y-81642132D01*
X182782150Y-81629520D01*
X182804329Y-81619030D01*
X182827428Y-81610765D01*
X182851227Y-81604804D01*
X182875495Y-81601204D01*
X182899999Y-81600000D01*
X183550001Y-81600000D01*
X183574505Y-81601204D01*
X183574505Y-81601204D01*
G37*
D22*
X183225000Y-82300000D03*
D13*
G36*
X181524505Y-81601204D02*
G01*
X181548773Y-81604804D01*
X181572572Y-81610765D01*
X181595671Y-81619030D01*
X181617850Y-81629520D01*
X181638893Y-81642132D01*
X181658599Y-81656747D01*
X181676777Y-81673223D01*
X181693253Y-81691401D01*
X181707868Y-81711107D01*
X181720480Y-81732150D01*
X181730970Y-81754329D01*
X181739235Y-81777428D01*
X181745196Y-81801227D01*
X181748796Y-81825495D01*
X181750000Y-81849999D01*
X181750000Y-82750001D01*
X181748796Y-82774505D01*
X181745196Y-82798773D01*
X181739235Y-82822572D01*
X181730970Y-82845671D01*
X181720480Y-82867850D01*
X181707868Y-82888893D01*
X181693253Y-82908599D01*
X181676777Y-82926777D01*
X181658599Y-82943253D01*
X181638893Y-82957868D01*
X181617850Y-82970480D01*
X181595671Y-82980970D01*
X181572572Y-82989235D01*
X181548773Y-82995196D01*
X181524505Y-82998796D01*
X181500001Y-83000000D01*
X180849999Y-83000000D01*
X180825495Y-82998796D01*
X180801227Y-82995196D01*
X180777428Y-82989235D01*
X180754329Y-82980970D01*
X180732150Y-82970480D01*
X180711107Y-82957868D01*
X180691401Y-82943253D01*
X180673223Y-82926777D01*
X180656747Y-82908599D01*
X180642132Y-82888893D01*
X180629520Y-82867850D01*
X180619030Y-82845671D01*
X180610765Y-82822572D01*
X180604804Y-82798773D01*
X180601204Y-82774505D01*
X180600000Y-82750001D01*
X180600000Y-81849999D01*
X180601204Y-81825495D01*
X180604804Y-81801227D01*
X180610765Y-81777428D01*
X180619030Y-81754329D01*
X180629520Y-81732150D01*
X180642132Y-81711107D01*
X180656747Y-81691401D01*
X180673223Y-81673223D01*
X180691401Y-81656747D01*
X180711107Y-81642132D01*
X180732150Y-81629520D01*
X180754329Y-81619030D01*
X180777428Y-81610765D01*
X180801227Y-81604804D01*
X180825495Y-81601204D01*
X180849999Y-81600000D01*
X181500001Y-81600000D01*
X181524505Y-81601204D01*
X181524505Y-81601204D01*
G37*
D22*
X181175000Y-82300000D03*
D13*
G36*
X178224505Y-80101204D02*
G01*
X178248773Y-80104804D01*
X178272572Y-80110765D01*
X178295671Y-80119030D01*
X178317850Y-80129520D01*
X178338893Y-80142132D01*
X178358599Y-80156747D01*
X178376777Y-80173223D01*
X178393253Y-80191401D01*
X178407868Y-80211107D01*
X178420480Y-80232150D01*
X178430970Y-80254329D01*
X178439235Y-80277428D01*
X178445196Y-80301227D01*
X178448796Y-80325495D01*
X178450000Y-80349999D01*
X178450000Y-81250001D01*
X178448796Y-81274505D01*
X178445196Y-81298773D01*
X178439235Y-81322572D01*
X178430970Y-81345671D01*
X178420480Y-81367850D01*
X178407868Y-81388893D01*
X178393253Y-81408599D01*
X178376777Y-81426777D01*
X178358599Y-81443253D01*
X178338893Y-81457868D01*
X178317850Y-81470480D01*
X178295671Y-81480970D01*
X178272572Y-81489235D01*
X178248773Y-81495196D01*
X178224505Y-81498796D01*
X178200001Y-81500000D01*
X177549999Y-81500000D01*
X177525495Y-81498796D01*
X177501227Y-81495196D01*
X177477428Y-81489235D01*
X177454329Y-81480970D01*
X177432150Y-81470480D01*
X177411107Y-81457868D01*
X177391401Y-81443253D01*
X177373223Y-81426777D01*
X177356747Y-81408599D01*
X177342132Y-81388893D01*
X177329520Y-81367850D01*
X177319030Y-81345671D01*
X177310765Y-81322572D01*
X177304804Y-81298773D01*
X177301204Y-81274505D01*
X177300000Y-81250001D01*
X177300000Y-80349999D01*
X177301204Y-80325495D01*
X177304804Y-80301227D01*
X177310765Y-80277428D01*
X177319030Y-80254329D01*
X177329520Y-80232150D01*
X177342132Y-80211107D01*
X177356747Y-80191401D01*
X177373223Y-80173223D01*
X177391401Y-80156747D01*
X177411107Y-80142132D01*
X177432150Y-80129520D01*
X177454329Y-80119030D01*
X177477428Y-80110765D01*
X177501227Y-80104804D01*
X177525495Y-80101204D01*
X177549999Y-80100000D01*
X178200001Y-80100000D01*
X178224505Y-80101204D01*
X178224505Y-80101204D01*
G37*
D22*
X177875000Y-80800000D03*
D13*
G36*
X176174505Y-80101204D02*
G01*
X176198773Y-80104804D01*
X176222572Y-80110765D01*
X176245671Y-80119030D01*
X176267850Y-80129520D01*
X176288893Y-80142132D01*
X176308599Y-80156747D01*
X176326777Y-80173223D01*
X176343253Y-80191401D01*
X176357868Y-80211107D01*
X176370480Y-80232150D01*
X176380970Y-80254329D01*
X176389235Y-80277428D01*
X176395196Y-80301227D01*
X176398796Y-80325495D01*
X176400000Y-80349999D01*
X176400000Y-81250001D01*
X176398796Y-81274505D01*
X176395196Y-81298773D01*
X176389235Y-81322572D01*
X176380970Y-81345671D01*
X176370480Y-81367850D01*
X176357868Y-81388893D01*
X176343253Y-81408599D01*
X176326777Y-81426777D01*
X176308599Y-81443253D01*
X176288893Y-81457868D01*
X176267850Y-81470480D01*
X176245671Y-81480970D01*
X176222572Y-81489235D01*
X176198773Y-81495196D01*
X176174505Y-81498796D01*
X176150001Y-81500000D01*
X175499999Y-81500000D01*
X175475495Y-81498796D01*
X175451227Y-81495196D01*
X175427428Y-81489235D01*
X175404329Y-81480970D01*
X175382150Y-81470480D01*
X175361107Y-81457868D01*
X175341401Y-81443253D01*
X175323223Y-81426777D01*
X175306747Y-81408599D01*
X175292132Y-81388893D01*
X175279520Y-81367850D01*
X175269030Y-81345671D01*
X175260765Y-81322572D01*
X175254804Y-81298773D01*
X175251204Y-81274505D01*
X175250000Y-81250001D01*
X175250000Y-80349999D01*
X175251204Y-80325495D01*
X175254804Y-80301227D01*
X175260765Y-80277428D01*
X175269030Y-80254329D01*
X175279520Y-80232150D01*
X175292132Y-80211107D01*
X175306747Y-80191401D01*
X175323223Y-80173223D01*
X175341401Y-80156747D01*
X175361107Y-80142132D01*
X175382150Y-80129520D01*
X175404329Y-80119030D01*
X175427428Y-80110765D01*
X175451227Y-80104804D01*
X175475495Y-80101204D01*
X175499999Y-80100000D01*
X176150001Y-80100000D01*
X176174505Y-80101204D01*
X176174505Y-80101204D01*
G37*
D22*
X175825000Y-80800000D03*
D13*
G36*
X178224505Y-82251204D02*
G01*
X178248773Y-82254804D01*
X178272572Y-82260765D01*
X178295671Y-82269030D01*
X178317850Y-82279520D01*
X178338893Y-82292132D01*
X178358599Y-82306747D01*
X178376777Y-82323223D01*
X178393253Y-82341401D01*
X178407868Y-82361107D01*
X178420480Y-82382150D01*
X178430970Y-82404329D01*
X178439235Y-82427428D01*
X178445196Y-82451227D01*
X178448796Y-82475495D01*
X178450000Y-82499999D01*
X178450000Y-83400001D01*
X178448796Y-83424505D01*
X178445196Y-83448773D01*
X178439235Y-83472572D01*
X178430970Y-83495671D01*
X178420480Y-83517850D01*
X178407868Y-83538893D01*
X178393253Y-83558599D01*
X178376777Y-83576777D01*
X178358599Y-83593253D01*
X178338893Y-83607868D01*
X178317850Y-83620480D01*
X178295671Y-83630970D01*
X178272572Y-83639235D01*
X178248773Y-83645196D01*
X178224505Y-83648796D01*
X178200001Y-83650000D01*
X177549999Y-83650000D01*
X177525495Y-83648796D01*
X177501227Y-83645196D01*
X177477428Y-83639235D01*
X177454329Y-83630970D01*
X177432150Y-83620480D01*
X177411107Y-83607868D01*
X177391401Y-83593253D01*
X177373223Y-83576777D01*
X177356747Y-83558599D01*
X177342132Y-83538893D01*
X177329520Y-83517850D01*
X177319030Y-83495671D01*
X177310765Y-83472572D01*
X177304804Y-83448773D01*
X177301204Y-83424505D01*
X177300000Y-83400001D01*
X177300000Y-82499999D01*
X177301204Y-82475495D01*
X177304804Y-82451227D01*
X177310765Y-82427428D01*
X177319030Y-82404329D01*
X177329520Y-82382150D01*
X177342132Y-82361107D01*
X177356747Y-82341401D01*
X177373223Y-82323223D01*
X177391401Y-82306747D01*
X177411107Y-82292132D01*
X177432150Y-82279520D01*
X177454329Y-82269030D01*
X177477428Y-82260765D01*
X177501227Y-82254804D01*
X177525495Y-82251204D01*
X177549999Y-82250000D01*
X178200001Y-82250000D01*
X178224505Y-82251204D01*
X178224505Y-82251204D01*
G37*
D22*
X177875000Y-82950000D03*
D13*
G36*
X176174505Y-82251204D02*
G01*
X176198773Y-82254804D01*
X176222572Y-82260765D01*
X176245671Y-82269030D01*
X176267850Y-82279520D01*
X176288893Y-82292132D01*
X176308599Y-82306747D01*
X176326777Y-82323223D01*
X176343253Y-82341401D01*
X176357868Y-82361107D01*
X176370480Y-82382150D01*
X176380970Y-82404329D01*
X176389235Y-82427428D01*
X176395196Y-82451227D01*
X176398796Y-82475495D01*
X176400000Y-82499999D01*
X176400000Y-83400001D01*
X176398796Y-83424505D01*
X176395196Y-83448773D01*
X176389235Y-83472572D01*
X176380970Y-83495671D01*
X176370480Y-83517850D01*
X176357868Y-83538893D01*
X176343253Y-83558599D01*
X176326777Y-83576777D01*
X176308599Y-83593253D01*
X176288893Y-83607868D01*
X176267850Y-83620480D01*
X176245671Y-83630970D01*
X176222572Y-83639235D01*
X176198773Y-83645196D01*
X176174505Y-83648796D01*
X176150001Y-83650000D01*
X175499999Y-83650000D01*
X175475495Y-83648796D01*
X175451227Y-83645196D01*
X175427428Y-83639235D01*
X175404329Y-83630970D01*
X175382150Y-83620480D01*
X175361107Y-83607868D01*
X175341401Y-83593253D01*
X175323223Y-83576777D01*
X175306747Y-83558599D01*
X175292132Y-83538893D01*
X175279520Y-83517850D01*
X175269030Y-83495671D01*
X175260765Y-83472572D01*
X175254804Y-83448773D01*
X175251204Y-83424505D01*
X175250000Y-83400001D01*
X175250000Y-82499999D01*
X175251204Y-82475495D01*
X175254804Y-82451227D01*
X175260765Y-82427428D01*
X175269030Y-82404329D01*
X175279520Y-82382150D01*
X175292132Y-82361107D01*
X175306747Y-82341401D01*
X175323223Y-82323223D01*
X175341401Y-82306747D01*
X175361107Y-82292132D01*
X175382150Y-82279520D01*
X175404329Y-82269030D01*
X175427428Y-82260765D01*
X175451227Y-82254804D01*
X175475495Y-82251204D01*
X175499999Y-82250000D01*
X176150001Y-82250000D01*
X176174505Y-82251204D01*
X176174505Y-82251204D01*
G37*
D22*
X175825000Y-82950000D03*
D13*
G36*
X189074505Y-85151204D02*
G01*
X189098773Y-85154804D01*
X189122572Y-85160765D01*
X189145671Y-85169030D01*
X189167850Y-85179520D01*
X189188893Y-85192132D01*
X189208599Y-85206747D01*
X189226777Y-85223223D01*
X189243253Y-85241401D01*
X189257868Y-85261107D01*
X189270480Y-85282150D01*
X189280970Y-85304329D01*
X189289235Y-85327428D01*
X189295196Y-85351227D01*
X189298796Y-85375495D01*
X189300000Y-85399999D01*
X189300000Y-86050001D01*
X189298796Y-86074505D01*
X189295196Y-86098773D01*
X189289235Y-86122572D01*
X189280970Y-86145671D01*
X189270480Y-86167850D01*
X189257868Y-86188893D01*
X189243253Y-86208599D01*
X189226777Y-86226777D01*
X189208599Y-86243253D01*
X189188893Y-86257868D01*
X189167850Y-86270480D01*
X189145671Y-86280970D01*
X189122572Y-86289235D01*
X189098773Y-86295196D01*
X189074505Y-86298796D01*
X189050001Y-86300000D01*
X188149999Y-86300000D01*
X188125495Y-86298796D01*
X188101227Y-86295196D01*
X188077428Y-86289235D01*
X188054329Y-86280970D01*
X188032150Y-86270480D01*
X188011107Y-86257868D01*
X187991401Y-86243253D01*
X187973223Y-86226777D01*
X187956747Y-86208599D01*
X187942132Y-86188893D01*
X187929520Y-86167850D01*
X187919030Y-86145671D01*
X187910765Y-86122572D01*
X187904804Y-86098773D01*
X187901204Y-86074505D01*
X187900000Y-86050001D01*
X187900000Y-85399999D01*
X187901204Y-85375495D01*
X187904804Y-85351227D01*
X187910765Y-85327428D01*
X187919030Y-85304329D01*
X187929520Y-85282150D01*
X187942132Y-85261107D01*
X187956747Y-85241401D01*
X187973223Y-85223223D01*
X187991401Y-85206747D01*
X188011107Y-85192132D01*
X188032150Y-85179520D01*
X188054329Y-85169030D01*
X188077428Y-85160765D01*
X188101227Y-85154804D01*
X188125495Y-85151204D01*
X188149999Y-85150000D01*
X189050001Y-85150000D01*
X189074505Y-85151204D01*
X189074505Y-85151204D01*
G37*
D22*
X188600000Y-85725000D03*
D13*
G36*
X189074505Y-87201204D02*
G01*
X189098773Y-87204804D01*
X189122572Y-87210765D01*
X189145671Y-87219030D01*
X189167850Y-87229520D01*
X189188893Y-87242132D01*
X189208599Y-87256747D01*
X189226777Y-87273223D01*
X189243253Y-87291401D01*
X189257868Y-87311107D01*
X189270480Y-87332150D01*
X189280970Y-87354329D01*
X189289235Y-87377428D01*
X189295196Y-87401227D01*
X189298796Y-87425495D01*
X189300000Y-87449999D01*
X189300000Y-88100001D01*
X189298796Y-88124505D01*
X189295196Y-88148773D01*
X189289235Y-88172572D01*
X189280970Y-88195671D01*
X189270480Y-88217850D01*
X189257868Y-88238893D01*
X189243253Y-88258599D01*
X189226777Y-88276777D01*
X189208599Y-88293253D01*
X189188893Y-88307868D01*
X189167850Y-88320480D01*
X189145671Y-88330970D01*
X189122572Y-88339235D01*
X189098773Y-88345196D01*
X189074505Y-88348796D01*
X189050001Y-88350000D01*
X188149999Y-88350000D01*
X188125495Y-88348796D01*
X188101227Y-88345196D01*
X188077428Y-88339235D01*
X188054329Y-88330970D01*
X188032150Y-88320480D01*
X188011107Y-88307868D01*
X187991401Y-88293253D01*
X187973223Y-88276777D01*
X187956747Y-88258599D01*
X187942132Y-88238893D01*
X187929520Y-88217850D01*
X187919030Y-88195671D01*
X187910765Y-88172572D01*
X187904804Y-88148773D01*
X187901204Y-88124505D01*
X187900000Y-88100001D01*
X187900000Y-87449999D01*
X187901204Y-87425495D01*
X187904804Y-87401227D01*
X187910765Y-87377428D01*
X187919030Y-87354329D01*
X187929520Y-87332150D01*
X187942132Y-87311107D01*
X187956747Y-87291401D01*
X187973223Y-87273223D01*
X187991401Y-87256747D01*
X188011107Y-87242132D01*
X188032150Y-87229520D01*
X188054329Y-87219030D01*
X188077428Y-87210765D01*
X188101227Y-87204804D01*
X188125495Y-87201204D01*
X188149999Y-87200000D01*
X189050001Y-87200000D01*
X189074505Y-87201204D01*
X189074505Y-87201204D01*
G37*
D22*
X188600000Y-87775000D03*
D23*
X176000000Y-89660000D03*
X176000000Y-85660000D03*
X176000000Y-88320000D03*
X176000000Y-87000000D03*
X173000000Y-88320000D03*
X173000000Y-89660000D03*
X173000000Y-85660000D03*
X173000000Y-87000000D03*
D24*
X172800000Y-110400000D03*
D25*
X171550000Y-108460000D03*
X172050000Y-108460000D03*
X172550000Y-108460000D03*
X173050000Y-108460000D03*
X173550000Y-108460000D03*
X174050000Y-108460000D03*
D26*
X174740000Y-109150000D03*
X174740000Y-109650000D03*
X174740000Y-110150000D03*
X174740000Y-110650000D03*
X174740000Y-111150000D03*
X174740000Y-111650000D03*
D25*
X174050000Y-112340000D03*
X173550000Y-112340000D03*
X173050000Y-112340000D03*
X172550000Y-112340000D03*
X172050000Y-112340000D03*
X171550000Y-112340000D03*
D26*
X170860000Y-111650000D03*
X170860000Y-111150000D03*
X170860000Y-110650000D03*
X170860000Y-110150000D03*
X170860000Y-109650000D03*
X170860000Y-109150000D03*
D27*
X179250000Y-69900000D03*
D28*
X185550000Y-69900000D03*
X185550000Y-67600000D03*
X185550000Y-72200000D03*
D13*
G36*
X182357351Y-85350361D02*
G01*
X182364632Y-85351441D01*
X182371771Y-85353229D01*
X182378701Y-85355709D01*
X182385355Y-85358856D01*
X182391668Y-85362640D01*
X182397579Y-85367024D01*
X182403033Y-85371967D01*
X182407976Y-85377421D01*
X182412360Y-85383332D01*
X182416144Y-85389645D01*
X182419291Y-85396299D01*
X182421771Y-85403229D01*
X182423559Y-85410368D01*
X182424639Y-85417649D01*
X182425000Y-85425000D01*
X182425000Y-85575000D01*
X182424639Y-85582351D01*
X182423559Y-85589632D01*
X182421771Y-85596771D01*
X182419291Y-85603701D01*
X182416144Y-85610355D01*
X182412360Y-85616668D01*
X182407976Y-85622579D01*
X182403033Y-85628033D01*
X182397579Y-85632976D01*
X182391668Y-85637360D01*
X182385355Y-85641144D01*
X182378701Y-85644291D01*
X182371771Y-85646771D01*
X182364632Y-85648559D01*
X182357351Y-85649639D01*
X182350000Y-85650000D01*
X181050000Y-85650000D01*
X181042649Y-85649639D01*
X181035368Y-85648559D01*
X181028229Y-85646771D01*
X181021299Y-85644291D01*
X181014645Y-85641144D01*
X181008332Y-85637360D01*
X181002421Y-85632976D01*
X180996967Y-85628033D01*
X180992024Y-85622579D01*
X180987640Y-85616668D01*
X180983856Y-85610355D01*
X180980709Y-85603701D01*
X180978229Y-85596771D01*
X180976441Y-85589632D01*
X180975361Y-85582351D01*
X180975000Y-85575000D01*
X180975000Y-85425000D01*
X180975361Y-85417649D01*
X180976441Y-85410368D01*
X180978229Y-85403229D01*
X180980709Y-85396299D01*
X180983856Y-85389645D01*
X180987640Y-85383332D01*
X180992024Y-85377421D01*
X180996967Y-85371967D01*
X181002421Y-85367024D01*
X181008332Y-85362640D01*
X181014645Y-85358856D01*
X181021299Y-85355709D01*
X181028229Y-85353229D01*
X181035368Y-85351441D01*
X181042649Y-85350361D01*
X181050000Y-85350000D01*
X182350000Y-85350000D01*
X182357351Y-85350361D01*
X182357351Y-85350361D01*
G37*
D29*
X181700000Y-85500000D03*
D13*
G36*
X182357351Y-85850361D02*
G01*
X182364632Y-85851441D01*
X182371771Y-85853229D01*
X182378701Y-85855709D01*
X182385355Y-85858856D01*
X182391668Y-85862640D01*
X182397579Y-85867024D01*
X182403033Y-85871967D01*
X182407976Y-85877421D01*
X182412360Y-85883332D01*
X182416144Y-85889645D01*
X182419291Y-85896299D01*
X182421771Y-85903229D01*
X182423559Y-85910368D01*
X182424639Y-85917649D01*
X182425000Y-85925000D01*
X182425000Y-86075000D01*
X182424639Y-86082351D01*
X182423559Y-86089632D01*
X182421771Y-86096771D01*
X182419291Y-86103701D01*
X182416144Y-86110355D01*
X182412360Y-86116668D01*
X182407976Y-86122579D01*
X182403033Y-86128033D01*
X182397579Y-86132976D01*
X182391668Y-86137360D01*
X182385355Y-86141144D01*
X182378701Y-86144291D01*
X182371771Y-86146771D01*
X182364632Y-86148559D01*
X182357351Y-86149639D01*
X182350000Y-86150000D01*
X181050000Y-86150000D01*
X181042649Y-86149639D01*
X181035368Y-86148559D01*
X181028229Y-86146771D01*
X181021299Y-86144291D01*
X181014645Y-86141144D01*
X181008332Y-86137360D01*
X181002421Y-86132976D01*
X180996967Y-86128033D01*
X180992024Y-86122579D01*
X180987640Y-86116668D01*
X180983856Y-86110355D01*
X180980709Y-86103701D01*
X180978229Y-86096771D01*
X180976441Y-86089632D01*
X180975361Y-86082351D01*
X180975000Y-86075000D01*
X180975000Y-85925000D01*
X180975361Y-85917649D01*
X180976441Y-85910368D01*
X180978229Y-85903229D01*
X180980709Y-85896299D01*
X180983856Y-85889645D01*
X180987640Y-85883332D01*
X180992024Y-85877421D01*
X180996967Y-85871967D01*
X181002421Y-85867024D01*
X181008332Y-85862640D01*
X181014645Y-85858856D01*
X181021299Y-85855709D01*
X181028229Y-85853229D01*
X181035368Y-85851441D01*
X181042649Y-85850361D01*
X181050000Y-85850000D01*
X182350000Y-85850000D01*
X182357351Y-85850361D01*
X182357351Y-85850361D01*
G37*
D29*
X181700000Y-86000000D03*
D13*
G36*
X182357351Y-86350361D02*
G01*
X182364632Y-86351441D01*
X182371771Y-86353229D01*
X182378701Y-86355709D01*
X182385355Y-86358856D01*
X182391668Y-86362640D01*
X182397579Y-86367024D01*
X182403033Y-86371967D01*
X182407976Y-86377421D01*
X182412360Y-86383332D01*
X182416144Y-86389645D01*
X182419291Y-86396299D01*
X182421771Y-86403229D01*
X182423559Y-86410368D01*
X182424639Y-86417649D01*
X182425000Y-86425000D01*
X182425000Y-86575000D01*
X182424639Y-86582351D01*
X182423559Y-86589632D01*
X182421771Y-86596771D01*
X182419291Y-86603701D01*
X182416144Y-86610355D01*
X182412360Y-86616668D01*
X182407976Y-86622579D01*
X182403033Y-86628033D01*
X182397579Y-86632976D01*
X182391668Y-86637360D01*
X182385355Y-86641144D01*
X182378701Y-86644291D01*
X182371771Y-86646771D01*
X182364632Y-86648559D01*
X182357351Y-86649639D01*
X182350000Y-86650000D01*
X181050000Y-86650000D01*
X181042649Y-86649639D01*
X181035368Y-86648559D01*
X181028229Y-86646771D01*
X181021299Y-86644291D01*
X181014645Y-86641144D01*
X181008332Y-86637360D01*
X181002421Y-86632976D01*
X180996967Y-86628033D01*
X180992024Y-86622579D01*
X180987640Y-86616668D01*
X180983856Y-86610355D01*
X180980709Y-86603701D01*
X180978229Y-86596771D01*
X180976441Y-86589632D01*
X180975361Y-86582351D01*
X180975000Y-86575000D01*
X180975000Y-86425000D01*
X180975361Y-86417649D01*
X180976441Y-86410368D01*
X180978229Y-86403229D01*
X180980709Y-86396299D01*
X180983856Y-86389645D01*
X180987640Y-86383332D01*
X180992024Y-86377421D01*
X180996967Y-86371967D01*
X181002421Y-86367024D01*
X181008332Y-86362640D01*
X181014645Y-86358856D01*
X181021299Y-86355709D01*
X181028229Y-86353229D01*
X181035368Y-86351441D01*
X181042649Y-86350361D01*
X181050000Y-86350000D01*
X182350000Y-86350000D01*
X182357351Y-86350361D01*
X182357351Y-86350361D01*
G37*
D29*
X181700000Y-86500000D03*
D13*
G36*
X182357351Y-86850361D02*
G01*
X182364632Y-86851441D01*
X182371771Y-86853229D01*
X182378701Y-86855709D01*
X182385355Y-86858856D01*
X182391668Y-86862640D01*
X182397579Y-86867024D01*
X182403033Y-86871967D01*
X182407976Y-86877421D01*
X182412360Y-86883332D01*
X182416144Y-86889645D01*
X182419291Y-86896299D01*
X182421771Y-86903229D01*
X182423559Y-86910368D01*
X182424639Y-86917649D01*
X182425000Y-86925000D01*
X182425000Y-87075000D01*
X182424639Y-87082351D01*
X182423559Y-87089632D01*
X182421771Y-87096771D01*
X182419291Y-87103701D01*
X182416144Y-87110355D01*
X182412360Y-87116668D01*
X182407976Y-87122579D01*
X182403033Y-87128033D01*
X182397579Y-87132976D01*
X182391668Y-87137360D01*
X182385355Y-87141144D01*
X182378701Y-87144291D01*
X182371771Y-87146771D01*
X182364632Y-87148559D01*
X182357351Y-87149639D01*
X182350000Y-87150000D01*
X181050000Y-87150000D01*
X181042649Y-87149639D01*
X181035368Y-87148559D01*
X181028229Y-87146771D01*
X181021299Y-87144291D01*
X181014645Y-87141144D01*
X181008332Y-87137360D01*
X181002421Y-87132976D01*
X180996967Y-87128033D01*
X180992024Y-87122579D01*
X180987640Y-87116668D01*
X180983856Y-87110355D01*
X180980709Y-87103701D01*
X180978229Y-87096771D01*
X180976441Y-87089632D01*
X180975361Y-87082351D01*
X180975000Y-87075000D01*
X180975000Y-86925000D01*
X180975361Y-86917649D01*
X180976441Y-86910368D01*
X180978229Y-86903229D01*
X180980709Y-86896299D01*
X180983856Y-86889645D01*
X180987640Y-86883332D01*
X180992024Y-86877421D01*
X180996967Y-86871967D01*
X181002421Y-86867024D01*
X181008332Y-86862640D01*
X181014645Y-86858856D01*
X181021299Y-86855709D01*
X181028229Y-86853229D01*
X181035368Y-86851441D01*
X181042649Y-86850361D01*
X181050000Y-86850000D01*
X182350000Y-86850000D01*
X182357351Y-86850361D01*
X182357351Y-86850361D01*
G37*
D29*
X181700000Y-87000000D03*
D13*
G36*
X182357351Y-87350361D02*
G01*
X182364632Y-87351441D01*
X182371771Y-87353229D01*
X182378701Y-87355709D01*
X182385355Y-87358856D01*
X182391668Y-87362640D01*
X182397579Y-87367024D01*
X182403033Y-87371967D01*
X182407976Y-87377421D01*
X182412360Y-87383332D01*
X182416144Y-87389645D01*
X182419291Y-87396299D01*
X182421771Y-87403229D01*
X182423559Y-87410368D01*
X182424639Y-87417649D01*
X182425000Y-87425000D01*
X182425000Y-87575000D01*
X182424639Y-87582351D01*
X182423559Y-87589632D01*
X182421771Y-87596771D01*
X182419291Y-87603701D01*
X182416144Y-87610355D01*
X182412360Y-87616668D01*
X182407976Y-87622579D01*
X182403033Y-87628033D01*
X182397579Y-87632976D01*
X182391668Y-87637360D01*
X182385355Y-87641144D01*
X182378701Y-87644291D01*
X182371771Y-87646771D01*
X182364632Y-87648559D01*
X182357351Y-87649639D01*
X182350000Y-87650000D01*
X181050000Y-87650000D01*
X181042649Y-87649639D01*
X181035368Y-87648559D01*
X181028229Y-87646771D01*
X181021299Y-87644291D01*
X181014645Y-87641144D01*
X181008332Y-87637360D01*
X181002421Y-87632976D01*
X180996967Y-87628033D01*
X180992024Y-87622579D01*
X180987640Y-87616668D01*
X180983856Y-87610355D01*
X180980709Y-87603701D01*
X180978229Y-87596771D01*
X180976441Y-87589632D01*
X180975361Y-87582351D01*
X180975000Y-87575000D01*
X180975000Y-87425000D01*
X180975361Y-87417649D01*
X180976441Y-87410368D01*
X180978229Y-87403229D01*
X180980709Y-87396299D01*
X180983856Y-87389645D01*
X180987640Y-87383332D01*
X180992024Y-87377421D01*
X180996967Y-87371967D01*
X181002421Y-87367024D01*
X181008332Y-87362640D01*
X181014645Y-87358856D01*
X181021299Y-87355709D01*
X181028229Y-87353229D01*
X181035368Y-87351441D01*
X181042649Y-87350361D01*
X181050000Y-87350000D01*
X182350000Y-87350000D01*
X182357351Y-87350361D01*
X182357351Y-87350361D01*
G37*
D29*
X181700000Y-87500000D03*
D13*
G36*
X182357351Y-87850361D02*
G01*
X182364632Y-87851441D01*
X182371771Y-87853229D01*
X182378701Y-87855709D01*
X182385355Y-87858856D01*
X182391668Y-87862640D01*
X182397579Y-87867024D01*
X182403033Y-87871967D01*
X182407976Y-87877421D01*
X182412360Y-87883332D01*
X182416144Y-87889645D01*
X182419291Y-87896299D01*
X182421771Y-87903229D01*
X182423559Y-87910368D01*
X182424639Y-87917649D01*
X182425000Y-87925000D01*
X182425000Y-88075000D01*
X182424639Y-88082351D01*
X182423559Y-88089632D01*
X182421771Y-88096771D01*
X182419291Y-88103701D01*
X182416144Y-88110355D01*
X182412360Y-88116668D01*
X182407976Y-88122579D01*
X182403033Y-88128033D01*
X182397579Y-88132976D01*
X182391668Y-88137360D01*
X182385355Y-88141144D01*
X182378701Y-88144291D01*
X182371771Y-88146771D01*
X182364632Y-88148559D01*
X182357351Y-88149639D01*
X182350000Y-88150000D01*
X181050000Y-88150000D01*
X181042649Y-88149639D01*
X181035368Y-88148559D01*
X181028229Y-88146771D01*
X181021299Y-88144291D01*
X181014645Y-88141144D01*
X181008332Y-88137360D01*
X181002421Y-88132976D01*
X180996967Y-88128033D01*
X180992024Y-88122579D01*
X180987640Y-88116668D01*
X180983856Y-88110355D01*
X180980709Y-88103701D01*
X180978229Y-88096771D01*
X180976441Y-88089632D01*
X180975361Y-88082351D01*
X180975000Y-88075000D01*
X180975000Y-87925000D01*
X180975361Y-87917649D01*
X180976441Y-87910368D01*
X180978229Y-87903229D01*
X180980709Y-87896299D01*
X180983856Y-87889645D01*
X180987640Y-87883332D01*
X180992024Y-87877421D01*
X180996967Y-87871967D01*
X181002421Y-87867024D01*
X181008332Y-87862640D01*
X181014645Y-87858856D01*
X181021299Y-87855709D01*
X181028229Y-87853229D01*
X181035368Y-87851441D01*
X181042649Y-87850361D01*
X181050000Y-87850000D01*
X182350000Y-87850000D01*
X182357351Y-87850361D01*
X182357351Y-87850361D01*
G37*
D29*
X181700000Y-88000000D03*
D13*
G36*
X182357351Y-88350361D02*
G01*
X182364632Y-88351441D01*
X182371771Y-88353229D01*
X182378701Y-88355709D01*
X182385355Y-88358856D01*
X182391668Y-88362640D01*
X182397579Y-88367024D01*
X182403033Y-88371967D01*
X182407976Y-88377421D01*
X182412360Y-88383332D01*
X182416144Y-88389645D01*
X182419291Y-88396299D01*
X182421771Y-88403229D01*
X182423559Y-88410368D01*
X182424639Y-88417649D01*
X182425000Y-88425000D01*
X182425000Y-88575000D01*
X182424639Y-88582351D01*
X182423559Y-88589632D01*
X182421771Y-88596771D01*
X182419291Y-88603701D01*
X182416144Y-88610355D01*
X182412360Y-88616668D01*
X182407976Y-88622579D01*
X182403033Y-88628033D01*
X182397579Y-88632976D01*
X182391668Y-88637360D01*
X182385355Y-88641144D01*
X182378701Y-88644291D01*
X182371771Y-88646771D01*
X182364632Y-88648559D01*
X182357351Y-88649639D01*
X182350000Y-88650000D01*
X181050000Y-88650000D01*
X181042649Y-88649639D01*
X181035368Y-88648559D01*
X181028229Y-88646771D01*
X181021299Y-88644291D01*
X181014645Y-88641144D01*
X181008332Y-88637360D01*
X181002421Y-88632976D01*
X180996967Y-88628033D01*
X180992024Y-88622579D01*
X180987640Y-88616668D01*
X180983856Y-88610355D01*
X180980709Y-88603701D01*
X180978229Y-88596771D01*
X180976441Y-88589632D01*
X180975361Y-88582351D01*
X180975000Y-88575000D01*
X180975000Y-88425000D01*
X180975361Y-88417649D01*
X180976441Y-88410368D01*
X180978229Y-88403229D01*
X180980709Y-88396299D01*
X180983856Y-88389645D01*
X180987640Y-88383332D01*
X180992024Y-88377421D01*
X180996967Y-88371967D01*
X181002421Y-88367024D01*
X181008332Y-88362640D01*
X181014645Y-88358856D01*
X181021299Y-88355709D01*
X181028229Y-88353229D01*
X181035368Y-88351441D01*
X181042649Y-88350361D01*
X181050000Y-88350000D01*
X182350000Y-88350000D01*
X182357351Y-88350361D01*
X182357351Y-88350361D01*
G37*
D29*
X181700000Y-88500000D03*
D13*
G36*
X182357351Y-88850361D02*
G01*
X182364632Y-88851441D01*
X182371771Y-88853229D01*
X182378701Y-88855709D01*
X182385355Y-88858856D01*
X182391668Y-88862640D01*
X182397579Y-88867024D01*
X182403033Y-88871967D01*
X182407976Y-88877421D01*
X182412360Y-88883332D01*
X182416144Y-88889645D01*
X182419291Y-88896299D01*
X182421771Y-88903229D01*
X182423559Y-88910368D01*
X182424639Y-88917649D01*
X182425000Y-88925000D01*
X182425000Y-89075000D01*
X182424639Y-89082351D01*
X182423559Y-89089632D01*
X182421771Y-89096771D01*
X182419291Y-89103701D01*
X182416144Y-89110355D01*
X182412360Y-89116668D01*
X182407976Y-89122579D01*
X182403033Y-89128033D01*
X182397579Y-89132976D01*
X182391668Y-89137360D01*
X182385355Y-89141144D01*
X182378701Y-89144291D01*
X182371771Y-89146771D01*
X182364632Y-89148559D01*
X182357351Y-89149639D01*
X182350000Y-89150000D01*
X181050000Y-89150000D01*
X181042649Y-89149639D01*
X181035368Y-89148559D01*
X181028229Y-89146771D01*
X181021299Y-89144291D01*
X181014645Y-89141144D01*
X181008332Y-89137360D01*
X181002421Y-89132976D01*
X180996967Y-89128033D01*
X180992024Y-89122579D01*
X180987640Y-89116668D01*
X180983856Y-89110355D01*
X180980709Y-89103701D01*
X180978229Y-89096771D01*
X180976441Y-89089632D01*
X180975361Y-89082351D01*
X180975000Y-89075000D01*
X180975000Y-88925000D01*
X180975361Y-88917649D01*
X180976441Y-88910368D01*
X180978229Y-88903229D01*
X180980709Y-88896299D01*
X180983856Y-88889645D01*
X180987640Y-88883332D01*
X180992024Y-88877421D01*
X180996967Y-88871967D01*
X181002421Y-88867024D01*
X181008332Y-88862640D01*
X181014645Y-88858856D01*
X181021299Y-88855709D01*
X181028229Y-88853229D01*
X181035368Y-88851441D01*
X181042649Y-88850361D01*
X181050000Y-88850000D01*
X182350000Y-88850000D01*
X182357351Y-88850361D01*
X182357351Y-88850361D01*
G37*
D29*
X181700000Y-89000000D03*
D13*
G36*
X186657351Y-88850361D02*
G01*
X186664632Y-88851441D01*
X186671771Y-88853229D01*
X186678701Y-88855709D01*
X186685355Y-88858856D01*
X186691668Y-88862640D01*
X186697579Y-88867024D01*
X186703033Y-88871967D01*
X186707976Y-88877421D01*
X186712360Y-88883332D01*
X186716144Y-88889645D01*
X186719291Y-88896299D01*
X186721771Y-88903229D01*
X186723559Y-88910368D01*
X186724639Y-88917649D01*
X186725000Y-88925000D01*
X186725000Y-89075000D01*
X186724639Y-89082351D01*
X186723559Y-89089632D01*
X186721771Y-89096771D01*
X186719291Y-89103701D01*
X186716144Y-89110355D01*
X186712360Y-89116668D01*
X186707976Y-89122579D01*
X186703033Y-89128033D01*
X186697579Y-89132976D01*
X186691668Y-89137360D01*
X186685355Y-89141144D01*
X186678701Y-89144291D01*
X186671771Y-89146771D01*
X186664632Y-89148559D01*
X186657351Y-89149639D01*
X186650000Y-89150000D01*
X185350000Y-89150000D01*
X185342649Y-89149639D01*
X185335368Y-89148559D01*
X185328229Y-89146771D01*
X185321299Y-89144291D01*
X185314645Y-89141144D01*
X185308332Y-89137360D01*
X185302421Y-89132976D01*
X185296967Y-89128033D01*
X185292024Y-89122579D01*
X185287640Y-89116668D01*
X185283856Y-89110355D01*
X185280709Y-89103701D01*
X185278229Y-89096771D01*
X185276441Y-89089632D01*
X185275361Y-89082351D01*
X185275000Y-89075000D01*
X185275000Y-88925000D01*
X185275361Y-88917649D01*
X185276441Y-88910368D01*
X185278229Y-88903229D01*
X185280709Y-88896299D01*
X185283856Y-88889645D01*
X185287640Y-88883332D01*
X185292024Y-88877421D01*
X185296967Y-88871967D01*
X185302421Y-88867024D01*
X185308332Y-88862640D01*
X185314645Y-88858856D01*
X185321299Y-88855709D01*
X185328229Y-88853229D01*
X185335368Y-88851441D01*
X185342649Y-88850361D01*
X185350000Y-88850000D01*
X186650000Y-88850000D01*
X186657351Y-88850361D01*
X186657351Y-88850361D01*
G37*
D29*
X186000000Y-89000000D03*
D13*
G36*
X186657351Y-88350361D02*
G01*
X186664632Y-88351441D01*
X186671771Y-88353229D01*
X186678701Y-88355709D01*
X186685355Y-88358856D01*
X186691668Y-88362640D01*
X186697579Y-88367024D01*
X186703033Y-88371967D01*
X186707976Y-88377421D01*
X186712360Y-88383332D01*
X186716144Y-88389645D01*
X186719291Y-88396299D01*
X186721771Y-88403229D01*
X186723559Y-88410368D01*
X186724639Y-88417649D01*
X186725000Y-88425000D01*
X186725000Y-88575000D01*
X186724639Y-88582351D01*
X186723559Y-88589632D01*
X186721771Y-88596771D01*
X186719291Y-88603701D01*
X186716144Y-88610355D01*
X186712360Y-88616668D01*
X186707976Y-88622579D01*
X186703033Y-88628033D01*
X186697579Y-88632976D01*
X186691668Y-88637360D01*
X186685355Y-88641144D01*
X186678701Y-88644291D01*
X186671771Y-88646771D01*
X186664632Y-88648559D01*
X186657351Y-88649639D01*
X186650000Y-88650000D01*
X185350000Y-88650000D01*
X185342649Y-88649639D01*
X185335368Y-88648559D01*
X185328229Y-88646771D01*
X185321299Y-88644291D01*
X185314645Y-88641144D01*
X185308332Y-88637360D01*
X185302421Y-88632976D01*
X185296967Y-88628033D01*
X185292024Y-88622579D01*
X185287640Y-88616668D01*
X185283856Y-88610355D01*
X185280709Y-88603701D01*
X185278229Y-88596771D01*
X185276441Y-88589632D01*
X185275361Y-88582351D01*
X185275000Y-88575000D01*
X185275000Y-88425000D01*
X185275361Y-88417649D01*
X185276441Y-88410368D01*
X185278229Y-88403229D01*
X185280709Y-88396299D01*
X185283856Y-88389645D01*
X185287640Y-88383332D01*
X185292024Y-88377421D01*
X185296967Y-88371967D01*
X185302421Y-88367024D01*
X185308332Y-88362640D01*
X185314645Y-88358856D01*
X185321299Y-88355709D01*
X185328229Y-88353229D01*
X185335368Y-88351441D01*
X185342649Y-88350361D01*
X185350000Y-88350000D01*
X186650000Y-88350000D01*
X186657351Y-88350361D01*
X186657351Y-88350361D01*
G37*
D29*
X186000000Y-88500000D03*
D13*
G36*
X186657351Y-87850361D02*
G01*
X186664632Y-87851441D01*
X186671771Y-87853229D01*
X186678701Y-87855709D01*
X186685355Y-87858856D01*
X186691668Y-87862640D01*
X186697579Y-87867024D01*
X186703033Y-87871967D01*
X186707976Y-87877421D01*
X186712360Y-87883332D01*
X186716144Y-87889645D01*
X186719291Y-87896299D01*
X186721771Y-87903229D01*
X186723559Y-87910368D01*
X186724639Y-87917649D01*
X186725000Y-87925000D01*
X186725000Y-88075000D01*
X186724639Y-88082351D01*
X186723559Y-88089632D01*
X186721771Y-88096771D01*
X186719291Y-88103701D01*
X186716144Y-88110355D01*
X186712360Y-88116668D01*
X186707976Y-88122579D01*
X186703033Y-88128033D01*
X186697579Y-88132976D01*
X186691668Y-88137360D01*
X186685355Y-88141144D01*
X186678701Y-88144291D01*
X186671771Y-88146771D01*
X186664632Y-88148559D01*
X186657351Y-88149639D01*
X186650000Y-88150000D01*
X185350000Y-88150000D01*
X185342649Y-88149639D01*
X185335368Y-88148559D01*
X185328229Y-88146771D01*
X185321299Y-88144291D01*
X185314645Y-88141144D01*
X185308332Y-88137360D01*
X185302421Y-88132976D01*
X185296967Y-88128033D01*
X185292024Y-88122579D01*
X185287640Y-88116668D01*
X185283856Y-88110355D01*
X185280709Y-88103701D01*
X185278229Y-88096771D01*
X185276441Y-88089632D01*
X185275361Y-88082351D01*
X185275000Y-88075000D01*
X185275000Y-87925000D01*
X185275361Y-87917649D01*
X185276441Y-87910368D01*
X185278229Y-87903229D01*
X185280709Y-87896299D01*
X185283856Y-87889645D01*
X185287640Y-87883332D01*
X185292024Y-87877421D01*
X185296967Y-87871967D01*
X185302421Y-87867024D01*
X185308332Y-87862640D01*
X185314645Y-87858856D01*
X185321299Y-87855709D01*
X185328229Y-87853229D01*
X185335368Y-87851441D01*
X185342649Y-87850361D01*
X185350000Y-87850000D01*
X186650000Y-87850000D01*
X186657351Y-87850361D01*
X186657351Y-87850361D01*
G37*
D29*
X186000000Y-88000000D03*
D13*
G36*
X186657351Y-87350361D02*
G01*
X186664632Y-87351441D01*
X186671771Y-87353229D01*
X186678701Y-87355709D01*
X186685355Y-87358856D01*
X186691668Y-87362640D01*
X186697579Y-87367024D01*
X186703033Y-87371967D01*
X186707976Y-87377421D01*
X186712360Y-87383332D01*
X186716144Y-87389645D01*
X186719291Y-87396299D01*
X186721771Y-87403229D01*
X186723559Y-87410368D01*
X186724639Y-87417649D01*
X186725000Y-87425000D01*
X186725000Y-87575000D01*
X186724639Y-87582351D01*
X186723559Y-87589632D01*
X186721771Y-87596771D01*
X186719291Y-87603701D01*
X186716144Y-87610355D01*
X186712360Y-87616668D01*
X186707976Y-87622579D01*
X186703033Y-87628033D01*
X186697579Y-87632976D01*
X186691668Y-87637360D01*
X186685355Y-87641144D01*
X186678701Y-87644291D01*
X186671771Y-87646771D01*
X186664632Y-87648559D01*
X186657351Y-87649639D01*
X186650000Y-87650000D01*
X185350000Y-87650000D01*
X185342649Y-87649639D01*
X185335368Y-87648559D01*
X185328229Y-87646771D01*
X185321299Y-87644291D01*
X185314645Y-87641144D01*
X185308332Y-87637360D01*
X185302421Y-87632976D01*
X185296967Y-87628033D01*
X185292024Y-87622579D01*
X185287640Y-87616668D01*
X185283856Y-87610355D01*
X185280709Y-87603701D01*
X185278229Y-87596771D01*
X185276441Y-87589632D01*
X185275361Y-87582351D01*
X185275000Y-87575000D01*
X185275000Y-87425000D01*
X185275361Y-87417649D01*
X185276441Y-87410368D01*
X185278229Y-87403229D01*
X185280709Y-87396299D01*
X185283856Y-87389645D01*
X185287640Y-87383332D01*
X185292024Y-87377421D01*
X185296967Y-87371967D01*
X185302421Y-87367024D01*
X185308332Y-87362640D01*
X185314645Y-87358856D01*
X185321299Y-87355709D01*
X185328229Y-87353229D01*
X185335368Y-87351441D01*
X185342649Y-87350361D01*
X185350000Y-87350000D01*
X186650000Y-87350000D01*
X186657351Y-87350361D01*
X186657351Y-87350361D01*
G37*
D29*
X186000000Y-87500000D03*
D13*
G36*
X186657351Y-86850361D02*
G01*
X186664632Y-86851441D01*
X186671771Y-86853229D01*
X186678701Y-86855709D01*
X186685355Y-86858856D01*
X186691668Y-86862640D01*
X186697579Y-86867024D01*
X186703033Y-86871967D01*
X186707976Y-86877421D01*
X186712360Y-86883332D01*
X186716144Y-86889645D01*
X186719291Y-86896299D01*
X186721771Y-86903229D01*
X186723559Y-86910368D01*
X186724639Y-86917649D01*
X186725000Y-86925000D01*
X186725000Y-87075000D01*
X186724639Y-87082351D01*
X186723559Y-87089632D01*
X186721771Y-87096771D01*
X186719291Y-87103701D01*
X186716144Y-87110355D01*
X186712360Y-87116668D01*
X186707976Y-87122579D01*
X186703033Y-87128033D01*
X186697579Y-87132976D01*
X186691668Y-87137360D01*
X186685355Y-87141144D01*
X186678701Y-87144291D01*
X186671771Y-87146771D01*
X186664632Y-87148559D01*
X186657351Y-87149639D01*
X186650000Y-87150000D01*
X185350000Y-87150000D01*
X185342649Y-87149639D01*
X185335368Y-87148559D01*
X185328229Y-87146771D01*
X185321299Y-87144291D01*
X185314645Y-87141144D01*
X185308332Y-87137360D01*
X185302421Y-87132976D01*
X185296967Y-87128033D01*
X185292024Y-87122579D01*
X185287640Y-87116668D01*
X185283856Y-87110355D01*
X185280709Y-87103701D01*
X185278229Y-87096771D01*
X185276441Y-87089632D01*
X185275361Y-87082351D01*
X185275000Y-87075000D01*
X185275000Y-86925000D01*
X185275361Y-86917649D01*
X185276441Y-86910368D01*
X185278229Y-86903229D01*
X185280709Y-86896299D01*
X185283856Y-86889645D01*
X185287640Y-86883332D01*
X185292024Y-86877421D01*
X185296967Y-86871967D01*
X185302421Y-86867024D01*
X185308332Y-86862640D01*
X185314645Y-86858856D01*
X185321299Y-86855709D01*
X185328229Y-86853229D01*
X185335368Y-86851441D01*
X185342649Y-86850361D01*
X185350000Y-86850000D01*
X186650000Y-86850000D01*
X186657351Y-86850361D01*
X186657351Y-86850361D01*
G37*
D29*
X186000000Y-87000000D03*
D13*
G36*
X186657351Y-86350361D02*
G01*
X186664632Y-86351441D01*
X186671771Y-86353229D01*
X186678701Y-86355709D01*
X186685355Y-86358856D01*
X186691668Y-86362640D01*
X186697579Y-86367024D01*
X186703033Y-86371967D01*
X186707976Y-86377421D01*
X186712360Y-86383332D01*
X186716144Y-86389645D01*
X186719291Y-86396299D01*
X186721771Y-86403229D01*
X186723559Y-86410368D01*
X186724639Y-86417649D01*
X186725000Y-86425000D01*
X186725000Y-86575000D01*
X186724639Y-86582351D01*
X186723559Y-86589632D01*
X186721771Y-86596771D01*
X186719291Y-86603701D01*
X186716144Y-86610355D01*
X186712360Y-86616668D01*
X186707976Y-86622579D01*
X186703033Y-86628033D01*
X186697579Y-86632976D01*
X186691668Y-86637360D01*
X186685355Y-86641144D01*
X186678701Y-86644291D01*
X186671771Y-86646771D01*
X186664632Y-86648559D01*
X186657351Y-86649639D01*
X186650000Y-86650000D01*
X185350000Y-86650000D01*
X185342649Y-86649639D01*
X185335368Y-86648559D01*
X185328229Y-86646771D01*
X185321299Y-86644291D01*
X185314645Y-86641144D01*
X185308332Y-86637360D01*
X185302421Y-86632976D01*
X185296967Y-86628033D01*
X185292024Y-86622579D01*
X185287640Y-86616668D01*
X185283856Y-86610355D01*
X185280709Y-86603701D01*
X185278229Y-86596771D01*
X185276441Y-86589632D01*
X185275361Y-86582351D01*
X185275000Y-86575000D01*
X185275000Y-86425000D01*
X185275361Y-86417649D01*
X185276441Y-86410368D01*
X185278229Y-86403229D01*
X185280709Y-86396299D01*
X185283856Y-86389645D01*
X185287640Y-86383332D01*
X185292024Y-86377421D01*
X185296967Y-86371967D01*
X185302421Y-86367024D01*
X185308332Y-86362640D01*
X185314645Y-86358856D01*
X185321299Y-86355709D01*
X185328229Y-86353229D01*
X185335368Y-86351441D01*
X185342649Y-86350361D01*
X185350000Y-86350000D01*
X186650000Y-86350000D01*
X186657351Y-86350361D01*
X186657351Y-86350361D01*
G37*
D29*
X186000000Y-86500000D03*
D13*
G36*
X186657351Y-85850361D02*
G01*
X186664632Y-85851441D01*
X186671771Y-85853229D01*
X186678701Y-85855709D01*
X186685355Y-85858856D01*
X186691668Y-85862640D01*
X186697579Y-85867024D01*
X186703033Y-85871967D01*
X186707976Y-85877421D01*
X186712360Y-85883332D01*
X186716144Y-85889645D01*
X186719291Y-85896299D01*
X186721771Y-85903229D01*
X186723559Y-85910368D01*
X186724639Y-85917649D01*
X186725000Y-85925000D01*
X186725000Y-86075000D01*
X186724639Y-86082351D01*
X186723559Y-86089632D01*
X186721771Y-86096771D01*
X186719291Y-86103701D01*
X186716144Y-86110355D01*
X186712360Y-86116668D01*
X186707976Y-86122579D01*
X186703033Y-86128033D01*
X186697579Y-86132976D01*
X186691668Y-86137360D01*
X186685355Y-86141144D01*
X186678701Y-86144291D01*
X186671771Y-86146771D01*
X186664632Y-86148559D01*
X186657351Y-86149639D01*
X186650000Y-86150000D01*
X185350000Y-86150000D01*
X185342649Y-86149639D01*
X185335368Y-86148559D01*
X185328229Y-86146771D01*
X185321299Y-86144291D01*
X185314645Y-86141144D01*
X185308332Y-86137360D01*
X185302421Y-86132976D01*
X185296967Y-86128033D01*
X185292024Y-86122579D01*
X185287640Y-86116668D01*
X185283856Y-86110355D01*
X185280709Y-86103701D01*
X185278229Y-86096771D01*
X185276441Y-86089632D01*
X185275361Y-86082351D01*
X185275000Y-86075000D01*
X185275000Y-85925000D01*
X185275361Y-85917649D01*
X185276441Y-85910368D01*
X185278229Y-85903229D01*
X185280709Y-85896299D01*
X185283856Y-85889645D01*
X185287640Y-85883332D01*
X185292024Y-85877421D01*
X185296967Y-85871967D01*
X185302421Y-85867024D01*
X185308332Y-85862640D01*
X185314645Y-85858856D01*
X185321299Y-85855709D01*
X185328229Y-85853229D01*
X185335368Y-85851441D01*
X185342649Y-85850361D01*
X185350000Y-85850000D01*
X186650000Y-85850000D01*
X186657351Y-85850361D01*
X186657351Y-85850361D01*
G37*
D29*
X186000000Y-86000000D03*
D13*
G36*
X186657351Y-85350361D02*
G01*
X186664632Y-85351441D01*
X186671771Y-85353229D01*
X186678701Y-85355709D01*
X186685355Y-85358856D01*
X186691668Y-85362640D01*
X186697579Y-85367024D01*
X186703033Y-85371967D01*
X186707976Y-85377421D01*
X186712360Y-85383332D01*
X186716144Y-85389645D01*
X186719291Y-85396299D01*
X186721771Y-85403229D01*
X186723559Y-85410368D01*
X186724639Y-85417649D01*
X186725000Y-85425000D01*
X186725000Y-85575000D01*
X186724639Y-85582351D01*
X186723559Y-85589632D01*
X186721771Y-85596771D01*
X186719291Y-85603701D01*
X186716144Y-85610355D01*
X186712360Y-85616668D01*
X186707976Y-85622579D01*
X186703033Y-85628033D01*
X186697579Y-85632976D01*
X186691668Y-85637360D01*
X186685355Y-85641144D01*
X186678701Y-85644291D01*
X186671771Y-85646771D01*
X186664632Y-85648559D01*
X186657351Y-85649639D01*
X186650000Y-85650000D01*
X185350000Y-85650000D01*
X185342649Y-85649639D01*
X185335368Y-85648559D01*
X185328229Y-85646771D01*
X185321299Y-85644291D01*
X185314645Y-85641144D01*
X185308332Y-85637360D01*
X185302421Y-85632976D01*
X185296967Y-85628033D01*
X185292024Y-85622579D01*
X185287640Y-85616668D01*
X185283856Y-85610355D01*
X185280709Y-85603701D01*
X185278229Y-85596771D01*
X185276441Y-85589632D01*
X185275361Y-85582351D01*
X185275000Y-85575000D01*
X185275000Y-85425000D01*
X185275361Y-85417649D01*
X185276441Y-85410368D01*
X185278229Y-85403229D01*
X185280709Y-85396299D01*
X185283856Y-85389645D01*
X185287640Y-85383332D01*
X185292024Y-85377421D01*
X185296967Y-85371967D01*
X185302421Y-85367024D01*
X185308332Y-85362640D01*
X185314645Y-85358856D01*
X185321299Y-85355709D01*
X185328229Y-85353229D01*
X185335368Y-85351441D01*
X185342649Y-85350361D01*
X185350000Y-85350000D01*
X186650000Y-85350000D01*
X186657351Y-85350361D01*
X186657351Y-85350361D01*
G37*
D29*
X186000000Y-85500000D03*
D30*
X176000000Y-67200000D03*
X176000000Y-70280000D03*
X188800000Y-72740000D03*
X188800000Y-69660000D03*
D31*
X156425000Y-103600000D03*
X156425000Y-104600000D03*
X156425000Y-105600000D03*
X156425000Y-106600000D03*
X156425000Y-107600000D03*
X156425000Y-108600000D03*
X156425000Y-109600000D03*
X156425000Y-110600000D03*
X156425000Y-111600000D03*
X156425000Y-112600000D03*
X156425000Y-113600000D03*
X156425000Y-114600000D03*
X156425000Y-115600000D03*
X156425000Y-116600000D03*
X156425000Y-117600000D03*
D32*
X160175000Y-103600000D03*
X160175000Y-104600000D03*
X160175000Y-105600000D03*
X160175000Y-106600000D03*
X160175000Y-107600000D03*
X160175000Y-108600000D03*
X160175000Y-109600000D03*
X160175000Y-110600000D03*
X160175000Y-111600000D03*
X160175000Y-112600000D03*
X160175000Y-113600000D03*
X160175000Y-114600000D03*
X160175000Y-115600000D03*
X160175000Y-116600000D03*
X160175000Y-117600000D03*
X187025000Y-106800000D03*
X187025000Y-107800000D03*
X187025000Y-108800000D03*
X187025000Y-109800000D03*
X187025000Y-110800000D03*
X187025000Y-111800000D03*
X187025000Y-112800000D03*
X187025000Y-113800000D03*
X187025000Y-114800000D03*
X187025000Y-115800000D03*
X187025000Y-116800000D03*
X187025000Y-117800000D03*
X187025000Y-118800000D03*
X187025000Y-119800000D03*
X187025000Y-120800000D03*
D31*
X190775000Y-106800000D03*
X190775000Y-107800000D03*
X190775000Y-108800000D03*
X190775000Y-109800000D03*
X190775000Y-110800000D03*
X190775000Y-111800000D03*
X190775000Y-112800000D03*
X190775000Y-113800000D03*
X190775000Y-114800000D03*
X190775000Y-115800000D03*
X190775000Y-116800000D03*
X190775000Y-117800000D03*
X190775000Y-118800000D03*
X190775000Y-119800000D03*
X190775000Y-120800000D03*
D33*
X181200000Y-95425000D03*
X180200000Y-95425000D03*
X179200000Y-95425000D03*
X178200000Y-95425000D03*
X177200000Y-95425000D03*
X176200000Y-95425000D03*
X175200000Y-95425000D03*
X174200000Y-95425000D03*
X173200000Y-95425000D03*
X172200000Y-95425000D03*
X171200000Y-95425000D03*
X170200000Y-95425000D03*
X169200000Y-95425000D03*
X168200000Y-95425000D03*
X167200000Y-95425000D03*
D34*
X181200000Y-99175000D03*
X180200000Y-99175000D03*
X179200000Y-99175000D03*
X178200000Y-99175000D03*
X177200000Y-99175000D03*
X176200000Y-99175000D03*
X175200000Y-99175000D03*
X174200000Y-99175000D03*
X173200000Y-99175000D03*
X172200000Y-99175000D03*
X171200000Y-99175000D03*
X170200000Y-99175000D03*
X169200000Y-99175000D03*
X168200000Y-99175000D03*
X167200000Y-99175000D03*
M02*
