G04 #@! TF.GenerationSoftware,KiCad,Pcbnew,(5.1.0)-1*
G04 #@! TF.CreationDate,2020-03-10T13:48:57+00:00*
G04 #@! TF.ProjectId,2D Top Board,32442054-6f70-4204-926f-6172642e6b69,-*
G04 #@! TF.SameCoordinates,Original*
G04 #@! TF.FileFunction,Copper,L2,Bot*
G04 #@! TF.FilePolarity,Positive*
%FSLAX46Y46*%
G04 Gerber Fmt 4.6, Leading zero omitted, Abs format (unit mm)*
G04 Created by KiCad (PCBNEW (5.1.0)-1) date 2020-03-10 13:48:57*
%MOMM*%
%LPD*%
G04 APERTURE LIST*
%ADD10R,1.700000X1.700000*%
%ADD11O,1.700000X1.700000*%
%ADD12C,2.050000*%
%ADD13R,2.050000X2.050000*%
%ADD14C,3.000000*%
%ADD15R,3.000000X3.000000*%
%ADD16C,0.900000*%
%ADD17C,0.200000*%
G04 APERTURE END LIST*
D10*
X116320000Y-70830000D03*
D11*
X116320000Y-68290000D03*
X118860000Y-70830000D03*
X118860000Y-68290000D03*
X121400000Y-70830000D03*
X121400000Y-68290000D03*
X123940000Y-70830000D03*
X123940000Y-68290000D03*
X126480000Y-70830000D03*
X126480000Y-68290000D03*
X129020000Y-70830000D03*
X129020000Y-68290000D03*
X131560000Y-70830000D03*
X131560000Y-68290000D03*
X134100000Y-70830000D03*
X134100000Y-68290000D03*
X136640000Y-70830000D03*
X136640000Y-68290000D03*
X139180000Y-70830000D03*
X139180000Y-68290000D03*
X141720000Y-70830000D03*
X141720000Y-68290000D03*
X144260000Y-70830000D03*
X144260000Y-68290000D03*
X146800000Y-70830000D03*
X146800000Y-68290000D03*
X149340000Y-70830000D03*
X149340000Y-68290000D03*
X151880000Y-70830000D03*
X151880000Y-68290000D03*
X154420000Y-70830000D03*
X154420000Y-68290000D03*
X156960000Y-70830000D03*
X156960000Y-68290000D03*
X159500000Y-70830000D03*
X159500000Y-68290000D03*
X162040000Y-70830000D03*
X162040000Y-68290000D03*
X164580000Y-70830000D03*
X164580000Y-68290000D03*
D12*
X113000000Y-110460000D03*
D13*
X113000000Y-106500000D03*
D14*
X112750000Y-96170000D03*
X112750000Y-91090000D03*
D15*
X112750000Y-101250000D03*
D14*
X112750000Y-86010000D03*
X112750000Y-80930000D03*
X112750000Y-75850000D03*
D16*
X163645100Y-111451900D03*
X167359000Y-102261700D03*
X163994300Y-108535300D03*
X149428800Y-109550000D03*
X149178300Y-118800000D03*
X116874200Y-113658600D03*
X172105100Y-92355100D03*
X165149700Y-105600000D03*
X176610600Y-102255000D03*
X169113200Y-107600000D03*
X179827800Y-116404900D03*
X168157500Y-110766000D03*
X165080200Y-115406500D03*
X166968400Y-112383500D03*
X163442700Y-116134700D03*
X178202300Y-110132000D03*
X180534300Y-107800000D03*
X178267900Y-111575800D03*
X180166000Y-111800000D03*
X184370600Y-91031200D03*
X183948100Y-118649300D03*
X183131700Y-92269400D03*
X183673100Y-117548900D03*
X172307200Y-106868400D03*
X175200000Y-92948900D03*
X173982200Y-105822800D03*
X173187400Y-102255200D03*
X177450900Y-113112200D03*
X190469000Y-87449800D03*
X190269900Y-86105100D03*
D17*
X163994300Y-108535300D02*
X163645100Y-108884500D01*
X163645100Y-108884500D02*
X163645100Y-111451900D01*
X164580000Y-102261700D02*
X163994300Y-102847400D01*
X163994300Y-102847400D02*
X163994300Y-108535300D01*
X164580000Y-102261700D02*
X167359000Y-102261700D01*
X164580000Y-71980300D02*
X164580000Y-102261700D01*
X164580000Y-70830000D02*
X164580000Y-71980300D01*
X139180000Y-68290000D02*
X138029700Y-68290000D01*
X131560000Y-68290000D02*
X132710300Y-68290000D01*
X132710300Y-68290000D02*
X132710300Y-68002400D01*
X132710300Y-68002400D02*
X133578400Y-67134300D01*
X133578400Y-67134300D02*
X137112300Y-67134300D01*
X137112300Y-67134300D02*
X138029700Y-68051700D01*
X138029700Y-68051700D02*
X138029700Y-68290000D01*
X113000000Y-106500000D02*
X113000000Y-105174700D01*
X112750000Y-86010000D02*
X114550400Y-87810400D01*
X114550400Y-87810400D02*
X114550400Y-103624300D01*
X114550400Y-103624300D02*
X113000000Y-105174700D01*
X112750000Y-80930000D02*
X112750000Y-86010000D01*
X121400000Y-68290000D02*
X120249700Y-68290000D01*
X113491000Y-75850000D02*
X117590000Y-71751000D01*
X117590000Y-71751000D02*
X117590000Y-70450700D01*
X117590000Y-70450700D02*
X118480700Y-69560000D01*
X118480700Y-69560000D02*
X119218000Y-69560000D01*
X119218000Y-69560000D02*
X120249700Y-68528300D01*
X120249700Y-68528300D02*
X120249700Y-68290000D01*
X113120500Y-75850000D02*
X113491000Y-75850000D01*
X151880000Y-68290000D02*
X153030300Y-68290000D01*
X156960000Y-68290000D02*
X155809700Y-68290000D01*
X155809700Y-68290000D02*
X155809700Y-68002400D01*
X155809700Y-68002400D02*
X154941600Y-67134300D01*
X154941600Y-67134300D02*
X153947600Y-67134300D01*
X153947600Y-67134300D02*
X153030300Y-68051600D01*
X153030300Y-68051600D02*
X153030300Y-68290000D01*
X113120500Y-75850000D02*
X112750000Y-76220500D01*
X112750000Y-76220500D02*
X112750000Y-80930000D01*
X112750000Y-75850000D02*
X113120500Y-75850000D01*
X159500000Y-70830000D02*
X159500000Y-113447900D01*
X159500000Y-113447900D02*
X153528800Y-119419100D01*
X153528800Y-119419100D02*
X152421300Y-119419100D01*
X152421300Y-119419100D02*
X149428800Y-116426600D01*
X149428800Y-116426600D02*
X149428800Y-109550000D01*
X162040000Y-70830000D02*
X162040000Y-111474200D01*
X162040000Y-111474200D02*
X153694700Y-119819500D01*
X153694700Y-119819500D02*
X150197800Y-119819500D01*
X150197800Y-119819500D02*
X149178300Y-118800000D01*
X129020000Y-70830000D02*
X127869700Y-70830000D01*
X127869700Y-70830000D02*
X127869700Y-71577800D01*
X127869700Y-71577800D02*
X116874200Y-82573300D01*
X116874200Y-82573300D02*
X116874200Y-113658600D01*
X172105100Y-92355100D02*
X168109300Y-96350900D01*
X168109300Y-96350900D02*
X168109300Y-102640400D01*
X168109300Y-102640400D02*
X165149700Y-105600000D01*
X174759400Y-107662500D02*
X174759400Y-104106200D01*
X174759400Y-104106200D02*
X176610600Y-102255000D01*
X179827800Y-116404900D02*
X179563000Y-116404900D01*
X179563000Y-116404900D02*
X174759400Y-111601300D01*
X174759400Y-111601300D02*
X174759400Y-107662500D01*
X169113200Y-107600000D02*
X169175700Y-107662500D01*
X169175700Y-107662500D02*
X174759400Y-107662500D01*
X165080200Y-115406500D02*
X168157500Y-112329200D01*
X168157500Y-112329200D02*
X168157500Y-110766000D01*
X163442700Y-116134700D02*
X163442700Y-115909200D01*
X163442700Y-115909200D02*
X166968400Y-112383500D01*
X180534300Y-107800000D02*
X178202300Y-110132000D01*
X180166000Y-111800000D02*
X178492100Y-111800000D01*
X178492100Y-111800000D02*
X178267900Y-111575800D01*
X184370600Y-91031200D02*
X184423400Y-91084000D01*
X184423400Y-91084000D02*
X184423400Y-118174000D01*
X184423400Y-118174000D02*
X183948100Y-118649300D01*
X183673100Y-117548900D02*
X183131700Y-117007500D01*
X183131700Y-117007500D02*
X183131700Y-92269400D01*
X172307200Y-106868400D02*
X172307200Y-95841700D01*
X172307200Y-95841700D02*
X175200000Y-92948900D01*
X173187400Y-102255200D02*
X173187400Y-105028000D01*
X173187400Y-105028000D02*
X173982200Y-105822800D01*
X190469000Y-87449800D02*
X186874100Y-87449800D01*
X186874100Y-87449800D02*
X177450900Y-96873000D01*
X177450900Y-96873000D02*
X177450900Y-113112200D01*
X135250300Y-70830000D02*
X135250300Y-70591600D01*
X135250300Y-70591600D02*
X136281900Y-69560000D01*
X136281900Y-69560000D02*
X139558100Y-69560000D01*
X139558100Y-69560000D02*
X140330400Y-68787700D01*
X140330400Y-68787700D02*
X140330400Y-68015300D01*
X140330400Y-68015300D02*
X141658000Y-66687700D01*
X141658000Y-66687700D02*
X164627900Y-66687700D01*
X164627900Y-66687700D02*
X166077700Y-68137500D01*
X166077700Y-68137500D02*
X166077700Y-68591200D01*
X166077700Y-68591200D02*
X170103100Y-72616600D01*
X170103100Y-72616600D02*
X177896800Y-72616600D01*
X177896800Y-72616600D02*
X191033900Y-85753700D01*
X191033900Y-85753700D02*
X191033900Y-86884900D01*
X191033900Y-86884900D02*
X190469000Y-87449800D01*
X134100000Y-70830000D02*
X135250300Y-70830000D01*
X145410300Y-70830000D02*
X145410300Y-70591600D01*
X145410300Y-70591600D02*
X146362500Y-69639400D01*
X146362500Y-69639400D02*
X166446600Y-69639400D01*
X166446600Y-69639400D02*
X182912300Y-86105100D01*
X182912300Y-86105100D02*
X190269900Y-86105100D01*
X144260000Y-70830000D02*
X145410300Y-70830000D01*
X151880000Y-70830000D02*
X150729700Y-70830000D01*
X123940000Y-70830000D02*
X125090300Y-70830000D01*
X125090300Y-70830000D02*
X125090300Y-70542400D01*
X125090300Y-70542400D02*
X125953100Y-69679600D01*
X125953100Y-69679600D02*
X132098100Y-69679600D01*
X132098100Y-69679600D02*
X132830000Y-70411500D01*
X132830000Y-70411500D02*
X132830000Y-71195900D01*
X132830000Y-71195900D02*
X133621400Y-71987300D01*
X133621400Y-71987300D02*
X149810700Y-71987300D01*
X149810700Y-71987300D02*
X150729700Y-71068300D01*
X150729700Y-71068300D02*
X150729700Y-70830000D01*
M02*
