<?xml version="1.0" standalone="no"?>
<!DOCTYPE svg PUBLIC "-//W3C//DTD SVG 1.1//EN"
"http://www.w3.org/Graphics/SVG/1.1/DTD/svg11.dtd">
<svg width="246.718" height="235.344" viewBox="0 0 5139.97 4902.99" version="1.1"
xmlns="http://www.w3.org/2000/svg"
xmlns:xlink="http://www.w3.org/1999/xlink">
<circle cx="4879.5" cy="3099.76" r="29.5276" style=""/>
<circle cx="4603.91" cy="3099.76" r="29.5276" style=""/>
<circle cx="3993.67" cy="2568.27" r="29.5276" style=""/>
<circle cx="3761.39" cy="2455.83" r="29.5276" style=""/>
<circle cx="3993.67" cy="2725.75" r="29.5276" style=""/>
<circle cx="3993.67" cy="2883.23" r="29.5276" style=""/>
<circle cx="3895.24" cy="3296.61" r="29.5276" style=""/>
<circle cx="3895.24" cy="3454.09" r="29.5276" style=""/>
<circle cx="3895.24" cy="3611.57" r="29.5276" style=""/>
<circle cx="3895.24" cy="3769.06" r="29.5276" style=""/>
<circle cx="4855.87" cy="4620.24" r="29.5276" style=""/>
<circle cx="4401.15" cy="4522.99" r="29.5276" style=""/>
<circle cx="4201.15" cy="4522.99" r="29.5276" style=""/>
<circle cx="3834.22" cy="4522.99" r="29.5276" style=""/>
<circle cx="3634.22" cy="4522.99" r="29.5276" style=""/>
<circle cx="1473.98" cy="4503.7" r="29.5276" style=""/>
<circle cx="1473.98" cy="4303.7" r="29.5276" style=""/>
<circle cx="1473.98" cy="4103.7" r="29.5276" style=""/>
<circle cx="922.803" cy="4379.29" r="29.5276" style=""/>
<circle cx="922.803" cy="4103.7" r="29.5276" style=""/>
<circle cx="288.945" cy="4620.24" r="29.5276" style=""/>
<circle cx="281.386" cy="4015.83" r="29.5276" style=""/>
<circle cx="681.386" cy="3535.83" r="29.5276" style=""/>
<circle cx="351.937" cy="3021.02" r="29.5276" style=""/>
<circle cx="351.937" cy="2863.54" r="29.5276" style=""/>
<circle cx="351.937" cy="2706.06" r="29.5276" style=""/>
<circle cx="351.937" cy="2548.58" r="29.5276" style=""/>
<circle cx="351.937" cy="2391.1" r="29.5276" style=""/>
<circle cx="332.252" cy="1643.07" r="29.5276" style=""/>
<circle cx="332.252" cy="1243.07" r="29.5276" style=""/>
<circle cx="288.945" cy="761.969" r="29.5276" style=""/>
<circle cx="672.409" cy="861.969" r="29.5276" style=""/>
<circle cx="872.409" cy="861.969" r="29.5276" style=""/>
<circle cx="672.409" cy="661.969" r="29.5276" style=""/>
<circle cx="872.409" cy="661.969" r="29.5276" style=""/>
<circle cx="1072.41" cy="861.969" r="29.5276" style=""/>
<circle cx="1272.41" cy="861.969" r="29.5276" style=""/>
<circle cx="1072.41" cy="661.969" r="29.5276" style=""/>
<circle cx="1272.41" cy="661.969" r="29.5276" style=""/>
<circle cx="1472.41" cy="861.969" r="29.5276" style=""/>
<circle cx="1472.41" cy="661.969" r="29.5276" style=""/>
<circle cx="1769.26" cy="304.488" r="29.5276" style=""/>
<circle cx="1926.74" cy="304.488" r="29.5276" style=""/>
<circle cx="2084.22" cy="304.488" r="29.5276" style=""/>
<circle cx="2241.7" cy="304.488" r="29.5276" style=""/>
<circle cx="2399.18" cy="304.488" r="29.5276" style=""/>
<circle cx="2472.41" cy="661.969" r="29.5276" style=""/>
<circle cx="2272.41" cy="661.969" r="29.5276" style=""/>
<circle cx="2072.41" cy="661.969" r="29.5276" style=""/>
<circle cx="1872.41" cy="661.969" r="29.5276" style=""/>
<circle cx="1672.41" cy="661.969" r="29.5276" style=""/>
<circle cx="1672.41" cy="861.969" r="29.5276" style=""/>
<circle cx="1872.41" cy="861.969" r="29.5276" style=""/>
<circle cx="2072.41" cy="861.969" r="29.5276" style=""/>
<circle cx="2272.41" cy="861.969" r="29.5276" style=""/>
<circle cx="2472.41" cy="861.969" r="29.5276" style=""/>
<circle cx="2672.41" cy="861.969" r="29.5276" style=""/>
<circle cx="2872.41" cy="661.969" r="29.5276" style=""/>
<circle cx="2672.41" cy="661.969" r="29.5276" style=""/>
<circle cx="2872.41" cy="861.969" r="29.5276" style=""/>
<circle cx="3301.39" cy="1155.83" r="29.5276" style=""/>
<circle cx="3072.41" cy="861.969" r="29.5276" style=""/>
<circle cx="3072.41" cy="661.969" r="29.5276" style=""/>
<circle cx="3272.41" cy="661.969" r="29.5276" style=""/>
<circle cx="3272.41" cy="861.969" r="29.5276" style=""/>
<circle cx="3472.41" cy="661.969" r="29.5276" style=""/>
<circle cx="3472.41" cy="861.969" r="29.5276" style=""/>
<circle cx="3672.41" cy="661.969" r="29.5276" style=""/>
<circle cx="3672.41" cy="861.969" r="29.5276" style=""/>
<circle cx="3872.41" cy="861.969" r="29.5276" style=""/>
<circle cx="4072.41" cy="661.969" r="29.5276" style=""/>
<circle cx="3872.41" cy="661.969" r="29.5276" style=""/>
<circle cx="4072.41" cy="861.969" r="29.5276" style=""/>
<circle cx="4272.41" cy="861.969" r="29.5276" style=""/>
<circle cx="4272.41" cy="661.969" r="29.5276" style=""/>
<circle cx="4681.39" cy="135.827" r="29.5276" style=""/>
<circle cx="4681.39" cy="475.827" r="29.5276" style=""/>
<circle cx="4855.87" cy="761.969" r="29.5276" style=""/>
<circle cx="4472.41" cy="661.969" r="29.5276" style=""/>
<circle cx="4472.41" cy="861.969" r="29.5276" style=""/>
<circle cx="4918.87" cy="1249.37" r="29.5276" style=""/>
<circle cx="4761.39" cy="1249.37" r="29.5276" style=""/>
<circle cx="4348" cy="1328.11" r="29.5276" style=""/>
<circle cx="4190.52" cy="1328.11" r="29.5276" style=""/>
<circle cx="3861.39" cy="1455.83" r="29.5276" style=""/>
<circle cx="3881.39" cy="2035.83" r="29.5276" style=""/>
<circle cx="4643.28" cy="2135.2" r="29.5276" style=""/>
<circle cx="4840.13" cy="2135.2" r="29.5276" style=""/>
</svg>
