<?xml version="1.0" standalone="no"?>
<!DOCTYPE svg PUBLIC "-//W3C//DTD SVG 1.1//EN"
"http://www.w3.org/Graphics/SVG/1.1/DTD/svg11.dtd">
<svg width="246.718" height="235.344" viewBox="0 0 5139.97 4902.99" version="1.1"
xmlns="http://www.w3.org/2000/svg"
xmlns:xlink="http://www.w3.org/1999/xlink">
<g fill-rule="evenodd"><path d="M 13.3843,4653.39 L 13.3843,250.157 L 17.9243,204.073 L 31.3663,159.759 L 53.1943,118.919 L 82.5723,83.1231 L 118.368,53.7471 L 159.208,31.9171 L 203.52,18.4751 L 249.604,13.9351 L 4946.58,13.3851 L 4981.7,16.8431 L 5015.46,27.0871 L 5046.58,43.7211 L 5073.86,66.1051 L 5096.25,93.3831 L 5112.88,124.501 L 5123.12,158.269 L 5126.58,193.385 L 5126.58,4709.61 L 5123.12,4744.72 L 5112.88,4778.49 L 5096.25,4809.61 L 5073.86,4836.89 L 5046.58,4859.27 L 5015.46,4875.9 L 4981.7,4886.15 L 4946.58,4889.61 L 249.604,4889.61 L 203.52,4885.07 L 159.208,4871.62 L 118.368,4849.8 L 82.5723,4820.42 L 53.1943,4784.62 L 31.3663,4743.78 L 17.9243,4699.47 L 13.3843,4653.39M 1080.28,3650.94 L 1081.04,3658.63 L 1083.28,3666.01 L 1086.92,3672.82 L 1091.81,3678.78 L 1097.78,3683.68 L 1104.59,3687.32 L 1111.97,3689.56 L 1119.65,3690.31 L 3442.49,3690.31 L 3450.17,3689.56 L 3457.55,3687.32 L 3464.36,3683.68 L 3470.33,3678.78 L 3475.22,3672.82 L 3478.86,3666.01 L 3481.1,3658.63 L 3481.86,3650.94 L 3481.86,1328.11 L 3481.1,1320.43 L 3478.86,1313.04 L 3475.22,1306.24 L 3470.33,1300.27 L 3464.36,1295.38 L 3457.55,1291.74 L 3450.17,1289.5 L 3442.49,1288.74 L 1119.65,1288.74 L 1111.97,1289.5 L 1104.59,1291.74 L 1097.78,1295.38 L 1091.81,1300.27 L 1086.92,1306.24 L 1083.28,1313.04 L 1081.04,1320.43 L 1080.28,1328.11 L 1080.28,3650.94 z " style="fill-opacity:1.000000;fill:rgb(103,198,105);stroke:rgb(0,0,0);stroke-width:2"/></g>
</svg>
