<?xml version="1.0" standalone="no"?>
<!DOCTYPE svg PUBLIC "-//W3C//DTD SVG 1.1//EN"
"http://www.w3.org/Graphics/SVG/1.1/DTD/svg11.dtd">
<svg width="246.718" height="235.344" viewBox="0 0 5139.97 4902.99" version="1.1"
xmlns="http://www.w3.org/2000/svg"
xmlns:xlink="http://www.w3.org/1999/xlink">
<polyline points="8.65833,4653.39 8.65833,250.157 8.68233,249.693 13.2223,203.609 13.4023,202.701 26.8443,158.387 27.1983,157.531 49.0263,116.691 49.5423,115.921 78.9203,80.1251 79.5743,79.4691 115.37,50.0931 116.14,49.5791 156.98,27.7491 157.836,27.3951 202.148,13.9531 203.056,13.7731 249.14,9.23315 249.602,9.20915 4946.58,8.65915 4947.04,8.68315 4982.16,12.1411 4983.07,12.3211 5016.83,22.5651 5017.69,22.9191 5048.81,39.5531 5049.58,40.0671 5076.86,62.4511 5077.51,63.1071 5099.9,90.3851 5100.41,91.1551 5117.05,122.273 5117.4,123.129 5127.64,156.897 5127.82,157.805 5131.28,192.921 5131.31,193.385 5131.31,4709.61 5131.28,4710.07 5127.82,4745.18 5127.64,4746.09 5117.4,4779.86 5117.05,4780.72 5100.41,4811.83 5099.9,4812.6 5077.51,4839.88 5076.86,4840.54 5049.58,4862.92 5048.81,4863.44 5017.69,4880.07 5016.83,4880.42 4983.07,4890.67 4982.16,4890.85 4947.04,4894.31 4946.58,4894.33 249.604,4894.33 249.14,4894.31 203.056,4889.77 202.148,4889.59 157.836,4876.14 156.98,4875.79 116.14,4853.96 115.37,4853.45 79.5743,4824.07 78.9203,4823.41 49.5423,4787.62 49.0263,4786.85 27.1983,4746.01 26.8443,4745.15 13.4023,4700.84 13.2223,4699.93 8.68233,4653.85 8.65833,4653.39" style="stroke:rgb(103,198,105);stroke-width:9.448819;fill:none;stroke-opacity:0.5;stroke-linecap:round;stroke-linejoin:round;;fill:none"/>
<polyline points="8.65833,4653.39 8.65833,250.157 8.68233,249.693 13.2223,203.609 13.4023,202.701 26.8443,158.387 27.1983,157.531 49.0263,116.691 49.5423,115.921 78.9203,80.1251 79.5743,79.4691 115.37,50.0931 116.14,49.5791 156.98,27.7491 157.836,27.3951 202.148,13.9531 203.056,13.7731 249.14,9.23315 249.602,9.20915 4946.58,8.65915 4947.04,8.68315 4982.16,12.1411 4983.07,12.3211 5016.83,22.5651 5017.69,22.9191 5048.81,39.5531 5049.58,40.0671 5076.86,62.4511 5077.51,63.1071 5099.9,90.3851 5100.41,91.1551 5117.05,122.273 5117.4,123.129 5127.64,156.897 5127.82,157.805 5131.28,192.921 5131.31,193.385 5131.31,4709.61 5131.28,4710.07 5127.82,4745.18 5127.64,4746.09 5117.4,4779.86 5117.05,4780.72 5100.41,4811.83 5099.9,4812.6 5077.51,4839.88 5076.86,4840.54 5049.58,4862.92 5048.81,4863.44 5017.69,4880.07 5016.83,4880.42 4983.07,4890.67 4982.16,4890.85 4947.04,4894.31 4946.58,4894.33 249.604,4894.33 249.14,4894.31 203.056,4889.77 202.148,4889.59 157.836,4876.14 156.98,4875.79 116.14,4853.96 115.37,4853.45 79.5743,4824.07 78.9203,4823.41 49.5423,4787.62 49.0263,4786.85 27.1983,4746.01 26.8443,4745.15 13.4023,4700.84 13.2223,4699.93 8.68233,4653.85 8.65833,4653.39" style="stroke:rgb(0,0,0);stroke-width:1px;fill:none;stroke-opacity:1;stroke-linecap:round;stroke-linejoin:round;;fill:none"/>
<polyline points="1085.01,3650.71 1085.01,1328.34 1085.69,1321.36 1087.67,1314.86 1090.86,1308.87 1095.17,1303.63 1100.42,1299.32 1106.4,1296.12 1112.9,1294.15 1119.88,1293.46 3442.25,1293.46 3449.24,1294.15 3455.74,1296.12 3461.72,1299.32 3466.97,1303.63 3471.27,1308.87 3474.47,1314.86 3476.44,1321.35 3477.13,1328.34 3477.13,3650.71 3476.44,3657.7 3474.47,3664.19 3471.27,3670.18 3466.97,3675.43 3461.72,3679.73 3455.74,3682.93 3449.24,3684.9 3442.25,3685.59 1119.89,3685.59 1112.9,3684.9 1106.4,3682.93 1100.42,3679.73 1095.17,3675.43 1090.86,3670.18 1087.67,3664.19 1085.69,3657.7 1085.01,3650.71" style="stroke:rgb(103,198,105);stroke-width:9.448819;fill:none;stroke-opacity:0.5;stroke-linecap:round;stroke-linejoin:round;;fill:none"/>
<polyline points="1085.01,3650.71 1085.01,1328.34 1085.69,1321.36 1087.67,1314.86 1090.86,1308.87 1095.17,1303.63 1100.42,1299.32 1106.4,1296.12 1112.9,1294.15 1119.88,1293.46 3442.25,1293.46 3449.24,1294.15 3455.74,1296.12 3461.72,1299.32 3466.97,1303.63 3471.27,1308.87 3474.47,1314.86 3476.44,1321.35 3477.13,1328.34 3477.13,3650.71 3476.44,3657.7 3474.47,3664.19 3471.27,3670.18 3466.97,3675.43 3461.72,3679.73 3455.74,3682.93 3449.24,3684.9 3442.25,3685.59 1119.89,3685.59 1112.9,3684.9 1106.4,3682.93 1100.42,3679.73 1095.17,3675.43 1090.86,3670.18 1087.67,3664.19 1085.69,3657.7 1085.01,3650.71" style="stroke:rgb(0,0,0);stroke-width:1px;fill:none;stroke-opacity:1;stroke-linecap:round;stroke-linejoin:round;;fill:none"/>
</svg>
