<?xml version="1.0" standalone="no"?>
<!DOCTYPE svg PUBLIC "-//W3C//DTD SVG 1.1//EN"
"http://www.w3.org/Graphics/SVG/1.1/DTD/svg11.dtd">
<svg width="149.443" height="122.986" viewBox="0 0 3113.39 2562.2" version="1.1"
xmlns="http://www.w3.org/2000/svg"
xmlns:xlink="http://www.w3.org/1999/xlink">
<g fill-rule="evenodd"><path d="M 11.4165,2472.05 L 11.4165,90.1555 L 12.9285,74.7955 L 17.4105,60.0235 L 24.6865,46.4115 L 34.4785,34.4795 L 46.4105,24.6855 L 60.0245,17.4095 L 74.7945,12.9295 L 90.1565,11.4155 L 3023.23,11.4155 L 3038.59,12.9295 L 3053.36,17.4095 L 3066.97,24.6855 L 3078.9,34.4795 L 3088.7,46.4115 L 3095.97,60.0235 L 3100.45,74.7955 L 3101.97,90.1555 L 3101.97,2472.05 L 3100.45,2487.41 L 3095.97,2502.18 L 3088.7,2515.79 L 3078.9,2527.72 L 3066.97,2537.52 L 3053.36,2544.79 L 3038.59,2549.27 L 3023.23,2550.79 L 90.1565,2550.79 L 74.7945,2549.27 L 60.0245,2544.79 L 46.4105,2537.52 L 34.4785,2527.72 L 24.6865,2515.79 L 17.4105,2502.18 L 12.9285,2487.41 L 11.4165,2472.05 z " style="fill-opacity:1.000000;fill:rgb(103,198,105);stroke:rgb(0,0,0);stroke-width:2"/></g>
</svg>
