G04 #@! TF.GenerationSoftware,KiCad,Pcbnew,5.1.6-c6e7f7d~87~ubuntu18.04.1*
G04 #@! TF.CreationDate,2020-09-21T12:24:16+01:00*
G04 #@! TF.ProjectId,Temp Top Board,54656d70-2054-46f7-9020-426f6172642e,-*
G04 #@! TF.SameCoordinates,Original*
G04 #@! TF.FileFunction,Copper,L2,Bot*
G04 #@! TF.FilePolarity,Positive*
%FSLAX46Y46*%
G04 Gerber Fmt 4.6, Leading zero omitted, Abs format (unit mm)*
G04 Created by KiCad (PCBNEW 5.1.6-c6e7f7d~87~ubuntu18.04.1) date 2020-09-21 12:24:16*
%MOMM*%
%LPD*%
G01*
G04 APERTURE LIST*
G04 #@! TA.AperFunction,ComponentPad*
%ADD10O,1.750000X1.200000*%
G04 #@! TD*
G04 #@! TA.AperFunction,ComponentPad*
%ADD11R,3.000000X3.000000*%
G04 #@! TD*
G04 #@! TA.AperFunction,ComponentPad*
%ADD12C,3.000000*%
G04 #@! TD*
G04 #@! TA.AperFunction,ComponentPad*
%ADD13R,1.700000X1.700000*%
G04 #@! TD*
G04 #@! TA.AperFunction,ComponentPad*
%ADD14O,1.700000X1.700000*%
G04 #@! TD*
G04 #@! TA.AperFunction,ComponentPad*
%ADD15O,1.200000X1.750000*%
G04 #@! TD*
G04 #@! TA.AperFunction,ComponentPad*
%ADD16R,1.600000X1.600000*%
G04 #@! TD*
G04 #@! TA.AperFunction,ComponentPad*
%ADD17C,1.600000*%
G04 #@! TD*
G04 #@! TA.AperFunction,ComponentPad*
%ADD18O,1.700000X2.000000*%
G04 #@! TD*
G04 #@! TA.AperFunction,SMDPad,CuDef*
%ADD19R,1.320800X0.558800*%
G04 #@! TD*
G04 #@! TA.AperFunction,ComponentPad*
%ADD20R,2.000000X1.905000*%
G04 #@! TD*
G04 #@! TA.AperFunction,ComponentPad*
%ADD21O,2.000000X1.905000*%
G04 #@! TD*
G04 #@! TA.AperFunction,ViaPad*
%ADD22C,2.500000*%
G04 #@! TD*
G04 #@! TA.AperFunction,Conductor*
%ADD23C,0.400000*%
G04 #@! TD*
G04 #@! TA.AperFunction,Conductor*
%ADD24C,1.000000*%
G04 #@! TD*
G04 #@! TA.AperFunction,Conductor*
%ADD25C,0.254000*%
G04 #@! TD*
G04 APERTURE END LIST*
G04 #@! TA.AperFunction,ComponentPad*
G36*
G01*
X157875001Y-108350000D02*
X156624999Y-108350000D01*
G75*
G02*
X156375000Y-108100001I0J249999D01*
G01*
X156375000Y-107399999D01*
G75*
G02*
X156624999Y-107150000I249999J0D01*
G01*
X157875001Y-107150000D01*
G75*
G02*
X158125000Y-107399999I0J-249999D01*
G01*
X158125000Y-108100001D01*
G75*
G02*
X157875001Y-108350000I-249999J0D01*
G01*
G37*
G04 #@! TD.AperFunction*
D10*
X157250000Y-105750000D03*
X157250000Y-103750000D03*
X157250000Y-101750000D03*
G04 #@! TA.AperFunction,ComponentPad*
G36*
G01*
X112875001Y-98850000D02*
X111624999Y-98850000D01*
G75*
G02*
X111375000Y-98600001I0J249999D01*
G01*
X111375000Y-97899999D01*
G75*
G02*
X111624999Y-97650000I249999J0D01*
G01*
X112875001Y-97650000D01*
G75*
G02*
X113125000Y-97899999I0J-249999D01*
G01*
X113125000Y-98600001D01*
G75*
G02*
X112875001Y-98850000I-249999J0D01*
G01*
G37*
G04 #@! TD.AperFunction*
X112250000Y-96250000D03*
X112250000Y-94250000D03*
X112250000Y-92250000D03*
X112250000Y-90250000D03*
D11*
X112000000Y-80750000D03*
D12*
X112000000Y-75670000D03*
D13*
X116320000Y-70830000D03*
D14*
X116320000Y-68290000D03*
X118860000Y-70830000D03*
X118860000Y-68290000D03*
X121400000Y-70830000D03*
X121400000Y-68290000D03*
X123940000Y-70830000D03*
X123940000Y-68290000D03*
X126480000Y-70830000D03*
X126480000Y-68290000D03*
X129020000Y-70830000D03*
X129020000Y-68290000D03*
X131560000Y-70830000D03*
X131560000Y-68290000D03*
X134100000Y-70830000D03*
X134100000Y-68290000D03*
X136640000Y-70830000D03*
X136640000Y-68290000D03*
X139180000Y-70830000D03*
X139180000Y-68290000D03*
X141720000Y-70830000D03*
X141720000Y-68290000D03*
X144260000Y-70830000D03*
X144260000Y-68290000D03*
X146800000Y-70830000D03*
X146800000Y-68290000D03*
X149340000Y-70830000D03*
X149340000Y-68290000D03*
X151880000Y-70830000D03*
X151880000Y-68290000D03*
X154420000Y-70830000D03*
X154420000Y-68290000D03*
X156960000Y-70830000D03*
X156960000Y-68290000D03*
X159500000Y-70830000D03*
X159500000Y-68290000D03*
X162040000Y-70830000D03*
X162040000Y-68290000D03*
X164580000Y-70830000D03*
X164580000Y-68290000D03*
D15*
X130250000Y-63750000D03*
X132250000Y-63750000D03*
X134250000Y-63750000D03*
X136250000Y-63750000D03*
G04 #@! TA.AperFunction,ComponentPad*
G36*
G01*
X138850000Y-63124999D02*
X138850000Y-64375001D01*
G75*
G02*
X138600001Y-64625000I-249999J0D01*
G01*
X137899999Y-64625000D01*
G75*
G02*
X137650000Y-64375001I0J249999D01*
G01*
X137650000Y-63124999D01*
G75*
G02*
X137899999Y-62875000I249999J0D01*
G01*
X138600001Y-62875000D01*
G75*
G02*
X138850000Y-63124999I0J-249999D01*
G01*
G37*
G04 #@! TD.AperFunction*
G04 #@! TA.AperFunction,ComponentPad*
G36*
G01*
X157874999Y-91900000D02*
X159125001Y-91900000D01*
G75*
G02*
X159375000Y-92149999I0J-249999D01*
G01*
X159375000Y-92850001D01*
G75*
G02*
X159125001Y-93100000I-249999J0D01*
G01*
X157874999Y-93100000D01*
G75*
G02*
X157625000Y-92850001I0J249999D01*
G01*
X157625000Y-92149999D01*
G75*
G02*
X157874999Y-91900000I249999J0D01*
G01*
G37*
G04 #@! TD.AperFunction*
D10*
X158500000Y-94500000D03*
X158500000Y-96500000D03*
G04 #@! TA.AperFunction,ComponentPad*
G36*
G01*
X163600000Y-76124999D02*
X163600000Y-77375001D01*
G75*
G02*
X163350001Y-77625000I-249999J0D01*
G01*
X162649999Y-77625000D01*
G75*
G02*
X162400000Y-77375001I0J249999D01*
G01*
X162400000Y-76124999D01*
G75*
G02*
X162649999Y-75875000I249999J0D01*
G01*
X163350001Y-75875000D01*
G75*
G02*
X163600000Y-76124999I0J-249999D01*
G01*
G37*
G04 #@! TD.AperFunction*
D15*
X161000000Y-76750000D03*
X170250000Y-75750000D03*
G04 #@! TA.AperFunction,ComponentPad*
G36*
G01*
X167650000Y-76375001D02*
X167650000Y-75124999D01*
G75*
G02*
X167899999Y-74875000I249999J0D01*
G01*
X168600001Y-74875000D01*
G75*
G02*
X168850000Y-75124999I0J-249999D01*
G01*
X168850000Y-76375001D01*
G75*
G02*
X168600001Y-76625000I-249999J0D01*
G01*
X167899999Y-76625000D01*
G75*
G02*
X167650000Y-76375001I0J249999D01*
G01*
G37*
G04 #@! TD.AperFunction*
D16*
X119500000Y-112000000D03*
D17*
X119500000Y-115500000D03*
X166250000Y-99250000D03*
D16*
X169750000Y-99250000D03*
D14*
X161134999Y-117325001D03*
D13*
X163674999Y-117325001D03*
X156474999Y-117325001D03*
D14*
X153934999Y-117325001D03*
G04 #@! TA.AperFunction,ComponentPad*
G36*
G01*
X170100000Y-86250000D02*
X170100000Y-87750000D01*
G75*
G02*
X169850000Y-88000000I-250000J0D01*
G01*
X168650000Y-88000000D01*
G75*
G02*
X168400000Y-87750000I0J250000D01*
G01*
X168400000Y-86250000D01*
G75*
G02*
X168650000Y-86000000I250000J0D01*
G01*
X169850000Y-86000000D01*
G75*
G02*
X170100000Y-86250000I0J-250000D01*
G01*
G37*
G04 #@! TD.AperFunction*
D18*
X166750000Y-87000000D03*
G04 #@! TA.AperFunction,SMDPad,CuDef*
G36*
G01*
X165575000Y-92799999D02*
X165575000Y-93700001D01*
G75*
G02*
X165325001Y-93950000I-249999J0D01*
G01*
X164674999Y-93950000D01*
G75*
G02*
X164425000Y-93700001I0J249999D01*
G01*
X164425000Y-92799999D01*
G75*
G02*
X164674999Y-92550000I249999J0D01*
G01*
X165325001Y-92550000D01*
G75*
G02*
X165575000Y-92799999I0J-249999D01*
G01*
G37*
G04 #@! TD.AperFunction*
G04 #@! TA.AperFunction,SMDPad,CuDef*
G36*
G01*
X163525000Y-92799999D02*
X163525000Y-93700001D01*
G75*
G02*
X163275001Y-93950000I-249999J0D01*
G01*
X162624999Y-93950000D01*
G75*
G02*
X162375000Y-93700001I0J249999D01*
G01*
X162375000Y-92799999D01*
G75*
G02*
X162624999Y-92550000I249999J0D01*
G01*
X163275001Y-92550000D01*
G75*
G02*
X163525000Y-92799999I0J-249999D01*
G01*
G37*
G04 #@! TD.AperFunction*
G04 #@! TA.AperFunction,SMDPad,CuDef*
G36*
G01*
X160549999Y-81325000D02*
X161450001Y-81325000D01*
G75*
G02*
X161700000Y-81574999I0J-249999D01*
G01*
X161700000Y-82225001D01*
G75*
G02*
X161450001Y-82475000I-249999J0D01*
G01*
X160549999Y-82475000D01*
G75*
G02*
X160300000Y-82225001I0J249999D01*
G01*
X160300000Y-81574999D01*
G75*
G02*
X160549999Y-81325000I249999J0D01*
G01*
G37*
G04 #@! TD.AperFunction*
G04 #@! TA.AperFunction,SMDPad,CuDef*
G36*
G01*
X160549999Y-79275000D02*
X161450001Y-79275000D01*
G75*
G02*
X161700000Y-79524999I0J-249999D01*
G01*
X161700000Y-80175001D01*
G75*
G02*
X161450001Y-80425000I-249999J0D01*
G01*
X160549999Y-80425000D01*
G75*
G02*
X160300000Y-80175001I0J249999D01*
G01*
X160300000Y-79524999D01*
G75*
G02*
X160549999Y-79275000I249999J0D01*
G01*
G37*
G04 #@! TD.AperFunction*
G04 #@! TA.AperFunction,SMDPad,CuDef*
G36*
G01*
X170049999Y-79150000D02*
X170950001Y-79150000D01*
G75*
G02*
X171200000Y-79399999I0J-249999D01*
G01*
X171200000Y-80050001D01*
G75*
G02*
X170950001Y-80300000I-249999J0D01*
G01*
X170049999Y-80300000D01*
G75*
G02*
X169800000Y-80050001I0J249999D01*
G01*
X169800000Y-79399999D01*
G75*
G02*
X170049999Y-79150000I249999J0D01*
G01*
G37*
G04 #@! TD.AperFunction*
G04 #@! TA.AperFunction,SMDPad,CuDef*
G36*
G01*
X170049999Y-81200000D02*
X170950001Y-81200000D01*
G75*
G02*
X171200000Y-81449999I0J-249999D01*
G01*
X171200000Y-82100001D01*
G75*
G02*
X170950001Y-82350000I-249999J0D01*
G01*
X170049999Y-82350000D01*
G75*
G02*
X169800000Y-82100001I0J249999D01*
G01*
X169800000Y-81449999D01*
G75*
G02*
X170049999Y-81200000I249999J0D01*
G01*
G37*
G04 #@! TD.AperFunction*
D19*
X169500000Y-92250000D03*
X167315600Y-91310200D03*
X167315600Y-93189800D03*
D20*
X126500000Y-112000000D03*
D21*
X126500000Y-114540000D03*
X126500000Y-117080000D03*
D22*
X156820000Y-78372000D03*
X149708000Y-74562000D03*
X116434000Y-104788000D03*
X111354000Y-110884000D03*
X157074000Y-85738000D03*
X155550000Y-91072000D03*
X167234000Y-65926000D03*
X167234000Y-61608000D03*
D23*
X170375000Y-81900000D02*
X170500000Y-81775000D01*
X166400000Y-81900000D02*
X170375000Y-81900000D01*
X161000000Y-81900000D02*
X166400000Y-81900000D01*
X161000000Y-81900000D02*
X158316000Y-81900000D01*
X158316000Y-81900000D02*
X156820000Y-80404000D01*
X156820000Y-80404000D02*
X156820000Y-78372000D01*
X149708000Y-74562000D02*
X138024000Y-74562000D01*
X136640000Y-73178000D02*
X136640000Y-70830000D01*
X138024000Y-74562000D02*
X136640000Y-73178000D01*
X172060000Y-81622000D02*
X172060000Y-65164000D01*
X170646000Y-63750000D02*
X138250000Y-63750000D01*
X172060000Y-65164000D02*
X170646000Y-63750000D01*
X170653000Y-81622000D02*
X170500000Y-81775000D01*
X172060000Y-81622000D02*
X170653000Y-81622000D01*
X136640000Y-73178000D02*
X117082000Y-73178000D01*
X116320000Y-72416000D02*
X116320000Y-70830000D01*
X117082000Y-73178000D02*
X116320000Y-72416000D01*
X157525000Y-105750000D02*
X157250000Y-105750000D01*
X167315600Y-91310200D02*
X167696600Y-91310200D01*
X158225000Y-96500000D02*
X158500000Y-96500000D01*
X124054000Y-68176000D02*
X123940000Y-68290000D01*
X117000000Y-96250000D02*
X117000000Y-75128000D01*
X117000000Y-75128000D02*
X114656000Y-72784000D01*
X112250000Y-96250000D02*
X117000000Y-96250000D01*
X114656000Y-72784000D02*
X114656000Y-65418000D01*
X124054000Y-65418000D02*
X123546000Y-65418000D01*
X114656000Y-65418000D02*
X123546000Y-65418000D01*
X123546000Y-65418000D02*
X123800000Y-65418000D01*
X124054000Y-65418000D02*
X124054000Y-68176000D01*
X126480000Y-68290000D02*
X126480000Y-68979998D01*
X115298500Y-92476500D02*
X113525000Y-94250000D01*
X126480000Y-64542000D02*
X126340000Y-64402000D01*
X115298500Y-75204500D02*
X115298500Y-92476500D01*
X113525000Y-94250000D02*
X112250000Y-94250000D01*
X126480000Y-68290000D02*
X126480000Y-64542000D01*
X113386000Y-64402000D02*
X113386000Y-73292000D01*
X113386000Y-73292000D02*
X115298500Y-75204500D01*
X126340000Y-64402000D02*
X113386000Y-64402000D01*
X159500000Y-72032081D02*
X161467919Y-74000000D01*
X159500000Y-70830000D02*
X159500000Y-72032081D01*
X161467919Y-74000000D02*
X162250000Y-74000000D01*
X162250000Y-74000000D02*
X163000000Y-74750000D01*
X163000000Y-74750000D02*
X163000000Y-76750000D01*
X166960000Y-75750000D02*
X168250000Y-75750000D01*
X162040000Y-70830000D02*
X162040000Y-72416000D01*
X162377000Y-72753000D02*
X163963000Y-72753000D01*
X162040000Y-72416000D02*
X162377000Y-72753000D01*
X163963000Y-72753000D02*
X166960000Y-75750000D01*
X155975000Y-103750000D02*
X152500000Y-100275000D01*
X157250000Y-103750000D02*
X155975000Y-103750000D01*
X152500000Y-100275000D02*
X152500000Y-75250000D01*
X151880000Y-74630000D02*
X151880000Y-70830000D01*
X152500000Y-75250000D02*
X151880000Y-74630000D01*
X156000000Y-101750000D02*
X157250000Y-101750000D01*
X153500000Y-99250000D02*
X156000000Y-101750000D01*
X153500000Y-75500000D02*
X153500000Y-99250000D01*
X154420000Y-70830000D02*
X154420000Y-74580000D01*
X154420000Y-74580000D02*
X153500000Y-75500000D01*
X134250000Y-68140000D02*
X134100000Y-68290000D01*
X134250000Y-63750000D02*
X134250000Y-68140000D01*
X161000000Y-79850000D02*
X161000000Y-76750000D01*
X170250000Y-79475000D02*
X170500000Y-79725000D01*
X170250000Y-75750000D02*
X170250000Y-79475000D01*
X136250000Y-67900000D02*
X136640000Y-68290000D01*
X136250000Y-63750000D02*
X136250000Y-67900000D01*
D24*
X117700000Y-112000000D02*
X119500000Y-112000000D01*
X112250000Y-106550000D02*
X117700000Y-112000000D01*
X112250000Y-98250000D02*
X112250000Y-106550000D01*
X119500000Y-112000000D02*
X126500000Y-112000000D01*
X126500000Y-112000000D02*
X155250000Y-112000000D01*
X155250000Y-112000000D02*
X157250000Y-110000000D01*
X157250000Y-110000000D02*
X157250000Y-107750000D01*
D23*
X159750000Y-107750000D02*
X157250000Y-107750000D01*
X161000000Y-106500000D02*
X159750000Y-107750000D01*
X161000000Y-94025000D02*
X161000000Y-106500000D01*
X158500000Y-92500000D02*
X159475000Y-92500000D01*
X159475000Y-92500000D02*
X161000000Y-94025000D01*
D24*
X111275000Y-98250000D02*
X112250000Y-98250000D01*
X110000000Y-96975000D02*
X111275000Y-98250000D01*
X110000000Y-87750000D02*
X110000000Y-96975000D01*
X112000000Y-80750000D02*
X112000000Y-85750000D01*
X112000000Y-85750000D02*
X110000000Y-87750000D01*
D23*
X156960000Y-70830000D02*
X156960000Y-73914000D01*
X156960000Y-73914000D02*
X154534000Y-76340000D01*
X154534000Y-76340000D02*
X154534000Y-87770000D01*
X155838000Y-89074000D02*
X162950000Y-89074000D01*
X154534000Y-87770000D02*
X155838000Y-89074000D01*
X162950000Y-89074000D02*
X162950000Y-93250000D01*
X170200000Y-87000000D02*
X171000000Y-87800000D01*
X169250000Y-87000000D02*
X170200000Y-87000000D01*
X156474999Y-117325001D02*
X156474999Y-118575001D01*
X163674999Y-118575001D02*
X163674999Y-117325001D01*
X157649998Y-119750000D02*
X162500000Y-119750000D01*
X156474999Y-118575001D02*
X156174999Y-118575001D01*
X155000000Y-119750000D02*
X138250000Y-119750000D01*
X130570000Y-119750000D02*
X138250000Y-119750000D01*
X138250000Y-119750000D02*
X138399998Y-119750000D01*
D24*
X126500000Y-117080000D02*
X127900000Y-117080000D01*
X127900000Y-117080000D02*
X130570000Y-119750000D01*
X130570000Y-119750000D02*
X156288000Y-119750000D01*
X156474999Y-119563001D02*
X156474999Y-117325001D01*
X156288000Y-119750000D02*
X156474999Y-119563001D01*
X156288000Y-119750000D02*
X163654000Y-119750000D01*
X163674999Y-119729001D02*
X163674999Y-117325001D01*
X163654000Y-119750000D02*
X163674999Y-119729001D01*
X163674999Y-117325001D02*
X165424999Y-117325001D01*
X165424999Y-117325001D02*
X169750000Y-113000000D01*
X169750000Y-113000000D02*
X169750000Y-99250000D01*
X169750000Y-97612000D02*
X171000000Y-96362000D01*
X169750000Y-99250000D02*
X169750000Y-97612000D01*
D23*
X171000000Y-87800000D02*
X171000000Y-96362000D01*
D24*
X171000000Y-96362000D02*
X171088000Y-96362000D01*
X171088000Y-96362000D02*
X171298000Y-96152000D01*
X169250000Y-87000000D02*
X170782000Y-87000000D01*
X170782000Y-87000000D02*
X171298000Y-87516000D01*
X171298000Y-96152000D02*
X171298000Y-87516000D01*
D23*
X132250000Y-65060000D02*
X132250000Y-63750000D01*
X129020000Y-68290000D02*
X129020000Y-66802000D01*
X129914000Y-65908000D02*
X131402000Y-65908000D01*
X129020000Y-66802000D02*
X129914000Y-65908000D01*
X131402000Y-65908000D02*
X132250000Y-65060000D01*
X166750000Y-88400000D02*
X167850000Y-89500000D01*
X166750000Y-87000000D02*
X166750000Y-88400000D01*
X167850000Y-89500000D02*
X168500000Y-89500000D01*
X169500000Y-90500000D02*
X169500000Y-92250000D01*
X168500000Y-89500000D02*
X169500000Y-90500000D01*
X167255400Y-93250000D02*
X167315600Y-93189800D01*
X165000000Y-93250000D02*
X167255400Y-93250000D01*
D25*
G36*
X170912333Y-60771714D02*
G01*
X171210842Y-60861839D01*
X171486162Y-61008229D01*
X171727805Y-61205308D01*
X171926567Y-61445571D01*
X172074874Y-61719858D01*
X172167081Y-62017734D01*
X172203001Y-62359487D01*
X172203001Y-64126133D01*
X171265446Y-63188579D01*
X171239291Y-63156709D01*
X171112146Y-63052364D01*
X170967087Y-62974828D01*
X170809689Y-62927082D01*
X170687019Y-62915000D01*
X170687018Y-62915000D01*
X170646000Y-62910960D01*
X170604982Y-62915000D01*
X139459862Y-62915000D01*
X139420472Y-62785149D01*
X139338405Y-62631613D01*
X139227962Y-62497038D01*
X139093387Y-62386595D01*
X138939851Y-62304528D01*
X138773255Y-62253992D01*
X138600001Y-62236928D01*
X137899999Y-62236928D01*
X137726745Y-62253992D01*
X137560149Y-62304528D01*
X137406613Y-62386595D01*
X137272038Y-62497038D01*
X137161595Y-62631613D01*
X137159191Y-62636111D01*
X137127502Y-62597498D01*
X136939449Y-62443167D01*
X136724901Y-62328489D01*
X136492102Y-62257870D01*
X136250000Y-62234025D01*
X136007899Y-62257870D01*
X135775100Y-62328489D01*
X135560552Y-62443167D01*
X135372499Y-62597498D01*
X135250001Y-62746763D01*
X135127502Y-62597498D01*
X134939449Y-62443167D01*
X134724901Y-62328489D01*
X134492102Y-62257870D01*
X134250000Y-62234025D01*
X134007899Y-62257870D01*
X133775100Y-62328489D01*
X133560552Y-62443167D01*
X133372499Y-62597498D01*
X133250001Y-62746763D01*
X133127502Y-62597498D01*
X132939449Y-62443167D01*
X132724901Y-62328489D01*
X132492102Y-62257870D01*
X132250000Y-62234025D01*
X132007899Y-62257870D01*
X131775100Y-62328489D01*
X131560552Y-62443167D01*
X131372499Y-62597498D01*
X131249520Y-62747349D01*
X131206307Y-62683275D01*
X131033474Y-62511922D01*
X130830533Y-62377579D01*
X130605282Y-62285409D01*
X130567609Y-62281538D01*
X130377000Y-62406269D01*
X130377000Y-63623000D01*
X130397000Y-63623000D01*
X130397000Y-63877000D01*
X130377000Y-63877000D01*
X130377000Y-63897000D01*
X130123000Y-63897000D01*
X130123000Y-63877000D01*
X129015000Y-63877000D01*
X129015000Y-64152000D01*
X129063507Y-64390496D01*
X129157610Y-64614946D01*
X129293693Y-64816725D01*
X129466526Y-64988078D01*
X129656191Y-65113633D01*
X129592913Y-65132828D01*
X129447854Y-65210364D01*
X129380092Y-65265975D01*
X129320709Y-65314709D01*
X129294563Y-65346568D01*
X128458574Y-66182559D01*
X128426710Y-66208709D01*
X128345907Y-66307168D01*
X128322364Y-66335855D01*
X128244828Y-66480914D01*
X128197082Y-66638312D01*
X128180960Y-66802000D01*
X128185001Y-66843028D01*
X128185001Y-67061934D01*
X128073368Y-67136525D01*
X127866525Y-67343368D01*
X127750000Y-67517760D01*
X127633475Y-67343368D01*
X127426632Y-67136525D01*
X127315000Y-67061935D01*
X127315000Y-64583018D01*
X127319040Y-64542000D01*
X127314894Y-64499901D01*
X127302918Y-64378311D01*
X127255172Y-64220913D01*
X127177636Y-64075854D01*
X127073291Y-63948709D01*
X127041425Y-63922557D01*
X126959445Y-63840577D01*
X126933291Y-63808709D01*
X126806146Y-63704364D01*
X126661087Y-63626828D01*
X126503689Y-63579082D01*
X126381019Y-63567000D01*
X126381018Y-63567000D01*
X126340000Y-63562960D01*
X126298982Y-63567000D01*
X113427018Y-63567000D01*
X113386000Y-63562960D01*
X113344981Y-63567000D01*
X113222311Y-63579082D01*
X113064913Y-63626828D01*
X112919854Y-63704364D01*
X112792709Y-63808709D01*
X112688364Y-63935854D01*
X112610828Y-64080913D01*
X112563082Y-64238311D01*
X112546960Y-64402000D01*
X112551000Y-64443019D01*
X112551000Y-67908325D01*
X112390250Y-67800915D01*
X112029003Y-67651282D01*
X111645505Y-67575000D01*
X111254495Y-67575000D01*
X110870997Y-67651282D01*
X110509750Y-67800915D01*
X110184636Y-68018149D01*
X109908149Y-68294636D01*
X109690915Y-68619750D01*
X109541282Y-68980997D01*
X109465000Y-69364495D01*
X109465000Y-69755505D01*
X109541282Y-70139003D01*
X109690915Y-70500250D01*
X109908149Y-70825364D01*
X110184636Y-71101851D01*
X110509750Y-71319085D01*
X110870997Y-71468718D01*
X111254495Y-71545000D01*
X111645505Y-71545000D01*
X112029003Y-71468718D01*
X112390250Y-71319085D01*
X112551001Y-71211675D01*
X112551001Y-73250971D01*
X112546960Y-73292000D01*
X112563082Y-73455688D01*
X112610828Y-73613086D01*
X112617680Y-73625905D01*
X112376449Y-73557956D01*
X111957176Y-73525098D01*
X111539549Y-73574666D01*
X111139617Y-73704757D01*
X110843962Y-73862786D01*
X110687952Y-74178347D01*
X112000000Y-75490395D01*
X112014143Y-75476253D01*
X112193748Y-75655858D01*
X112179605Y-75670000D01*
X113491653Y-76982048D01*
X113807214Y-76826038D01*
X113998020Y-76451255D01*
X114112044Y-76046449D01*
X114144902Y-75627176D01*
X114095334Y-75209549D01*
X114082150Y-75169017D01*
X114463500Y-75550368D01*
X114463501Y-92130630D01*
X113303161Y-93290971D01*
X113253238Y-93250000D01*
X113402502Y-93127502D01*
X113556833Y-92939449D01*
X113671511Y-92724901D01*
X113742130Y-92492102D01*
X113765975Y-92250000D01*
X113742130Y-92007898D01*
X113671511Y-91775099D01*
X113556833Y-91560551D01*
X113402502Y-91372498D01*
X113252652Y-91249519D01*
X113316725Y-91206307D01*
X113488078Y-91033474D01*
X113622421Y-90830533D01*
X113714591Y-90605282D01*
X113718462Y-90567609D01*
X113593731Y-90377000D01*
X112377000Y-90377000D01*
X112377000Y-90397000D01*
X112123000Y-90397000D01*
X112123000Y-90377000D01*
X112103000Y-90377000D01*
X112103000Y-90123000D01*
X112123000Y-90123000D01*
X112123000Y-89015000D01*
X112377000Y-89015000D01*
X112377000Y-90123000D01*
X113593731Y-90123000D01*
X113718462Y-89932391D01*
X113714591Y-89894718D01*
X113622421Y-89669467D01*
X113488078Y-89466526D01*
X113316725Y-89293693D01*
X113114946Y-89157610D01*
X112890496Y-89063507D01*
X112652000Y-89015000D01*
X112377000Y-89015000D01*
X112123000Y-89015000D01*
X111848000Y-89015000D01*
X111609504Y-89063507D01*
X111385054Y-89157610D01*
X111183275Y-89293693D01*
X111135000Y-89342385D01*
X111135000Y-88220131D01*
X112763141Y-86591991D01*
X112806449Y-86556449D01*
X112948284Y-86383623D01*
X113053676Y-86186447D01*
X113103471Y-86022295D01*
X113118577Y-85972500D01*
X113140491Y-85750001D01*
X113135000Y-85694249D01*
X113135000Y-82888072D01*
X113500000Y-82888072D01*
X113624482Y-82875812D01*
X113744180Y-82839502D01*
X113854494Y-82780537D01*
X113951185Y-82701185D01*
X114030537Y-82604494D01*
X114089502Y-82494180D01*
X114125812Y-82374482D01*
X114138072Y-82250000D01*
X114138072Y-79250000D01*
X114125812Y-79125518D01*
X114089502Y-79005820D01*
X114030537Y-78895506D01*
X113951185Y-78798815D01*
X113854494Y-78719463D01*
X113744180Y-78660498D01*
X113624482Y-78624188D01*
X113500000Y-78611928D01*
X110500000Y-78611928D01*
X110375518Y-78624188D01*
X110255820Y-78660498D01*
X110145506Y-78719463D01*
X110048815Y-78798815D01*
X109969463Y-78895506D01*
X109910498Y-79005820D01*
X109874188Y-79125518D01*
X109861928Y-79250000D01*
X109861928Y-82250000D01*
X109874188Y-82374482D01*
X109910498Y-82494180D01*
X109969463Y-82604494D01*
X110048815Y-82701185D01*
X110145506Y-82780537D01*
X110255820Y-82839502D01*
X110375518Y-82875812D01*
X110500000Y-82888072D01*
X110865000Y-82888072D01*
X110865001Y-85279867D01*
X109236865Y-86908004D01*
X109193551Y-86943551D01*
X109051716Y-87116377D01*
X108951508Y-87303855D01*
X108946324Y-87313554D01*
X108881423Y-87527502D01*
X108859509Y-87750000D01*
X108865000Y-87805752D01*
X108865001Y-96919239D01*
X108859509Y-96975000D01*
X108881423Y-97197498D01*
X108946324Y-97411446D01*
X108946325Y-97411447D01*
X109051717Y-97608623D01*
X109193552Y-97781449D01*
X109236860Y-97816991D01*
X110433008Y-99013140D01*
X110468551Y-99056449D01*
X110641377Y-99198284D01*
X110838553Y-99303676D01*
X111052501Y-99368577D01*
X111115000Y-99374733D01*
X111115001Y-106494239D01*
X111109509Y-106550000D01*
X111131423Y-106772498D01*
X111196324Y-106986446D01*
X111236376Y-107061377D01*
X111301717Y-107183623D01*
X111443552Y-107356449D01*
X111486860Y-107391991D01*
X116858009Y-112763141D01*
X116893551Y-112806449D01*
X117066377Y-112948284D01*
X117245787Y-113044180D01*
X117263553Y-113053676D01*
X117477501Y-113118577D01*
X117700000Y-113140491D01*
X117755751Y-113135000D01*
X118159043Y-113135000D01*
X118169463Y-113154494D01*
X118248815Y-113251185D01*
X118345506Y-113330537D01*
X118455820Y-113389502D01*
X118575518Y-113425812D01*
X118700000Y-113438072D01*
X120300000Y-113438072D01*
X120424482Y-113425812D01*
X120544180Y-113389502D01*
X120654494Y-113330537D01*
X120751185Y-113251185D01*
X120830537Y-113154494D01*
X120840957Y-113135000D01*
X124891788Y-113135000D01*
X124910498Y-113196680D01*
X124969463Y-113306994D01*
X125048815Y-113403685D01*
X125145506Y-113483037D01*
X125237219Y-113532059D01*
X125124031Y-113673077D01*
X124980429Y-113948906D01*
X124909437Y-114167020D01*
X125029406Y-114413000D01*
X126373000Y-114413000D01*
X126373000Y-114393000D01*
X126627000Y-114393000D01*
X126627000Y-114413000D01*
X127970594Y-114413000D01*
X128090563Y-114167020D01*
X128019571Y-113948906D01*
X127875969Y-113673077D01*
X127762781Y-113532059D01*
X127854494Y-113483037D01*
X127951185Y-113403685D01*
X128030537Y-113306994D01*
X128089502Y-113196680D01*
X128108212Y-113135000D01*
X155194249Y-113135000D01*
X155250000Y-113140491D01*
X155305751Y-113135000D01*
X155305752Y-113135000D01*
X155472499Y-113118577D01*
X155686447Y-113053676D01*
X155883623Y-112948284D01*
X156056449Y-112806449D01*
X156091996Y-112763135D01*
X158013141Y-110841991D01*
X158056449Y-110806449D01*
X158198284Y-110633623D01*
X158303676Y-110436447D01*
X158368577Y-110222499D01*
X158385000Y-110055752D01*
X158385000Y-110055751D01*
X158390491Y-110000001D01*
X158385000Y-109944249D01*
X158385000Y-108824771D01*
X158502962Y-108727962D01*
X158613405Y-108593387D01*
X158617888Y-108585000D01*
X159708982Y-108585000D01*
X159750000Y-108589040D01*
X159791018Y-108585000D01*
X159791019Y-108585000D01*
X159913689Y-108572918D01*
X160071087Y-108525172D01*
X160216146Y-108447636D01*
X160343291Y-108343291D01*
X160369445Y-108311422D01*
X161561432Y-107119437D01*
X161593291Y-107093291D01*
X161620256Y-107060435D01*
X161697636Y-106966146D01*
X161775172Y-106821087D01*
X161822918Y-106663689D01*
X161829697Y-106594863D01*
X161835000Y-106541019D01*
X161839040Y-106500000D01*
X161835000Y-106458982D01*
X161835000Y-100242702D01*
X165436903Y-100242702D01*
X165508486Y-100486671D01*
X165763996Y-100607571D01*
X166038184Y-100676300D01*
X166320512Y-100690217D01*
X166600130Y-100648787D01*
X166866292Y-100553603D01*
X166991514Y-100486671D01*
X167063097Y-100242702D01*
X166250000Y-99429605D01*
X165436903Y-100242702D01*
X161835000Y-100242702D01*
X161835000Y-99320512D01*
X164809783Y-99320512D01*
X164851213Y-99600130D01*
X164946397Y-99866292D01*
X165013329Y-99991514D01*
X165257298Y-100063097D01*
X166070395Y-99250000D01*
X166429605Y-99250000D01*
X167242702Y-100063097D01*
X167486671Y-99991514D01*
X167607571Y-99736004D01*
X167676300Y-99461816D01*
X167690217Y-99179488D01*
X167648787Y-98899870D01*
X167553603Y-98633708D01*
X167486671Y-98508486D01*
X167242702Y-98436903D01*
X166429605Y-99250000D01*
X166070395Y-99250000D01*
X165257298Y-98436903D01*
X165013329Y-98508486D01*
X164892429Y-98763996D01*
X164823700Y-99038184D01*
X164809783Y-99320512D01*
X161835000Y-99320512D01*
X161835000Y-98257298D01*
X165436903Y-98257298D01*
X166250000Y-99070395D01*
X167063097Y-98257298D01*
X166991514Y-98013329D01*
X166736004Y-97892429D01*
X166461816Y-97823700D01*
X166179488Y-97809783D01*
X165899870Y-97851213D01*
X165633708Y-97946397D01*
X165508486Y-98013329D01*
X165436903Y-98257298D01*
X161835000Y-98257298D01*
X161835000Y-94096860D01*
X161886595Y-94193387D01*
X161997038Y-94327962D01*
X162131613Y-94438405D01*
X162285149Y-94520472D01*
X162451745Y-94571008D01*
X162624999Y-94588072D01*
X163275001Y-94588072D01*
X163448255Y-94571008D01*
X163614851Y-94520472D01*
X163768387Y-94438405D01*
X163902962Y-94327962D01*
X163975000Y-94240184D01*
X164047038Y-94327962D01*
X164181613Y-94438405D01*
X164335149Y-94520472D01*
X164501745Y-94571008D01*
X164674999Y-94588072D01*
X165325001Y-94588072D01*
X165498255Y-94571008D01*
X165664851Y-94520472D01*
X165818387Y-94438405D01*
X165952962Y-94327962D01*
X166063405Y-94193387D01*
X166121339Y-94085000D01*
X166497713Y-94085000D01*
X166530718Y-94095012D01*
X166655200Y-94107272D01*
X167976000Y-94107272D01*
X168100482Y-94095012D01*
X168220180Y-94058702D01*
X168330494Y-93999737D01*
X168427185Y-93920385D01*
X168506537Y-93823694D01*
X168565502Y-93713380D01*
X168601812Y-93593682D01*
X168614072Y-93469200D01*
X168614072Y-93124560D01*
X168715118Y-93155212D01*
X168839600Y-93167472D01*
X170160400Y-93167472D01*
X170163000Y-93167216D01*
X170163000Y-95592777D01*
X170158011Y-95598857D01*
X168986860Y-96770009D01*
X168943552Y-96805551D01*
X168801717Y-96978377D01*
X168751184Y-97072918D01*
X168696324Y-97175554D01*
X168663587Y-97283474D01*
X168631423Y-97389501D01*
X168620835Y-97497000D01*
X168609509Y-97612000D01*
X168615000Y-97667751D01*
X168615000Y-97909043D01*
X168595506Y-97919463D01*
X168498815Y-97998815D01*
X168419463Y-98095506D01*
X168360498Y-98205820D01*
X168324188Y-98325518D01*
X168311928Y-98450000D01*
X168311928Y-100050000D01*
X168324188Y-100174482D01*
X168360498Y-100294180D01*
X168419463Y-100404494D01*
X168498815Y-100501185D01*
X168595506Y-100580537D01*
X168615001Y-100590957D01*
X168615000Y-112529868D01*
X165041484Y-116103385D01*
X164976184Y-116023816D01*
X164879493Y-115944464D01*
X164769179Y-115885499D01*
X164649481Y-115849189D01*
X164524999Y-115836929D01*
X162824999Y-115836929D01*
X162700517Y-115849189D01*
X162580819Y-115885499D01*
X162470505Y-115944464D01*
X162373814Y-116023816D01*
X162294462Y-116120507D01*
X162235497Y-116230821D01*
X162211033Y-116311467D01*
X162135268Y-116227413D01*
X161901919Y-116053360D01*
X161639098Y-115928176D01*
X161491889Y-115883525D01*
X161261999Y-116004846D01*
X161261999Y-117198001D01*
X161281999Y-117198001D01*
X161281999Y-117452001D01*
X161261999Y-117452001D01*
X161261999Y-117472001D01*
X161007999Y-117472001D01*
X161007999Y-117452001D01*
X159814185Y-117452001D01*
X159693518Y-117681892D01*
X159790842Y-117956253D01*
X159939821Y-118206356D01*
X160134730Y-118422589D01*
X160368079Y-118596642D01*
X160406621Y-118615000D01*
X157785364Y-118615000D01*
X157855536Y-118529495D01*
X157914501Y-118419181D01*
X157950811Y-118299483D01*
X157963071Y-118175001D01*
X157963071Y-116968110D01*
X159693518Y-116968110D01*
X159814185Y-117198001D01*
X161007999Y-117198001D01*
X161007999Y-116004846D01*
X160778109Y-115883525D01*
X160630900Y-115928176D01*
X160368079Y-116053360D01*
X160134730Y-116227413D01*
X159939821Y-116443646D01*
X159790842Y-116693749D01*
X159693518Y-116968110D01*
X157963071Y-116968110D01*
X157963071Y-116475001D01*
X157950811Y-116350519D01*
X157914501Y-116230821D01*
X157855536Y-116120507D01*
X157776184Y-116023816D01*
X157679493Y-115944464D01*
X157569179Y-115885499D01*
X157449481Y-115849189D01*
X157324999Y-115836929D01*
X155624999Y-115836929D01*
X155500517Y-115849189D01*
X155380819Y-115885499D01*
X155270505Y-115944464D01*
X155173814Y-116023816D01*
X155094462Y-116120507D01*
X155035497Y-116230821D01*
X155011033Y-116311467D01*
X154935268Y-116227413D01*
X154701919Y-116053360D01*
X154439098Y-115928176D01*
X154291889Y-115883525D01*
X154061999Y-116004846D01*
X154061999Y-117198001D01*
X154081999Y-117198001D01*
X154081999Y-117452001D01*
X154061999Y-117452001D01*
X154061999Y-117472001D01*
X153807999Y-117472001D01*
X153807999Y-117452001D01*
X152614185Y-117452001D01*
X152493518Y-117681892D01*
X152590842Y-117956253D01*
X152739821Y-118206356D01*
X152934730Y-118422589D01*
X153168079Y-118596642D01*
X153206621Y-118615000D01*
X131040132Y-118615000D01*
X129393242Y-116968110D01*
X152493518Y-116968110D01*
X152614185Y-117198001D01*
X153807999Y-117198001D01*
X153807999Y-116004846D01*
X153578109Y-115883525D01*
X153430900Y-115928176D01*
X153168079Y-116053360D01*
X152934730Y-116227413D01*
X152739821Y-116443646D01*
X152590842Y-116693749D01*
X152493518Y-116968110D01*
X129393242Y-116968110D01*
X128741996Y-116316865D01*
X128706449Y-116273551D01*
X128533623Y-116131716D01*
X128336447Y-116026324D01*
X128122499Y-115961423D01*
X127955752Y-115945000D01*
X127955751Y-115945000D01*
X127900000Y-115939509D01*
X127844249Y-115945000D01*
X127666888Y-115945000D01*
X127496101Y-115804837D01*
X127681315Y-115649437D01*
X127875969Y-115406923D01*
X128019571Y-115131094D01*
X128090563Y-114912980D01*
X127970594Y-114667000D01*
X126627000Y-114667000D01*
X126627000Y-114687000D01*
X126373000Y-114687000D01*
X126373000Y-114667000D01*
X125029406Y-114667000D01*
X124909437Y-114912980D01*
X124980429Y-115131094D01*
X125124031Y-115406923D01*
X125318685Y-115649437D01*
X125503899Y-115804837D01*
X125324537Y-115952037D01*
X125126155Y-116193765D01*
X124978745Y-116469551D01*
X124887970Y-116768796D01*
X124857319Y-117080000D01*
X124887970Y-117391204D01*
X124978745Y-117690449D01*
X125126155Y-117966235D01*
X125324537Y-118207963D01*
X125566265Y-118406345D01*
X125842051Y-118553755D01*
X126141296Y-118644530D01*
X126374514Y-118667500D01*
X126625486Y-118667500D01*
X126858704Y-118644530D01*
X127157949Y-118553755D01*
X127433735Y-118406345D01*
X127536707Y-118321838D01*
X129728009Y-120513141D01*
X129763551Y-120556449D01*
X129936377Y-120698284D01*
X130133553Y-120803676D01*
X130292802Y-120851984D01*
X130347500Y-120868577D01*
X130356791Y-120869492D01*
X130514248Y-120885000D01*
X130514255Y-120885000D01*
X130569999Y-120890490D01*
X130625743Y-120885000D01*
X156232249Y-120885000D01*
X156288000Y-120890491D01*
X156343751Y-120885000D01*
X163598249Y-120885000D01*
X163654000Y-120890491D01*
X163709751Y-120885000D01*
X163709752Y-120885000D01*
X163876499Y-120868577D01*
X164090447Y-120803676D01*
X164287623Y-120698284D01*
X164460449Y-120556449D01*
X164469914Y-120544915D01*
X164481448Y-120535450D01*
X164623283Y-120362624D01*
X164728675Y-120165448D01*
X164793576Y-119951500D01*
X164809999Y-119784753D01*
X164809999Y-119784752D01*
X164815490Y-119729002D01*
X164809999Y-119673250D01*
X164809999Y-118742684D01*
X164879493Y-118705538D01*
X164976184Y-118626186D01*
X165055536Y-118529495D01*
X165092682Y-118460001D01*
X165369248Y-118460001D01*
X165424999Y-118465492D01*
X165480750Y-118460001D01*
X165480751Y-118460001D01*
X165647498Y-118443578D01*
X165861446Y-118378677D01*
X165887978Y-118364495D01*
X167465000Y-118364495D01*
X167465000Y-118755505D01*
X167541282Y-119139003D01*
X167690915Y-119500250D01*
X167908149Y-119825364D01*
X168184636Y-120101851D01*
X168509750Y-120319085D01*
X168870997Y-120468718D01*
X169254495Y-120545000D01*
X169645505Y-120545000D01*
X170029003Y-120468718D01*
X170390250Y-120319085D01*
X170715364Y-120101851D01*
X170991851Y-119825364D01*
X171209085Y-119500250D01*
X171358718Y-119139003D01*
X171435000Y-118755505D01*
X171435000Y-118364495D01*
X171358718Y-117980997D01*
X171209085Y-117619750D01*
X170991851Y-117294636D01*
X170715364Y-117018149D01*
X170390250Y-116800915D01*
X170029003Y-116651282D01*
X169645505Y-116575000D01*
X169254495Y-116575000D01*
X168870997Y-116651282D01*
X168509750Y-116800915D01*
X168184636Y-117018149D01*
X167908149Y-117294636D01*
X167690915Y-117619750D01*
X167541282Y-117980997D01*
X167465000Y-118364495D01*
X165887978Y-118364495D01*
X166058622Y-118273285D01*
X166231448Y-118131450D01*
X166266995Y-118088136D01*
X170513141Y-113841991D01*
X170556449Y-113806449D01*
X170698284Y-113633623D01*
X170803676Y-113436447D01*
X170868577Y-113222499D01*
X170885000Y-113055752D01*
X170885000Y-113055751D01*
X170890491Y-113000001D01*
X170885000Y-112944249D01*
X170885000Y-100590957D01*
X170904494Y-100580537D01*
X171001185Y-100501185D01*
X171080537Y-100404494D01*
X171139502Y-100294180D01*
X171175812Y-100174482D01*
X171188072Y-100050000D01*
X171188072Y-98450000D01*
X171175812Y-98325518D01*
X171139502Y-98205820D01*
X171080537Y-98095506D01*
X171001185Y-97998815D01*
X170983132Y-97983999D01*
X171582469Y-97384663D01*
X171721623Y-97310284D01*
X171894449Y-97168449D01*
X171929996Y-97125135D01*
X172061135Y-96993996D01*
X172104449Y-96958449D01*
X172203000Y-96838364D01*
X172203000Y-119661494D01*
X172169286Y-120005332D01*
X172079161Y-120303843D01*
X171932771Y-120579162D01*
X171735692Y-120820805D01*
X171495432Y-121019565D01*
X171221143Y-121167873D01*
X170923266Y-121260081D01*
X170581522Y-121296000D01*
X110983904Y-121296000D01*
X110501384Y-121248688D01*
X110069473Y-121118287D01*
X109671120Y-120906480D01*
X109321486Y-120621325D01*
X109033903Y-120273697D01*
X108819315Y-119876825D01*
X108685900Y-119445834D01*
X108635400Y-118965346D01*
X108635400Y-118364495D01*
X109465000Y-118364495D01*
X109465000Y-118755505D01*
X109541282Y-119139003D01*
X109690915Y-119500250D01*
X109908149Y-119825364D01*
X110184636Y-120101851D01*
X110509750Y-120319085D01*
X110870997Y-120468718D01*
X111254495Y-120545000D01*
X111645505Y-120545000D01*
X112029003Y-120468718D01*
X112390250Y-120319085D01*
X112715364Y-120101851D01*
X112991851Y-119825364D01*
X113209085Y-119500250D01*
X113358718Y-119139003D01*
X113435000Y-118755505D01*
X113435000Y-118364495D01*
X113358718Y-117980997D01*
X113209085Y-117619750D01*
X112991851Y-117294636D01*
X112715364Y-117018149D01*
X112390250Y-116800915D01*
X112029003Y-116651282D01*
X111645505Y-116575000D01*
X111254495Y-116575000D01*
X110870997Y-116651282D01*
X110509750Y-116800915D01*
X110184636Y-117018149D01*
X109908149Y-117294636D01*
X109690915Y-117619750D01*
X109541282Y-117980997D01*
X109465000Y-118364495D01*
X108635400Y-118364495D01*
X108635400Y-116492702D01*
X118686903Y-116492702D01*
X118758486Y-116736671D01*
X119013996Y-116857571D01*
X119288184Y-116926300D01*
X119570512Y-116940217D01*
X119850130Y-116898787D01*
X120116292Y-116803603D01*
X120241514Y-116736671D01*
X120313097Y-116492702D01*
X119500000Y-115679605D01*
X118686903Y-116492702D01*
X108635400Y-116492702D01*
X108635400Y-115570512D01*
X118059783Y-115570512D01*
X118101213Y-115850130D01*
X118196397Y-116116292D01*
X118263329Y-116241514D01*
X118507298Y-116313097D01*
X119320395Y-115500000D01*
X119679605Y-115500000D01*
X120492702Y-116313097D01*
X120736671Y-116241514D01*
X120857571Y-115986004D01*
X120926300Y-115711816D01*
X120940217Y-115429488D01*
X120898787Y-115149870D01*
X120803603Y-114883708D01*
X120736671Y-114758486D01*
X120492702Y-114686903D01*
X119679605Y-115500000D01*
X119320395Y-115500000D01*
X118507298Y-114686903D01*
X118263329Y-114758486D01*
X118142429Y-115013996D01*
X118073700Y-115288184D01*
X118059783Y-115570512D01*
X108635400Y-115570512D01*
X108635400Y-114507298D01*
X118686903Y-114507298D01*
X119500000Y-115320395D01*
X120313097Y-114507298D01*
X120241514Y-114263329D01*
X119986004Y-114142429D01*
X119711816Y-114073700D01*
X119429488Y-114059783D01*
X119149870Y-114101213D01*
X118883708Y-114196397D01*
X118758486Y-114263329D01*
X118686903Y-114507298D01*
X108635400Y-114507298D01*
X108635400Y-77161653D01*
X110687952Y-77161653D01*
X110843962Y-77477214D01*
X111218745Y-77668020D01*
X111623551Y-77782044D01*
X112042824Y-77814902D01*
X112460451Y-77765334D01*
X112860383Y-77635243D01*
X113156038Y-77477214D01*
X113312048Y-77161653D01*
X112000000Y-75849605D01*
X110687952Y-77161653D01*
X108635400Y-77161653D01*
X108635400Y-75712824D01*
X109855098Y-75712824D01*
X109904666Y-76130451D01*
X110034757Y-76530383D01*
X110192786Y-76826038D01*
X110508347Y-76982048D01*
X111820395Y-75670000D01*
X110508347Y-74357952D01*
X110192786Y-74513962D01*
X110001980Y-74888745D01*
X109887956Y-75293551D01*
X109855098Y-75712824D01*
X108635400Y-75712824D01*
X108635400Y-63348000D01*
X129015000Y-63348000D01*
X129015000Y-63623000D01*
X130123000Y-63623000D01*
X130123000Y-62406269D01*
X129932391Y-62281538D01*
X129894718Y-62285409D01*
X129669467Y-62377579D01*
X129466526Y-62511922D01*
X129293693Y-62683275D01*
X129157610Y-62885054D01*
X129063507Y-63109504D01*
X129015000Y-63348000D01*
X108635400Y-63348000D01*
X108635400Y-63093505D01*
X108682712Y-62610984D01*
X108813114Y-62179070D01*
X109024924Y-61780715D01*
X109310075Y-61431086D01*
X109657703Y-61143503D01*
X110054577Y-60928914D01*
X110485561Y-60795502D01*
X110966080Y-60744997D01*
X170568534Y-60738004D01*
X170912333Y-60771714D01*
G37*
X170912333Y-60771714D02*
X171210842Y-60861839D01*
X171486162Y-61008229D01*
X171727805Y-61205308D01*
X171926567Y-61445571D01*
X172074874Y-61719858D01*
X172167081Y-62017734D01*
X172203001Y-62359487D01*
X172203001Y-64126133D01*
X171265446Y-63188579D01*
X171239291Y-63156709D01*
X171112146Y-63052364D01*
X170967087Y-62974828D01*
X170809689Y-62927082D01*
X170687019Y-62915000D01*
X170687018Y-62915000D01*
X170646000Y-62910960D01*
X170604982Y-62915000D01*
X139459862Y-62915000D01*
X139420472Y-62785149D01*
X139338405Y-62631613D01*
X139227962Y-62497038D01*
X139093387Y-62386595D01*
X138939851Y-62304528D01*
X138773255Y-62253992D01*
X138600001Y-62236928D01*
X137899999Y-62236928D01*
X137726745Y-62253992D01*
X137560149Y-62304528D01*
X137406613Y-62386595D01*
X137272038Y-62497038D01*
X137161595Y-62631613D01*
X137159191Y-62636111D01*
X137127502Y-62597498D01*
X136939449Y-62443167D01*
X136724901Y-62328489D01*
X136492102Y-62257870D01*
X136250000Y-62234025D01*
X136007899Y-62257870D01*
X135775100Y-62328489D01*
X135560552Y-62443167D01*
X135372499Y-62597498D01*
X135250001Y-62746763D01*
X135127502Y-62597498D01*
X134939449Y-62443167D01*
X134724901Y-62328489D01*
X134492102Y-62257870D01*
X134250000Y-62234025D01*
X134007899Y-62257870D01*
X133775100Y-62328489D01*
X133560552Y-62443167D01*
X133372499Y-62597498D01*
X133250001Y-62746763D01*
X133127502Y-62597498D01*
X132939449Y-62443167D01*
X132724901Y-62328489D01*
X132492102Y-62257870D01*
X132250000Y-62234025D01*
X132007899Y-62257870D01*
X131775100Y-62328489D01*
X131560552Y-62443167D01*
X131372499Y-62597498D01*
X131249520Y-62747349D01*
X131206307Y-62683275D01*
X131033474Y-62511922D01*
X130830533Y-62377579D01*
X130605282Y-62285409D01*
X130567609Y-62281538D01*
X130377000Y-62406269D01*
X130377000Y-63623000D01*
X130397000Y-63623000D01*
X130397000Y-63877000D01*
X130377000Y-63877000D01*
X130377000Y-63897000D01*
X130123000Y-63897000D01*
X130123000Y-63877000D01*
X129015000Y-63877000D01*
X129015000Y-64152000D01*
X129063507Y-64390496D01*
X129157610Y-64614946D01*
X129293693Y-64816725D01*
X129466526Y-64988078D01*
X129656191Y-65113633D01*
X129592913Y-65132828D01*
X129447854Y-65210364D01*
X129380092Y-65265975D01*
X129320709Y-65314709D01*
X129294563Y-65346568D01*
X128458574Y-66182559D01*
X128426710Y-66208709D01*
X128345907Y-66307168D01*
X128322364Y-66335855D01*
X128244828Y-66480914D01*
X128197082Y-66638312D01*
X128180960Y-66802000D01*
X128185001Y-66843028D01*
X128185001Y-67061934D01*
X128073368Y-67136525D01*
X127866525Y-67343368D01*
X127750000Y-67517760D01*
X127633475Y-67343368D01*
X127426632Y-67136525D01*
X127315000Y-67061935D01*
X127315000Y-64583018D01*
X127319040Y-64542000D01*
X127314894Y-64499901D01*
X127302918Y-64378311D01*
X127255172Y-64220913D01*
X127177636Y-64075854D01*
X127073291Y-63948709D01*
X127041425Y-63922557D01*
X126959445Y-63840577D01*
X126933291Y-63808709D01*
X126806146Y-63704364D01*
X126661087Y-63626828D01*
X126503689Y-63579082D01*
X126381019Y-63567000D01*
X126381018Y-63567000D01*
X126340000Y-63562960D01*
X126298982Y-63567000D01*
X113427018Y-63567000D01*
X113386000Y-63562960D01*
X113344981Y-63567000D01*
X113222311Y-63579082D01*
X113064913Y-63626828D01*
X112919854Y-63704364D01*
X112792709Y-63808709D01*
X112688364Y-63935854D01*
X112610828Y-64080913D01*
X112563082Y-64238311D01*
X112546960Y-64402000D01*
X112551000Y-64443019D01*
X112551000Y-67908325D01*
X112390250Y-67800915D01*
X112029003Y-67651282D01*
X111645505Y-67575000D01*
X111254495Y-67575000D01*
X110870997Y-67651282D01*
X110509750Y-67800915D01*
X110184636Y-68018149D01*
X109908149Y-68294636D01*
X109690915Y-68619750D01*
X109541282Y-68980997D01*
X109465000Y-69364495D01*
X109465000Y-69755505D01*
X109541282Y-70139003D01*
X109690915Y-70500250D01*
X109908149Y-70825364D01*
X110184636Y-71101851D01*
X110509750Y-71319085D01*
X110870997Y-71468718D01*
X111254495Y-71545000D01*
X111645505Y-71545000D01*
X112029003Y-71468718D01*
X112390250Y-71319085D01*
X112551001Y-71211675D01*
X112551001Y-73250971D01*
X112546960Y-73292000D01*
X112563082Y-73455688D01*
X112610828Y-73613086D01*
X112617680Y-73625905D01*
X112376449Y-73557956D01*
X111957176Y-73525098D01*
X111539549Y-73574666D01*
X111139617Y-73704757D01*
X110843962Y-73862786D01*
X110687952Y-74178347D01*
X112000000Y-75490395D01*
X112014143Y-75476253D01*
X112193748Y-75655858D01*
X112179605Y-75670000D01*
X113491653Y-76982048D01*
X113807214Y-76826038D01*
X113998020Y-76451255D01*
X114112044Y-76046449D01*
X114144902Y-75627176D01*
X114095334Y-75209549D01*
X114082150Y-75169017D01*
X114463500Y-75550368D01*
X114463501Y-92130630D01*
X113303161Y-93290971D01*
X113253238Y-93250000D01*
X113402502Y-93127502D01*
X113556833Y-92939449D01*
X113671511Y-92724901D01*
X113742130Y-92492102D01*
X113765975Y-92250000D01*
X113742130Y-92007898D01*
X113671511Y-91775099D01*
X113556833Y-91560551D01*
X113402502Y-91372498D01*
X113252652Y-91249519D01*
X113316725Y-91206307D01*
X113488078Y-91033474D01*
X113622421Y-90830533D01*
X113714591Y-90605282D01*
X113718462Y-90567609D01*
X113593731Y-90377000D01*
X112377000Y-90377000D01*
X112377000Y-90397000D01*
X112123000Y-90397000D01*
X112123000Y-90377000D01*
X112103000Y-90377000D01*
X112103000Y-90123000D01*
X112123000Y-90123000D01*
X112123000Y-89015000D01*
X112377000Y-89015000D01*
X112377000Y-90123000D01*
X113593731Y-90123000D01*
X113718462Y-89932391D01*
X113714591Y-89894718D01*
X113622421Y-89669467D01*
X113488078Y-89466526D01*
X113316725Y-89293693D01*
X113114946Y-89157610D01*
X112890496Y-89063507D01*
X112652000Y-89015000D01*
X112377000Y-89015000D01*
X112123000Y-89015000D01*
X111848000Y-89015000D01*
X111609504Y-89063507D01*
X111385054Y-89157610D01*
X111183275Y-89293693D01*
X111135000Y-89342385D01*
X111135000Y-88220131D01*
X112763141Y-86591991D01*
X112806449Y-86556449D01*
X112948284Y-86383623D01*
X113053676Y-86186447D01*
X113103471Y-86022295D01*
X113118577Y-85972500D01*
X113140491Y-85750001D01*
X113135000Y-85694249D01*
X113135000Y-82888072D01*
X113500000Y-82888072D01*
X113624482Y-82875812D01*
X113744180Y-82839502D01*
X113854494Y-82780537D01*
X113951185Y-82701185D01*
X114030537Y-82604494D01*
X114089502Y-82494180D01*
X114125812Y-82374482D01*
X114138072Y-82250000D01*
X114138072Y-79250000D01*
X114125812Y-79125518D01*
X114089502Y-79005820D01*
X114030537Y-78895506D01*
X113951185Y-78798815D01*
X113854494Y-78719463D01*
X113744180Y-78660498D01*
X113624482Y-78624188D01*
X113500000Y-78611928D01*
X110500000Y-78611928D01*
X110375518Y-78624188D01*
X110255820Y-78660498D01*
X110145506Y-78719463D01*
X110048815Y-78798815D01*
X109969463Y-78895506D01*
X109910498Y-79005820D01*
X109874188Y-79125518D01*
X109861928Y-79250000D01*
X109861928Y-82250000D01*
X109874188Y-82374482D01*
X109910498Y-82494180D01*
X109969463Y-82604494D01*
X110048815Y-82701185D01*
X110145506Y-82780537D01*
X110255820Y-82839502D01*
X110375518Y-82875812D01*
X110500000Y-82888072D01*
X110865000Y-82888072D01*
X110865001Y-85279867D01*
X109236865Y-86908004D01*
X109193551Y-86943551D01*
X109051716Y-87116377D01*
X108951508Y-87303855D01*
X108946324Y-87313554D01*
X108881423Y-87527502D01*
X108859509Y-87750000D01*
X108865000Y-87805752D01*
X108865001Y-96919239D01*
X108859509Y-96975000D01*
X108881423Y-97197498D01*
X108946324Y-97411446D01*
X108946325Y-97411447D01*
X109051717Y-97608623D01*
X109193552Y-97781449D01*
X109236860Y-97816991D01*
X110433008Y-99013140D01*
X110468551Y-99056449D01*
X110641377Y-99198284D01*
X110838553Y-99303676D01*
X111052501Y-99368577D01*
X111115000Y-99374733D01*
X111115001Y-106494239D01*
X111109509Y-106550000D01*
X111131423Y-106772498D01*
X111196324Y-106986446D01*
X111236376Y-107061377D01*
X111301717Y-107183623D01*
X111443552Y-107356449D01*
X111486860Y-107391991D01*
X116858009Y-112763141D01*
X116893551Y-112806449D01*
X117066377Y-112948284D01*
X117245787Y-113044180D01*
X117263553Y-113053676D01*
X117477501Y-113118577D01*
X117700000Y-113140491D01*
X117755751Y-113135000D01*
X118159043Y-113135000D01*
X118169463Y-113154494D01*
X118248815Y-113251185D01*
X118345506Y-113330537D01*
X118455820Y-113389502D01*
X118575518Y-113425812D01*
X118700000Y-113438072D01*
X120300000Y-113438072D01*
X120424482Y-113425812D01*
X120544180Y-113389502D01*
X120654494Y-113330537D01*
X120751185Y-113251185D01*
X120830537Y-113154494D01*
X120840957Y-113135000D01*
X124891788Y-113135000D01*
X124910498Y-113196680D01*
X124969463Y-113306994D01*
X125048815Y-113403685D01*
X125145506Y-113483037D01*
X125237219Y-113532059D01*
X125124031Y-113673077D01*
X124980429Y-113948906D01*
X124909437Y-114167020D01*
X125029406Y-114413000D01*
X126373000Y-114413000D01*
X126373000Y-114393000D01*
X126627000Y-114393000D01*
X126627000Y-114413000D01*
X127970594Y-114413000D01*
X128090563Y-114167020D01*
X128019571Y-113948906D01*
X127875969Y-113673077D01*
X127762781Y-113532059D01*
X127854494Y-113483037D01*
X127951185Y-113403685D01*
X128030537Y-113306994D01*
X128089502Y-113196680D01*
X128108212Y-113135000D01*
X155194249Y-113135000D01*
X155250000Y-113140491D01*
X155305751Y-113135000D01*
X155305752Y-113135000D01*
X155472499Y-113118577D01*
X155686447Y-113053676D01*
X155883623Y-112948284D01*
X156056449Y-112806449D01*
X156091996Y-112763135D01*
X158013141Y-110841991D01*
X158056449Y-110806449D01*
X158198284Y-110633623D01*
X158303676Y-110436447D01*
X158368577Y-110222499D01*
X158385000Y-110055752D01*
X158385000Y-110055751D01*
X158390491Y-110000001D01*
X158385000Y-109944249D01*
X158385000Y-108824771D01*
X158502962Y-108727962D01*
X158613405Y-108593387D01*
X158617888Y-108585000D01*
X159708982Y-108585000D01*
X159750000Y-108589040D01*
X159791018Y-108585000D01*
X159791019Y-108585000D01*
X159913689Y-108572918D01*
X160071087Y-108525172D01*
X160216146Y-108447636D01*
X160343291Y-108343291D01*
X160369445Y-108311422D01*
X161561432Y-107119437D01*
X161593291Y-107093291D01*
X161620256Y-107060435D01*
X161697636Y-106966146D01*
X161775172Y-106821087D01*
X161822918Y-106663689D01*
X161829697Y-106594863D01*
X161835000Y-106541019D01*
X161839040Y-106500000D01*
X161835000Y-106458982D01*
X161835000Y-100242702D01*
X165436903Y-100242702D01*
X165508486Y-100486671D01*
X165763996Y-100607571D01*
X166038184Y-100676300D01*
X166320512Y-100690217D01*
X166600130Y-100648787D01*
X166866292Y-100553603D01*
X166991514Y-100486671D01*
X167063097Y-100242702D01*
X166250000Y-99429605D01*
X165436903Y-100242702D01*
X161835000Y-100242702D01*
X161835000Y-99320512D01*
X164809783Y-99320512D01*
X164851213Y-99600130D01*
X164946397Y-99866292D01*
X165013329Y-99991514D01*
X165257298Y-100063097D01*
X166070395Y-99250000D01*
X166429605Y-99250000D01*
X167242702Y-100063097D01*
X167486671Y-99991514D01*
X167607571Y-99736004D01*
X167676300Y-99461816D01*
X167690217Y-99179488D01*
X167648787Y-98899870D01*
X167553603Y-98633708D01*
X167486671Y-98508486D01*
X167242702Y-98436903D01*
X166429605Y-99250000D01*
X166070395Y-99250000D01*
X165257298Y-98436903D01*
X165013329Y-98508486D01*
X164892429Y-98763996D01*
X164823700Y-99038184D01*
X164809783Y-99320512D01*
X161835000Y-99320512D01*
X161835000Y-98257298D01*
X165436903Y-98257298D01*
X166250000Y-99070395D01*
X167063097Y-98257298D01*
X166991514Y-98013329D01*
X166736004Y-97892429D01*
X166461816Y-97823700D01*
X166179488Y-97809783D01*
X165899870Y-97851213D01*
X165633708Y-97946397D01*
X165508486Y-98013329D01*
X165436903Y-98257298D01*
X161835000Y-98257298D01*
X161835000Y-94096860D01*
X161886595Y-94193387D01*
X161997038Y-94327962D01*
X162131613Y-94438405D01*
X162285149Y-94520472D01*
X162451745Y-94571008D01*
X162624999Y-94588072D01*
X163275001Y-94588072D01*
X163448255Y-94571008D01*
X163614851Y-94520472D01*
X163768387Y-94438405D01*
X163902962Y-94327962D01*
X163975000Y-94240184D01*
X164047038Y-94327962D01*
X164181613Y-94438405D01*
X164335149Y-94520472D01*
X164501745Y-94571008D01*
X164674999Y-94588072D01*
X165325001Y-94588072D01*
X165498255Y-94571008D01*
X165664851Y-94520472D01*
X165818387Y-94438405D01*
X165952962Y-94327962D01*
X166063405Y-94193387D01*
X166121339Y-94085000D01*
X166497713Y-94085000D01*
X166530718Y-94095012D01*
X166655200Y-94107272D01*
X167976000Y-94107272D01*
X168100482Y-94095012D01*
X168220180Y-94058702D01*
X168330494Y-93999737D01*
X168427185Y-93920385D01*
X168506537Y-93823694D01*
X168565502Y-93713380D01*
X168601812Y-93593682D01*
X168614072Y-93469200D01*
X168614072Y-93124560D01*
X168715118Y-93155212D01*
X168839600Y-93167472D01*
X170160400Y-93167472D01*
X170163000Y-93167216D01*
X170163000Y-95592777D01*
X170158011Y-95598857D01*
X168986860Y-96770009D01*
X168943552Y-96805551D01*
X168801717Y-96978377D01*
X168751184Y-97072918D01*
X168696324Y-97175554D01*
X168663587Y-97283474D01*
X168631423Y-97389501D01*
X168620835Y-97497000D01*
X168609509Y-97612000D01*
X168615000Y-97667751D01*
X168615000Y-97909043D01*
X168595506Y-97919463D01*
X168498815Y-97998815D01*
X168419463Y-98095506D01*
X168360498Y-98205820D01*
X168324188Y-98325518D01*
X168311928Y-98450000D01*
X168311928Y-100050000D01*
X168324188Y-100174482D01*
X168360498Y-100294180D01*
X168419463Y-100404494D01*
X168498815Y-100501185D01*
X168595506Y-100580537D01*
X168615001Y-100590957D01*
X168615000Y-112529868D01*
X165041484Y-116103385D01*
X164976184Y-116023816D01*
X164879493Y-115944464D01*
X164769179Y-115885499D01*
X164649481Y-115849189D01*
X164524999Y-115836929D01*
X162824999Y-115836929D01*
X162700517Y-115849189D01*
X162580819Y-115885499D01*
X162470505Y-115944464D01*
X162373814Y-116023816D01*
X162294462Y-116120507D01*
X162235497Y-116230821D01*
X162211033Y-116311467D01*
X162135268Y-116227413D01*
X161901919Y-116053360D01*
X161639098Y-115928176D01*
X161491889Y-115883525D01*
X161261999Y-116004846D01*
X161261999Y-117198001D01*
X161281999Y-117198001D01*
X161281999Y-117452001D01*
X161261999Y-117452001D01*
X161261999Y-117472001D01*
X161007999Y-117472001D01*
X161007999Y-117452001D01*
X159814185Y-117452001D01*
X159693518Y-117681892D01*
X159790842Y-117956253D01*
X159939821Y-118206356D01*
X160134730Y-118422589D01*
X160368079Y-118596642D01*
X160406621Y-118615000D01*
X157785364Y-118615000D01*
X157855536Y-118529495D01*
X157914501Y-118419181D01*
X157950811Y-118299483D01*
X157963071Y-118175001D01*
X157963071Y-116968110D01*
X159693518Y-116968110D01*
X159814185Y-117198001D01*
X161007999Y-117198001D01*
X161007999Y-116004846D01*
X160778109Y-115883525D01*
X160630900Y-115928176D01*
X160368079Y-116053360D01*
X160134730Y-116227413D01*
X159939821Y-116443646D01*
X159790842Y-116693749D01*
X159693518Y-116968110D01*
X157963071Y-116968110D01*
X157963071Y-116475001D01*
X157950811Y-116350519D01*
X157914501Y-116230821D01*
X157855536Y-116120507D01*
X157776184Y-116023816D01*
X157679493Y-115944464D01*
X157569179Y-115885499D01*
X157449481Y-115849189D01*
X157324999Y-115836929D01*
X155624999Y-115836929D01*
X155500517Y-115849189D01*
X155380819Y-115885499D01*
X155270505Y-115944464D01*
X155173814Y-116023816D01*
X155094462Y-116120507D01*
X155035497Y-116230821D01*
X155011033Y-116311467D01*
X154935268Y-116227413D01*
X154701919Y-116053360D01*
X154439098Y-115928176D01*
X154291889Y-115883525D01*
X154061999Y-116004846D01*
X154061999Y-117198001D01*
X154081999Y-117198001D01*
X154081999Y-117452001D01*
X154061999Y-117452001D01*
X154061999Y-117472001D01*
X153807999Y-117472001D01*
X153807999Y-117452001D01*
X152614185Y-117452001D01*
X152493518Y-117681892D01*
X152590842Y-117956253D01*
X152739821Y-118206356D01*
X152934730Y-118422589D01*
X153168079Y-118596642D01*
X153206621Y-118615000D01*
X131040132Y-118615000D01*
X129393242Y-116968110D01*
X152493518Y-116968110D01*
X152614185Y-117198001D01*
X153807999Y-117198001D01*
X153807999Y-116004846D01*
X153578109Y-115883525D01*
X153430900Y-115928176D01*
X153168079Y-116053360D01*
X152934730Y-116227413D01*
X152739821Y-116443646D01*
X152590842Y-116693749D01*
X152493518Y-116968110D01*
X129393242Y-116968110D01*
X128741996Y-116316865D01*
X128706449Y-116273551D01*
X128533623Y-116131716D01*
X128336447Y-116026324D01*
X128122499Y-115961423D01*
X127955752Y-115945000D01*
X127955751Y-115945000D01*
X127900000Y-115939509D01*
X127844249Y-115945000D01*
X127666888Y-115945000D01*
X127496101Y-115804837D01*
X127681315Y-115649437D01*
X127875969Y-115406923D01*
X128019571Y-115131094D01*
X128090563Y-114912980D01*
X127970594Y-114667000D01*
X126627000Y-114667000D01*
X126627000Y-114687000D01*
X126373000Y-114687000D01*
X126373000Y-114667000D01*
X125029406Y-114667000D01*
X124909437Y-114912980D01*
X124980429Y-115131094D01*
X125124031Y-115406923D01*
X125318685Y-115649437D01*
X125503899Y-115804837D01*
X125324537Y-115952037D01*
X125126155Y-116193765D01*
X124978745Y-116469551D01*
X124887970Y-116768796D01*
X124857319Y-117080000D01*
X124887970Y-117391204D01*
X124978745Y-117690449D01*
X125126155Y-117966235D01*
X125324537Y-118207963D01*
X125566265Y-118406345D01*
X125842051Y-118553755D01*
X126141296Y-118644530D01*
X126374514Y-118667500D01*
X126625486Y-118667500D01*
X126858704Y-118644530D01*
X127157949Y-118553755D01*
X127433735Y-118406345D01*
X127536707Y-118321838D01*
X129728009Y-120513141D01*
X129763551Y-120556449D01*
X129936377Y-120698284D01*
X130133553Y-120803676D01*
X130292802Y-120851984D01*
X130347500Y-120868577D01*
X130356791Y-120869492D01*
X130514248Y-120885000D01*
X130514255Y-120885000D01*
X130569999Y-120890490D01*
X130625743Y-120885000D01*
X156232249Y-120885000D01*
X156288000Y-120890491D01*
X156343751Y-120885000D01*
X163598249Y-120885000D01*
X163654000Y-120890491D01*
X163709751Y-120885000D01*
X163709752Y-120885000D01*
X163876499Y-120868577D01*
X164090447Y-120803676D01*
X164287623Y-120698284D01*
X164460449Y-120556449D01*
X164469914Y-120544915D01*
X164481448Y-120535450D01*
X164623283Y-120362624D01*
X164728675Y-120165448D01*
X164793576Y-119951500D01*
X164809999Y-119784753D01*
X164809999Y-119784752D01*
X164815490Y-119729002D01*
X164809999Y-119673250D01*
X164809999Y-118742684D01*
X164879493Y-118705538D01*
X164976184Y-118626186D01*
X165055536Y-118529495D01*
X165092682Y-118460001D01*
X165369248Y-118460001D01*
X165424999Y-118465492D01*
X165480750Y-118460001D01*
X165480751Y-118460001D01*
X165647498Y-118443578D01*
X165861446Y-118378677D01*
X165887978Y-118364495D01*
X167465000Y-118364495D01*
X167465000Y-118755505D01*
X167541282Y-119139003D01*
X167690915Y-119500250D01*
X167908149Y-119825364D01*
X168184636Y-120101851D01*
X168509750Y-120319085D01*
X168870997Y-120468718D01*
X169254495Y-120545000D01*
X169645505Y-120545000D01*
X170029003Y-120468718D01*
X170390250Y-120319085D01*
X170715364Y-120101851D01*
X170991851Y-119825364D01*
X171209085Y-119500250D01*
X171358718Y-119139003D01*
X171435000Y-118755505D01*
X171435000Y-118364495D01*
X171358718Y-117980997D01*
X171209085Y-117619750D01*
X170991851Y-117294636D01*
X170715364Y-117018149D01*
X170390250Y-116800915D01*
X170029003Y-116651282D01*
X169645505Y-116575000D01*
X169254495Y-116575000D01*
X168870997Y-116651282D01*
X168509750Y-116800915D01*
X168184636Y-117018149D01*
X167908149Y-117294636D01*
X167690915Y-117619750D01*
X167541282Y-117980997D01*
X167465000Y-118364495D01*
X165887978Y-118364495D01*
X166058622Y-118273285D01*
X166231448Y-118131450D01*
X166266995Y-118088136D01*
X170513141Y-113841991D01*
X170556449Y-113806449D01*
X170698284Y-113633623D01*
X170803676Y-113436447D01*
X170868577Y-113222499D01*
X170885000Y-113055752D01*
X170885000Y-113055751D01*
X170890491Y-113000001D01*
X170885000Y-112944249D01*
X170885000Y-100590957D01*
X170904494Y-100580537D01*
X171001185Y-100501185D01*
X171080537Y-100404494D01*
X171139502Y-100294180D01*
X171175812Y-100174482D01*
X171188072Y-100050000D01*
X171188072Y-98450000D01*
X171175812Y-98325518D01*
X171139502Y-98205820D01*
X171080537Y-98095506D01*
X171001185Y-97998815D01*
X170983132Y-97983999D01*
X171582469Y-97384663D01*
X171721623Y-97310284D01*
X171894449Y-97168449D01*
X171929996Y-97125135D01*
X172061135Y-96993996D01*
X172104449Y-96958449D01*
X172203000Y-96838364D01*
X172203000Y-119661494D01*
X172169286Y-120005332D01*
X172079161Y-120303843D01*
X171932771Y-120579162D01*
X171735692Y-120820805D01*
X171495432Y-121019565D01*
X171221143Y-121167873D01*
X170923266Y-121260081D01*
X170581522Y-121296000D01*
X110983904Y-121296000D01*
X110501384Y-121248688D01*
X110069473Y-121118287D01*
X109671120Y-120906480D01*
X109321486Y-120621325D01*
X109033903Y-120273697D01*
X108819315Y-119876825D01*
X108685900Y-119445834D01*
X108635400Y-118965346D01*
X108635400Y-118364495D01*
X109465000Y-118364495D01*
X109465000Y-118755505D01*
X109541282Y-119139003D01*
X109690915Y-119500250D01*
X109908149Y-119825364D01*
X110184636Y-120101851D01*
X110509750Y-120319085D01*
X110870997Y-120468718D01*
X111254495Y-120545000D01*
X111645505Y-120545000D01*
X112029003Y-120468718D01*
X112390250Y-120319085D01*
X112715364Y-120101851D01*
X112991851Y-119825364D01*
X113209085Y-119500250D01*
X113358718Y-119139003D01*
X113435000Y-118755505D01*
X113435000Y-118364495D01*
X113358718Y-117980997D01*
X113209085Y-117619750D01*
X112991851Y-117294636D01*
X112715364Y-117018149D01*
X112390250Y-116800915D01*
X112029003Y-116651282D01*
X111645505Y-116575000D01*
X111254495Y-116575000D01*
X110870997Y-116651282D01*
X110509750Y-116800915D01*
X110184636Y-117018149D01*
X109908149Y-117294636D01*
X109690915Y-117619750D01*
X109541282Y-117980997D01*
X109465000Y-118364495D01*
X108635400Y-118364495D01*
X108635400Y-116492702D01*
X118686903Y-116492702D01*
X118758486Y-116736671D01*
X119013996Y-116857571D01*
X119288184Y-116926300D01*
X119570512Y-116940217D01*
X119850130Y-116898787D01*
X120116292Y-116803603D01*
X120241514Y-116736671D01*
X120313097Y-116492702D01*
X119500000Y-115679605D01*
X118686903Y-116492702D01*
X108635400Y-116492702D01*
X108635400Y-115570512D01*
X118059783Y-115570512D01*
X118101213Y-115850130D01*
X118196397Y-116116292D01*
X118263329Y-116241514D01*
X118507298Y-116313097D01*
X119320395Y-115500000D01*
X119679605Y-115500000D01*
X120492702Y-116313097D01*
X120736671Y-116241514D01*
X120857571Y-115986004D01*
X120926300Y-115711816D01*
X120940217Y-115429488D01*
X120898787Y-115149870D01*
X120803603Y-114883708D01*
X120736671Y-114758486D01*
X120492702Y-114686903D01*
X119679605Y-115500000D01*
X119320395Y-115500000D01*
X118507298Y-114686903D01*
X118263329Y-114758486D01*
X118142429Y-115013996D01*
X118073700Y-115288184D01*
X118059783Y-115570512D01*
X108635400Y-115570512D01*
X108635400Y-114507298D01*
X118686903Y-114507298D01*
X119500000Y-115320395D01*
X120313097Y-114507298D01*
X120241514Y-114263329D01*
X119986004Y-114142429D01*
X119711816Y-114073700D01*
X119429488Y-114059783D01*
X119149870Y-114101213D01*
X118883708Y-114196397D01*
X118758486Y-114263329D01*
X118686903Y-114507298D01*
X108635400Y-114507298D01*
X108635400Y-77161653D01*
X110687952Y-77161653D01*
X110843962Y-77477214D01*
X111218745Y-77668020D01*
X111623551Y-77782044D01*
X112042824Y-77814902D01*
X112460451Y-77765334D01*
X112860383Y-77635243D01*
X113156038Y-77477214D01*
X113312048Y-77161653D01*
X112000000Y-75849605D01*
X110687952Y-77161653D01*
X108635400Y-77161653D01*
X108635400Y-75712824D01*
X109855098Y-75712824D01*
X109904666Y-76130451D01*
X110034757Y-76530383D01*
X110192786Y-76826038D01*
X110508347Y-76982048D01*
X111820395Y-75670000D01*
X110508347Y-74357952D01*
X110192786Y-74513962D01*
X110001980Y-74888745D01*
X109887956Y-75293551D01*
X109855098Y-75712824D01*
X108635400Y-75712824D01*
X108635400Y-63348000D01*
X129015000Y-63348000D01*
X129015000Y-63623000D01*
X130123000Y-63623000D01*
X130123000Y-62406269D01*
X129932391Y-62281538D01*
X129894718Y-62285409D01*
X129669467Y-62377579D01*
X129466526Y-62511922D01*
X129293693Y-62683275D01*
X129157610Y-62885054D01*
X129063507Y-63109504D01*
X129015000Y-63348000D01*
X108635400Y-63348000D01*
X108635400Y-63093505D01*
X108682712Y-62610984D01*
X108813114Y-62179070D01*
X109024924Y-61780715D01*
X109310075Y-61431086D01*
X109657703Y-61143503D01*
X110054577Y-60928914D01*
X110485561Y-60795502D01*
X110966080Y-60744997D01*
X170568534Y-60738004D01*
X170912333Y-60771714D01*
G36*
X137404563Y-75123432D02*
G01*
X137430709Y-75155291D01*
X137462568Y-75181437D01*
X137462570Y-75181439D01*
X137474743Y-75191429D01*
X137557854Y-75259636D01*
X137702913Y-75337172D01*
X137860311Y-75384918D01*
X137982981Y-75397000D01*
X137982982Y-75397000D01*
X138024000Y-75401040D01*
X138065018Y-75397000D01*
X148013559Y-75397000D01*
X148037534Y-75454882D01*
X148111113Y-75565000D01*
X121966353Y-75565000D01*
X121937399Y-75567852D01*
X121934427Y-75567831D01*
X121924909Y-75568764D01*
X121876790Y-75573821D01*
X121865717Y-75574912D01*
X121865348Y-75575024D01*
X121827860Y-75578964D01*
X121767017Y-75591453D01*
X121706058Y-75603082D01*
X121696902Y-75605846D01*
X121603683Y-75634702D01*
X121546434Y-75658768D01*
X121488881Y-75682021D01*
X121480436Y-75686511D01*
X121394598Y-75732923D01*
X121343115Y-75767650D01*
X121291179Y-75801636D01*
X121283767Y-75807680D01*
X121208579Y-75869882D01*
X121164818Y-75913949D01*
X121120478Y-75957370D01*
X121114381Y-75964739D01*
X121052706Y-76040360D01*
X121018368Y-76092041D01*
X120983267Y-76143306D01*
X120978718Y-76151719D01*
X120932906Y-76237880D01*
X120909242Y-76295296D01*
X120884792Y-76352339D01*
X120881964Y-76361475D01*
X120853759Y-76454893D01*
X120841698Y-76515805D01*
X120828791Y-76576529D01*
X120827791Y-76586041D01*
X120818269Y-76683159D01*
X120818269Y-76683173D01*
X120815001Y-76716353D01*
X120815000Y-106283646D01*
X120817852Y-106312600D01*
X120817831Y-106315573D01*
X120818764Y-106325092D01*
X120823824Y-106373233D01*
X120824912Y-106384282D01*
X120825024Y-106384650D01*
X120828964Y-106422140D01*
X120841455Y-106482990D01*
X120853082Y-106543942D01*
X120855845Y-106553096D01*
X120855847Y-106553102D01*
X120884702Y-106646317D01*
X120908754Y-106703533D01*
X120932020Y-106761119D01*
X120936510Y-106769564D01*
X120982923Y-106855401D01*
X121017638Y-106906867D01*
X121051636Y-106958821D01*
X121057680Y-106966232D01*
X121119882Y-107041421D01*
X121163930Y-107085162D01*
X121207369Y-107129522D01*
X121214739Y-107135618D01*
X121214744Y-107135623D01*
X121214750Y-107135627D01*
X121290360Y-107197294D01*
X121342041Y-107231632D01*
X121393306Y-107266733D01*
X121401719Y-107271282D01*
X121487880Y-107317094D01*
X121545296Y-107340758D01*
X121602339Y-107365208D01*
X121611475Y-107368036D01*
X121704893Y-107396241D01*
X121765813Y-107408303D01*
X121826530Y-107421209D01*
X121836042Y-107422209D01*
X121933159Y-107431731D01*
X121933163Y-107431731D01*
X121966353Y-107435000D01*
X151533647Y-107435000D01*
X151562601Y-107432148D01*
X151565573Y-107432169D01*
X151575092Y-107431236D01*
X151623218Y-107426178D01*
X151634283Y-107425088D01*
X151634652Y-107424976D01*
X151672140Y-107421036D01*
X151732990Y-107408545D01*
X151793942Y-107396918D01*
X151803096Y-107394155D01*
X151803102Y-107394153D01*
X151896317Y-107365298D01*
X151953533Y-107341246D01*
X152011119Y-107317980D01*
X152019564Y-107313490D01*
X152105401Y-107267077D01*
X152156867Y-107232362D01*
X152208821Y-107198364D01*
X152216232Y-107192320D01*
X152291421Y-107130118D01*
X152335162Y-107086070D01*
X152379522Y-107042631D01*
X152385618Y-107035261D01*
X152385623Y-107035256D01*
X152385627Y-107035250D01*
X152447294Y-106959640D01*
X152481632Y-106907959D01*
X152516733Y-106856694D01*
X152521282Y-106848281D01*
X152567094Y-106762120D01*
X152590758Y-106704704D01*
X152615208Y-106647661D01*
X152618036Y-106638525D01*
X152646241Y-106545107D01*
X152658303Y-106484187D01*
X152671209Y-106423470D01*
X152672209Y-106413958D01*
X152681731Y-106316841D01*
X152681731Y-106316837D01*
X152685000Y-106283647D01*
X152685000Y-101640867D01*
X155355559Y-104311427D01*
X155381709Y-104343291D01*
X155498878Y-104439449D01*
X155508854Y-104447636D01*
X155653913Y-104525172D01*
X155811311Y-104572918D01*
X155974999Y-104589040D01*
X156016018Y-104585000D01*
X156062618Y-104585000D01*
X156097498Y-104627502D01*
X156247348Y-104750481D01*
X156183275Y-104793693D01*
X156011922Y-104966526D01*
X155877579Y-105169467D01*
X155785409Y-105394718D01*
X155781538Y-105432391D01*
X155906269Y-105623000D01*
X157123000Y-105623000D01*
X157123000Y-105603000D01*
X157377000Y-105603000D01*
X157377000Y-105623000D01*
X158593731Y-105623000D01*
X158718462Y-105432391D01*
X158714591Y-105394718D01*
X158622421Y-105169467D01*
X158488078Y-104966526D01*
X158316725Y-104793693D01*
X158252652Y-104750481D01*
X158402502Y-104627502D01*
X158556833Y-104439449D01*
X158671511Y-104224901D01*
X158742130Y-103992102D01*
X158765975Y-103750000D01*
X158742130Y-103507898D01*
X158671511Y-103275099D01*
X158556833Y-103060551D01*
X158402502Y-102872498D01*
X158253238Y-102750000D01*
X158402502Y-102627502D01*
X158556833Y-102439449D01*
X158671511Y-102224901D01*
X158742130Y-101992102D01*
X158765975Y-101750000D01*
X158742130Y-101507898D01*
X158671511Y-101275099D01*
X158556833Y-101060551D01*
X158402502Y-100872498D01*
X158214449Y-100718167D01*
X157999901Y-100603489D01*
X157767102Y-100532870D01*
X157585665Y-100515000D01*
X156914335Y-100515000D01*
X156732898Y-100532870D01*
X156500099Y-100603489D01*
X156285551Y-100718167D01*
X156210571Y-100779702D01*
X154335000Y-98904133D01*
X154335000Y-96817609D01*
X157031538Y-96817609D01*
X157035409Y-96855282D01*
X157127579Y-97080533D01*
X157261922Y-97283474D01*
X157433275Y-97456307D01*
X157635054Y-97592390D01*
X157859504Y-97686493D01*
X158098000Y-97735000D01*
X158373000Y-97735000D01*
X158373000Y-96627000D01*
X158627000Y-96627000D01*
X158627000Y-97735000D01*
X158902000Y-97735000D01*
X159140496Y-97686493D01*
X159364946Y-97592390D01*
X159566725Y-97456307D01*
X159738078Y-97283474D01*
X159872421Y-97080533D01*
X159964591Y-96855282D01*
X159968462Y-96817609D01*
X159843731Y-96627000D01*
X158627000Y-96627000D01*
X158373000Y-96627000D01*
X157156269Y-96627000D01*
X157031538Y-96817609D01*
X154335000Y-96817609D01*
X154335000Y-88751867D01*
X155218558Y-89635426D01*
X155244709Y-89667291D01*
X155371854Y-89771636D01*
X155516913Y-89849172D01*
X155674311Y-89896918D01*
X155796981Y-89909000D01*
X155796991Y-89909000D01*
X155837999Y-89913039D01*
X155879007Y-89909000D01*
X162115000Y-89909000D01*
X162115001Y-92075228D01*
X161997038Y-92172038D01*
X161886595Y-92306613D01*
X161804528Y-92460149D01*
X161753992Y-92626745D01*
X161736928Y-92799999D01*
X161736928Y-93632364D01*
X161697636Y-93558854D01*
X161624059Y-93469200D01*
X161619439Y-93463570D01*
X161619437Y-93463568D01*
X161593291Y-93431709D01*
X161561433Y-93405564D01*
X160094446Y-91938578D01*
X160068291Y-91906709D01*
X159941440Y-91802605D01*
X159863405Y-91656613D01*
X159752962Y-91522038D01*
X159618387Y-91411595D01*
X159464851Y-91329528D01*
X159298255Y-91278992D01*
X159125001Y-91261928D01*
X157874999Y-91261928D01*
X157701745Y-91278992D01*
X157535149Y-91329528D01*
X157381613Y-91411595D01*
X157247038Y-91522038D01*
X157136595Y-91656613D01*
X157054528Y-91810149D01*
X157003992Y-91976745D01*
X156986928Y-92149999D01*
X156986928Y-92850001D01*
X157003992Y-93023255D01*
X157054528Y-93189851D01*
X157136595Y-93343387D01*
X157247038Y-93477962D01*
X157381613Y-93588405D01*
X157386111Y-93590809D01*
X157347498Y-93622498D01*
X157193167Y-93810551D01*
X157078489Y-94025099D01*
X157007870Y-94257898D01*
X156984025Y-94500000D01*
X157007870Y-94742102D01*
X157078489Y-94974901D01*
X157193167Y-95189449D01*
X157347498Y-95377502D01*
X157497348Y-95500481D01*
X157433275Y-95543693D01*
X157261922Y-95716526D01*
X157127579Y-95919467D01*
X157035409Y-96144718D01*
X157031538Y-96182391D01*
X157156269Y-96373000D01*
X158373000Y-96373000D01*
X158373000Y-96353000D01*
X158627000Y-96353000D01*
X158627000Y-96373000D01*
X159843731Y-96373000D01*
X159968462Y-96182391D01*
X159964591Y-96144718D01*
X159872421Y-95919467D01*
X159738078Y-95716526D01*
X159566725Y-95543693D01*
X159502652Y-95500481D01*
X159652502Y-95377502D01*
X159806833Y-95189449D01*
X159921511Y-94974901D01*
X159992130Y-94742102D01*
X160015975Y-94500000D01*
X159992130Y-94257898D01*
X159966048Y-94171916D01*
X160165000Y-94370869D01*
X160165001Y-106154130D01*
X159404133Y-106915000D01*
X158617888Y-106915000D01*
X158613405Y-106906613D01*
X158502962Y-106772038D01*
X158368387Y-106661595D01*
X158363594Y-106659033D01*
X158488078Y-106533474D01*
X158622421Y-106330533D01*
X158714591Y-106105282D01*
X158718462Y-106067609D01*
X158593731Y-105877000D01*
X157377000Y-105877000D01*
X157377000Y-105897000D01*
X157123000Y-105897000D01*
X157123000Y-105877000D01*
X155906269Y-105877000D01*
X155781538Y-106067609D01*
X155785409Y-106105282D01*
X155877579Y-106330533D01*
X156011922Y-106533474D01*
X156136406Y-106659033D01*
X156131613Y-106661595D01*
X155997038Y-106772038D01*
X155886595Y-106906613D01*
X155804528Y-107060149D01*
X155753992Y-107226745D01*
X155736928Y-107399999D01*
X155736928Y-108100001D01*
X155753992Y-108273255D01*
X155804528Y-108439851D01*
X155886595Y-108593387D01*
X155997038Y-108727962D01*
X156115001Y-108824771D01*
X156115000Y-109529868D01*
X154779869Y-110865000D01*
X128108212Y-110865000D01*
X128089502Y-110803320D01*
X128030537Y-110693006D01*
X127951185Y-110596315D01*
X127854494Y-110516963D01*
X127744180Y-110457998D01*
X127624482Y-110421688D01*
X127500000Y-110409428D01*
X125500000Y-110409428D01*
X125375518Y-110421688D01*
X125255820Y-110457998D01*
X125145506Y-110516963D01*
X125048815Y-110596315D01*
X124969463Y-110693006D01*
X124910498Y-110803320D01*
X124891788Y-110865000D01*
X120840957Y-110865000D01*
X120830537Y-110845506D01*
X120751185Y-110748815D01*
X120654494Y-110669463D01*
X120544180Y-110610498D01*
X120424482Y-110574188D01*
X120300000Y-110561928D01*
X118700000Y-110561928D01*
X118575518Y-110574188D01*
X118455820Y-110610498D01*
X118345506Y-110669463D01*
X118248815Y-110748815D01*
X118169463Y-110845506D01*
X118162906Y-110857774D01*
X113385000Y-106079869D01*
X113385000Y-99324771D01*
X113502962Y-99227962D01*
X113613405Y-99093387D01*
X113695472Y-98939851D01*
X113746008Y-98773255D01*
X113763072Y-98600001D01*
X113763072Y-97899999D01*
X113746008Y-97726745D01*
X113695472Y-97560149D01*
X113613405Y-97406613D01*
X113502962Y-97272038D01*
X113368387Y-97161595D01*
X113363889Y-97159191D01*
X113402502Y-97127502D01*
X113437382Y-97085000D01*
X116958981Y-97085000D01*
X117000000Y-97089040D01*
X117041018Y-97085000D01*
X117041019Y-97085000D01*
X117163689Y-97072918D01*
X117321087Y-97025172D01*
X117466146Y-96947636D01*
X117593291Y-96843291D01*
X117697636Y-96716146D01*
X117775172Y-96571087D01*
X117822918Y-96413689D01*
X117839040Y-96250000D01*
X117835000Y-96208981D01*
X117835000Y-75169018D01*
X117839040Y-75128000D01*
X117833434Y-75071086D01*
X117822918Y-74964311D01*
X117775172Y-74806913D01*
X117697636Y-74661854D01*
X117656073Y-74611209D01*
X117619439Y-74566570D01*
X117619437Y-74566568D01*
X117593291Y-74534709D01*
X117561432Y-74508563D01*
X117068588Y-74015719D01*
X117082000Y-74017040D01*
X117123018Y-74013000D01*
X136294133Y-74013000D01*
X137404563Y-75123432D01*
G37*
X137404563Y-75123432D02*
X137430709Y-75155291D01*
X137462568Y-75181437D01*
X137462570Y-75181439D01*
X137474743Y-75191429D01*
X137557854Y-75259636D01*
X137702913Y-75337172D01*
X137860311Y-75384918D01*
X137982981Y-75397000D01*
X137982982Y-75397000D01*
X138024000Y-75401040D01*
X138065018Y-75397000D01*
X148013559Y-75397000D01*
X148037534Y-75454882D01*
X148111113Y-75565000D01*
X121966353Y-75565000D01*
X121937399Y-75567852D01*
X121934427Y-75567831D01*
X121924909Y-75568764D01*
X121876790Y-75573821D01*
X121865717Y-75574912D01*
X121865348Y-75575024D01*
X121827860Y-75578964D01*
X121767017Y-75591453D01*
X121706058Y-75603082D01*
X121696902Y-75605846D01*
X121603683Y-75634702D01*
X121546434Y-75658768D01*
X121488881Y-75682021D01*
X121480436Y-75686511D01*
X121394598Y-75732923D01*
X121343115Y-75767650D01*
X121291179Y-75801636D01*
X121283767Y-75807680D01*
X121208579Y-75869882D01*
X121164818Y-75913949D01*
X121120478Y-75957370D01*
X121114381Y-75964739D01*
X121052706Y-76040360D01*
X121018368Y-76092041D01*
X120983267Y-76143306D01*
X120978718Y-76151719D01*
X120932906Y-76237880D01*
X120909242Y-76295296D01*
X120884792Y-76352339D01*
X120881964Y-76361475D01*
X120853759Y-76454893D01*
X120841698Y-76515805D01*
X120828791Y-76576529D01*
X120827791Y-76586041D01*
X120818269Y-76683159D01*
X120818269Y-76683173D01*
X120815001Y-76716353D01*
X120815000Y-106283646D01*
X120817852Y-106312600D01*
X120817831Y-106315573D01*
X120818764Y-106325092D01*
X120823824Y-106373233D01*
X120824912Y-106384282D01*
X120825024Y-106384650D01*
X120828964Y-106422140D01*
X120841455Y-106482990D01*
X120853082Y-106543942D01*
X120855845Y-106553096D01*
X120855847Y-106553102D01*
X120884702Y-106646317D01*
X120908754Y-106703533D01*
X120932020Y-106761119D01*
X120936510Y-106769564D01*
X120982923Y-106855401D01*
X121017638Y-106906867D01*
X121051636Y-106958821D01*
X121057680Y-106966232D01*
X121119882Y-107041421D01*
X121163930Y-107085162D01*
X121207369Y-107129522D01*
X121214739Y-107135618D01*
X121214744Y-107135623D01*
X121214750Y-107135627D01*
X121290360Y-107197294D01*
X121342041Y-107231632D01*
X121393306Y-107266733D01*
X121401719Y-107271282D01*
X121487880Y-107317094D01*
X121545296Y-107340758D01*
X121602339Y-107365208D01*
X121611475Y-107368036D01*
X121704893Y-107396241D01*
X121765813Y-107408303D01*
X121826530Y-107421209D01*
X121836042Y-107422209D01*
X121933159Y-107431731D01*
X121933163Y-107431731D01*
X121966353Y-107435000D01*
X151533647Y-107435000D01*
X151562601Y-107432148D01*
X151565573Y-107432169D01*
X151575092Y-107431236D01*
X151623218Y-107426178D01*
X151634283Y-107425088D01*
X151634652Y-107424976D01*
X151672140Y-107421036D01*
X151732990Y-107408545D01*
X151793942Y-107396918D01*
X151803096Y-107394155D01*
X151803102Y-107394153D01*
X151896317Y-107365298D01*
X151953533Y-107341246D01*
X152011119Y-107317980D01*
X152019564Y-107313490D01*
X152105401Y-107267077D01*
X152156867Y-107232362D01*
X152208821Y-107198364D01*
X152216232Y-107192320D01*
X152291421Y-107130118D01*
X152335162Y-107086070D01*
X152379522Y-107042631D01*
X152385618Y-107035261D01*
X152385623Y-107035256D01*
X152385627Y-107035250D01*
X152447294Y-106959640D01*
X152481632Y-106907959D01*
X152516733Y-106856694D01*
X152521282Y-106848281D01*
X152567094Y-106762120D01*
X152590758Y-106704704D01*
X152615208Y-106647661D01*
X152618036Y-106638525D01*
X152646241Y-106545107D01*
X152658303Y-106484187D01*
X152671209Y-106423470D01*
X152672209Y-106413958D01*
X152681731Y-106316841D01*
X152681731Y-106316837D01*
X152685000Y-106283647D01*
X152685000Y-101640867D01*
X155355559Y-104311427D01*
X155381709Y-104343291D01*
X155498878Y-104439449D01*
X155508854Y-104447636D01*
X155653913Y-104525172D01*
X155811311Y-104572918D01*
X155974999Y-104589040D01*
X156016018Y-104585000D01*
X156062618Y-104585000D01*
X156097498Y-104627502D01*
X156247348Y-104750481D01*
X156183275Y-104793693D01*
X156011922Y-104966526D01*
X155877579Y-105169467D01*
X155785409Y-105394718D01*
X155781538Y-105432391D01*
X155906269Y-105623000D01*
X157123000Y-105623000D01*
X157123000Y-105603000D01*
X157377000Y-105603000D01*
X157377000Y-105623000D01*
X158593731Y-105623000D01*
X158718462Y-105432391D01*
X158714591Y-105394718D01*
X158622421Y-105169467D01*
X158488078Y-104966526D01*
X158316725Y-104793693D01*
X158252652Y-104750481D01*
X158402502Y-104627502D01*
X158556833Y-104439449D01*
X158671511Y-104224901D01*
X158742130Y-103992102D01*
X158765975Y-103750000D01*
X158742130Y-103507898D01*
X158671511Y-103275099D01*
X158556833Y-103060551D01*
X158402502Y-102872498D01*
X158253238Y-102750000D01*
X158402502Y-102627502D01*
X158556833Y-102439449D01*
X158671511Y-102224901D01*
X158742130Y-101992102D01*
X158765975Y-101750000D01*
X158742130Y-101507898D01*
X158671511Y-101275099D01*
X158556833Y-101060551D01*
X158402502Y-100872498D01*
X158214449Y-100718167D01*
X157999901Y-100603489D01*
X157767102Y-100532870D01*
X157585665Y-100515000D01*
X156914335Y-100515000D01*
X156732898Y-100532870D01*
X156500099Y-100603489D01*
X156285551Y-100718167D01*
X156210571Y-100779702D01*
X154335000Y-98904133D01*
X154335000Y-96817609D01*
X157031538Y-96817609D01*
X157035409Y-96855282D01*
X157127579Y-97080533D01*
X157261922Y-97283474D01*
X157433275Y-97456307D01*
X157635054Y-97592390D01*
X157859504Y-97686493D01*
X158098000Y-97735000D01*
X158373000Y-97735000D01*
X158373000Y-96627000D01*
X158627000Y-96627000D01*
X158627000Y-97735000D01*
X158902000Y-97735000D01*
X159140496Y-97686493D01*
X159364946Y-97592390D01*
X159566725Y-97456307D01*
X159738078Y-97283474D01*
X159872421Y-97080533D01*
X159964591Y-96855282D01*
X159968462Y-96817609D01*
X159843731Y-96627000D01*
X158627000Y-96627000D01*
X158373000Y-96627000D01*
X157156269Y-96627000D01*
X157031538Y-96817609D01*
X154335000Y-96817609D01*
X154335000Y-88751867D01*
X155218558Y-89635426D01*
X155244709Y-89667291D01*
X155371854Y-89771636D01*
X155516913Y-89849172D01*
X155674311Y-89896918D01*
X155796981Y-89909000D01*
X155796991Y-89909000D01*
X155837999Y-89913039D01*
X155879007Y-89909000D01*
X162115000Y-89909000D01*
X162115001Y-92075228D01*
X161997038Y-92172038D01*
X161886595Y-92306613D01*
X161804528Y-92460149D01*
X161753992Y-92626745D01*
X161736928Y-92799999D01*
X161736928Y-93632364D01*
X161697636Y-93558854D01*
X161624059Y-93469200D01*
X161619439Y-93463570D01*
X161619437Y-93463568D01*
X161593291Y-93431709D01*
X161561433Y-93405564D01*
X160094446Y-91938578D01*
X160068291Y-91906709D01*
X159941440Y-91802605D01*
X159863405Y-91656613D01*
X159752962Y-91522038D01*
X159618387Y-91411595D01*
X159464851Y-91329528D01*
X159298255Y-91278992D01*
X159125001Y-91261928D01*
X157874999Y-91261928D01*
X157701745Y-91278992D01*
X157535149Y-91329528D01*
X157381613Y-91411595D01*
X157247038Y-91522038D01*
X157136595Y-91656613D01*
X157054528Y-91810149D01*
X157003992Y-91976745D01*
X156986928Y-92149999D01*
X156986928Y-92850001D01*
X157003992Y-93023255D01*
X157054528Y-93189851D01*
X157136595Y-93343387D01*
X157247038Y-93477962D01*
X157381613Y-93588405D01*
X157386111Y-93590809D01*
X157347498Y-93622498D01*
X157193167Y-93810551D01*
X157078489Y-94025099D01*
X157007870Y-94257898D01*
X156984025Y-94500000D01*
X157007870Y-94742102D01*
X157078489Y-94974901D01*
X157193167Y-95189449D01*
X157347498Y-95377502D01*
X157497348Y-95500481D01*
X157433275Y-95543693D01*
X157261922Y-95716526D01*
X157127579Y-95919467D01*
X157035409Y-96144718D01*
X157031538Y-96182391D01*
X157156269Y-96373000D01*
X158373000Y-96373000D01*
X158373000Y-96353000D01*
X158627000Y-96353000D01*
X158627000Y-96373000D01*
X159843731Y-96373000D01*
X159968462Y-96182391D01*
X159964591Y-96144718D01*
X159872421Y-95919467D01*
X159738078Y-95716526D01*
X159566725Y-95543693D01*
X159502652Y-95500481D01*
X159652502Y-95377502D01*
X159806833Y-95189449D01*
X159921511Y-94974901D01*
X159992130Y-94742102D01*
X160015975Y-94500000D01*
X159992130Y-94257898D01*
X159966048Y-94171916D01*
X160165000Y-94370869D01*
X160165001Y-106154130D01*
X159404133Y-106915000D01*
X158617888Y-106915000D01*
X158613405Y-106906613D01*
X158502962Y-106772038D01*
X158368387Y-106661595D01*
X158363594Y-106659033D01*
X158488078Y-106533474D01*
X158622421Y-106330533D01*
X158714591Y-106105282D01*
X158718462Y-106067609D01*
X158593731Y-105877000D01*
X157377000Y-105877000D01*
X157377000Y-105897000D01*
X157123000Y-105897000D01*
X157123000Y-105877000D01*
X155906269Y-105877000D01*
X155781538Y-106067609D01*
X155785409Y-106105282D01*
X155877579Y-106330533D01*
X156011922Y-106533474D01*
X156136406Y-106659033D01*
X156131613Y-106661595D01*
X155997038Y-106772038D01*
X155886595Y-106906613D01*
X155804528Y-107060149D01*
X155753992Y-107226745D01*
X155736928Y-107399999D01*
X155736928Y-108100001D01*
X155753992Y-108273255D01*
X155804528Y-108439851D01*
X155886595Y-108593387D01*
X155997038Y-108727962D01*
X156115001Y-108824771D01*
X156115000Y-109529868D01*
X154779869Y-110865000D01*
X128108212Y-110865000D01*
X128089502Y-110803320D01*
X128030537Y-110693006D01*
X127951185Y-110596315D01*
X127854494Y-110516963D01*
X127744180Y-110457998D01*
X127624482Y-110421688D01*
X127500000Y-110409428D01*
X125500000Y-110409428D01*
X125375518Y-110421688D01*
X125255820Y-110457998D01*
X125145506Y-110516963D01*
X125048815Y-110596315D01*
X124969463Y-110693006D01*
X124910498Y-110803320D01*
X124891788Y-110865000D01*
X120840957Y-110865000D01*
X120830537Y-110845506D01*
X120751185Y-110748815D01*
X120654494Y-110669463D01*
X120544180Y-110610498D01*
X120424482Y-110574188D01*
X120300000Y-110561928D01*
X118700000Y-110561928D01*
X118575518Y-110574188D01*
X118455820Y-110610498D01*
X118345506Y-110669463D01*
X118248815Y-110748815D01*
X118169463Y-110845506D01*
X118162906Y-110857774D01*
X113385000Y-106079869D01*
X113385000Y-99324771D01*
X113502962Y-99227962D01*
X113613405Y-99093387D01*
X113695472Y-98939851D01*
X113746008Y-98773255D01*
X113763072Y-98600001D01*
X113763072Y-97899999D01*
X113746008Y-97726745D01*
X113695472Y-97560149D01*
X113613405Y-97406613D01*
X113502962Y-97272038D01*
X113368387Y-97161595D01*
X113363889Y-97159191D01*
X113402502Y-97127502D01*
X113437382Y-97085000D01*
X116958981Y-97085000D01*
X117000000Y-97089040D01*
X117041018Y-97085000D01*
X117041019Y-97085000D01*
X117163689Y-97072918D01*
X117321087Y-97025172D01*
X117466146Y-96947636D01*
X117593291Y-96843291D01*
X117697636Y-96716146D01*
X117775172Y-96571087D01*
X117822918Y-96413689D01*
X117839040Y-96250000D01*
X117835000Y-96208981D01*
X117835000Y-75169018D01*
X117839040Y-75128000D01*
X117833434Y-75071086D01*
X117822918Y-74964311D01*
X117775172Y-74806913D01*
X117697636Y-74661854D01*
X117656073Y-74611209D01*
X117619439Y-74566570D01*
X117619437Y-74566568D01*
X117593291Y-74534709D01*
X117561432Y-74508563D01*
X117068588Y-74015719D01*
X117082000Y-74017040D01*
X117123018Y-74013000D01*
X136294133Y-74013000D01*
X137404563Y-75123432D01*
G36*
X155618382Y-79836175D02*
G01*
X155927118Y-80042466D01*
X155985000Y-80066442D01*
X155985000Y-80362981D01*
X155980960Y-80404000D01*
X155985000Y-80445018D01*
X155997082Y-80567688D01*
X156044828Y-80725086D01*
X156122364Y-80870145D01*
X156226709Y-80997291D01*
X156258579Y-81023446D01*
X157696559Y-82461426D01*
X157722709Y-82493291D01*
X157849854Y-82597636D01*
X157994913Y-82675172D01*
X158152311Y-82722918D01*
X158274981Y-82735000D01*
X158274991Y-82735000D01*
X158315999Y-82739039D01*
X158357007Y-82735000D01*
X159825229Y-82735000D01*
X159922038Y-82852962D01*
X160056613Y-82963405D01*
X160210149Y-83045472D01*
X160376745Y-83096008D01*
X160549999Y-83113072D01*
X161450001Y-83113072D01*
X161623255Y-83096008D01*
X161789851Y-83045472D01*
X161943387Y-82963405D01*
X162077962Y-82852962D01*
X162174771Y-82735000D01*
X169430614Y-82735000D01*
X169556613Y-82838405D01*
X169710149Y-82920472D01*
X169876745Y-82971008D01*
X170049999Y-82988072D01*
X170950001Y-82988072D01*
X171123255Y-82971008D01*
X171289851Y-82920472D01*
X171443387Y-82838405D01*
X171577962Y-82727962D01*
X171688405Y-82593387D01*
X171761306Y-82457000D01*
X172018981Y-82457000D01*
X172060000Y-82461040D01*
X172101018Y-82457000D01*
X172101019Y-82457000D01*
X172203001Y-82446956D01*
X172203001Y-86829636D01*
X172104449Y-86709551D01*
X172061135Y-86674004D01*
X171623996Y-86236865D01*
X171588449Y-86193551D01*
X171415623Y-86051716D01*
X171218447Y-85946324D01*
X171004499Y-85881423D01*
X170837752Y-85865000D01*
X170837751Y-85865000D01*
X170782000Y-85859509D01*
X170726249Y-85865000D01*
X170646339Y-85865000D01*
X170588405Y-85756614D01*
X170477962Y-85622038D01*
X170343386Y-85511595D01*
X170189850Y-85429528D01*
X170023254Y-85378992D01*
X169850000Y-85361928D01*
X168650000Y-85361928D01*
X168476746Y-85378992D01*
X168310150Y-85429528D01*
X168156614Y-85511595D01*
X168022038Y-85622038D01*
X167911595Y-85756614D01*
X167857223Y-85858337D01*
X167805134Y-85794866D01*
X167579014Y-85609294D01*
X167321034Y-85471401D01*
X167041111Y-85386487D01*
X166750000Y-85357815D01*
X166458890Y-85386487D01*
X166178967Y-85471401D01*
X165920987Y-85609294D01*
X165694866Y-85794866D01*
X165509294Y-86020986D01*
X165371401Y-86278966D01*
X165286487Y-86558889D01*
X165265000Y-86777050D01*
X165265000Y-87222949D01*
X165286487Y-87441110D01*
X165371401Y-87721033D01*
X165509294Y-87979013D01*
X165694866Y-88205134D01*
X165912557Y-88383788D01*
X165910960Y-88400000D01*
X165927082Y-88563688D01*
X165974828Y-88721086D01*
X166052364Y-88866145D01*
X166052365Y-88866146D01*
X166156710Y-88993291D01*
X166188574Y-89019441D01*
X167230563Y-90061432D01*
X167256709Y-90093291D01*
X167288568Y-90119437D01*
X167288570Y-90119439D01*
X167383854Y-90197636D01*
X167528913Y-90275172D01*
X167686311Y-90322918D01*
X167850000Y-90339040D01*
X167891018Y-90335000D01*
X168154132Y-90335000D01*
X168306364Y-90487232D01*
X168218264Y-90440509D01*
X168098449Y-90404588D01*
X167973928Y-90392731D01*
X167601350Y-90395800D01*
X167442600Y-90554550D01*
X167442600Y-91183200D01*
X168452250Y-91183200D01*
X168611000Y-91024450D01*
X168601404Y-90904287D01*
X168564706Y-90784708D01*
X168519007Y-90699875D01*
X168665000Y-90845869D01*
X168665000Y-91359991D01*
X168595420Y-91381098D01*
X168485106Y-91440063D01*
X168468632Y-91453582D01*
X168452250Y-91437200D01*
X167442600Y-91437200D01*
X167442600Y-92065850D01*
X167601350Y-92224600D01*
X167973928Y-92227669D01*
X168098449Y-92215812D01*
X168201528Y-92184909D01*
X168201528Y-92315240D01*
X168100482Y-92284588D01*
X167976000Y-92272328D01*
X166655200Y-92272328D01*
X166530718Y-92284588D01*
X166411020Y-92320898D01*
X166300706Y-92379863D01*
X166257891Y-92415000D01*
X166121339Y-92415000D01*
X166063405Y-92306613D01*
X165952962Y-92172038D01*
X165818387Y-92061595D01*
X165664851Y-91979528D01*
X165498255Y-91928992D01*
X165325001Y-91911928D01*
X164674999Y-91911928D01*
X164501745Y-91928992D01*
X164335149Y-91979528D01*
X164181613Y-92061595D01*
X164047038Y-92172038D01*
X163975000Y-92259816D01*
X163902962Y-92172038D01*
X163785000Y-92075229D01*
X163785000Y-91595950D01*
X166020200Y-91595950D01*
X166029796Y-91716113D01*
X166066494Y-91835692D01*
X166125816Y-91945814D01*
X166205482Y-92042248D01*
X166302431Y-92121286D01*
X166412936Y-92179891D01*
X166532751Y-92215812D01*
X166657272Y-92227669D01*
X167029850Y-92224600D01*
X167188600Y-92065850D01*
X167188600Y-91437200D01*
X166178950Y-91437200D01*
X166020200Y-91595950D01*
X163785000Y-91595950D01*
X163785000Y-91024450D01*
X166020200Y-91024450D01*
X166178950Y-91183200D01*
X167188600Y-91183200D01*
X167188600Y-90554550D01*
X167029850Y-90395800D01*
X166657272Y-90392731D01*
X166532751Y-90404588D01*
X166412936Y-90440509D01*
X166302431Y-90499114D01*
X166205482Y-90578152D01*
X166125816Y-90674586D01*
X166066494Y-90784708D01*
X166029796Y-90904287D01*
X166020200Y-91024450D01*
X163785000Y-91024450D01*
X163785000Y-89115019D01*
X163789040Y-89074000D01*
X163772918Y-88910311D01*
X163725172Y-88752913D01*
X163647636Y-88607854D01*
X163543291Y-88480709D01*
X163416146Y-88376364D01*
X163271087Y-88298828D01*
X163113689Y-88251082D01*
X162991019Y-88239000D01*
X162991018Y-88239000D01*
X162950000Y-88234960D01*
X162908981Y-88239000D01*
X156183868Y-88239000D01*
X155369000Y-87424133D01*
X155369000Y-79586793D01*
X155618382Y-79836175D01*
G37*
X155618382Y-79836175D02*
X155927118Y-80042466D01*
X155985000Y-80066442D01*
X155985000Y-80362981D01*
X155980960Y-80404000D01*
X155985000Y-80445018D01*
X155997082Y-80567688D01*
X156044828Y-80725086D01*
X156122364Y-80870145D01*
X156226709Y-80997291D01*
X156258579Y-81023446D01*
X157696559Y-82461426D01*
X157722709Y-82493291D01*
X157849854Y-82597636D01*
X157994913Y-82675172D01*
X158152311Y-82722918D01*
X158274981Y-82735000D01*
X158274991Y-82735000D01*
X158315999Y-82739039D01*
X158357007Y-82735000D01*
X159825229Y-82735000D01*
X159922038Y-82852962D01*
X160056613Y-82963405D01*
X160210149Y-83045472D01*
X160376745Y-83096008D01*
X160549999Y-83113072D01*
X161450001Y-83113072D01*
X161623255Y-83096008D01*
X161789851Y-83045472D01*
X161943387Y-82963405D01*
X162077962Y-82852962D01*
X162174771Y-82735000D01*
X169430614Y-82735000D01*
X169556613Y-82838405D01*
X169710149Y-82920472D01*
X169876745Y-82971008D01*
X170049999Y-82988072D01*
X170950001Y-82988072D01*
X171123255Y-82971008D01*
X171289851Y-82920472D01*
X171443387Y-82838405D01*
X171577962Y-82727962D01*
X171688405Y-82593387D01*
X171761306Y-82457000D01*
X172018981Y-82457000D01*
X172060000Y-82461040D01*
X172101018Y-82457000D01*
X172101019Y-82457000D01*
X172203001Y-82446956D01*
X172203001Y-86829636D01*
X172104449Y-86709551D01*
X172061135Y-86674004D01*
X171623996Y-86236865D01*
X171588449Y-86193551D01*
X171415623Y-86051716D01*
X171218447Y-85946324D01*
X171004499Y-85881423D01*
X170837752Y-85865000D01*
X170837751Y-85865000D01*
X170782000Y-85859509D01*
X170726249Y-85865000D01*
X170646339Y-85865000D01*
X170588405Y-85756614D01*
X170477962Y-85622038D01*
X170343386Y-85511595D01*
X170189850Y-85429528D01*
X170023254Y-85378992D01*
X169850000Y-85361928D01*
X168650000Y-85361928D01*
X168476746Y-85378992D01*
X168310150Y-85429528D01*
X168156614Y-85511595D01*
X168022038Y-85622038D01*
X167911595Y-85756614D01*
X167857223Y-85858337D01*
X167805134Y-85794866D01*
X167579014Y-85609294D01*
X167321034Y-85471401D01*
X167041111Y-85386487D01*
X166750000Y-85357815D01*
X166458890Y-85386487D01*
X166178967Y-85471401D01*
X165920987Y-85609294D01*
X165694866Y-85794866D01*
X165509294Y-86020986D01*
X165371401Y-86278966D01*
X165286487Y-86558889D01*
X165265000Y-86777050D01*
X165265000Y-87222949D01*
X165286487Y-87441110D01*
X165371401Y-87721033D01*
X165509294Y-87979013D01*
X165694866Y-88205134D01*
X165912557Y-88383788D01*
X165910960Y-88400000D01*
X165927082Y-88563688D01*
X165974828Y-88721086D01*
X166052364Y-88866145D01*
X166052365Y-88866146D01*
X166156710Y-88993291D01*
X166188574Y-89019441D01*
X167230563Y-90061432D01*
X167256709Y-90093291D01*
X167288568Y-90119437D01*
X167288570Y-90119439D01*
X167383854Y-90197636D01*
X167528913Y-90275172D01*
X167686311Y-90322918D01*
X167850000Y-90339040D01*
X167891018Y-90335000D01*
X168154132Y-90335000D01*
X168306364Y-90487232D01*
X168218264Y-90440509D01*
X168098449Y-90404588D01*
X167973928Y-90392731D01*
X167601350Y-90395800D01*
X167442600Y-90554550D01*
X167442600Y-91183200D01*
X168452250Y-91183200D01*
X168611000Y-91024450D01*
X168601404Y-90904287D01*
X168564706Y-90784708D01*
X168519007Y-90699875D01*
X168665000Y-90845869D01*
X168665000Y-91359991D01*
X168595420Y-91381098D01*
X168485106Y-91440063D01*
X168468632Y-91453582D01*
X168452250Y-91437200D01*
X167442600Y-91437200D01*
X167442600Y-92065850D01*
X167601350Y-92224600D01*
X167973928Y-92227669D01*
X168098449Y-92215812D01*
X168201528Y-92184909D01*
X168201528Y-92315240D01*
X168100482Y-92284588D01*
X167976000Y-92272328D01*
X166655200Y-92272328D01*
X166530718Y-92284588D01*
X166411020Y-92320898D01*
X166300706Y-92379863D01*
X166257891Y-92415000D01*
X166121339Y-92415000D01*
X166063405Y-92306613D01*
X165952962Y-92172038D01*
X165818387Y-92061595D01*
X165664851Y-91979528D01*
X165498255Y-91928992D01*
X165325001Y-91911928D01*
X164674999Y-91911928D01*
X164501745Y-91928992D01*
X164335149Y-91979528D01*
X164181613Y-92061595D01*
X164047038Y-92172038D01*
X163975000Y-92259816D01*
X163902962Y-92172038D01*
X163785000Y-92075229D01*
X163785000Y-91595950D01*
X166020200Y-91595950D01*
X166029796Y-91716113D01*
X166066494Y-91835692D01*
X166125816Y-91945814D01*
X166205482Y-92042248D01*
X166302431Y-92121286D01*
X166412936Y-92179891D01*
X166532751Y-92215812D01*
X166657272Y-92227669D01*
X167029850Y-92224600D01*
X167188600Y-92065850D01*
X167188600Y-91437200D01*
X166178950Y-91437200D01*
X166020200Y-91595950D01*
X163785000Y-91595950D01*
X163785000Y-91024450D01*
X166020200Y-91024450D01*
X166178950Y-91183200D01*
X167188600Y-91183200D01*
X167188600Y-90554550D01*
X167029850Y-90395800D01*
X166657272Y-90392731D01*
X166532751Y-90404588D01*
X166412936Y-90440509D01*
X166302431Y-90499114D01*
X166205482Y-90578152D01*
X166125816Y-90674586D01*
X166066494Y-90784708D01*
X166029796Y-90904287D01*
X166020200Y-91024450D01*
X163785000Y-91024450D01*
X163785000Y-89115019D01*
X163789040Y-89074000D01*
X163772918Y-88910311D01*
X163725172Y-88752913D01*
X163647636Y-88607854D01*
X163543291Y-88480709D01*
X163416146Y-88376364D01*
X163271087Y-88298828D01*
X163113689Y-88251082D01*
X162991019Y-88239000D01*
X162991018Y-88239000D01*
X162950000Y-88234960D01*
X162908981Y-88239000D01*
X156183868Y-88239000D01*
X155369000Y-87424133D01*
X155369000Y-79586793D01*
X155618382Y-79836175D01*
G36*
X171225001Y-65509869D02*
G01*
X171225001Y-68658174D01*
X171209085Y-68619750D01*
X170991851Y-68294636D01*
X170715364Y-68018149D01*
X170390250Y-67800915D01*
X170029003Y-67651282D01*
X169645505Y-67575000D01*
X169254495Y-67575000D01*
X168870997Y-67651282D01*
X168509750Y-67800915D01*
X168184636Y-68018149D01*
X167908149Y-68294636D01*
X167690915Y-68619750D01*
X167541282Y-68980997D01*
X167465000Y-69364495D01*
X167465000Y-69755505D01*
X167541282Y-70139003D01*
X167690915Y-70500250D01*
X167908149Y-70825364D01*
X168184636Y-71101851D01*
X168509750Y-71319085D01*
X168870997Y-71468718D01*
X169254495Y-71545000D01*
X169645505Y-71545000D01*
X170029003Y-71468718D01*
X170390250Y-71319085D01*
X170715364Y-71101851D01*
X170991851Y-70825364D01*
X171209085Y-70500250D01*
X171225001Y-70461826D01*
X171225000Y-74716300D01*
X171127502Y-74597498D01*
X170939448Y-74443167D01*
X170724900Y-74328489D01*
X170492101Y-74257870D01*
X170250000Y-74234025D01*
X170007898Y-74257870D01*
X169775099Y-74328489D01*
X169560551Y-74443167D01*
X169372498Y-74597498D01*
X169340809Y-74636111D01*
X169338405Y-74631613D01*
X169227962Y-74497038D01*
X169093387Y-74386595D01*
X168939851Y-74304528D01*
X168773255Y-74253992D01*
X168600001Y-74236928D01*
X167899999Y-74236928D01*
X167726745Y-74253992D01*
X167560149Y-74304528D01*
X167406613Y-74386595D01*
X167272038Y-74497038D01*
X167161595Y-74631613D01*
X167113138Y-74722270D01*
X164705867Y-72315000D01*
X164707002Y-72315000D01*
X164707002Y-72150156D01*
X164936890Y-72271476D01*
X165084099Y-72226825D01*
X165346920Y-72101641D01*
X165580269Y-71927588D01*
X165775178Y-71711355D01*
X165924157Y-71461252D01*
X166021481Y-71186891D01*
X165900814Y-70957000D01*
X164707000Y-70957000D01*
X164707000Y-70977000D01*
X164453000Y-70977000D01*
X164453000Y-70957000D01*
X164433000Y-70957000D01*
X164433000Y-70703000D01*
X164453000Y-70703000D01*
X164453000Y-70683000D01*
X164707000Y-70683000D01*
X164707000Y-70703000D01*
X165900814Y-70703000D01*
X166021481Y-70473109D01*
X165924157Y-70198748D01*
X165775178Y-69948645D01*
X165580269Y-69732412D01*
X165350594Y-69561100D01*
X165526632Y-69443475D01*
X165733475Y-69236632D01*
X165895990Y-68993411D01*
X166007932Y-68723158D01*
X166065000Y-68436260D01*
X166065000Y-68143740D01*
X166007932Y-67856842D01*
X165895990Y-67586589D01*
X165733475Y-67343368D01*
X165526632Y-67136525D01*
X165283411Y-66974010D01*
X165013158Y-66862068D01*
X164726260Y-66805000D01*
X164433740Y-66805000D01*
X164146842Y-66862068D01*
X163876589Y-66974010D01*
X163633368Y-67136525D01*
X163426525Y-67343368D01*
X163310000Y-67517760D01*
X163193475Y-67343368D01*
X162986632Y-67136525D01*
X162743411Y-66974010D01*
X162473158Y-66862068D01*
X162186260Y-66805000D01*
X161893740Y-66805000D01*
X161606842Y-66862068D01*
X161336589Y-66974010D01*
X161093368Y-67136525D01*
X160886525Y-67343368D01*
X160770000Y-67517760D01*
X160653475Y-67343368D01*
X160446632Y-67136525D01*
X160203411Y-66974010D01*
X159933158Y-66862068D01*
X159646260Y-66805000D01*
X159353740Y-66805000D01*
X159066842Y-66862068D01*
X158796589Y-66974010D01*
X158553368Y-67136525D01*
X158346525Y-67343368D01*
X158224805Y-67525534D01*
X158155178Y-67408645D01*
X157960269Y-67192412D01*
X157726920Y-67018359D01*
X157464099Y-66893175D01*
X157316890Y-66848524D01*
X157087000Y-66969845D01*
X157087000Y-68163000D01*
X157107000Y-68163000D01*
X157107000Y-68417000D01*
X157087000Y-68417000D01*
X157087000Y-68437000D01*
X156833000Y-68437000D01*
X156833000Y-68417000D01*
X156813000Y-68417000D01*
X156813000Y-68163000D01*
X156833000Y-68163000D01*
X156833000Y-66969845D01*
X156603110Y-66848524D01*
X156455901Y-66893175D01*
X156193080Y-67018359D01*
X155959731Y-67192412D01*
X155764822Y-67408645D01*
X155695195Y-67525534D01*
X155573475Y-67343368D01*
X155366632Y-67136525D01*
X155123411Y-66974010D01*
X154853158Y-66862068D01*
X154566260Y-66805000D01*
X154273740Y-66805000D01*
X153986842Y-66862068D01*
X153716589Y-66974010D01*
X153473368Y-67136525D01*
X153266525Y-67343368D01*
X153144805Y-67525534D01*
X153075178Y-67408645D01*
X152880269Y-67192412D01*
X152646920Y-67018359D01*
X152384099Y-66893175D01*
X152236890Y-66848524D01*
X152007000Y-66969845D01*
X152007000Y-68163000D01*
X152027000Y-68163000D01*
X152027000Y-68417000D01*
X152007000Y-68417000D01*
X152007000Y-68437000D01*
X151753000Y-68437000D01*
X151753000Y-68417000D01*
X151733000Y-68417000D01*
X151733000Y-68163000D01*
X151753000Y-68163000D01*
X151753000Y-66969845D01*
X151523110Y-66848524D01*
X151375901Y-66893175D01*
X151113080Y-67018359D01*
X150879731Y-67192412D01*
X150684822Y-67408645D01*
X150615195Y-67525534D01*
X150493475Y-67343368D01*
X150286632Y-67136525D01*
X150043411Y-66974010D01*
X149773158Y-66862068D01*
X149486260Y-66805000D01*
X149193740Y-66805000D01*
X148906842Y-66862068D01*
X148636589Y-66974010D01*
X148393368Y-67136525D01*
X148186525Y-67343368D01*
X148070000Y-67517760D01*
X147953475Y-67343368D01*
X147746632Y-67136525D01*
X147503411Y-66974010D01*
X147233158Y-66862068D01*
X146946260Y-66805000D01*
X146653740Y-66805000D01*
X146366842Y-66862068D01*
X146096589Y-66974010D01*
X145853368Y-67136525D01*
X145646525Y-67343368D01*
X145530000Y-67517760D01*
X145413475Y-67343368D01*
X145206632Y-67136525D01*
X144963411Y-66974010D01*
X144693158Y-66862068D01*
X144406260Y-66805000D01*
X144113740Y-66805000D01*
X143826842Y-66862068D01*
X143556589Y-66974010D01*
X143313368Y-67136525D01*
X143106525Y-67343368D01*
X142990000Y-67517760D01*
X142873475Y-67343368D01*
X142666632Y-67136525D01*
X142423411Y-66974010D01*
X142153158Y-66862068D01*
X141866260Y-66805000D01*
X141573740Y-66805000D01*
X141286842Y-66862068D01*
X141016589Y-66974010D01*
X140773368Y-67136525D01*
X140566525Y-67343368D01*
X140444805Y-67525534D01*
X140375178Y-67408645D01*
X140180269Y-67192412D01*
X139946920Y-67018359D01*
X139684099Y-66893175D01*
X139536890Y-66848524D01*
X139307000Y-66969845D01*
X139307000Y-68163000D01*
X139327000Y-68163000D01*
X139327000Y-68417000D01*
X139307000Y-68417000D01*
X139307000Y-68437000D01*
X139053000Y-68437000D01*
X139053000Y-68417000D01*
X139033000Y-68417000D01*
X139033000Y-68163000D01*
X139053000Y-68163000D01*
X139053000Y-66969845D01*
X138823110Y-66848524D01*
X138675901Y-66893175D01*
X138413080Y-67018359D01*
X138179731Y-67192412D01*
X137984822Y-67408645D01*
X137915195Y-67525534D01*
X137793475Y-67343368D01*
X137586632Y-67136525D01*
X137343411Y-66974010D01*
X137085000Y-66866973D01*
X137085000Y-64937382D01*
X137127502Y-64902502D01*
X137159191Y-64863889D01*
X137161595Y-64868387D01*
X137272038Y-65002962D01*
X137406613Y-65113405D01*
X137560149Y-65195472D01*
X137726745Y-65246008D01*
X137899999Y-65263072D01*
X138600001Y-65263072D01*
X138773255Y-65246008D01*
X138939851Y-65195472D01*
X139093387Y-65113405D01*
X139227962Y-65002962D01*
X139338405Y-64868387D01*
X139420472Y-64714851D01*
X139459862Y-64585000D01*
X170300133Y-64585000D01*
X171225001Y-65509869D01*
G37*
X171225001Y-65509869D02*
X171225001Y-68658174D01*
X171209085Y-68619750D01*
X170991851Y-68294636D01*
X170715364Y-68018149D01*
X170390250Y-67800915D01*
X170029003Y-67651282D01*
X169645505Y-67575000D01*
X169254495Y-67575000D01*
X168870997Y-67651282D01*
X168509750Y-67800915D01*
X168184636Y-68018149D01*
X167908149Y-68294636D01*
X167690915Y-68619750D01*
X167541282Y-68980997D01*
X167465000Y-69364495D01*
X167465000Y-69755505D01*
X167541282Y-70139003D01*
X167690915Y-70500250D01*
X167908149Y-70825364D01*
X168184636Y-71101851D01*
X168509750Y-71319085D01*
X168870997Y-71468718D01*
X169254495Y-71545000D01*
X169645505Y-71545000D01*
X170029003Y-71468718D01*
X170390250Y-71319085D01*
X170715364Y-71101851D01*
X170991851Y-70825364D01*
X171209085Y-70500250D01*
X171225001Y-70461826D01*
X171225000Y-74716300D01*
X171127502Y-74597498D01*
X170939448Y-74443167D01*
X170724900Y-74328489D01*
X170492101Y-74257870D01*
X170250000Y-74234025D01*
X170007898Y-74257870D01*
X169775099Y-74328489D01*
X169560551Y-74443167D01*
X169372498Y-74597498D01*
X169340809Y-74636111D01*
X169338405Y-74631613D01*
X169227962Y-74497038D01*
X169093387Y-74386595D01*
X168939851Y-74304528D01*
X168773255Y-74253992D01*
X168600001Y-74236928D01*
X167899999Y-74236928D01*
X167726745Y-74253992D01*
X167560149Y-74304528D01*
X167406613Y-74386595D01*
X167272038Y-74497038D01*
X167161595Y-74631613D01*
X167113138Y-74722270D01*
X164705867Y-72315000D01*
X164707002Y-72315000D01*
X164707002Y-72150156D01*
X164936890Y-72271476D01*
X165084099Y-72226825D01*
X165346920Y-72101641D01*
X165580269Y-71927588D01*
X165775178Y-71711355D01*
X165924157Y-71461252D01*
X166021481Y-71186891D01*
X165900814Y-70957000D01*
X164707000Y-70957000D01*
X164707000Y-70977000D01*
X164453000Y-70977000D01*
X164453000Y-70957000D01*
X164433000Y-70957000D01*
X164433000Y-70703000D01*
X164453000Y-70703000D01*
X164453000Y-70683000D01*
X164707000Y-70683000D01*
X164707000Y-70703000D01*
X165900814Y-70703000D01*
X166021481Y-70473109D01*
X165924157Y-70198748D01*
X165775178Y-69948645D01*
X165580269Y-69732412D01*
X165350594Y-69561100D01*
X165526632Y-69443475D01*
X165733475Y-69236632D01*
X165895990Y-68993411D01*
X166007932Y-68723158D01*
X166065000Y-68436260D01*
X166065000Y-68143740D01*
X166007932Y-67856842D01*
X165895990Y-67586589D01*
X165733475Y-67343368D01*
X165526632Y-67136525D01*
X165283411Y-66974010D01*
X165013158Y-66862068D01*
X164726260Y-66805000D01*
X164433740Y-66805000D01*
X164146842Y-66862068D01*
X163876589Y-66974010D01*
X163633368Y-67136525D01*
X163426525Y-67343368D01*
X163310000Y-67517760D01*
X163193475Y-67343368D01*
X162986632Y-67136525D01*
X162743411Y-66974010D01*
X162473158Y-66862068D01*
X162186260Y-66805000D01*
X161893740Y-66805000D01*
X161606842Y-66862068D01*
X161336589Y-66974010D01*
X161093368Y-67136525D01*
X160886525Y-67343368D01*
X160770000Y-67517760D01*
X160653475Y-67343368D01*
X160446632Y-67136525D01*
X160203411Y-66974010D01*
X159933158Y-66862068D01*
X159646260Y-66805000D01*
X159353740Y-66805000D01*
X159066842Y-66862068D01*
X158796589Y-66974010D01*
X158553368Y-67136525D01*
X158346525Y-67343368D01*
X158224805Y-67525534D01*
X158155178Y-67408645D01*
X157960269Y-67192412D01*
X157726920Y-67018359D01*
X157464099Y-66893175D01*
X157316890Y-66848524D01*
X157087000Y-66969845D01*
X157087000Y-68163000D01*
X157107000Y-68163000D01*
X157107000Y-68417000D01*
X157087000Y-68417000D01*
X157087000Y-68437000D01*
X156833000Y-68437000D01*
X156833000Y-68417000D01*
X156813000Y-68417000D01*
X156813000Y-68163000D01*
X156833000Y-68163000D01*
X156833000Y-66969845D01*
X156603110Y-66848524D01*
X156455901Y-66893175D01*
X156193080Y-67018359D01*
X155959731Y-67192412D01*
X155764822Y-67408645D01*
X155695195Y-67525534D01*
X155573475Y-67343368D01*
X155366632Y-67136525D01*
X155123411Y-66974010D01*
X154853158Y-66862068D01*
X154566260Y-66805000D01*
X154273740Y-66805000D01*
X153986842Y-66862068D01*
X153716589Y-66974010D01*
X153473368Y-67136525D01*
X153266525Y-67343368D01*
X153144805Y-67525534D01*
X153075178Y-67408645D01*
X152880269Y-67192412D01*
X152646920Y-67018359D01*
X152384099Y-66893175D01*
X152236890Y-66848524D01*
X152007000Y-66969845D01*
X152007000Y-68163000D01*
X152027000Y-68163000D01*
X152027000Y-68417000D01*
X152007000Y-68417000D01*
X152007000Y-68437000D01*
X151753000Y-68437000D01*
X151753000Y-68417000D01*
X151733000Y-68417000D01*
X151733000Y-68163000D01*
X151753000Y-68163000D01*
X151753000Y-66969845D01*
X151523110Y-66848524D01*
X151375901Y-66893175D01*
X151113080Y-67018359D01*
X150879731Y-67192412D01*
X150684822Y-67408645D01*
X150615195Y-67525534D01*
X150493475Y-67343368D01*
X150286632Y-67136525D01*
X150043411Y-66974010D01*
X149773158Y-66862068D01*
X149486260Y-66805000D01*
X149193740Y-66805000D01*
X148906842Y-66862068D01*
X148636589Y-66974010D01*
X148393368Y-67136525D01*
X148186525Y-67343368D01*
X148070000Y-67517760D01*
X147953475Y-67343368D01*
X147746632Y-67136525D01*
X147503411Y-66974010D01*
X147233158Y-66862068D01*
X146946260Y-66805000D01*
X146653740Y-66805000D01*
X146366842Y-66862068D01*
X146096589Y-66974010D01*
X145853368Y-67136525D01*
X145646525Y-67343368D01*
X145530000Y-67517760D01*
X145413475Y-67343368D01*
X145206632Y-67136525D01*
X144963411Y-66974010D01*
X144693158Y-66862068D01*
X144406260Y-66805000D01*
X144113740Y-66805000D01*
X143826842Y-66862068D01*
X143556589Y-66974010D01*
X143313368Y-67136525D01*
X143106525Y-67343368D01*
X142990000Y-67517760D01*
X142873475Y-67343368D01*
X142666632Y-67136525D01*
X142423411Y-66974010D01*
X142153158Y-66862068D01*
X141866260Y-66805000D01*
X141573740Y-66805000D01*
X141286842Y-66862068D01*
X141016589Y-66974010D01*
X140773368Y-67136525D01*
X140566525Y-67343368D01*
X140444805Y-67525534D01*
X140375178Y-67408645D01*
X140180269Y-67192412D01*
X139946920Y-67018359D01*
X139684099Y-66893175D01*
X139536890Y-66848524D01*
X139307000Y-66969845D01*
X139307000Y-68163000D01*
X139327000Y-68163000D01*
X139327000Y-68417000D01*
X139307000Y-68417000D01*
X139307000Y-68437000D01*
X139053000Y-68437000D01*
X139053000Y-68417000D01*
X139033000Y-68417000D01*
X139033000Y-68163000D01*
X139053000Y-68163000D01*
X139053000Y-66969845D01*
X138823110Y-66848524D01*
X138675901Y-66893175D01*
X138413080Y-67018359D01*
X138179731Y-67192412D01*
X137984822Y-67408645D01*
X137915195Y-67525534D01*
X137793475Y-67343368D01*
X137586632Y-67136525D01*
X137343411Y-66974010D01*
X137085000Y-66866973D01*
X137085000Y-64937382D01*
X137127502Y-64902502D01*
X137159191Y-64863889D01*
X137161595Y-64868387D01*
X137272038Y-65002962D01*
X137406613Y-65113405D01*
X137560149Y-65195472D01*
X137726745Y-65246008D01*
X137899999Y-65263072D01*
X138600001Y-65263072D01*
X138773255Y-65246008D01*
X138939851Y-65195472D01*
X139093387Y-65113405D01*
X139227962Y-65002962D01*
X139338405Y-64868387D01*
X139420472Y-64714851D01*
X139459862Y-64585000D01*
X170300133Y-64585000D01*
X171225001Y-65509869D01*
G36*
X146927000Y-70703000D02*
G01*
X146947000Y-70703000D01*
X146947000Y-70957000D01*
X146927000Y-70957000D01*
X146927000Y-72150155D01*
X147156890Y-72271476D01*
X147304099Y-72226825D01*
X147566920Y-72101641D01*
X147800269Y-71927588D01*
X147995178Y-71711355D01*
X148064805Y-71594466D01*
X148186525Y-71776632D01*
X148393368Y-71983475D01*
X148636589Y-72145990D01*
X148906842Y-72257932D01*
X149193740Y-72315000D01*
X149486260Y-72315000D01*
X149773158Y-72257932D01*
X150043411Y-72145990D01*
X150286632Y-71983475D01*
X150493475Y-71776632D01*
X150610000Y-71602240D01*
X150726525Y-71776632D01*
X150933368Y-71983475D01*
X151045001Y-72058066D01*
X151045000Y-73233207D01*
X150909618Y-73097825D01*
X150600882Y-72891534D01*
X150257834Y-72749439D01*
X149893656Y-72677000D01*
X149522344Y-72677000D01*
X149158166Y-72749439D01*
X148815118Y-72891534D01*
X148506382Y-73097825D01*
X148243825Y-73360382D01*
X148037534Y-73669118D01*
X148013559Y-73727000D01*
X138369869Y-73727000D01*
X137475000Y-72832133D01*
X137475000Y-72058065D01*
X137586632Y-71983475D01*
X137793475Y-71776632D01*
X137910000Y-71602240D01*
X138026525Y-71776632D01*
X138233368Y-71983475D01*
X138476589Y-72145990D01*
X138746842Y-72257932D01*
X139033740Y-72315000D01*
X139326260Y-72315000D01*
X139613158Y-72257932D01*
X139883411Y-72145990D01*
X140126632Y-71983475D01*
X140333475Y-71776632D01*
X140450000Y-71602240D01*
X140566525Y-71776632D01*
X140773368Y-71983475D01*
X141016589Y-72145990D01*
X141286842Y-72257932D01*
X141573740Y-72315000D01*
X141866260Y-72315000D01*
X142153158Y-72257932D01*
X142423411Y-72145990D01*
X142666632Y-71983475D01*
X142873475Y-71776632D01*
X142990000Y-71602240D01*
X143106525Y-71776632D01*
X143313368Y-71983475D01*
X143556589Y-72145990D01*
X143826842Y-72257932D01*
X144113740Y-72315000D01*
X144406260Y-72315000D01*
X144693158Y-72257932D01*
X144963411Y-72145990D01*
X145206632Y-71983475D01*
X145413475Y-71776632D01*
X145535195Y-71594466D01*
X145604822Y-71711355D01*
X145799731Y-71927588D01*
X146033080Y-72101641D01*
X146295901Y-72226825D01*
X146443110Y-72271476D01*
X146673000Y-72150155D01*
X146673000Y-70957000D01*
X146653000Y-70957000D01*
X146653000Y-70703000D01*
X146673000Y-70703000D01*
X146673000Y-70683000D01*
X146927000Y-70683000D01*
X146927000Y-70703000D01*
G37*
X146927000Y-70703000D02*
X146947000Y-70703000D01*
X146947000Y-70957000D01*
X146927000Y-70957000D01*
X146927000Y-72150155D01*
X147156890Y-72271476D01*
X147304099Y-72226825D01*
X147566920Y-72101641D01*
X147800269Y-71927588D01*
X147995178Y-71711355D01*
X148064805Y-71594466D01*
X148186525Y-71776632D01*
X148393368Y-71983475D01*
X148636589Y-72145990D01*
X148906842Y-72257932D01*
X149193740Y-72315000D01*
X149486260Y-72315000D01*
X149773158Y-72257932D01*
X150043411Y-72145990D01*
X150286632Y-71983475D01*
X150493475Y-71776632D01*
X150610000Y-71602240D01*
X150726525Y-71776632D01*
X150933368Y-71983475D01*
X151045001Y-72058066D01*
X151045000Y-73233207D01*
X150909618Y-73097825D01*
X150600882Y-72891534D01*
X150257834Y-72749439D01*
X149893656Y-72677000D01*
X149522344Y-72677000D01*
X149158166Y-72749439D01*
X148815118Y-72891534D01*
X148506382Y-73097825D01*
X148243825Y-73360382D01*
X148037534Y-73669118D01*
X148013559Y-73727000D01*
X138369869Y-73727000D01*
X137475000Y-72832133D01*
X137475000Y-72058065D01*
X137586632Y-71983475D01*
X137793475Y-71776632D01*
X137910000Y-71602240D01*
X138026525Y-71776632D01*
X138233368Y-71983475D01*
X138476589Y-72145990D01*
X138746842Y-72257932D01*
X139033740Y-72315000D01*
X139326260Y-72315000D01*
X139613158Y-72257932D01*
X139883411Y-72145990D01*
X140126632Y-71983475D01*
X140333475Y-71776632D01*
X140450000Y-71602240D01*
X140566525Y-71776632D01*
X140773368Y-71983475D01*
X141016589Y-72145990D01*
X141286842Y-72257932D01*
X141573740Y-72315000D01*
X141866260Y-72315000D01*
X142153158Y-72257932D01*
X142423411Y-72145990D01*
X142666632Y-71983475D01*
X142873475Y-71776632D01*
X142990000Y-71602240D01*
X143106525Y-71776632D01*
X143313368Y-71983475D01*
X143556589Y-72145990D01*
X143826842Y-72257932D01*
X144113740Y-72315000D01*
X144406260Y-72315000D01*
X144693158Y-72257932D01*
X144963411Y-72145990D01*
X145206632Y-71983475D01*
X145413475Y-71776632D01*
X145535195Y-71594466D01*
X145604822Y-71711355D01*
X145799731Y-71927588D01*
X146033080Y-72101641D01*
X146295901Y-72226825D01*
X146443110Y-72271476D01*
X146673000Y-72150155D01*
X146673000Y-70957000D01*
X146653000Y-70957000D01*
X146653000Y-70703000D01*
X146673000Y-70703000D01*
X146673000Y-70683000D01*
X146927000Y-70683000D01*
X146927000Y-70703000D01*
G36*
X126607000Y-70703000D02*
G01*
X126627000Y-70703000D01*
X126627000Y-70957000D01*
X126607000Y-70957000D01*
X126607000Y-72150155D01*
X126836890Y-72271476D01*
X126984099Y-72226825D01*
X127246920Y-72101641D01*
X127480269Y-71927588D01*
X127675178Y-71711355D01*
X127744805Y-71594466D01*
X127866525Y-71776632D01*
X128073368Y-71983475D01*
X128316589Y-72145990D01*
X128586842Y-72257932D01*
X128873740Y-72315000D01*
X129166260Y-72315000D01*
X129453158Y-72257932D01*
X129723411Y-72145990D01*
X129966632Y-71983475D01*
X130173475Y-71776632D01*
X130290000Y-71602240D01*
X130406525Y-71776632D01*
X130613368Y-71983475D01*
X130856589Y-72145990D01*
X131126842Y-72257932D01*
X131413740Y-72315000D01*
X131706260Y-72315000D01*
X131993158Y-72257932D01*
X132263411Y-72145990D01*
X132506632Y-71983475D01*
X132713475Y-71776632D01*
X132830000Y-71602240D01*
X132946525Y-71776632D01*
X133153368Y-71983475D01*
X133396589Y-72145990D01*
X133666842Y-72257932D01*
X133953740Y-72315000D01*
X134246260Y-72315000D01*
X134533158Y-72257932D01*
X134803411Y-72145990D01*
X135046632Y-71983475D01*
X135253475Y-71776632D01*
X135370000Y-71602240D01*
X135486525Y-71776632D01*
X135693368Y-71983475D01*
X135805000Y-72058065D01*
X135805000Y-72343000D01*
X117427868Y-72343000D01*
X117368291Y-72283422D01*
X117414180Y-72269502D01*
X117524494Y-72210537D01*
X117621185Y-72131185D01*
X117700537Y-72034494D01*
X117759502Y-71924180D01*
X117781513Y-71851620D01*
X117913368Y-71983475D01*
X118156589Y-72145990D01*
X118426842Y-72257932D01*
X118713740Y-72315000D01*
X119006260Y-72315000D01*
X119293158Y-72257932D01*
X119563411Y-72145990D01*
X119806632Y-71983475D01*
X120013475Y-71776632D01*
X120130000Y-71602240D01*
X120246525Y-71776632D01*
X120453368Y-71983475D01*
X120696589Y-72145990D01*
X120966842Y-72257932D01*
X121253740Y-72315000D01*
X121546260Y-72315000D01*
X121833158Y-72257932D01*
X122103411Y-72145990D01*
X122346632Y-71983475D01*
X122553475Y-71776632D01*
X122670000Y-71602240D01*
X122786525Y-71776632D01*
X122993368Y-71983475D01*
X123236589Y-72145990D01*
X123506842Y-72257932D01*
X123793740Y-72315000D01*
X124086260Y-72315000D01*
X124373158Y-72257932D01*
X124643411Y-72145990D01*
X124886632Y-71983475D01*
X125093475Y-71776632D01*
X125215195Y-71594466D01*
X125284822Y-71711355D01*
X125479731Y-71927588D01*
X125713080Y-72101641D01*
X125975901Y-72226825D01*
X126123110Y-72271476D01*
X126353000Y-72150155D01*
X126353000Y-70957000D01*
X126333000Y-70957000D01*
X126333000Y-70703000D01*
X126353000Y-70703000D01*
X126353000Y-70683000D01*
X126607000Y-70683000D01*
X126607000Y-70703000D01*
G37*
X126607000Y-70703000D02*
X126627000Y-70703000D01*
X126627000Y-70957000D01*
X126607000Y-70957000D01*
X126607000Y-72150155D01*
X126836890Y-72271476D01*
X126984099Y-72226825D01*
X127246920Y-72101641D01*
X127480269Y-71927588D01*
X127675178Y-71711355D01*
X127744805Y-71594466D01*
X127866525Y-71776632D01*
X128073368Y-71983475D01*
X128316589Y-72145990D01*
X128586842Y-72257932D01*
X128873740Y-72315000D01*
X129166260Y-72315000D01*
X129453158Y-72257932D01*
X129723411Y-72145990D01*
X129966632Y-71983475D01*
X130173475Y-71776632D01*
X130290000Y-71602240D01*
X130406525Y-71776632D01*
X130613368Y-71983475D01*
X130856589Y-72145990D01*
X131126842Y-72257932D01*
X131413740Y-72315000D01*
X131706260Y-72315000D01*
X131993158Y-72257932D01*
X132263411Y-72145990D01*
X132506632Y-71983475D01*
X132713475Y-71776632D01*
X132830000Y-71602240D01*
X132946525Y-71776632D01*
X133153368Y-71983475D01*
X133396589Y-72145990D01*
X133666842Y-72257932D01*
X133953740Y-72315000D01*
X134246260Y-72315000D01*
X134533158Y-72257932D01*
X134803411Y-72145990D01*
X135046632Y-71983475D01*
X135253475Y-71776632D01*
X135370000Y-71602240D01*
X135486525Y-71776632D01*
X135693368Y-71983475D01*
X135805000Y-72058065D01*
X135805000Y-72343000D01*
X117427868Y-72343000D01*
X117368291Y-72283422D01*
X117414180Y-72269502D01*
X117524494Y-72210537D01*
X117621185Y-72131185D01*
X117700537Y-72034494D01*
X117759502Y-71924180D01*
X117781513Y-71851620D01*
X117913368Y-71983475D01*
X118156589Y-72145990D01*
X118426842Y-72257932D01*
X118713740Y-72315000D01*
X119006260Y-72315000D01*
X119293158Y-72257932D01*
X119563411Y-72145990D01*
X119806632Y-71983475D01*
X120013475Y-71776632D01*
X120130000Y-71602240D01*
X120246525Y-71776632D01*
X120453368Y-71983475D01*
X120696589Y-72145990D01*
X120966842Y-72257932D01*
X121253740Y-72315000D01*
X121546260Y-72315000D01*
X121833158Y-72257932D01*
X122103411Y-72145990D01*
X122346632Y-71983475D01*
X122553475Y-71776632D01*
X122670000Y-71602240D01*
X122786525Y-71776632D01*
X122993368Y-71983475D01*
X123236589Y-72145990D01*
X123506842Y-72257932D01*
X123793740Y-72315000D01*
X124086260Y-72315000D01*
X124373158Y-72257932D01*
X124643411Y-72145990D01*
X124886632Y-71983475D01*
X125093475Y-71776632D01*
X125215195Y-71594466D01*
X125284822Y-71711355D01*
X125479731Y-71927588D01*
X125713080Y-72101641D01*
X125975901Y-72226825D01*
X126123110Y-72271476D01*
X126353000Y-72150155D01*
X126353000Y-70957000D01*
X126333000Y-70957000D01*
X126333000Y-70703000D01*
X126353000Y-70703000D01*
X126353000Y-70683000D01*
X126607000Y-70683000D01*
X126607000Y-70703000D01*
G36*
X133372498Y-64902502D02*
G01*
X133415000Y-64937383D01*
X133415001Y-66966384D01*
X133396589Y-66974010D01*
X133153368Y-67136525D01*
X132946525Y-67343368D01*
X132824805Y-67525534D01*
X132755178Y-67408645D01*
X132560269Y-67192412D01*
X132326920Y-67018359D01*
X132064099Y-66893175D01*
X131916890Y-66848524D01*
X131687000Y-66969845D01*
X131687000Y-68163000D01*
X131707000Y-68163000D01*
X131707000Y-68417000D01*
X131687000Y-68417000D01*
X131687000Y-68437000D01*
X131433000Y-68437000D01*
X131433000Y-68417000D01*
X131413000Y-68417000D01*
X131413000Y-68163000D01*
X131433000Y-68163000D01*
X131433000Y-66969845D01*
X131203110Y-66848524D01*
X131055901Y-66893175D01*
X130793080Y-67018359D01*
X130559731Y-67192412D01*
X130364822Y-67408645D01*
X130295195Y-67525534D01*
X130173475Y-67343368D01*
X129966632Y-67136525D01*
X129906513Y-67096355D01*
X130259868Y-66743000D01*
X131360982Y-66743000D01*
X131402000Y-66747040D01*
X131443018Y-66743000D01*
X131443019Y-66743000D01*
X131565689Y-66730918D01*
X131723087Y-66683172D01*
X131868146Y-66605636D01*
X131995291Y-66501291D01*
X132021446Y-66469421D01*
X132811427Y-65679440D01*
X132843291Y-65653291D01*
X132947636Y-65526146D01*
X133025172Y-65381087D01*
X133072918Y-65223689D01*
X133085000Y-65101019D01*
X133085000Y-65101018D01*
X133089040Y-65060001D01*
X133085000Y-65018982D01*
X133085000Y-64937382D01*
X133127502Y-64902502D01*
X133250000Y-64753237D01*
X133372498Y-64902502D01*
G37*
X133372498Y-64902502D02*
X133415000Y-64937383D01*
X133415001Y-66966384D01*
X133396589Y-66974010D01*
X133153368Y-67136525D01*
X132946525Y-67343368D01*
X132824805Y-67525534D01*
X132755178Y-67408645D01*
X132560269Y-67192412D01*
X132326920Y-67018359D01*
X132064099Y-66893175D01*
X131916890Y-66848524D01*
X131687000Y-66969845D01*
X131687000Y-68163000D01*
X131707000Y-68163000D01*
X131707000Y-68417000D01*
X131687000Y-68417000D01*
X131687000Y-68437000D01*
X131433000Y-68437000D01*
X131433000Y-68417000D01*
X131413000Y-68417000D01*
X131413000Y-68163000D01*
X131433000Y-68163000D01*
X131433000Y-66969845D01*
X131203110Y-66848524D01*
X131055901Y-66893175D01*
X130793080Y-67018359D01*
X130559731Y-67192412D01*
X130364822Y-67408645D01*
X130295195Y-67525534D01*
X130173475Y-67343368D01*
X129966632Y-67136525D01*
X129906513Y-67096355D01*
X130259868Y-66743000D01*
X131360982Y-66743000D01*
X131402000Y-66747040D01*
X131443018Y-66743000D01*
X131443019Y-66743000D01*
X131565689Y-66730918D01*
X131723087Y-66683172D01*
X131868146Y-66605636D01*
X131995291Y-66501291D01*
X132021446Y-66469421D01*
X132811427Y-65679440D01*
X132843291Y-65653291D01*
X132947636Y-65526146D01*
X133025172Y-65381087D01*
X133072918Y-65223689D01*
X133085000Y-65101019D01*
X133085000Y-65101018D01*
X133089040Y-65060001D01*
X133085000Y-65018982D01*
X133085000Y-64937382D01*
X133127502Y-64902502D01*
X133250000Y-64753237D01*
X133372498Y-64902502D01*
G36*
X123219001Y-66985762D02*
G01*
X122993368Y-67136525D01*
X122786525Y-67343368D01*
X122664805Y-67525534D01*
X122595178Y-67408645D01*
X122400269Y-67192412D01*
X122166920Y-67018359D01*
X121904099Y-66893175D01*
X121756890Y-66848524D01*
X121527000Y-66969845D01*
X121527000Y-68163000D01*
X121547000Y-68163000D01*
X121547000Y-68417000D01*
X121527000Y-68417000D01*
X121527000Y-68437000D01*
X121273000Y-68437000D01*
X121273000Y-68417000D01*
X121253000Y-68417000D01*
X121253000Y-68163000D01*
X121273000Y-68163000D01*
X121273000Y-66969845D01*
X121043110Y-66848524D01*
X120895901Y-66893175D01*
X120633080Y-67018359D01*
X120399731Y-67192412D01*
X120204822Y-67408645D01*
X120135195Y-67525534D01*
X120013475Y-67343368D01*
X119806632Y-67136525D01*
X119563411Y-66974010D01*
X119293158Y-66862068D01*
X119006260Y-66805000D01*
X118713740Y-66805000D01*
X118426842Y-66862068D01*
X118156589Y-66974010D01*
X117913368Y-67136525D01*
X117706525Y-67343368D01*
X117590000Y-67517760D01*
X117473475Y-67343368D01*
X117266632Y-67136525D01*
X117023411Y-66974010D01*
X116753158Y-66862068D01*
X116466260Y-66805000D01*
X116173740Y-66805000D01*
X115886842Y-66862068D01*
X115616589Y-66974010D01*
X115491000Y-67057926D01*
X115491000Y-66253000D01*
X123219000Y-66253000D01*
X123219001Y-66985762D01*
G37*
X123219001Y-66985762D02*
X122993368Y-67136525D01*
X122786525Y-67343368D01*
X122664805Y-67525534D01*
X122595178Y-67408645D01*
X122400269Y-67192412D01*
X122166920Y-67018359D01*
X121904099Y-66893175D01*
X121756890Y-66848524D01*
X121527000Y-66969845D01*
X121527000Y-68163000D01*
X121547000Y-68163000D01*
X121547000Y-68417000D01*
X121527000Y-68417000D01*
X121527000Y-68437000D01*
X121273000Y-68437000D01*
X121273000Y-68417000D01*
X121253000Y-68417000D01*
X121253000Y-68163000D01*
X121273000Y-68163000D01*
X121273000Y-66969845D01*
X121043110Y-66848524D01*
X120895901Y-66893175D01*
X120633080Y-67018359D01*
X120399731Y-67192412D01*
X120204822Y-67408645D01*
X120135195Y-67525534D01*
X120013475Y-67343368D01*
X119806632Y-67136525D01*
X119563411Y-66974010D01*
X119293158Y-66862068D01*
X119006260Y-66805000D01*
X118713740Y-66805000D01*
X118426842Y-66862068D01*
X118156589Y-66974010D01*
X117913368Y-67136525D01*
X117706525Y-67343368D01*
X117590000Y-67517760D01*
X117473475Y-67343368D01*
X117266632Y-67136525D01*
X117023411Y-66974010D01*
X116753158Y-66862068D01*
X116466260Y-66805000D01*
X116173740Y-66805000D01*
X115886842Y-66862068D01*
X115616589Y-66974010D01*
X115491000Y-67057926D01*
X115491000Y-66253000D01*
X123219000Y-66253000D01*
X123219001Y-66985762D01*
M02*
