M48
; DRILL file {KiCad 5.1.6-c6e7f7d~87~ubuntu18.04.1} date Mon Sep 21 12:24:05 2020
; FORMAT={-:-/ absolute / metric / decimal}
; #@! TF.CreationDate,2020-09-21T12:24:05+01:00
; #@! TF.GenerationSoftware,Kicad,Pcbnew,5.1.6-c6e7f7d~87~ubuntu18.04.1
FMAT,2
METRIC
T1C0.750
T2C0.800
T3C1.000
T4C1.100
T5C1.520
T6C2.700
%
G90
G05
T1
X157.25Y-101.75
X157.25Y-103.75
X157.25Y-105.75
X157.25Y-107.75
X168.25Y-75.75
X170.25Y-75.75
X130.25Y-63.75
X132.25Y-63.75
X134.25Y-63.75
X136.25Y-63.75
X138.25Y-63.75
X161.0Y-76.75
X163.0Y-76.75
X112.25Y-90.25
X112.25Y-92.25
X112.25Y-94.25
X112.25Y-96.25
X112.25Y-98.25
X158.5Y-92.5
X158.5Y-94.5
X158.5Y-96.5
T2
X166.25Y-99.25
X169.75Y-99.25
X119.5Y-112.0
X119.5Y-115.5
T3
X111.354Y-110.884
X116.434Y-104.788
X149.708Y-74.562
X155.55Y-91.072
X156.82Y-78.372
X157.074Y-85.738
X167.234Y-61.608
X167.234Y-65.926
X166.75Y-87.0
X169.25Y-87.0
X153.935Y-117.325
X156.475Y-117.325
X116.32Y-68.29
X116.32Y-70.83
X118.86Y-68.29
X118.86Y-70.83
X121.4Y-68.29
X121.4Y-70.83
X123.94Y-68.29
X123.94Y-70.83
X126.48Y-68.29
X126.48Y-70.83
X129.02Y-68.29
X129.02Y-70.83
X131.56Y-68.29
X131.56Y-70.83
X134.1Y-68.29
X134.1Y-70.83
X136.64Y-68.29
X136.64Y-70.83
X139.18Y-68.29
X139.18Y-70.83
X141.72Y-68.29
X141.72Y-70.83
X144.26Y-68.29
X144.26Y-70.83
X146.8Y-68.29
X146.8Y-70.83
X149.34Y-68.29
X149.34Y-70.83
X151.88Y-68.29
X151.88Y-70.83
X154.42Y-68.29
X154.42Y-70.83
X156.96Y-68.29
X156.96Y-70.83
X159.5Y-68.29
X159.5Y-70.83
X162.04Y-68.29
X162.04Y-70.83
X164.58Y-68.29
X164.58Y-70.83
X161.135Y-117.325
X163.675Y-117.325
T4
X126.5Y-112.0
X126.5Y-114.54
X126.5Y-117.08
T5
X112.0Y-75.67
X112.0Y-80.75
T6
X169.45Y-69.56
X111.45Y-69.56
X111.45Y-118.56
X169.45Y-118.56
T0
M30
