G04 #@! TF.GenerationSoftware,KiCad,Pcbnew,(5.1.0)-1*
G04 #@! TF.CreationDate,2020-03-07T12:08:56+00:00*
G04 #@! TF.ProjectId,Line Generator,4c696e65-2047-4656-9e65-7261746f722e,rev?*
G04 #@! TF.SameCoordinates,Original*
G04 #@! TF.FileFunction,Legend,Bot*
G04 #@! TF.FilePolarity,Positive*
%FSLAX46Y46*%
G04 Gerber Fmt 4.6, Leading zero omitted, Abs format (unit mm)*
G04 Created by KiCad (PCBNEW (5.1.0)-1) date 2020-03-07 12:08:56*
%MOMM*%
%LPD*%
G04 APERTURE LIST*
%ADD10C,0.120000*%
%ADD11C,0.150000*%
G04 APERTURE END LIST*
D10*
X219110000Y-71770000D02*
X219869000Y-71770000D01*
X220629000Y-73069000D02*
X220629000Y-70470000D01*
X219110000Y-73069000D02*
X219110000Y-70470000D01*
X219110000Y-70470000D02*
X220629000Y-70470000D01*
X219110000Y-73069000D02*
X220629000Y-73069000D01*
X239920000Y-74305000D02*
X239920000Y-69235000D01*
X220630000Y-74305000D02*
X220630000Y-69235000D01*
X220630000Y-69235000D02*
X239920000Y-69235000D01*
X220630000Y-74305000D02*
X239920000Y-74305000D01*
X220630000Y-100555000D02*
X239920000Y-100555000D01*
X220630000Y-95485000D02*
X239920000Y-95485000D01*
X220630000Y-100555000D02*
X220630000Y-95485000D01*
X239920000Y-100555000D02*
X239920000Y-95485000D01*
X219110000Y-99319000D02*
X220629000Y-99319000D01*
X219110000Y-96720000D02*
X220629000Y-96720000D01*
X219110000Y-99319000D02*
X219110000Y-96720000D01*
X220629000Y-99319000D02*
X220629000Y-96720000D01*
X219110000Y-98020000D02*
X219869000Y-98020000D01*
D11*
X230595238Y-71202380D02*
X230928571Y-70726190D01*
X231166666Y-71202380D02*
X231166666Y-70202380D01*
X230785714Y-70202380D01*
X230690476Y-70250000D01*
X230642857Y-70297619D01*
X230595238Y-70392857D01*
X230595238Y-70535714D01*
X230642857Y-70630952D01*
X230690476Y-70678571D01*
X230785714Y-70726190D01*
X231166666Y-70726190D01*
X230309523Y-70202380D02*
X229976190Y-71202380D01*
X229642857Y-70202380D01*
X228785714Y-71202380D02*
X229357142Y-71202380D01*
X229071428Y-71202380D02*
X229071428Y-70202380D01*
X229166666Y-70345238D01*
X229261904Y-70440476D01*
X229357142Y-70488095D01*
X233595238Y-96952380D02*
X233928571Y-96476190D01*
X234166666Y-96952380D02*
X234166666Y-95952380D01*
X233785714Y-95952380D01*
X233690476Y-96000000D01*
X233642857Y-96047619D01*
X233595238Y-96142857D01*
X233595238Y-96285714D01*
X233642857Y-96380952D01*
X233690476Y-96428571D01*
X233785714Y-96476190D01*
X234166666Y-96476190D01*
X233309523Y-95952380D02*
X232976190Y-96952380D01*
X232642857Y-95952380D01*
X232357142Y-96047619D02*
X232309523Y-96000000D01*
X232214285Y-95952380D01*
X231976190Y-95952380D01*
X231880952Y-96000000D01*
X231833333Y-96047619D01*
X231785714Y-96142857D01*
X231785714Y-96238095D01*
X231833333Y-96380952D01*
X232404761Y-96952380D01*
X231785714Y-96952380D01*
M02*
