G04 #@! TF.GenerationSoftware,KiCad,Pcbnew,(5.1.0)-1*
G04 #@! TF.CreationDate,2020-03-11T19:31:42+00:00*
G04 #@! TF.ProjectId,Line Generator,4c696e65-2047-4656-9e65-7261746f722e,rev?*
G04 #@! TF.SameCoordinates,Original*
G04 #@! TF.FileFunction,Legend,Top*
G04 #@! TF.FilePolarity,Positive*
%FSLAX46Y46*%
G04 Gerber Fmt 4.6, Leading zero omitted, Abs format (unit mm)*
G04 Created by KiCad (PCBNEW (5.1.0)-1) date 2020-03-11 19:31:42*
%MOMM*%
%LPD*%
G04 APERTURE LIST*
%ADD10C,0.150000*%
%ADD11C,0.120000*%
%ADD12C,0.100000*%
G04 APERTURE END LIST*
D10*
X240952380Y-90059523D02*
X240952380Y-90535714D01*
X239952380Y-90535714D01*
X240952380Y-89726190D02*
X240285714Y-89726190D01*
X239952380Y-89726190D02*
X240000000Y-89773809D01*
X240047619Y-89726190D01*
X240000000Y-89678571D01*
X239952380Y-89726190D01*
X240047619Y-89726190D01*
X240285714Y-89250000D02*
X240952380Y-89250000D01*
X240380952Y-89250000D02*
X240333333Y-89202380D01*
X240285714Y-89107142D01*
X240285714Y-88964285D01*
X240333333Y-88869047D01*
X240428571Y-88821428D01*
X240952380Y-88821428D01*
X240904761Y-87964285D02*
X240952380Y-88059523D01*
X240952380Y-88250000D01*
X240904761Y-88345238D01*
X240809523Y-88392857D01*
X240428571Y-88392857D01*
X240333333Y-88345238D01*
X240285714Y-88250000D01*
X240285714Y-88059523D01*
X240333333Y-87964285D01*
X240428571Y-87916666D01*
X240523809Y-87916666D01*
X240619047Y-88392857D01*
X240000000Y-86202380D02*
X239952380Y-86297619D01*
X239952380Y-86440476D01*
X240000000Y-86583333D01*
X240095238Y-86678571D01*
X240190476Y-86726190D01*
X240380952Y-86773809D01*
X240523809Y-86773809D01*
X240714285Y-86726190D01*
X240809523Y-86678571D01*
X240904761Y-86583333D01*
X240952380Y-86440476D01*
X240952380Y-86345238D01*
X240904761Y-86202380D01*
X240857142Y-86154761D01*
X240523809Y-86154761D01*
X240523809Y-86345238D01*
X240904761Y-85345238D02*
X240952380Y-85440476D01*
X240952380Y-85630952D01*
X240904761Y-85726190D01*
X240809523Y-85773809D01*
X240428571Y-85773809D01*
X240333333Y-85726190D01*
X240285714Y-85630952D01*
X240285714Y-85440476D01*
X240333333Y-85345238D01*
X240428571Y-85297619D01*
X240523809Y-85297619D01*
X240619047Y-85773809D01*
X240285714Y-84869047D02*
X240952380Y-84869047D01*
X240380952Y-84869047D02*
X240333333Y-84821428D01*
X240285714Y-84726190D01*
X240285714Y-84583333D01*
X240333333Y-84488095D01*
X240428571Y-84440476D01*
X240952380Y-84440476D01*
X240904761Y-83583333D02*
X240952380Y-83678571D01*
X240952380Y-83869047D01*
X240904761Y-83964285D01*
X240809523Y-84011904D01*
X240428571Y-84011904D01*
X240333333Y-83964285D01*
X240285714Y-83869047D01*
X240285714Y-83678571D01*
X240333333Y-83583333D01*
X240428571Y-83535714D01*
X240523809Y-83535714D01*
X240619047Y-84011904D01*
X240952380Y-83107142D02*
X240285714Y-83107142D01*
X240476190Y-83107142D02*
X240380952Y-83059523D01*
X240333333Y-83011904D01*
X240285714Y-82916666D01*
X240285714Y-82821428D01*
X240952380Y-82059523D02*
X240428571Y-82059523D01*
X240333333Y-82107142D01*
X240285714Y-82202380D01*
X240285714Y-82392857D01*
X240333333Y-82488095D01*
X240904761Y-82059523D02*
X240952380Y-82154761D01*
X240952380Y-82392857D01*
X240904761Y-82488095D01*
X240809523Y-82535714D01*
X240714285Y-82535714D01*
X240619047Y-82488095D01*
X240571428Y-82392857D01*
X240571428Y-82154761D01*
X240523809Y-82059523D01*
X240285714Y-81726190D02*
X240285714Y-81345238D01*
X239952380Y-81583333D02*
X240809523Y-81583333D01*
X240904761Y-81535714D01*
X240952380Y-81440476D01*
X240952380Y-81345238D01*
X240952380Y-80869047D02*
X240904761Y-80964285D01*
X240857142Y-81011904D01*
X240761904Y-81059523D01*
X240476190Y-81059523D01*
X240380952Y-81011904D01*
X240333333Y-80964285D01*
X240285714Y-80869047D01*
X240285714Y-80726190D01*
X240333333Y-80630952D01*
X240380952Y-80583333D01*
X240476190Y-80535714D01*
X240761904Y-80535714D01*
X240857142Y-80583333D01*
X240904761Y-80630952D01*
X240952380Y-80726190D01*
X240952380Y-80869047D01*
X240952380Y-80107142D02*
X240285714Y-80107142D01*
X240476190Y-80107142D02*
X240380952Y-80059523D01*
X240333333Y-80011904D01*
X240285714Y-79916666D01*
X240285714Y-79821428D01*
X220026071Y-97877380D02*
X220216547Y-97877380D01*
X220311785Y-97925000D01*
X220407023Y-98020238D01*
X220454642Y-98210714D01*
X220454642Y-98544047D01*
X220407023Y-98734523D01*
X220311785Y-98829761D01*
X220216547Y-98877380D01*
X220026071Y-98877380D01*
X219930833Y-98829761D01*
X219835595Y-98734523D01*
X219787976Y-98544047D01*
X219787976Y-98210714D01*
X219835595Y-98020238D01*
X219930833Y-97925000D01*
X220026071Y-97877380D01*
X220883214Y-98210714D02*
X220883214Y-98877380D01*
X220883214Y-98305952D02*
X220930833Y-98258333D01*
X221026071Y-98210714D01*
X221168928Y-98210714D01*
X221264166Y-98258333D01*
X221311785Y-98353571D01*
X221311785Y-98877380D01*
X221930833Y-98877380D02*
X221835595Y-98829761D01*
X221787976Y-98734523D01*
X221787976Y-97877380D01*
X222216547Y-98210714D02*
X222454642Y-98877380D01*
X222692738Y-98210714D02*
X222454642Y-98877380D01*
X222359404Y-99115476D01*
X222311785Y-99163095D01*
X222216547Y-99210714D01*
X223835595Y-98877380D02*
X223835595Y-97877380D01*
X223835595Y-98258333D02*
X223930833Y-98210714D01*
X224121309Y-98210714D01*
X224216547Y-98258333D01*
X224264166Y-98305952D01*
X224311785Y-98401190D01*
X224311785Y-98686904D01*
X224264166Y-98782142D01*
X224216547Y-98829761D01*
X224121309Y-98877380D01*
X223930833Y-98877380D01*
X223835595Y-98829761D01*
X224740357Y-98877380D02*
X224740357Y-98210714D01*
X224740357Y-98401190D02*
X224787976Y-98305952D01*
X224835595Y-98258333D01*
X224930833Y-98210714D01*
X225026071Y-98210714D01*
X225359404Y-98877380D02*
X225359404Y-98210714D01*
X225359404Y-97877380D02*
X225311785Y-97925000D01*
X225359404Y-97972619D01*
X225407023Y-97925000D01*
X225359404Y-97877380D01*
X225359404Y-97972619D01*
X226264166Y-98877380D02*
X226264166Y-97877380D01*
X226264166Y-98829761D02*
X226168928Y-98877380D01*
X225978452Y-98877380D01*
X225883214Y-98829761D01*
X225835595Y-98782142D01*
X225787976Y-98686904D01*
X225787976Y-98401190D01*
X225835595Y-98305952D01*
X225883214Y-98258333D01*
X225978452Y-98210714D01*
X226168928Y-98210714D01*
X226264166Y-98258333D01*
X227168928Y-98210714D02*
X227168928Y-99020238D01*
X227121309Y-99115476D01*
X227073690Y-99163095D01*
X226978452Y-99210714D01*
X226835595Y-99210714D01*
X226740357Y-99163095D01*
X227168928Y-98829761D02*
X227073690Y-98877380D01*
X226883214Y-98877380D01*
X226787976Y-98829761D01*
X226740357Y-98782142D01*
X226692738Y-98686904D01*
X226692738Y-98401190D01*
X226740357Y-98305952D01*
X226787976Y-98258333D01*
X226883214Y-98210714D01*
X227073690Y-98210714D01*
X227168928Y-98258333D01*
X228026071Y-98829761D02*
X227930833Y-98877380D01*
X227740357Y-98877380D01*
X227645119Y-98829761D01*
X227597500Y-98734523D01*
X227597500Y-98353571D01*
X227645119Y-98258333D01*
X227740357Y-98210714D01*
X227930833Y-98210714D01*
X228026071Y-98258333D01*
X228073690Y-98353571D01*
X228073690Y-98448809D01*
X227597500Y-98544047D01*
X230787976Y-98210714D02*
X230787976Y-99067857D01*
X230740357Y-99163095D01*
X230645119Y-99210714D01*
X230597500Y-99210714D01*
X230787976Y-97877380D02*
X230740357Y-97925000D01*
X230787976Y-97972619D01*
X230835595Y-97925000D01*
X230787976Y-97877380D01*
X230787976Y-97972619D01*
X231692738Y-98210714D02*
X231692738Y-98877380D01*
X231264166Y-98210714D02*
X231264166Y-98734523D01*
X231311785Y-98829761D01*
X231407023Y-98877380D01*
X231549880Y-98877380D01*
X231645119Y-98829761D01*
X231692738Y-98782142D01*
X232168928Y-98877380D02*
X232168928Y-98210714D01*
X232168928Y-98305952D02*
X232216547Y-98258333D01*
X232311785Y-98210714D01*
X232454642Y-98210714D01*
X232549880Y-98258333D01*
X232597500Y-98353571D01*
X232597500Y-98877380D01*
X232597500Y-98353571D02*
X232645119Y-98258333D01*
X232740357Y-98210714D01*
X232883214Y-98210714D01*
X232978452Y-98258333D01*
X233026071Y-98353571D01*
X233026071Y-98877380D01*
X233502261Y-98210714D02*
X233502261Y-99210714D01*
X233502261Y-98258333D02*
X233597500Y-98210714D01*
X233787976Y-98210714D01*
X233883214Y-98258333D01*
X233930833Y-98305952D01*
X233978452Y-98401190D01*
X233978452Y-98686904D01*
X233930833Y-98782142D01*
X233883214Y-98829761D01*
X233787976Y-98877380D01*
X233597500Y-98877380D01*
X233502261Y-98829761D01*
X234787976Y-98829761D02*
X234692738Y-98877380D01*
X234502261Y-98877380D01*
X234407023Y-98829761D01*
X234359404Y-98734523D01*
X234359404Y-98353571D01*
X234407023Y-98258333D01*
X234502261Y-98210714D01*
X234692738Y-98210714D01*
X234787976Y-98258333D01*
X234835595Y-98353571D01*
X234835595Y-98448809D01*
X234359404Y-98544047D01*
X235264166Y-98877380D02*
X235264166Y-98210714D01*
X235264166Y-98401190D02*
X235311785Y-98305952D01*
X235359404Y-98258333D01*
X235454642Y-98210714D01*
X235549880Y-98210714D01*
X219835595Y-100527380D02*
X219835595Y-99860714D01*
X219835595Y-99527380D02*
X219787976Y-99575000D01*
X219835595Y-99622619D01*
X219883214Y-99575000D01*
X219835595Y-99527380D01*
X219835595Y-99622619D01*
X220168928Y-99860714D02*
X220549880Y-99860714D01*
X220311785Y-100527380D02*
X220311785Y-99670238D01*
X220359404Y-99575000D01*
X220454642Y-99527380D01*
X220549880Y-99527380D01*
X221645119Y-99860714D02*
X221645119Y-100860714D01*
X221645119Y-99908333D02*
X221740357Y-99860714D01*
X221930833Y-99860714D01*
X222026071Y-99908333D01*
X222073690Y-99955952D01*
X222121309Y-100051190D01*
X222121309Y-100336904D01*
X222073690Y-100432142D01*
X222026071Y-100479761D01*
X221930833Y-100527380D01*
X221740357Y-100527380D01*
X221645119Y-100479761D01*
X222692738Y-100527380D02*
X222597500Y-100479761D01*
X222549880Y-100432142D01*
X222502261Y-100336904D01*
X222502261Y-100051190D01*
X222549880Y-99955952D01*
X222597500Y-99908333D01*
X222692738Y-99860714D01*
X222835595Y-99860714D01*
X222930833Y-99908333D01*
X222978452Y-99955952D01*
X223026071Y-100051190D01*
X223026071Y-100336904D01*
X222978452Y-100432142D01*
X222930833Y-100479761D01*
X222835595Y-100527380D01*
X222692738Y-100527380D01*
X223311785Y-99860714D02*
X223692738Y-99860714D01*
X223454642Y-99527380D02*
X223454642Y-100384523D01*
X223502261Y-100479761D01*
X223597500Y-100527380D01*
X223692738Y-100527380D01*
X224787976Y-99860714D02*
X224787976Y-100527380D01*
X224787976Y-99955952D02*
X224835595Y-99908333D01*
X224930833Y-99860714D01*
X225073690Y-99860714D01*
X225168928Y-99908333D01*
X225216547Y-100003571D01*
X225216547Y-100527380D01*
X225835595Y-100527380D02*
X225740357Y-100479761D01*
X225692738Y-100432142D01*
X225645119Y-100336904D01*
X225645119Y-100051190D01*
X225692738Y-99955952D01*
X225740357Y-99908333D01*
X225835595Y-99860714D01*
X225978452Y-99860714D01*
X226073690Y-99908333D01*
X226121309Y-99955952D01*
X226168928Y-100051190D01*
X226168928Y-100336904D01*
X226121309Y-100432142D01*
X226073690Y-100479761D01*
X225978452Y-100527380D01*
X225835595Y-100527380D01*
X226454642Y-99860714D02*
X226835595Y-99860714D01*
X226597500Y-99527380D02*
X226597500Y-100384523D01*
X226645119Y-100479761D01*
X226740357Y-100527380D01*
X226835595Y-100527380D01*
X230978452Y-100527380D02*
X230978452Y-99860714D01*
X230978452Y-99527380D02*
X230930833Y-99575000D01*
X230978452Y-99622619D01*
X231026071Y-99575000D01*
X230978452Y-99527380D01*
X230978452Y-99622619D01*
X231454642Y-99860714D02*
X231454642Y-100527380D01*
X231454642Y-99955952D02*
X231502261Y-99908333D01*
X231597500Y-99860714D01*
X231740357Y-99860714D01*
X231835595Y-99908333D01*
X231883214Y-100003571D01*
X231883214Y-100527380D01*
X233121309Y-99860714D02*
X233121309Y-100860714D01*
X233121309Y-99908333D02*
X233216547Y-99860714D01*
X233407023Y-99860714D01*
X233502261Y-99908333D01*
X233549880Y-99955952D01*
X233597500Y-100051190D01*
X233597500Y-100336904D01*
X233549880Y-100432142D01*
X233502261Y-100479761D01*
X233407023Y-100527380D01*
X233216547Y-100527380D01*
X233121309Y-100479761D01*
X234168928Y-100527380D02*
X234073690Y-100479761D01*
X234026071Y-100384523D01*
X234026071Y-99527380D01*
X234978452Y-100527380D02*
X234978452Y-100003571D01*
X234930833Y-99908333D01*
X234835595Y-99860714D01*
X234645119Y-99860714D01*
X234549880Y-99908333D01*
X234978452Y-100479761D02*
X234883214Y-100527380D01*
X234645119Y-100527380D01*
X234549880Y-100479761D01*
X234502261Y-100384523D01*
X234502261Y-100289285D01*
X234549880Y-100194047D01*
X234645119Y-100146428D01*
X234883214Y-100146428D01*
X234978452Y-100098809D01*
X235883214Y-100479761D02*
X235787976Y-100527380D01*
X235597500Y-100527380D01*
X235502261Y-100479761D01*
X235454642Y-100432142D01*
X235407023Y-100336904D01*
X235407023Y-100051190D01*
X235454642Y-99955952D01*
X235502261Y-99908333D01*
X235597500Y-99860714D01*
X235787976Y-99860714D01*
X235883214Y-99908333D01*
X236692738Y-100479761D02*
X236597500Y-100527380D01*
X236407023Y-100527380D01*
X236311785Y-100479761D01*
X236264166Y-100384523D01*
X236264166Y-100003571D01*
X236311785Y-99908333D01*
X236407023Y-99860714D01*
X236597500Y-99860714D01*
X236692738Y-99908333D01*
X236740357Y-100003571D01*
X236740357Y-100098809D01*
X236264166Y-100194047D01*
D11*
X215085000Y-72990000D02*
X215085000Y-72140000D01*
X215085000Y-72140000D02*
X212760000Y-72140000D01*
X212760000Y-72140000D02*
X212760000Y-69750000D01*
X202915000Y-72990000D02*
X202915000Y-72140000D01*
X202915000Y-72140000D02*
X205240000Y-72140000D01*
X215085000Y-76510000D02*
X215085000Y-77360000D01*
X215085000Y-77360000D02*
X202915000Y-77360000D01*
X202915000Y-77360000D02*
X202915000Y-76510000D01*
X211600000Y-82000000D02*
X211600000Y-83700000D01*
X211600000Y-83700000D02*
X214750000Y-83700000D01*
X211600000Y-82000000D02*
X214750000Y-82000000D01*
X228670000Y-84335000D02*
X229240000Y-84335000D01*
X230760000Y-84335000D02*
X231330000Y-84335000D01*
X228670000Y-84335000D02*
X228670000Y-86935000D01*
X228670000Y-86935000D02*
X229692470Y-86935000D01*
X230307530Y-86935000D02*
X231330000Y-86935000D01*
X231330000Y-84335000D02*
X231330000Y-86935000D01*
X231330000Y-82940000D02*
X231330000Y-83700000D01*
X230000000Y-82940000D02*
X231330000Y-82940000D01*
X213830000Y-86240000D02*
X212900000Y-86240000D01*
X210670000Y-86240000D02*
X211600000Y-86240000D01*
X210670000Y-86240000D02*
X210670000Y-88400000D01*
X213830000Y-86240000D02*
X213830000Y-87700000D01*
X205261252Y-79710000D02*
X204738748Y-79710000D01*
X205261252Y-78290000D02*
X204738748Y-78290000D01*
X209238748Y-79460000D02*
X209761252Y-79460000D01*
X209238748Y-78040000D02*
X209761252Y-78040000D01*
X213561252Y-79560000D02*
X213038748Y-79560000D01*
X213561252Y-78140000D02*
X213038748Y-78140000D01*
X225050000Y-72000000D02*
X226450000Y-72000000D01*
X227150000Y-72700000D02*
X227150000Y-73300000D01*
X226450000Y-74000000D02*
X225050000Y-74000000D01*
X224350000Y-73300000D02*
X224350000Y-72700000D01*
X224350000Y-72700000D02*
G75*
G02X225050000Y-72000000I700000J0D01*
G01*
X225050000Y-74000000D02*
G75*
G02X224350000Y-73300000I0J700000D01*
G01*
X227150000Y-73300000D02*
G75*
G02X226450000Y-74000000I-700000J0D01*
G01*
X226450000Y-72000000D02*
G75*
G02X227150000Y-72700000I0J-700000D01*
G01*
D12*
X218425000Y-84450000D02*
X218425000Y-84750000D01*
X218050000Y-84450000D02*
X218425000Y-84450000D01*
X218425000Y-87750000D02*
X217975000Y-87750000D01*
X218425000Y-87450000D02*
X218425000Y-87750000D01*
X218425000Y-87525000D02*
X218425000Y-87400000D01*
X216775000Y-87750000D02*
X216775000Y-87400000D01*
X217250000Y-87750000D02*
X216775000Y-87750000D01*
X216775000Y-84775000D02*
X216000000Y-84775000D01*
X216775000Y-84725000D02*
X216775000Y-84775000D01*
X217150000Y-84450000D02*
X216775000Y-84725000D01*
X217425000Y-84450000D02*
X217150000Y-84450000D01*
D11*
X204961252Y-99810000D02*
X204438748Y-99810000D01*
X204961252Y-98390000D02*
X204438748Y-98390000D01*
X202800000Y-95250000D02*
X202800000Y-96950000D01*
X202800000Y-96950000D02*
X205950000Y-96950000D01*
X202800000Y-95250000D02*
X205950000Y-95250000D01*
X218000000Y-99200000D02*
G75*
G02X217300000Y-99900000I-700000J0D01*
G01*
X216700000Y-99900000D02*
G75*
G02X216000000Y-99200000I0J700000D01*
G01*
X216000000Y-97800000D02*
G75*
G02X216700000Y-97100000I700000J0D01*
G01*
X217300000Y-97100000D02*
G75*
G02X218000000Y-97800000I0J-700000D01*
G01*
X216700000Y-97100000D02*
X217300000Y-97100000D01*
X216000000Y-99200000D02*
X216000000Y-97800000D01*
X217300000Y-99900000D02*
X216700000Y-99900000D01*
X218000000Y-97800000D02*
X218000000Y-99200000D01*
D12*
X215600000Y-91925000D02*
X215600000Y-92200000D01*
X215600000Y-92200000D02*
X215875000Y-92575000D01*
X215875000Y-92575000D02*
X215925000Y-92575000D01*
X215925000Y-92575000D02*
X215925000Y-93350000D01*
X218900000Y-92100000D02*
X218900000Y-92575000D01*
X218900000Y-92575000D02*
X218550000Y-92575000D01*
X218675000Y-90925000D02*
X218550000Y-90925000D01*
X218600000Y-90925000D02*
X218900000Y-90925000D01*
X218900000Y-90925000D02*
X218900000Y-91375000D01*
X215600000Y-91300000D02*
X215600000Y-90925000D01*
X215600000Y-90925000D02*
X215900000Y-90925000D01*
D11*
X211740000Y-90170000D02*
X211740000Y-91100000D01*
X211740000Y-93330000D02*
X211740000Y-92400000D01*
X211740000Y-93330000D02*
X213900000Y-93330000D01*
X211740000Y-90170000D02*
X213200000Y-90170000D01*
X205011252Y-91710000D02*
X204488748Y-91710000D01*
X205011252Y-90290000D02*
X204488748Y-90290000D01*
X211511252Y-94790000D02*
X210988748Y-94790000D01*
X211511252Y-96210000D02*
X210988748Y-96210000D01*
X213038748Y-81560000D02*
X213561252Y-81560000D01*
X213038748Y-80140000D02*
X213561252Y-80140000D01*
X219460000Y-80238748D02*
X219460000Y-80761252D01*
X218040000Y-80238748D02*
X218040000Y-80761252D01*
X210988748Y-98960000D02*
X211511252Y-98960000D01*
X210988748Y-97540000D02*
X211511252Y-97540000D01*
X204488748Y-92790000D02*
X205011252Y-92790000D01*
X204488748Y-94210000D02*
X205011252Y-94210000D01*
D10*
X213666666Y-70202380D02*
X213666666Y-70916666D01*
X213619047Y-71059523D01*
X213523809Y-71154761D01*
X213380952Y-71202380D01*
X213285714Y-71202380D01*
X214666666Y-71202380D02*
X214095238Y-71202380D01*
X214380952Y-71202380D02*
X214380952Y-70202380D01*
X214285714Y-70345238D01*
X214190476Y-70440476D01*
X214095238Y-70488095D01*
X215761904Y-83302380D02*
X215761904Y-82302380D01*
X216000000Y-82302380D01*
X216142857Y-82350000D01*
X216238095Y-82445238D01*
X216285714Y-82540476D01*
X216333333Y-82730952D01*
X216333333Y-82873809D01*
X216285714Y-83064285D01*
X216238095Y-83159523D01*
X216142857Y-83254761D01*
X216000000Y-83302380D01*
X215761904Y-83302380D01*
X217285714Y-83302380D02*
X216714285Y-83302380D01*
X217000000Y-83302380D02*
X217000000Y-82302380D01*
X216904761Y-82445238D01*
X216809523Y-82540476D01*
X216714285Y-82588095D01*
X226261904Y-85702380D02*
X226261904Y-84702380D01*
X226500000Y-84702380D01*
X226642857Y-84750000D01*
X226738095Y-84845238D01*
X226785714Y-84940476D01*
X226833333Y-85130952D01*
X226833333Y-85273809D01*
X226785714Y-85464285D01*
X226738095Y-85559523D01*
X226642857Y-85654761D01*
X226500000Y-85702380D01*
X226261904Y-85702380D01*
X227214285Y-84797619D02*
X227261904Y-84750000D01*
X227357142Y-84702380D01*
X227595238Y-84702380D01*
X227690476Y-84750000D01*
X227738095Y-84797619D01*
X227785714Y-84892857D01*
X227785714Y-84988095D01*
X227738095Y-85130952D01*
X227166666Y-85702380D01*
X227785714Y-85702380D01*
X212154761Y-85047619D02*
X212059523Y-85000000D01*
X211964285Y-84904761D01*
X211821428Y-84761904D01*
X211726190Y-84714285D01*
X211630952Y-84714285D01*
X211678571Y-84952380D02*
X211583333Y-84904761D01*
X211488095Y-84809523D01*
X211440476Y-84619047D01*
X211440476Y-84285714D01*
X211488095Y-84095238D01*
X211583333Y-84000000D01*
X211678571Y-83952380D01*
X211869047Y-83952380D01*
X211964285Y-84000000D01*
X212059523Y-84095238D01*
X212107142Y-84285714D01*
X212107142Y-84619047D01*
X212059523Y-84809523D01*
X211964285Y-84904761D01*
X211869047Y-84952380D01*
X211678571Y-84952380D01*
X213059523Y-84952380D02*
X212488095Y-84952380D01*
X212773809Y-84952380D02*
X212773809Y-83952380D01*
X212678571Y-84095238D01*
X212583333Y-84190476D01*
X212488095Y-84238095D01*
X204583333Y-81202380D02*
X204250000Y-80726190D01*
X204011904Y-81202380D02*
X204011904Y-80202380D01*
X204392857Y-80202380D01*
X204488095Y-80250000D01*
X204535714Y-80297619D01*
X204583333Y-80392857D01*
X204583333Y-80535714D01*
X204535714Y-80630952D01*
X204488095Y-80678571D01*
X204392857Y-80726190D01*
X204011904Y-80726190D01*
X205535714Y-81202380D02*
X204964285Y-81202380D01*
X205250000Y-81202380D02*
X205250000Y-80202380D01*
X205154761Y-80345238D01*
X205059523Y-80440476D01*
X204964285Y-80488095D01*
X209833333Y-80952380D02*
X209500000Y-80476190D01*
X209261904Y-80952380D02*
X209261904Y-79952380D01*
X209642857Y-79952380D01*
X209738095Y-80000000D01*
X209785714Y-80047619D01*
X209833333Y-80142857D01*
X209833333Y-80285714D01*
X209785714Y-80380952D01*
X209738095Y-80428571D01*
X209642857Y-80476190D01*
X209261904Y-80476190D01*
X210690476Y-80285714D02*
X210690476Y-80952380D01*
X210452380Y-79904761D02*
X210214285Y-80619047D01*
X210833333Y-80619047D01*
X216158333Y-79207142D02*
X216110714Y-79254761D01*
X215967857Y-79302380D01*
X215872619Y-79302380D01*
X215729761Y-79254761D01*
X215634523Y-79159523D01*
X215586904Y-79064285D01*
X215539285Y-78873809D01*
X215539285Y-78730952D01*
X215586904Y-78540476D01*
X215634523Y-78445238D01*
X215729761Y-78350000D01*
X215872619Y-78302380D01*
X215967857Y-78302380D01*
X216110714Y-78350000D01*
X216158333Y-78397619D01*
X217110714Y-79302380D02*
X216539285Y-79302380D01*
X216825000Y-79302380D02*
X216825000Y-78302380D01*
X216729761Y-78445238D01*
X216634523Y-78540476D01*
X216539285Y-78588095D01*
X224766666Y-70702380D02*
X224766666Y-71416666D01*
X224719047Y-71559523D01*
X224623809Y-71654761D01*
X224480952Y-71702380D01*
X224385714Y-71702380D01*
X225242857Y-71702380D02*
X225242857Y-70702380D01*
X225623809Y-70702380D01*
X225719047Y-70750000D01*
X225766666Y-70797619D01*
X225814285Y-70892857D01*
X225814285Y-71035714D01*
X225766666Y-71130952D01*
X225719047Y-71178571D01*
X225623809Y-71226190D01*
X225242857Y-71226190D01*
X226766666Y-71702380D02*
X226195238Y-71702380D01*
X226480952Y-71702380D02*
X226480952Y-70702380D01*
X226385714Y-70845238D01*
X226290476Y-70940476D01*
X226195238Y-70988095D01*
X217504761Y-89397619D02*
X217409523Y-89350000D01*
X217314285Y-89254761D01*
X217171428Y-89111904D01*
X217076190Y-89064285D01*
X216980952Y-89064285D01*
X217028571Y-89302380D02*
X216933333Y-89254761D01*
X216838095Y-89159523D01*
X216790476Y-88969047D01*
X216790476Y-88635714D01*
X216838095Y-88445238D01*
X216933333Y-88350000D01*
X217028571Y-88302380D01*
X217219047Y-88302380D01*
X217314285Y-88350000D01*
X217409523Y-88445238D01*
X217457142Y-88635714D01*
X217457142Y-88969047D01*
X217409523Y-89159523D01*
X217314285Y-89254761D01*
X217219047Y-89302380D01*
X217028571Y-89302380D01*
X217838095Y-88397619D02*
X217885714Y-88350000D01*
X217980952Y-88302380D01*
X218219047Y-88302380D01*
X218314285Y-88350000D01*
X218361904Y-88397619D01*
X218409523Y-88492857D01*
X218409523Y-88588095D01*
X218361904Y-88730952D01*
X217790476Y-89302380D01*
X218409523Y-89302380D01*
X207558333Y-99457142D02*
X207510714Y-99504761D01*
X207367857Y-99552380D01*
X207272619Y-99552380D01*
X207129761Y-99504761D01*
X207034523Y-99409523D01*
X206986904Y-99314285D01*
X206939285Y-99123809D01*
X206939285Y-98980952D01*
X206986904Y-98790476D01*
X207034523Y-98695238D01*
X207129761Y-98600000D01*
X207272619Y-98552380D01*
X207367857Y-98552380D01*
X207510714Y-98600000D01*
X207558333Y-98647619D01*
X207939285Y-98647619D02*
X207986904Y-98600000D01*
X208082142Y-98552380D01*
X208320238Y-98552380D01*
X208415476Y-98600000D01*
X208463095Y-98647619D01*
X208510714Y-98742857D01*
X208510714Y-98838095D01*
X208463095Y-98980952D01*
X207891666Y-99552380D01*
X208510714Y-99552380D01*
X206961904Y-96552380D02*
X206961904Y-95552380D01*
X207200000Y-95552380D01*
X207342857Y-95600000D01*
X207438095Y-95695238D01*
X207485714Y-95790476D01*
X207533333Y-95980952D01*
X207533333Y-96123809D01*
X207485714Y-96314285D01*
X207438095Y-96409523D01*
X207342857Y-96504761D01*
X207200000Y-96552380D01*
X206961904Y-96552380D01*
X207866666Y-95552380D02*
X208485714Y-95552380D01*
X208152380Y-95933333D01*
X208295238Y-95933333D01*
X208390476Y-95980952D01*
X208438095Y-96028571D01*
X208485714Y-96123809D01*
X208485714Y-96361904D01*
X208438095Y-96457142D01*
X208390476Y-96504761D01*
X208295238Y-96552380D01*
X208009523Y-96552380D01*
X207914285Y-96504761D01*
X207866666Y-96457142D01*
X215916666Y-95452380D02*
X215916666Y-96166666D01*
X215869047Y-96309523D01*
X215773809Y-96404761D01*
X215630952Y-96452380D01*
X215535714Y-96452380D01*
X216392857Y-96452380D02*
X216392857Y-95452380D01*
X216773809Y-95452380D01*
X216869047Y-95500000D01*
X216916666Y-95547619D01*
X216964285Y-95642857D01*
X216964285Y-95785714D01*
X216916666Y-95880952D01*
X216869047Y-95928571D01*
X216773809Y-95976190D01*
X216392857Y-95976190D01*
X217345238Y-95547619D02*
X217392857Y-95500000D01*
X217488095Y-95452380D01*
X217726190Y-95452380D01*
X217821428Y-95500000D01*
X217869047Y-95547619D01*
X217916666Y-95642857D01*
X217916666Y-95738095D01*
X217869047Y-95880952D01*
X217297619Y-96452380D01*
X217916666Y-96452380D01*
X217904761Y-94797619D02*
X217809523Y-94750000D01*
X217714285Y-94654761D01*
X217571428Y-94511904D01*
X217476190Y-94464285D01*
X217380952Y-94464285D01*
X217428571Y-94702380D02*
X217333333Y-94654761D01*
X217238095Y-94559523D01*
X217190476Y-94369047D01*
X217190476Y-94035714D01*
X217238095Y-93845238D01*
X217333333Y-93750000D01*
X217428571Y-93702380D01*
X217619047Y-93702380D01*
X217714285Y-93750000D01*
X217809523Y-93845238D01*
X217857142Y-94035714D01*
X217857142Y-94369047D01*
X217809523Y-94559523D01*
X217714285Y-94654761D01*
X217619047Y-94702380D01*
X217428571Y-94702380D01*
X218190476Y-93702380D02*
X218809523Y-93702380D01*
X218476190Y-94083333D01*
X218619047Y-94083333D01*
X218714285Y-94130952D01*
X218761904Y-94178571D01*
X218809523Y-94273809D01*
X218809523Y-94511904D01*
X218761904Y-94607142D01*
X218714285Y-94654761D01*
X218619047Y-94702380D01*
X218333333Y-94702380D01*
X218238095Y-94654761D01*
X218190476Y-94607142D01*
X209704761Y-93447619D02*
X209609523Y-93400000D01*
X209514285Y-93304761D01*
X209371428Y-93161904D01*
X209276190Y-93114285D01*
X209180952Y-93114285D01*
X209228571Y-93352380D02*
X209133333Y-93304761D01*
X209038095Y-93209523D01*
X208990476Y-93019047D01*
X208990476Y-92685714D01*
X209038095Y-92495238D01*
X209133333Y-92400000D01*
X209228571Y-92352380D01*
X209419047Y-92352380D01*
X209514285Y-92400000D01*
X209609523Y-92495238D01*
X209657142Y-92685714D01*
X209657142Y-93019047D01*
X209609523Y-93209523D01*
X209514285Y-93304761D01*
X209419047Y-93352380D01*
X209228571Y-93352380D01*
X210514285Y-92685714D02*
X210514285Y-93352380D01*
X210276190Y-92304761D02*
X210038095Y-93019047D01*
X210657142Y-93019047D01*
X207333333Y-91452380D02*
X207000000Y-90976190D01*
X206761904Y-91452380D02*
X206761904Y-90452380D01*
X207142857Y-90452380D01*
X207238095Y-90500000D01*
X207285714Y-90547619D01*
X207333333Y-90642857D01*
X207333333Y-90785714D01*
X207285714Y-90880952D01*
X207238095Y-90928571D01*
X207142857Y-90976190D01*
X206761904Y-90976190D01*
X208238095Y-90452380D02*
X207761904Y-90452380D01*
X207714285Y-90928571D01*
X207761904Y-90880952D01*
X207857142Y-90833333D01*
X208095238Y-90833333D01*
X208190476Y-90880952D01*
X208238095Y-90928571D01*
X208285714Y-91023809D01*
X208285714Y-91261904D01*
X208238095Y-91357142D01*
X208190476Y-91404761D01*
X208095238Y-91452380D01*
X207857142Y-91452380D01*
X207761904Y-91404761D01*
X207714285Y-91357142D01*
X214083333Y-95952380D02*
X213750000Y-95476190D01*
X213511904Y-95952380D02*
X213511904Y-94952380D01*
X213892857Y-94952380D01*
X213988095Y-95000000D01*
X214035714Y-95047619D01*
X214083333Y-95142857D01*
X214083333Y-95285714D01*
X214035714Y-95380952D01*
X213988095Y-95428571D01*
X213892857Y-95476190D01*
X213511904Y-95476190D01*
X214654761Y-95380952D02*
X214559523Y-95333333D01*
X214511904Y-95285714D01*
X214464285Y-95190476D01*
X214464285Y-95142857D01*
X214511904Y-95047619D01*
X214559523Y-95000000D01*
X214654761Y-94952380D01*
X214845238Y-94952380D01*
X214940476Y-95000000D01*
X214988095Y-95047619D01*
X215035714Y-95142857D01*
X215035714Y-95190476D01*
X214988095Y-95285714D01*
X214940476Y-95333333D01*
X214845238Y-95380952D01*
X214654761Y-95380952D01*
X214559523Y-95428571D01*
X214511904Y-95476190D01*
X214464285Y-95571428D01*
X214464285Y-95761904D01*
X214511904Y-95857142D01*
X214559523Y-95904761D01*
X214654761Y-95952380D01*
X214845238Y-95952380D01*
X214940476Y-95904761D01*
X214988095Y-95857142D01*
X215035714Y-95761904D01*
X215035714Y-95571428D01*
X214988095Y-95476190D01*
X214940476Y-95428571D01*
X214845238Y-95380952D01*
X216383333Y-81302380D02*
X216050000Y-80826190D01*
X215811904Y-81302380D02*
X215811904Y-80302380D01*
X216192857Y-80302380D01*
X216288095Y-80350000D01*
X216335714Y-80397619D01*
X216383333Y-80492857D01*
X216383333Y-80635714D01*
X216335714Y-80730952D01*
X216288095Y-80778571D01*
X216192857Y-80826190D01*
X215811904Y-80826190D01*
X216764285Y-80397619D02*
X216811904Y-80350000D01*
X216907142Y-80302380D01*
X217145238Y-80302380D01*
X217240476Y-80350000D01*
X217288095Y-80397619D01*
X217335714Y-80492857D01*
X217335714Y-80588095D01*
X217288095Y-80730952D01*
X216716666Y-81302380D01*
X217335714Y-81302380D01*
X218583333Y-78202380D02*
X218250000Y-77726190D01*
X218011904Y-78202380D02*
X218011904Y-77202380D01*
X218392857Y-77202380D01*
X218488095Y-77250000D01*
X218535714Y-77297619D01*
X218583333Y-77392857D01*
X218583333Y-77535714D01*
X218535714Y-77630952D01*
X218488095Y-77678571D01*
X218392857Y-77726190D01*
X218011904Y-77726190D01*
X218916666Y-77202380D02*
X219535714Y-77202380D01*
X219202380Y-77583333D01*
X219345238Y-77583333D01*
X219440476Y-77630952D01*
X219488095Y-77678571D01*
X219535714Y-77773809D01*
X219535714Y-78011904D01*
X219488095Y-78107142D01*
X219440476Y-78154761D01*
X219345238Y-78202380D01*
X219059523Y-78202380D01*
X218964285Y-78154761D01*
X218916666Y-78107142D01*
X214083333Y-98702380D02*
X213750000Y-98226190D01*
X213511904Y-98702380D02*
X213511904Y-97702380D01*
X213892857Y-97702380D01*
X213988095Y-97750000D01*
X214035714Y-97797619D01*
X214083333Y-97892857D01*
X214083333Y-98035714D01*
X214035714Y-98130952D01*
X213988095Y-98178571D01*
X213892857Y-98226190D01*
X213511904Y-98226190D01*
X214940476Y-97702380D02*
X214750000Y-97702380D01*
X214654761Y-97750000D01*
X214607142Y-97797619D01*
X214511904Y-97940476D01*
X214464285Y-98130952D01*
X214464285Y-98511904D01*
X214511904Y-98607142D01*
X214559523Y-98654761D01*
X214654761Y-98702380D01*
X214845238Y-98702380D01*
X214940476Y-98654761D01*
X214988095Y-98607142D01*
X215035714Y-98511904D01*
X215035714Y-98273809D01*
X214988095Y-98178571D01*
X214940476Y-98130952D01*
X214845238Y-98083333D01*
X214654761Y-98083333D01*
X214559523Y-98130952D01*
X214511904Y-98178571D01*
X214464285Y-98273809D01*
X207333333Y-93952380D02*
X207000000Y-93476190D01*
X206761904Y-93952380D02*
X206761904Y-92952380D01*
X207142857Y-92952380D01*
X207238095Y-93000000D01*
X207285714Y-93047619D01*
X207333333Y-93142857D01*
X207333333Y-93285714D01*
X207285714Y-93380952D01*
X207238095Y-93428571D01*
X207142857Y-93476190D01*
X206761904Y-93476190D01*
X207666666Y-92952380D02*
X208333333Y-92952380D01*
X207904761Y-93952380D01*
M02*
