G04 #@! TF.GenerationSoftware,KiCad,Pcbnew,(5.1.0)-1*
G04 #@! TF.CreationDate,2020-03-11T19:31:41+00:00*
G04 #@! TF.ProjectId,Line Generator,4c696e65-2047-4656-9e65-7261746f722e,rev?*
G04 #@! TF.SameCoordinates,Original*
G04 #@! TF.FileFunction,Paste,Top*
G04 #@! TF.FilePolarity,Positive*
%FSLAX46Y46*%
G04 Gerber Fmt 4.6, Leading zero omitted, Abs format (unit mm)*
G04 Created by KiCad (PCBNEW (5.1.0)-1) date 2020-03-11 19:31:42*
%MOMM*%
%LPD*%
G04 APERTURE LIST*
%ADD10C,0.100000*%
%ADD11C,1.000000*%
%ADD12C,1.600000*%
%ADD13R,1.000000X1.000000*%
%ADD14R,0.800000X0.900000*%
%ADD15C,1.150000*%
%ADD16R,1.300000X0.600000*%
%ADD17R,0.600000X1.300000*%
%ADD18R,0.900000X0.800000*%
G04 APERTURE END LIST*
D10*
G36*
X212274504Y-69751204D02*
G01*
X212298773Y-69754804D01*
X212322571Y-69760765D01*
X212345671Y-69769030D01*
X212367849Y-69779520D01*
X212388893Y-69792133D01*
X212408598Y-69806747D01*
X212426777Y-69823223D01*
X212443253Y-69841402D01*
X212457867Y-69861107D01*
X212470480Y-69882151D01*
X212480970Y-69904329D01*
X212489235Y-69927429D01*
X212495196Y-69951227D01*
X212498796Y-69975496D01*
X212500000Y-70000000D01*
X212500000Y-75000000D01*
X212498796Y-75024504D01*
X212495196Y-75048773D01*
X212489235Y-75072571D01*
X212480970Y-75095671D01*
X212470480Y-75117849D01*
X212457867Y-75138893D01*
X212443253Y-75158598D01*
X212426777Y-75176777D01*
X212408598Y-75193253D01*
X212388893Y-75207867D01*
X212367849Y-75220480D01*
X212345671Y-75230970D01*
X212322571Y-75239235D01*
X212298773Y-75245196D01*
X212274504Y-75248796D01*
X212250000Y-75250000D01*
X211750000Y-75250000D01*
X211725496Y-75248796D01*
X211701227Y-75245196D01*
X211677429Y-75239235D01*
X211654329Y-75230970D01*
X211632151Y-75220480D01*
X211611107Y-75207867D01*
X211591402Y-75193253D01*
X211573223Y-75176777D01*
X211556747Y-75158598D01*
X211542133Y-75138893D01*
X211529520Y-75117849D01*
X211519030Y-75095671D01*
X211510765Y-75072571D01*
X211504804Y-75048773D01*
X211501204Y-75024504D01*
X211500000Y-75000000D01*
X211500000Y-70000000D01*
X211501204Y-69975496D01*
X211504804Y-69951227D01*
X211510765Y-69927429D01*
X211519030Y-69904329D01*
X211529520Y-69882151D01*
X211542133Y-69861107D01*
X211556747Y-69841402D01*
X211573223Y-69823223D01*
X211591402Y-69806747D01*
X211611107Y-69792133D01*
X211632151Y-69779520D01*
X211654329Y-69769030D01*
X211677429Y-69760765D01*
X211701227Y-69754804D01*
X211725496Y-69751204D01*
X211750000Y-69750000D01*
X212250000Y-69750000D01*
X212274504Y-69751204D01*
X212274504Y-69751204D01*
G37*
D11*
X212000000Y-72500000D03*
D10*
G36*
X210274504Y-69751204D02*
G01*
X210298773Y-69754804D01*
X210322571Y-69760765D01*
X210345671Y-69769030D01*
X210367849Y-69779520D01*
X210388893Y-69792133D01*
X210408598Y-69806747D01*
X210426777Y-69823223D01*
X210443253Y-69841402D01*
X210457867Y-69861107D01*
X210470480Y-69882151D01*
X210480970Y-69904329D01*
X210489235Y-69927429D01*
X210495196Y-69951227D01*
X210498796Y-69975496D01*
X210500000Y-70000000D01*
X210500000Y-75000000D01*
X210498796Y-75024504D01*
X210495196Y-75048773D01*
X210489235Y-75072571D01*
X210480970Y-75095671D01*
X210470480Y-75117849D01*
X210457867Y-75138893D01*
X210443253Y-75158598D01*
X210426777Y-75176777D01*
X210408598Y-75193253D01*
X210388893Y-75207867D01*
X210367849Y-75220480D01*
X210345671Y-75230970D01*
X210322571Y-75239235D01*
X210298773Y-75245196D01*
X210274504Y-75248796D01*
X210250000Y-75250000D01*
X209750000Y-75250000D01*
X209725496Y-75248796D01*
X209701227Y-75245196D01*
X209677429Y-75239235D01*
X209654329Y-75230970D01*
X209632151Y-75220480D01*
X209611107Y-75207867D01*
X209591402Y-75193253D01*
X209573223Y-75176777D01*
X209556747Y-75158598D01*
X209542133Y-75138893D01*
X209529520Y-75117849D01*
X209519030Y-75095671D01*
X209510765Y-75072571D01*
X209504804Y-75048773D01*
X209501204Y-75024504D01*
X209500000Y-75000000D01*
X209500000Y-70000000D01*
X209501204Y-69975496D01*
X209504804Y-69951227D01*
X209510765Y-69927429D01*
X209519030Y-69904329D01*
X209529520Y-69882151D01*
X209542133Y-69861107D01*
X209556747Y-69841402D01*
X209573223Y-69823223D01*
X209591402Y-69806747D01*
X209611107Y-69792133D01*
X209632151Y-69779520D01*
X209654329Y-69769030D01*
X209677429Y-69760765D01*
X209701227Y-69754804D01*
X209725496Y-69751204D01*
X209750000Y-69750000D01*
X210250000Y-69750000D01*
X210274504Y-69751204D01*
X210274504Y-69751204D01*
G37*
D11*
X210000000Y-72500000D03*
D10*
G36*
X208274504Y-69751204D02*
G01*
X208298773Y-69754804D01*
X208322571Y-69760765D01*
X208345671Y-69769030D01*
X208367849Y-69779520D01*
X208388893Y-69792133D01*
X208408598Y-69806747D01*
X208426777Y-69823223D01*
X208443253Y-69841402D01*
X208457867Y-69861107D01*
X208470480Y-69882151D01*
X208480970Y-69904329D01*
X208489235Y-69927429D01*
X208495196Y-69951227D01*
X208498796Y-69975496D01*
X208500000Y-70000000D01*
X208500000Y-75000000D01*
X208498796Y-75024504D01*
X208495196Y-75048773D01*
X208489235Y-75072571D01*
X208480970Y-75095671D01*
X208470480Y-75117849D01*
X208457867Y-75138893D01*
X208443253Y-75158598D01*
X208426777Y-75176777D01*
X208408598Y-75193253D01*
X208388893Y-75207867D01*
X208367849Y-75220480D01*
X208345671Y-75230970D01*
X208322571Y-75239235D01*
X208298773Y-75245196D01*
X208274504Y-75248796D01*
X208250000Y-75250000D01*
X207750000Y-75250000D01*
X207725496Y-75248796D01*
X207701227Y-75245196D01*
X207677429Y-75239235D01*
X207654329Y-75230970D01*
X207632151Y-75220480D01*
X207611107Y-75207867D01*
X207591402Y-75193253D01*
X207573223Y-75176777D01*
X207556747Y-75158598D01*
X207542133Y-75138893D01*
X207529520Y-75117849D01*
X207519030Y-75095671D01*
X207510765Y-75072571D01*
X207504804Y-75048773D01*
X207501204Y-75024504D01*
X207500000Y-75000000D01*
X207500000Y-70000000D01*
X207501204Y-69975496D01*
X207504804Y-69951227D01*
X207510765Y-69927429D01*
X207519030Y-69904329D01*
X207529520Y-69882151D01*
X207542133Y-69861107D01*
X207556747Y-69841402D01*
X207573223Y-69823223D01*
X207591402Y-69806747D01*
X207611107Y-69792133D01*
X207632151Y-69779520D01*
X207654329Y-69769030D01*
X207677429Y-69760765D01*
X207701227Y-69754804D01*
X207725496Y-69751204D01*
X207750000Y-69750000D01*
X208250000Y-69750000D01*
X208274504Y-69751204D01*
X208274504Y-69751204D01*
G37*
D11*
X208000000Y-72500000D03*
D10*
G36*
X206274504Y-69751204D02*
G01*
X206298773Y-69754804D01*
X206322571Y-69760765D01*
X206345671Y-69769030D01*
X206367849Y-69779520D01*
X206388893Y-69792133D01*
X206408598Y-69806747D01*
X206426777Y-69823223D01*
X206443253Y-69841402D01*
X206457867Y-69861107D01*
X206470480Y-69882151D01*
X206480970Y-69904329D01*
X206489235Y-69927429D01*
X206495196Y-69951227D01*
X206498796Y-69975496D01*
X206500000Y-70000000D01*
X206500000Y-75000000D01*
X206498796Y-75024504D01*
X206495196Y-75048773D01*
X206489235Y-75072571D01*
X206480970Y-75095671D01*
X206470480Y-75117849D01*
X206457867Y-75138893D01*
X206443253Y-75158598D01*
X206426777Y-75176777D01*
X206408598Y-75193253D01*
X206388893Y-75207867D01*
X206367849Y-75220480D01*
X206345671Y-75230970D01*
X206322571Y-75239235D01*
X206298773Y-75245196D01*
X206274504Y-75248796D01*
X206250000Y-75250000D01*
X205750000Y-75250000D01*
X205725496Y-75248796D01*
X205701227Y-75245196D01*
X205677429Y-75239235D01*
X205654329Y-75230970D01*
X205632151Y-75220480D01*
X205611107Y-75207867D01*
X205591402Y-75193253D01*
X205573223Y-75176777D01*
X205556747Y-75158598D01*
X205542133Y-75138893D01*
X205529520Y-75117849D01*
X205519030Y-75095671D01*
X205510765Y-75072571D01*
X205504804Y-75048773D01*
X205501204Y-75024504D01*
X205500000Y-75000000D01*
X205500000Y-70000000D01*
X205501204Y-69975496D01*
X205504804Y-69951227D01*
X205510765Y-69927429D01*
X205519030Y-69904329D01*
X205529520Y-69882151D01*
X205542133Y-69861107D01*
X205556747Y-69841402D01*
X205573223Y-69823223D01*
X205591402Y-69806747D01*
X205611107Y-69792133D01*
X205632151Y-69779520D01*
X205654329Y-69769030D01*
X205677429Y-69760765D01*
X205701227Y-69754804D01*
X205725496Y-69751204D01*
X205750000Y-69750000D01*
X206250000Y-69750000D01*
X206274504Y-69751204D01*
X206274504Y-69751204D01*
G37*
D11*
X206000000Y-72500000D03*
D10*
G36*
X214974504Y-73251204D02*
G01*
X214998773Y-73254804D01*
X215022571Y-73260765D01*
X215045671Y-73269030D01*
X215067849Y-73279520D01*
X215088893Y-73292133D01*
X215108598Y-73306747D01*
X215126777Y-73323223D01*
X215143253Y-73341402D01*
X215157867Y-73361107D01*
X215170480Y-73382151D01*
X215180970Y-73404329D01*
X215189235Y-73427429D01*
X215195196Y-73451227D01*
X215198796Y-73475496D01*
X215200000Y-73500000D01*
X215200000Y-76000000D01*
X215198796Y-76024504D01*
X215195196Y-76048773D01*
X215189235Y-76072571D01*
X215180970Y-76095671D01*
X215170480Y-76117849D01*
X215157867Y-76138893D01*
X215143253Y-76158598D01*
X215126777Y-76176777D01*
X215108598Y-76193253D01*
X215088893Y-76207867D01*
X215067849Y-76220480D01*
X215045671Y-76230970D01*
X215022571Y-76239235D01*
X214998773Y-76245196D01*
X214974504Y-76248796D01*
X214950000Y-76250000D01*
X213850000Y-76250000D01*
X213825496Y-76248796D01*
X213801227Y-76245196D01*
X213777429Y-76239235D01*
X213754329Y-76230970D01*
X213732151Y-76220480D01*
X213711107Y-76207867D01*
X213691402Y-76193253D01*
X213673223Y-76176777D01*
X213656747Y-76158598D01*
X213642133Y-76138893D01*
X213629520Y-76117849D01*
X213619030Y-76095671D01*
X213610765Y-76072571D01*
X213604804Y-76048773D01*
X213601204Y-76024504D01*
X213600000Y-76000000D01*
X213600000Y-73500000D01*
X213601204Y-73475496D01*
X213604804Y-73451227D01*
X213610765Y-73427429D01*
X213619030Y-73404329D01*
X213629520Y-73382151D01*
X213642133Y-73361107D01*
X213656747Y-73341402D01*
X213673223Y-73323223D01*
X213691402Y-73306747D01*
X213711107Y-73292133D01*
X213732151Y-73279520D01*
X213754329Y-73269030D01*
X213777429Y-73260765D01*
X213801227Y-73254804D01*
X213825496Y-73251204D01*
X213850000Y-73250000D01*
X214950000Y-73250000D01*
X214974504Y-73251204D01*
X214974504Y-73251204D01*
G37*
D12*
X214400000Y-74750000D03*
D10*
G36*
X204174504Y-73251204D02*
G01*
X204198773Y-73254804D01*
X204222571Y-73260765D01*
X204245671Y-73269030D01*
X204267849Y-73279520D01*
X204288893Y-73292133D01*
X204308598Y-73306747D01*
X204326777Y-73323223D01*
X204343253Y-73341402D01*
X204357867Y-73361107D01*
X204370480Y-73382151D01*
X204380970Y-73404329D01*
X204389235Y-73427429D01*
X204395196Y-73451227D01*
X204398796Y-73475496D01*
X204400000Y-73500000D01*
X204400000Y-76000000D01*
X204398796Y-76024504D01*
X204395196Y-76048773D01*
X204389235Y-76072571D01*
X204380970Y-76095671D01*
X204370480Y-76117849D01*
X204357867Y-76138893D01*
X204343253Y-76158598D01*
X204326777Y-76176777D01*
X204308598Y-76193253D01*
X204288893Y-76207867D01*
X204267849Y-76220480D01*
X204245671Y-76230970D01*
X204222571Y-76239235D01*
X204198773Y-76245196D01*
X204174504Y-76248796D01*
X204150000Y-76250000D01*
X203050000Y-76250000D01*
X203025496Y-76248796D01*
X203001227Y-76245196D01*
X202977429Y-76239235D01*
X202954329Y-76230970D01*
X202932151Y-76220480D01*
X202911107Y-76207867D01*
X202891402Y-76193253D01*
X202873223Y-76176777D01*
X202856747Y-76158598D01*
X202842133Y-76138893D01*
X202829520Y-76117849D01*
X202819030Y-76095671D01*
X202810765Y-76072571D01*
X202804804Y-76048773D01*
X202801204Y-76024504D01*
X202800000Y-76000000D01*
X202800000Y-73500000D01*
X202801204Y-73475496D01*
X202804804Y-73451227D01*
X202810765Y-73427429D01*
X202819030Y-73404329D01*
X202829520Y-73382151D01*
X202842133Y-73361107D01*
X202856747Y-73341402D01*
X202873223Y-73323223D01*
X202891402Y-73306747D01*
X202911107Y-73292133D01*
X202932151Y-73279520D01*
X202954329Y-73269030D01*
X202977429Y-73260765D01*
X203001227Y-73254804D01*
X203025496Y-73251204D01*
X203050000Y-73250000D01*
X204150000Y-73250000D01*
X204174504Y-73251204D01*
X204174504Y-73251204D01*
G37*
D12*
X203600000Y-74750000D03*
D13*
X212250000Y-82850000D03*
X214750000Y-82850000D03*
D14*
X211300000Y-88000000D03*
X213200000Y-88000000D03*
X212250000Y-86000000D03*
D10*
G36*
X206374505Y-78301204D02*
G01*
X206398773Y-78304804D01*
X206422572Y-78310765D01*
X206445671Y-78319030D01*
X206467850Y-78329520D01*
X206488893Y-78342132D01*
X206508599Y-78356747D01*
X206526777Y-78373223D01*
X206543253Y-78391401D01*
X206557868Y-78411107D01*
X206570480Y-78432150D01*
X206580970Y-78454329D01*
X206589235Y-78477428D01*
X206595196Y-78501227D01*
X206598796Y-78525495D01*
X206600000Y-78549999D01*
X206600000Y-79450001D01*
X206598796Y-79474505D01*
X206595196Y-79498773D01*
X206589235Y-79522572D01*
X206580970Y-79545671D01*
X206570480Y-79567850D01*
X206557868Y-79588893D01*
X206543253Y-79608599D01*
X206526777Y-79626777D01*
X206508599Y-79643253D01*
X206488893Y-79657868D01*
X206467850Y-79670480D01*
X206445671Y-79680970D01*
X206422572Y-79689235D01*
X206398773Y-79695196D01*
X206374505Y-79698796D01*
X206350001Y-79700000D01*
X205699999Y-79700000D01*
X205675495Y-79698796D01*
X205651227Y-79695196D01*
X205627428Y-79689235D01*
X205604329Y-79680970D01*
X205582150Y-79670480D01*
X205561107Y-79657868D01*
X205541401Y-79643253D01*
X205523223Y-79626777D01*
X205506747Y-79608599D01*
X205492132Y-79588893D01*
X205479520Y-79567850D01*
X205469030Y-79545671D01*
X205460765Y-79522572D01*
X205454804Y-79498773D01*
X205451204Y-79474505D01*
X205450000Y-79450001D01*
X205450000Y-78549999D01*
X205451204Y-78525495D01*
X205454804Y-78501227D01*
X205460765Y-78477428D01*
X205469030Y-78454329D01*
X205479520Y-78432150D01*
X205492132Y-78411107D01*
X205506747Y-78391401D01*
X205523223Y-78373223D01*
X205541401Y-78356747D01*
X205561107Y-78342132D01*
X205582150Y-78329520D01*
X205604329Y-78319030D01*
X205627428Y-78310765D01*
X205651227Y-78304804D01*
X205675495Y-78301204D01*
X205699999Y-78300000D01*
X206350001Y-78300000D01*
X206374505Y-78301204D01*
X206374505Y-78301204D01*
G37*
D15*
X206025000Y-79000000D03*
D10*
G36*
X204324505Y-78301204D02*
G01*
X204348773Y-78304804D01*
X204372572Y-78310765D01*
X204395671Y-78319030D01*
X204417850Y-78329520D01*
X204438893Y-78342132D01*
X204458599Y-78356747D01*
X204476777Y-78373223D01*
X204493253Y-78391401D01*
X204507868Y-78411107D01*
X204520480Y-78432150D01*
X204530970Y-78454329D01*
X204539235Y-78477428D01*
X204545196Y-78501227D01*
X204548796Y-78525495D01*
X204550000Y-78549999D01*
X204550000Y-79450001D01*
X204548796Y-79474505D01*
X204545196Y-79498773D01*
X204539235Y-79522572D01*
X204530970Y-79545671D01*
X204520480Y-79567850D01*
X204507868Y-79588893D01*
X204493253Y-79608599D01*
X204476777Y-79626777D01*
X204458599Y-79643253D01*
X204438893Y-79657868D01*
X204417850Y-79670480D01*
X204395671Y-79680970D01*
X204372572Y-79689235D01*
X204348773Y-79695196D01*
X204324505Y-79698796D01*
X204300001Y-79700000D01*
X203649999Y-79700000D01*
X203625495Y-79698796D01*
X203601227Y-79695196D01*
X203577428Y-79689235D01*
X203554329Y-79680970D01*
X203532150Y-79670480D01*
X203511107Y-79657868D01*
X203491401Y-79643253D01*
X203473223Y-79626777D01*
X203456747Y-79608599D01*
X203442132Y-79588893D01*
X203429520Y-79567850D01*
X203419030Y-79545671D01*
X203410765Y-79522572D01*
X203404804Y-79498773D01*
X203401204Y-79474505D01*
X203400000Y-79450001D01*
X203400000Y-78549999D01*
X203401204Y-78525495D01*
X203404804Y-78501227D01*
X203410765Y-78477428D01*
X203419030Y-78454329D01*
X203429520Y-78432150D01*
X203442132Y-78411107D01*
X203456747Y-78391401D01*
X203473223Y-78373223D01*
X203491401Y-78356747D01*
X203511107Y-78342132D01*
X203532150Y-78329520D01*
X203554329Y-78319030D01*
X203577428Y-78310765D01*
X203601227Y-78304804D01*
X203625495Y-78301204D01*
X203649999Y-78300000D01*
X204300001Y-78300000D01*
X204324505Y-78301204D01*
X204324505Y-78301204D01*
G37*
D15*
X203975000Y-79000000D03*
D10*
G36*
X210874505Y-78051204D02*
G01*
X210898773Y-78054804D01*
X210922572Y-78060765D01*
X210945671Y-78069030D01*
X210967850Y-78079520D01*
X210988893Y-78092132D01*
X211008599Y-78106747D01*
X211026777Y-78123223D01*
X211043253Y-78141401D01*
X211057868Y-78161107D01*
X211070480Y-78182150D01*
X211080970Y-78204329D01*
X211089235Y-78227428D01*
X211095196Y-78251227D01*
X211098796Y-78275495D01*
X211100000Y-78299999D01*
X211100000Y-79200001D01*
X211098796Y-79224505D01*
X211095196Y-79248773D01*
X211089235Y-79272572D01*
X211080970Y-79295671D01*
X211070480Y-79317850D01*
X211057868Y-79338893D01*
X211043253Y-79358599D01*
X211026777Y-79376777D01*
X211008599Y-79393253D01*
X210988893Y-79407868D01*
X210967850Y-79420480D01*
X210945671Y-79430970D01*
X210922572Y-79439235D01*
X210898773Y-79445196D01*
X210874505Y-79448796D01*
X210850001Y-79450000D01*
X210199999Y-79450000D01*
X210175495Y-79448796D01*
X210151227Y-79445196D01*
X210127428Y-79439235D01*
X210104329Y-79430970D01*
X210082150Y-79420480D01*
X210061107Y-79407868D01*
X210041401Y-79393253D01*
X210023223Y-79376777D01*
X210006747Y-79358599D01*
X209992132Y-79338893D01*
X209979520Y-79317850D01*
X209969030Y-79295671D01*
X209960765Y-79272572D01*
X209954804Y-79248773D01*
X209951204Y-79224505D01*
X209950000Y-79200001D01*
X209950000Y-78299999D01*
X209951204Y-78275495D01*
X209954804Y-78251227D01*
X209960765Y-78227428D01*
X209969030Y-78204329D01*
X209979520Y-78182150D01*
X209992132Y-78161107D01*
X210006747Y-78141401D01*
X210023223Y-78123223D01*
X210041401Y-78106747D01*
X210061107Y-78092132D01*
X210082150Y-78079520D01*
X210104329Y-78069030D01*
X210127428Y-78060765D01*
X210151227Y-78054804D01*
X210175495Y-78051204D01*
X210199999Y-78050000D01*
X210850001Y-78050000D01*
X210874505Y-78051204D01*
X210874505Y-78051204D01*
G37*
D15*
X210525000Y-78750000D03*
D10*
G36*
X208824505Y-78051204D02*
G01*
X208848773Y-78054804D01*
X208872572Y-78060765D01*
X208895671Y-78069030D01*
X208917850Y-78079520D01*
X208938893Y-78092132D01*
X208958599Y-78106747D01*
X208976777Y-78123223D01*
X208993253Y-78141401D01*
X209007868Y-78161107D01*
X209020480Y-78182150D01*
X209030970Y-78204329D01*
X209039235Y-78227428D01*
X209045196Y-78251227D01*
X209048796Y-78275495D01*
X209050000Y-78299999D01*
X209050000Y-79200001D01*
X209048796Y-79224505D01*
X209045196Y-79248773D01*
X209039235Y-79272572D01*
X209030970Y-79295671D01*
X209020480Y-79317850D01*
X209007868Y-79338893D01*
X208993253Y-79358599D01*
X208976777Y-79376777D01*
X208958599Y-79393253D01*
X208938893Y-79407868D01*
X208917850Y-79420480D01*
X208895671Y-79430970D01*
X208872572Y-79439235D01*
X208848773Y-79445196D01*
X208824505Y-79448796D01*
X208800001Y-79450000D01*
X208149999Y-79450000D01*
X208125495Y-79448796D01*
X208101227Y-79445196D01*
X208077428Y-79439235D01*
X208054329Y-79430970D01*
X208032150Y-79420480D01*
X208011107Y-79407868D01*
X207991401Y-79393253D01*
X207973223Y-79376777D01*
X207956747Y-79358599D01*
X207942132Y-79338893D01*
X207929520Y-79317850D01*
X207919030Y-79295671D01*
X207910765Y-79272572D01*
X207904804Y-79248773D01*
X207901204Y-79224505D01*
X207900000Y-79200001D01*
X207900000Y-78299999D01*
X207901204Y-78275495D01*
X207904804Y-78251227D01*
X207910765Y-78227428D01*
X207919030Y-78204329D01*
X207929520Y-78182150D01*
X207942132Y-78161107D01*
X207956747Y-78141401D01*
X207973223Y-78123223D01*
X207991401Y-78106747D01*
X208011107Y-78092132D01*
X208032150Y-78079520D01*
X208054329Y-78069030D01*
X208077428Y-78060765D01*
X208101227Y-78054804D01*
X208125495Y-78051204D01*
X208149999Y-78050000D01*
X208800001Y-78050000D01*
X208824505Y-78051204D01*
X208824505Y-78051204D01*
G37*
D15*
X208475000Y-78750000D03*
D10*
G36*
X214674505Y-78151204D02*
G01*
X214698773Y-78154804D01*
X214722572Y-78160765D01*
X214745671Y-78169030D01*
X214767850Y-78179520D01*
X214788893Y-78192132D01*
X214808599Y-78206747D01*
X214826777Y-78223223D01*
X214843253Y-78241401D01*
X214857868Y-78261107D01*
X214870480Y-78282150D01*
X214880970Y-78304329D01*
X214889235Y-78327428D01*
X214895196Y-78351227D01*
X214898796Y-78375495D01*
X214900000Y-78399999D01*
X214900000Y-79300001D01*
X214898796Y-79324505D01*
X214895196Y-79348773D01*
X214889235Y-79372572D01*
X214880970Y-79395671D01*
X214870480Y-79417850D01*
X214857868Y-79438893D01*
X214843253Y-79458599D01*
X214826777Y-79476777D01*
X214808599Y-79493253D01*
X214788893Y-79507868D01*
X214767850Y-79520480D01*
X214745671Y-79530970D01*
X214722572Y-79539235D01*
X214698773Y-79545196D01*
X214674505Y-79548796D01*
X214650001Y-79550000D01*
X213999999Y-79550000D01*
X213975495Y-79548796D01*
X213951227Y-79545196D01*
X213927428Y-79539235D01*
X213904329Y-79530970D01*
X213882150Y-79520480D01*
X213861107Y-79507868D01*
X213841401Y-79493253D01*
X213823223Y-79476777D01*
X213806747Y-79458599D01*
X213792132Y-79438893D01*
X213779520Y-79417850D01*
X213769030Y-79395671D01*
X213760765Y-79372572D01*
X213754804Y-79348773D01*
X213751204Y-79324505D01*
X213750000Y-79300001D01*
X213750000Y-78399999D01*
X213751204Y-78375495D01*
X213754804Y-78351227D01*
X213760765Y-78327428D01*
X213769030Y-78304329D01*
X213779520Y-78282150D01*
X213792132Y-78261107D01*
X213806747Y-78241401D01*
X213823223Y-78223223D01*
X213841401Y-78206747D01*
X213861107Y-78192132D01*
X213882150Y-78179520D01*
X213904329Y-78169030D01*
X213927428Y-78160765D01*
X213951227Y-78154804D01*
X213975495Y-78151204D01*
X213999999Y-78150000D01*
X214650001Y-78150000D01*
X214674505Y-78151204D01*
X214674505Y-78151204D01*
G37*
D15*
X214325000Y-78850000D03*
D10*
G36*
X212624505Y-78151204D02*
G01*
X212648773Y-78154804D01*
X212672572Y-78160765D01*
X212695671Y-78169030D01*
X212717850Y-78179520D01*
X212738893Y-78192132D01*
X212758599Y-78206747D01*
X212776777Y-78223223D01*
X212793253Y-78241401D01*
X212807868Y-78261107D01*
X212820480Y-78282150D01*
X212830970Y-78304329D01*
X212839235Y-78327428D01*
X212845196Y-78351227D01*
X212848796Y-78375495D01*
X212850000Y-78399999D01*
X212850000Y-79300001D01*
X212848796Y-79324505D01*
X212845196Y-79348773D01*
X212839235Y-79372572D01*
X212830970Y-79395671D01*
X212820480Y-79417850D01*
X212807868Y-79438893D01*
X212793253Y-79458599D01*
X212776777Y-79476777D01*
X212758599Y-79493253D01*
X212738893Y-79507868D01*
X212717850Y-79520480D01*
X212695671Y-79530970D01*
X212672572Y-79539235D01*
X212648773Y-79545196D01*
X212624505Y-79548796D01*
X212600001Y-79550000D01*
X211949999Y-79550000D01*
X211925495Y-79548796D01*
X211901227Y-79545196D01*
X211877428Y-79539235D01*
X211854329Y-79530970D01*
X211832150Y-79520480D01*
X211811107Y-79507868D01*
X211791401Y-79493253D01*
X211773223Y-79476777D01*
X211756747Y-79458599D01*
X211742132Y-79438893D01*
X211729520Y-79417850D01*
X211719030Y-79395671D01*
X211710765Y-79372572D01*
X211704804Y-79348773D01*
X211701204Y-79324505D01*
X211700000Y-79300001D01*
X211700000Y-78399999D01*
X211701204Y-78375495D01*
X211704804Y-78351227D01*
X211710765Y-78327428D01*
X211719030Y-78304329D01*
X211729520Y-78282150D01*
X211742132Y-78261107D01*
X211756747Y-78241401D01*
X211773223Y-78223223D01*
X211791401Y-78206747D01*
X211811107Y-78192132D01*
X211832150Y-78179520D01*
X211854329Y-78169030D01*
X211877428Y-78160765D01*
X211901227Y-78154804D01*
X211925495Y-78151204D01*
X211949999Y-78150000D01*
X212600001Y-78150000D01*
X212624505Y-78151204D01*
X212624505Y-78151204D01*
G37*
D15*
X212275000Y-78850000D03*
D16*
X216550000Y-85150000D03*
X216550000Y-87050000D03*
X218650000Y-86100000D03*
D10*
G36*
X206074505Y-98401204D02*
G01*
X206098773Y-98404804D01*
X206122572Y-98410765D01*
X206145671Y-98419030D01*
X206167850Y-98429520D01*
X206188893Y-98442132D01*
X206208599Y-98456747D01*
X206226777Y-98473223D01*
X206243253Y-98491401D01*
X206257868Y-98511107D01*
X206270480Y-98532150D01*
X206280970Y-98554329D01*
X206289235Y-98577428D01*
X206295196Y-98601227D01*
X206298796Y-98625495D01*
X206300000Y-98649999D01*
X206300000Y-99550001D01*
X206298796Y-99574505D01*
X206295196Y-99598773D01*
X206289235Y-99622572D01*
X206280970Y-99645671D01*
X206270480Y-99667850D01*
X206257868Y-99688893D01*
X206243253Y-99708599D01*
X206226777Y-99726777D01*
X206208599Y-99743253D01*
X206188893Y-99757868D01*
X206167850Y-99770480D01*
X206145671Y-99780970D01*
X206122572Y-99789235D01*
X206098773Y-99795196D01*
X206074505Y-99798796D01*
X206050001Y-99800000D01*
X205399999Y-99800000D01*
X205375495Y-99798796D01*
X205351227Y-99795196D01*
X205327428Y-99789235D01*
X205304329Y-99780970D01*
X205282150Y-99770480D01*
X205261107Y-99757868D01*
X205241401Y-99743253D01*
X205223223Y-99726777D01*
X205206747Y-99708599D01*
X205192132Y-99688893D01*
X205179520Y-99667850D01*
X205169030Y-99645671D01*
X205160765Y-99622572D01*
X205154804Y-99598773D01*
X205151204Y-99574505D01*
X205150000Y-99550001D01*
X205150000Y-98649999D01*
X205151204Y-98625495D01*
X205154804Y-98601227D01*
X205160765Y-98577428D01*
X205169030Y-98554329D01*
X205179520Y-98532150D01*
X205192132Y-98511107D01*
X205206747Y-98491401D01*
X205223223Y-98473223D01*
X205241401Y-98456747D01*
X205261107Y-98442132D01*
X205282150Y-98429520D01*
X205304329Y-98419030D01*
X205327428Y-98410765D01*
X205351227Y-98404804D01*
X205375495Y-98401204D01*
X205399999Y-98400000D01*
X206050001Y-98400000D01*
X206074505Y-98401204D01*
X206074505Y-98401204D01*
G37*
D15*
X205725000Y-99100000D03*
D10*
G36*
X204024505Y-98401204D02*
G01*
X204048773Y-98404804D01*
X204072572Y-98410765D01*
X204095671Y-98419030D01*
X204117850Y-98429520D01*
X204138893Y-98442132D01*
X204158599Y-98456747D01*
X204176777Y-98473223D01*
X204193253Y-98491401D01*
X204207868Y-98511107D01*
X204220480Y-98532150D01*
X204230970Y-98554329D01*
X204239235Y-98577428D01*
X204245196Y-98601227D01*
X204248796Y-98625495D01*
X204250000Y-98649999D01*
X204250000Y-99550001D01*
X204248796Y-99574505D01*
X204245196Y-99598773D01*
X204239235Y-99622572D01*
X204230970Y-99645671D01*
X204220480Y-99667850D01*
X204207868Y-99688893D01*
X204193253Y-99708599D01*
X204176777Y-99726777D01*
X204158599Y-99743253D01*
X204138893Y-99757868D01*
X204117850Y-99770480D01*
X204095671Y-99780970D01*
X204072572Y-99789235D01*
X204048773Y-99795196D01*
X204024505Y-99798796D01*
X204000001Y-99800000D01*
X203349999Y-99800000D01*
X203325495Y-99798796D01*
X203301227Y-99795196D01*
X203277428Y-99789235D01*
X203254329Y-99780970D01*
X203232150Y-99770480D01*
X203211107Y-99757868D01*
X203191401Y-99743253D01*
X203173223Y-99726777D01*
X203156747Y-99708599D01*
X203142132Y-99688893D01*
X203129520Y-99667850D01*
X203119030Y-99645671D01*
X203110765Y-99622572D01*
X203104804Y-99598773D01*
X203101204Y-99574505D01*
X203100000Y-99550001D01*
X203100000Y-98649999D01*
X203101204Y-98625495D01*
X203104804Y-98601227D01*
X203110765Y-98577428D01*
X203119030Y-98554329D01*
X203129520Y-98532150D01*
X203142132Y-98511107D01*
X203156747Y-98491401D01*
X203173223Y-98473223D01*
X203191401Y-98456747D01*
X203211107Y-98442132D01*
X203232150Y-98429520D01*
X203254329Y-98419030D01*
X203277428Y-98410765D01*
X203301227Y-98404804D01*
X203325495Y-98401204D01*
X203349999Y-98400000D01*
X204000001Y-98400000D01*
X204024505Y-98401204D01*
X204024505Y-98401204D01*
G37*
D15*
X203675000Y-99100000D03*
D13*
X203450000Y-96100000D03*
X205950000Y-96100000D03*
D17*
X217250000Y-90700000D03*
X218200000Y-92800000D03*
X216300000Y-92800000D03*
D18*
X213500000Y-92700000D03*
X213500000Y-90800000D03*
X211500000Y-91750000D03*
D10*
G36*
X206124505Y-90301204D02*
G01*
X206148773Y-90304804D01*
X206172572Y-90310765D01*
X206195671Y-90319030D01*
X206217850Y-90329520D01*
X206238893Y-90342132D01*
X206258599Y-90356747D01*
X206276777Y-90373223D01*
X206293253Y-90391401D01*
X206307868Y-90411107D01*
X206320480Y-90432150D01*
X206330970Y-90454329D01*
X206339235Y-90477428D01*
X206345196Y-90501227D01*
X206348796Y-90525495D01*
X206350000Y-90549999D01*
X206350000Y-91450001D01*
X206348796Y-91474505D01*
X206345196Y-91498773D01*
X206339235Y-91522572D01*
X206330970Y-91545671D01*
X206320480Y-91567850D01*
X206307868Y-91588893D01*
X206293253Y-91608599D01*
X206276777Y-91626777D01*
X206258599Y-91643253D01*
X206238893Y-91657868D01*
X206217850Y-91670480D01*
X206195671Y-91680970D01*
X206172572Y-91689235D01*
X206148773Y-91695196D01*
X206124505Y-91698796D01*
X206100001Y-91700000D01*
X205449999Y-91700000D01*
X205425495Y-91698796D01*
X205401227Y-91695196D01*
X205377428Y-91689235D01*
X205354329Y-91680970D01*
X205332150Y-91670480D01*
X205311107Y-91657868D01*
X205291401Y-91643253D01*
X205273223Y-91626777D01*
X205256747Y-91608599D01*
X205242132Y-91588893D01*
X205229520Y-91567850D01*
X205219030Y-91545671D01*
X205210765Y-91522572D01*
X205204804Y-91498773D01*
X205201204Y-91474505D01*
X205200000Y-91450001D01*
X205200000Y-90549999D01*
X205201204Y-90525495D01*
X205204804Y-90501227D01*
X205210765Y-90477428D01*
X205219030Y-90454329D01*
X205229520Y-90432150D01*
X205242132Y-90411107D01*
X205256747Y-90391401D01*
X205273223Y-90373223D01*
X205291401Y-90356747D01*
X205311107Y-90342132D01*
X205332150Y-90329520D01*
X205354329Y-90319030D01*
X205377428Y-90310765D01*
X205401227Y-90304804D01*
X205425495Y-90301204D01*
X205449999Y-90300000D01*
X206100001Y-90300000D01*
X206124505Y-90301204D01*
X206124505Y-90301204D01*
G37*
D15*
X205775000Y-91000000D03*
D10*
G36*
X204074505Y-90301204D02*
G01*
X204098773Y-90304804D01*
X204122572Y-90310765D01*
X204145671Y-90319030D01*
X204167850Y-90329520D01*
X204188893Y-90342132D01*
X204208599Y-90356747D01*
X204226777Y-90373223D01*
X204243253Y-90391401D01*
X204257868Y-90411107D01*
X204270480Y-90432150D01*
X204280970Y-90454329D01*
X204289235Y-90477428D01*
X204295196Y-90501227D01*
X204298796Y-90525495D01*
X204300000Y-90549999D01*
X204300000Y-91450001D01*
X204298796Y-91474505D01*
X204295196Y-91498773D01*
X204289235Y-91522572D01*
X204280970Y-91545671D01*
X204270480Y-91567850D01*
X204257868Y-91588893D01*
X204243253Y-91608599D01*
X204226777Y-91626777D01*
X204208599Y-91643253D01*
X204188893Y-91657868D01*
X204167850Y-91670480D01*
X204145671Y-91680970D01*
X204122572Y-91689235D01*
X204098773Y-91695196D01*
X204074505Y-91698796D01*
X204050001Y-91700000D01*
X203399999Y-91700000D01*
X203375495Y-91698796D01*
X203351227Y-91695196D01*
X203327428Y-91689235D01*
X203304329Y-91680970D01*
X203282150Y-91670480D01*
X203261107Y-91657868D01*
X203241401Y-91643253D01*
X203223223Y-91626777D01*
X203206747Y-91608599D01*
X203192132Y-91588893D01*
X203179520Y-91567850D01*
X203169030Y-91545671D01*
X203160765Y-91522572D01*
X203154804Y-91498773D01*
X203151204Y-91474505D01*
X203150000Y-91450001D01*
X203150000Y-90549999D01*
X203151204Y-90525495D01*
X203154804Y-90501227D01*
X203160765Y-90477428D01*
X203169030Y-90454329D01*
X203179520Y-90432150D01*
X203192132Y-90411107D01*
X203206747Y-90391401D01*
X203223223Y-90373223D01*
X203241401Y-90356747D01*
X203261107Y-90342132D01*
X203282150Y-90329520D01*
X203304329Y-90319030D01*
X203327428Y-90310765D01*
X203351227Y-90304804D01*
X203375495Y-90301204D01*
X203399999Y-90300000D01*
X204050001Y-90300000D01*
X204074505Y-90301204D01*
X204074505Y-90301204D01*
G37*
D15*
X203725000Y-91000000D03*
D10*
G36*
X210574505Y-94801204D02*
G01*
X210598773Y-94804804D01*
X210622572Y-94810765D01*
X210645671Y-94819030D01*
X210667850Y-94829520D01*
X210688893Y-94842132D01*
X210708599Y-94856747D01*
X210726777Y-94873223D01*
X210743253Y-94891401D01*
X210757868Y-94911107D01*
X210770480Y-94932150D01*
X210780970Y-94954329D01*
X210789235Y-94977428D01*
X210795196Y-95001227D01*
X210798796Y-95025495D01*
X210800000Y-95049999D01*
X210800000Y-95950001D01*
X210798796Y-95974505D01*
X210795196Y-95998773D01*
X210789235Y-96022572D01*
X210780970Y-96045671D01*
X210770480Y-96067850D01*
X210757868Y-96088893D01*
X210743253Y-96108599D01*
X210726777Y-96126777D01*
X210708599Y-96143253D01*
X210688893Y-96157868D01*
X210667850Y-96170480D01*
X210645671Y-96180970D01*
X210622572Y-96189235D01*
X210598773Y-96195196D01*
X210574505Y-96198796D01*
X210550001Y-96200000D01*
X209899999Y-96200000D01*
X209875495Y-96198796D01*
X209851227Y-96195196D01*
X209827428Y-96189235D01*
X209804329Y-96180970D01*
X209782150Y-96170480D01*
X209761107Y-96157868D01*
X209741401Y-96143253D01*
X209723223Y-96126777D01*
X209706747Y-96108599D01*
X209692132Y-96088893D01*
X209679520Y-96067850D01*
X209669030Y-96045671D01*
X209660765Y-96022572D01*
X209654804Y-95998773D01*
X209651204Y-95974505D01*
X209650000Y-95950001D01*
X209650000Y-95049999D01*
X209651204Y-95025495D01*
X209654804Y-95001227D01*
X209660765Y-94977428D01*
X209669030Y-94954329D01*
X209679520Y-94932150D01*
X209692132Y-94911107D01*
X209706747Y-94891401D01*
X209723223Y-94873223D01*
X209741401Y-94856747D01*
X209761107Y-94842132D01*
X209782150Y-94829520D01*
X209804329Y-94819030D01*
X209827428Y-94810765D01*
X209851227Y-94804804D01*
X209875495Y-94801204D01*
X209899999Y-94800000D01*
X210550001Y-94800000D01*
X210574505Y-94801204D01*
X210574505Y-94801204D01*
G37*
D15*
X210225000Y-95500000D03*
D10*
G36*
X212624505Y-94801204D02*
G01*
X212648773Y-94804804D01*
X212672572Y-94810765D01*
X212695671Y-94819030D01*
X212717850Y-94829520D01*
X212738893Y-94842132D01*
X212758599Y-94856747D01*
X212776777Y-94873223D01*
X212793253Y-94891401D01*
X212807868Y-94911107D01*
X212820480Y-94932150D01*
X212830970Y-94954329D01*
X212839235Y-94977428D01*
X212845196Y-95001227D01*
X212848796Y-95025495D01*
X212850000Y-95049999D01*
X212850000Y-95950001D01*
X212848796Y-95974505D01*
X212845196Y-95998773D01*
X212839235Y-96022572D01*
X212830970Y-96045671D01*
X212820480Y-96067850D01*
X212807868Y-96088893D01*
X212793253Y-96108599D01*
X212776777Y-96126777D01*
X212758599Y-96143253D01*
X212738893Y-96157868D01*
X212717850Y-96170480D01*
X212695671Y-96180970D01*
X212672572Y-96189235D01*
X212648773Y-96195196D01*
X212624505Y-96198796D01*
X212600001Y-96200000D01*
X211949999Y-96200000D01*
X211925495Y-96198796D01*
X211901227Y-96195196D01*
X211877428Y-96189235D01*
X211854329Y-96180970D01*
X211832150Y-96170480D01*
X211811107Y-96157868D01*
X211791401Y-96143253D01*
X211773223Y-96126777D01*
X211756747Y-96108599D01*
X211742132Y-96088893D01*
X211729520Y-96067850D01*
X211719030Y-96045671D01*
X211710765Y-96022572D01*
X211704804Y-95998773D01*
X211701204Y-95974505D01*
X211700000Y-95950001D01*
X211700000Y-95049999D01*
X211701204Y-95025495D01*
X211704804Y-95001227D01*
X211710765Y-94977428D01*
X211719030Y-94954329D01*
X211729520Y-94932150D01*
X211742132Y-94911107D01*
X211756747Y-94891401D01*
X211773223Y-94873223D01*
X211791401Y-94856747D01*
X211811107Y-94842132D01*
X211832150Y-94829520D01*
X211854329Y-94819030D01*
X211877428Y-94810765D01*
X211901227Y-94804804D01*
X211925495Y-94801204D01*
X211949999Y-94800000D01*
X212600001Y-94800000D01*
X212624505Y-94801204D01*
X212624505Y-94801204D01*
G37*
D15*
X212275000Y-95500000D03*
D10*
G36*
X214674505Y-80151204D02*
G01*
X214698773Y-80154804D01*
X214722572Y-80160765D01*
X214745671Y-80169030D01*
X214767850Y-80179520D01*
X214788893Y-80192132D01*
X214808599Y-80206747D01*
X214826777Y-80223223D01*
X214843253Y-80241401D01*
X214857868Y-80261107D01*
X214870480Y-80282150D01*
X214880970Y-80304329D01*
X214889235Y-80327428D01*
X214895196Y-80351227D01*
X214898796Y-80375495D01*
X214900000Y-80399999D01*
X214900000Y-81300001D01*
X214898796Y-81324505D01*
X214895196Y-81348773D01*
X214889235Y-81372572D01*
X214880970Y-81395671D01*
X214870480Y-81417850D01*
X214857868Y-81438893D01*
X214843253Y-81458599D01*
X214826777Y-81476777D01*
X214808599Y-81493253D01*
X214788893Y-81507868D01*
X214767850Y-81520480D01*
X214745671Y-81530970D01*
X214722572Y-81539235D01*
X214698773Y-81545196D01*
X214674505Y-81548796D01*
X214650001Y-81550000D01*
X213999999Y-81550000D01*
X213975495Y-81548796D01*
X213951227Y-81545196D01*
X213927428Y-81539235D01*
X213904329Y-81530970D01*
X213882150Y-81520480D01*
X213861107Y-81507868D01*
X213841401Y-81493253D01*
X213823223Y-81476777D01*
X213806747Y-81458599D01*
X213792132Y-81438893D01*
X213779520Y-81417850D01*
X213769030Y-81395671D01*
X213760765Y-81372572D01*
X213754804Y-81348773D01*
X213751204Y-81324505D01*
X213750000Y-81300001D01*
X213750000Y-80399999D01*
X213751204Y-80375495D01*
X213754804Y-80351227D01*
X213760765Y-80327428D01*
X213769030Y-80304329D01*
X213779520Y-80282150D01*
X213792132Y-80261107D01*
X213806747Y-80241401D01*
X213823223Y-80223223D01*
X213841401Y-80206747D01*
X213861107Y-80192132D01*
X213882150Y-80179520D01*
X213904329Y-80169030D01*
X213927428Y-80160765D01*
X213951227Y-80154804D01*
X213975495Y-80151204D01*
X213999999Y-80150000D01*
X214650001Y-80150000D01*
X214674505Y-80151204D01*
X214674505Y-80151204D01*
G37*
D15*
X214325000Y-80850000D03*
D10*
G36*
X212624505Y-80151204D02*
G01*
X212648773Y-80154804D01*
X212672572Y-80160765D01*
X212695671Y-80169030D01*
X212717850Y-80179520D01*
X212738893Y-80192132D01*
X212758599Y-80206747D01*
X212776777Y-80223223D01*
X212793253Y-80241401D01*
X212807868Y-80261107D01*
X212820480Y-80282150D01*
X212830970Y-80304329D01*
X212839235Y-80327428D01*
X212845196Y-80351227D01*
X212848796Y-80375495D01*
X212850000Y-80399999D01*
X212850000Y-81300001D01*
X212848796Y-81324505D01*
X212845196Y-81348773D01*
X212839235Y-81372572D01*
X212830970Y-81395671D01*
X212820480Y-81417850D01*
X212807868Y-81438893D01*
X212793253Y-81458599D01*
X212776777Y-81476777D01*
X212758599Y-81493253D01*
X212738893Y-81507868D01*
X212717850Y-81520480D01*
X212695671Y-81530970D01*
X212672572Y-81539235D01*
X212648773Y-81545196D01*
X212624505Y-81548796D01*
X212600001Y-81550000D01*
X211949999Y-81550000D01*
X211925495Y-81548796D01*
X211901227Y-81545196D01*
X211877428Y-81539235D01*
X211854329Y-81530970D01*
X211832150Y-81520480D01*
X211811107Y-81507868D01*
X211791401Y-81493253D01*
X211773223Y-81476777D01*
X211756747Y-81458599D01*
X211742132Y-81438893D01*
X211729520Y-81417850D01*
X211719030Y-81395671D01*
X211710765Y-81372572D01*
X211704804Y-81348773D01*
X211701204Y-81324505D01*
X211700000Y-81300001D01*
X211700000Y-80399999D01*
X211701204Y-80375495D01*
X211704804Y-80351227D01*
X211710765Y-80327428D01*
X211719030Y-80304329D01*
X211729520Y-80282150D01*
X211742132Y-80261107D01*
X211756747Y-80241401D01*
X211773223Y-80223223D01*
X211791401Y-80206747D01*
X211811107Y-80192132D01*
X211832150Y-80179520D01*
X211854329Y-80169030D01*
X211877428Y-80160765D01*
X211901227Y-80154804D01*
X211925495Y-80151204D01*
X211949999Y-80150000D01*
X212600001Y-80150000D01*
X212624505Y-80151204D01*
X212624505Y-80151204D01*
G37*
D15*
X212275000Y-80850000D03*
D10*
G36*
X219224505Y-78901204D02*
G01*
X219248773Y-78904804D01*
X219272572Y-78910765D01*
X219295671Y-78919030D01*
X219317850Y-78929520D01*
X219338893Y-78942132D01*
X219358599Y-78956747D01*
X219376777Y-78973223D01*
X219393253Y-78991401D01*
X219407868Y-79011107D01*
X219420480Y-79032150D01*
X219430970Y-79054329D01*
X219439235Y-79077428D01*
X219445196Y-79101227D01*
X219448796Y-79125495D01*
X219450000Y-79149999D01*
X219450000Y-79800001D01*
X219448796Y-79824505D01*
X219445196Y-79848773D01*
X219439235Y-79872572D01*
X219430970Y-79895671D01*
X219420480Y-79917850D01*
X219407868Y-79938893D01*
X219393253Y-79958599D01*
X219376777Y-79976777D01*
X219358599Y-79993253D01*
X219338893Y-80007868D01*
X219317850Y-80020480D01*
X219295671Y-80030970D01*
X219272572Y-80039235D01*
X219248773Y-80045196D01*
X219224505Y-80048796D01*
X219200001Y-80050000D01*
X218299999Y-80050000D01*
X218275495Y-80048796D01*
X218251227Y-80045196D01*
X218227428Y-80039235D01*
X218204329Y-80030970D01*
X218182150Y-80020480D01*
X218161107Y-80007868D01*
X218141401Y-79993253D01*
X218123223Y-79976777D01*
X218106747Y-79958599D01*
X218092132Y-79938893D01*
X218079520Y-79917850D01*
X218069030Y-79895671D01*
X218060765Y-79872572D01*
X218054804Y-79848773D01*
X218051204Y-79824505D01*
X218050000Y-79800001D01*
X218050000Y-79149999D01*
X218051204Y-79125495D01*
X218054804Y-79101227D01*
X218060765Y-79077428D01*
X218069030Y-79054329D01*
X218079520Y-79032150D01*
X218092132Y-79011107D01*
X218106747Y-78991401D01*
X218123223Y-78973223D01*
X218141401Y-78956747D01*
X218161107Y-78942132D01*
X218182150Y-78929520D01*
X218204329Y-78919030D01*
X218227428Y-78910765D01*
X218251227Y-78904804D01*
X218275495Y-78901204D01*
X218299999Y-78900000D01*
X219200001Y-78900000D01*
X219224505Y-78901204D01*
X219224505Y-78901204D01*
G37*
D15*
X218750000Y-79475000D03*
D10*
G36*
X219224505Y-80951204D02*
G01*
X219248773Y-80954804D01*
X219272572Y-80960765D01*
X219295671Y-80969030D01*
X219317850Y-80979520D01*
X219338893Y-80992132D01*
X219358599Y-81006747D01*
X219376777Y-81023223D01*
X219393253Y-81041401D01*
X219407868Y-81061107D01*
X219420480Y-81082150D01*
X219430970Y-81104329D01*
X219439235Y-81127428D01*
X219445196Y-81151227D01*
X219448796Y-81175495D01*
X219450000Y-81199999D01*
X219450000Y-81850001D01*
X219448796Y-81874505D01*
X219445196Y-81898773D01*
X219439235Y-81922572D01*
X219430970Y-81945671D01*
X219420480Y-81967850D01*
X219407868Y-81988893D01*
X219393253Y-82008599D01*
X219376777Y-82026777D01*
X219358599Y-82043253D01*
X219338893Y-82057868D01*
X219317850Y-82070480D01*
X219295671Y-82080970D01*
X219272572Y-82089235D01*
X219248773Y-82095196D01*
X219224505Y-82098796D01*
X219200001Y-82100000D01*
X218299999Y-82100000D01*
X218275495Y-82098796D01*
X218251227Y-82095196D01*
X218227428Y-82089235D01*
X218204329Y-82080970D01*
X218182150Y-82070480D01*
X218161107Y-82057868D01*
X218141401Y-82043253D01*
X218123223Y-82026777D01*
X218106747Y-82008599D01*
X218092132Y-81988893D01*
X218079520Y-81967850D01*
X218069030Y-81945671D01*
X218060765Y-81922572D01*
X218054804Y-81898773D01*
X218051204Y-81874505D01*
X218050000Y-81850001D01*
X218050000Y-81199999D01*
X218051204Y-81175495D01*
X218054804Y-81151227D01*
X218060765Y-81127428D01*
X218069030Y-81104329D01*
X218079520Y-81082150D01*
X218092132Y-81061107D01*
X218106747Y-81041401D01*
X218123223Y-81023223D01*
X218141401Y-81006747D01*
X218161107Y-80992132D01*
X218182150Y-80979520D01*
X218204329Y-80969030D01*
X218227428Y-80960765D01*
X218251227Y-80954804D01*
X218275495Y-80951204D01*
X218299999Y-80950000D01*
X219200001Y-80950000D01*
X219224505Y-80951204D01*
X219224505Y-80951204D01*
G37*
D15*
X218750000Y-81525000D03*
D10*
G36*
X212624505Y-97551204D02*
G01*
X212648773Y-97554804D01*
X212672572Y-97560765D01*
X212695671Y-97569030D01*
X212717850Y-97579520D01*
X212738893Y-97592132D01*
X212758599Y-97606747D01*
X212776777Y-97623223D01*
X212793253Y-97641401D01*
X212807868Y-97661107D01*
X212820480Y-97682150D01*
X212830970Y-97704329D01*
X212839235Y-97727428D01*
X212845196Y-97751227D01*
X212848796Y-97775495D01*
X212850000Y-97799999D01*
X212850000Y-98700001D01*
X212848796Y-98724505D01*
X212845196Y-98748773D01*
X212839235Y-98772572D01*
X212830970Y-98795671D01*
X212820480Y-98817850D01*
X212807868Y-98838893D01*
X212793253Y-98858599D01*
X212776777Y-98876777D01*
X212758599Y-98893253D01*
X212738893Y-98907868D01*
X212717850Y-98920480D01*
X212695671Y-98930970D01*
X212672572Y-98939235D01*
X212648773Y-98945196D01*
X212624505Y-98948796D01*
X212600001Y-98950000D01*
X211949999Y-98950000D01*
X211925495Y-98948796D01*
X211901227Y-98945196D01*
X211877428Y-98939235D01*
X211854329Y-98930970D01*
X211832150Y-98920480D01*
X211811107Y-98907868D01*
X211791401Y-98893253D01*
X211773223Y-98876777D01*
X211756747Y-98858599D01*
X211742132Y-98838893D01*
X211729520Y-98817850D01*
X211719030Y-98795671D01*
X211710765Y-98772572D01*
X211704804Y-98748773D01*
X211701204Y-98724505D01*
X211700000Y-98700001D01*
X211700000Y-97799999D01*
X211701204Y-97775495D01*
X211704804Y-97751227D01*
X211710765Y-97727428D01*
X211719030Y-97704329D01*
X211729520Y-97682150D01*
X211742132Y-97661107D01*
X211756747Y-97641401D01*
X211773223Y-97623223D01*
X211791401Y-97606747D01*
X211811107Y-97592132D01*
X211832150Y-97579520D01*
X211854329Y-97569030D01*
X211877428Y-97560765D01*
X211901227Y-97554804D01*
X211925495Y-97551204D01*
X211949999Y-97550000D01*
X212600001Y-97550000D01*
X212624505Y-97551204D01*
X212624505Y-97551204D01*
G37*
D15*
X212275000Y-98250000D03*
D10*
G36*
X210574505Y-97551204D02*
G01*
X210598773Y-97554804D01*
X210622572Y-97560765D01*
X210645671Y-97569030D01*
X210667850Y-97579520D01*
X210688893Y-97592132D01*
X210708599Y-97606747D01*
X210726777Y-97623223D01*
X210743253Y-97641401D01*
X210757868Y-97661107D01*
X210770480Y-97682150D01*
X210780970Y-97704329D01*
X210789235Y-97727428D01*
X210795196Y-97751227D01*
X210798796Y-97775495D01*
X210800000Y-97799999D01*
X210800000Y-98700001D01*
X210798796Y-98724505D01*
X210795196Y-98748773D01*
X210789235Y-98772572D01*
X210780970Y-98795671D01*
X210770480Y-98817850D01*
X210757868Y-98838893D01*
X210743253Y-98858599D01*
X210726777Y-98876777D01*
X210708599Y-98893253D01*
X210688893Y-98907868D01*
X210667850Y-98920480D01*
X210645671Y-98930970D01*
X210622572Y-98939235D01*
X210598773Y-98945196D01*
X210574505Y-98948796D01*
X210550001Y-98950000D01*
X209899999Y-98950000D01*
X209875495Y-98948796D01*
X209851227Y-98945196D01*
X209827428Y-98939235D01*
X209804329Y-98930970D01*
X209782150Y-98920480D01*
X209761107Y-98907868D01*
X209741401Y-98893253D01*
X209723223Y-98876777D01*
X209706747Y-98858599D01*
X209692132Y-98838893D01*
X209679520Y-98817850D01*
X209669030Y-98795671D01*
X209660765Y-98772572D01*
X209654804Y-98748773D01*
X209651204Y-98724505D01*
X209650000Y-98700001D01*
X209650000Y-97799999D01*
X209651204Y-97775495D01*
X209654804Y-97751227D01*
X209660765Y-97727428D01*
X209669030Y-97704329D01*
X209679520Y-97682150D01*
X209692132Y-97661107D01*
X209706747Y-97641401D01*
X209723223Y-97623223D01*
X209741401Y-97606747D01*
X209761107Y-97592132D01*
X209782150Y-97579520D01*
X209804329Y-97569030D01*
X209827428Y-97560765D01*
X209851227Y-97554804D01*
X209875495Y-97551204D01*
X209899999Y-97550000D01*
X210550001Y-97550000D01*
X210574505Y-97551204D01*
X210574505Y-97551204D01*
G37*
D15*
X210225000Y-98250000D03*
D10*
G36*
X204074505Y-92801204D02*
G01*
X204098773Y-92804804D01*
X204122572Y-92810765D01*
X204145671Y-92819030D01*
X204167850Y-92829520D01*
X204188893Y-92842132D01*
X204208599Y-92856747D01*
X204226777Y-92873223D01*
X204243253Y-92891401D01*
X204257868Y-92911107D01*
X204270480Y-92932150D01*
X204280970Y-92954329D01*
X204289235Y-92977428D01*
X204295196Y-93001227D01*
X204298796Y-93025495D01*
X204300000Y-93049999D01*
X204300000Y-93950001D01*
X204298796Y-93974505D01*
X204295196Y-93998773D01*
X204289235Y-94022572D01*
X204280970Y-94045671D01*
X204270480Y-94067850D01*
X204257868Y-94088893D01*
X204243253Y-94108599D01*
X204226777Y-94126777D01*
X204208599Y-94143253D01*
X204188893Y-94157868D01*
X204167850Y-94170480D01*
X204145671Y-94180970D01*
X204122572Y-94189235D01*
X204098773Y-94195196D01*
X204074505Y-94198796D01*
X204050001Y-94200000D01*
X203399999Y-94200000D01*
X203375495Y-94198796D01*
X203351227Y-94195196D01*
X203327428Y-94189235D01*
X203304329Y-94180970D01*
X203282150Y-94170480D01*
X203261107Y-94157868D01*
X203241401Y-94143253D01*
X203223223Y-94126777D01*
X203206747Y-94108599D01*
X203192132Y-94088893D01*
X203179520Y-94067850D01*
X203169030Y-94045671D01*
X203160765Y-94022572D01*
X203154804Y-93998773D01*
X203151204Y-93974505D01*
X203150000Y-93950001D01*
X203150000Y-93049999D01*
X203151204Y-93025495D01*
X203154804Y-93001227D01*
X203160765Y-92977428D01*
X203169030Y-92954329D01*
X203179520Y-92932150D01*
X203192132Y-92911107D01*
X203206747Y-92891401D01*
X203223223Y-92873223D01*
X203241401Y-92856747D01*
X203261107Y-92842132D01*
X203282150Y-92829520D01*
X203304329Y-92819030D01*
X203327428Y-92810765D01*
X203351227Y-92804804D01*
X203375495Y-92801204D01*
X203399999Y-92800000D01*
X204050001Y-92800000D01*
X204074505Y-92801204D01*
X204074505Y-92801204D01*
G37*
D15*
X203725000Y-93500000D03*
D10*
G36*
X206124505Y-92801204D02*
G01*
X206148773Y-92804804D01*
X206172572Y-92810765D01*
X206195671Y-92819030D01*
X206217850Y-92829520D01*
X206238893Y-92842132D01*
X206258599Y-92856747D01*
X206276777Y-92873223D01*
X206293253Y-92891401D01*
X206307868Y-92911107D01*
X206320480Y-92932150D01*
X206330970Y-92954329D01*
X206339235Y-92977428D01*
X206345196Y-93001227D01*
X206348796Y-93025495D01*
X206350000Y-93049999D01*
X206350000Y-93950001D01*
X206348796Y-93974505D01*
X206345196Y-93998773D01*
X206339235Y-94022572D01*
X206330970Y-94045671D01*
X206320480Y-94067850D01*
X206307868Y-94088893D01*
X206293253Y-94108599D01*
X206276777Y-94126777D01*
X206258599Y-94143253D01*
X206238893Y-94157868D01*
X206217850Y-94170480D01*
X206195671Y-94180970D01*
X206172572Y-94189235D01*
X206148773Y-94195196D01*
X206124505Y-94198796D01*
X206100001Y-94200000D01*
X205449999Y-94200000D01*
X205425495Y-94198796D01*
X205401227Y-94195196D01*
X205377428Y-94189235D01*
X205354329Y-94180970D01*
X205332150Y-94170480D01*
X205311107Y-94157868D01*
X205291401Y-94143253D01*
X205273223Y-94126777D01*
X205256747Y-94108599D01*
X205242132Y-94088893D01*
X205229520Y-94067850D01*
X205219030Y-94045671D01*
X205210765Y-94022572D01*
X205204804Y-93998773D01*
X205201204Y-93974505D01*
X205200000Y-93950001D01*
X205200000Y-93049999D01*
X205201204Y-93025495D01*
X205204804Y-93001227D01*
X205210765Y-92977428D01*
X205219030Y-92954329D01*
X205229520Y-92932150D01*
X205242132Y-92911107D01*
X205256747Y-92891401D01*
X205273223Y-92873223D01*
X205291401Y-92856747D01*
X205311107Y-92842132D01*
X205332150Y-92829520D01*
X205354329Y-92819030D01*
X205377428Y-92810765D01*
X205401227Y-92804804D01*
X205425495Y-92801204D01*
X205449999Y-92800000D01*
X206100001Y-92800000D01*
X206124505Y-92801204D01*
X206124505Y-92801204D01*
G37*
D15*
X205775000Y-93500000D03*
M02*
