G04 #@! TF.GenerationSoftware,KiCad,Pcbnew,(5.1.0)-1*
G04 #@! TF.CreationDate,2020-03-07T12:08:56+00:00*
G04 #@! TF.ProjectId,Line Generator,4c696e65-2047-4656-9e65-7261746f722e,rev?*
G04 #@! TF.SameCoordinates,Original*
G04 #@! TF.FileFunction,Legend,Top*
G04 #@! TF.FilePolarity,Positive*
%FSLAX46Y46*%
G04 Gerber Fmt 4.6, Leading zero omitted, Abs format (unit mm)*
G04 Created by KiCad (PCBNEW (5.1.0)-1) date 2020-03-07 12:08:56*
%MOMM*%
%LPD*%
G04 APERTURE LIST*
%ADD10C,0.150000*%
%ADD11C,0.120000*%
%ADD12C,0.100000*%
G04 APERTURE END LIST*
D10*
X240952380Y-90059523D02*
X240952380Y-90535714D01*
X239952380Y-90535714D01*
X240952380Y-89726190D02*
X240285714Y-89726190D01*
X239952380Y-89726190D02*
X240000000Y-89773809D01*
X240047619Y-89726190D01*
X240000000Y-89678571D01*
X239952380Y-89726190D01*
X240047619Y-89726190D01*
X240285714Y-89250000D02*
X240952380Y-89250000D01*
X240380952Y-89250000D02*
X240333333Y-89202380D01*
X240285714Y-89107142D01*
X240285714Y-88964285D01*
X240333333Y-88869047D01*
X240428571Y-88821428D01*
X240952380Y-88821428D01*
X240904761Y-87964285D02*
X240952380Y-88059523D01*
X240952380Y-88250000D01*
X240904761Y-88345238D01*
X240809523Y-88392857D01*
X240428571Y-88392857D01*
X240333333Y-88345238D01*
X240285714Y-88250000D01*
X240285714Y-88059523D01*
X240333333Y-87964285D01*
X240428571Y-87916666D01*
X240523809Y-87916666D01*
X240619047Y-88392857D01*
X240000000Y-86202380D02*
X239952380Y-86297619D01*
X239952380Y-86440476D01*
X240000000Y-86583333D01*
X240095238Y-86678571D01*
X240190476Y-86726190D01*
X240380952Y-86773809D01*
X240523809Y-86773809D01*
X240714285Y-86726190D01*
X240809523Y-86678571D01*
X240904761Y-86583333D01*
X240952380Y-86440476D01*
X240952380Y-86345238D01*
X240904761Y-86202380D01*
X240857142Y-86154761D01*
X240523809Y-86154761D01*
X240523809Y-86345238D01*
X240904761Y-85345238D02*
X240952380Y-85440476D01*
X240952380Y-85630952D01*
X240904761Y-85726190D01*
X240809523Y-85773809D01*
X240428571Y-85773809D01*
X240333333Y-85726190D01*
X240285714Y-85630952D01*
X240285714Y-85440476D01*
X240333333Y-85345238D01*
X240428571Y-85297619D01*
X240523809Y-85297619D01*
X240619047Y-85773809D01*
X240285714Y-84869047D02*
X240952380Y-84869047D01*
X240380952Y-84869047D02*
X240333333Y-84821428D01*
X240285714Y-84726190D01*
X240285714Y-84583333D01*
X240333333Y-84488095D01*
X240428571Y-84440476D01*
X240952380Y-84440476D01*
X240904761Y-83583333D02*
X240952380Y-83678571D01*
X240952380Y-83869047D01*
X240904761Y-83964285D01*
X240809523Y-84011904D01*
X240428571Y-84011904D01*
X240333333Y-83964285D01*
X240285714Y-83869047D01*
X240285714Y-83678571D01*
X240333333Y-83583333D01*
X240428571Y-83535714D01*
X240523809Y-83535714D01*
X240619047Y-84011904D01*
X240952380Y-83107142D02*
X240285714Y-83107142D01*
X240476190Y-83107142D02*
X240380952Y-83059523D01*
X240333333Y-83011904D01*
X240285714Y-82916666D01*
X240285714Y-82821428D01*
X240952380Y-82059523D02*
X240428571Y-82059523D01*
X240333333Y-82107142D01*
X240285714Y-82202380D01*
X240285714Y-82392857D01*
X240333333Y-82488095D01*
X240904761Y-82059523D02*
X240952380Y-82154761D01*
X240952380Y-82392857D01*
X240904761Y-82488095D01*
X240809523Y-82535714D01*
X240714285Y-82535714D01*
X240619047Y-82488095D01*
X240571428Y-82392857D01*
X240571428Y-82154761D01*
X240523809Y-82059523D01*
X240285714Y-81726190D02*
X240285714Y-81345238D01*
X239952380Y-81583333D02*
X240809523Y-81583333D01*
X240904761Y-81535714D01*
X240952380Y-81440476D01*
X240952380Y-81345238D01*
X240952380Y-80869047D02*
X240904761Y-80964285D01*
X240857142Y-81011904D01*
X240761904Y-81059523D01*
X240476190Y-81059523D01*
X240380952Y-81011904D01*
X240333333Y-80964285D01*
X240285714Y-80869047D01*
X240285714Y-80726190D01*
X240333333Y-80630952D01*
X240380952Y-80583333D01*
X240476190Y-80535714D01*
X240761904Y-80535714D01*
X240857142Y-80583333D01*
X240904761Y-80630952D01*
X240952380Y-80726190D01*
X240952380Y-80869047D01*
X240952380Y-80107142D02*
X240285714Y-80107142D01*
X240476190Y-80107142D02*
X240380952Y-80059523D01*
X240333333Y-80011904D01*
X240285714Y-79916666D01*
X240285714Y-79821428D01*
X219276071Y-68877380D02*
X219466547Y-68877380D01*
X219561785Y-68925000D01*
X219657023Y-69020238D01*
X219704642Y-69210714D01*
X219704642Y-69544047D01*
X219657023Y-69734523D01*
X219561785Y-69829761D01*
X219466547Y-69877380D01*
X219276071Y-69877380D01*
X219180833Y-69829761D01*
X219085595Y-69734523D01*
X219037976Y-69544047D01*
X219037976Y-69210714D01*
X219085595Y-69020238D01*
X219180833Y-68925000D01*
X219276071Y-68877380D01*
X220133214Y-69210714D02*
X220133214Y-69877380D01*
X220133214Y-69305952D02*
X220180833Y-69258333D01*
X220276071Y-69210714D01*
X220418928Y-69210714D01*
X220514166Y-69258333D01*
X220561785Y-69353571D01*
X220561785Y-69877380D01*
X221180833Y-69877380D02*
X221085595Y-69829761D01*
X221037976Y-69734523D01*
X221037976Y-68877380D01*
X221466547Y-69210714D02*
X221704642Y-69877380D01*
X221942738Y-69210714D02*
X221704642Y-69877380D01*
X221609404Y-70115476D01*
X221561785Y-70163095D01*
X221466547Y-70210714D01*
X225371309Y-69877380D02*
X225371309Y-68877380D01*
X225371309Y-69258333D02*
X225466547Y-69210714D01*
X225657023Y-69210714D01*
X225752261Y-69258333D01*
X225799880Y-69305952D01*
X225847500Y-69401190D01*
X225847500Y-69686904D01*
X225799880Y-69782142D01*
X225752261Y-69829761D01*
X225657023Y-69877380D01*
X225466547Y-69877380D01*
X225371309Y-69829761D01*
X226276071Y-69877380D02*
X226276071Y-69210714D01*
X226276071Y-69401190D02*
X226323690Y-69305952D01*
X226371309Y-69258333D01*
X226466547Y-69210714D01*
X226561785Y-69210714D01*
X226895119Y-69877380D02*
X226895119Y-69210714D01*
X226895119Y-68877380D02*
X226847500Y-68925000D01*
X226895119Y-68972619D01*
X226942738Y-68925000D01*
X226895119Y-68877380D01*
X226895119Y-68972619D01*
X227799880Y-69877380D02*
X227799880Y-68877380D01*
X227799880Y-69829761D02*
X227704642Y-69877380D01*
X227514166Y-69877380D01*
X227418928Y-69829761D01*
X227371309Y-69782142D01*
X227323690Y-69686904D01*
X227323690Y-69401190D01*
X227371309Y-69305952D01*
X227418928Y-69258333D01*
X227514166Y-69210714D01*
X227704642Y-69210714D01*
X227799880Y-69258333D01*
X228704642Y-69210714D02*
X228704642Y-70020238D01*
X228657023Y-70115476D01*
X228609404Y-70163095D01*
X228514166Y-70210714D01*
X228371309Y-70210714D01*
X228276071Y-70163095D01*
X228704642Y-69829761D02*
X228609404Y-69877380D01*
X228418928Y-69877380D01*
X228323690Y-69829761D01*
X228276071Y-69782142D01*
X228228452Y-69686904D01*
X228228452Y-69401190D01*
X228276071Y-69305952D01*
X228323690Y-69258333D01*
X228418928Y-69210714D01*
X228609404Y-69210714D01*
X228704642Y-69258333D01*
X229561785Y-69829761D02*
X229466547Y-69877380D01*
X229276071Y-69877380D01*
X229180833Y-69829761D01*
X229133214Y-69734523D01*
X229133214Y-69353571D01*
X229180833Y-69258333D01*
X229276071Y-69210714D01*
X229466547Y-69210714D01*
X229561785Y-69258333D01*
X229609404Y-69353571D01*
X229609404Y-69448809D01*
X229133214Y-69544047D01*
X230799880Y-69210714D02*
X230799880Y-70067857D01*
X230752261Y-70163095D01*
X230657023Y-70210714D01*
X230609404Y-70210714D01*
X230799880Y-68877380D02*
X230752261Y-68925000D01*
X230799880Y-68972619D01*
X230847500Y-68925000D01*
X230799880Y-68877380D01*
X230799880Y-68972619D01*
X231704642Y-69210714D02*
X231704642Y-69877380D01*
X231276071Y-69210714D02*
X231276071Y-69734523D01*
X231323690Y-69829761D01*
X231418928Y-69877380D01*
X231561785Y-69877380D01*
X231657023Y-69829761D01*
X231704642Y-69782142D01*
X232180833Y-69877380D02*
X232180833Y-69210714D01*
X232180833Y-69305952D02*
X232228452Y-69258333D01*
X232323690Y-69210714D01*
X232466547Y-69210714D01*
X232561785Y-69258333D01*
X232609404Y-69353571D01*
X232609404Y-69877380D01*
X232609404Y-69353571D02*
X232657023Y-69258333D01*
X232752261Y-69210714D01*
X232895119Y-69210714D01*
X232990357Y-69258333D01*
X233037976Y-69353571D01*
X233037976Y-69877380D01*
X233514166Y-69210714D02*
X233514166Y-70210714D01*
X233514166Y-69258333D02*
X233609404Y-69210714D01*
X233799880Y-69210714D01*
X233895119Y-69258333D01*
X233942738Y-69305952D01*
X233990357Y-69401190D01*
X233990357Y-69686904D01*
X233942738Y-69782142D01*
X233895119Y-69829761D01*
X233799880Y-69877380D01*
X233609404Y-69877380D01*
X233514166Y-69829761D01*
X234799880Y-69829761D02*
X234704642Y-69877380D01*
X234514166Y-69877380D01*
X234418928Y-69829761D01*
X234371309Y-69734523D01*
X234371309Y-69353571D01*
X234418928Y-69258333D01*
X234514166Y-69210714D01*
X234704642Y-69210714D01*
X234799880Y-69258333D01*
X234847500Y-69353571D01*
X234847500Y-69448809D01*
X234371309Y-69544047D01*
X235276071Y-69877380D02*
X235276071Y-69210714D01*
X235276071Y-69401190D02*
X235323690Y-69305952D01*
X235371309Y-69258333D01*
X235466547Y-69210714D01*
X235561785Y-69210714D01*
X219085595Y-71527380D02*
X219085595Y-70860714D01*
X219085595Y-70527380D02*
X219037976Y-70575000D01*
X219085595Y-70622619D01*
X219133214Y-70575000D01*
X219085595Y-70527380D01*
X219085595Y-70622619D01*
X219418928Y-70860714D02*
X219799880Y-70860714D01*
X219561785Y-71527380D02*
X219561785Y-70670238D01*
X219609404Y-70575000D01*
X219704642Y-70527380D01*
X219799880Y-70527380D01*
X220895119Y-70860714D02*
X220895119Y-71860714D01*
X220895119Y-70908333D02*
X220990357Y-70860714D01*
X221180833Y-70860714D01*
X221276071Y-70908333D01*
X221323690Y-70955952D01*
X221371309Y-71051190D01*
X221371309Y-71336904D01*
X221323690Y-71432142D01*
X221276071Y-71479761D01*
X221180833Y-71527380D01*
X220990357Y-71527380D01*
X220895119Y-71479761D01*
X221942738Y-71527380D02*
X221847500Y-71479761D01*
X221799880Y-71432142D01*
X221752261Y-71336904D01*
X221752261Y-71051190D01*
X221799880Y-70955952D01*
X221847500Y-70908333D01*
X221942738Y-70860714D01*
X222085595Y-70860714D01*
X222180833Y-70908333D01*
X222228452Y-70955952D01*
X222276071Y-71051190D01*
X222276071Y-71336904D01*
X222228452Y-71432142D01*
X222180833Y-71479761D01*
X222085595Y-71527380D01*
X221942738Y-71527380D01*
X222561785Y-70860714D02*
X222942738Y-70860714D01*
X222704642Y-70527380D02*
X222704642Y-71384523D01*
X222752261Y-71479761D01*
X222847500Y-71527380D01*
X222942738Y-71527380D01*
X225561785Y-70860714D02*
X225561785Y-71527380D01*
X225561785Y-70955952D02*
X225609404Y-70908333D01*
X225704642Y-70860714D01*
X225847500Y-70860714D01*
X225942738Y-70908333D01*
X225990357Y-71003571D01*
X225990357Y-71527380D01*
X226609404Y-71527380D02*
X226514166Y-71479761D01*
X226466547Y-71432142D01*
X226418928Y-71336904D01*
X226418928Y-71051190D01*
X226466547Y-70955952D01*
X226514166Y-70908333D01*
X226609404Y-70860714D01*
X226752261Y-70860714D01*
X226847500Y-70908333D01*
X226895119Y-70955952D01*
X226942738Y-71051190D01*
X226942738Y-71336904D01*
X226895119Y-71432142D01*
X226847500Y-71479761D01*
X226752261Y-71527380D01*
X226609404Y-71527380D01*
X227228452Y-70860714D02*
X227609404Y-70860714D01*
X227371309Y-70527380D02*
X227371309Y-71384523D01*
X227418928Y-71479761D01*
X227514166Y-71527380D01*
X227609404Y-71527380D01*
X228704642Y-71527380D02*
X228704642Y-70860714D01*
X228704642Y-70527380D02*
X228657023Y-70575000D01*
X228704642Y-70622619D01*
X228752261Y-70575000D01*
X228704642Y-70527380D01*
X228704642Y-70622619D01*
X229180833Y-70860714D02*
X229180833Y-71527380D01*
X229180833Y-70955952D02*
X229228452Y-70908333D01*
X229323690Y-70860714D01*
X229466547Y-70860714D01*
X229561785Y-70908333D01*
X229609404Y-71003571D01*
X229609404Y-71527380D01*
X230847500Y-70860714D02*
X230847500Y-71860714D01*
X230847500Y-70908333D02*
X230942738Y-70860714D01*
X231133214Y-70860714D01*
X231228452Y-70908333D01*
X231276071Y-70955952D01*
X231323690Y-71051190D01*
X231323690Y-71336904D01*
X231276071Y-71432142D01*
X231228452Y-71479761D01*
X231133214Y-71527380D01*
X230942738Y-71527380D01*
X230847500Y-71479761D01*
X231895119Y-71527380D02*
X231799880Y-71479761D01*
X231752261Y-71384523D01*
X231752261Y-70527380D01*
X232704642Y-71527380D02*
X232704642Y-71003571D01*
X232657023Y-70908333D01*
X232561785Y-70860714D01*
X232371309Y-70860714D01*
X232276071Y-70908333D01*
X232704642Y-71479761D02*
X232609404Y-71527380D01*
X232371309Y-71527380D01*
X232276071Y-71479761D01*
X232228452Y-71384523D01*
X232228452Y-71289285D01*
X232276071Y-71194047D01*
X232371309Y-71146428D01*
X232609404Y-71146428D01*
X232704642Y-71098809D01*
X233609404Y-71479761D02*
X233514166Y-71527380D01*
X233323690Y-71527380D01*
X233228452Y-71479761D01*
X233180833Y-71432142D01*
X233133214Y-71336904D01*
X233133214Y-71051190D01*
X233180833Y-70955952D01*
X233228452Y-70908333D01*
X233323690Y-70860714D01*
X233514166Y-70860714D01*
X233609404Y-70908333D01*
X234418928Y-71479761D02*
X234323690Y-71527380D01*
X234133214Y-71527380D01*
X234037976Y-71479761D01*
X233990357Y-71384523D01*
X233990357Y-71003571D01*
X234037976Y-70908333D01*
X234133214Y-70860714D01*
X234323690Y-70860714D01*
X234418928Y-70908333D01*
X234466547Y-71003571D01*
X234466547Y-71098809D01*
X233990357Y-71194047D01*
X220026071Y-97877380D02*
X220216547Y-97877380D01*
X220311785Y-97925000D01*
X220407023Y-98020238D01*
X220454642Y-98210714D01*
X220454642Y-98544047D01*
X220407023Y-98734523D01*
X220311785Y-98829761D01*
X220216547Y-98877380D01*
X220026071Y-98877380D01*
X219930833Y-98829761D01*
X219835595Y-98734523D01*
X219787976Y-98544047D01*
X219787976Y-98210714D01*
X219835595Y-98020238D01*
X219930833Y-97925000D01*
X220026071Y-97877380D01*
X220883214Y-98210714D02*
X220883214Y-98877380D01*
X220883214Y-98305952D02*
X220930833Y-98258333D01*
X221026071Y-98210714D01*
X221168928Y-98210714D01*
X221264166Y-98258333D01*
X221311785Y-98353571D01*
X221311785Y-98877380D01*
X221930833Y-98877380D02*
X221835595Y-98829761D01*
X221787976Y-98734523D01*
X221787976Y-97877380D01*
X222216547Y-98210714D02*
X222454642Y-98877380D01*
X222692738Y-98210714D02*
X222454642Y-98877380D01*
X222359404Y-99115476D01*
X222311785Y-99163095D01*
X222216547Y-99210714D01*
X223835595Y-98877380D02*
X223835595Y-97877380D01*
X223835595Y-98258333D02*
X223930833Y-98210714D01*
X224121309Y-98210714D01*
X224216547Y-98258333D01*
X224264166Y-98305952D01*
X224311785Y-98401190D01*
X224311785Y-98686904D01*
X224264166Y-98782142D01*
X224216547Y-98829761D01*
X224121309Y-98877380D01*
X223930833Y-98877380D01*
X223835595Y-98829761D01*
X224740357Y-98877380D02*
X224740357Y-98210714D01*
X224740357Y-98401190D02*
X224787976Y-98305952D01*
X224835595Y-98258333D01*
X224930833Y-98210714D01*
X225026071Y-98210714D01*
X225359404Y-98877380D02*
X225359404Y-98210714D01*
X225359404Y-97877380D02*
X225311785Y-97925000D01*
X225359404Y-97972619D01*
X225407023Y-97925000D01*
X225359404Y-97877380D01*
X225359404Y-97972619D01*
X226264166Y-98877380D02*
X226264166Y-97877380D01*
X226264166Y-98829761D02*
X226168928Y-98877380D01*
X225978452Y-98877380D01*
X225883214Y-98829761D01*
X225835595Y-98782142D01*
X225787976Y-98686904D01*
X225787976Y-98401190D01*
X225835595Y-98305952D01*
X225883214Y-98258333D01*
X225978452Y-98210714D01*
X226168928Y-98210714D01*
X226264166Y-98258333D01*
X227168928Y-98210714D02*
X227168928Y-99020238D01*
X227121309Y-99115476D01*
X227073690Y-99163095D01*
X226978452Y-99210714D01*
X226835595Y-99210714D01*
X226740357Y-99163095D01*
X227168928Y-98829761D02*
X227073690Y-98877380D01*
X226883214Y-98877380D01*
X226787976Y-98829761D01*
X226740357Y-98782142D01*
X226692738Y-98686904D01*
X226692738Y-98401190D01*
X226740357Y-98305952D01*
X226787976Y-98258333D01*
X226883214Y-98210714D01*
X227073690Y-98210714D01*
X227168928Y-98258333D01*
X228026071Y-98829761D02*
X227930833Y-98877380D01*
X227740357Y-98877380D01*
X227645119Y-98829761D01*
X227597500Y-98734523D01*
X227597500Y-98353571D01*
X227645119Y-98258333D01*
X227740357Y-98210714D01*
X227930833Y-98210714D01*
X228026071Y-98258333D01*
X228073690Y-98353571D01*
X228073690Y-98448809D01*
X227597500Y-98544047D01*
X230787976Y-98210714D02*
X230787976Y-99067857D01*
X230740357Y-99163095D01*
X230645119Y-99210714D01*
X230597500Y-99210714D01*
X230787976Y-97877380D02*
X230740357Y-97925000D01*
X230787976Y-97972619D01*
X230835595Y-97925000D01*
X230787976Y-97877380D01*
X230787976Y-97972619D01*
X231692738Y-98210714D02*
X231692738Y-98877380D01*
X231264166Y-98210714D02*
X231264166Y-98734523D01*
X231311785Y-98829761D01*
X231407023Y-98877380D01*
X231549880Y-98877380D01*
X231645119Y-98829761D01*
X231692738Y-98782142D01*
X232168928Y-98877380D02*
X232168928Y-98210714D01*
X232168928Y-98305952D02*
X232216547Y-98258333D01*
X232311785Y-98210714D01*
X232454642Y-98210714D01*
X232549880Y-98258333D01*
X232597500Y-98353571D01*
X232597500Y-98877380D01*
X232597500Y-98353571D02*
X232645119Y-98258333D01*
X232740357Y-98210714D01*
X232883214Y-98210714D01*
X232978452Y-98258333D01*
X233026071Y-98353571D01*
X233026071Y-98877380D01*
X233502261Y-98210714D02*
X233502261Y-99210714D01*
X233502261Y-98258333D02*
X233597500Y-98210714D01*
X233787976Y-98210714D01*
X233883214Y-98258333D01*
X233930833Y-98305952D01*
X233978452Y-98401190D01*
X233978452Y-98686904D01*
X233930833Y-98782142D01*
X233883214Y-98829761D01*
X233787976Y-98877380D01*
X233597500Y-98877380D01*
X233502261Y-98829761D01*
X234787976Y-98829761D02*
X234692738Y-98877380D01*
X234502261Y-98877380D01*
X234407023Y-98829761D01*
X234359404Y-98734523D01*
X234359404Y-98353571D01*
X234407023Y-98258333D01*
X234502261Y-98210714D01*
X234692738Y-98210714D01*
X234787976Y-98258333D01*
X234835595Y-98353571D01*
X234835595Y-98448809D01*
X234359404Y-98544047D01*
X235264166Y-98877380D02*
X235264166Y-98210714D01*
X235264166Y-98401190D02*
X235311785Y-98305952D01*
X235359404Y-98258333D01*
X235454642Y-98210714D01*
X235549880Y-98210714D01*
X219835595Y-100527380D02*
X219835595Y-99860714D01*
X219835595Y-99527380D02*
X219787976Y-99575000D01*
X219835595Y-99622619D01*
X219883214Y-99575000D01*
X219835595Y-99527380D01*
X219835595Y-99622619D01*
X220168928Y-99860714D02*
X220549880Y-99860714D01*
X220311785Y-100527380D02*
X220311785Y-99670238D01*
X220359404Y-99575000D01*
X220454642Y-99527380D01*
X220549880Y-99527380D01*
X221645119Y-99860714D02*
X221645119Y-100860714D01*
X221645119Y-99908333D02*
X221740357Y-99860714D01*
X221930833Y-99860714D01*
X222026071Y-99908333D01*
X222073690Y-99955952D01*
X222121309Y-100051190D01*
X222121309Y-100336904D01*
X222073690Y-100432142D01*
X222026071Y-100479761D01*
X221930833Y-100527380D01*
X221740357Y-100527380D01*
X221645119Y-100479761D01*
X222692738Y-100527380D02*
X222597500Y-100479761D01*
X222549880Y-100432142D01*
X222502261Y-100336904D01*
X222502261Y-100051190D01*
X222549880Y-99955952D01*
X222597500Y-99908333D01*
X222692738Y-99860714D01*
X222835595Y-99860714D01*
X222930833Y-99908333D01*
X222978452Y-99955952D01*
X223026071Y-100051190D01*
X223026071Y-100336904D01*
X222978452Y-100432142D01*
X222930833Y-100479761D01*
X222835595Y-100527380D01*
X222692738Y-100527380D01*
X223311785Y-99860714D02*
X223692738Y-99860714D01*
X223454642Y-99527380D02*
X223454642Y-100384523D01*
X223502261Y-100479761D01*
X223597500Y-100527380D01*
X223692738Y-100527380D01*
X224787976Y-99860714D02*
X224787976Y-100527380D01*
X224787976Y-99955952D02*
X224835595Y-99908333D01*
X224930833Y-99860714D01*
X225073690Y-99860714D01*
X225168928Y-99908333D01*
X225216547Y-100003571D01*
X225216547Y-100527380D01*
X225835595Y-100527380D02*
X225740357Y-100479761D01*
X225692738Y-100432142D01*
X225645119Y-100336904D01*
X225645119Y-100051190D01*
X225692738Y-99955952D01*
X225740357Y-99908333D01*
X225835595Y-99860714D01*
X225978452Y-99860714D01*
X226073690Y-99908333D01*
X226121309Y-99955952D01*
X226168928Y-100051190D01*
X226168928Y-100336904D01*
X226121309Y-100432142D01*
X226073690Y-100479761D01*
X225978452Y-100527380D01*
X225835595Y-100527380D01*
X226454642Y-99860714D02*
X226835595Y-99860714D01*
X226597500Y-99527380D02*
X226597500Y-100384523D01*
X226645119Y-100479761D01*
X226740357Y-100527380D01*
X226835595Y-100527380D01*
X230978452Y-100527380D02*
X230978452Y-99860714D01*
X230978452Y-99527380D02*
X230930833Y-99575000D01*
X230978452Y-99622619D01*
X231026071Y-99575000D01*
X230978452Y-99527380D01*
X230978452Y-99622619D01*
X231454642Y-99860714D02*
X231454642Y-100527380D01*
X231454642Y-99955952D02*
X231502261Y-99908333D01*
X231597500Y-99860714D01*
X231740357Y-99860714D01*
X231835595Y-99908333D01*
X231883214Y-100003571D01*
X231883214Y-100527380D01*
X233121309Y-99860714D02*
X233121309Y-100860714D01*
X233121309Y-99908333D02*
X233216547Y-99860714D01*
X233407023Y-99860714D01*
X233502261Y-99908333D01*
X233549880Y-99955952D01*
X233597500Y-100051190D01*
X233597500Y-100336904D01*
X233549880Y-100432142D01*
X233502261Y-100479761D01*
X233407023Y-100527380D01*
X233216547Y-100527380D01*
X233121309Y-100479761D01*
X234168928Y-100527380D02*
X234073690Y-100479761D01*
X234026071Y-100384523D01*
X234026071Y-99527380D01*
X234978452Y-100527380D02*
X234978452Y-100003571D01*
X234930833Y-99908333D01*
X234835595Y-99860714D01*
X234645119Y-99860714D01*
X234549880Y-99908333D01*
X234978452Y-100479761D02*
X234883214Y-100527380D01*
X234645119Y-100527380D01*
X234549880Y-100479761D01*
X234502261Y-100384523D01*
X234502261Y-100289285D01*
X234549880Y-100194047D01*
X234645119Y-100146428D01*
X234883214Y-100146428D01*
X234978452Y-100098809D01*
X235883214Y-100479761D02*
X235787976Y-100527380D01*
X235597500Y-100527380D01*
X235502261Y-100479761D01*
X235454642Y-100432142D01*
X235407023Y-100336904D01*
X235407023Y-100051190D01*
X235454642Y-99955952D01*
X235502261Y-99908333D01*
X235597500Y-99860714D01*
X235787976Y-99860714D01*
X235883214Y-99908333D01*
X236692738Y-100479761D02*
X236597500Y-100527380D01*
X236407023Y-100527380D01*
X236311785Y-100479761D01*
X236264166Y-100384523D01*
X236264166Y-100003571D01*
X236311785Y-99908333D01*
X236407023Y-99860714D01*
X236597500Y-99860714D01*
X236692738Y-99908333D01*
X236740357Y-100003571D01*
X236740357Y-100098809D01*
X236264166Y-100194047D01*
D11*
X203165000Y-79510000D02*
X203165000Y-80360000D01*
X203165000Y-80360000D02*
X205490000Y-80360000D01*
X205490000Y-80360000D02*
X205490000Y-82750000D01*
X215335000Y-79510000D02*
X215335000Y-80360000D01*
X215335000Y-80360000D02*
X213010000Y-80360000D01*
X203165000Y-75990000D02*
X203165000Y-75140000D01*
X203165000Y-75140000D02*
X215335000Y-75140000D01*
X215335000Y-75140000D02*
X215335000Y-75990000D01*
X205100000Y-72900000D02*
X205100000Y-74600000D01*
X205100000Y-74600000D02*
X208250000Y-74600000D01*
X205100000Y-72900000D02*
X208250000Y-72900000D01*
X228670000Y-84335000D02*
X229240000Y-84335000D01*
X230760000Y-84335000D02*
X231330000Y-84335000D01*
X228670000Y-84335000D02*
X228670000Y-86935000D01*
X228670000Y-86935000D02*
X229692470Y-86935000D01*
X230307530Y-86935000D02*
X231330000Y-86935000D01*
X231330000Y-84335000D02*
X231330000Y-86935000D01*
X231330000Y-82940000D02*
X231330000Y-83700000D01*
X230000000Y-82940000D02*
X231330000Y-82940000D01*
X212240000Y-86920000D02*
X212240000Y-87850000D01*
X212240000Y-90080000D02*
X212240000Y-89150000D01*
X212240000Y-90080000D02*
X214400000Y-90080000D01*
X212240000Y-86920000D02*
X213700000Y-86920000D01*
X213761252Y-85460000D02*
X213238748Y-85460000D01*
X213761252Y-84040000D02*
X213238748Y-84040000D01*
X205261252Y-85540000D02*
X204738748Y-85540000D01*
X205261252Y-86960000D02*
X204738748Y-86960000D01*
X207511252Y-70460000D02*
X206988748Y-70460000D01*
X207511252Y-69040000D02*
X206988748Y-69040000D01*
X223950000Y-72000000D02*
X225350000Y-72000000D01*
X226050000Y-72700000D02*
X226050000Y-73300000D01*
X225350000Y-74000000D02*
X223950000Y-74000000D01*
X223250000Y-73300000D02*
X223250000Y-72700000D01*
X223250000Y-72700000D02*
G75*
G02X223950000Y-72000000I700000J0D01*
G01*
X223950000Y-74000000D02*
G75*
G02X223250000Y-73300000I0J700000D01*
G01*
X226050000Y-73300000D02*
G75*
G02X225350000Y-74000000I-700000J0D01*
G01*
X225350000Y-72000000D02*
G75*
G02X226050000Y-72700000I0J-700000D01*
G01*
D12*
X217825000Y-86600000D02*
X217825000Y-86900000D01*
X217450000Y-86600000D02*
X217825000Y-86600000D01*
X217825000Y-89900000D02*
X217375000Y-89900000D01*
X217825000Y-89600000D02*
X217825000Y-89900000D01*
X217825000Y-89675000D02*
X217825000Y-89550000D01*
X216175000Y-89900000D02*
X216175000Y-89550000D01*
X216650000Y-89900000D02*
X216175000Y-89900000D01*
X216175000Y-86925000D02*
X215400000Y-86925000D01*
X216175000Y-86875000D02*
X216175000Y-86925000D01*
X216550000Y-86600000D02*
X216175000Y-86875000D01*
X216825000Y-86600000D02*
X216550000Y-86600000D01*
D11*
X205261252Y-98210000D02*
X204738748Y-98210000D01*
X205261252Y-96790000D02*
X204738748Y-96790000D01*
X203100000Y-93650000D02*
X203100000Y-95350000D01*
X203100000Y-95350000D02*
X206250000Y-95350000D01*
X203100000Y-93650000D02*
X206250000Y-93650000D01*
X227850000Y-95750000D02*
G75*
G02X228550000Y-96450000I0J-700000D01*
G01*
X228550000Y-97050000D02*
G75*
G02X227850000Y-97750000I-700000J0D01*
G01*
X226450000Y-97750000D02*
G75*
G02X225750000Y-97050000I0J700000D01*
G01*
X225750000Y-96450000D02*
G75*
G02X226450000Y-95750000I700000J0D01*
G01*
X225750000Y-97050000D02*
X225750000Y-96450000D01*
X227850000Y-97750000D02*
X226450000Y-97750000D01*
X228550000Y-96450000D02*
X228550000Y-97050000D01*
X226450000Y-95750000D02*
X227850000Y-95750000D01*
D12*
X216825000Y-92350000D02*
X216550000Y-92350000D01*
X216550000Y-92350000D02*
X216175000Y-92625000D01*
X216175000Y-92625000D02*
X216175000Y-92675000D01*
X216175000Y-92675000D02*
X215400000Y-92675000D01*
X216650000Y-95650000D02*
X216175000Y-95650000D01*
X216175000Y-95650000D02*
X216175000Y-95300000D01*
X217825000Y-95425000D02*
X217825000Y-95300000D01*
X217825000Y-95350000D02*
X217825000Y-95650000D01*
X217825000Y-95650000D02*
X217375000Y-95650000D01*
X217450000Y-92350000D02*
X217825000Y-92350000D01*
X217825000Y-92350000D02*
X217825000Y-92650000D01*
D11*
X211990000Y-92670000D02*
X211990000Y-93600000D01*
X211990000Y-95830000D02*
X211990000Y-94900000D01*
X211990000Y-95830000D02*
X214150000Y-95830000D01*
X211990000Y-92670000D02*
X213450000Y-92670000D01*
X205261252Y-89960000D02*
X204738748Y-89960000D01*
X205261252Y-88540000D02*
X204738748Y-88540000D01*
X211761252Y-97540000D02*
X211238748Y-97540000D01*
X211761252Y-98960000D02*
X211238748Y-98960000D01*
X206738748Y-72460000D02*
X207261252Y-72460000D01*
X206738748Y-71040000D02*
X207261252Y-71040000D01*
X209290000Y-88261252D02*
X209290000Y-87738748D01*
X210710000Y-88261252D02*
X210710000Y-87738748D01*
X209290000Y-93988748D02*
X209290000Y-94511252D01*
X210710000Y-93988748D02*
X210710000Y-94511252D01*
X204738748Y-91040000D02*
X205261252Y-91040000D01*
X204738748Y-92460000D02*
X205261252Y-92460000D01*
D10*
X203916666Y-81202380D02*
X203916666Y-81916666D01*
X203869047Y-82059523D01*
X203773809Y-82154761D01*
X203630952Y-82202380D01*
X203535714Y-82202380D01*
X204916666Y-82202380D02*
X204345238Y-82202380D01*
X204630952Y-82202380D02*
X204630952Y-81202380D01*
X204535714Y-81345238D01*
X204440476Y-81440476D01*
X204345238Y-81488095D01*
X209261904Y-74202380D02*
X209261904Y-73202380D01*
X209500000Y-73202380D01*
X209642857Y-73250000D01*
X209738095Y-73345238D01*
X209785714Y-73440476D01*
X209833333Y-73630952D01*
X209833333Y-73773809D01*
X209785714Y-73964285D01*
X209738095Y-74059523D01*
X209642857Y-74154761D01*
X209500000Y-74202380D01*
X209261904Y-74202380D01*
X210785714Y-74202380D02*
X210214285Y-74202380D01*
X210500000Y-74202380D02*
X210500000Y-73202380D01*
X210404761Y-73345238D01*
X210309523Y-73440476D01*
X210214285Y-73488095D01*
X226261904Y-85702380D02*
X226261904Y-84702380D01*
X226500000Y-84702380D01*
X226642857Y-84750000D01*
X226738095Y-84845238D01*
X226785714Y-84940476D01*
X226833333Y-85130952D01*
X226833333Y-85273809D01*
X226785714Y-85464285D01*
X226738095Y-85559523D01*
X226642857Y-85654761D01*
X226500000Y-85702380D01*
X226261904Y-85702380D01*
X227214285Y-84797619D02*
X227261904Y-84750000D01*
X227357142Y-84702380D01*
X227595238Y-84702380D01*
X227690476Y-84750000D01*
X227738095Y-84797619D01*
X227785714Y-84892857D01*
X227785714Y-84988095D01*
X227738095Y-85130952D01*
X227166666Y-85702380D01*
X227785714Y-85702380D01*
X212904761Y-91547619D02*
X212809523Y-91500000D01*
X212714285Y-91404761D01*
X212571428Y-91261904D01*
X212476190Y-91214285D01*
X212380952Y-91214285D01*
X212428571Y-91452380D02*
X212333333Y-91404761D01*
X212238095Y-91309523D01*
X212190476Y-91119047D01*
X212190476Y-90785714D01*
X212238095Y-90595238D01*
X212333333Y-90500000D01*
X212428571Y-90452380D01*
X212619047Y-90452380D01*
X212714285Y-90500000D01*
X212809523Y-90595238D01*
X212857142Y-90785714D01*
X212857142Y-91119047D01*
X212809523Y-91309523D01*
X212714285Y-91404761D01*
X212619047Y-91452380D01*
X212428571Y-91452380D01*
X213809523Y-91452380D02*
X213238095Y-91452380D01*
X213523809Y-91452380D02*
X213523809Y-90452380D01*
X213428571Y-90595238D01*
X213333333Y-90690476D01*
X213238095Y-90738095D01*
X216083333Y-85202380D02*
X215750000Y-84726190D01*
X215511904Y-85202380D02*
X215511904Y-84202380D01*
X215892857Y-84202380D01*
X215988095Y-84250000D01*
X216035714Y-84297619D01*
X216083333Y-84392857D01*
X216083333Y-84535714D01*
X216035714Y-84630952D01*
X215988095Y-84678571D01*
X215892857Y-84726190D01*
X215511904Y-84726190D01*
X217035714Y-85202380D02*
X216464285Y-85202380D01*
X216750000Y-85202380D02*
X216750000Y-84202380D01*
X216654761Y-84345238D01*
X216559523Y-84440476D01*
X216464285Y-84488095D01*
X207583333Y-86702380D02*
X207250000Y-86226190D01*
X207011904Y-86702380D02*
X207011904Y-85702380D01*
X207392857Y-85702380D01*
X207488095Y-85750000D01*
X207535714Y-85797619D01*
X207583333Y-85892857D01*
X207583333Y-86035714D01*
X207535714Y-86130952D01*
X207488095Y-86178571D01*
X207392857Y-86226190D01*
X207011904Y-86226190D01*
X208440476Y-86035714D02*
X208440476Y-86702380D01*
X208202380Y-85654761D02*
X207964285Y-86369047D01*
X208583333Y-86369047D01*
X210108333Y-70107142D02*
X210060714Y-70154761D01*
X209917857Y-70202380D01*
X209822619Y-70202380D01*
X209679761Y-70154761D01*
X209584523Y-70059523D01*
X209536904Y-69964285D01*
X209489285Y-69773809D01*
X209489285Y-69630952D01*
X209536904Y-69440476D01*
X209584523Y-69345238D01*
X209679761Y-69250000D01*
X209822619Y-69202380D01*
X209917857Y-69202380D01*
X210060714Y-69250000D01*
X210108333Y-69297619D01*
X211060714Y-70202380D02*
X210489285Y-70202380D01*
X210775000Y-70202380D02*
X210775000Y-69202380D01*
X210679761Y-69345238D01*
X210584523Y-69440476D01*
X210489285Y-69488095D01*
X226916666Y-72452380D02*
X226916666Y-73166666D01*
X226869047Y-73309523D01*
X226773809Y-73404761D01*
X226630952Y-73452380D01*
X226535714Y-73452380D01*
X227392857Y-73452380D02*
X227392857Y-72452380D01*
X227773809Y-72452380D01*
X227869047Y-72500000D01*
X227916666Y-72547619D01*
X227964285Y-72642857D01*
X227964285Y-72785714D01*
X227916666Y-72880952D01*
X227869047Y-72928571D01*
X227773809Y-72976190D01*
X227392857Y-72976190D01*
X228916666Y-73452380D02*
X228345238Y-73452380D01*
X228630952Y-73452380D02*
X228630952Y-72452380D01*
X228535714Y-72595238D01*
X228440476Y-72690476D01*
X228345238Y-72738095D01*
X216904761Y-91547619D02*
X216809523Y-91500000D01*
X216714285Y-91404761D01*
X216571428Y-91261904D01*
X216476190Y-91214285D01*
X216380952Y-91214285D01*
X216428571Y-91452380D02*
X216333333Y-91404761D01*
X216238095Y-91309523D01*
X216190476Y-91119047D01*
X216190476Y-90785714D01*
X216238095Y-90595238D01*
X216333333Y-90500000D01*
X216428571Y-90452380D01*
X216619047Y-90452380D01*
X216714285Y-90500000D01*
X216809523Y-90595238D01*
X216857142Y-90785714D01*
X216857142Y-91119047D01*
X216809523Y-91309523D01*
X216714285Y-91404761D01*
X216619047Y-91452380D01*
X216428571Y-91452380D01*
X217238095Y-90547619D02*
X217285714Y-90500000D01*
X217380952Y-90452380D01*
X217619047Y-90452380D01*
X217714285Y-90500000D01*
X217761904Y-90547619D01*
X217809523Y-90642857D01*
X217809523Y-90738095D01*
X217761904Y-90880952D01*
X217190476Y-91452380D01*
X217809523Y-91452380D01*
X207858333Y-97857142D02*
X207810714Y-97904761D01*
X207667857Y-97952380D01*
X207572619Y-97952380D01*
X207429761Y-97904761D01*
X207334523Y-97809523D01*
X207286904Y-97714285D01*
X207239285Y-97523809D01*
X207239285Y-97380952D01*
X207286904Y-97190476D01*
X207334523Y-97095238D01*
X207429761Y-97000000D01*
X207572619Y-96952380D01*
X207667857Y-96952380D01*
X207810714Y-97000000D01*
X207858333Y-97047619D01*
X208239285Y-97047619D02*
X208286904Y-97000000D01*
X208382142Y-96952380D01*
X208620238Y-96952380D01*
X208715476Y-97000000D01*
X208763095Y-97047619D01*
X208810714Y-97142857D01*
X208810714Y-97238095D01*
X208763095Y-97380952D01*
X208191666Y-97952380D01*
X208810714Y-97952380D01*
X207261904Y-94952380D02*
X207261904Y-93952380D01*
X207500000Y-93952380D01*
X207642857Y-94000000D01*
X207738095Y-94095238D01*
X207785714Y-94190476D01*
X207833333Y-94380952D01*
X207833333Y-94523809D01*
X207785714Y-94714285D01*
X207738095Y-94809523D01*
X207642857Y-94904761D01*
X207500000Y-94952380D01*
X207261904Y-94952380D01*
X208166666Y-93952380D02*
X208785714Y-93952380D01*
X208452380Y-94333333D01*
X208595238Y-94333333D01*
X208690476Y-94380952D01*
X208738095Y-94428571D01*
X208785714Y-94523809D01*
X208785714Y-94761904D01*
X208738095Y-94857142D01*
X208690476Y-94904761D01*
X208595238Y-94952380D01*
X208309523Y-94952380D01*
X208214285Y-94904761D01*
X208166666Y-94857142D01*
X229166666Y-95952380D02*
X229166666Y-96666666D01*
X229119047Y-96809523D01*
X229023809Y-96904761D01*
X228880952Y-96952380D01*
X228785714Y-96952380D01*
X229642857Y-96952380D02*
X229642857Y-95952380D01*
X230023809Y-95952380D01*
X230119047Y-96000000D01*
X230166666Y-96047619D01*
X230214285Y-96142857D01*
X230214285Y-96285714D01*
X230166666Y-96380952D01*
X230119047Y-96428571D01*
X230023809Y-96476190D01*
X229642857Y-96476190D01*
X230595238Y-96047619D02*
X230642857Y-96000000D01*
X230738095Y-95952380D01*
X230976190Y-95952380D01*
X231071428Y-96000000D01*
X231119047Y-96047619D01*
X231166666Y-96142857D01*
X231166666Y-96238095D01*
X231119047Y-96380952D01*
X230547619Y-96952380D01*
X231166666Y-96952380D01*
X216904761Y-97297619D02*
X216809523Y-97250000D01*
X216714285Y-97154761D01*
X216571428Y-97011904D01*
X216476190Y-96964285D01*
X216380952Y-96964285D01*
X216428571Y-97202380D02*
X216333333Y-97154761D01*
X216238095Y-97059523D01*
X216190476Y-96869047D01*
X216190476Y-96535714D01*
X216238095Y-96345238D01*
X216333333Y-96250000D01*
X216428571Y-96202380D01*
X216619047Y-96202380D01*
X216714285Y-96250000D01*
X216809523Y-96345238D01*
X216857142Y-96535714D01*
X216857142Y-96869047D01*
X216809523Y-97059523D01*
X216714285Y-97154761D01*
X216619047Y-97202380D01*
X216428571Y-97202380D01*
X217190476Y-96202380D02*
X217809523Y-96202380D01*
X217476190Y-96583333D01*
X217619047Y-96583333D01*
X217714285Y-96630952D01*
X217761904Y-96678571D01*
X217809523Y-96773809D01*
X217809523Y-97011904D01*
X217761904Y-97107142D01*
X217714285Y-97154761D01*
X217619047Y-97202380D01*
X217333333Y-97202380D01*
X217238095Y-97154761D01*
X217190476Y-97107142D01*
X212654761Y-97297619D02*
X212559523Y-97250000D01*
X212464285Y-97154761D01*
X212321428Y-97011904D01*
X212226190Y-96964285D01*
X212130952Y-96964285D01*
X212178571Y-97202380D02*
X212083333Y-97154761D01*
X211988095Y-97059523D01*
X211940476Y-96869047D01*
X211940476Y-96535714D01*
X211988095Y-96345238D01*
X212083333Y-96250000D01*
X212178571Y-96202380D01*
X212369047Y-96202380D01*
X212464285Y-96250000D01*
X212559523Y-96345238D01*
X212607142Y-96535714D01*
X212607142Y-96869047D01*
X212559523Y-97059523D01*
X212464285Y-97154761D01*
X212369047Y-97202380D01*
X212178571Y-97202380D01*
X213464285Y-96535714D02*
X213464285Y-97202380D01*
X213226190Y-96154761D02*
X212988095Y-96869047D01*
X213607142Y-96869047D01*
X207583333Y-89702380D02*
X207250000Y-89226190D01*
X207011904Y-89702380D02*
X207011904Y-88702380D01*
X207392857Y-88702380D01*
X207488095Y-88750000D01*
X207535714Y-88797619D01*
X207583333Y-88892857D01*
X207583333Y-89035714D01*
X207535714Y-89130952D01*
X207488095Y-89178571D01*
X207392857Y-89226190D01*
X207011904Y-89226190D01*
X208488095Y-88702380D02*
X208011904Y-88702380D01*
X207964285Y-89178571D01*
X208011904Y-89130952D01*
X208107142Y-89083333D01*
X208345238Y-89083333D01*
X208440476Y-89130952D01*
X208488095Y-89178571D01*
X208535714Y-89273809D01*
X208535714Y-89511904D01*
X208488095Y-89607142D01*
X208440476Y-89654761D01*
X208345238Y-89702380D01*
X208107142Y-89702380D01*
X208011904Y-89654761D01*
X207964285Y-89607142D01*
X214083333Y-98702380D02*
X213750000Y-98226190D01*
X213511904Y-98702380D02*
X213511904Y-97702380D01*
X213892857Y-97702380D01*
X213988095Y-97750000D01*
X214035714Y-97797619D01*
X214083333Y-97892857D01*
X214083333Y-98035714D01*
X214035714Y-98130952D01*
X213988095Y-98178571D01*
X213892857Y-98226190D01*
X213511904Y-98226190D01*
X214654761Y-98130952D02*
X214559523Y-98083333D01*
X214511904Y-98035714D01*
X214464285Y-97940476D01*
X214464285Y-97892857D01*
X214511904Y-97797619D01*
X214559523Y-97750000D01*
X214654761Y-97702380D01*
X214845238Y-97702380D01*
X214940476Y-97750000D01*
X214988095Y-97797619D01*
X215035714Y-97892857D01*
X215035714Y-97940476D01*
X214988095Y-98035714D01*
X214940476Y-98083333D01*
X214845238Y-98130952D01*
X214654761Y-98130952D01*
X214559523Y-98178571D01*
X214511904Y-98226190D01*
X214464285Y-98321428D01*
X214464285Y-98511904D01*
X214511904Y-98607142D01*
X214559523Y-98654761D01*
X214654761Y-98702380D01*
X214845238Y-98702380D01*
X214940476Y-98654761D01*
X214988095Y-98607142D01*
X215035714Y-98511904D01*
X215035714Y-98321428D01*
X214988095Y-98226190D01*
X214940476Y-98178571D01*
X214845238Y-98130952D01*
X210083333Y-72202380D02*
X209750000Y-71726190D01*
X209511904Y-72202380D02*
X209511904Y-71202380D01*
X209892857Y-71202380D01*
X209988095Y-71250000D01*
X210035714Y-71297619D01*
X210083333Y-71392857D01*
X210083333Y-71535714D01*
X210035714Y-71630952D01*
X209988095Y-71678571D01*
X209892857Y-71726190D01*
X209511904Y-71726190D01*
X210464285Y-71297619D02*
X210511904Y-71250000D01*
X210607142Y-71202380D01*
X210845238Y-71202380D01*
X210940476Y-71250000D01*
X210988095Y-71297619D01*
X211035714Y-71392857D01*
X211035714Y-71488095D01*
X210988095Y-71630952D01*
X210416666Y-72202380D01*
X211035714Y-72202380D01*
X209833333Y-85952380D02*
X209500000Y-85476190D01*
X209261904Y-85952380D02*
X209261904Y-84952380D01*
X209642857Y-84952380D01*
X209738095Y-85000000D01*
X209785714Y-85047619D01*
X209833333Y-85142857D01*
X209833333Y-85285714D01*
X209785714Y-85380952D01*
X209738095Y-85428571D01*
X209642857Y-85476190D01*
X209261904Y-85476190D01*
X210166666Y-84952380D02*
X210785714Y-84952380D01*
X210452380Y-85333333D01*
X210595238Y-85333333D01*
X210690476Y-85380952D01*
X210738095Y-85428571D01*
X210785714Y-85523809D01*
X210785714Y-85761904D01*
X210738095Y-85857142D01*
X210690476Y-85904761D01*
X210595238Y-85952380D01*
X210309523Y-85952380D01*
X210214285Y-85904761D01*
X210166666Y-85857142D01*
X209833333Y-97202380D02*
X209500000Y-96726190D01*
X209261904Y-97202380D02*
X209261904Y-96202380D01*
X209642857Y-96202380D01*
X209738095Y-96250000D01*
X209785714Y-96297619D01*
X209833333Y-96392857D01*
X209833333Y-96535714D01*
X209785714Y-96630952D01*
X209738095Y-96678571D01*
X209642857Y-96726190D01*
X209261904Y-96726190D01*
X210690476Y-96202380D02*
X210500000Y-96202380D01*
X210404761Y-96250000D01*
X210357142Y-96297619D01*
X210261904Y-96440476D01*
X210214285Y-96630952D01*
X210214285Y-97011904D01*
X210261904Y-97107142D01*
X210309523Y-97154761D01*
X210404761Y-97202380D01*
X210595238Y-97202380D01*
X210690476Y-97154761D01*
X210738095Y-97107142D01*
X210785714Y-97011904D01*
X210785714Y-96773809D01*
X210738095Y-96678571D01*
X210690476Y-96630952D01*
X210595238Y-96583333D01*
X210404761Y-96583333D01*
X210309523Y-96630952D01*
X210261904Y-96678571D01*
X210214285Y-96773809D01*
X207583333Y-92202380D02*
X207250000Y-91726190D01*
X207011904Y-92202380D02*
X207011904Y-91202380D01*
X207392857Y-91202380D01*
X207488095Y-91250000D01*
X207535714Y-91297619D01*
X207583333Y-91392857D01*
X207583333Y-91535714D01*
X207535714Y-91630952D01*
X207488095Y-91678571D01*
X207392857Y-91726190D01*
X207011904Y-91726190D01*
X207916666Y-91202380D02*
X208583333Y-91202380D01*
X208154761Y-92202380D01*
M02*
