G04 #@! TF.GenerationSoftware,KiCad,Pcbnew,(5.1.0)-1*
G04 #@! TF.CreationDate,2020-03-11T19:31:41+00:00*
G04 #@! TF.ProjectId,Line Generator,4c696e65-2047-4656-9e65-7261746f722e,rev?*
G04 #@! TF.SameCoordinates,Original*
G04 #@! TF.FileFunction,Copper,L2,Bot*
G04 #@! TF.FilePolarity,Positive*
%FSLAX46Y46*%
G04 Gerber Fmt 4.6, Leading zero omitted, Abs format (unit mm)*
G04 Created by KiCad (PCBNEW (5.1.0)-1) date 2020-03-11 19:31:41*
%MOMM*%
%LPD*%
G04 APERTURE LIST*
%ADD10R,1.000000X1.000000*%
%ADD11O,1.000000X1.000000*%
%ADD12C,1.800000*%
%ADD13C,0.254000*%
G04 APERTURE END LIST*
D10*
X230000000Y-83700000D03*
D11*
X230000000Y-84970000D03*
X230000000Y-86240000D03*
D12*
X224050000Y-70500000D03*
X229130000Y-73040000D03*
X236750000Y-70500000D03*
X236750000Y-96750000D03*
X229130000Y-99290000D03*
X224050000Y-96750000D03*
D13*
G36*
X222857688Y-69521495D02*
G01*
X222689701Y-69772905D01*
X222573989Y-70052257D01*
X222515000Y-70348816D01*
X222515000Y-70651184D01*
X222573989Y-70947743D01*
X222689701Y-71227095D01*
X222857688Y-71478505D01*
X223071495Y-71692312D01*
X223322905Y-71860299D01*
X223602257Y-71976011D01*
X223898816Y-72035000D01*
X224201184Y-72035000D01*
X224497743Y-71976011D01*
X224777095Y-71860299D01*
X225028505Y-71692312D01*
X225242312Y-71478505D01*
X225410299Y-71227095D01*
X225526011Y-70947743D01*
X225585000Y-70651184D01*
X225585000Y-70348816D01*
X225526011Y-70052257D01*
X225410299Y-69772905D01*
X225242312Y-69521495D01*
X225130817Y-69410000D01*
X235669183Y-69410000D01*
X235557688Y-69521495D01*
X235389701Y-69772905D01*
X235273989Y-70052257D01*
X235215000Y-70348816D01*
X235215000Y-70651184D01*
X235273989Y-70947743D01*
X235389701Y-71227095D01*
X235557688Y-71478505D01*
X235771495Y-71692312D01*
X236022905Y-71860299D01*
X236302257Y-71976011D01*
X236598816Y-72035000D01*
X236901184Y-72035000D01*
X237197743Y-71976011D01*
X237477095Y-71860299D01*
X237728505Y-71692312D01*
X237942312Y-71478505D01*
X238110299Y-71227095D01*
X238226011Y-70947743D01*
X238285000Y-70651184D01*
X238285000Y-70348816D01*
X238226011Y-70052257D01*
X238110299Y-69772905D01*
X237942312Y-69521495D01*
X237830817Y-69410000D01*
X240467721Y-69410000D01*
X240565424Y-69419580D01*
X240628356Y-69438580D01*
X240686405Y-69469445D01*
X240737343Y-69510989D01*
X240779248Y-69561644D01*
X240810515Y-69619471D01*
X240829956Y-69682272D01*
X240840000Y-69777835D01*
X240840001Y-99967711D01*
X240830420Y-100065424D01*
X240811420Y-100128357D01*
X240780554Y-100186406D01*
X240739011Y-100237343D01*
X240688356Y-100279248D01*
X240630529Y-100310515D01*
X240567728Y-100329956D01*
X240472165Y-100340000D01*
X230250817Y-100340000D01*
X230322312Y-100268505D01*
X230490299Y-100017095D01*
X230606011Y-99737743D01*
X230665000Y-99441184D01*
X230665000Y-99138816D01*
X230606011Y-98842257D01*
X230490299Y-98562905D01*
X230322312Y-98311495D01*
X230108505Y-98097688D01*
X229857095Y-97929701D01*
X229577743Y-97813989D01*
X229281184Y-97755000D01*
X228978816Y-97755000D01*
X228682257Y-97813989D01*
X228402905Y-97929701D01*
X228151495Y-98097688D01*
X227937688Y-98311495D01*
X227769701Y-98562905D01*
X227653989Y-98842257D01*
X227595000Y-99138816D01*
X227595000Y-99441184D01*
X227653989Y-99737743D01*
X227769701Y-100017095D01*
X227937688Y-100268505D01*
X228009183Y-100340000D01*
X203282279Y-100340000D01*
X203184576Y-100330420D01*
X203121643Y-100311420D01*
X203063594Y-100280554D01*
X203012657Y-100239011D01*
X202970752Y-100188356D01*
X202939485Y-100130529D01*
X202920044Y-100067728D01*
X202910000Y-99972165D01*
X202910000Y-96598816D01*
X222515000Y-96598816D01*
X222515000Y-96901184D01*
X222573989Y-97197743D01*
X222689701Y-97477095D01*
X222857688Y-97728505D01*
X223071495Y-97942312D01*
X223322905Y-98110299D01*
X223602257Y-98226011D01*
X223898816Y-98285000D01*
X224201184Y-98285000D01*
X224497743Y-98226011D01*
X224777095Y-98110299D01*
X225028505Y-97942312D01*
X225242312Y-97728505D01*
X225410299Y-97477095D01*
X225526011Y-97197743D01*
X225585000Y-96901184D01*
X225585000Y-96598816D01*
X235215000Y-96598816D01*
X235215000Y-96901184D01*
X235273989Y-97197743D01*
X235389701Y-97477095D01*
X235557688Y-97728505D01*
X235771495Y-97942312D01*
X236022905Y-98110299D01*
X236302257Y-98226011D01*
X236598816Y-98285000D01*
X236901184Y-98285000D01*
X237197743Y-98226011D01*
X237477095Y-98110299D01*
X237728505Y-97942312D01*
X237942312Y-97728505D01*
X238110299Y-97477095D01*
X238226011Y-97197743D01*
X238285000Y-96901184D01*
X238285000Y-96598816D01*
X238226011Y-96302257D01*
X238110299Y-96022905D01*
X237942312Y-95771495D01*
X237728505Y-95557688D01*
X237477095Y-95389701D01*
X237197743Y-95273989D01*
X236901184Y-95215000D01*
X236598816Y-95215000D01*
X236302257Y-95273989D01*
X236022905Y-95389701D01*
X235771495Y-95557688D01*
X235557688Y-95771495D01*
X235389701Y-96022905D01*
X235273989Y-96302257D01*
X235215000Y-96598816D01*
X225585000Y-96598816D01*
X225526011Y-96302257D01*
X225410299Y-96022905D01*
X225242312Y-95771495D01*
X225028505Y-95557688D01*
X224777095Y-95389701D01*
X224497743Y-95273989D01*
X224201184Y-95215000D01*
X223898816Y-95215000D01*
X223602257Y-95273989D01*
X223322905Y-95389701D01*
X223071495Y-95557688D01*
X222857688Y-95771495D01*
X222689701Y-96022905D01*
X222573989Y-96302257D01*
X222515000Y-96598816D01*
X202910000Y-96598816D01*
X202910000Y-90779872D01*
X221765000Y-90779872D01*
X221765000Y-91220128D01*
X221850890Y-91651925D01*
X222019369Y-92058669D01*
X222263962Y-92424729D01*
X222575271Y-92736038D01*
X222941331Y-92980631D01*
X223348075Y-93149110D01*
X223779872Y-93235000D01*
X224220128Y-93235000D01*
X224651925Y-93149110D01*
X225058669Y-92980631D01*
X225424729Y-92736038D01*
X225736038Y-92424729D01*
X225980631Y-92058669D01*
X226149110Y-91651925D01*
X226235000Y-91220128D01*
X226235000Y-90779872D01*
X233765000Y-90779872D01*
X233765000Y-91220128D01*
X233850890Y-91651925D01*
X234019369Y-92058669D01*
X234263962Y-92424729D01*
X234575271Y-92736038D01*
X234941331Y-92980631D01*
X235348075Y-93149110D01*
X235779872Y-93235000D01*
X236220128Y-93235000D01*
X236651925Y-93149110D01*
X237058669Y-92980631D01*
X237424729Y-92736038D01*
X237736038Y-92424729D01*
X237980631Y-92058669D01*
X238149110Y-91651925D01*
X238235000Y-91220128D01*
X238235000Y-90779872D01*
X238149110Y-90348075D01*
X237980631Y-89941331D01*
X237736038Y-89575271D01*
X237424729Y-89263962D01*
X237058669Y-89019369D01*
X236651925Y-88850890D01*
X236220128Y-88765000D01*
X235779872Y-88765000D01*
X235348075Y-88850890D01*
X234941331Y-89019369D01*
X234575271Y-89263962D01*
X234263962Y-89575271D01*
X234019369Y-89941331D01*
X233850890Y-90348075D01*
X233765000Y-90779872D01*
X226235000Y-90779872D01*
X226149110Y-90348075D01*
X225980631Y-89941331D01*
X225736038Y-89575271D01*
X225424729Y-89263962D01*
X225058669Y-89019369D01*
X224651925Y-88850890D01*
X224220128Y-88765000D01*
X223779872Y-88765000D01*
X223348075Y-88850890D01*
X222941331Y-89019369D01*
X222575271Y-89263962D01*
X222263962Y-89575271D01*
X222019369Y-89941331D01*
X221850890Y-90348075D01*
X221765000Y-90779872D01*
X202910000Y-90779872D01*
X202910000Y-84779872D01*
X203765000Y-84779872D01*
X203765000Y-85220128D01*
X203850890Y-85651925D01*
X204019369Y-86058669D01*
X204263962Y-86424729D01*
X204575271Y-86736038D01*
X204941331Y-86980631D01*
X205348075Y-87149110D01*
X205779872Y-87235000D01*
X206220128Y-87235000D01*
X206651925Y-87149110D01*
X207058669Y-86980631D01*
X207424729Y-86736038D01*
X207736038Y-86424729D01*
X207859469Y-86240000D01*
X228859509Y-86240000D01*
X228881423Y-86462499D01*
X228946324Y-86676447D01*
X229051716Y-86873623D01*
X229193551Y-87046449D01*
X229366377Y-87188284D01*
X229563553Y-87293676D01*
X229777501Y-87358577D01*
X229944248Y-87375000D01*
X230055752Y-87375000D01*
X230222499Y-87358577D01*
X230436447Y-87293676D01*
X230633623Y-87188284D01*
X230806449Y-87046449D01*
X230948284Y-86873623D01*
X231053676Y-86676447D01*
X231118577Y-86462499D01*
X231140491Y-86240000D01*
X231118577Y-86017501D01*
X231053676Y-85803553D01*
X230948284Y-85606377D01*
X230940274Y-85596617D01*
X230987123Y-85530206D01*
X231077446Y-85326864D01*
X231094119Y-85271874D01*
X230967954Y-85097000D01*
X230127000Y-85097000D01*
X230127000Y-85112017D01*
X230055752Y-85105000D01*
X229944248Y-85105000D01*
X229873000Y-85112017D01*
X229873000Y-85097000D01*
X229032046Y-85097000D01*
X228905881Y-85271874D01*
X228922554Y-85326864D01*
X229012877Y-85530206D01*
X229059726Y-85596617D01*
X229051716Y-85606377D01*
X228946324Y-85803553D01*
X228881423Y-86017501D01*
X228859509Y-86240000D01*
X207859469Y-86240000D01*
X207980631Y-86058669D01*
X208149110Y-85651925D01*
X208235000Y-85220128D01*
X208235000Y-84779872D01*
X208149110Y-84348075D01*
X207980631Y-83941331D01*
X207736038Y-83575271D01*
X207424729Y-83263962D01*
X207329003Y-83200000D01*
X228861928Y-83200000D01*
X228861928Y-84200000D01*
X228874188Y-84324482D01*
X228910498Y-84444180D01*
X228958070Y-84533180D01*
X228922554Y-84613136D01*
X228905881Y-84668126D01*
X229032046Y-84843000D01*
X229873000Y-84843000D01*
X229873000Y-84838072D01*
X230127000Y-84838072D01*
X230127000Y-84843000D01*
X230967954Y-84843000D01*
X231094119Y-84668126D01*
X231077446Y-84613136D01*
X231041930Y-84533180D01*
X231089502Y-84444180D01*
X231125812Y-84324482D01*
X231138072Y-84200000D01*
X231138072Y-83200000D01*
X231125812Y-83075518D01*
X231089502Y-82955820D01*
X231030537Y-82845506D01*
X230951185Y-82748815D01*
X230854494Y-82669463D01*
X230744180Y-82610498D01*
X230624482Y-82574188D01*
X230500000Y-82561928D01*
X229500000Y-82561928D01*
X229375518Y-82574188D01*
X229255820Y-82610498D01*
X229145506Y-82669463D01*
X229048815Y-82748815D01*
X228969463Y-82845506D01*
X228910498Y-82955820D01*
X228874188Y-83075518D01*
X228861928Y-83200000D01*
X207329003Y-83200000D01*
X207058669Y-83019369D01*
X206651925Y-82850890D01*
X206220128Y-82765000D01*
X205779872Y-82765000D01*
X205348075Y-82850890D01*
X204941331Y-83019369D01*
X204575271Y-83263962D01*
X204263962Y-83575271D01*
X204019369Y-83941331D01*
X203850890Y-84348075D01*
X203765000Y-84779872D01*
X202910000Y-84779872D01*
X202910000Y-78779872D01*
X221765000Y-78779872D01*
X221765000Y-79220128D01*
X221850890Y-79651925D01*
X222019369Y-80058669D01*
X222263962Y-80424729D01*
X222575271Y-80736038D01*
X222941331Y-80980631D01*
X223348075Y-81149110D01*
X223779872Y-81235000D01*
X224220128Y-81235000D01*
X224651925Y-81149110D01*
X225058669Y-80980631D01*
X225424729Y-80736038D01*
X225736038Y-80424729D01*
X225980631Y-80058669D01*
X226149110Y-79651925D01*
X226235000Y-79220128D01*
X226235000Y-78779872D01*
X233765000Y-78779872D01*
X233765000Y-79220128D01*
X233850890Y-79651925D01*
X234019369Y-80058669D01*
X234263962Y-80424729D01*
X234575271Y-80736038D01*
X234941331Y-80980631D01*
X235348075Y-81149110D01*
X235779872Y-81235000D01*
X236220128Y-81235000D01*
X236651925Y-81149110D01*
X237058669Y-80980631D01*
X237424729Y-80736038D01*
X237736038Y-80424729D01*
X237980631Y-80058669D01*
X238149110Y-79651925D01*
X238235000Y-79220128D01*
X238235000Y-78779872D01*
X238149110Y-78348075D01*
X237980631Y-77941331D01*
X237736038Y-77575271D01*
X237424729Y-77263962D01*
X237058669Y-77019369D01*
X236651925Y-76850890D01*
X236220128Y-76765000D01*
X235779872Y-76765000D01*
X235348075Y-76850890D01*
X234941331Y-77019369D01*
X234575271Y-77263962D01*
X234263962Y-77575271D01*
X234019369Y-77941331D01*
X233850890Y-78348075D01*
X233765000Y-78779872D01*
X226235000Y-78779872D01*
X226149110Y-78348075D01*
X225980631Y-77941331D01*
X225736038Y-77575271D01*
X225424729Y-77263962D01*
X225058669Y-77019369D01*
X224651925Y-76850890D01*
X224220128Y-76765000D01*
X223779872Y-76765000D01*
X223348075Y-76850890D01*
X222941331Y-77019369D01*
X222575271Y-77263962D01*
X222263962Y-77575271D01*
X222019369Y-77941331D01*
X221850890Y-78348075D01*
X221765000Y-78779872D01*
X202910000Y-78779872D01*
X202910000Y-72888816D01*
X227595000Y-72888816D01*
X227595000Y-73191184D01*
X227653989Y-73487743D01*
X227769701Y-73767095D01*
X227937688Y-74018505D01*
X228151495Y-74232312D01*
X228402905Y-74400299D01*
X228682257Y-74516011D01*
X228978816Y-74575000D01*
X229281184Y-74575000D01*
X229577743Y-74516011D01*
X229857095Y-74400299D01*
X230108505Y-74232312D01*
X230322312Y-74018505D01*
X230490299Y-73767095D01*
X230606011Y-73487743D01*
X230665000Y-73191184D01*
X230665000Y-72888816D01*
X230606011Y-72592257D01*
X230490299Y-72312905D01*
X230322312Y-72061495D01*
X230108505Y-71847688D01*
X229857095Y-71679701D01*
X229577743Y-71563989D01*
X229281184Y-71505000D01*
X228978816Y-71505000D01*
X228682257Y-71563989D01*
X228402905Y-71679701D01*
X228151495Y-71847688D01*
X227937688Y-72061495D01*
X227769701Y-72312905D01*
X227653989Y-72592257D01*
X227595000Y-72888816D01*
X202910000Y-72888816D01*
X202910000Y-69782279D01*
X202919580Y-69684576D01*
X202938580Y-69621644D01*
X202969445Y-69563595D01*
X203010989Y-69512657D01*
X203061644Y-69470752D01*
X203119471Y-69439485D01*
X203182272Y-69420044D01*
X203277835Y-69410000D01*
X222969183Y-69410000D01*
X222857688Y-69521495D01*
X222857688Y-69521495D01*
G37*
X222857688Y-69521495D02*
X222689701Y-69772905D01*
X222573989Y-70052257D01*
X222515000Y-70348816D01*
X222515000Y-70651184D01*
X222573989Y-70947743D01*
X222689701Y-71227095D01*
X222857688Y-71478505D01*
X223071495Y-71692312D01*
X223322905Y-71860299D01*
X223602257Y-71976011D01*
X223898816Y-72035000D01*
X224201184Y-72035000D01*
X224497743Y-71976011D01*
X224777095Y-71860299D01*
X225028505Y-71692312D01*
X225242312Y-71478505D01*
X225410299Y-71227095D01*
X225526011Y-70947743D01*
X225585000Y-70651184D01*
X225585000Y-70348816D01*
X225526011Y-70052257D01*
X225410299Y-69772905D01*
X225242312Y-69521495D01*
X225130817Y-69410000D01*
X235669183Y-69410000D01*
X235557688Y-69521495D01*
X235389701Y-69772905D01*
X235273989Y-70052257D01*
X235215000Y-70348816D01*
X235215000Y-70651184D01*
X235273989Y-70947743D01*
X235389701Y-71227095D01*
X235557688Y-71478505D01*
X235771495Y-71692312D01*
X236022905Y-71860299D01*
X236302257Y-71976011D01*
X236598816Y-72035000D01*
X236901184Y-72035000D01*
X237197743Y-71976011D01*
X237477095Y-71860299D01*
X237728505Y-71692312D01*
X237942312Y-71478505D01*
X238110299Y-71227095D01*
X238226011Y-70947743D01*
X238285000Y-70651184D01*
X238285000Y-70348816D01*
X238226011Y-70052257D01*
X238110299Y-69772905D01*
X237942312Y-69521495D01*
X237830817Y-69410000D01*
X240467721Y-69410000D01*
X240565424Y-69419580D01*
X240628356Y-69438580D01*
X240686405Y-69469445D01*
X240737343Y-69510989D01*
X240779248Y-69561644D01*
X240810515Y-69619471D01*
X240829956Y-69682272D01*
X240840000Y-69777835D01*
X240840001Y-99967711D01*
X240830420Y-100065424D01*
X240811420Y-100128357D01*
X240780554Y-100186406D01*
X240739011Y-100237343D01*
X240688356Y-100279248D01*
X240630529Y-100310515D01*
X240567728Y-100329956D01*
X240472165Y-100340000D01*
X230250817Y-100340000D01*
X230322312Y-100268505D01*
X230490299Y-100017095D01*
X230606011Y-99737743D01*
X230665000Y-99441184D01*
X230665000Y-99138816D01*
X230606011Y-98842257D01*
X230490299Y-98562905D01*
X230322312Y-98311495D01*
X230108505Y-98097688D01*
X229857095Y-97929701D01*
X229577743Y-97813989D01*
X229281184Y-97755000D01*
X228978816Y-97755000D01*
X228682257Y-97813989D01*
X228402905Y-97929701D01*
X228151495Y-98097688D01*
X227937688Y-98311495D01*
X227769701Y-98562905D01*
X227653989Y-98842257D01*
X227595000Y-99138816D01*
X227595000Y-99441184D01*
X227653989Y-99737743D01*
X227769701Y-100017095D01*
X227937688Y-100268505D01*
X228009183Y-100340000D01*
X203282279Y-100340000D01*
X203184576Y-100330420D01*
X203121643Y-100311420D01*
X203063594Y-100280554D01*
X203012657Y-100239011D01*
X202970752Y-100188356D01*
X202939485Y-100130529D01*
X202920044Y-100067728D01*
X202910000Y-99972165D01*
X202910000Y-96598816D01*
X222515000Y-96598816D01*
X222515000Y-96901184D01*
X222573989Y-97197743D01*
X222689701Y-97477095D01*
X222857688Y-97728505D01*
X223071495Y-97942312D01*
X223322905Y-98110299D01*
X223602257Y-98226011D01*
X223898816Y-98285000D01*
X224201184Y-98285000D01*
X224497743Y-98226011D01*
X224777095Y-98110299D01*
X225028505Y-97942312D01*
X225242312Y-97728505D01*
X225410299Y-97477095D01*
X225526011Y-97197743D01*
X225585000Y-96901184D01*
X225585000Y-96598816D01*
X235215000Y-96598816D01*
X235215000Y-96901184D01*
X235273989Y-97197743D01*
X235389701Y-97477095D01*
X235557688Y-97728505D01*
X235771495Y-97942312D01*
X236022905Y-98110299D01*
X236302257Y-98226011D01*
X236598816Y-98285000D01*
X236901184Y-98285000D01*
X237197743Y-98226011D01*
X237477095Y-98110299D01*
X237728505Y-97942312D01*
X237942312Y-97728505D01*
X238110299Y-97477095D01*
X238226011Y-97197743D01*
X238285000Y-96901184D01*
X238285000Y-96598816D01*
X238226011Y-96302257D01*
X238110299Y-96022905D01*
X237942312Y-95771495D01*
X237728505Y-95557688D01*
X237477095Y-95389701D01*
X237197743Y-95273989D01*
X236901184Y-95215000D01*
X236598816Y-95215000D01*
X236302257Y-95273989D01*
X236022905Y-95389701D01*
X235771495Y-95557688D01*
X235557688Y-95771495D01*
X235389701Y-96022905D01*
X235273989Y-96302257D01*
X235215000Y-96598816D01*
X225585000Y-96598816D01*
X225526011Y-96302257D01*
X225410299Y-96022905D01*
X225242312Y-95771495D01*
X225028505Y-95557688D01*
X224777095Y-95389701D01*
X224497743Y-95273989D01*
X224201184Y-95215000D01*
X223898816Y-95215000D01*
X223602257Y-95273989D01*
X223322905Y-95389701D01*
X223071495Y-95557688D01*
X222857688Y-95771495D01*
X222689701Y-96022905D01*
X222573989Y-96302257D01*
X222515000Y-96598816D01*
X202910000Y-96598816D01*
X202910000Y-90779872D01*
X221765000Y-90779872D01*
X221765000Y-91220128D01*
X221850890Y-91651925D01*
X222019369Y-92058669D01*
X222263962Y-92424729D01*
X222575271Y-92736038D01*
X222941331Y-92980631D01*
X223348075Y-93149110D01*
X223779872Y-93235000D01*
X224220128Y-93235000D01*
X224651925Y-93149110D01*
X225058669Y-92980631D01*
X225424729Y-92736038D01*
X225736038Y-92424729D01*
X225980631Y-92058669D01*
X226149110Y-91651925D01*
X226235000Y-91220128D01*
X226235000Y-90779872D01*
X233765000Y-90779872D01*
X233765000Y-91220128D01*
X233850890Y-91651925D01*
X234019369Y-92058669D01*
X234263962Y-92424729D01*
X234575271Y-92736038D01*
X234941331Y-92980631D01*
X235348075Y-93149110D01*
X235779872Y-93235000D01*
X236220128Y-93235000D01*
X236651925Y-93149110D01*
X237058669Y-92980631D01*
X237424729Y-92736038D01*
X237736038Y-92424729D01*
X237980631Y-92058669D01*
X238149110Y-91651925D01*
X238235000Y-91220128D01*
X238235000Y-90779872D01*
X238149110Y-90348075D01*
X237980631Y-89941331D01*
X237736038Y-89575271D01*
X237424729Y-89263962D01*
X237058669Y-89019369D01*
X236651925Y-88850890D01*
X236220128Y-88765000D01*
X235779872Y-88765000D01*
X235348075Y-88850890D01*
X234941331Y-89019369D01*
X234575271Y-89263962D01*
X234263962Y-89575271D01*
X234019369Y-89941331D01*
X233850890Y-90348075D01*
X233765000Y-90779872D01*
X226235000Y-90779872D01*
X226149110Y-90348075D01*
X225980631Y-89941331D01*
X225736038Y-89575271D01*
X225424729Y-89263962D01*
X225058669Y-89019369D01*
X224651925Y-88850890D01*
X224220128Y-88765000D01*
X223779872Y-88765000D01*
X223348075Y-88850890D01*
X222941331Y-89019369D01*
X222575271Y-89263962D01*
X222263962Y-89575271D01*
X222019369Y-89941331D01*
X221850890Y-90348075D01*
X221765000Y-90779872D01*
X202910000Y-90779872D01*
X202910000Y-84779872D01*
X203765000Y-84779872D01*
X203765000Y-85220128D01*
X203850890Y-85651925D01*
X204019369Y-86058669D01*
X204263962Y-86424729D01*
X204575271Y-86736038D01*
X204941331Y-86980631D01*
X205348075Y-87149110D01*
X205779872Y-87235000D01*
X206220128Y-87235000D01*
X206651925Y-87149110D01*
X207058669Y-86980631D01*
X207424729Y-86736038D01*
X207736038Y-86424729D01*
X207859469Y-86240000D01*
X228859509Y-86240000D01*
X228881423Y-86462499D01*
X228946324Y-86676447D01*
X229051716Y-86873623D01*
X229193551Y-87046449D01*
X229366377Y-87188284D01*
X229563553Y-87293676D01*
X229777501Y-87358577D01*
X229944248Y-87375000D01*
X230055752Y-87375000D01*
X230222499Y-87358577D01*
X230436447Y-87293676D01*
X230633623Y-87188284D01*
X230806449Y-87046449D01*
X230948284Y-86873623D01*
X231053676Y-86676447D01*
X231118577Y-86462499D01*
X231140491Y-86240000D01*
X231118577Y-86017501D01*
X231053676Y-85803553D01*
X230948284Y-85606377D01*
X230940274Y-85596617D01*
X230987123Y-85530206D01*
X231077446Y-85326864D01*
X231094119Y-85271874D01*
X230967954Y-85097000D01*
X230127000Y-85097000D01*
X230127000Y-85112017D01*
X230055752Y-85105000D01*
X229944248Y-85105000D01*
X229873000Y-85112017D01*
X229873000Y-85097000D01*
X229032046Y-85097000D01*
X228905881Y-85271874D01*
X228922554Y-85326864D01*
X229012877Y-85530206D01*
X229059726Y-85596617D01*
X229051716Y-85606377D01*
X228946324Y-85803553D01*
X228881423Y-86017501D01*
X228859509Y-86240000D01*
X207859469Y-86240000D01*
X207980631Y-86058669D01*
X208149110Y-85651925D01*
X208235000Y-85220128D01*
X208235000Y-84779872D01*
X208149110Y-84348075D01*
X207980631Y-83941331D01*
X207736038Y-83575271D01*
X207424729Y-83263962D01*
X207329003Y-83200000D01*
X228861928Y-83200000D01*
X228861928Y-84200000D01*
X228874188Y-84324482D01*
X228910498Y-84444180D01*
X228958070Y-84533180D01*
X228922554Y-84613136D01*
X228905881Y-84668126D01*
X229032046Y-84843000D01*
X229873000Y-84843000D01*
X229873000Y-84838072D01*
X230127000Y-84838072D01*
X230127000Y-84843000D01*
X230967954Y-84843000D01*
X231094119Y-84668126D01*
X231077446Y-84613136D01*
X231041930Y-84533180D01*
X231089502Y-84444180D01*
X231125812Y-84324482D01*
X231138072Y-84200000D01*
X231138072Y-83200000D01*
X231125812Y-83075518D01*
X231089502Y-82955820D01*
X231030537Y-82845506D01*
X230951185Y-82748815D01*
X230854494Y-82669463D01*
X230744180Y-82610498D01*
X230624482Y-82574188D01*
X230500000Y-82561928D01*
X229500000Y-82561928D01*
X229375518Y-82574188D01*
X229255820Y-82610498D01*
X229145506Y-82669463D01*
X229048815Y-82748815D01*
X228969463Y-82845506D01*
X228910498Y-82955820D01*
X228874188Y-83075518D01*
X228861928Y-83200000D01*
X207329003Y-83200000D01*
X207058669Y-83019369D01*
X206651925Y-82850890D01*
X206220128Y-82765000D01*
X205779872Y-82765000D01*
X205348075Y-82850890D01*
X204941331Y-83019369D01*
X204575271Y-83263962D01*
X204263962Y-83575271D01*
X204019369Y-83941331D01*
X203850890Y-84348075D01*
X203765000Y-84779872D01*
X202910000Y-84779872D01*
X202910000Y-78779872D01*
X221765000Y-78779872D01*
X221765000Y-79220128D01*
X221850890Y-79651925D01*
X222019369Y-80058669D01*
X222263962Y-80424729D01*
X222575271Y-80736038D01*
X222941331Y-80980631D01*
X223348075Y-81149110D01*
X223779872Y-81235000D01*
X224220128Y-81235000D01*
X224651925Y-81149110D01*
X225058669Y-80980631D01*
X225424729Y-80736038D01*
X225736038Y-80424729D01*
X225980631Y-80058669D01*
X226149110Y-79651925D01*
X226235000Y-79220128D01*
X226235000Y-78779872D01*
X233765000Y-78779872D01*
X233765000Y-79220128D01*
X233850890Y-79651925D01*
X234019369Y-80058669D01*
X234263962Y-80424729D01*
X234575271Y-80736038D01*
X234941331Y-80980631D01*
X235348075Y-81149110D01*
X235779872Y-81235000D01*
X236220128Y-81235000D01*
X236651925Y-81149110D01*
X237058669Y-80980631D01*
X237424729Y-80736038D01*
X237736038Y-80424729D01*
X237980631Y-80058669D01*
X238149110Y-79651925D01*
X238235000Y-79220128D01*
X238235000Y-78779872D01*
X238149110Y-78348075D01*
X237980631Y-77941331D01*
X237736038Y-77575271D01*
X237424729Y-77263962D01*
X237058669Y-77019369D01*
X236651925Y-76850890D01*
X236220128Y-76765000D01*
X235779872Y-76765000D01*
X235348075Y-76850890D01*
X234941331Y-77019369D01*
X234575271Y-77263962D01*
X234263962Y-77575271D01*
X234019369Y-77941331D01*
X233850890Y-78348075D01*
X233765000Y-78779872D01*
X226235000Y-78779872D01*
X226149110Y-78348075D01*
X225980631Y-77941331D01*
X225736038Y-77575271D01*
X225424729Y-77263962D01*
X225058669Y-77019369D01*
X224651925Y-76850890D01*
X224220128Y-76765000D01*
X223779872Y-76765000D01*
X223348075Y-76850890D01*
X222941331Y-77019369D01*
X222575271Y-77263962D01*
X222263962Y-77575271D01*
X222019369Y-77941331D01*
X221850890Y-78348075D01*
X221765000Y-78779872D01*
X202910000Y-78779872D01*
X202910000Y-72888816D01*
X227595000Y-72888816D01*
X227595000Y-73191184D01*
X227653989Y-73487743D01*
X227769701Y-73767095D01*
X227937688Y-74018505D01*
X228151495Y-74232312D01*
X228402905Y-74400299D01*
X228682257Y-74516011D01*
X228978816Y-74575000D01*
X229281184Y-74575000D01*
X229577743Y-74516011D01*
X229857095Y-74400299D01*
X230108505Y-74232312D01*
X230322312Y-74018505D01*
X230490299Y-73767095D01*
X230606011Y-73487743D01*
X230665000Y-73191184D01*
X230665000Y-72888816D01*
X230606011Y-72592257D01*
X230490299Y-72312905D01*
X230322312Y-72061495D01*
X230108505Y-71847688D01*
X229857095Y-71679701D01*
X229577743Y-71563989D01*
X229281184Y-71505000D01*
X228978816Y-71505000D01*
X228682257Y-71563989D01*
X228402905Y-71679701D01*
X228151495Y-71847688D01*
X227937688Y-72061495D01*
X227769701Y-72312905D01*
X227653989Y-72592257D01*
X227595000Y-72888816D01*
X202910000Y-72888816D01*
X202910000Y-69782279D01*
X202919580Y-69684576D01*
X202938580Y-69621644D01*
X202969445Y-69563595D01*
X203010989Y-69512657D01*
X203061644Y-69470752D01*
X203119471Y-69439485D01*
X203182272Y-69420044D01*
X203277835Y-69410000D01*
X222969183Y-69410000D01*
X222857688Y-69521495D01*
M02*
