%TF.GenerationSoftware,KiCad,Pcbnew,(5.1.7)-1*%
%TF.CreationDate,2021-02-26T18:48:08+00:00*%
%TF.ProjectId,Small Camera Adapter,536d616c-6c20-4436-916d-657261204164,rev?*%
%TF.SameCoordinates,Original*%
%TF.FileFunction,Copper,L2,Bot*%
%TF.FilePolarity,Positive*%
%FSLAX46Y46*%
G04 Gerber Fmt 4.6, Leading zero omitted, Abs format (unit mm)*
G04 Created by KiCad (PCBNEW (5.1.7)-1) date 2021-02-26 18:48:08*
%MOMM*%
%LPD*%
G01*
G04 APERTURE LIST*
%TA.AperFunction,ComponentPad*%
%ADD10O,2.000000X1.000000*%
%TD*%
%TA.AperFunction,ComponentPad*%
%ADD11O,1.600000X0.800000*%
%TD*%
%TA.AperFunction,ComponentPad*%
%ADD12C,0.600000*%
%TD*%
%TA.AperFunction,SMDPad,CuDef*%
%ADD13R,2.200000X0.600000*%
%TD*%
%TA.AperFunction,SMDPad,CuDef*%
%ADD14R,2.600000X1.800000*%
%TD*%
%TA.AperFunction,SMDPad,CuDef*%
%ADD15R,1.100000X1.100000*%
%TD*%
%TA.AperFunction,ViaPad*%
%ADD16C,0.800000*%
%TD*%
%TA.AperFunction,Conductor*%
%ADD17C,0.250000*%
%TD*%
%TA.AperFunction,Conductor*%
%ADD18C,0.254000*%
%TD*%
%TA.AperFunction,Conductor*%
%ADD19C,0.100000*%
%TD*%
G04 APERTURE END LIST*
D10*
%TO.P,J2,S4*%
%TO.N,GND*%
X163700000Y-118910000D03*
%TO.P,J2,S3*%
X163700000Y-127890000D03*
D11*
%TO.P,J2,S2*%
X159250000Y-119220000D03*
%TO.P,J2,S1*%
X159250000Y-127480000D03*
D12*
%TO.P,J2,B12*%
X158650000Y-126150000D03*
%TO.P,J2,B11*%
%TO.N,CAMERASCL*%
X159350000Y-125750000D03*
%TO.P,J2,B10*%
%TO.N,CAMERASDA*%
X159350000Y-124950000D03*
%TO.P,J2,B9*%
%TO.N,3.3VProtected*%
X158650000Y-124550000D03*
%TO.P,J2,B8*%
%TO.N,CAMERACN*%
X159350000Y-124150000D03*
%TO.P,J2,B7*%
%TO.N,CAMERADN1*%
X158650000Y-123750000D03*
%TO.P,J2,B6*%
%TO.N,CAMERADP1*%
X158650000Y-122950000D03*
%TO.P,J2,B5*%
%TO.N,CAMERACP*%
X159350000Y-122550000D03*
%TO.P,J2,B4*%
%TO.N,3.3VProtected*%
X158650000Y-122150000D03*
%TO.P,J2,B3*%
%TO.N,CAMERADN0*%
X159350000Y-121750000D03*
%TO.P,J2,B2*%
%TO.N,CAMERADP0*%
X159350000Y-120950000D03*
%TO.P,J2,B1*%
%TO.N,GND*%
X158650000Y-120550000D03*
%TD*%
D13*
%TO.P,J1,5*%
%TO.N,CAMERAGPIO*%
X146700000Y-123600000D03*
%TO.P,J1,4*%
%TO.N,Net-(J1-Pad4)*%
X146700000Y-124600000D03*
%TO.P,J1,6*%
%TO.N,GND*%
X146700000Y-122600000D03*
%TO.P,J1,3*%
%TO.N,CAMERASCL*%
X146700000Y-125600000D03*
D14*
%TO.P,J1,Z2*%
%TO.N,N/C*%
X144300000Y-111000000D03*
%TO.P,J1,Z1*%
X144300000Y-130200000D03*
D13*
%TO.P,J1,2*%
%TO.N,CAMERASDA*%
X146700000Y-126600000D03*
%TO.P,J1,1*%
%TO.N,3.3VProtected*%
X146700000Y-127600000D03*
%TO.P,J1,7*%
%TO.N,CAMERACP*%
X146700000Y-121600000D03*
%TO.P,J1,8*%
%TO.N,CAMERACN*%
X146700000Y-120600000D03*
%TO.P,J1,9*%
%TO.N,GND*%
X146700000Y-119600000D03*
%TO.P,J1,10*%
%TO.N,CAMERADP1*%
X146700000Y-118600000D03*
%TO.P,J1,11*%
%TO.N,CAMERADN1*%
X146700000Y-117600000D03*
%TO.P,J1,12*%
%TO.N,GND*%
X146700000Y-116600000D03*
%TO.P,J1,13*%
%TO.N,CAMERADP0*%
X146700000Y-115600000D03*
%TO.P,J1,14*%
%TO.N,CAMERADN0*%
X146700000Y-114600000D03*
%TO.P,J1,15*%
%TO.N,GND*%
X146700000Y-113600000D03*
%TD*%
D15*
%TO.P,D2,1*%
%TO.N,3.3VProtected*%
X154600000Y-109100000D03*
%TO.P,D2,2*%
%TO.N,Net-(C2-Pad1)*%
X154600000Y-111900000D03*
%TD*%
%TO.P,C1,2*%
%TO.N,GND*%
%TA.AperFunction,SMDPad,CuDef*%
G36*
G01*
X158288000Y-109775000D02*
X158288000Y-108825000D01*
G75*
G02*
X158538000Y-108575000I250000J0D01*
G01*
X159213000Y-108575000D01*
G75*
G02*
X159463000Y-108825000I0J-250000D01*
G01*
X159463000Y-109775000D01*
G75*
G02*
X159213000Y-110025000I-250000J0D01*
G01*
X158538000Y-110025000D01*
G75*
G02*
X158288000Y-109775000I0J250000D01*
G01*
G37*
%TD.AperFunction*%
%TO.P,C1,1*%
%TO.N,3.3VProtected*%
%TA.AperFunction,SMDPad,CuDef*%
G36*
G01*
X156213000Y-109775000D02*
X156213000Y-108825000D01*
G75*
G02*
X156463000Y-108575000I250000J0D01*
G01*
X157138000Y-108575000D01*
G75*
G02*
X157388000Y-108825000I0J-250000D01*
G01*
X157388000Y-109775000D01*
G75*
G02*
X157138000Y-110025000I-250000J0D01*
G01*
X156463000Y-110025000D01*
G75*
G02*
X156213000Y-109775000I0J250000D01*
G01*
G37*
%TD.AperFunction*%
%TD*%
%TO.P,C2,1*%
%TO.N,Net-(C2-Pad1)*%
%TA.AperFunction,SMDPad,CuDef*%
G36*
G01*
X156237000Y-111875000D02*
X156237000Y-110925000D01*
G75*
G02*
X156487000Y-110675000I250000J0D01*
G01*
X157162000Y-110675000D01*
G75*
G02*
X157412000Y-110925000I0J-250000D01*
G01*
X157412000Y-111875000D01*
G75*
G02*
X157162000Y-112125000I-250000J0D01*
G01*
X156487000Y-112125000D01*
G75*
G02*
X156237000Y-111875000I0J250000D01*
G01*
G37*
%TD.AperFunction*%
%TO.P,C2,2*%
%TO.N,GND*%
%TA.AperFunction,SMDPad,CuDef*%
G36*
G01*
X158312000Y-111875000D02*
X158312000Y-110925000D01*
G75*
G02*
X158562000Y-110675000I250000J0D01*
G01*
X159237000Y-110675000D01*
G75*
G02*
X159487000Y-110925000I0J-250000D01*
G01*
X159487000Y-111875000D01*
G75*
G02*
X159237000Y-112125000I-250000J0D01*
G01*
X158562000Y-112125000D01*
G75*
G02*
X158312000Y-111875000I0J250000D01*
G01*
G37*
%TD.AperFunction*%
%TD*%
%TO.P,R1,1*%
%TO.N,GND*%
%TA.AperFunction,SMDPad,CuDef*%
G36*
G01*
X159500000Y-112849999D02*
X159500000Y-113750001D01*
G75*
G02*
X159250001Y-114000000I-249999J0D01*
G01*
X158549999Y-114000000D01*
G75*
G02*
X158300000Y-113750001I0J249999D01*
G01*
X158300000Y-112849999D01*
G75*
G02*
X158549999Y-112600000I249999J0D01*
G01*
X159250001Y-112600000D01*
G75*
G02*
X159500000Y-112849999I0J-249999D01*
G01*
G37*
%TD.AperFunction*%
%TO.P,R1,2*%
%TO.N,Net-(C2-Pad1)*%
%TA.AperFunction,SMDPad,CuDef*%
G36*
G01*
X157500000Y-112849999D02*
X157500000Y-113750001D01*
G75*
G02*
X157250001Y-114000000I-249999J0D01*
G01*
X156549999Y-114000000D01*
G75*
G02*
X156300000Y-113750001I0J249999D01*
G01*
X156300000Y-112849999D01*
G75*
G02*
X156549999Y-112600000I249999J0D01*
G01*
X157250001Y-112600000D01*
G75*
G02*
X157500000Y-112849999I0J-249999D01*
G01*
G37*
%TD.AperFunction*%
%TD*%
D16*
%TO.N,3.3VProtected*%
X152800000Y-127549500D03*
%TO.N,CAMERASCL*%
X155665100Y-120721500D03*
%TO.N,CAMERASDA*%
X156403800Y-121706000D03*
%TO.N,CAMERACP*%
X155255500Y-126884800D03*
X148301600Y-122262900D03*
%TO.N,CAMERACN*%
X154801800Y-119997800D03*
%TO.N,CAMERADP1*%
X148973300Y-119764200D03*
%TO.N,CAMERADN1*%
X149103400Y-118653400D03*
X160186900Y-123955200D03*
%TO.N,CAMERADP0*%
X160144600Y-129455800D03*
%TO.N,CAMERADN0*%
X157188200Y-118537700D03*
X158784600Y-129175300D03*
%TO.N,Net-(C2-Pad1)*%
X152525000Y-112910700D03*
%TD*%
D17*
%TO.N,GND*%
X158900000Y-114253100D02*
X158900000Y-113300000D01*
X159247600Y-118910000D02*
X159247600Y-114600700D01*
X159247600Y-114600700D02*
X158900000Y-114253100D01*
X158900000Y-114253100D02*
X149120900Y-114253100D01*
X149120900Y-114253100D02*
X148467800Y-113600000D01*
X148467800Y-113600000D02*
X146700000Y-113600000D01*
X146700000Y-122600000D02*
X145350000Y-122600000D01*
X145350000Y-119600000D02*
X145350000Y-122600000D01*
X145450000Y-116600000D02*
X145350000Y-116700000D01*
X145350000Y-116700000D02*
X145350000Y-119600000D01*
X146700000Y-119600000D02*
X145350000Y-119600000D01*
X145350000Y-113600000D02*
X145350000Y-116500000D01*
X145350000Y-116500000D02*
X145450000Y-116600000D01*
X146700000Y-113600000D02*
X145350000Y-113600000D01*
X146700000Y-116600000D02*
X145450000Y-116600000D01*
X159247600Y-119220000D02*
X159247600Y-118910000D01*
X159247600Y-118910000D02*
X162450000Y-118910000D01*
X163700000Y-118910000D02*
X162450000Y-118910000D01*
X158900000Y-113300000D02*
X158899500Y-113299500D01*
X158899500Y-113299500D02*
X158899500Y-111400000D01*
X158899500Y-111400000D02*
X158875500Y-111376000D01*
X158875500Y-111376000D02*
X158875500Y-109300000D01*
X158650000Y-120550000D02*
X158650000Y-119817600D01*
X158650000Y-119817600D02*
X159247600Y-119220000D01*
X159247600Y-119220000D02*
X159250000Y-119220000D01*
X158650000Y-126150000D02*
X158650000Y-126880000D01*
X158650000Y-126880000D02*
X159250000Y-127480000D01*
%TO.N,3.3VProtected*%
X154600000Y-109100000D02*
X155400000Y-109100000D01*
X156800500Y-109300000D02*
X155600000Y-109300000D01*
X155600000Y-109300000D02*
X155400000Y-109100000D01*
X158650000Y-124550000D02*
X158114500Y-124014500D01*
X158114500Y-124014500D02*
X158114500Y-122685500D01*
X158114500Y-122685500D02*
X158650000Y-122150000D01*
X146700000Y-127600000D02*
X152749500Y-127600000D01*
X152749500Y-127600000D02*
X152800000Y-127549500D01*
X146125000Y-127600000D02*
X146700000Y-127600000D01*
X146125000Y-127600000D02*
X145350000Y-127600000D01*
X154600000Y-109100000D02*
X153800000Y-109100000D01*
X145350000Y-127600000D02*
X144954600Y-127204600D01*
X144954600Y-127204600D02*
X144954600Y-113442700D01*
X144954600Y-113442700D02*
X146930400Y-111466900D01*
X146930400Y-111466900D02*
X151433100Y-111466900D01*
X151433100Y-111466900D02*
X153800000Y-109100000D01*
%TO.N,CAMERASCL*%
X155665100Y-125600000D02*
X159200000Y-125600000D01*
X159200000Y-125600000D02*
X159350000Y-125750000D01*
X148050000Y-125600000D02*
X155665100Y-125600000D01*
X155665100Y-125600000D02*
X155665100Y-120721500D01*
X146700000Y-125600000D02*
X148050000Y-125600000D01*
%TO.N,CAMERASDA*%
X159350000Y-124950000D02*
X159205700Y-125094300D01*
X159205700Y-125094300D02*
X158356500Y-125094300D01*
X158356500Y-125094300D02*
X156403800Y-123141600D01*
X156403800Y-123141600D02*
X156403800Y-121706000D01*
X148050000Y-126600000D02*
X148390600Y-126259400D01*
X148390600Y-126259400D02*
X155824000Y-126259400D01*
X155824000Y-126259400D02*
X157674400Y-128109800D01*
X157674400Y-128109800D02*
X159927000Y-128109800D01*
X159927000Y-128109800D02*
X160306500Y-127730300D01*
X160306500Y-127730300D02*
X160306500Y-125906500D01*
X160306500Y-125906500D02*
X159350000Y-124950000D01*
X146700000Y-126600000D02*
X148050000Y-126600000D01*
%TO.N,CAMERACP*%
X148050000Y-121600000D02*
X148050000Y-122011300D01*
X148050000Y-122011300D02*
X148301600Y-122262900D01*
X146700000Y-121600000D02*
X148050000Y-121600000D01*
X159350000Y-122550000D02*
X159678300Y-122550000D01*
X159678300Y-122550000D02*
X160840000Y-123711700D01*
X160840000Y-123711700D02*
X160840000Y-127692500D01*
X160840000Y-127692500D02*
X160072300Y-128460200D01*
X160072300Y-128460200D02*
X156830900Y-128460200D01*
X156830900Y-128460200D02*
X155255500Y-126884800D01*
%TO.N,CAMERACN*%
X146700000Y-120600000D02*
X154199600Y-120600000D01*
X154199600Y-120600000D02*
X154801800Y-119997800D01*
%TO.N,CAMERADP1*%
X146700000Y-118600000D02*
X148050000Y-118600000D01*
X148050000Y-118600000D02*
X148050000Y-118840900D01*
X148050000Y-118840900D02*
X148973300Y-119764200D01*
%TO.N,CAMERADN1*%
X148050000Y-117600000D02*
X149103400Y-118653400D01*
X146700000Y-117600000D02*
X148050000Y-117600000D01*
X158650000Y-123750000D02*
X158803200Y-123596800D01*
X158803200Y-123596800D02*
X159828500Y-123596800D01*
X159828500Y-123596800D02*
X160186900Y-123955200D01*
%TO.N,CAMERADP0*%
X148050000Y-115600000D02*
X151558300Y-119108300D01*
X151558300Y-119108300D02*
X155089300Y-119108300D01*
X155089300Y-119108300D02*
X157117000Y-121136000D01*
X157117000Y-121136000D02*
X159164000Y-121136000D01*
X159164000Y-121136000D02*
X159321600Y-120978400D01*
X159321600Y-120978400D02*
X161571700Y-123228500D01*
X161571700Y-123228500D02*
X161571700Y-128028700D01*
X161571700Y-128028700D02*
X160144600Y-129455800D01*
X159321600Y-120978400D02*
X159350000Y-120950000D01*
X146700000Y-115600000D02*
X148050000Y-115600000D01*
%TO.N,CAMERADN0*%
X157188200Y-118537700D02*
X151987700Y-118537700D01*
X151987700Y-118537700D02*
X148050000Y-114600000D01*
X158784600Y-129175300D02*
X159149300Y-128810600D01*
X159149300Y-128810600D02*
X160217400Y-128810600D01*
X160217400Y-128810600D02*
X161220400Y-127807600D01*
X161220400Y-127807600D02*
X161220400Y-123549400D01*
X161220400Y-123549400D02*
X159421000Y-121750000D01*
X159421000Y-121750000D02*
X159350000Y-121750000D01*
X146700000Y-114600000D02*
X148050000Y-114600000D01*
%TO.N,Net-(C2-Pad1)*%
X156824500Y-111900000D02*
X156824500Y-111400000D01*
X156900000Y-113300000D02*
X156824500Y-113224500D01*
X156824500Y-113224500D02*
X156824500Y-111900000D01*
X156824500Y-111900000D02*
X155400000Y-111900000D01*
X154600000Y-111900000D02*
X155400000Y-111900000D01*
X154600000Y-111900000D02*
X153535700Y-111900000D01*
X153535700Y-111900000D02*
X152525000Y-112910700D01*
%TD*%
D18*
%TO.N,GND*%
X149452337Y-108994002D02*
X149262463Y-109278169D01*
X149131675Y-109593919D01*
X149065000Y-109929117D01*
X149065000Y-110270883D01*
X149131675Y-110606081D01*
X149173436Y-110706900D01*
X146967722Y-110706900D01*
X146930399Y-110703224D01*
X146893076Y-110706900D01*
X146893067Y-110706900D01*
X146781414Y-110717897D01*
X146669827Y-110751746D01*
X146638153Y-110761354D01*
X146506123Y-110831926D01*
X146424619Y-110898815D01*
X146390399Y-110926899D01*
X146366601Y-110955897D01*
X146238072Y-111084426D01*
X146238072Y-110100000D01*
X146225812Y-109975518D01*
X146189502Y-109855820D01*
X146130537Y-109745506D01*
X146051185Y-109648815D01*
X145954494Y-109569463D01*
X145844180Y-109510498D01*
X145724482Y-109474188D01*
X145600000Y-109461928D01*
X143000000Y-109461928D01*
X142875518Y-109474188D01*
X142755820Y-109510498D01*
X142645506Y-109569463D01*
X142548815Y-109648815D01*
X142469463Y-109745506D01*
X142410498Y-109855820D01*
X142374188Y-109975518D01*
X142361928Y-110100000D01*
X142361928Y-111900000D01*
X142374188Y-112024482D01*
X142410498Y-112144180D01*
X142469463Y-112254494D01*
X142548815Y-112351185D01*
X142645506Y-112430537D01*
X142755820Y-112489502D01*
X142875518Y-112525812D01*
X143000000Y-112538072D01*
X144784427Y-112538072D01*
X144443598Y-112878901D01*
X144414600Y-112902699D01*
X144390802Y-112931697D01*
X144390801Y-112931698D01*
X144319626Y-113018424D01*
X144249054Y-113150454D01*
X144205598Y-113293715D01*
X144190924Y-113442700D01*
X144194601Y-113480032D01*
X144194600Y-127167278D01*
X144190924Y-127204600D01*
X144194600Y-127241922D01*
X144194600Y-127241932D01*
X144205597Y-127353585D01*
X144246583Y-127488699D01*
X144249054Y-127496846D01*
X144319626Y-127628876D01*
X144359471Y-127677426D01*
X144414599Y-127744601D01*
X144443603Y-127768404D01*
X144786196Y-128110997D01*
X144809999Y-128140001D01*
X144925724Y-128234974D01*
X145057753Y-128305546D01*
X145129129Y-128327197D01*
X145148815Y-128351185D01*
X145245506Y-128430537D01*
X145355820Y-128489502D01*
X145475518Y-128525812D01*
X145600000Y-128538072D01*
X147800000Y-128538072D01*
X147924482Y-128525812D01*
X148044180Y-128489502D01*
X148154494Y-128430537D01*
X148240444Y-128360000D01*
X152150048Y-128360000D01*
X152309744Y-128466705D01*
X152498102Y-128544726D01*
X152698061Y-128584500D01*
X152901939Y-128584500D01*
X153101898Y-128544726D01*
X153290256Y-128466705D01*
X153459774Y-128353437D01*
X153603937Y-128209274D01*
X153717205Y-128039756D01*
X153795226Y-127851398D01*
X153835000Y-127651439D01*
X153835000Y-127447561D01*
X153795226Y-127247602D01*
X153717205Y-127059244D01*
X153690582Y-127019400D01*
X154226997Y-127019400D01*
X154260274Y-127186698D01*
X154338295Y-127375056D01*
X154451563Y-127544574D01*
X154595726Y-127688737D01*
X154765244Y-127802005D01*
X154953602Y-127880026D01*
X155153561Y-127919800D01*
X155215699Y-127919800D01*
X156267101Y-128971203D01*
X156290899Y-129000201D01*
X156319897Y-129023999D01*
X156406623Y-129095174D01*
X156516495Y-129153902D01*
X156538653Y-129165746D01*
X156681914Y-129209203D01*
X156793567Y-129220200D01*
X156793576Y-129220200D01*
X156830899Y-129223876D01*
X156868222Y-129220200D01*
X157749600Y-129220200D01*
X157749600Y-129277239D01*
X157789374Y-129477198D01*
X157867395Y-129665556D01*
X157980663Y-129835074D01*
X158124826Y-129979237D01*
X158294344Y-130092505D01*
X158482702Y-130170526D01*
X158682661Y-130210300D01*
X158886539Y-130210300D01*
X159086498Y-130170526D01*
X159274856Y-130092505D01*
X159309695Y-130069227D01*
X159340663Y-130115574D01*
X159484826Y-130259737D01*
X159654344Y-130373005D01*
X159842702Y-130451026D01*
X160042661Y-130490800D01*
X160246539Y-130490800D01*
X160446498Y-130451026D01*
X160634856Y-130373005D01*
X160804374Y-130259737D01*
X160948537Y-130115574D01*
X161061805Y-129946056D01*
X161139826Y-129757698D01*
X161179600Y-129557739D01*
X161179600Y-129495601D01*
X162082703Y-128592499D01*
X162111701Y-128568701D01*
X162206674Y-128452976D01*
X162208353Y-128449834D01*
X162307631Y-128602764D01*
X162463831Y-128763161D01*
X162648322Y-128890003D01*
X162854013Y-128978415D01*
X163073000Y-129025000D01*
X163573000Y-129025000D01*
X163573000Y-128017000D01*
X163553000Y-128017000D01*
X163553000Y-127763000D01*
X163573000Y-127763000D01*
X163573000Y-126755000D01*
X163073000Y-126755000D01*
X162854013Y-126801585D01*
X162648322Y-126889997D01*
X162463831Y-127016839D01*
X162331700Y-127152520D01*
X162331700Y-123265823D01*
X162335376Y-123228500D01*
X162331700Y-123191177D01*
X162331700Y-123191167D01*
X162320703Y-123079514D01*
X162277246Y-122936253D01*
X162235371Y-122857911D01*
X162206674Y-122804223D01*
X162135499Y-122717497D01*
X162111701Y-122688499D01*
X162082704Y-122664702D01*
X160285000Y-120866999D01*
X160285000Y-120857911D01*
X160249068Y-120677271D01*
X160178586Y-120507111D01*
X160076262Y-120353972D01*
X159946028Y-120223738D01*
X159938647Y-120218806D01*
X159976478Y-120210336D01*
X160163410Y-120127614D01*
X160330612Y-120010013D01*
X160471658Y-119862052D01*
X160581128Y-119689418D01*
X160644666Y-119506123D01*
X160516998Y-119347000D01*
X159377000Y-119347000D01*
X159377000Y-119367000D01*
X159123000Y-119367000D01*
X159123000Y-119347000D01*
X159103000Y-119347000D01*
X159103000Y-119211874D01*
X162105881Y-119211874D01*
X162185724Y-119434976D01*
X162307631Y-119622764D01*
X162463831Y-119783161D01*
X162648322Y-119910003D01*
X162854013Y-119998415D01*
X163073000Y-120045000D01*
X163573000Y-120045000D01*
X163573000Y-119037000D01*
X162232046Y-119037000D01*
X162105881Y-119211874D01*
X159103000Y-119211874D01*
X159103000Y-119093000D01*
X159123000Y-119093000D01*
X159123000Y-118185000D01*
X159377000Y-118185000D01*
X159377000Y-119093000D01*
X160516998Y-119093000D01*
X160644666Y-118933877D01*
X160581128Y-118750582D01*
X160490795Y-118608126D01*
X162105881Y-118608126D01*
X162232046Y-118783000D01*
X163573000Y-118783000D01*
X163573000Y-117775000D01*
X163073000Y-117775000D01*
X162854013Y-117821585D01*
X162648322Y-117909997D01*
X162463831Y-118036839D01*
X162307631Y-118197236D01*
X162185724Y-118385024D01*
X162105881Y-118608126D01*
X160490795Y-118608126D01*
X160471658Y-118577948D01*
X160330612Y-118429987D01*
X160163410Y-118312386D01*
X159976478Y-118229664D01*
X159777000Y-118185000D01*
X159377000Y-118185000D01*
X159123000Y-118185000D01*
X158723000Y-118185000D01*
X158523522Y-118229664D01*
X158336590Y-118312386D01*
X158215588Y-118397492D01*
X158183426Y-118235802D01*
X158105405Y-118047444D01*
X157992137Y-117877926D01*
X157847974Y-117733763D01*
X157678456Y-117620495D01*
X157490098Y-117542474D01*
X157290139Y-117502700D01*
X157086261Y-117502700D01*
X156886302Y-117542474D01*
X156697944Y-117620495D01*
X156528426Y-117733763D01*
X156484489Y-117777700D01*
X152302502Y-117777700D01*
X148613804Y-114089003D01*
X148590001Y-114059999D01*
X148474276Y-113965026D01*
X148433799Y-113943390D01*
X148438072Y-113900000D01*
X148435000Y-113885750D01*
X148276250Y-113727000D01*
X148075053Y-113727000D01*
X148044180Y-113710498D01*
X147924482Y-113674188D01*
X147800000Y-113661928D01*
X146553000Y-113661928D01*
X146553000Y-113473000D01*
X146573000Y-113473000D01*
X146573000Y-113453000D01*
X146827000Y-113453000D01*
X146827000Y-113473000D01*
X148276250Y-113473000D01*
X148435000Y-113314250D01*
X148438072Y-113300000D01*
X148425812Y-113175518D01*
X148389502Y-113055820D01*
X148330537Y-112945506D01*
X148251185Y-112848815D01*
X148154494Y-112769463D01*
X148044180Y-112710498D01*
X147924482Y-112674188D01*
X147800000Y-112661928D01*
X146985750Y-112665000D01*
X146827002Y-112823748D01*
X146827002Y-112665000D01*
X146807102Y-112665000D01*
X147245202Y-112226900D01*
X151395778Y-112226900D01*
X151433100Y-112230576D01*
X151470422Y-112226900D01*
X151470433Y-112226900D01*
X151582086Y-112215903D01*
X151725347Y-112172446D01*
X151857376Y-112101874D01*
X151973101Y-112006901D01*
X151996904Y-111977897D01*
X153759864Y-110214938D01*
X153805820Y-110239502D01*
X153925518Y-110275812D01*
X154050000Y-110288072D01*
X155150000Y-110288072D01*
X155274482Y-110275812D01*
X155394180Y-110239502D01*
X155504494Y-110180537D01*
X155601185Y-110101185D01*
X155628344Y-110068091D01*
X155642528Y-110114850D01*
X155724595Y-110268386D01*
X155803573Y-110364622D01*
X155748595Y-110431614D01*
X155666528Y-110585150D01*
X155615992Y-110751746D01*
X155601472Y-110899165D01*
X155601185Y-110898815D01*
X155504494Y-110819463D01*
X155394180Y-110760498D01*
X155274482Y-110724188D01*
X155150000Y-110711928D01*
X154050000Y-110711928D01*
X153925518Y-110724188D01*
X153805820Y-110760498D01*
X153695506Y-110819463D01*
X153598815Y-110898815D01*
X153519463Y-110995506D01*
X153460498Y-111105820D01*
X153448644Y-111144897D01*
X153386714Y-111150997D01*
X153243453Y-111194454D01*
X153111424Y-111265026D01*
X152995699Y-111359999D01*
X152971901Y-111388997D01*
X152485199Y-111875700D01*
X152423061Y-111875700D01*
X152223102Y-111915474D01*
X152034744Y-111993495D01*
X151865226Y-112106763D01*
X151721063Y-112250926D01*
X151607795Y-112420444D01*
X151529774Y-112608802D01*
X151490000Y-112808761D01*
X151490000Y-113012639D01*
X151529774Y-113212598D01*
X151607795Y-113400956D01*
X151721063Y-113570474D01*
X151865226Y-113714637D01*
X152034744Y-113827905D01*
X152223102Y-113905926D01*
X152423061Y-113945700D01*
X152626939Y-113945700D01*
X152826898Y-113905926D01*
X153015256Y-113827905D01*
X153184774Y-113714637D01*
X153328937Y-113570474D01*
X153442205Y-113400956D01*
X153520226Y-113212598D01*
X153560000Y-113012639D01*
X153560000Y-112950501D01*
X153604583Y-112905919D01*
X153695506Y-112980537D01*
X153805820Y-113039502D01*
X153925518Y-113075812D01*
X154050000Y-113088072D01*
X155150000Y-113088072D01*
X155274482Y-113075812D01*
X155394180Y-113039502D01*
X155504494Y-112980537D01*
X155601185Y-112901185D01*
X155664483Y-112824056D01*
X155661928Y-112849999D01*
X155661928Y-113750001D01*
X155678992Y-113923255D01*
X155729528Y-114089851D01*
X155811595Y-114243387D01*
X155922038Y-114377962D01*
X156056613Y-114488405D01*
X156210149Y-114570472D01*
X156376745Y-114621008D01*
X156549999Y-114638072D01*
X157250001Y-114638072D01*
X157423255Y-114621008D01*
X157589851Y-114570472D01*
X157743387Y-114488405D01*
X157824637Y-114421724D01*
X157848815Y-114451185D01*
X157945506Y-114530537D01*
X158055820Y-114589502D01*
X158175518Y-114625812D01*
X158300000Y-114638072D01*
X158614250Y-114635000D01*
X158773000Y-114476250D01*
X158773000Y-113427000D01*
X159027000Y-113427000D01*
X159027000Y-114476250D01*
X159185750Y-114635000D01*
X159500000Y-114638072D01*
X159624482Y-114625812D01*
X159744180Y-114589502D01*
X159854494Y-114530537D01*
X159951185Y-114451185D01*
X160030537Y-114354494D01*
X160089502Y-114244180D01*
X160125812Y-114124482D01*
X160138072Y-114000000D01*
X160135000Y-113585750D01*
X159976250Y-113427000D01*
X159027000Y-113427000D01*
X158773000Y-113427000D01*
X158753000Y-113427000D01*
X158753000Y-113173000D01*
X158773000Y-113173000D01*
X158773000Y-112123750D01*
X158772500Y-112123250D01*
X158772500Y-111527000D01*
X159026500Y-111527000D01*
X159026500Y-112601250D01*
X159027000Y-112601750D01*
X159027000Y-113173000D01*
X159976250Y-113173000D01*
X160135000Y-113014250D01*
X160138072Y-112600000D01*
X160125812Y-112475518D01*
X160089502Y-112355820D01*
X160083794Y-112345141D01*
X160112812Y-112249482D01*
X160125072Y-112125000D01*
X160122000Y-111685750D01*
X159963250Y-111527000D01*
X159026500Y-111527000D01*
X158772500Y-111527000D01*
X158752500Y-111527000D01*
X158752500Y-111273000D01*
X158772500Y-111273000D01*
X158772500Y-110198750D01*
X158748500Y-110174750D01*
X158748500Y-109427000D01*
X159002500Y-109427000D01*
X159002500Y-110501250D01*
X159026500Y-110525250D01*
X159026500Y-111273000D01*
X159963250Y-111273000D01*
X160122000Y-111114250D01*
X160125072Y-110675000D01*
X160112812Y-110550518D01*
X160076502Y-110430820D01*
X160021302Y-110327550D01*
X160052502Y-110269180D01*
X160088812Y-110149482D01*
X160101072Y-110025000D01*
X160098000Y-109585750D01*
X159939250Y-109427000D01*
X159002500Y-109427000D01*
X158748500Y-109427000D01*
X158728500Y-109427000D01*
X158728500Y-109173000D01*
X158748500Y-109173000D01*
X158748500Y-109153000D01*
X159002500Y-109153000D01*
X159002500Y-109173000D01*
X159939250Y-109173000D01*
X160098000Y-109014250D01*
X160099778Y-108760000D01*
X162186339Y-108760000D01*
X161952337Y-108994002D01*
X161762463Y-109278169D01*
X161631675Y-109593919D01*
X161565000Y-109929117D01*
X161565000Y-110270883D01*
X161631675Y-110606081D01*
X161762463Y-110921831D01*
X161952337Y-111205998D01*
X162194002Y-111447663D01*
X162478169Y-111637537D01*
X162793919Y-111768325D01*
X163129117Y-111835000D01*
X163470883Y-111835000D01*
X163806081Y-111768325D01*
X164121831Y-111637537D01*
X164405998Y-111447663D01*
X164640000Y-111213661D01*
X164640000Y-117861995D01*
X164545987Y-117821585D01*
X164327000Y-117775000D01*
X163827000Y-117775000D01*
X163827000Y-118783000D01*
X163847000Y-118783000D01*
X163847000Y-119037000D01*
X163827000Y-119037000D01*
X163827000Y-120045000D01*
X164327000Y-120045000D01*
X164545987Y-119998415D01*
X164640000Y-119958005D01*
X164640001Y-126841995D01*
X164545987Y-126801585D01*
X164327000Y-126755000D01*
X163827000Y-126755000D01*
X163827000Y-127763000D01*
X163847000Y-127763000D01*
X163847000Y-128017000D01*
X163827000Y-128017000D01*
X163827000Y-129025000D01*
X164327000Y-129025000D01*
X164545987Y-128978415D01*
X164640001Y-128938005D01*
X164640001Y-129986340D01*
X164405998Y-129752337D01*
X164121831Y-129562463D01*
X163806081Y-129431675D01*
X163470883Y-129365000D01*
X163129117Y-129365000D01*
X162793919Y-129431675D01*
X162478169Y-129562463D01*
X162194002Y-129752337D01*
X161952337Y-129994002D01*
X161762463Y-130278169D01*
X161631675Y-130593919D01*
X161565000Y-130929117D01*
X161565000Y-131270883D01*
X161631675Y-131606081D01*
X161762463Y-131921831D01*
X161952337Y-132205998D01*
X162186339Y-132440000D01*
X151913661Y-132440000D01*
X152147663Y-132205998D01*
X152337537Y-131921831D01*
X152468325Y-131606081D01*
X152535000Y-131270883D01*
X152535000Y-130929117D01*
X152468325Y-130593919D01*
X152337537Y-130278169D01*
X152147663Y-129994002D01*
X151905998Y-129752337D01*
X151621831Y-129562463D01*
X151306081Y-129431675D01*
X150970883Y-129365000D01*
X150629117Y-129365000D01*
X150293919Y-129431675D01*
X149978169Y-129562463D01*
X149694002Y-129752337D01*
X149452337Y-129994002D01*
X149262463Y-130278169D01*
X149131675Y-130593919D01*
X149065000Y-130929117D01*
X149065000Y-131270883D01*
X149131675Y-131606081D01*
X149262463Y-131921831D01*
X149452337Y-132205998D01*
X149686339Y-132440000D01*
X140960000Y-132440000D01*
X140960000Y-129300000D01*
X142361928Y-129300000D01*
X142361928Y-131100000D01*
X142374188Y-131224482D01*
X142410498Y-131344180D01*
X142469463Y-131454494D01*
X142548815Y-131551185D01*
X142645506Y-131630537D01*
X142755820Y-131689502D01*
X142875518Y-131725812D01*
X143000000Y-131738072D01*
X145600000Y-131738072D01*
X145724482Y-131725812D01*
X145844180Y-131689502D01*
X145954494Y-131630537D01*
X146051185Y-131551185D01*
X146130537Y-131454494D01*
X146189502Y-131344180D01*
X146225812Y-131224482D01*
X146238072Y-131100000D01*
X146238072Y-129300000D01*
X146225812Y-129175518D01*
X146189502Y-129055820D01*
X146130537Y-128945506D01*
X146051185Y-128848815D01*
X145954494Y-128769463D01*
X145844180Y-128710498D01*
X145724482Y-128674188D01*
X145600000Y-128661928D01*
X143000000Y-128661928D01*
X142875518Y-128674188D01*
X142755820Y-128710498D01*
X142645506Y-128769463D01*
X142548815Y-128848815D01*
X142469463Y-128945506D01*
X142410498Y-129055820D01*
X142374188Y-129175518D01*
X142361928Y-129300000D01*
X140960000Y-129300000D01*
X140960000Y-108760000D01*
X149686339Y-108760000D01*
X149452337Y-108994002D01*
%TA.AperFunction,Conductor*%
D19*
G36*
X149452337Y-108994002D02*
G01*
X149262463Y-109278169D01*
X149131675Y-109593919D01*
X149065000Y-109929117D01*
X149065000Y-110270883D01*
X149131675Y-110606081D01*
X149173436Y-110706900D01*
X146967722Y-110706900D01*
X146930399Y-110703224D01*
X146893076Y-110706900D01*
X146893067Y-110706900D01*
X146781414Y-110717897D01*
X146669827Y-110751746D01*
X146638153Y-110761354D01*
X146506123Y-110831926D01*
X146424619Y-110898815D01*
X146390399Y-110926899D01*
X146366601Y-110955897D01*
X146238072Y-111084426D01*
X146238072Y-110100000D01*
X146225812Y-109975518D01*
X146189502Y-109855820D01*
X146130537Y-109745506D01*
X146051185Y-109648815D01*
X145954494Y-109569463D01*
X145844180Y-109510498D01*
X145724482Y-109474188D01*
X145600000Y-109461928D01*
X143000000Y-109461928D01*
X142875518Y-109474188D01*
X142755820Y-109510498D01*
X142645506Y-109569463D01*
X142548815Y-109648815D01*
X142469463Y-109745506D01*
X142410498Y-109855820D01*
X142374188Y-109975518D01*
X142361928Y-110100000D01*
X142361928Y-111900000D01*
X142374188Y-112024482D01*
X142410498Y-112144180D01*
X142469463Y-112254494D01*
X142548815Y-112351185D01*
X142645506Y-112430537D01*
X142755820Y-112489502D01*
X142875518Y-112525812D01*
X143000000Y-112538072D01*
X144784427Y-112538072D01*
X144443598Y-112878901D01*
X144414600Y-112902699D01*
X144390802Y-112931697D01*
X144390801Y-112931698D01*
X144319626Y-113018424D01*
X144249054Y-113150454D01*
X144205598Y-113293715D01*
X144190924Y-113442700D01*
X144194601Y-113480032D01*
X144194600Y-127167278D01*
X144190924Y-127204600D01*
X144194600Y-127241922D01*
X144194600Y-127241932D01*
X144205597Y-127353585D01*
X144246583Y-127488699D01*
X144249054Y-127496846D01*
X144319626Y-127628876D01*
X144359471Y-127677426D01*
X144414599Y-127744601D01*
X144443603Y-127768404D01*
X144786196Y-128110997D01*
X144809999Y-128140001D01*
X144925724Y-128234974D01*
X145057753Y-128305546D01*
X145129129Y-128327197D01*
X145148815Y-128351185D01*
X145245506Y-128430537D01*
X145355820Y-128489502D01*
X145475518Y-128525812D01*
X145600000Y-128538072D01*
X147800000Y-128538072D01*
X147924482Y-128525812D01*
X148044180Y-128489502D01*
X148154494Y-128430537D01*
X148240444Y-128360000D01*
X152150048Y-128360000D01*
X152309744Y-128466705D01*
X152498102Y-128544726D01*
X152698061Y-128584500D01*
X152901939Y-128584500D01*
X153101898Y-128544726D01*
X153290256Y-128466705D01*
X153459774Y-128353437D01*
X153603937Y-128209274D01*
X153717205Y-128039756D01*
X153795226Y-127851398D01*
X153835000Y-127651439D01*
X153835000Y-127447561D01*
X153795226Y-127247602D01*
X153717205Y-127059244D01*
X153690582Y-127019400D01*
X154226997Y-127019400D01*
X154260274Y-127186698D01*
X154338295Y-127375056D01*
X154451563Y-127544574D01*
X154595726Y-127688737D01*
X154765244Y-127802005D01*
X154953602Y-127880026D01*
X155153561Y-127919800D01*
X155215699Y-127919800D01*
X156267101Y-128971203D01*
X156290899Y-129000201D01*
X156319897Y-129023999D01*
X156406623Y-129095174D01*
X156516495Y-129153902D01*
X156538653Y-129165746D01*
X156681914Y-129209203D01*
X156793567Y-129220200D01*
X156793576Y-129220200D01*
X156830899Y-129223876D01*
X156868222Y-129220200D01*
X157749600Y-129220200D01*
X157749600Y-129277239D01*
X157789374Y-129477198D01*
X157867395Y-129665556D01*
X157980663Y-129835074D01*
X158124826Y-129979237D01*
X158294344Y-130092505D01*
X158482702Y-130170526D01*
X158682661Y-130210300D01*
X158886539Y-130210300D01*
X159086498Y-130170526D01*
X159274856Y-130092505D01*
X159309695Y-130069227D01*
X159340663Y-130115574D01*
X159484826Y-130259737D01*
X159654344Y-130373005D01*
X159842702Y-130451026D01*
X160042661Y-130490800D01*
X160246539Y-130490800D01*
X160446498Y-130451026D01*
X160634856Y-130373005D01*
X160804374Y-130259737D01*
X160948537Y-130115574D01*
X161061805Y-129946056D01*
X161139826Y-129757698D01*
X161179600Y-129557739D01*
X161179600Y-129495601D01*
X162082703Y-128592499D01*
X162111701Y-128568701D01*
X162206674Y-128452976D01*
X162208353Y-128449834D01*
X162307631Y-128602764D01*
X162463831Y-128763161D01*
X162648322Y-128890003D01*
X162854013Y-128978415D01*
X163073000Y-129025000D01*
X163573000Y-129025000D01*
X163573000Y-128017000D01*
X163553000Y-128017000D01*
X163553000Y-127763000D01*
X163573000Y-127763000D01*
X163573000Y-126755000D01*
X163073000Y-126755000D01*
X162854013Y-126801585D01*
X162648322Y-126889997D01*
X162463831Y-127016839D01*
X162331700Y-127152520D01*
X162331700Y-123265823D01*
X162335376Y-123228500D01*
X162331700Y-123191177D01*
X162331700Y-123191167D01*
X162320703Y-123079514D01*
X162277246Y-122936253D01*
X162235371Y-122857911D01*
X162206674Y-122804223D01*
X162135499Y-122717497D01*
X162111701Y-122688499D01*
X162082704Y-122664702D01*
X160285000Y-120866999D01*
X160285000Y-120857911D01*
X160249068Y-120677271D01*
X160178586Y-120507111D01*
X160076262Y-120353972D01*
X159946028Y-120223738D01*
X159938647Y-120218806D01*
X159976478Y-120210336D01*
X160163410Y-120127614D01*
X160330612Y-120010013D01*
X160471658Y-119862052D01*
X160581128Y-119689418D01*
X160644666Y-119506123D01*
X160516998Y-119347000D01*
X159377000Y-119347000D01*
X159377000Y-119367000D01*
X159123000Y-119367000D01*
X159123000Y-119347000D01*
X159103000Y-119347000D01*
X159103000Y-119211874D01*
X162105881Y-119211874D01*
X162185724Y-119434976D01*
X162307631Y-119622764D01*
X162463831Y-119783161D01*
X162648322Y-119910003D01*
X162854013Y-119998415D01*
X163073000Y-120045000D01*
X163573000Y-120045000D01*
X163573000Y-119037000D01*
X162232046Y-119037000D01*
X162105881Y-119211874D01*
X159103000Y-119211874D01*
X159103000Y-119093000D01*
X159123000Y-119093000D01*
X159123000Y-118185000D01*
X159377000Y-118185000D01*
X159377000Y-119093000D01*
X160516998Y-119093000D01*
X160644666Y-118933877D01*
X160581128Y-118750582D01*
X160490795Y-118608126D01*
X162105881Y-118608126D01*
X162232046Y-118783000D01*
X163573000Y-118783000D01*
X163573000Y-117775000D01*
X163073000Y-117775000D01*
X162854013Y-117821585D01*
X162648322Y-117909997D01*
X162463831Y-118036839D01*
X162307631Y-118197236D01*
X162185724Y-118385024D01*
X162105881Y-118608126D01*
X160490795Y-118608126D01*
X160471658Y-118577948D01*
X160330612Y-118429987D01*
X160163410Y-118312386D01*
X159976478Y-118229664D01*
X159777000Y-118185000D01*
X159377000Y-118185000D01*
X159123000Y-118185000D01*
X158723000Y-118185000D01*
X158523522Y-118229664D01*
X158336590Y-118312386D01*
X158215588Y-118397492D01*
X158183426Y-118235802D01*
X158105405Y-118047444D01*
X157992137Y-117877926D01*
X157847974Y-117733763D01*
X157678456Y-117620495D01*
X157490098Y-117542474D01*
X157290139Y-117502700D01*
X157086261Y-117502700D01*
X156886302Y-117542474D01*
X156697944Y-117620495D01*
X156528426Y-117733763D01*
X156484489Y-117777700D01*
X152302502Y-117777700D01*
X148613804Y-114089003D01*
X148590001Y-114059999D01*
X148474276Y-113965026D01*
X148433799Y-113943390D01*
X148438072Y-113900000D01*
X148435000Y-113885750D01*
X148276250Y-113727000D01*
X148075053Y-113727000D01*
X148044180Y-113710498D01*
X147924482Y-113674188D01*
X147800000Y-113661928D01*
X146553000Y-113661928D01*
X146553000Y-113473000D01*
X146573000Y-113473000D01*
X146573000Y-113453000D01*
X146827000Y-113453000D01*
X146827000Y-113473000D01*
X148276250Y-113473000D01*
X148435000Y-113314250D01*
X148438072Y-113300000D01*
X148425812Y-113175518D01*
X148389502Y-113055820D01*
X148330537Y-112945506D01*
X148251185Y-112848815D01*
X148154494Y-112769463D01*
X148044180Y-112710498D01*
X147924482Y-112674188D01*
X147800000Y-112661928D01*
X146985750Y-112665000D01*
X146827002Y-112823748D01*
X146827002Y-112665000D01*
X146807102Y-112665000D01*
X147245202Y-112226900D01*
X151395778Y-112226900D01*
X151433100Y-112230576D01*
X151470422Y-112226900D01*
X151470433Y-112226900D01*
X151582086Y-112215903D01*
X151725347Y-112172446D01*
X151857376Y-112101874D01*
X151973101Y-112006901D01*
X151996904Y-111977897D01*
X153759864Y-110214938D01*
X153805820Y-110239502D01*
X153925518Y-110275812D01*
X154050000Y-110288072D01*
X155150000Y-110288072D01*
X155274482Y-110275812D01*
X155394180Y-110239502D01*
X155504494Y-110180537D01*
X155601185Y-110101185D01*
X155628344Y-110068091D01*
X155642528Y-110114850D01*
X155724595Y-110268386D01*
X155803573Y-110364622D01*
X155748595Y-110431614D01*
X155666528Y-110585150D01*
X155615992Y-110751746D01*
X155601472Y-110899165D01*
X155601185Y-110898815D01*
X155504494Y-110819463D01*
X155394180Y-110760498D01*
X155274482Y-110724188D01*
X155150000Y-110711928D01*
X154050000Y-110711928D01*
X153925518Y-110724188D01*
X153805820Y-110760498D01*
X153695506Y-110819463D01*
X153598815Y-110898815D01*
X153519463Y-110995506D01*
X153460498Y-111105820D01*
X153448644Y-111144897D01*
X153386714Y-111150997D01*
X153243453Y-111194454D01*
X153111424Y-111265026D01*
X152995699Y-111359999D01*
X152971901Y-111388997D01*
X152485199Y-111875700D01*
X152423061Y-111875700D01*
X152223102Y-111915474D01*
X152034744Y-111993495D01*
X151865226Y-112106763D01*
X151721063Y-112250926D01*
X151607795Y-112420444D01*
X151529774Y-112608802D01*
X151490000Y-112808761D01*
X151490000Y-113012639D01*
X151529774Y-113212598D01*
X151607795Y-113400956D01*
X151721063Y-113570474D01*
X151865226Y-113714637D01*
X152034744Y-113827905D01*
X152223102Y-113905926D01*
X152423061Y-113945700D01*
X152626939Y-113945700D01*
X152826898Y-113905926D01*
X153015256Y-113827905D01*
X153184774Y-113714637D01*
X153328937Y-113570474D01*
X153442205Y-113400956D01*
X153520226Y-113212598D01*
X153560000Y-113012639D01*
X153560000Y-112950501D01*
X153604583Y-112905919D01*
X153695506Y-112980537D01*
X153805820Y-113039502D01*
X153925518Y-113075812D01*
X154050000Y-113088072D01*
X155150000Y-113088072D01*
X155274482Y-113075812D01*
X155394180Y-113039502D01*
X155504494Y-112980537D01*
X155601185Y-112901185D01*
X155664483Y-112824056D01*
X155661928Y-112849999D01*
X155661928Y-113750001D01*
X155678992Y-113923255D01*
X155729528Y-114089851D01*
X155811595Y-114243387D01*
X155922038Y-114377962D01*
X156056613Y-114488405D01*
X156210149Y-114570472D01*
X156376745Y-114621008D01*
X156549999Y-114638072D01*
X157250001Y-114638072D01*
X157423255Y-114621008D01*
X157589851Y-114570472D01*
X157743387Y-114488405D01*
X157824637Y-114421724D01*
X157848815Y-114451185D01*
X157945506Y-114530537D01*
X158055820Y-114589502D01*
X158175518Y-114625812D01*
X158300000Y-114638072D01*
X158614250Y-114635000D01*
X158773000Y-114476250D01*
X158773000Y-113427000D01*
X159027000Y-113427000D01*
X159027000Y-114476250D01*
X159185750Y-114635000D01*
X159500000Y-114638072D01*
X159624482Y-114625812D01*
X159744180Y-114589502D01*
X159854494Y-114530537D01*
X159951185Y-114451185D01*
X160030537Y-114354494D01*
X160089502Y-114244180D01*
X160125812Y-114124482D01*
X160138072Y-114000000D01*
X160135000Y-113585750D01*
X159976250Y-113427000D01*
X159027000Y-113427000D01*
X158773000Y-113427000D01*
X158753000Y-113427000D01*
X158753000Y-113173000D01*
X158773000Y-113173000D01*
X158773000Y-112123750D01*
X158772500Y-112123250D01*
X158772500Y-111527000D01*
X159026500Y-111527000D01*
X159026500Y-112601250D01*
X159027000Y-112601750D01*
X159027000Y-113173000D01*
X159976250Y-113173000D01*
X160135000Y-113014250D01*
X160138072Y-112600000D01*
X160125812Y-112475518D01*
X160089502Y-112355820D01*
X160083794Y-112345141D01*
X160112812Y-112249482D01*
X160125072Y-112125000D01*
X160122000Y-111685750D01*
X159963250Y-111527000D01*
X159026500Y-111527000D01*
X158772500Y-111527000D01*
X158752500Y-111527000D01*
X158752500Y-111273000D01*
X158772500Y-111273000D01*
X158772500Y-110198750D01*
X158748500Y-110174750D01*
X158748500Y-109427000D01*
X159002500Y-109427000D01*
X159002500Y-110501250D01*
X159026500Y-110525250D01*
X159026500Y-111273000D01*
X159963250Y-111273000D01*
X160122000Y-111114250D01*
X160125072Y-110675000D01*
X160112812Y-110550518D01*
X160076502Y-110430820D01*
X160021302Y-110327550D01*
X160052502Y-110269180D01*
X160088812Y-110149482D01*
X160101072Y-110025000D01*
X160098000Y-109585750D01*
X159939250Y-109427000D01*
X159002500Y-109427000D01*
X158748500Y-109427000D01*
X158728500Y-109427000D01*
X158728500Y-109173000D01*
X158748500Y-109173000D01*
X158748500Y-109153000D01*
X159002500Y-109153000D01*
X159002500Y-109173000D01*
X159939250Y-109173000D01*
X160098000Y-109014250D01*
X160099778Y-108760000D01*
X162186339Y-108760000D01*
X161952337Y-108994002D01*
X161762463Y-109278169D01*
X161631675Y-109593919D01*
X161565000Y-109929117D01*
X161565000Y-110270883D01*
X161631675Y-110606081D01*
X161762463Y-110921831D01*
X161952337Y-111205998D01*
X162194002Y-111447663D01*
X162478169Y-111637537D01*
X162793919Y-111768325D01*
X163129117Y-111835000D01*
X163470883Y-111835000D01*
X163806081Y-111768325D01*
X164121831Y-111637537D01*
X164405998Y-111447663D01*
X164640000Y-111213661D01*
X164640000Y-117861995D01*
X164545987Y-117821585D01*
X164327000Y-117775000D01*
X163827000Y-117775000D01*
X163827000Y-118783000D01*
X163847000Y-118783000D01*
X163847000Y-119037000D01*
X163827000Y-119037000D01*
X163827000Y-120045000D01*
X164327000Y-120045000D01*
X164545987Y-119998415D01*
X164640000Y-119958005D01*
X164640001Y-126841995D01*
X164545987Y-126801585D01*
X164327000Y-126755000D01*
X163827000Y-126755000D01*
X163827000Y-127763000D01*
X163847000Y-127763000D01*
X163847000Y-128017000D01*
X163827000Y-128017000D01*
X163827000Y-129025000D01*
X164327000Y-129025000D01*
X164545987Y-128978415D01*
X164640001Y-128938005D01*
X164640001Y-129986340D01*
X164405998Y-129752337D01*
X164121831Y-129562463D01*
X163806081Y-129431675D01*
X163470883Y-129365000D01*
X163129117Y-129365000D01*
X162793919Y-129431675D01*
X162478169Y-129562463D01*
X162194002Y-129752337D01*
X161952337Y-129994002D01*
X161762463Y-130278169D01*
X161631675Y-130593919D01*
X161565000Y-130929117D01*
X161565000Y-131270883D01*
X161631675Y-131606081D01*
X161762463Y-131921831D01*
X161952337Y-132205998D01*
X162186339Y-132440000D01*
X151913661Y-132440000D01*
X152147663Y-132205998D01*
X152337537Y-131921831D01*
X152468325Y-131606081D01*
X152535000Y-131270883D01*
X152535000Y-130929117D01*
X152468325Y-130593919D01*
X152337537Y-130278169D01*
X152147663Y-129994002D01*
X151905998Y-129752337D01*
X151621831Y-129562463D01*
X151306081Y-129431675D01*
X150970883Y-129365000D01*
X150629117Y-129365000D01*
X150293919Y-129431675D01*
X149978169Y-129562463D01*
X149694002Y-129752337D01*
X149452337Y-129994002D01*
X149262463Y-130278169D01*
X149131675Y-130593919D01*
X149065000Y-130929117D01*
X149065000Y-131270883D01*
X149131675Y-131606081D01*
X149262463Y-131921831D01*
X149452337Y-132205998D01*
X149686339Y-132440000D01*
X140960000Y-132440000D01*
X140960000Y-129300000D01*
X142361928Y-129300000D01*
X142361928Y-131100000D01*
X142374188Y-131224482D01*
X142410498Y-131344180D01*
X142469463Y-131454494D01*
X142548815Y-131551185D01*
X142645506Y-131630537D01*
X142755820Y-131689502D01*
X142875518Y-131725812D01*
X143000000Y-131738072D01*
X145600000Y-131738072D01*
X145724482Y-131725812D01*
X145844180Y-131689502D01*
X145954494Y-131630537D01*
X146051185Y-131551185D01*
X146130537Y-131454494D01*
X146189502Y-131344180D01*
X146225812Y-131224482D01*
X146238072Y-131100000D01*
X146238072Y-129300000D01*
X146225812Y-129175518D01*
X146189502Y-129055820D01*
X146130537Y-128945506D01*
X146051185Y-128848815D01*
X145954494Y-128769463D01*
X145844180Y-128710498D01*
X145724482Y-128674188D01*
X145600000Y-128661928D01*
X143000000Y-128661928D01*
X142875518Y-128674188D01*
X142755820Y-128710498D01*
X142645506Y-128769463D01*
X142548815Y-128848815D01*
X142469463Y-128945506D01*
X142410498Y-129055820D01*
X142374188Y-129175518D01*
X142361928Y-129300000D01*
X140960000Y-129300000D01*
X140960000Y-108760000D01*
X149686339Y-108760000D01*
X149452337Y-108994002D01*
G37*
%TD.AperFunction*%
D18*
X146847000Y-122661928D02*
X146553000Y-122661928D01*
X146553000Y-122538072D01*
X146847000Y-122538072D01*
X146847000Y-122661928D01*
%TA.AperFunction,Conductor*%
D19*
G36*
X146847000Y-122661928D02*
G01*
X146553000Y-122661928D01*
X146553000Y-122538072D01*
X146847000Y-122538072D01*
X146847000Y-122661928D01*
G37*
%TD.AperFunction*%
D18*
X146847000Y-119661928D02*
X146553000Y-119661928D01*
X146553000Y-119538072D01*
X146847000Y-119538072D01*
X146847000Y-119661928D01*
%TA.AperFunction,Conductor*%
D19*
G36*
X146847000Y-119661928D02*
G01*
X146553000Y-119661928D01*
X146553000Y-119538072D01*
X146847000Y-119538072D01*
X146847000Y-119661928D01*
G37*
%TD.AperFunction*%
D18*
X146847000Y-116661928D02*
X146553000Y-116661928D01*
X146553000Y-116538072D01*
X146847000Y-116538072D01*
X146847000Y-116661928D01*
%TA.AperFunction,Conductor*%
D19*
G36*
X146847000Y-116661928D02*
G01*
X146553000Y-116661928D01*
X146553000Y-116538072D01*
X146847000Y-116538072D01*
X146847000Y-116661928D01*
G37*
%TD.AperFunction*%
%TD*%
M02*
