%TF.GenerationSoftware,KiCad,Pcbnew,(5.1.7)-1*%
%TF.CreationDate,2021-02-26T18:48:08+00:00*%
%TF.ProjectId,Small Camera Adapter,536d616c-6c20-4436-916d-657261204164,rev?*%
%TF.SameCoordinates,Original*%
%TF.FileFunction,Legend,Bot*%
%TF.FilePolarity,Positive*%
%FSLAX46Y46*%
G04 Gerber Fmt 4.6, Leading zero omitted, Abs format (unit mm)*
G04 Created by KiCad (PCBNEW (5.1.7)-1) date 2021-02-26 18:48:09*
%MOMM*%
%LPD*%
G01*
G04 APERTURE LIST*
%ADD10C,0.127000*%
%ADD11C,0.120000*%
%ADD12C,0.150000*%
G04 APERTURE END LIST*
D10*
%TO.C,J1*%
X142700000Y-110600000D02*
X141300000Y-110600000D01*
X142700000Y-130600000D02*
X141300000Y-130600000D01*
X145600000Y-113100000D02*
X145600000Y-112100000D01*
X145600000Y-129100000D02*
X145600000Y-128100000D01*
X140200000Y-131600000D02*
X141300000Y-131600000D01*
X140200000Y-109600000D02*
X140200000Y-131600000D01*
X141300000Y-109600000D02*
X140200000Y-109600000D01*
X141300000Y-110600000D02*
X141300000Y-109600000D01*
X141300000Y-130600000D02*
X141300000Y-110600000D01*
X141300000Y-131600000D02*
X141300000Y-130600000D01*
D11*
%TO.C,D2*%
X153600000Y-108300000D02*
X153600000Y-112150000D01*
X155600000Y-108300000D02*
X155600000Y-112150000D01*
X153600000Y-108300000D02*
X155600000Y-108300000D01*
%TO.C,C1*%
X157576748Y-108565000D02*
X158099252Y-108565000D01*
X157576748Y-110035000D02*
X158099252Y-110035000D01*
%TO.C,C2*%
X157600748Y-112135000D02*
X158123252Y-112135000D01*
X157600748Y-110665000D02*
X158123252Y-110665000D01*
%TO.C,R1*%
X158127064Y-112565000D02*
X157672936Y-112565000D01*
X158127064Y-114035000D02*
X157672936Y-114035000D01*
%TO.C,J1*%
D12*
X145247619Y-121033333D02*
X144533333Y-121033333D01*
X144390476Y-121080952D01*
X144295238Y-121176190D01*
X144247619Y-121319047D01*
X144247619Y-121414285D01*
X144247619Y-120033333D02*
X144247619Y-120604761D01*
X144247619Y-120319047D02*
X145247619Y-120319047D01*
X145104761Y-120414285D01*
X145009523Y-120509523D01*
X144961904Y-120604761D01*
X142747619Y-125371428D02*
X142747619Y-125561904D01*
X142700000Y-125657142D01*
X142652380Y-125704761D01*
X142509523Y-125800000D01*
X142319047Y-125847619D01*
X141938095Y-125847619D01*
X141842857Y-125800000D01*
X141795238Y-125752380D01*
X141747619Y-125657142D01*
X141747619Y-125466666D01*
X141795238Y-125371428D01*
X141842857Y-125323809D01*
X141938095Y-125276190D01*
X142176190Y-125276190D01*
X142271428Y-125323809D01*
X142319047Y-125371428D01*
X142366666Y-125466666D01*
X142366666Y-125657142D01*
X142319047Y-125752380D01*
X142271428Y-125800000D01*
X142176190Y-125847619D01*
X142319047Y-124704761D02*
X142366666Y-124800000D01*
X142414285Y-124847619D01*
X142509523Y-124895238D01*
X142557142Y-124895238D01*
X142652380Y-124847619D01*
X142700000Y-124800000D01*
X142747619Y-124704761D01*
X142747619Y-124514285D01*
X142700000Y-124419047D01*
X142652380Y-124371428D01*
X142557142Y-124323809D01*
X142509523Y-124323809D01*
X142414285Y-124371428D01*
X142366666Y-124419047D01*
X142319047Y-124514285D01*
X142319047Y-124704761D01*
X142271428Y-124800000D01*
X142223809Y-124847619D01*
X142128571Y-124895238D01*
X141938095Y-124895238D01*
X141842857Y-124847619D01*
X141795238Y-124800000D01*
X141747619Y-124704761D01*
X141747619Y-124514285D01*
X141795238Y-124419047D01*
X141842857Y-124371428D01*
X141938095Y-124323809D01*
X142128571Y-124323809D01*
X142223809Y-124371428D01*
X142271428Y-124419047D01*
X142319047Y-124514285D01*
X142747619Y-123466666D02*
X142747619Y-123657142D01*
X142700000Y-123752380D01*
X142652380Y-123800000D01*
X142509523Y-123895238D01*
X142319047Y-123942857D01*
X141938095Y-123942857D01*
X141842857Y-123895238D01*
X141795238Y-123847619D01*
X141747619Y-123752380D01*
X141747619Y-123561904D01*
X141795238Y-123466666D01*
X141842857Y-123419047D01*
X141938095Y-123371428D01*
X142176190Y-123371428D01*
X142271428Y-123419047D01*
X142319047Y-123466666D01*
X142366666Y-123561904D01*
X142366666Y-123752380D01*
X142319047Y-123847619D01*
X142271428Y-123895238D01*
X142176190Y-123942857D01*
X141747619Y-122419047D02*
X141747619Y-122990476D01*
X141747619Y-122704761D02*
X142747619Y-122704761D01*
X142604761Y-122800000D01*
X142509523Y-122895238D01*
X142461904Y-122990476D01*
X141747619Y-121466666D02*
X141747619Y-122038095D01*
X141747619Y-121752380D02*
X142747619Y-121752380D01*
X142604761Y-121847619D01*
X142509523Y-121942857D01*
X142461904Y-122038095D01*
X142747619Y-120561904D02*
X142747619Y-121038095D01*
X142271428Y-121085714D01*
X142319047Y-121038095D01*
X142366666Y-120942857D01*
X142366666Y-120704761D01*
X142319047Y-120609523D01*
X142271428Y-120561904D01*
X142176190Y-120514285D01*
X141938095Y-120514285D01*
X141842857Y-120561904D01*
X141795238Y-120609523D01*
X141747619Y-120704761D01*
X141747619Y-120942857D01*
X141795238Y-121038095D01*
X141842857Y-121085714D01*
X141747619Y-119561904D02*
X141747619Y-120133333D01*
X141747619Y-119847619D02*
X142747619Y-119847619D01*
X142604761Y-119942857D01*
X142509523Y-120038095D01*
X142461904Y-120133333D01*
X142414285Y-118704761D02*
X141747619Y-118704761D01*
X142795238Y-118942857D02*
X142080952Y-119180952D01*
X142080952Y-118561904D01*
X141747619Y-117657142D02*
X141747619Y-118228571D01*
X141747619Y-117942857D02*
X142747619Y-117942857D01*
X142604761Y-118038095D01*
X142509523Y-118133333D01*
X142461904Y-118228571D01*
X142652380Y-117276190D02*
X142700000Y-117228571D01*
X142747619Y-117133333D01*
X142747619Y-116895238D01*
X142700000Y-116800000D01*
X142652380Y-116752380D01*
X142557142Y-116704761D01*
X142461904Y-116704761D01*
X142319047Y-116752380D01*
X141747619Y-117323809D01*
X141747619Y-116704761D01*
X142652380Y-116323809D02*
X142700000Y-116276190D01*
X142747619Y-116180952D01*
X142747619Y-115942857D01*
X142700000Y-115847619D01*
X142652380Y-115800000D01*
X142557142Y-115752380D01*
X142461904Y-115752380D01*
X142319047Y-115800000D01*
X141747619Y-116371428D01*
X141747619Y-115752380D01*
%TO.C,D2*%
X155238095Y-113752380D02*
X155238095Y-112752380D01*
X155000000Y-112752380D01*
X154857142Y-112800000D01*
X154761904Y-112895238D01*
X154714285Y-112990476D01*
X154666666Y-113180952D01*
X154666666Y-113323809D01*
X154714285Y-113514285D01*
X154761904Y-113609523D01*
X154857142Y-113704761D01*
X155000000Y-113752380D01*
X155238095Y-113752380D01*
X154285714Y-112847619D02*
X154238095Y-112800000D01*
X154142857Y-112752380D01*
X153904761Y-112752380D01*
X153809523Y-112800000D01*
X153761904Y-112847619D01*
X153714285Y-112942857D01*
X153714285Y-113038095D01*
X153761904Y-113180952D01*
X154333333Y-113752380D01*
X153714285Y-113752380D01*
%TO.C,C1*%
X159942857Y-109466666D02*
X159895238Y-109514285D01*
X159847619Y-109657142D01*
X159847619Y-109752380D01*
X159895238Y-109895238D01*
X159990476Y-109990476D01*
X160085714Y-110038095D01*
X160276190Y-110085714D01*
X160419047Y-110085714D01*
X160609523Y-110038095D01*
X160704761Y-109990476D01*
X160800000Y-109895238D01*
X160847619Y-109752380D01*
X160847619Y-109657142D01*
X160800000Y-109514285D01*
X160752380Y-109466666D01*
X159847619Y-108514285D02*
X159847619Y-109085714D01*
X159847619Y-108800000D02*
X160847619Y-108800000D01*
X160704761Y-108895238D01*
X160609523Y-108990476D01*
X160561904Y-109085714D01*
%TO.C,C2*%
X159942857Y-111666666D02*
X159895238Y-111714285D01*
X159847619Y-111857142D01*
X159847619Y-111952380D01*
X159895238Y-112095238D01*
X159990476Y-112190476D01*
X160085714Y-112238095D01*
X160276190Y-112285714D01*
X160419047Y-112285714D01*
X160609523Y-112238095D01*
X160704761Y-112190476D01*
X160800000Y-112095238D01*
X160847619Y-111952380D01*
X160847619Y-111857142D01*
X160800000Y-111714285D01*
X160752380Y-111666666D01*
X160752380Y-111285714D02*
X160800000Y-111238095D01*
X160847619Y-111142857D01*
X160847619Y-110904761D01*
X160800000Y-110809523D01*
X160752380Y-110761904D01*
X160657142Y-110714285D01*
X160561904Y-110714285D01*
X160419047Y-110761904D01*
X159847619Y-111333333D01*
X159847619Y-110714285D01*
%TO.C,R1*%
X159847619Y-113266666D02*
X160323809Y-113600000D01*
X159847619Y-113838095D02*
X160847619Y-113838095D01*
X160847619Y-113457142D01*
X160800000Y-113361904D01*
X160752380Y-113314285D01*
X160657142Y-113266666D01*
X160514285Y-113266666D01*
X160419047Y-113314285D01*
X160371428Y-113361904D01*
X160323809Y-113457142D01*
X160323809Y-113838095D01*
X159847619Y-112314285D02*
X159847619Y-112885714D01*
X159847619Y-112600000D02*
X160847619Y-112600000D01*
X160704761Y-112695238D01*
X160609523Y-112790476D01*
X160561904Y-112885714D01*
%TD*%
M02*
