M48
; DRILL file {KiCad (5.1.7)-1} date 02/12/21 20:27:55
; FORMAT={3:3/ absolute / metric / suppress leading zeros}
; #@! TF.CreationDate,2021-02-12T20:27:55+00:00
; #@! TF.GenerationSoftware,Kicad,Pcbnew,(5.1.7)-1
FMAT,2
METRIC,TZ
T1C0.400
T2C0.500
T3C0.650
T4C2.200
%
G90
G05
T1
X157950Y-53219
X160404Y-67292
X161829Y-61562
X161862Y-60291
X162175Y-63530
X162178Y-58948
X162423Y-65006
X168213Y-62692
X158475Y-58750
X158475Y-59550
X158475Y-60350
X158475Y-61950
X158475Y-62750
X158475Y-63550
X159175Y-58350
X159175Y-59950
X159175Y-60750
X159175Y-61550
X159175Y-62350
X159175Y-63950
T3
X159825Y-57550
X159825Y-64750
T4
X154500Y-52500
X167000Y-73500
X167000Y-52500
X154500Y-73500
T2
G00X154425Y-56610
M15
G01X153825Y-56610
M16
G05
G00X154425Y-65590
M15
G01X153825Y-65590
M16
G05
G00X158875Y-57020
M15
G01X158275Y-57020
M16
G05
G00X158875Y-65280
M15
G01X158275Y-65280
M16
G05
T0
M30
