M48
; DRILL file {KiCad (5.1.7)-1} date 02/26/21 18:48:06
; FORMAT={3:3/ absolute / metric / suppress leading zeros}
; #@! TF.CreationDate,2021-02-26T18:48:06+00:00
; #@! TF.GenerationSoftware,Kicad,Pcbnew,(5.1.7)-1
FMAT,2
METRIC,TZ
T1C0.400
T2C0.500
T3C0.650
T4C2.200
%
G90
G05
T1
X148302Y-122263
X148973Y-119764
X149103Y-118653
X152525Y-112911
X152800Y-127549
X154802Y-119998
X155256Y-126885
X155665Y-120722
X156404Y-121706
X157188Y-118538
X158785Y-129175
X160145Y-129456
X160187Y-123955
X158650Y-120550
X158650Y-122150
X158650Y-122950
X158650Y-123750
X158650Y-124550
X158650Y-126150
X159350Y-120950
X159350Y-121750
X159350Y-122550
X159350Y-124150
X159350Y-124950
X159350Y-125750
T3
X158000Y-119750
X158000Y-126950
T4
X150800Y-131100
X150800Y-110100
X163300Y-131100
X163300Y-110100
T2
G00X158950Y-119220
M15
G01X159550Y-119220
M16
G05
G00X158950Y-127480
M15
G01X159550Y-127480
M16
G05
G00X163400Y-118910
M15
G01X164000Y-118910
M16
G05
G00X163400Y-127890
M15
G01X164000Y-127890
M16
G05
T0
M30
