%TF.GenerationSoftware,KiCad,Pcbnew,(5.1.7)-1*%
%TF.CreationDate,2021-02-26T18:48:09+00:00*%
%TF.ProjectId,Small Camera Adapter,536d616c-6c20-4436-916d-657261204164,rev?*%
%TF.SameCoordinates,Original*%
%TF.FileFunction,Soldermask,Top*%
%TF.FilePolarity,Negative*%
%FSLAX46Y46*%
G04 Gerber Fmt 4.6, Leading zero omitted, Abs format (unit mm)*
G04 Created by KiCad (PCBNEW (5.1.7)-1) date 2021-02-26 18:48:09*
%MOMM*%
%LPD*%
G01*
G04 APERTURE LIST*
%ADD10R,1.600200X2.997200*%
%ADD11R,4.826000X4.191000*%
%ADD12C,0.650000*%
%ADD13O,2.000000X1.000000*%
%ADD14O,1.600000X0.800000*%
%ADD15C,0.600000*%
%ADD16R,0.900000X0.300000*%
%ADD17C,2.200000*%
G04 APERTURE END LIST*
D10*
%TO.C,D3*%
X154460600Y-116442400D03*
X149990200Y-116442400D03*
D11*
X152200000Y-124722800D03*
%TD*%
D12*
%TO.C,J2*%
X158000000Y-119750000D03*
D13*
X163700000Y-118910000D03*
X163700000Y-127890000D03*
D14*
X159250000Y-119220000D03*
X159250000Y-127480000D03*
D15*
X158650000Y-126150000D03*
X159350000Y-125750000D03*
X159350000Y-124950000D03*
X158650000Y-124550000D03*
X159350000Y-124150000D03*
X158650000Y-123750000D03*
X158650000Y-122950000D03*
X159350000Y-122550000D03*
X158650000Y-122150000D03*
X159350000Y-121750000D03*
X159350000Y-120950000D03*
X158650000Y-120550000D03*
D16*
X157440000Y-120650000D03*
X157440000Y-121150000D03*
X157440000Y-121650000D03*
X157440000Y-122150000D03*
X157440000Y-122650000D03*
X157440000Y-123150000D03*
X157440000Y-123650000D03*
X157440000Y-124150000D03*
X157440000Y-124650000D03*
X157440000Y-125150000D03*
X157440000Y-125650000D03*
X157440000Y-126150000D03*
D12*
X158000000Y-126950000D03*
%TD*%
D17*
%TO.C,REF2*%
X150800000Y-131100000D03*
%TD*%
%TO.C,REF3*%
X150800000Y-110100000D03*
%TD*%
%TO.C,REF4*%
X163300000Y-110100000D03*
%TD*%
%TO.C,REF1*%
X163300000Y-131100000D03*
%TD*%
%TO.C,D1*%
G36*
G01*
X153675000Y-132050001D02*
X153675000Y-131149999D01*
G75*
G02*
X153924999Y-130900000I249999J0D01*
G01*
X154575001Y-130900000D01*
G75*
G02*
X154825000Y-131149999I0J-249999D01*
G01*
X154825000Y-132050001D01*
G75*
G02*
X154575001Y-132300000I-249999J0D01*
G01*
X153924999Y-132300000D01*
G75*
G02*
X153675000Y-132050001I0J249999D01*
G01*
G37*
G36*
G01*
X155725000Y-132050001D02*
X155725000Y-131149999D01*
G75*
G02*
X155974999Y-130900000I249999J0D01*
G01*
X156625001Y-130900000D01*
G75*
G02*
X156875000Y-131149999I0J-249999D01*
G01*
X156875000Y-132050001D01*
G75*
G02*
X156625001Y-132300000I-249999J0D01*
G01*
X155974999Y-132300000D01*
G75*
G02*
X155725000Y-132050001I0J249999D01*
G01*
G37*
%TD*%
%TO.C,R2*%
G36*
G01*
X160425000Y-131149999D02*
X160425000Y-132050001D01*
G75*
G02*
X160175001Y-132300000I-249999J0D01*
G01*
X159524999Y-132300000D01*
G75*
G02*
X159275000Y-132050001I0J249999D01*
G01*
X159275000Y-131149999D01*
G75*
G02*
X159524999Y-130900000I249999J0D01*
G01*
X160175001Y-130900000D01*
G75*
G02*
X160425000Y-131149999I0J-249999D01*
G01*
G37*
G36*
G01*
X158375000Y-131149999D02*
X158375000Y-132050001D01*
G75*
G02*
X158125001Y-132300000I-249999J0D01*
G01*
X157474999Y-132300000D01*
G75*
G02*
X157225000Y-132050001I0J249999D01*
G01*
X157225000Y-131149999D01*
G75*
G02*
X157474999Y-130900000I249999J0D01*
G01*
X158125001Y-130900000D01*
G75*
G02*
X158375000Y-131149999I0J-249999D01*
G01*
G37*
%TD*%
M02*
