%TF.GenerationSoftware,KiCad,Pcbnew,(5.1.7)-1*%
%TF.CreationDate,2021-02-26T18:48:09+00:00*%
%TF.ProjectId,Small Camera Adapter,536d616c-6c20-4436-916d-657261204164,rev?*%
%TF.SameCoordinates,Original*%
%TF.FileFunction,Soldermask,Bot*%
%TF.FilePolarity,Negative*%
%FSLAX46Y46*%
G04 Gerber Fmt 4.6, Leading zero omitted, Abs format (unit mm)*
G04 Created by KiCad (PCBNEW (5.1.7)-1) date 2021-02-26 18:48:09*
%MOMM*%
%LPD*%
G01*
G04 APERTURE LIST*
%ADD10C,0.650000*%
%ADD11O,2.000000X1.000000*%
%ADD12O,1.600000X0.800000*%
%ADD13C,0.600000*%
%ADD14R,2.200000X0.600000*%
%ADD15R,2.600000X1.800000*%
%ADD16C,2.200000*%
%ADD17R,1.100000X1.100000*%
G04 APERTURE END LIST*
D10*
%TO.C,J2*%
X158000000Y-119750000D03*
D11*
X163700000Y-118910000D03*
X163700000Y-127890000D03*
D12*
X159250000Y-119220000D03*
X159250000Y-127480000D03*
D13*
X158650000Y-126150000D03*
X159350000Y-125750000D03*
X159350000Y-124950000D03*
X158650000Y-124550000D03*
X159350000Y-124150000D03*
X158650000Y-123750000D03*
X158650000Y-122950000D03*
X159350000Y-122550000D03*
X158650000Y-122150000D03*
X159350000Y-121750000D03*
X159350000Y-120950000D03*
X158650000Y-120550000D03*
D10*
X158000000Y-126950000D03*
%TD*%
D14*
%TO.C,J1*%
X146700000Y-123600000D03*
X146700000Y-124600000D03*
X146700000Y-122600000D03*
X146700000Y-125600000D03*
D15*
X144300000Y-111000000D03*
X144300000Y-130200000D03*
D14*
X146700000Y-126600000D03*
X146700000Y-127600000D03*
X146700000Y-121600000D03*
X146700000Y-120600000D03*
X146700000Y-119600000D03*
X146700000Y-118600000D03*
X146700000Y-117600000D03*
X146700000Y-116600000D03*
X146700000Y-115600000D03*
X146700000Y-114600000D03*
X146700000Y-113600000D03*
%TD*%
D16*
%TO.C,REF2*%
X150800000Y-131100000D03*
%TD*%
%TO.C,REF3*%
X150800000Y-110100000D03*
%TD*%
%TO.C,REF4*%
X163300000Y-110100000D03*
%TD*%
%TO.C,REF1*%
X163300000Y-131100000D03*
%TD*%
D17*
%TO.C,D2*%
X154600000Y-109100000D03*
X154600000Y-111900000D03*
%TD*%
%TO.C,C1*%
G36*
G01*
X158288000Y-109775000D02*
X158288000Y-108825000D01*
G75*
G02*
X158538000Y-108575000I250000J0D01*
G01*
X159213000Y-108575000D01*
G75*
G02*
X159463000Y-108825000I0J-250000D01*
G01*
X159463000Y-109775000D01*
G75*
G02*
X159213000Y-110025000I-250000J0D01*
G01*
X158538000Y-110025000D01*
G75*
G02*
X158288000Y-109775000I0J250000D01*
G01*
G37*
G36*
G01*
X156213000Y-109775000D02*
X156213000Y-108825000D01*
G75*
G02*
X156463000Y-108575000I250000J0D01*
G01*
X157138000Y-108575000D01*
G75*
G02*
X157388000Y-108825000I0J-250000D01*
G01*
X157388000Y-109775000D01*
G75*
G02*
X157138000Y-110025000I-250000J0D01*
G01*
X156463000Y-110025000D01*
G75*
G02*
X156213000Y-109775000I0J250000D01*
G01*
G37*
%TD*%
%TO.C,C2*%
G36*
G01*
X156237000Y-111875000D02*
X156237000Y-110925000D01*
G75*
G02*
X156487000Y-110675000I250000J0D01*
G01*
X157162000Y-110675000D01*
G75*
G02*
X157412000Y-110925000I0J-250000D01*
G01*
X157412000Y-111875000D01*
G75*
G02*
X157162000Y-112125000I-250000J0D01*
G01*
X156487000Y-112125000D01*
G75*
G02*
X156237000Y-111875000I0J250000D01*
G01*
G37*
G36*
G01*
X158312000Y-111875000D02*
X158312000Y-110925000D01*
G75*
G02*
X158562000Y-110675000I250000J0D01*
G01*
X159237000Y-110675000D01*
G75*
G02*
X159487000Y-110925000I0J-250000D01*
G01*
X159487000Y-111875000D01*
G75*
G02*
X159237000Y-112125000I-250000J0D01*
G01*
X158562000Y-112125000D01*
G75*
G02*
X158312000Y-111875000I0J250000D01*
G01*
G37*
%TD*%
%TO.C,R1*%
G36*
G01*
X159500000Y-112849999D02*
X159500000Y-113750001D01*
G75*
G02*
X159250001Y-114000000I-249999J0D01*
G01*
X158549999Y-114000000D01*
G75*
G02*
X158300000Y-113750001I0J249999D01*
G01*
X158300000Y-112849999D01*
G75*
G02*
X158549999Y-112600000I249999J0D01*
G01*
X159250001Y-112600000D01*
G75*
G02*
X159500000Y-112849999I0J-249999D01*
G01*
G37*
G36*
G01*
X157500000Y-112849999D02*
X157500000Y-113750001D01*
G75*
G02*
X157250001Y-114000000I-249999J0D01*
G01*
X156549999Y-114000000D01*
G75*
G02*
X156300000Y-113750001I0J249999D01*
G01*
X156300000Y-112849999D01*
G75*
G02*
X156549999Y-112600000I249999J0D01*
G01*
X157250001Y-112600000D01*
G75*
G02*
X157500000Y-112849999I0J-249999D01*
G01*
G37*
%TD*%
M02*
