<?xml version="1.0" standalone="no"?>
<!DOCTYPE svg PUBLIC "-//W3C//DTD SVG 1.1//EN"
"http://www.w3.org/Graphics/SVG/1.1/DTD/svg11.dtd">
<svg width="149.443" height="122.986" viewBox="0 0 3113.39 2562.2" version="1.1"
xmlns="http://www.w3.org/2000/svg"
xmlns:xlink="http://www.w3.org/1999/xlink">
<g fill-rule="evenodd"><path d="M 1031.1,483.858 L 1031.01,584.213 L 1029.6,589.817 L 1027.78,593.22 L 1025.34,596.203 L 1022.35,598.651 L 1018.95,600.47 L 1015.26,601.59 L 1011.42,601.969 L 922.874,601.874 L 917.27,600.47 L 913.867,598.651 L 910.884,596.203 L 908.436,593.22 L 906.617,589.817 L 905.496,586.124 L 905.118,582.283 L 905.118,385.433 L 905.496,381.593 L 906.617,377.9 L 908.436,374.497 L 910.884,371.514 L 913.867,369.066 L 917.27,367.246 L 920.963,366.126 L 924.803,365.748 L 1013.35,365.843 L 1018.95,367.246 L 1022.35,369.066 L 1025.34,371.514 L 1027.78,374.497 L 1029.6,377.9 L 1031.01,383.504 L 1031.1,483.858 z " style="fill-opacity:1.000000;fill:rgb(103,198,105);stroke:rgb(0,0,0);stroke-width:2"/></g>
<g fill-rule="evenodd"><path d="M 180.709,483.858 L 180.614,584.213 L 179.21,589.817 L 177.391,593.22 L 174.943,596.203 L 171.96,598.651 L 168.557,600.47 L 164.864,601.59 L 161.024,601.969 L 72.48,601.874 L 66.8763,600.47 L 63.473,598.651 L 60.49,596.203 L 58.042,593.22 L 56.2228,589.817 L 55.1027,586.124 L 54.7244,582.283 L 54.7244,385.433 L 55.1027,381.593 L 56.2228,377.9 L 58.042,374.497 L 60.49,371.514 L 63.473,369.066 L 66.8763,367.246 L 70.5691,366.126 L 74.4094,365.748 L 162.953,365.843 L 168.557,367.246 L 171.96,369.066 L 174.943,371.514 L 177.391,374.497 L 179.21,377.9 L 180.614,383.504 L 180.709,483.858 z " style="fill-opacity:1.000000;fill:rgb(115,81,255);stroke:rgb(0,0,0);stroke-width:2"/></g>
<g fill-rule="evenodd"><path d="M 1228.97,2419.88 L 1226.29,2425.36 L 1224.14,2428.57 L 1218.96,2434.29 L 1212.76,2438.89 L 1205.78,2442.19 L 1202.09,2443.31 L 1194.45,2444.44 L 1154.34,2444.49 L 1122.87,2475.96 L 1120.63,2477.8 L 1118.08,2479.16 L 1115.31,2480 L 1112.43,2480.28 L 349.374,2480.28 L 346.494,2480 L 343.724,2479.16 L 341.172,2477.79 L 338.935,2475.96 L 317.88,2454.9 L 314.47,2455.92 L 310.63,2456.3 L 257.519,2456.2 L 251.916,2454.8 L 248.512,2452.98 L 245.529,2450.53 L 243.081,2447.55 L 241.262,2444.15 L 239.859,2438.54 L 239.859,2363.82 L 241.262,2358.21 L 244.232,2353.26 L 248.512,2349.38 L 251.916,2347.56 L 255.608,2346.44 L 259.449,2346.06 L 312.559,2346.16 L 318.163,2347.56 L 323.118,2350.53 L 325.847,2353.26 L 327.991,2356.47 L 329.467,2360.03 L 330.22,2363.82 L 330.315,2425.58 L 355.49,2450.76 L 1106.32,2450.76 L 1124.75,2432.33 L 1121.53,2428.57 L 1117.56,2421.95 L 1114.96,2414.68 L 1114.21,2410.89 L 1113.78,2405.12 L 1113.78,2365.75 L 1231.89,2365.75 L 1231.89,2390.35 L 1814.93,2390.35 L 1814.93,2175.9 L 1667.29,2028.26 L 1226.09,2028.26 L 1223.21,2027.98 L 1220.44,2027.14 L 1217.89,2025.77 L 1215.65,2023.94 L 1141.34,1949.62 L 1141.34,1956.3 L 1094.09,1956.3 L 1094.09,1853.94 L 1141.34,1853.94 L 1141.34,1907.86 L 1232.21,1998.73 L 1673.4,1998.73 L 1676.28,1999.02 L 1679.05,1999.86 L 1681.6,2001.22 L 1683.84,2003.06 L 1840.13,2159.35 L 1841.97,2161.58 L 1843.33,2164.14 L 1844.17,2166.91 L 1844.46,2169.79 L 1844.46,2399 L 1846.83,2401.38 L 2058.64,2401.38 L 2063.21,2387.32 L 2070.62,2374.49 L 2080.53,2363.48 L 2092.52,2354.77 L 2106.05,2348.74 L 2120.55,2345.66 L 2135.36,2345.66 L 2149.85,2348.74 L 2163.39,2354.77 L 2175.37,2363.48 L 2185.28,2374.49 L 2192.69,2387.32 L 2197.27,2401.41 L 2198.82,2416.14 L 2197.27,2430.88 L 2192.69,2444.97 L 2185.28,2457.8 L 2175.37,2468.81 L 2163.39,2477.51 L 2149.85,2483.54 L 2135.36,2486.62 L 2120.55,2486.62 L 2106.05,2483.54 L 2092.52,2477.51 L 2080.53,2468.81 L 2070.62,2457.8 L 2063.21,2444.97 L 2058.64,2430.91 L 1840.72,2430.91 L 1837.84,2430.62 L 1835.07,2429.78 L 1832.51,2428.42 L 1830.28,2426.58 L 1823.58,2419.88 L 1228.97,2419.88 z " style="fill-opacity:1.000000;fill:rgb(74,236,41);stroke:rgb(0,0,0);stroke-width:2"/></g>
<g fill-rule="evenodd"><path d="M 334.252,1775.17 L 334.252,1798.82 L 333.404,1804.53 L 331.928,1808.1 L 329.784,1811.31 L 327.055,1814.04 L 323.846,1816.18 L 320.281,1817.66 L 314.567,1818.5 L 263.386,1818.5 L 257.671,1817.66 L 252.449,1815.19 L 249.466,1812.74 L 247.018,1809.76 L 244.548,1804.53 L 243.796,1800.75 L 243.701,1727.95 L 244.548,1722.24 L 247.018,1717.02 L 249.466,1714.03 L 252.449,1711.59 L 257.671,1709.12 L 261.456,1708.36 L 314.567,1708.27 L 320.281,1709.12 L 323.846,1710.59 L 327.055,1712.74 L 330.934,1717.02 L 332.754,1720.42 L 334.157,1726.02 L 334.252,1745.64 L 798.518,1745.64 L 801.399,1745.92 L 804.168,1746.76 L 806.721,1748.13 L 808.958,1749.96 L 867.624,1808.63 L 1158.52,1808.63 L 1161.4,1808.91 L 1164.17,1809.75 L 1166.72,1811.12 L 1168.96,1812.95 L 1223.6,1867.6 L 1225.44,1869.84 L 1226.8,1872.39 L 1227.64,1875.16 L 1227.93,1878.04 L 1227.93,1890.35 L 1243.7,1890.35 L 1243.7,1853.94 L 1290.94,1853.94 L 1290.94,1956.3 L 1243.7,1956.3 L 1243.7,1919.88 L 1213.16,1919.88 L 1210.28,1919.6 L 1207.51,1918.76 L 1204.96,1917.39 L 1202.72,1915.56 L 1200.89,1913.32 L 1199.52,1910.77 L 1198.68,1908 L 1198.4,1905.12 L 1198.4,1884.15 L 1152.4,1838.16 L 861.508,1838.16 L 858.628,1837.87 L 855.859,1837.03 L 853.306,1835.67 L 851.069,1833.83 L 792.403,1775.17 L 334.252,1775.17 z " style="fill-opacity:1.000000;fill:rgb(205,186,171);stroke:rgb(0,0,0);stroke-width:2"/></g>
<g fill-rule="evenodd"><path d="M 833.627,2064 L 882.479,2015.14 L 882.479,1928.74 L 861.811,1928.74 L 861.811,1865.75 L 932.677,1865.75 L 932.677,1928.74 L 912.006,1928.74 L 912.006,2021.26 L 911.723,2024.14 L 910.882,2026.91 L 909.518,2029.46 L 907.682,2031.7 L 846.063,2093.32 L 846.063,2153.15 L 845.215,2158.86 L 843.739,2162.43 L 841.595,2165.64 L 837.314,2169.52 L 832.092,2171.99 L 828.307,2172.74 L 773.267,2172.74 L 769.483,2171.99 L 764.26,2169.52 L 761.277,2167.07 L 758.829,2164.09 L 756.359,2158.86 L 755.607,2155.08 L 755.512,2082.28 L 756.359,2076.57 L 758.829,2071.35 L 761.277,2068.36 L 764.26,2065.92 L 769.483,2063.45 L 773.267,2062.69 L 826.378,2062.6 L 830.218,2062.98 L 833.627,2064 z " style="fill-opacity:1.000000;fill:rgb(242,251,227);stroke:rgb(0,0,0);stroke-width:2"/></g>
<g fill-rule="evenodd"><path d="M 287.991,2125.59 L 287.991,2015.35 L 263.386,2015.35 L 259.545,2014.98 L 255.853,2013.86 L 252.449,2012.04 L 248.169,2008.16 L 246.025,2004.95 L 244.548,2001.38 L 243.701,1995.67 L 243.796,1922.87 L 245.199,1917.27 L 248.169,1912.32 L 252.449,1908.44 L 255.853,1906.62 L 259.545,1905.5 L 263.386,1905.12 L 316.496,1905.21 L 320.281,1905.97 L 323.846,1907.44 L 327.055,1909.59 L 329.784,1912.32 L 331.928,1915.52 L 333.404,1919.09 L 334.252,1924.8 L 334.252,1995.67 L 333.874,1999.51 L 331.928,2004.95 L 328.486,2009.59 L 323.846,2013.03 L 320.281,2014.51 L 317.518,2015.11 L 317.518,2125.59 L 342.126,2125.59 L 342.126,2150.2 L 372.658,2150.2 L 375.539,2150.48 L 378.308,2151.32 L 380.861,2152.68 L 383.098,2154.52 L 548.068,2319.49 L 594.094,2319.49 L 594.094,2298.82 L 594.942,2293.1 L 597.412,2287.88 L 599.86,2284.9 L 602.843,2282.45 L 608.065,2279.98 L 613.779,2279.13 L 664.961,2279.13 L 670.675,2279.98 L 675.897,2282.45 L 678.88,2284.9 L 681.328,2287.88 L 683.798,2293.1 L 684.551,2296.89 L 684.646,2358.65 L 731.454,2405.46 L 847.915,2405.46 L 961.055,2292.32 L 963.292,2290.48 L 965.845,2289.12 L 968.614,2288.28 L 971.494,2287.99 L 1116.7,2287.99 L 1119.38,2282.52 L 1121.53,2279.3 L 1126.71,2273.58 L 1132.91,2268.99 L 1139.89,2265.69 L 1143.58,2264.57 L 1151.22,2263.43 L 1191.33,2263.39 L 1249.01,2205.7 L 1251.25,2203.87 L 1253.8,2202.5 L 1256.57,2201.66 L 1259.45,2201.38 L 1658.65,2201.38 L 1663.21,2187.32 L 1670.62,2174.49 L 1680.53,2163.48 L 1692.52,2154.77 L 1706.05,2148.74 L 1720.55,2145.66 L 1735.36,2145.66 L 1749.85,2148.74 L 1763.39,2154.77 L 1775.37,2163.48 L 1785.28,2174.49 L 1792.69,2187.32 L 1797.27,2201.41 L 1798.82,2216.14 L 1797.27,2230.88 L 1792.69,2244.97 L 1785.28,2257.8 L 1775.37,2268.81 L 1763.39,2277.51 L 1749.85,2283.54 L 1735.36,2286.62 L 1720.55,2286.62 L 1706.05,2283.54 L 1692.52,2277.51 L 1680.53,2268.81 L 1670.62,2257.8 L 1663.21,2244.97 L 1658.64,2230.91 L 1265.56,2230.91 L 1220.92,2275.55 L 1224.14,2279.3 L 1228.11,2285.92 L 1230.71,2293.19 L 1231.46,2296.98 L 1231.89,2302.76 L 1231.89,2342.13 L 1113.78,2342.13 L 1113.78,2317.52 L 977.61,2317.52 L 864.47,2430.66 L 862.233,2432.5 L 859.68,2433.86 L 856.911,2434.7 L 854.03,2434.98 L 725.338,2434.98 L 722.458,2434.7 L 719.689,2433.86 L 717.136,2432.5 L 714.899,2430.66 L 672.212,2387.97 L 668.801,2388.99 L 664.961,2389.37 L 613.779,2389.37 L 608.065,2388.52 L 602.843,2386.05 L 599.86,2383.6 L 597.412,2380.62 L 595.593,2377.22 L 594.473,2373.53 L 594.094,2369.69 L 594.094,2349.02 L 541.952,2349.02 L 539.072,2348.73 L 536.303,2347.89 L 533.75,2346.53 L 531.513,2344.69 L 366.543,2179.72 L 342.126,2179.72 L 342.126,2204.33 L 263.386,2204.33 L 263.386,2125.59 L 287.991,2125.59 z " style="fill-opacity:1.000000;fill:rgb(70,124,194);stroke:rgb(0,0,0);stroke-width:2"/></g>
<g fill-rule="evenodd"><path d="M 724.999,1853.94 L 704.331,1853.94 L 704.331,1790.94 L 775.197,1790.94 L 775.197,1853.94 L 754.526,1853.94 L 754.526,1884.47 L 754.243,1887.35 L 753.403,1890.12 L 752.038,1892.67 L 750.203,1894.91 L 735.22,1909.89 L 735.22,2247.8 L 767.946,2280.53 L 771.356,2279.51 L 775.197,2279.13 L 828.307,2279.23 L 832.092,2279.98 L 837.314,2282.45 L 840.297,2284.9 L 842.746,2287.88 L 845.215,2293.1 L 846.063,2298.82 L 845.968,2371.61 L 844.565,2377.22 L 841.595,2382.17 L 837.314,2386.05 L 833.911,2387.87 L 830.218,2388.99 L 826.378,2389.37 L 773.267,2389.28 L 767.664,2387.87 L 764.26,2386.05 L 761.277,2383.6 L 758.829,2380.62 L 757.01,2377.22 L 755.607,2371.61 L 755.512,2309.86 L 710.017,2264.36 L 708.181,2262.12 L 706.816,2259.57 L 705.976,2256.8 L 705.693,2253.92 L 705.693,1903.78 L 705.976,1900.9 L 706.816,1898.13 L 708.181,1895.58 L 710.016,1893.34 L 724.999,1878.36 L 724.999,1853.94 z " style="fill-opacity:1.000000;fill:rgb(84,248,27);stroke:rgb(0,0,0);stroke-width:2"/></g>
<g fill-rule="evenodd"><path d="M 2157.09,1227.95 L 1453.88,1227.95 L 1342.12,1339.71 L 1342.12,1353.94 L 1353.94,1353.94 L 1353.94,1401.18 L 1334.17,1401.18 L 1329.1,1406.82 L 1322.44,1411.65 L 1314.92,1415 L 1306.87,1416.71 L 1298.64,1416.71 L 1290.59,1415 L 1283.07,1411.65 L 1276.41,1406.82 L 1271.34,1401.18 L 1251.57,1401.18 L 1251.57,1353.94 L 1263.38,1353.94 L 1263.38,1323.4 L 1264.14,1315.72 L 1266.38,1308.34 L 1270.02,1301.53 L 1274.92,1295.56 L 1409.74,1160.74 L 1415.7,1155.85 L 1422.51,1152.21 L 1429.89,1149.97 L 1437.57,1149.21 L 2235.83,1149.21 L 2235.83,1227.95 L 2157.09,1227.95 z " style="fill-opacity:1.000000;fill:rgb(232,231,141);stroke:rgb(0,0,0);stroke-width:2"/></g>
<g fill-rule="evenodd"><path d="M 1918.48,404.721 L 1376.15,947.053 L 1373.91,948.889 L 1371.36,950.253 L 1368.59,951.094 L 1365.71,951.377 L 1152.16,951.377 L 1152.16,1279.13 L 1188.58,1279.13 L 1188.58,1326.38 L 1086.22,1326.38 L 1086.22,1279.13 L 1122.64,1279.13 L 1122.64,947.555 L 1007.48,832.398 L 1007.39,844.056 L 1006.63,847.84 L 1005.16,851.406 L 1003.01,854.614 L 1000.28,857.343 L 997.075,859.487 L 993.51,860.963 L 987.795,861.811 L 934.685,861.716 L 929.081,860.313 L 925.678,858.494 L 922.695,856.045 L 920.247,853.062 L 918.428,849.659 L 917.307,845.966 L 916.929,842.126 L 917.024,769.33 L 918.428,763.727 L 921.397,758.772 L 925.678,754.892 L 929.081,753.073 L 932.774,751.953 L 936.614,751.575 L 989.725,751.67 L 995.328,753.073 L 1000.28,756.043 L 1004.16,760.323 L 1005.98,763.727 L 1007.1,767.419 L 1007.48,771.26 L 1007.48,792.802 L 1010.85,794.416 L 1013.09,796.252 L 1139.06,922.22 L 1142.23,921.85 L 1359.59,921.85 L 1876.32,405.118 L 1873.62,405.118 L 1873.62,287.008 L 1914.92,287.055 L 1922.56,288.188 L 1929.83,290.788 L 1933.23,292.609 L 1936.44,294.756 L 1942.16,299.939 L 1944.61,302.925 L 1948.58,309.545 L 1951.18,316.812 L 1951.94,320.601 L 1952.31,324.446 L 1952.36,334.448 L 2058.65,334.448 L 2063.21,320.389 L 2070.62,307.559 L 2080.53,296.549 L 2092.52,287.841 L 2106.05,281.815 L 2120.55,278.735 L 2135.36,278.735 L 2149.85,281.815 L 2163.39,287.841 L 2175.37,296.549 L 2185.28,307.559 L 2192.69,320.389 L 2197.27,334.479 L 2198.82,349.213 L 2197.27,363.946 L 2192.69,378.036 L 2185.28,390.867 L 2175.37,401.876 L 2163.39,410.584 L 2149.85,416.61 L 2135.36,419.691 L 2120.55,419.691 L 2106.05,416.61 L 2092.52,410.584 L 2080.53,401.876 L 2070.62,390.867 L 2063.21,378.036 L 2058.64,363.975 L 1952.36,363.975 L 1951.94,371.525 L 1950.06,379.011 L 1946.76,385.988 L 1942.16,392.187 L 1936.44,397.37 L 1929.83,401.338 L 1922.56,403.938 L 1918.48,404.721 z " style="fill-opacity:1.000000;fill:rgb(118,90,46);stroke:rgb(0,0,0);stroke-width:2"/></g>
<g fill-rule="evenodd"><path d="M 1783.42,394.149 L 1360.55,817.02 L 1362.43,819.379 L 1364.25,822.782 L 1365.65,828.385 L 1365.65,883.426 L 1364.9,887.21 L 1362.43,892.433 L 1358.55,896.713 L 1353.6,899.683 L 1349.9,900.803 L 1346.06,901.181 L 1275.2,901.181 L 1271.36,900.803 L 1267.66,899.683 L 1264.26,897.864 L 1261.28,895.416 L 1258.83,892.433 L 1257.01,889.029 L 1255.89,885.336 L 1255.51,881.496 L 1255.61,828.385 L 1257.01,822.782 L 1258.83,819.379 L 1260.71,817.022 L 1176.32,732.629 L 923.106,732.629 L 898.456,757.279 L 898.456,879.544 L 929.364,910.452 L 932.774,909.433 L 936.614,909.055 L 989.725,909.15 L 993.51,909.903 L 998.732,912.373 L 1001.71,914.821 L 1004.16,917.804 L 1006.63,923.026 L 1007.48,928.74 L 1007.48,999.606 L 1007.1,1003.45 L 1005.98,1007.14 L 1004.16,1010.54 L 1001.71,1013.53 L 998.732,1015.97 L 995.328,1017.79 L 991.636,1018.91 L 984.093,1019.29 L 1006.11,1041.31 L 1007.94,1043.55 L 1009.31,1046.1 L 1010.15,1048.87 L 1010.43,1051.75 L 1010.43,1082.28 L 1035.04,1082.28 L 1035.04,1161.02 L 956.299,1161.02 L 956.299,1082.28 L 980.905,1082.28 L 980.905,1057.86 L 951.765,1028.72 L 949.929,1026.48 L 948.564,1023.93 L 947.724,1021.16 L 947.54,1019.29 L 934.685,1019.2 L 930.9,1018.44 L 925.678,1015.97 L 922.695,1013.53 L 920.247,1010.54 L 917.777,1005.32 L 916.929,999.606 L 916.929,939.775 L 873.253,896.099 L 871.417,893.862 L 870.053,891.309 L 869.212,888.54 L 868.929,885.659 L 868.929,751.163 L 869.212,748.283 L 870.053,745.514 L 871.417,742.961 L 873.253,740.724 L 906.551,707.426 L 908.788,705.59 L 911.341,704.226 L 914.11,703.385 L 916.99,703.102 L 1182.43,703.102 L 1185.31,703.385 L 1188.08,704.226 L 1190.63,705.59 L 1192.87,707.426 L 1296.08,810.63 L 1325.18,810.63 L 1771.26,364.551 L 1771.31,324.446 L 1772.44,316.812 L 1773.56,313.115 L 1776.86,306.138 L 1781.46,299.939 L 1787.18,294.756 L 1790.39,292.609 L 1795.86,289.931 L 1795.86,238.005 L 1766.32,208.456 L 1763.39,210.584 L 1749.85,216.61 L 1735.36,219.691 L 1720.55,219.691 L 1706.05,216.61 L 1692.52,210.584 L 1680.53,201.876 L 1670.62,190.867 L 1663.21,178.036 L 1658.64,163.946 L 1657.09,149.213 L 1658.64,134.479 L 1663.21,120.389 L 1670.62,107.559 L 1680.53,96.5488 L 1692.52,87.8407 L 1706.05,81.8149 L 1720.55,78.7347 L 1735.36,78.7347 L 1749.85,81.8149 L 1763.39,87.8407 L 1775.37,96.5488 L 1785.28,107.559 L 1792.69,120.389 L 1797.27,134.479 L 1798.82,149.213 L 1797.27,163.946 L 1792.69,178.036 L 1787.19,187.569 L 1821.07,221.45 L 1822.9,223.687 L 1824.27,226.24 L 1825.11,229.009 L 1825.39,231.889 L 1825.39,287.008 L 1850,287.008 L 1850,405.118 L 1810.63,405.118 L 1804.85,404.692 L 1801.06,403.938 L 1793.8,401.338 L 1787.18,397.37 L 1783.42,394.149 z " style="fill-opacity:1.000000;fill:rgb(99,51,159);stroke:rgb(0,0,0);stroke-width:2"/></g>
<g fill-rule="evenodd"><path d="M 692.52,1512.4 L 692.52,1491.73 L 755.512,1491.73 L 755.512,1562.6 L 692.52,1562.6 L 692.52,1541.93 L 582.28,1541.93 L 579.4,1541.64 L 576.631,1540.8 L 574.078,1539.44 L 571.841,1537.6 L 473.415,1439.18 L 471.579,1436.94 L 470.215,1434.39 L 469.374,1431.62 L 469.091,1428.74 L 469.091,1242.61 L 298.219,1071.74 L 296.383,1069.5 L 295.019,1066.95 L 294.178,1064.18 L 293.895,1061.3 L 293.895,873.622 L 281.141,873.527 L 277.357,872.774 L 273.791,871.298 L 270.583,869.154 L 266.703,864.873 L 264.233,859.651 L 263.481,855.867 L 263.481,781.141 L 264.233,777.357 L 266.703,772.134 L 270.583,767.854 L 273.791,765.71 L 277.357,764.233 L 283.071,763.386 L 336.181,763.481 L 341.785,764.884 L 346.74,767.854 L 350.62,772.134 L 353.089,777.357 L 353.937,783.071 L 353.937,853.937 L 353.089,859.651 L 351.613,863.217 L 349.469,866.425 L 345.188,870.305 L 341.785,872.124 L 336.181,873.527 L 323.422,873.622 L 323.422,1055.18 L 494.294,1226.06 L 496.13,1228.29 L 497.494,1230.85 L 498.335,1233.62 L 498.618,1236.5 L 498.618,1422.62 L 588.396,1512.4 L 692.52,1512.4 z " style="fill-opacity:1.000000;fill:rgb(201,154,102);stroke:rgb(0,0,0);stroke-width:2"/></g>
<g fill-rule="evenodd"><path d="M 1152.16,1428.74 L 1188.58,1428.74 L 1188.58,1475.98 L 1086.22,1475.98 L 1086.22,1428.74 L 1122.64,1428.74 L 1122.64,1412.97 L 1083.24,1412.97 L 1080.36,1412.68 L 1077.59,1411.84 L 1075.04,1410.48 L 1072.8,1408.64 L 910.749,1246.59 L 785.132,1246.59 L 782.252,1246.31 L 779.483,1245.47 L 776.93,1244.1 L 774.693,1242.27 L 491.135,958.707 L 489.299,956.47 L 487.935,953.917 L 487.094,951.148 L 486.811,948.267 L 486.811,853.937 L 474.055,853.842 L 470.27,853.089 L 466.705,851.613 L 463.496,849.469 L 459.617,845.188 L 457.147,839.966 L 456.394,836.181 L 456.394,761.456 L 457.798,755.853 L 459.617,752.449 L 462.065,749.466 L 465.048,747.018 L 468.451,745.199 L 474.055,743.796 L 529.095,743.796 L 534.699,745.199 L 539.653,748.169 L 543.533,752.449 L 546.003,757.671 L 546.85,763.386 L 546.85,798.819 L 546.85,834.252 L 546.003,839.966 L 544.526,843.531 L 542.382,846.74 L 538.102,850.62 L 534.699,852.439 L 529.095,853.842 L 516.338,853.937 L 516.338,942.152 L 791.248,1217.06 L 916.864,1217.06 L 919.745,1217.35 L 922.514,1218.19 L 925.067,1219.55 L 927.304,1221.39 L 1089.36,1383.44 L 1137.4,1383.44 L 1140.28,1383.72 L 1143.05,1384.56 L 1145.6,1385.93 L 1147.84,1387.76 L 1149.68,1390 L 1151.04,1392.55 L 1151.88,1395.32 L 1152.16,1398.2 L 1152.16,1428.74 z " style="fill-opacity:1.000000;fill:rgb(50,13,183);stroke:rgb(0,0,0);stroke-width:2"/></g>
<g fill-rule="evenodd"><path d="M 863.005,1491.73 L 905.118,1491.73 L 905.118,1507.16 L 938.972,1507.16 L 942.092,1505.93 L 944.042,1505.74 L 947.869,1506.5 L 951.114,1508.67 L 976.152,1533.94 L 981.397,1538.24 L 987.382,1541.44 L 993.875,1543.41 L 1000.63,1544.08 L 1201.66,1544.08 L 1208.41,1543.41 L 1214.91,1541.44 L 1220.89,1538.25 L 1226.14,1533.94 L 1243.6,1516.48 L 1247.91,1511.23 L 1251.11,1505.25 L 1253.08,1498.75 L 1253.74,1492 L 1253.57,1434.74 L 1253.78,1432.7 L 1254.41,1430.74 L 1255.41,1428.96 L 1256.76,1427.41 L 1258.4,1426.18 L 1260.25,1425.3 L 1262.25,1424.82 L 1264.29,1424.76 L 1266.31,1425.12 L 1268.22,1425.88 L 1280.04,1432.38 L 1291.18,1435.76 L 1302.75,1436.9 L 1314.33,1435.76 L 1325.46,1432.38 L 1335.72,1426.9 L 1340.13,1423.28 L 1343.11,1421.59 L 1346.48,1421.01 L 1353.45,1421.01 L 1357.79,1420.58 L 1361.51,1419.45 L 1364.93,1417.63 L 1367.92,1415.17 L 1370.38,1412.17 L 1372.21,1408.75 L 1373.34,1405.04 L 1373.76,1400.69 L 1373.76,1354.43 L 1373.34,1350.08 L 1371.89,1345.4 L 1371.44,1341.81 L 1371.71,1340.01 L 1373.19,1336.71 L 1459.11,1250.57 L 1460.62,1249.32 L 1464.23,1247.83 L 2112.88,1247.64 L 2114.86,1247.83 L 2118.5,1249.37 L 2121.27,1252.19 L 2122.18,1253.95 L 2122.88,1257.84 L 2122.64,1259.81 L 2121.4,1263.1 L 2125.35,1268.58 L 2162.79,1268.58 L 2164.61,1265.44 L 2170.11,1259.33 L 2176.77,1254.49 L 2184.29,1251.14 L 2192.34,1249.43 L 2200.57,1249.43 L 2208.62,1251.14 L 2216.14,1254.49 L 2222.8,1259.33 L 2228.31,1265.44 L 2230.12,1268.58 L 2267.56,1268.58 L 2271.51,1263.1 L 2265.44,1249.43 L 2257.1,1237.6 L 2255.6,1234.39 L 2255.3,1232.64 L 2255.65,1227.46 L 2255.8,1188.58 L 2255.65,1149.7 L 2255.22,1145.35 L 2254.1,1141.64 L 2252.27,1138.22 L 2249.81,1135.22 L 2246.82,1132.76 L 2243.39,1130.94 L 2239.68,1129.81 L 2235.34,1129.38 L 1440.96,1129.53 L 1437.57,1129.24 L 1426,1130.38 L 1414.87,1133.76 L 1404.61,1139.24 L 1395.61,1146.62 L 1393.42,1149.22 L 1270.65,1271.99 L 1269.13,1273.24 L 1265.53,1274.73 L 1261.62,1274.73 L 1258.02,1273.24 L 1255.26,1270.48 L 1254.34,1268.75 L 1253.57,1264.92 L 1253.77,1125.29 L 1255.26,1121.68 L 1256.5,1120.17 L 1291.31,1085.35 L 1294.56,1083.19 L 1298.38,1082.43 L 1345.57,1082.43 L 1353.76,1081.62 L 1361.16,1079.37 L 1367.99,1075.73 L 1373.97,1070.82 L 1378.88,1064.84 L 1382.52,1058.02 L 1384.77,1050.61 L 1385.58,1042.42 L 1385.58,992.224 L 1384.77,984.033 L 1381.81,973.599 L 1382.22,969.759 L 1384.06,966.361 L 1390.19,961.09 L 1562.85,788.19 L 1566.09,786.023 L 1569.92,785.261 L 1573.75,786.023 L 1575.47,786.947 L 1578.23,789.706 L 1579.73,793.311 L 1579.73,797.213 L 1578.34,804.157 L 1578.34,832.85 L 1583.94,860.992 L 1594.92,887.503 L 1610.87,911.362 L 1631.16,931.652 L 1655.02,947.594 L 1681.53,958.574 L 1709.67,964.171 L 1738.36,964.171 L 1766.51,958.574 L 1793.02,947.593 L 1816.87,931.652 L 1837.16,911.362 L 1853.1,887.502 L 1864.09,860.992 L 1869.68,832.85 L 1869.68,804.157 L 1864.09,776.012 L 1853.1,749.503 L 1837.16,725.644 L 1816.87,705.355 L 1793.02,689.414 L 1766.51,678.431 L 1738.36,672.833 L 1709.67,672.834 L 1700.78,674.407 L 1696.95,673.647 L 1693.7,671.479 L 1692.46,669.964 L 1690.97,666.359 L 1690.97,662.457 L 1692.46,658.852 L 1926.42,424.62 L 1929.07,422.724 L 1938.68,418.974 L 1942.97,416.682 L 1948.58,412.939 L 1952.33,409.856 L 1957.1,405.092 L 1960.19,401.33 L 1963.93,395.729 L 1967.81,388.104 L 1969.05,386.589 L 1972.3,384.421 L 1976.12,383.659 L 2037.53,383.659 L 2041.35,384.42 L 2043.08,385.344 L 2045.84,388.102 L 2047.71,392.102 L 2057.62,406.935 L 2070.23,419.548 L 2085.06,429.458 L 2101.54,436.284 L 2119.03,439.763 L 2136.87,439.763 L 2154.36,436.284 L 2170.84,429.458 L 2185.67,419.548 L 2198.29,406.935 L 2208.2,392.102 L 2215.02,375.625 L 2218.5,358.13 L 2218.5,340.293 L 2215.02,322.799 L 2208.2,306.32 L 2198.29,291.488 L 2185.67,278.875 L 2170.84,268.965 L 2154.36,262.141 L 2136.87,258.659 L 2119.03,258.659 L 2101.54,262.141 L 2085.06,268.965 L 2070.23,278.875 L 2057.62,291.488 L 2047.71,306.321 L 2045.84,310.321 L 2044.6,311.836 L 2041.35,314.003 L 2037.53,314.763 L 1978.6,314.763 L 1975.03,314.105 L 1973.39,313.303 L 1970.69,310.883 L 1969.71,309.347 L 1966.22,300.686 L 1963.93,296.393 L 1960.18,290.794 L 1957.1,287.033 L 1952.33,282.27 L 1948.57,279.183 L 1942.97,275.441 L 1938.68,273.147 L 1932.46,270.57 L 1927.81,269.16 L 1921.2,267.845 L 1912.5,267.177 L 1874.11,267.178 L 1869.76,267.607 L 1864.72,269.23 L 1860.83,269.613 L 1852.28,267.278 L 1849.02,265.63 L 1846.56,262.919 L 1845.25,259.506 L 1845.24,231.891 L 1844.58,225.136 L 1842.61,218.642 L 1839.41,212.658 L 1835.11,207.413 L 1816.25,188.792 L 1815.01,187.277 L 1813.51,183.674 L 1813.51,179.773 L 1815.02,175.627 L 1818.5,158.131 L 1818.5,140.292 L 1815.02,122.798 L 1808.2,106.319 L 1805.73,102.622 L 1804.24,99.0177 L 1804.04,97.0671 L 1804.81,93.241 L 1805.73,91.5125 L 1808.49,88.7543 L 1812.09,87.2616 L 1814.04,87.0695 L 2605.99,87.0695 L 2609.82,87.8307 L 2613.06,89.9984 L 2637.93,114.864 L 2640.1,118.109 L 2640.66,119.985 L 2640.66,123.887 L 2637.4,140.292 L 2637.4,158.131 L 2640.88,175.625 L 2647.71,192.103 L 2657.62,206.935 L 2670.23,219.548 L 2685.06,229.458 L 2701.54,236.284 L 2719.03,239.763 L 2736.87,239.764 L 2755.23,236.307 L 2757.18,236.5 L 2760.78,237.993 L 2973.05,449.992 L 2975.22,453.237 L 2975.98,457.063 L 2975.79,1910.24 L 2975.22,1912.12 L 2973.05,1915.36 L 2760.78,2127.36 L 2759.06,2128.28 L 2755.23,2129.05 L 2736.87,2125.59 L 2719.03,2125.59 L 2701.54,2129.07 L 2685.06,2135.9 L 2670.23,2145.8 L 2657.62,2158.42 L 2647.71,2173.25 L 2640.88,2189.73 L 2637.4,2207.22 L 2637.4,2225.06 L 2640.88,2242.55 L 2647.71,2259.03 L 2657.62,2273.86 L 2670.23,2286.48 L 2685.06,2296.39 L 2701.54,2303.21 L 2719.03,2306.69 L 2736.87,2306.69 L 2754.36,2303.21 L 2770.84,2296.39 L 2785.67,2286.48 L 2798.29,2273.86 L 2808.2,2259.03 L 2815.02,2242.55 L 2818.5,2225.06 L 2818.5,2207.22 L 2815.05,2188.87 L 2815.81,2185.04 L 2816.73,2183.31 L 3043.33,1956.71 L 3048.25,1950.72 L 3051.9,1943.88 L 3054.15,1936.46 L 3054.91,1928.74 L 3054.91,436.612 L 3054.15,428.897 L 3051.9,421.474 L 3048.25,414.634 L 3043.33,408.639 L 2816.73,182.043 L 2815.81,180.314 L 2815.05,176.487 L 2818.5,158.131 L 2818.5,140.292 L 2815.02,122.798 L 2808.2,106.32 L 2798.29,91.4879 L 2785.67,78.8747 L 2770.85,68.9663 L 2754.36,62.1412 L 2736.87,58.6595 L 2719.03,58.6596 L 2702.63,61.9233 L 2700.68,62.1155 L 2696.85,61.3543 L 2693.61,59.1866 L 2683.32,48.6252 L 2681.82,45.0204 L 2681.82,41.1186 L 2683.32,37.5138 L 2684.56,35.9984 L 2687.8,33.8307 L 2691.63,33.0695 L 3021.68,33.0695 L 3035.23,34.5424 L 3045.81,37.9338 L 3053.89,42.2338 L 3062.62,49.1046 L 3070.93,59.1551 L 3076.05,69.0096 L 3078.76,77.7616 L 3080.31,91.2835 L 3080.31,2470.5 L 3078.84,2484.05 L 3075.45,2494.63 L 3071.15,2502.71 L 3064.28,2511.44 L 3054.23,2519.75 L 3046.17,2524.11 L 3035.62,2527.57 L 3022.1,2529.13 L 91.7045,2529.13 L 80.0643,2528.04 L 69.38,2525.01 L 59.4882,2519.97 L 50.7635,2513.1 L 42.4505,2503.05 L 37.3355,2493.19 L 34.2352,2482.53 L 33.0705,2470.92 L 33.0705,2222.53 L 33.2789,2220.5 L 33.8955,2218.55 L 34.8946,2216.77 L 36.2344,2215.23 L 37.8593,2214 L 39.7013,2213.12 L 41.6839,2212.63 L 43.7242,2212.55 L 45.7372,2212.89 L 47.6391,2213.64 L 49.3506,2214.75 L 52.5479,2218.32 L 55.5447,2220.78 L 61.1296,2223.44 L 63.9935,2225.66 L 65.077,2227.12 L 66.3689,2230.51 L 66.3447,2234.86 L 67.104,2242.58 L 69.3556,2250 L 73.0114,2256.84 L 77.9319,2262.84 L 82.5679,2267.48 L 84.0586,2271.08 L 84.2505,2322.59 L 83.6094,2326.11 L 81.7683,2329.18 L 80.4662,2330.42 L 76.1039,2332.93 L 70.1231,2337.84 L 65.2157,2343.82 L 61.5699,2350.64 L 59.3235,2358.05 L 58.5165,2366.24 L 58.5165,2436.12 L 59.3235,2444.31 L 61.5699,2451.72 L 65.2157,2458.54 L 70.1228,2464.52 L 76.1045,2469.43 L 82.9277,2473.07 L 90.3319,2475.32 L 98.5228,2476.13 L 148.72,2476.13 L 156.909,2475.32 L 164.314,2473.07 L 171.136,2469.43 L 177.117,2464.52 L 182.026,2458.54 L 185.673,2451.72 L 187.919,2444.31 L 188.724,2436.12 L 188.724,2366.24 L 187.919,2358.05 L 185.673,2350.65 L 182.026,2343.82 L 177.117,2337.84 L 171.137,2332.93 L 166.775,2330.42 L 165.473,2329.18 L 164.414,2327.73 L 163.152,2324.38 L 163.182,2252.58 L 162.421,2244.86 L 160.171,2237.44 L 156.655,2230.87 L 155.521,2227.13 L 155.521,2225.17 L 156.657,2221.43 L 161.721,2215.32 L 163.547,2211.9 L 164.675,2208.19 L 165.102,2203.84 L 165.102,2126.08 L 164.675,2121.73 L 163.548,2118.02 L 161.721,2114.6 L 159.261,2111.6 L 156.264,2109.14 L 150.682,2106.48 L 147.817,2104.26 L 145.932,2101.17 L 145.274,2097.6 L 145.274,2044.97 L 145.945,2041.37 L 147.865,2038.26 L 150.778,2036.04 L 154.294,2035.02 L 160.847,2034.38 L 168.249,2032.13 L 175.073,2028.48 L 181.053,2023.57 L 185.962,2017.59 L 189.609,2010.77 L 191.855,2003.37 L 192.662,1995.18 L 192.662,1925.29 L 191.855,1917.1 L 189.609,1909.7 L 185.962,1902.88 L 181.053,1896.9 L 175.073,1891.99 L 170.71,1889.47 L 169.409,1888.23 L 167.569,1885.16 L 166.928,1881.64 L 167.137,1843.65 L 167.754,1841.71 L 168.753,1839.93 L 170.093,1838.39 L 171.718,1837.15 L 173.56,1836.27 L 175.542,1835.78 L 177.583,1835.71 L 179.596,1836.05 L 181.498,1836.79 L 183.209,1837.9 L 188.598,1844.14 L 225.931,1881.48 L 231.468,1886.02 L 233.944,1889.04 L 235.076,1892.77 L 234.693,1896.65 L 233.943,1898.47 L 230.569,1902.88 L 226.922,1909.7 L 224.678,1917.1 L 223.87,1925.29 L 223.87,1995.18 L 224.678,2003.37 L 226.922,2010.77 L 230.569,2017.59 L 235.478,2023.57 L 241.459,2028.48 L 248.282,2032.13 L 255.684,2034.38 L 261.089,2035.08 L 262.801,2035.75 L 265.715,2037.96 L 267.636,2041.08 L 268.137,2042.85 L 268.306,2096.26 L 267.635,2099.86 L 265.712,2102.98 L 264.356,2104.22 L 261.082,2105.87 L 255.815,2107.32 L 252.395,2109.14 L 249.397,2111.6 L 246.938,2114.6 L 245.108,2118.02 L 243.984,2121.73 L 243.556,2126.08 L 243.556,2203.84 L 243.984,2208.19 L 245.108,2211.9 L 246.936,2215.32 L 249.397,2218.32 L 252.395,2220.78 L 255.815,2222.6 L 259.527,2223.73 L 263.873,2224.16 L 341.636,2224.16 L 345.984,2223.73 L 349.695,2222.6 L 353.113,2220.78 L 356.111,2218.32 L 360.144,2213.74 L 361.896,2212.62 L 363.844,2211.88 L 365.902,2211.56 L 367.981,2211.68 L 369.991,2212.22 L 371.846,2213.17 L 373.464,2214.48 L 517.476,2358.73 L 522.72,2363.03 L 528.706,2366.23 L 535.199,2368.2 L 541.949,2368.87 L 565.152,2368.7 L 566.986,2368.87 L 570.405,2370.19 L 571.876,2371.3 L 574.092,2374.22 L 577.318,2384.79 L 580.964,2391.61 L 585.872,2397.59 L 591.853,2402.5 L 598.677,2406.15 L 606.077,2408.39 L 614.27,2409.2 L 663.409,2409.39 L 665.286,2409.96 L 668.531,2412.13 L 671.644,2415.52 L 673.135,2419.12 L 673.134,2423.02 L 671.64,2426.63 L 670.396,2428.14 L 667.152,2430.31 L 663.326,2431.07 L 365.838,2430.88 L 362.234,2429.38 L 353.07,2420.5 L 351.826,2418.98 L 350.333,2415.37 L 350.14,2366.24 L 349.335,2358.05 L 347.091,2350.64 L 343.444,2343.82 L 338.533,2337.84 L 332.554,2332.93 L 325.73,2329.29 L 318.328,2327.04 L 310.136,2326.23 L 259.941,2326.23 L 251.749,2327.04 L 244.346,2329.29 L 237.522,2332.93 L 231.541,2337.84 L 226.633,2343.82 L 222.986,2350.64 L 220.742,2358.05 L 219.934,2366.24 L 219.934,2436.12 L 220.742,2444.31 L 222.986,2451.72 L 226.633,2458.54 L 231.541,2464.52 L 237.522,2469.43 L 244.346,2473.07 L 251.75,2475.32 L 259.941,2476.13 L 309.075,2476.32 L 310.951,2476.89 L 314.196,2479.06 L 324.9,2490 L 330.145,2494.3 L 336.129,2497.5 L 342.625,2499.47 L 349.373,2500.13 L 1112.43,2500.13 L 1119.18,2499.47 L 1125.68,2497.5 L 1131.66,2494.3 L 1136.91,2490 L 1159.42,2467.24 L 1162.67,2465.08 L 1166.49,2464.32 L 1195.89,2464.13 L 1200.73,2463.65 L 1207.33,2462.34 L 1211.99,2460.92 L 1218.21,2458.35 L 1222.5,2456.05 L 1228.1,2452.31 L 1231.86,2449.22 L 1238.87,2441.96 L 1240.31,2440.94 L 1241.91,2440.18 L 1245.37,2439.57 L 1811.38,2439.57 L 1813.09,2439.71 L 1816.31,2440.86 L 1821.49,2444.92 L 1827.47,2448.12 L 1833.96,2450.09 L 1840.71,2450.76 L 2039.48,2450.78 L 2043.08,2452.27 L 2045.84,2455.03 L 2047.71,2459.03 L 2057.62,2473.86 L 2070.23,2486.48 L 2085.06,2496.39 L 2101.54,2503.21 L 2119.03,2506.69 L 2136.87,2506.69 L 2154.36,2503.21 L 2170.84,2496.39 L 2185.67,2486.48 L 2198.29,2473.86 L 2208.2,2459.03 L 2215.02,2442.55 L 2218.5,2425.06 L 2218.5,2407.22 L 2215.02,2389.73 L 2208.2,2373.25 L 2198.29,2358.42 L 2185.67,2345.81 L 2170.84,2335.9 L 2154.36,2329.07 L 2136.87,2325.59 L 2119.03,2325.59 L 2101.54,2329.07 L 2085.06,2335.9 L 2070.23,2345.81 L 2057.62,2358.42 L 2047.71,2373.25 L 2045.84,2377.25 L 2043.08,2380.01 L 2039.48,2381.5 L 1874.14,2381.69 L 1872.19,2381.5 L 1868.58,2380.01 L 1865.83,2377.25 L 1864.9,2375.52 L 1864.14,2371.69 L 1864.31,2169.78 L 1863.64,2163.03 L 1861.67,2156.54 L 1858.47,2150.55 L 1854.17,2145.31 L 1697.88,1989.02 L 1692.63,1984.71 L 1686.65,1981.52 L 1680.15,1979.54 L 1673.4,1978.88 L 1317.79,1979.05 L 1315.74,1978.83 L 1313.78,1978.21 L 1311.99,1977.19 L 1310.45,1975.83 L 1309.21,1974.19 L 1308.34,1972.32 L 1307.87,1970.32 L 1307.82,1968.26 L 1308.19,1966.24 L 1310.34,1960.16 L 1310.77,1955.8 L 1310.77,1854.43 L 1310.34,1850.08 L 1309.22,1846.36 L 1307.39,1842.95 L 1304.93,1839.95 L 1301.93,1837.49 L 1298.52,1835.66 L 1294.8,1834.54 L 1290.45,1834.11 L 1244.19,1834.11 L 1239.84,1834.54 L 1236.13,1835.66 L 1230.16,1838.66 L 1228.39,1839.06 L 1224.76,1838.85 L 1223.04,1838.27 L 1220.05,1836.21 L 1211.45,1827.61 L 1210.16,1826.02 L 1209.22,1824.2 L 1208.67,1822.22 L 1208.53,1820.18 L 1208.81,1818.15 L 1209.5,1816.22 L 1210.57,1814.47 L 1211.98,1812.98 L 1213.65,1811.8 L 1215.54,1810.99 L 1220,1810.34 L 1223.71,1809.22 L 1227.13,1807.39 L 1230.13,1804.93 L 1233.38,1801.21 L 1234.82,1800.19 L 1238.12,1798.97 L 1243.28,1798.82 L 1246.68,1799.1 L 1258.25,1797.96 L 1269.38,1794.59 L 1279.64,1789.1 L 1288.64,1781.72 L 1290.83,1779.12 L 1619.39,1450.57 L 1622.63,1448.4 L 1626.46,1447.64 L 2199.36,1447.64 L 2208.03,1446.78 L 2219.17,1443.41 L 2229.42,1437.92 L 2238.41,1430.54 L 2245.8,1421.55 L 2251.28,1411.29 L 2254.66,1400.16 L 2255.8,1388.58 L 2254.66,1377.01 L 2251.28,1365.87 L 2246.89,1357.29 L 2246.45,1353.62 L 2247.37,1350.04 L 2248.31,1348.44 L 2256.48,1340.44 L 2265.44,1327.73 L 2271.51,1314.07 L 2267.56,1308.58 L 2230.12,1308.58 L 2228.31,1311.72 L 2222.8,1317.84 L 2216.14,1322.68 L 2208.62,1326.03 L 2200.57,1327.74 L 2192.34,1327.74 L 2184.29,1326.03 L 2176.77,1322.68 L 2170.11,1317.84 L 2164.61,1311.72 L 2162.79,1308.58 L 2125.35,1308.58 L 2121.4,1314.07 L 2122.64,1317.35 L 2122.88,1319.33 L 2122.72,1321.3 L 2121.26,1324.98 L 2118.5,1327.8 L 2116.75,1328.75 L 2112.88,1329.53 L 1601.25,1329.53 L 1597.86,1329.24 L 1586.28,1330.38 L 1575.15,1333.76 L 1569.3,1336.88 L 1278.99,1627.2 L 1276.75,1629.03 L 1274.2,1630.4 L 1271.8,1631.12 L 1233.35,1669.33 L 1231.76,1670.22 L 1228.23,1671.08 L 1224.62,1670.61 L 1220,1669.18 L 1215.65,1668.75 L 1169.38,1668.75 L 1165.04,1669.18 L 1161.33,1670.31 L 1157.91,1672.13 L 1154.91,1674.6 L 1152.45,1677.59 L 1150.62,1681.01 L 1149.5,1684.72 L 1149.07,1689.07 L 1149.07,1696.04 L 1148.48,1699.41 L 1146.8,1702.39 L 1143.18,1706.79 L 1137.69,1717.06 L 1134.32,1728.19 L 1133.18,1739.76 L 1134.32,1751.34 L 1137.69,1762.47 L 1144.21,1774.32 L 1144.96,1776.22 L 1145.32,1778.24 L 1145.25,1780.28 L 1144.77,1782.28 L 1143.89,1784.13 L 1142.66,1785.76 L 1141.11,1787.11 L 1139.33,1788.11 L 1137.38,1788.73 L 1135.34,1788.94 L 980.994,1788.76 L 977.441,1787.31 L 974.692,1784.64 L 973.153,1781.12 L 972.787,1774.39 L 966.034,1767.64 L 932.677,1767.64 L 932.677,1779.13 L 861.811,1779.13 L 861.811,1716.14 L 877.242,1716.14 L 877.242,1682.78 L 870.523,1676.06 L 862.21,1675.91 L 853.968,1676.72 L 846.427,1679.01 L 839.477,1682.72 L 833.389,1687.72 L 828.387,1693.81 L 824.674,1700.76 L 822.388,1708.3 L 821.485,1719.54 L 820.19,1723.07 L 819.068,1724.59 L 816.077,1726.88 L 812.454,1727.89 L 810.565,1727.87 L 805.272,1726.45 L 798.517,1725.79 L 362.418,1725.95 L 360.605,1725.79 L 357.218,1724.49 L 354.514,1722.08 L 352.849,1718.85 L 351.027,1712.85 L 347.38,1706.03 L 342.471,1700.04 L 336.493,1695.14 L 329.668,1691.49 L 322.264,1689.24 L 314.075,1688.44 L 263.875,1688.44 L 256.426,1688.95 L 254.391,1688.51 L 252.492,1687.66 L 250.812,1686.43 L 249.422,1684.87 L 248.385,1683.07 L 247.743,1681.09 L 247.526,1679.02 L 247.526,1439.07 L 247.719,1437.12 L 249.213,1433.52 L 251.973,1430.76 L 255.579,1429.26 L 257.53,1429.07 L 259.482,1429.27 L 264.202,1431.02 L 292.345,1436.61 L 321.04,1436.61 L 349.182,1431.02 L 375.692,1420.03 L 399.551,1404.09 L 419.839,1383.8 L 432.338,1365.45 L 433.853,1364.2 L 437.458,1362.71 L 441.36,1362.71 L 444.964,1364.2 L 447.723,1366.96 L 449.216,1370.57 L 449.241,1428.74 L 449.908,1435.49 L 451.877,1441.99 L 455.074,1447.97 L 459.376,1453.21 L 557.801,1551.64 L 563.05,1555.95 L 569.035,1559.14 L 575.53,1561.11 L 582.284,1561.78 L 666.045,1561.78 L 669.433,1563.07 L 672.136,1565.49 L 673.116,1567.02 L 674.244,1570.17 L 676.071,1573.59 L 678.533,1576.59 L 681.527,1579.04 L 684.949,1580.87 L 688.658,1582 L 693.008,1582.43 L 755.019,1582.43 L 759.371,1582 L 763.081,1580.87 L 766.5,1579.04 L 769.498,1576.58 L 771.957,1573.59 L 773.785,1570.17 L 774.912,1566.46 L 775.34,1562.11 L 775.34,1492.22 L 774.912,1487.87 L 773.785,1484.16 L 771.957,1480.74 L 769.498,1477.75 L 766.499,1475.28 L 763.081,1473.46 L 759.372,1472.33 L 755.019,1471.9 L 693.008,1471.9 L 688.656,1472.33 L 684.949,1473.46 L 681.528,1475.28 L 678.533,1477.74 L 676.071,1480.74 L 674.244,1484.16 L 673.117,1487.31 L 672.138,1488.84 L 669.434,1491.26 L 666.046,1492.55 L 598.744,1492.52 L 596.868,1491.95 L 593.623,1489.79 L 521.235,1417.4 L 519.068,1414.15 L 518.306,1410.33 L 518.472,1236.5 L 517.805,1229.74 L 515.836,1223.25 L 512.64,1217.26 L 508.33,1212.02 L 346.037,1049.96 L 344.794,1048.44 L 343.301,1044.84 L 343.278,897.876 L 343.78,896.106 L 345.703,892.988 L 348.62,890.771 L 356.175,886.751 L 362.155,881.843 L 367.066,875.861 L 370.713,869.038 L 372.957,861.636 L 373.762,853.446 L 373.762,783.559 L 372.957,775.369 L 370.713,767.966 L 367.066,761.145 L 362.156,755.163 L 356.176,750.256 L 349.352,746.609 L 341.951,744.363 L 333.758,743.555 L 319.144,743.555 L 315.318,742.794 L 313.589,741.87 L 310.83,739.111 L 309.337,735.506 L 309.337,731.605 L 310.83,728 L 312.073,726.484 L 488.65,550.144 L 495.444,541.863 L 505.784,536.357 L 511.763,531.448 L 516.672,525.469 L 520.319,518.643 L 523.267,509.638 L 524.414,507.962 L 525.875,506.551 L 527.592,505.466 L 529.492,504.749 L 531.498,504.431 L 533.527,504.525 L 535.495,505.027 L 537.321,505.916 L 538.93,507.156 L 540.255,508.695 L 541.241,510.47 L 541.849,512.408 L 542.056,522.889 L 561.951,502.994 L 561.951,351.629 L 562.234,348.749 L 563.075,345.98 L 564.439,343.427 L 566.275,341.19 L 582.284,325.181 L 582.378,107.913 L 583.782,102.309 L 585.601,98.9061 L 588.049,95.9231 L 592.689,92.4819 L 598.128,90.5357 L 601.969,90.1575 L 641.339,90.1575 L 647.053,91.0051 L 652.275,93.475 L 656.555,97.3545 L 659.525,102.309 L 660.929,107.913 L 661.024,503.543 L 660.645,507.384 L 659.525,511.076 L 657.706,514.48 L 655.258,517.463 L 652.275,519.911 L 648.872,521.73 L 645.179,522.85 L 641.653,523.213 L 641.653,556.585 L 648.354,563.287 L 660.601,563.462 L 668.863,562.648 L 676.403,560.362 L 683.353,556.647 L 689.441,551.65 L 694.439,545.557 L 698.157,538.607 L 700.443,531.07 L 701.262,522.743 L 701.254,514.425 L 701.459,512.404 L 702.067,510.466 L 703.055,508.692 L 704.38,507.153 L 705.989,505.914 L 707.815,505.025 L 709.783,504.524 L 711.812,504.431 L 713.818,504.75 L 715.718,505.467 L 717.434,506.553 L 718.895,507.964 L 720.041,509.64 L 720.824,511.514 L 722.986,518.645 L 726.633,525.469 L 731.541,531.448 L 737.367,536.432 L 739.145,539.465 L 739.762,542.925 L 739.762,735.899 L 739.554,737.931 L 738.937,739.878 L 737.938,741.659 L 736.597,743.199 L 734.972,744.436 L 733.129,745.316 L 731.146,745.803 L 729.105,745.878 L 727.092,745.536 L 725.19,744.793 L 723.478,743.678 L 716.485,735.477 L 710.507,730.57 L 703.686,726.924 L 696.281,724.679 L 688.093,723.871 L 637.891,723.871 L 629.699,724.679 L 622.297,726.923 L 615.475,730.57 L 609.493,735.48 L 604.585,741.458 L 600.94,748.283 L 598.692,755.686 L 597.886,763.875 L 597.886,833.762 L 598.692,841.951 L 600.939,849.353 L 604.585,856.176 L 609.493,862.155 L 615.475,867.065 L 622.298,870.712 L 629.7,872.958 L 637.891,873.765 L 688.09,873.765 L 696.28,872.958 L 703.685,870.712 L 710.507,867.065 L 716.487,862.157 L 722.261,855.11 L 723.666,853.788 L 727.097,852.065 L 730.924,851.763 L 732.809,852.166 L 736.178,854.008 L 738.604,856.983 L 742.381,864.051 L 747.288,870.03 L 753.271,874.939 L 757.635,877.456 L 759.994,880.148 L 761.255,883.498 L 761.416,885.577 L 760.775,889.1 L 759.993,890.719 L 757.632,893.411 L 753.27,895.925 L 747.288,900.833 L 742.381,906.814 L 738.734,913.637 L 736.49,921.04 L 735.682,929.232 L 735.682,999.113 L 736.49,1007.3 L 738.734,1014.71 L 742.381,1021.53 L 747.287,1027.51 L 756.969,1035.12 L 758.808,1038.19 L 759.448,1041.72 L 759.448,1054.3 L 759.282,1056.11 L 757.987,1059.5 L 755.567,1062.2 L 748.458,1065.84 L 745.46,1068.29 L 743.002,1071.29 L 741.174,1074.71 L 740.048,1078.42 L 739.618,1082.78 L 739.618,1113.45 L 738.857,1117.28 L 736.69,1120.52 L 733.445,1122.69 L 729.618,1123.45 L 725.792,1122.69 L 722.547,1120.52 L 538.951,936.927 L 536.784,933.682 L 536.022,929.855 L 536.022,880.023 L 536.673,876.476 L 537.466,874.848 L 539.858,872.15 L 549.09,867.065 L 555.071,862.156 L 559.98,856.176 L 563.625,849.355 L 565.869,841.951 L 566.678,833.759 L 566.678,763.878 L 565.869,755.686 L 563.624,748.282 L 559.979,741.457 L 555.071,735.479 L 549.09,730.57 L 542.268,726.924 L 534.863,724.679 L 526.67,723.871 L 476.472,723.871 L 468.284,724.679 L 460.879,726.924 L 454.058,730.57 L 448.077,735.479 L 443.168,741.458 L 439.52,748.283 L 437.276,755.685 L 436.47,763.878 L 436.47,833.759 L 437.276,841.952 L 439.52,849.354 L 443.167,856.176 L 448.077,862.156 L 454.058,867.065 L 463.289,872.15 L 465.681,874.848 L 466.474,876.476 L 467.124,880.023 L 466.959,948.265 L 467.624,955.02 L 469.593,961.516 L 472.789,967.498 L 477.097,972.743 L 760.656,1256.3 L 765.901,1260.61 L 771.885,1263.81 L 778.377,1265.78 L 785.135,1266.44 L 898.454,1266.28 L 900.405,1266.47 L 904.01,1267.96 L 1058.77,1422.68 L 1063.99,1427.17 L 1065.77,1430.21 L 1066.39,1433.67 L 1066.39,1465.02 L 1065.63,1468.84 L 1063.46,1472.09 L 1060.22,1474.25 L 1056.39,1475.02 L 1019.04,1475.02 L 1015.21,1474.25 L 1011.97,1472.09 L 885.327,1345.21 L 880.08,1340.9 L 874.097,1337.7 L 867.602,1335.73 L 860.837,1335.07 L 857.596,1335.19 L 853.869,1334.05 L 850.86,1331.57 L 849.774,1329.94 L 848.587,1326.68 L 846.762,1323.26 L 844.302,1320.27 L 841.305,1317.81 L 837.883,1315.98 L 834.17,1314.85 L 829.823,1314.42 L 767.813,1314.42 L 763.463,1314.85 L 759.75,1315.98 L 756.334,1317.8 L 753.335,1320.27 L 750.875,1323.26 L 749.047,1326.68 L 747.919,1330.4 L 747.49,1334.74 L 747.49,1404.62 L 747.919,1408.97 L 749.048,1412.69 L 750.876,1416.11 L 753.335,1419.1 L 756.334,1421.57 L 759.751,1423.39 L 763.461,1424.52 L 767.814,1424.95 L 829.825,1424.95 L 834.171,1424.52 L 837.883,1423.39 L 841.304,1421.56 L 844.299,1419.11 L 846.554,1416.7 L 848.306,1415.57 L 850.254,1414.83 L 852.313,1414.51 L 854.393,1414.63 L 856.404,1415.17 L 858.259,1416.12 L 877.108,1434.66 L 878.351,1436.18 L 879.844,1439.78 L 880.036,1441.73 L 879.275,1445.56 L 877.108,1448.8 L 875.592,1450.05 L 873.62,1451.04 L 873.428,1456.18 L 871.935,1459.79 L 870.692,1461.3 L 869.176,1462.55 L 865.571,1464.04 L 863.62,1464.23 L 859.794,1463.47 L 856.549,1461.3 L 846.867,1451.62 L 842.482,1451.5 L 834.283,1452.31 L 826.175,1454.9 L 863.005,1491.73M 1594.92,1832.38 L 1610.87,1856.24 L 1631.16,1876.53 L 1655.01,1892.48 L 1681.53,1903.46 L 1709.67,1909.05 L 1738.36,1909.05 L 1766.51,1903.46 L 1793.02,1892.48 L 1816.87,1876.53 L 1837.16,1856.24 L 1853.1,1832.38 L 1864.09,1805.87 L 1869.68,1777.73 L 1869.68,1749.04 L 1864.09,1720.89 L 1853.1,1694.38 L 1837.16,1670.53 L 1816.87,1650.24 L 1793.02,1634.29 L 1766.51,1623.31 L 1738.36,1617.72 L 1709.67,1617.72 L 1681.53,1623.31 L 1655.02,1634.29 L 1631.16,1650.24 L 1610.87,1670.53 L 1594.92,1694.38 L 1583.94,1720.89 L 1578.34,1749.04 L 1578.34,1777.73 L 1583.94,1805.87 L 1594.92,1832.38M 2523.23,1777.73 L 2528.83,1805.87 L 2539.81,1832.39 L 2555.75,1856.24 L 2576.04,1876.53 L 2599.9,1892.48 L 2626.41,1903.46 L 2654.55,1909.05 L 2683.24,1909.05 L 2711.39,1903.46 L 2737.9,1892.48 L 2761.76,1876.53 L 2782.04,1856.24 L 2797.99,1832.38 L 2808.97,1805.87 L 2814.57,1777.73 L 2814.57,1749.04 L 2808.97,1720.89 L 2797.99,1694.38 L 2782.04,1670.53 L 2761.76,1650.24 L 2737.9,1634.29 L 2711.39,1623.31 L 2683.24,1617.72 L 2654.55,1617.72 L 2626.41,1623.31 L 2599.9,1634.29 L 2576.04,1650.24 L 2555.75,1670.53 L 2539.81,1694.38 L 2528.83,1720.89 L 2523.23,1749.04 L 2523.23,1777.73M 2523.23,832.85 L 2528.83,860.992 L 2539.81,887.503 L 2555.75,911.361 L 2576.04,931.652 L 2599.9,947.594 L 2626.41,958.574 L 2654.55,964.172 L 2683.24,964.171 L 2711.39,958.574 L 2737.9,947.594 L 2761.76,931.652 L 2782.04,911.361 L 2797.99,887.503 L 2808.97,860.992 L 2814.57,832.85 L 2814.57,804.156 L 2808.97,776.013 L 2797.99,749.503 L 2782.04,725.644 L 2761.76,705.355 L 2737.9,689.413 L 2711.39,678.431 L 2683.24,672.833 L 2654.55,672.833 L 2626.41,678.431 L 2599.9,689.413 L 2576.04,705.355 L 2555.75,725.644 L 2539.81,749.502 L 2528.83,776.013 L 2523.23,804.157 L 2523.23,832.85M 805.296,1475.78 L 802.702,1483.89 L 801.892,1492.13 L 802.047,1500.44 L 808.767,1507.16 L 836.678,1507.16 L 805.296,1475.78M 917.242,1716.14 L 932.677,1716.14 L 932.677,1727.64 L 966.034,1727.64 L 972.787,1720.88 L 972.905,1716.5 L 972.097,1708.3 L 969.811,1700.76 L 966.096,1693.81 L 961.097,1687.72 L 955.006,1682.72 L 948.057,1679.01 L 940.518,1676.72 L 932.279,1675.91 L 923.962,1676.06 L 917.242,1682.78 L 917.242,1716.14M 842.126,1547.16 L 808.767,1547.16 L 802.047,1553.88 L 801.892,1562.2 L 802.702,1570.44 L 804.991,1577.98 L 808.706,1584.93 L 813.704,1591.02 L 819.795,1596.02 L 826.744,1599.73 L 834.283,1602.02 L 842.48,1602.83 L 846.867,1602.71 L 853.62,1595.96 L 853.62,1562.6 L 842.126,1562.6 L 842.126,1547.16M 905.118,1547.16 L 905.118,1562.6 L 893.62,1562.6 L 893.62,1592.25 L 903.358,1601.99 L 913.045,1601.99 L 920.499,1599.73 L 927.448,1596.02 L 933.539,1591.02 L 938.537,1584.93 L 942.251,1577.98 L 944.539,1570.44 L 945.349,1562.2 L 945.194,1553.88 L 938.474,1547.16 L 905.118,1547.16M 601.65,523.213 L 598.128,522.85 L 594.435,521.73 L 591.032,519.911 L 588.518,517.888 L 587.154,519.549 L 554.517,552.186 L 559.954,556.647 L 566.901,560.362 L 574.44,562.648 L 582.7,563.462 L 594.951,563.287 L 601.65,556.586 L 601.65,523.213 z " style="fill-opacity:1.000000;fill:rgb(49,88,163);stroke:rgb(0,0,0);stroke-width:2"/></g>
<g fill-rule="evenodd"><path d="M 830.315,1384.45 L 830.315,1405.12 L 767.323,1405.12 L 767.323,1334.25 L 830.315,1334.25 L 830.315,1354.92 L 860.848,1354.92 L 863.729,1355.2 L 866.498,1356.04 L 869.051,1357.41 L 871.288,1359.24 L 1006.74,1494.7 L 1195.55,1494.7 L 1204.36,1485.88 L 1204.36,1108.83 L 1204.64,1105.95 L 1205.48,1103.18 L 1206.85,1100.62 L 1208.68,1098.39 L 1256.91,1050.16 L 1255.89,1046.75 L 1255.51,1042.91 L 1255.61,989.803 L 1256.36,986.018 L 1257.84,982.453 L 1259.98,979.244 L 1262.71,976.516 L 1267.66,973.546 L 1273.27,972.142 L 1346.06,972.047 L 1349.9,972.426 L 1353.6,973.546 L 1357,975.365 L 1361.28,979.244 L 1364.25,984.199 L 1365.65,989.803 L 1365.75,1042.91 L 1365.37,1046.75 L 1364.25,1050.45 L 1362.43,1053.85 L 1359.98,1056.83 L 1357,1059.28 L 1353.6,1061.1 L 1347.99,1062.5 L 1286.23,1062.6 L 1233.89,1114.94 L 1233.89,1492 L 1233.6,1494.88 L 1232.76,1497.65 L 1231.4,1500.2 L 1229.56,1502.44 L 1212.1,1519.9 L 1209.86,1521.74 L 1207.31,1523.1 L 1204.54,1523.94 L 1201.66,1524.23 L 1000.63,1524.23 L 997.748,1523.94 L 994.979,1523.1 L 992.426,1521.74 L 990.189,1519.9 L 854.733,1384.45 L 830.315,1384.45 z " style="fill-opacity:1.000000;fill:rgb(90,37,93);stroke:rgb(0,0,0);stroke-width:2"/></g>
<g fill-rule="evenodd"><path d="M 779.134,1082.28 L 779.133,1019.29 L 771.356,1018.91 L 767.664,1017.79 L 764.26,1015.97 L 761.277,1013.53 L 758.829,1010.54 L 757.01,1007.14 L 755.89,1003.45 L 755.512,999.606 L 755.512,928.74 L 755.89,924.9 L 757.01,921.207 L 758.829,917.804 L 762.709,913.523 L 767.664,910.554 L 771.356,909.433 L 775.197,909.055 L 781.101,909.055 L 781.101,861.811 L 773.267,861.716 L 767.664,860.313 L 762.709,857.343 L 759.98,854.614 L 757.836,851.406 L 756.359,847.84 L 755.607,844.056 L 755.512,818.503 L 708.268,818.503 L 708.173,836.181 L 707.42,839.966 L 705.943,843.531 L 703.799,846.74 L 699.519,850.62 L 694.297,853.089 L 690.512,853.842 L 637.401,853.937 L 631.687,853.089 L 626.465,850.62 L 623.482,848.171 L 621.034,845.188 L 618.564,839.966 L 617.717,834.252 L 617.811,761.456 L 618.564,757.671 L 621.034,752.449 L 624.913,748.169 L 628.122,746.025 L 631.687,744.548 L 637.401,743.701 L 688.583,743.701 L 692.423,744.079 L 696.116,745.199 L 699.519,747.018 L 702.502,749.466 L 704.95,752.449 L 706.769,755.853 L 708.173,761.456 L 708.268,779.132 L 755.512,779.132 L 755.512,771.26 L 755.89,767.419 L 757.01,763.727 L 759.447,759.49 L 759.447,523.228 L 755.608,522.85 L 751.916,521.73 L 748.512,519.911 L 745.529,517.463 L 743.081,514.48 L 741.262,511.076 L 740.142,507.384 L 739.764,503.543 L 739.764,159.178 L 720.275,139.689 L 717.827,136.706 L 716.008,133.303 L 714.898,129.644 L 659.665,74.4086 L 266.546,74.4086 L 239.763,101.191 L 239.764,601.177 L 239.385,605.018 L 238.265,608.711 L 236.446,612.114 L 233.998,615.097 L 68.5035,780.579 L 68.5035,1676.49 L 100.359,1708.35 L 153.15,1708.27 L 158.864,1709.12 L 164.086,1711.59 L 167.069,1714.03 L 169.517,1717.02 L 171.987,1722.24 L 172.835,1727.95 L 172.835,1798.82 L 171.987,1804.53 L 170.51,1808.1 L 168.366,1811.31 L 165.638,1814.04 L 162.429,1816.18 L 156.99,1818.13 L 153.15,1818.5 L 147.243,1818.5 L 147.243,1905.12 L 153.15,1905.12 L 156.99,1905.5 L 162.429,1907.44 L 165.638,1909.59 L 168.366,1912.32 L 170.51,1915.52 L 171.987,1919.09 L 172.835,1924.8 L 172.835,1995.67 L 172.456,1999.51 L 171.336,2003.2 L 168.366,2008.16 L 164.086,2012.04 L 158.864,2014.51 L 153.15,2015.35 L 125.59,2015.35 L 125.589,2125.59 L 145.276,2125.59 L 145.276,2204.33 L 125.589,2204.33 L 125.59,2226.71 L 137.54,2238.66 L 139.988,2241.65 L 141.807,2245.05 L 142.927,2248.74 L 143.306,2252.58 L 143.306,2346.06 L 149.213,2346.06 L 153.053,2346.44 L 156.746,2347.56 L 160.149,2349.38 L 163.132,2351.83 L 165.58,2354.81 L 167.399,2358.21 L 168.519,2361.91 L 168.898,2365.75 L 168.803,2438.54 L 167.399,2444.15 L 164.429,2449.1 L 160.149,2452.98 L 156.746,2454.8 L 153.053,2455.92 L 149.213,2456.3 L 98.0314,2456.3 L 92.3172,2455.45 L 88.752,2453.97 L 85.5434,2451.83 L 81.6639,2447.55 L 79.1941,2442.33 L 78.4413,2438.54 L 78.4413,2363.82 L 79.1941,2360.03 L 81.6639,2354.81 L 84.112,2351.83 L 87.095,2349.38 L 90.4983,2347.56 L 94.1911,2346.44 L 98.0314,2346.06 L 103.935,2346.06 L 103.935,2260.74 L 91.985,2248.78 L 89.537,2245.8 L 87.7179,2242.4 L 86.5977,2238.71 L 86.2194,2234.87 L 86.2195,2204.33 L 66.5354,2204.33 L 66.5354,2125.59 L 86.2195,2125.59 L 86.2195,2007.44 L 84.6079,2004.95 L 83.1311,2001.38 L 82.2835,1995.67 L 82.3783,1922.87 L 83.1311,1919.09 L 85.6009,1913.87 L 88.0491,1910.88 L 91.032,1908.44 L 94.4354,1906.62 L 98.1281,1905.5 L 101.968,1905.12 L 107.873,1905.12 L 107.873,1818.5 L 100.039,1818.41 L 94.4354,1817.01 L 89.4804,1814.04 L 86.7517,1811.31 L 84.6079,1808.1 L 83.1311,1804.53 L 82.2835,1798.82 L 82.2835,1745.95 L 34.899,1698.56 L 32.451,1695.58 L 30.6319,1692.18 L 29.5117,1688.49 L 29.1334,1684.65 L 29.1334,766.611 L 29.5117,762.771 L 30.6319,759.078 L 32.451,755.675 L 34.899,752.692 L 37.8821,750.244 L 41.2853,748.425 L 46.2342,747.181 L 200.393,593.024 L 200.393,93.0375 L 200.772,89.1971 L 201.892,85.5044 L 203.711,82.1011 L 206.159,79.1181 L 244.473,40.8041 L 247.456,38.356 L 250.859,36.5369 L 254.552,35.4167 L 258.392,35.0385 L 667.818,35.0385 L 671.659,35.4167 L 675.352,36.5369 L 678.755,38.3561 L 681.738,40.8043 L 741.898,100.966 L 744.232,97.3545 L 748.512,93.475 L 751.916,91.6559 L 757.519,90.2523 L 800.748,90.2523 L 806.352,91.6559 L 809.755,93.475 L 812.738,95.9231 L 815.186,98.9061 L 817.006,102.309 L 818.409,107.913 L 818.504,182.24 L 837.111,200.847 L 840.966,199.814 L 849.185,199.383 L 857.314,200.671 L 1024.21,33.7801 L 1027.19,31.332 L 1030.59,29.5129 L 1034.28,28.3927 L 1038.12,28.0145 L 2626.44,28.0145 L 2630.28,28.3927 L 2633.97,29.5129 L 2637.38,31.332 L 2640.36,33.7801 L 2693.83,87.2552 L 2706.05,81.8149 L 2720.55,78.7347 L 2735.36,78.7347 L 2749.85,81.8149 L 2763.39,87.8407 L 2775.37,96.5488 L 2785.28,107.559 L 2792.69,120.389 L 2797.27,134.479 L 2798.82,149.213 L 2797.27,163.946 L 2792.69,178.036 L 2789.74,183.157 L 3029.27,422.694 L 3031.72,425.677 L 3033.54,429.08 L 3034.66,432.773 L 3035.04,436.613 L 3035.04,1928.74 L 3034.66,1932.58 L 3033.54,1936.27 L 3031.72,1939.68 L 3029.27,1942.66 L 2789.74,2182.2 L 2792.69,2187.32 L 2797.27,2201.41 L 2798.82,2216.14 L 2797.27,2230.88 L 2792.69,2244.97 L 2785.28,2257.8 L 2775.37,2268.81 L 2763.39,2277.51 L 2749.85,2283.54 L 2735.36,2286.62 L 2720.55,2286.62 L 2706.05,2283.54 L 2692.52,2277.51 L 2680.53,2268.81 L 2670.62,2257.8 L 2663.21,2244.97 L 2658.64,2230.88 L 2657.09,2216.14 L 2658.64,2201.41 L 2663.21,2187.32 L 2670.62,2174.49 L 2680.53,2163.48 L 2692.52,2154.77 L 2706.05,2148.74 L 2720.55,2145.66 L 2735.36,2145.66 L 2749.85,2148.74 L 2762.07,2154.18 L 2995.67,1920.59 L 2995.67,444.767 L 2762.07,211.17 L 2749.85,216.61 L 2735.36,219.691 L 2720.55,219.691 L 2706.05,216.61 L 2692.52,210.584 L 2680.53,201.876 L 2670.62,190.867 L 2663.21,178.036 L 2658.64,163.946 L 2657.09,149.213 L 2658.64,134.479 L 2663.21,120.389 L 2666.17,115.268 L 2618.29,67.3845 L 1046.28,67.3845 L 885.153,228.51 L 886.441,236.639 L 886.01,244.858 L 883.88,252.808 L 880.143,260.142 L 874.963,266.538 L 818.504,322.998 L 818.409,505.473 L 817.656,509.258 L 816.18,512.823 L 814.036,516.031 L 811.307,518.76 L 808.098,520.904 L 804.533,522.381 L 798.817,523.228 L 798.818,751.575 L 826.378,751.575 L 830.218,751.953 L 833.911,753.073 L 838.866,756.043 L 842.746,760.323 L 845.215,765.546 L 845.968,769.33 L 846.063,842.126 L 845.215,847.84 L 843.739,851.406 L 841.595,854.614 L 838.866,857.343 L 835.657,859.487 L 830.218,861.433 L 826.378,861.811 L 820.472,861.811 L 820.472,909.055 L 826.378,909.055 L 830.218,909.433 L 833.911,910.554 L 837.314,912.373 L 840.297,914.821 L 842.746,917.804 L 845.215,923.026 L 845.968,926.811 L 846.063,999.606 L 845.215,1005.32 L 843.739,1008.89 L 841.595,1012.09 L 838.866,1014.82 L 835.657,1016.97 L 832.092,1018.44 L 828.307,1019.2 L 818.503,1019.29 L 818.504,1082.28 L 838.189,1082.28 L 838.189,1161.02 L 759.449,1161.02 L 759.449,1082.28 L 779.134,1082.28 z " style="fill-opacity:1.000000;fill:rgb(5,23,88);stroke:rgb(0,0,0);stroke-width:2"/></g>
<g fill-rule="evenodd"><path d="M 445.732,523.228 L 442.559,523.134 L 438.774,522.381 L 435.209,520.904 L 432,518.76 L 429.271,516.031 L 427.128,512.823 L 425.651,509.258 L 424.898,505.473 L 424.898,107.913 L 426.302,102.309 L 429.271,97.3545 L 433.552,93.475 L 438.774,91.0051 L 444.488,90.1575 L 485.788,90.2523 L 491.391,91.6559 L 494.795,93.475 L 497.778,95.9231 L 500.226,98.9061 L 502.045,102.309 L 503.165,106.002 L 503.543,109.843 L 503.543,503.543 L 502.696,509.258 L 501.219,512.823 L 499.075,516.031 L 496.346,518.76 L 493.138,520.904 L 487.699,522.85 L 483.858,523.228 L 478.936,523.228 L 478.653,528.548 L 477.812,531.317 L 476.448,533.87 L 474.612,536.107 L 242.716,768.005 L 242.716,1129.61 L 242.433,1132.49 L 241.592,1135.26 L 240.228,1137.81 L 238.392,1140.05 L 161.518,1216.92 L 161.518,1356.05 L 223.516,1418.05 L 225.352,1420.29 L 226.716,1422.84 L 227.557,1425.61 L 227.84,1428.49 L 227.84,1813.55 L 256.524,1842.24 L 378.652,1842.24 L 381.533,1842.52 L 384.302,1843.36 L 386.855,1844.72 L 389.092,1846.56 L 606.528,2064 L 609.939,2062.98 L 613.779,2062.6 L 664.961,2062.6 L 670.675,2063.45 L 674.24,2064.92 L 677.449,2067.07 L 680.177,2069.8 L 682.321,2073 L 683.798,2076.57 L 684.551,2080.35 L 684.551,2155.08 L 683.147,2160.68 L 681.328,2164.09 L 678.88,2167.07 L 675.897,2169.52 L 672.494,2171.34 L 666.89,2172.74 L 611.85,2172.74 L 606.246,2171.34 L 602.843,2169.52 L 599.86,2167.07 L 597.412,2164.09 L 595.593,2160.68 L 594.189,2155.08 L 594.094,2093.32 L 372.537,1871.76 L 250.408,1871.76 L 247.528,1871.48 L 244.759,1870.64 L 242.206,1869.28 L 239.969,1867.44 L 202.637,1830.11 L 200.801,1827.87 L 199.437,1825.32 L 198.596,1822.55 L 198.313,1819.67 L 198.313,1434.6 L 136.315,1372.6 L 134.479,1370.37 L 133.114,1367.81 L 132.274,1365.04 L 131.991,1362.16 L 131.991,1210.8 L 132.274,1207.92 L 133.115,1205.15 L 134.479,1202.6 L 136.315,1200.36 L 213.189,1123.49 L 213.189,761.889 L 213.472,759.009 L 214.313,756.24 L 215.677,753.687 L 217.513,751.45 L 445.732,523.228 z " style="fill-opacity:1.000000;fill:rgb(233,94,212);stroke:rgb(0,0,0);stroke-width:2"/></g>
<g fill-rule="evenodd"><path d="M 162.006,763.386 L 174.764,763.481 L 180.368,764.884 L 183.771,766.703 L 188.051,770.583 L 190.195,773.791 L 191.672,777.357 L 192.52,783.071 L 192.52,853.937 L 192.141,857.777 L 191.021,861.47 L 188.051,866.425 L 183.771,870.305 L 178.549,872.774 L 174.764,873.527 L 121.653,873.622 L 117.813,873.244 L 114.12,872.124 L 109.165,869.154 L 105.286,864.873 L 102.816,859.651 L 102.063,855.867 L 101.969,783.071 L 102.816,777.357 L 105.286,772.134 L 107.734,769.151 L 110.717,766.703 L 115.939,764.233 L 119.724,763.481 L 132.479,763.386 L 132.479,754.431 L 132.762,751.551 L 133.603,748.782 L 134.967,746.229 L 136.803,743.992 L 291.929,588.868 L 291.929,523.228 L 287.008,523.228 L 283.167,522.85 L 279.475,521.73 L 276.071,519.911 L 273.088,517.463 L 270.64,514.48 L 268.821,511.076 L 267.418,505.473 L 267.418,107.913 L 268.821,102.309 L 271.791,97.3545 L 276.071,93.475 L 281.294,91.0051 L 287.008,90.1575 L 326.378,90.1575 L 332.092,91.0051 L 337.314,93.475 L 341.595,97.3545 L 344.565,102.309 L 345.685,106.002 L 346.063,109.843 L 346.063,503.543 L 345.215,509.258 L 343.739,512.823 L 341.595,516.031 L 338.866,518.76 L 335.657,520.904 L 330.218,522.85 L 326.378,523.228 L 321.456,523.228 L 321.456,594.983 L 321.173,597.864 L 320.332,600.633 L 318.968,603.186 L 317.132,605.423 L 162.006,760.547 L 162.006,763.386 z " style="fill-opacity:1.000000;fill:rgb(171,178,205);stroke:rgb(0,0,0);stroke-width:2"/></g>
<g fill-rule="evenodd"><path d="M 2235.61,1390.64 L 2235.61,1392.7 L 2234.97,1396.77 L 2233.9,1400.75 L 2232.42,1404.6 L 2230.55,1408.27 L 2228.31,1411.72 L 2225.71,1414.93 L 2222.8,1417.84 L 2219.6,1420.43 L 2216.14,1422.68 L 2212.47,1424.55 L 2208.62,1426.03 L 2204.64,1427.09 L 2200.57,1427.74 L 2196.46,1427.95 L 1614.16,1427.95 L 1274.52,1767.6 L 1268.55,1772.5 L 1261.74,1776.14 L 1254.36,1778.38 L 1246.68,1779.13 L 1216.14,1779.13 L 1216.14,1790.94 L 1168.9,1790.94 L 1168.9,1771.18 L 1163.26,1766.11 L 1158.42,1759.45 L 1155.08,1751.93 L 1153.36,1743.88 L 1153.36,1735.65 L 1155.08,1727.6 L 1158.42,1720.08 L 1163.26,1713.42 L 1168.9,1708.34 L 1168.9,1688.58 L 1216.14,1688.58 L 1216.14,1700.39 L 1230.37,1700.39 L 1570.02,1360.74 L 1575.98,1355.85 L 1582.79,1352.21 L 1590.18,1349.97 L 1597.86,1349.21 L 2196.46,1349.21 L 2200.57,1349.43 L 2204.64,1350.07 L 2208.62,1351.14 L 2212.47,1352.62 L 2216.14,1354.49 L 2219.6,1356.73 L 2222.8,1359.33 L 2225.71,1362.24 L 2228.31,1365.44 L 2230.55,1368.9 L 2232.42,1372.57 L 2233.9,1376.42 L 2234.97,1380.4 L 2235.61,1384.47 L 2235.83,1388.58 L 2235.61,1390.64 z " style="fill-opacity:1.000000;fill:rgb(198,155,180);stroke:rgb(0,0,0);stroke-width:2"/></g>
</svg>
