<?xml version="1.0" standalone="no"?>
<!DOCTYPE svg PUBLIC "-//W3C//DTD SVG 1.1//EN"
"http://www.w3.org/Graphics/SVG/1.1/DTD/svg11.dtd">
<svg width="149.443" height="122.986" viewBox="0 0 3113.39 2562.2" version="1.1"
xmlns="http://www.w3.org/2000/svg"
xmlns:xlink="http://www.w3.org/1999/xlink">
<polyline points="6.69047,2472.05 6.69047,90.1555 6.71447,89.6915 8.22647,74.3315 8.40647,73.4235 12.8885,58.6515 13.2425,57.7955 20.5185,44.1835 21.0325,43.4135 30.8245,31.4815 31.4805,30.8275 43.4125,21.0335 44.1825,20.5175 57.7965,13.2415 58.6525,12.8875 73.4225,8.4075 74.3305,8.2275 89.6925,6.7135 90.1565,6.6895 3023.23,6.6895 3023.69,6.7135 3039.05,8.2275 3039.96,8.4075 3054.73,12.8875 3055.59,13.2415 3069.2,20.5175 3069.97,21.0335 3081.9,30.8275 3082.56,31.4815 3092.35,43.4135 3092.86,44.1835 3100.14,57.7955 3100.49,58.6515 3104.97,73.4235 3105.15,74.3315 3106.67,89.6915 3106.69,90.1555 3106.69,2472.05 3106.67,2472.51 3105.15,2487.87 3104.97,2488.78 3100.49,2503.55 3100.14,2504.41 3092.86,2518.02 3092.35,2518.79 3082.56,2530.72 3081.9,2531.38 3069.97,2541.17 3069.2,2541.68 3055.59,2548.96 3054.73,2549.31 3039.96,2553.79 3039.05,2553.97 3023.69,2555.49 3023.23,2555.51 90.1565,2555.51 89.6925,2555.49 74.3305,2553.97 73.4225,2553.79 58.6525,2549.31 57.7965,2548.96 44.1825,2541.68 43.4125,2541.17 31.4805,2531.38 30.8245,2530.72 21.0325,2518.79 20.5185,2518.02 13.2425,2504.41 12.8885,2503.55 8.40647,2488.78 8.22647,2487.87 6.71447,2472.51 6.69047,2472.05" style="stroke:rgb(103,198,105);stroke-width:9.448819;fill:none;stroke-opacity:0.5;stroke-linecap:round;stroke-linejoin:round;;fill:none"/>
<polyline points="6.69047,2472.05 6.69047,90.1555 6.71447,89.6915 8.22647,74.3315 8.40647,73.4235 12.8885,58.6515 13.2425,57.7955 20.5185,44.1835 21.0325,43.4135 30.8245,31.4815 31.4805,30.8275 43.4125,21.0335 44.1825,20.5175 57.7965,13.2415 58.6525,12.8875 73.4225,8.4075 74.3305,8.2275 89.6925,6.7135 90.1565,6.6895 3023.23,6.6895 3023.69,6.7135 3039.05,8.2275 3039.96,8.4075 3054.73,12.8875 3055.59,13.2415 3069.2,20.5175 3069.97,21.0335 3081.9,30.8275 3082.56,31.4815 3092.35,43.4135 3092.86,44.1835 3100.14,57.7955 3100.49,58.6515 3104.97,73.4235 3105.15,74.3315 3106.67,89.6915 3106.69,90.1555 3106.69,2472.05 3106.67,2472.51 3105.15,2487.87 3104.97,2488.78 3100.49,2503.55 3100.14,2504.41 3092.86,2518.02 3092.35,2518.79 3082.56,2530.72 3081.9,2531.38 3069.97,2541.17 3069.2,2541.68 3055.59,2548.96 3054.73,2549.31 3039.96,2553.79 3039.05,2553.97 3023.69,2555.49 3023.23,2555.51 90.1565,2555.51 89.6925,2555.49 74.3305,2553.97 73.4225,2553.79 58.6525,2549.31 57.7965,2548.96 44.1825,2541.68 43.4125,2541.17 31.4805,2531.38 30.8245,2530.72 21.0325,2518.79 20.5185,2518.02 13.2425,2504.41 12.8885,2503.55 8.40647,2488.78 8.22647,2487.87 6.71447,2472.51 6.69047,2472.05" style="stroke:rgb(0,0,0);stroke-width:1px;fill:none;stroke-opacity:1;stroke-linecap:round;stroke-linejoin:round;;fill:none"/>
</svg>
