<?xml version="1.0" standalone="no"?>
<!DOCTYPE svg PUBLIC "-//W3C//DTD SVG 1.1//EN"
"http://www.w3.org/Graphics/SVG/1.1/DTD/svg11.dtd">
<svg width="149.443" height="122.986" viewBox="0 0 3113.39 2562.2" version="1.1"
xmlns="http://www.w3.org/2000/svg"
xmlns:xlink="http://www.w3.org/1999/xlink">
<polyline points="900.392,582.281 900.392,385.431 900.974,380.219 904.268,372.269 911.638,364.897 919.59,361.603 924.338,361.045 1013.35,361.117 1024.58,364.897 1031.95,372.269 1035.73,383.497 1035.73,584.215 1031.95,595.445 1025.35,602.301 1015.72,606.291 922.292,606.561 915.042,604.635 907.23,599.199 902.094,591.187 900.392,582.281" style="stroke:rgb(103,198,105);stroke-width:9.448819;fill:none;stroke-opacity:0.5;stroke-linecap:round;stroke-linejoin:round;;fill:none"/>
<polyline points="900.392,582.281 900.392,385.431 900.974,380.219 904.268,372.269 911.638,364.897 919.59,361.603 924.338,361.045 1013.35,361.117 1024.58,364.897 1031.95,372.269 1035.73,383.497 1035.73,584.215 1031.95,595.445 1025.35,602.301 1015.72,606.291 922.292,606.561 915.042,604.635 907.23,599.199 902.094,591.187 900.392,582.281" style="stroke:rgb(0,0,0);stroke-width:1px;fill:none;stroke-opacity:1;stroke-linecap:round;stroke-linejoin:round;;fill:none"/>
<polyline points="49.9985,582.281 49.9985,385.431 50.5805,380.219 53.8745,372.269 61.2445,364.897 69.1965,361.603 73.9445,361.045 162.956,361.117 174.186,364.897 181.556,372.269 185.336,383.497 185.336,584.215 181.556,595.445 174.956,602.301 165.326,606.291 71.8985,606.561 64.6485,604.635 56.8365,599.199 51.7005,591.187 49.9985,582.281" style="stroke:rgb(115,81,255);stroke-width:9.448819;fill:none;stroke-opacity:0.5;stroke-linecap:round;stroke-linejoin:round;;fill:none"/>
<polyline points="49.9985,582.281 49.9985,385.431 50.5805,380.219 53.8745,372.269 61.2445,364.897 69.1965,361.603 73.9445,361.045 162.956,361.117 174.186,364.897 181.556,372.269 185.336,383.497 185.336,584.215 181.556,595.445 174.956,602.301 165.326,606.291 71.8985,606.561 64.6485,604.635 56.8365,599.199 51.7005,591.187 49.9985,582.281" style="stroke:rgb(0,0,0);stroke-width:1px;fill:none;stroke-opacity:1;stroke-linecap:round;stroke-linejoin:round;;fill:none"/>
<polyline points="235.132,2438.54 235.274,2362.67 236.896,2356.41 240.178,2350.83 245.338,2345.88 250.542,2343.04 259.456,2341.34 313.14,2341.47 320.59,2343.51 329.186,2349.92 332.354,2354.66 334.944,2363.81 335.034,2423.62 357.446,2446.03 1104.36,2446.03 1118.31,2432.08 1113.51,2424.38 1110.51,2416.28 1109.07,2405.47 1109.14,2364.83 1110.44,2362.41 1113.78,2361.02 1232.81,2361.11 1235.23,2362.41 1236.52,2364.83 1236.61,2385.63 1810.2,2385.63 1810.2,2177.86 1665.33,2032.98 1226.09,2032.98 1219.07,2031.66 1212.31,2027.28 1144.68,1959.64 1141.34,1961.02 1094.09,1961.02 1090.16,1958.92 1089.37,1853.94 1090.75,1850.6 1094.09,1849.21 1141.34,1849.21 1144.68,1850.6 1146.06,1853.94 1146.06,1905.9 1234.17,1994.01 1673.4,1994.01 1680.42,1995.33 1684.6,1997.57 1843.47,2156 1847.85,2162.76 1849.18,2169.78 1849.18,2396.65 2055.21,2396.65 2058.9,2385.4 2066.8,2371.71 2077.02,2360.32 2089.74,2350.95 2105.07,2344.12 2120.54,2340.94 2135.36,2340.94 2151.77,2344.43 2165.75,2350.68 2178.88,2360.32 2189.11,2371.71 2197.01,2385.4 2201.76,2399.95 2203.52,2415.65 2201.97,2431.37 2197.18,2446.43 2188.79,2460.96 2178.15,2472.63 2165.75,2481.6 2151.31,2488.03 2135.36,2491.34 2120.54,2491.34 2105.07,2488.16 2089.74,2481.34 2077.02,2471.97 2066.8,2460.57 2058.9,2446.89 2055.21,2435.63 1840.72,2435.63 1830.29,2432.58 1821.62,2424.61 1231.91,2424.61 1228.07,2431.2 1221.77,2438.08 1214.78,2443.16 1207.15,2446.71 1194.46,2449.16 1156.3,2449.21 1123.63,2481.45 1119.45,2483.68 1112.43,2485.01 348.91,2484.98 342.352,2483.68 338.174,2481.45 316.53,2460.24 257.51,2460.93 250.214,2459.21 245.514,2456.63 239.428,2450.55 236.852,2445.85 235.132,2438.54" style="stroke:rgb(74,236,41);stroke-width:9.448819;fill:none;stroke-opacity:0.5;stroke-linecap:round;stroke-linejoin:round;;fill:none"/>
<polyline points="235.132,2438.54 235.274,2362.67 236.896,2356.41 240.178,2350.83 245.338,2345.88 250.542,2343.04 259.456,2341.34 313.14,2341.47 320.59,2343.51 329.186,2349.92 332.354,2354.66 334.944,2363.81 335.034,2423.62 357.446,2446.03 1104.36,2446.03 1118.31,2432.08 1113.51,2424.38 1110.51,2416.28 1109.07,2405.47 1109.14,2364.83 1110.44,2362.41 1113.78,2361.02 1232.81,2361.11 1235.23,2362.41 1236.52,2364.83 1236.61,2385.63 1810.2,2385.63 1810.2,2177.86 1665.33,2032.98 1226.09,2032.98 1219.07,2031.66 1212.31,2027.28 1144.68,1959.64 1141.34,1961.02 1094.09,1961.02 1090.16,1958.92 1089.37,1853.94 1090.75,1850.6 1094.09,1849.21 1141.34,1849.21 1144.68,1850.6 1146.06,1853.94 1146.06,1905.9 1234.17,1994.01 1673.4,1994.01 1680.42,1995.33 1684.6,1997.57 1843.47,2156 1847.85,2162.76 1849.18,2169.78 1849.18,2396.65 2055.21,2396.65 2058.9,2385.4 2066.8,2371.71 2077.02,2360.32 2089.74,2350.95 2105.07,2344.12 2120.54,2340.94 2135.36,2340.94 2151.77,2344.43 2165.75,2350.68 2178.88,2360.32 2189.11,2371.71 2197.01,2385.4 2201.76,2399.95 2203.52,2415.65 2201.97,2431.37 2197.18,2446.43 2188.79,2460.96 2178.15,2472.63 2165.75,2481.6 2151.31,2488.03 2135.36,2491.34 2120.54,2491.34 2105.07,2488.16 2089.74,2481.34 2077.02,2471.97 2066.8,2460.57 2058.9,2446.89 2055.21,2435.63 1840.72,2435.63 1830.29,2432.58 1821.62,2424.61 1231.91,2424.61 1228.07,2431.2 1221.77,2438.08 1214.78,2443.16 1207.15,2446.71 1194.46,2449.16 1156.3,2449.21 1123.63,2481.45 1119.45,2483.68 1112.43,2485.01 348.91,2484.98 342.352,2483.68 338.174,2481.45 316.53,2460.24 257.51,2460.93 250.214,2459.21 245.514,2456.63 239.428,2450.55 236.852,2445.85 235.132,2438.54" style="stroke:rgb(0,0,0);stroke-width:1px;fill:none;stroke-opacity:1;stroke-linecap:round;stroke-linejoin:round;;fill:none"/>
<polyline points="238.974,1727.96 240.026,1720.87 243.364,1714.02 249.45,1707.93 256.188,1704.63 261.446,1703.64 314.558,1703.54 325.652,1706.23 334.796,1714.3 338.844,1725.43 338.952,1740.91 798.98,1740.94 806.394,1742.59 811.954,1746.31 869.58,1803.9 1162.77,1804.39 1172.3,1809.61 1227.25,1864.6 1232.16,1873.79 1232.65,1885.63 1238.97,1885.63 1238.97,1853.94 1241.07,1850.01 1290.94,1849.21 1294.28,1850.6 1295.67,1853.94 1295.58,1957.22 1294.28,1959.64 1290.94,1961.02 1241.07,1960.23 1238.97,1956.3 1238.98,1924.61 1209.82,1924.3 1205.29,1922.92 1199.73,1919.21 1195.36,1912.99 1193.98,1908.46 1193.67,1886.11 1150.44,1842.88 858.164,1842.57 853.63,1841.2 847.726,1837.17 790.444,1779.89 338.974,1779.89 337.956,1805.79 333.122,1814.65 325.652,1820.54 314.566,1823.23 263.384,1823.23 256.976,1822.33 249.92,1819.18 245.812,1815.74 240.276,1806.55 239.16,1801.67 238.974,1727.96" style="stroke:rgb(205,186,171);stroke-width:9.448819;fill:none;stroke-opacity:0.5;stroke-linecap:round;stroke-linejoin:round;;fill:none"/>
<polyline points="238.974,1727.96 240.026,1720.87 243.364,1714.02 249.45,1707.93 256.188,1704.63 261.446,1703.64 314.558,1703.54 325.652,1706.23 334.796,1714.3 338.844,1725.43 338.952,1740.91 798.98,1740.94 806.394,1742.59 811.954,1746.31 869.58,1803.9 1162.77,1804.39 1172.3,1809.61 1227.25,1864.6 1232.16,1873.79 1232.65,1885.63 1238.97,1885.63 1238.97,1853.94 1241.07,1850.01 1290.94,1849.21 1294.28,1850.6 1295.67,1853.94 1295.58,1957.22 1294.28,1959.64 1290.94,1961.02 1241.07,1960.23 1238.97,1956.3 1238.98,1924.61 1209.82,1924.3 1205.29,1922.92 1199.73,1919.21 1195.36,1912.99 1193.98,1908.46 1193.67,1886.11 1150.44,1842.88 858.164,1842.57 853.63,1841.2 847.726,1837.17 790.444,1779.89 338.974,1779.89 337.956,1805.79 333.122,1814.65 325.652,1820.54 314.566,1823.23 263.384,1823.23 256.976,1822.33 249.92,1819.18 245.812,1815.74 240.276,1806.55 239.16,1801.67 238.974,1727.96" style="stroke:rgb(0,0,0);stroke-width:1px;fill:none;stroke-opacity:1;stroke-linecap:round;stroke-linejoin:round;;fill:none"/>
<polyline points="750.786,2082.29 751.836,2075.2 755.176,2068.35 761.262,2062.26 768,2058.96 773.258,2057.97 832.278,2058.66 877.752,2013.19 877.752,1933.46 860.888,1933.37 858.468,1932.08 857.176,1929.66 857.086,1865.75 858.468,1862.41 861.81,1861.02 932.676,1861.02 936.016,1862.41 937.4,1865.75 937.31,1929.66 936.016,1932.08 933.598,1933.37 916.73,1933.46 916.242,2025.51 911.022,2035.04 850.786,2095.27 850.734,2153.84 849.578,2160.67 845.17,2168.72 839.332,2173.79 828.306,2177.46 773.266,2177.46 767.462,2176.26 758.278,2170.72 754.556,2166.11 750.88,2155.08 750.786,2082.29" style="stroke:rgb(242,251,227);stroke-width:9.448819;fill:none;stroke-opacity:0.5;stroke-linecap:round;stroke-linejoin:round;;fill:none"/>
<polyline points="750.786,2082.29 751.836,2075.2 755.176,2068.35 761.262,2062.26 768,2058.96 773.258,2057.97 832.278,2058.66 877.752,2013.19 877.752,1933.46 860.888,1933.37 858.468,1932.08 857.176,1929.66 857.086,1865.75 858.468,1862.41 861.81,1861.02 932.676,1861.02 936.016,1862.41 937.4,1865.75 937.31,1929.66 936.016,1932.08 933.598,1933.37 916.73,1933.46 916.242,2025.51 911.022,2035.04 850.786,2095.27 850.734,2153.84 849.578,2160.67 845.17,2168.72 839.332,2173.79 828.306,2177.46 773.266,2177.46 767.462,2176.26 758.278,2170.72 754.556,2166.11 750.88,2155.08 750.786,2082.29" style="stroke:rgb(0,0,0);stroke-width:1px;fill:none;stroke-opacity:1;stroke-linecap:round;stroke-linejoin:round;;fill:none"/>
<polyline points="238.974,1995.66 242.096,2007.57 250.22,2016.2 259.08,2019.68 283.264,2020.08 283.264,2120.87 262.462,2120.96 260.044,2122.25 258.75,2124.67 258.66,2204.33 260.044,2207.67 263.384,2209.05 343.046,2208.96 345.466,2207.67 346.758,2205.25 346.848,2184.45 364.584,2184.45 530.752,2350.18 534.93,2352.41 541.488,2353.72 589.368,2353.74 589.95,2374.9 593.758,2383.62 600.314,2390.04 606.692,2393.04 613.778,2394.09 670.862,2393.31 711.556,2434 717.46,2438.03 721.994,2439.4 854.03,2439.71 861.906,2438.03 867.81,2434 979.566,2322.24 1109.05,2322.24 1109.14,2343.05 1110.44,2345.47 1112.86,2346.76 1233.7,2346.49 1235.82,2344.75 1236.61,2342.13 1236.17,2296.63 1232.56,2284.33 1227.36,2275.79 1267.52,2235.63 1655.21,2235.63 1658.9,2246.89 1666.8,2260.57 1677.02,2271.97 1689.74,2281.34 1705.07,2288.16 1720.54,2291.34 1735.36,2291.34 1751.77,2287.85 1765.75,2281.6 1778.15,2272.63 1789.11,2260.57 1796.78,2247.33 1801.97,2231.37 1803.52,2215.65 1801.76,2199.95 1797.01,2185.4 1789.11,2171.71 1778.88,2160.32 1765.75,2150.68 1751.31,2144.25 1735.36,2140.94 1720.54,2140.94 1705.07,2144.12 1689.74,2150.95 1677.02,2160.32 1666.8,2171.71 1658.9,2185.4 1655.21,2196.65 1256.1,2196.96 1251.57,2198.33 1245.67,2202.36 1189.36,2258.66 1151.21,2258.71 1138.51,2261.17 1130.89,2264.72 1123.89,2269.79 1117.6,2276.68 1113.75,2283.27 971.492,2283.27 963.616,2284.95 957.712,2288.97 845.956,2400.73 733.41,2400.73 689.366,2356.69 689.184,2295.97 685.318,2285.35 678.424,2278.46 672.044,2275.46 664.96,2274.41 613.778,2274.41 606.692,2275.46 596.862,2281.25 590.67,2291.08 589.368,2298.82 589.368,2314.76 550.024,2314.76 386.094,2150.87 380.534,2147.15 376,2145.78 346.848,2145.47 346.848,2125.59 345.466,2122.25 342.124,2120.87 322.242,2120.87 322.242,2018.81 331.3,2013.38 335.72,2007.76 338.482,2000.54 338.974,1995.67 338.924,1924.11 336.29,1913.72 329.678,1905.66 322.088,1901.6 316.504,1900.49 263.392,1900.39 253.624,1902.45 244.994,1908.81 240.832,1915.46 239.106,1922.29 238.974,1995.66" style="stroke:rgb(70,124,194);stroke-width:9.448819;fill:none;stroke-opacity:0.5;stroke-linecap:round;stroke-linejoin:round;;fill:none"/>
<polyline points="238.974,1995.66 242.096,2007.57 250.22,2016.2 259.08,2019.68 283.264,2020.08 283.264,2120.87 262.462,2120.96 260.044,2122.25 258.75,2124.67 258.66,2204.33 260.044,2207.67 263.384,2209.05 343.046,2208.96 345.466,2207.67 346.758,2205.25 346.848,2184.45 364.584,2184.45 530.752,2350.18 534.93,2352.41 541.488,2353.72 589.368,2353.74 589.95,2374.9 593.758,2383.62 600.314,2390.04 606.692,2393.04 613.778,2394.09 670.862,2393.31 711.556,2434 717.46,2438.03 721.994,2439.4 854.03,2439.71 861.906,2438.03 867.81,2434 979.566,2322.24 1109.05,2322.24 1109.14,2343.05 1110.44,2345.47 1112.86,2346.76 1233.7,2346.49 1235.82,2344.75 1236.61,2342.13 1236.17,2296.63 1232.56,2284.33 1227.36,2275.79 1267.52,2235.63 1655.21,2235.63 1658.9,2246.89 1666.8,2260.57 1677.02,2271.97 1689.74,2281.34 1705.07,2288.16 1720.54,2291.34 1735.36,2291.34 1751.77,2287.85 1765.75,2281.6 1778.15,2272.63 1789.11,2260.57 1796.78,2247.33 1801.97,2231.37 1803.52,2215.65 1801.76,2199.95 1797.01,2185.4 1789.11,2171.71 1778.88,2160.32 1765.75,2150.68 1751.31,2144.25 1735.36,2140.94 1720.54,2140.94 1705.07,2144.12 1689.74,2150.95 1677.02,2160.32 1666.8,2171.71 1658.9,2185.4 1655.21,2196.65 1256.1,2196.96 1251.57,2198.33 1245.67,2202.36 1189.36,2258.66 1151.21,2258.71 1138.51,2261.17 1130.89,2264.72 1123.89,2269.79 1117.6,2276.68 1113.75,2283.27 971.492,2283.27 963.616,2284.95 957.712,2288.97 845.956,2400.73 733.41,2400.73 689.366,2356.69 689.184,2295.97 685.318,2285.35 678.424,2278.46 672.044,2275.46 664.96,2274.41 613.778,2274.41 606.692,2275.46 596.862,2281.25 590.67,2291.08 589.368,2298.82 589.368,2314.76 550.024,2314.76 386.094,2150.87 380.534,2147.15 376,2145.78 346.848,2145.47 346.848,2125.59 345.466,2122.25 342.124,2120.87 322.242,2120.87 322.242,2018.81 331.3,2013.38 335.72,2007.76 338.482,2000.54 338.974,1995.67 338.924,1924.11 336.29,1913.72 329.678,1905.66 322.088,1901.6 316.504,1900.49 263.392,1900.39 253.624,1902.45 244.994,1908.81 240.832,1915.46 239.106,1922.29 238.974,1995.66" style="stroke:rgb(0,0,0);stroke-width:1px;fill:none;stroke-opacity:1;stroke-linecap:round;stroke-linejoin:round;;fill:none"/>
<polyline points="699.604,1853.94 699.604,1790.94 700.988,1787.6 704.33,1786.22 775.196,1786.22 778.536,1787.6 779.92,1790.94 779.56,1855.74 776.118,1858.57 759.25,1858.66 759.25,1884.47 757.922,1891.49 753.854,1897.91 739.944,1911.85 739.944,2245.85 769.292,2275.2 829.228,2274.59 839.84,2278.46 846.736,2285.35 849.734,2291.73 850.786,2298.82 850.656,2372.2 848.928,2379.03 845.246,2385.17 839.54,2390.22 831.588,2393.51 772.684,2393.96 765.436,2392.04 757.624,2386.6 752.842,2379.44 750.916,2372.2 750.788,2311.81 706.674,2267.7 701.454,2258.17 700.966,1903.78 702.294,1896.76 704.526,1892.58 720.272,1876.4 720.272,1858.66 703.408,1858.57 700.988,1857.28 699.604,1853.94" style="stroke:rgb(84,248,27);stroke-width:9.448819;fill:none;stroke-opacity:0.5;stroke-linecap:round;stroke-linejoin:round;;fill:none"/>
<polyline points="699.604,1853.94 699.604,1790.94 700.988,1787.6 704.33,1786.22 775.196,1786.22 778.536,1787.6 779.92,1790.94 779.56,1855.74 776.118,1858.57 759.25,1858.66 759.25,1884.47 757.922,1891.49 753.854,1897.91 739.944,1911.85 739.944,2245.85 769.292,2275.2 829.228,2274.59 839.84,2278.46 846.736,2285.35 849.734,2291.73 850.786,2298.82 850.656,2372.2 848.928,2379.03 845.246,2385.17 839.54,2390.22 831.588,2393.51 772.684,2393.96 765.436,2392.04 757.624,2386.6 752.842,2379.44 750.916,2372.2 750.788,2311.81 706.674,2267.7 701.454,2258.17 700.966,1903.78 702.294,1896.76 704.526,1892.58 720.272,1876.4 720.272,1858.66 703.408,1858.57 700.988,1857.28 699.604,1853.94" style="stroke:rgb(0,0,0);stroke-width:1px;fill:none;stroke-opacity:1;stroke-linecap:round;stroke-linejoin:round;;fill:none"/>
<polyline points="1246.85,1401.18 1246.94,1353.01 1249.77,1349.57 1258.66,1349.21 1259.44,1315.26 1261.86,1306.96 1266.37,1298.53 1406.39,1157.4 1413.47,1151.68 1428.52,1145.45 1437.57,1144.49 2235.83,1144.49 2238.45,1145.28 2240.46,1148.29 2240.55,1227.95 2239.75,1230.58 2236.75,1232.59 1455.84,1232.68 1346.85,1341.67 1346.85,1349.21 1355.74,1349.57 1358.57,1353.01 1358.66,1401.18 1356.56,1405.11 1336.27,1405.9 1325.21,1415.47 1316.84,1419.32 1307.85,1421.33 1298.64,1421.44 1289.13,1419.49 1280.71,1415.74 1269.23,1405.9 1250.65,1405.81 1248.23,1404.52 1246.85,1401.18" style="stroke:rgb(232,231,141);stroke-width:9.448819;fill:none;stroke-opacity:0.5;stroke-linecap:round;stroke-linejoin:round;;fill:none"/>
<polyline points="1246.85,1401.18 1246.94,1353.01 1249.77,1349.57 1258.66,1349.21 1259.44,1315.26 1261.86,1306.96 1266.37,1298.53 1406.39,1157.4 1413.47,1151.68 1428.52,1145.45 1437.57,1144.49 2235.83,1144.49 2238.45,1145.28 2240.46,1148.29 2240.55,1227.95 2239.75,1230.58 2236.75,1232.59 1455.84,1232.68 1346.85,1341.67 1346.85,1349.21 1355.74,1349.57 1358.57,1353.01 1358.66,1401.18 1356.56,1405.11 1336.27,1405.9 1325.21,1415.47 1316.84,1419.32 1307.85,1421.33 1298.64,1421.44 1289.13,1419.49 1280.71,1415.74 1269.23,1405.9 1250.65,1405.81 1248.23,1404.52 1246.85,1401.18" style="stroke:rgb(0,0,0);stroke-width:1px;fill:none;stroke-opacity:1;stroke-linecap:round;stroke-linejoin:round;;fill:none"/>
<polyline points="912.204,842.119 913.906,851.029 919.042,859.041 926.852,864.477 934.674,866.439 987.786,866.533 994.768,865.515 1002.91,861.269 1006.94,857.237 1011,849.647 1012.11,843.711 1117.91,949.511 1117.91,1274.41 1086.22,1274.41 1082.29,1276.51 1081.59,1327.3 1083.59,1330.31 1086.22,1331.1 1190.39,1330.74 1192.51,1329 1193.31,1326.38 1192.51,1276.51 1188.58,1274.41 1156.89,1274.41 1156.89,956.101 1365.71,956.101 1376.14,953.055 1920.79,409.085 1932.25,405.389 1945.33,395.687 1950.55,388.801 1954.33,381.029 1956.83,368.699 2055.21,368.699 2058.9,379.957 2066.8,393.643 2077.02,405.037 2089.74,414.405 2104.59,421.101 2119.56,424.311 2136.34,424.311 2151.31,421.101 2166.16,414.405 2178.88,405.037 2188.79,394.027 2196.78,380.397 2201.76,365.405 2203.52,349.705 2201.97,333.983 2197.01,318.465 2189.11,304.781 2178.15,292.725 2165.75,283.747 2151.77,277.497 2136.34,274.113 2120.54,274.009 2105.07,277.193 2089.74,284.017 2077.02,293.387 2066.8,304.781 2058.9,318.465 2055.21,329.721 1957.06,329.721 1956.57,319.679 1952.63,307.115 1945.81,296.941 1935.46,288.441 1924.15,283.737 1915.62,282.381 1871,283.077 1868.9,287.007 1868.96,405.793 1357.63,917.123 1140.78,917.261 1012.2,789.823 1012.18,770.795 1010.15,761.499 1003.28,752.389 997.134,748.707 990.306,746.979 932.31,747.249 923.45,750.725 917.744,755.773 914.062,761.917 912.334,768.747 912.204,842.119" style="stroke:rgb(118,90,46);stroke-width:9.448819;fill:none;stroke-opacity:0.5;stroke-linecap:round;stroke-linejoin:round;;fill:none"/>
<polyline points="912.204,842.119 913.906,851.029 919.042,859.041 926.852,864.477 934.674,866.439 987.786,866.533 994.768,865.515 1002.91,861.269 1006.94,857.237 1011,849.647 1012.11,843.711 1117.91,949.511 1117.91,1274.41 1086.22,1274.41 1082.29,1276.51 1081.59,1327.3 1083.59,1330.31 1086.22,1331.1 1190.39,1330.74 1192.51,1329 1193.31,1326.38 1192.51,1276.51 1188.58,1274.41 1156.89,1274.41 1156.89,956.101 1365.71,956.101 1376.14,953.055 1920.79,409.085 1932.25,405.389 1945.33,395.687 1950.55,388.801 1954.33,381.029 1956.83,368.699 2055.21,368.699 2058.9,379.957 2066.8,393.643 2077.02,405.037 2089.74,414.405 2104.59,421.101 2119.56,424.311 2136.34,424.311 2151.31,421.101 2166.16,414.405 2178.88,405.037 2188.79,394.027 2196.78,380.397 2201.76,365.405 2203.52,349.705 2201.97,333.983 2197.01,318.465 2189.11,304.781 2178.15,292.725 2165.75,283.747 2151.77,277.497 2136.34,274.113 2120.54,274.009 2105.07,277.193 2089.74,284.017 2077.02,293.387 2066.8,304.781 2058.9,318.465 2055.21,329.721 1957.06,329.721 1956.57,319.679 1952.63,307.115 1945.81,296.941 1935.46,288.441 1924.15,283.737 1915.62,282.381 1871,283.077 1868.9,287.007 1868.96,405.793 1357.63,917.123 1140.78,917.261 1012.2,789.823 1012.18,770.795 1010.15,761.499 1003.28,752.389 997.134,748.707 990.306,746.979 932.31,747.249 923.45,750.725 917.744,755.773 914.062,761.917 912.334,768.747 912.204,842.119" style="stroke:rgb(0,0,0);stroke-width:1px;fill:none;stroke-opacity:1;stroke-linecap:round;stroke-linejoin:round;;fill:none"/>
<polyline points="864.202,885.659 864.69,746.911 869.6,737.725 903.208,704.083 909.112,700.057 913.646,698.683 1186.68,698.863 1196.21,704.083 1298.03,805.905 1323.22,805.903 1766.54,362.591 1766.58,324.439 1769.04,311.741 1772.59,304.117 1777.66,297.123 1784.55,290.825 1791.14,286.981 1791.14,239.961 1765.81,214.633 1750.83,221.229 1736.34,224.311 1720.54,224.413 1704.59,221.101 1689.74,214.405 1677.02,205.037 1667.11,194.027 1659.12,180.397 1654.14,165.405 1652.39,148.717 1654.14,133.017 1658.72,118.927 1666.8,104.781 1677.76,92.7255 1690.16,83.7475 1704.59,77.3215 1720.54,74.0095 1736.34,74.1135 1751.31,77.3215 1766.16,84.0175 1778.15,92.7255 1788.79,104.395 1797.18,118.927 1801.97,133.983 1803.52,148.717 1801.76,165.405 1797.01,179.957 1793.09,186.791 1824.41,218.107 1828.79,224.867 1830.12,231.887 1830.12,282.281 1850.92,282.373 1853.34,283.665 1854.63,286.085 1853.93,407.741 1850,409.841 1804.5,409.403 1792.2,405.785 1783.67,400.583 1366.77,817.477 1370.38,828.383 1370.38,883.425 1366.7,894.451 1361.55,900.363 1354.97,904.203 1346.52,905.881 1275.2,905.905 1266.29,904.203 1258.28,899.067 1252.84,891.255 1250.79,881.487 1250.88,828.375 1254.49,817.479 1174.36,737.353 925.062,737.353 903.18,759.235 903.18,877.585 930.71,905.117 990.646,904.515 1001.26,908.379 1008.15,915.275 1011.15,921.653 1012.2,928.739 1011.8,1003.91 1010.15,1009.37 1005.37,1016.52 1000.96,1020.14 994.47,1022.99 1009.76,1038.31 1013.83,1044.73 1015.16,1051.75 1015.16,1077.56 1035.96,1077.65 1038.97,1079.66 1039.76,1082.28 1039.76,1161.02 1038.38,1164.36 1035.04,1165.75 956.298,1165.75 952.958,1164.36 951.574,1161.02 951.664,1081.36 952.958,1078.94 955.376,1077.65 976.178,1077.56 976.178,1059.82 948.422,1032.06 943.642,1023.99 929.416,1022.93 922.68,1019.63 916.254,1013.07 913.254,1006.69 912.204,999.605 912.204,941.731 869.6,899.095 865.53,892.679 864.202,885.659" style="stroke:rgb(99,51,159);stroke-width:9.448819;fill:none;stroke-opacity:0.5;stroke-linecap:round;stroke-linejoin:round;;fill:none"/>
<polyline points="864.202,885.659 864.69,746.911 869.6,737.725 903.208,704.083 909.112,700.057 913.646,698.683 1186.68,698.863 1196.21,704.083 1298.03,805.905 1323.22,805.903 1766.54,362.591 1766.58,324.439 1769.04,311.741 1772.59,304.117 1777.66,297.123 1784.55,290.825 1791.14,286.981 1791.14,239.961 1765.81,214.633 1750.83,221.229 1736.34,224.311 1720.54,224.413 1704.59,221.101 1689.74,214.405 1677.02,205.037 1667.11,194.027 1659.12,180.397 1654.14,165.405 1652.39,148.717 1654.14,133.017 1658.72,118.927 1666.8,104.781 1677.76,92.7255 1690.16,83.7475 1704.59,77.3215 1720.54,74.0095 1736.34,74.1135 1751.31,77.3215 1766.16,84.0175 1778.15,92.7255 1788.79,104.395 1797.18,118.927 1801.97,133.983 1803.52,148.717 1801.76,165.405 1797.01,179.957 1793.09,186.791 1824.41,218.107 1828.79,224.867 1830.12,231.887 1830.12,282.281 1850.92,282.373 1853.34,283.665 1854.63,286.085 1853.93,407.741 1850,409.841 1804.5,409.403 1792.2,405.785 1783.67,400.583 1366.77,817.477 1370.38,828.383 1370.38,883.425 1366.7,894.451 1361.55,900.363 1354.97,904.203 1346.52,905.881 1275.2,905.905 1266.29,904.203 1258.28,899.067 1252.84,891.255 1250.79,881.487 1250.88,828.375 1254.49,817.479 1174.36,737.353 925.062,737.353 903.18,759.235 903.18,877.585 930.71,905.117 990.646,904.515 1001.26,908.379 1008.15,915.275 1011.15,921.653 1012.2,928.739 1011.8,1003.91 1010.15,1009.37 1005.37,1016.52 1000.96,1020.14 994.47,1022.99 1009.76,1038.31 1013.83,1044.73 1015.16,1051.75 1015.16,1077.56 1035.96,1077.65 1038.97,1079.66 1039.76,1082.28 1039.76,1161.02 1038.38,1164.36 1035.04,1165.75 956.298,1165.75 952.958,1164.36 951.574,1161.02 951.664,1081.36 952.958,1078.94 955.376,1077.65 976.178,1077.56 976.178,1059.82 948.422,1032.06 943.642,1023.99 929.416,1022.93 922.68,1019.63 916.254,1013.07 913.254,1006.69 912.204,999.605 912.204,941.731 869.6,899.095 865.53,892.679 864.202,885.659" style="stroke:rgb(0,0,0);stroke-width:1px;fill:none;stroke-opacity:1;stroke-linecap:round;stroke-linejoin:round;;fill:none"/>
<polyline points="258.754,855.865 258.754,781.139 262.432,770.113 267.08,764.679 275.548,759.867 283.078,758.659 336.762,758.791 343.592,760.517 350.24,764.679 354.546,769.509 357.358,775.335 358.608,782.377 358.608,854.629 355.54,865.839 347.908,874.165 337.328,878.109 328.146,878.309 328.146,1053.22 497.634,1222.71 501.66,1228.62 503.342,1236.5 503.342,1420.67 590.352,1507.67 687.794,1507.67 687.884,1490.81 689.178,1488.39 691.596,1487.1 758.136,1487.8 760.234,1491.73 760.234,1562.6 758.136,1566.53 691.596,1567.23 689.178,1565.94 687.884,1563.52 687.794,1546.65 582.278,1546.65 574.402,1544.97 568.498,1540.94 467.926,1439.94 465.692,1435.76 464.364,1428.74 464.364,1244.57 294.876,1075.08 290.85,1069.17 289.168,1061.3 289.168,878.309 276.434,877.407 267.956,873.081 262.432,866.891 258.754,855.865" style="stroke:rgb(201,154,102);stroke-width:9.448819;fill:none;stroke-opacity:0.5;stroke-linecap:round;stroke-linejoin:round;;fill:none"/>
<polyline points="258.754,855.865 258.754,781.139 262.432,770.113 267.08,764.679 275.548,759.867 283.078,758.659 336.762,758.791 343.592,760.517 350.24,764.679 354.546,769.509 357.358,775.335 358.608,782.377 358.608,854.629 355.54,865.839 347.908,874.165 337.328,878.109 328.146,878.309 328.146,1053.22 497.634,1222.71 501.66,1228.62 503.342,1236.5 503.342,1420.67 590.352,1507.67 687.794,1507.67 687.884,1490.81 689.178,1488.39 691.596,1487.1 758.136,1487.8 760.234,1491.73 760.234,1562.6 758.136,1566.53 691.596,1567.23 689.178,1565.94 687.884,1563.52 687.794,1546.65 582.278,1546.65 574.402,1544.97 568.498,1540.94 467.926,1439.94 465.692,1435.76 464.364,1428.74 464.364,1244.57 294.876,1075.08 290.85,1069.17 289.168,1061.3 289.168,878.309 276.434,877.407 267.956,873.081 262.432,866.891 258.754,855.865" style="stroke:rgb(0,0,0);stroke-width:1px;fill:none;stroke-opacity:1;stroke-linecap:round;stroke-linejoin:round;;fill:none"/>
<polyline points="451.668,836.181 451.704,760.877 453.63,753.625 458.412,746.467 466.222,741.031 474.054,739.069 529.672,739.105 536.504,740.833 542.65,744.515 547.802,750.427 550.522,756.299 551.522,762.691 551.522,834.943 548.452,846.155 540.82,854.481 530.242,858.423 521.062,858.625 521.062,940.193 793.204,1212.34 916.864,1212.34 924.74,1214.02 930.644,1218.04 1091.31,1378.71 1137.86,1378.74 1144.42,1380.04 1148.6,1382.28 1153.84,1387.77 1156.4,1393.95 1156.89,1424.02 1188.58,1424.02 1191.21,1424.81 1192.95,1426.93 1193.31,1475.98 1191.92,1479.32 1188.58,1480.71 1083.59,1479.91 1081.49,1475.98 1082.29,1426.11 1086.22,1424.02 1117.91,1424.02 1117.91,1417.69 1082.78,1417.67 1076.22,1416.36 1072.04,1414.13 908.79,1251.31 785.132,1251.31 778.11,1249.99 771.694,1245.92 485.646,959.465 483.412,955.287 482.084,948.267 482.084,858.625 469.346,857.721 460.87,853.395 455.344,847.207 451.668,836.181" style="stroke:rgb(50,13,183);stroke-width:9.448819;fill:none;stroke-opacity:0.5;stroke-linecap:round;stroke-linejoin:round;;fill:none"/>
<polyline points="451.668,836.181 451.704,760.877 453.63,753.625 458.412,746.467 466.222,741.031 474.054,739.069 529.672,739.105 536.504,740.833 542.65,744.515 547.802,750.427 550.522,756.299 551.522,762.691 551.522,834.943 548.452,846.155 540.82,854.481 530.242,858.423 521.062,858.625 521.062,940.193 793.204,1212.34 916.864,1212.34 924.74,1214.02 930.644,1218.04 1091.31,1378.71 1137.86,1378.74 1144.42,1380.04 1148.6,1382.28 1153.84,1387.77 1156.4,1393.95 1156.89,1424.02 1188.58,1424.02 1191.21,1424.81 1192.95,1426.93 1193.31,1475.98 1191.92,1479.32 1188.58,1480.71 1083.59,1479.91 1081.49,1475.98 1082.29,1426.11 1086.22,1424.02 1117.91,1424.02 1117.91,1417.69 1082.78,1417.67 1076.22,1416.36 1072.04,1414.13 908.79,1251.31 785.132,1251.31 778.11,1249.99 771.694,1245.92 485.646,959.465 483.412,955.287 482.084,948.267 482.084,858.625 469.346,857.721 460.87,853.395 455.344,847.207 451.668,836.181" style="stroke:rgb(0,0,0);stroke-width:1px;fill:none;stroke-opacity:1;stroke-linecap:round;stroke-linejoin:round;;fill:none"/>
<polyline points="28.3445,2470.92 28.3445,2222.53 31.3285,2213.67 35.8205,2209.73 40.5545,2208.04 46.5245,2208.23 50.2145,2209.68 58.0965,2216.76 67.7885,2222.84 71.0165,2229.66 71.7585,2241.66 73.7405,2248.19 76.9585,2254.2 86.4965,2264.86 88.6905,2270.15 88.9745,2322.57 88.0305,2327.77 85.0245,2332.6 73.4785,2341.2 69.1625,2346.46 63.9785,2358.97 63.2405,2435.89 63.9785,2443.39 69.1625,2455.9 78.7405,2465.48 91.2565,2470.66 155.98,2470.66 162.496,2468.69 173.76,2461.16 178.078,2455.9 183.262,2443.39 183.262,2358.97 178.078,2346.46 173.758,2341.2 162.214,2332.6 158.502,2325.22 158.456,2252.81 157.764,2245.79 150.794,2227.13 152.134,2220.06 159.16,2210.08 160.376,2203.61 160.018,2122.66 155.902,2114.96 144.292,2107.41 141.516,2102.85 140.548,2097.6 140.548,2044.97 141.536,2039.67 144.362,2035.08 148.652,2031.82 166.432,2027.74 172.434,2024.54 182.014,2014.96 187.198,2002.44 187.198,1918.03 182.014,1905.51 177.694,1900.25 165.718,1891.18 163.146,1886.82 162.202,1881.61 162.632,1842.23 167.23,1834.63 171.52,1832.01 177.408,1830.99 186.314,1834.34 238.108,1886.81 239.776,1892.31 239.274,1897.8 231.306,1911.51 228.594,1925.52 229.332,2002.44 234.514,2014.96 238.834,2020.22 250.098,2027.74 265.114,2031.63 269.736,2035.49 272.814,2042.19 273.03,2096.25 272.042,2101.56 267.036,2108.11 257.574,2111.73 252.752,2114.96 248.638,2122.65 248.28,2203.61 249.492,2210.08 252.752,2214.96 257.63,2218.22 264.104,2219.43 341.402,2219.43 350.474,2216.83 357.066,2210.16 362.17,2207.46 368.24,2206.96 372.14,2208.01 376.806,2211.14 525.356,2359.09 536.124,2363.55 565.586,2363.99 572.698,2366.06 578.298,2372.07 581.7,2382.97 584.91,2388.97 594.488,2398.55 600.492,2401.76 614.512,2404.47 664.11,2404.72 672.008,2408.93 675.626,2412.98 677.768,2418.2 677.766,2423.95 674.046,2431.14 668.958,2434.67 663.322,2435.79 364.914,2435.51 358.942,2432.78 349.418,2423.49 345.966,2417.18 344.678,2358.97 342.704,2352.46 335.176,2341.2 329.914,2336.88 317.4,2331.7 252.672,2331.7 246.162,2333.67 234.896,2341.2 227.37,2352.46 225.396,2358.97 224.658,2435.89 225.396,2443.39 230.578,2455.9 240.158,2465.48 252.676,2470.66 310.446,2471.8 317.572,2475.75 332.78,2490.35 343.55,2494.81 349.608,2495.41 1112.2,2495.41 1118.26,2494.81 1129.02,2490.35 1156.06,2463.92 1160.86,2460.71 1166.46,2459.59 1195.64,2459.4 1210.39,2456.47 1225.28,2448.51 1237.57,2437.09 1245.37,2434.84 1811.38,2434.84 1818.59,2436.73 1829.28,2443.74 1840.95,2446.03 2040.4,2446.15 2045.7,2448.35 2049.18,2451.69 2061.28,2470.85 2073.24,2482.81 2087.3,2492.2 2102.91,2498.67 2119.5,2501.97 2136.4,2501.97 2152.99,2498.67 2168.6,2492.2 2182.66,2482.81 2194.62,2470.85 2204.01,2456.79 2210.48,2441.17 2213.78,2424.59 2213.78,2407.69 2210.48,2391.11 2204.01,2375.49 2194.62,2361.43 2182.66,2349.47 2168.6,2340.08 2152.98,2333.61 2136.4,2330.31 2119.5,2330.31 2102.92,2333.61 2087.3,2340.08 2073.24,2349.47 2061.28,2361.43 2049.18,2380.59 2045.7,2383.93 2040.4,2386.13 1874.14,2386.42 1865.96,2383.93 1861.66,2379.47 1859.41,2371.69 1859.58,2170.01 1857.29,2158.36 1850.66,2148.49 1694.7,1992.52 1684.83,1985.9 1673.16,1983.6 1317.79,1983.77 1312.34,1982.71 1306.66,1978.67 1303.15,1970.43 1306.05,1955.57 1306.05,1854.66 1303.44,1845.58 1296.7,1840.05 1290.21,1838.83 1244.43,1838.83 1237.89,1840.06 1231.18,1843.28 1223.86,1843.49 1217.37,1840.1 1207.79,1830.59 1204.67,1825.47 1203.85,1819.53 1205.47,1813.76 1209.26,1809.11 1224.49,1803.44 1232.61,1796.01 1237.97,1794.25 1257.32,1793.31 1267.57,1790.2 1277.01,1785.15 1285.31,1778.34 1616.05,1447.23 1620.82,1444.03 1626.46,1442.91 2207.1,1442.13 2217.35,1439.02 2226.78,1433.98 2235.06,1427.19 2241.85,1418.91 2246.89,1409.47 2250,1399.23 2251.05,1388.58 2250,1377.93 2246.88,1367.65 2242.37,1358.67 2241.87,1352.44 2244.59,1345.53 2252.86,1337.36 2261.31,1325.39 2266.09,1314.63 2265.14,1313.31 2232.85,1313.31 2226.31,1321 2218.5,1326.77 2210.08,1330.52 2200.57,1332.46 2191.36,1332.36 2182.83,1330.52 2174.85,1326.99 2166.6,1321 2160.06,1313.31 2127.77,1313.31 2126.71,1314.77 2127.32,1322.37 2125.22,1327.55 2120.75,1331.95 2112.88,1334.25 1597.89,1333.99 1587.2,1335.04 1576.96,1338.14 1572.14,1340.72 1282.33,1630.54 1274.29,1635.3 1236.2,1673.1 1228.48,1675.8 1215.42,1673.48 1169.61,1673.48 1163.14,1674.69 1158.26,1677.95 1154.15,1685.65 1152.93,1701 1142.08,1718.87 1138.97,1729.11 1137.92,1739.76 1138.97,1750.41 1142.07,1760.63 1148.59,1772.57 1150.04,1778.39 1149.04,1784.3 1146.42,1788.61 1141.65,1792.23 1137.86,1793.43 980.084,1793.39 974.854,1791.27 970.806,1787.33 968.556,1782.22 968.166,1776.45 964.076,1772.36 937.4,1772.36 937.04,1780.94 933.598,1783.77 860.002,1783.5 857.882,1781.76 857.086,1779.13 857.086,1716.14 857.882,1713.52 860.002,1711.78 872.516,1711.42 872.516,1684.74 868.528,1680.75 854.892,1681.37 848.242,1683.39 836.744,1691.08 829.058,1702.57 824.348,1725.31 818.182,1731.1 812.402,1732.61 798.286,1730.51 361.986,1730.66 355.532,1728.91 351.364,1725.6 343.432,1708.66 333.854,1699.09 327.85,1695.88 313.842,1693.16 256.082,1693.67 249.7,1691.47 245.324,1687.23 242.8,1679.02 242.8,1439.07 245.284,1430.89 249.348,1426.83 257.068,1424.37 292.81,1431.89 320.574,1431.89 347.802,1426.47 373.452,1415.85 396.538,1400.42 416.182,1380.78 428.85,1362.26 436.536,1358.08 442.28,1358.08 447.588,1360.27 451.65,1364.34 453.848,1369.64 453.964,1428.5 454.562,1434.57 459.02,1445.33 565.686,1552 576.454,1556.46 582.516,1557.05 666.9,1557.13 671.888,1559.04 675.734,1562.43 680.018,1570.95 684.162,1575.1 693.238,1577.7 758.442,1577.34 766.14,1573.23 770.254,1565.53 770.614,1492.45 769.398,1485.98 763.86,1479.23 754.786,1476.63 689.582,1476.99 681.888,1481.1 675.734,1491.9 671.89,1495.29 666.9,1497.2 597.37,1497.04 590.282,1493.13 517.894,1420.74 514.702,1415.96 513.58,1410.32 513.746,1236.73 511.448,1225.06 504.826,1215.2 342.698,1053.3 338.666,1045.76 338.596,897.223 342.202,889.811 353.538,882.801 363.118,873.221 368.3,860.709 368.3,776.293 363.118,763.781 353.536,754.201 341.022,749.017 319.144,748.279 313.09,746.959 306.464,740.917 304.702,736.427 304.702,730.681 308.734,723.141 485.144,546.965 492.448,538.207 503.148,532.405 508.404,528.091 512.724,522.829 519.028,507.547 522.594,503.151 528.752,500.081 536.662,500.447 542.508,504.073 546.518,511.741 557.224,501.035 557.532,348.285 560.786,340.429 577.558,323.221 577.688,107.333 579.614,100.081 584.79,92.4995 591.096,88.0335 601.504,85.4555 641.338,85.4315 648.422,86.4835 654.898,89.5455 660.206,94.3555 663.888,100.499 665.616,107.333 665.746,503.541 664.044,512.447 661.356,517.475 654.5,524.075 646.376,527.405 646.376,554.627 650.338,558.589 667.936,557.991 674.586,555.975 686.082,548.291 693.77,536.789 695.786,530.143 696.552,513.947 697.938,508.169 703.106,502.169 709.564,499.803 717.384,501.045 722.794,505.297 730.58,522.831 741.442,534.041 743.576,537.829 744.486,542.925 744.486,735.899 743.056,742.189 739.456,746.959 735.164,749.577 726.3,750.193 720.358,747.225 707.868,734.515 695.354,729.333 687.858,728.595 638.124,728.595 630.622,729.333 618.11,734.517 608.532,744.095 603.346,756.611 603.346,841.023 608.53,853.537 618.112,863.117 630.626,868.301 638.124,869.039 695.352,868.301 707.868,863.117 721.544,849.565 726.722,847.355 733.796,847.545 739.196,850.373 750.642,866.671 760.63,873.803 764.046,877.717 766.126,885.211 765.028,891.153 761.182,896.525 750.642,904.189 746.326,909.449 741.144,921.963 740.406,929.461 741.144,1006.38 746.328,1018.89 750.612,1024.12 760.514,1032 763.228,1036.53 764.172,1041.72 763.986,1056.54 762.02,1061.96 758.45,1065.95 748.816,1071.65 744.702,1079.35 744.342,1113.45 742.784,1119.9 740.028,1123.86 736.068,1126.62 730.538,1128.08 723.982,1127.05 719.206,1123.86 535.61,940.265 532.854,936.305 531.296,929.855 531.296,880.023 532.182,875.001 536.906,868.459 546.428,863.135 556.032,853.537 561.212,841.023 561.952,833.523 561.212,756.611 556.03,744.093 551.714,738.835 540.45,731.307 533.936,729.333 469.208,729.333 456.694,734.515 451.432,738.835 447.112,744.095 441.93,756.607 441.93,841.027 447.112,853.537 451.432,858.797 466.238,868.459 470.962,875.001 471.848,880.033 472.278,954.093 476.734,964.859 480.598,969.565 768.538,1256.66 779.302,1261.12 785.364,1261.72 898.446,1261.55 906.634,1264.03 1067.62,1424.15 1070.2,1428.57 1071.11,1433.67 1071.11,1465.02 1069.99,1470.65 1066.8,1475.43 1062.02,1478.62 1056.39,1479.74 1019.04,1479.74 1013.4,1478.62 1008.62,1475.42 882.148,1348.71 872.278,1342.09 851.634,1338.21 847.354,1334.74 842.814,1325.9 838.666,1321.75 829.59,1319.15 768.042,1319.15 761.566,1320.36 754.82,1325.9 752.214,1334.98 752.214,1404.39 753.432,1410.87 756.69,1415.75 761.566,1419.01 768.044,1420.22 829.59,1420.22 836.064,1419.01 848.578,1410.41 854.65,1409.91 860.408,1411.91 880.758,1431.66 884.426,1438.63 883.638,1447.37 878.238,1453.95 875.986,1462.22 870.982,1466.91 862.698,1468.86 857.984,1467.83 853.924,1465.23 844.856,1456.29 834.996,1457.04 864.96,1487.01 906.924,1487.37 909.75,1490.81 909.84,1502.44 938.07,1502.44 944.272,1501.02 949.676,1502.13 954.468,1505.34 984.034,1534.3 994.8,1538.76 1201.43,1539.35 1207.49,1538.76 1218.25,1534.3 1240.09,1513.3 1246.72,1503.43 1249.01,1491.77 1248.87,1434.25 1251.86,1425.85 1258.23,1421.03 1265.11,1420.11 1269.97,1421.49 1281.89,1428 1292.1,1431.1 1302.75,1432.15 1313.4,1431.1 1323.65,1428 1341.51,1417.15 1356.86,1415.92 1364.57,1411.81 1367.82,1406.93 1369.04,1400.46 1369.04,1354.66 1366.72,1341.75 1369.3,1334.03 1455.76,1247.23 1463.3,1243.2 2112.88,1242.91 2120.33,1245.01 2125.09,1249.42 2126.82,1253.11 2127.6,1257.7 2126.71,1262.39 2127.77,1263.86 2160.06,1263.86 2166.6,1256.16 2174.85,1250.17 2182.83,1246.65 2191.36,1244.81 2200.57,1244.7 2210.08,1246.65 2218.5,1250.4 2226.31,1256.16 2232.85,1263.86 2265.14,1263.86 2266.09,1262.53 2261.31,1251.77 2250.95,1235.19 2250.57,1146.28 2246.45,1138.58 2238.76,1134.47 1437.61,1133.99 1426.92,1135.04 1416.68,1138.14 1407.24,1143.19 1398.94,1150 1272.13,1276.89 1266.45,1279.36 1260.7,1279.36 1254.68,1276.58 1249.89,1270.34 1248.85,1264.92 1249.04,1125.28 1251.21,1119.25 1287.97,1082.01 1292.75,1078.82 1298.38,1077.7 1352.84,1076.96 1365.35,1071.78 1370.61,1067.46 1378.14,1056.2 1380.85,1042.19 1380.85,992.453 1377.1,973.997 1377.71,968.359 1380.38,963.397 1559.5,784.851 1563.47,782.093 1569.92,780.535 1575.97,781.855 1581.57,786.365 1584.09,791.501 1583.07,832.385 1588.49,859.613 1599.11,885.263 1614.54,908.349 1634.17,927.981 1657.25,943.405 1682.9,954.029 1710.13,959.445 1737.9,959.445 1765.13,954.029 1790.78,943.405 1813.86,927.981 1833.49,908.349 1848.92,885.263 1859.54,859.613 1864.96,832.383 1864.96,804.621 1859.54,777.389 1848.92,751.739 1833.49,728.653 1813.86,709.023 1790.78,693.599 1765.13,682.973 1737.9,677.557 1710.08,677.557 1700.72,679.131 1695.14,678.011 1688.41,672.391 1686.33,667.279 1686.33,661.533 1689.12,655.511 1923.08,421.281 1940.54,412.623 1949.15,406.351 1956.39,398.509 1964.16,385.105 1970.49,380.055 1976.12,378.933 2037.53,378.933 2046.42,382.001 2049.71,385.391 2061.28,403.921 2073.24,415.877 2087.3,425.269 2102.92,431.739 2119.5,435.037 2136.4,435.037 2152.98,431.739 2168.6,425.269 2182.66,415.877 2194.62,403.921 2204.01,389.861 2210.48,374.245 2213.78,357.663 2213.78,340.757 2210.48,324.177 2204.01,308.557 2194.62,294.497 2182.66,282.543 2168.61,273.151 2152.99,266.683 2136.4,263.383 2119.5,263.383 2102.91,266.683 2087.29,273.151 2073.24,282.543 2061.28,294.497 2047.77,315.335 2043.16,318.365 2037.53,319.487 1978.6,319.487 1972.95,318.345 1966.7,313.421 1959.87,298.823 1949.16,285.773 1936.66,277.421 1926.66,273.747 1912.31,271.901 1874.34,271.901 1860.43,274.319 1846.15,269.385 1842.54,265.393 1840.6,260.369 1840.52,232.119 1838.22,220.457 1831.61,210.601 1811.35,190.273 1808.88,184.595 1808.86,178.953 1813.78,157.665 1813.78,140.755 1810.48,124.177 1801.36,104.427 1799.34,97.5275 1800.64,91.0115 1805.86,84.8255 1814.04,82.3435 2605.99,82.3435 2611.62,83.4655 2616.4,86.6575 2641.27,111.523 2644.36,116.087 2645.39,123.885 2642.12,140.757 2642.12,157.665 2645.42,174.243 2651.89,189.865 2661.29,203.923 2673.24,215.877 2687.3,225.271 2702.92,231.739 2719.5,235.037 2736.43,235.037 2755.02,231.587 2763.41,234.063 2976.39,446.649 2979.58,451.427 2980.71,457.063 2980.46,1910.93 2976.39,1918.7 2763.6,2131.16 2755.25,2133.77 2736.42,2130.31 2719.5,2130.31 2702.92,2133.61 2687.3,2140.08 2673.24,2149.47 2661.28,2161.43 2651.89,2175.48 2645.42,2191.1 2642.12,2207.69 2642.12,2224.59 2645.42,2241.18 2651.89,2256.8 2661.28,2270.85 2673.24,2282.81 2687.3,2292.2 2702.92,2298.67 2719.5,2301.97 2736.4,2301.97 2752.98,2298.67 2768.6,2292.2 2782.66,2282.81 2794.62,2270.85 2804.01,2256.79 2810.48,2241.17 2813.78,2224.59 2813.78,2207.66 2810.32,2188.84 2812.94,2180.5 3039.82,1953.54 3044.3,1948.08 3049.5,1935.53 3050.19,436.843 3047.52,423.289 3039.82,411.813 2812.94,184.857 2810.32,176.509 2813.78,157.689 2813.78,140.755 2810.48,124.175 2804.01,108.555 2794.62,94.4995 2782.66,82.5435 2768.61,73.1515 2752.98,66.6835 2736.4,63.3835 2719.5,63.3835 2701.14,66.8155 2695.04,65.7175 2690.22,62.4815 2679.37,51.2235 2677.19,45.9415 2677.19,40.1955 2681.39,32.4975 2685.99,29.4655 2691.63,28.3435 3021.68,28.3435 3035.74,29.8455 3048.02,33.7615 3056.82,38.5215 3065.54,45.3915 3074.57,56.1415 3080.24,66.8335 3083.27,76.3635 3085.04,91.2835 3085.04,2470.5 3083.54,2484.56 3079.62,2496.84 3074.86,2505.64 3067.99,2514.36 3057.24,2523.39 3048.42,2528.27 3037.09,2532.06 3022.1,2533.86 91.7045,2533.86 78.7745,2532.58 67.2325,2529.22 56.5645,2523.68 47.4625,2516.48 38.5105,2505.66 33.1405,2495.37 29.6985,2483.85 28.3445,2470.92" style="stroke:rgb(49,88,163);stroke-width:9.448819;fill:none;stroke-opacity:0.5;stroke-linecap:round;stroke-linejoin:round;;fill:none"/>
<polyline points="28.3445,2470.92 28.3445,2222.53 31.3285,2213.67 35.8205,2209.73 40.5545,2208.04 46.5245,2208.23 50.2145,2209.68 58.0965,2216.76 67.7885,2222.84 71.0165,2229.66 71.7585,2241.66 73.7405,2248.19 76.9585,2254.2 86.4965,2264.86 88.6905,2270.15 88.9745,2322.57 88.0305,2327.77 85.0245,2332.6 73.4785,2341.2 69.1625,2346.46 63.9785,2358.97 63.2405,2435.89 63.9785,2443.39 69.1625,2455.9 78.7405,2465.48 91.2565,2470.66 155.98,2470.66 162.496,2468.69 173.76,2461.16 178.078,2455.9 183.262,2443.39 183.262,2358.97 178.078,2346.46 173.758,2341.2 162.214,2332.6 158.502,2325.22 158.456,2252.81 157.764,2245.79 150.794,2227.13 152.134,2220.06 159.16,2210.08 160.376,2203.61 160.018,2122.66 155.902,2114.96 144.292,2107.41 141.516,2102.85 140.548,2097.6 140.548,2044.97 141.536,2039.67 144.362,2035.08 148.652,2031.82 166.432,2027.74 172.434,2024.54 182.014,2014.96 187.198,2002.44 187.198,1918.03 182.014,1905.51 177.694,1900.25 165.718,1891.18 163.146,1886.82 162.202,1881.61 162.632,1842.23 167.23,1834.63 171.52,1832.01 177.408,1830.99 186.314,1834.34 238.108,1886.81 239.776,1892.31 239.274,1897.8 231.306,1911.51 228.594,1925.52 229.332,2002.44 234.514,2014.96 238.834,2020.22 250.098,2027.74 265.114,2031.63 269.736,2035.49 272.814,2042.19 273.03,2096.25 272.042,2101.56 267.036,2108.11 257.574,2111.73 252.752,2114.96 248.638,2122.65 248.28,2203.61 249.492,2210.08 252.752,2214.96 257.63,2218.22 264.104,2219.43 341.402,2219.43 350.474,2216.83 357.066,2210.16 362.17,2207.46 368.24,2206.96 372.14,2208.01 376.806,2211.14 525.356,2359.09 536.124,2363.55 565.586,2363.99 572.698,2366.06 578.298,2372.07 581.7,2382.97 584.91,2388.97 594.488,2398.55 600.492,2401.76 614.512,2404.47 664.11,2404.72 672.008,2408.93 675.626,2412.98 677.768,2418.2 677.766,2423.95 674.046,2431.14 668.958,2434.67 663.322,2435.79 364.914,2435.51 358.942,2432.78 349.418,2423.49 345.966,2417.18 344.678,2358.97 342.704,2352.46 335.176,2341.2 329.914,2336.88 317.4,2331.7 252.672,2331.7 246.162,2333.67 234.896,2341.2 227.37,2352.46 225.396,2358.97 224.658,2435.89 225.396,2443.39 230.578,2455.9 240.158,2465.48 252.676,2470.66 310.446,2471.8 317.572,2475.75 332.78,2490.35 343.55,2494.81 349.608,2495.41 1112.2,2495.41 1118.26,2494.81 1129.02,2490.35 1156.06,2463.92 1160.86,2460.71 1166.46,2459.59 1195.64,2459.4 1210.39,2456.47 1225.28,2448.51 1237.57,2437.09 1245.37,2434.84 1811.38,2434.84 1818.59,2436.73 1829.28,2443.74 1840.95,2446.03 2040.4,2446.15 2045.7,2448.35 2049.18,2451.69 2061.28,2470.85 2073.24,2482.81 2087.3,2492.2 2102.91,2498.67 2119.5,2501.97 2136.4,2501.97 2152.99,2498.67 2168.6,2492.2 2182.66,2482.81 2194.62,2470.85 2204.01,2456.79 2210.48,2441.17 2213.78,2424.59 2213.78,2407.69 2210.48,2391.11 2204.01,2375.49 2194.62,2361.43 2182.66,2349.47 2168.6,2340.08 2152.98,2333.61 2136.4,2330.31 2119.5,2330.31 2102.92,2333.61 2087.3,2340.08 2073.24,2349.47 2061.28,2361.43 2049.18,2380.59 2045.7,2383.93 2040.4,2386.13 1874.14,2386.42 1865.96,2383.93 1861.66,2379.47 1859.41,2371.69 1859.58,2170.01 1857.29,2158.36 1850.66,2148.49 1694.7,1992.52 1684.83,1985.9 1673.16,1983.6 1317.79,1983.77 1312.34,1982.71 1306.66,1978.67 1303.15,1970.43 1306.05,1955.57 1306.05,1854.66 1303.44,1845.58 1296.7,1840.05 1290.21,1838.83 1244.43,1838.83 1237.89,1840.06 1231.18,1843.28 1223.86,1843.49 1217.37,1840.1 1207.79,1830.59 1204.67,1825.47 1203.85,1819.53 1205.47,1813.76 1209.26,1809.11 1224.49,1803.44 1232.61,1796.01 1237.97,1794.25 1257.32,1793.31 1267.57,1790.2 1277.01,1785.15 1285.31,1778.34 1616.05,1447.23 1620.82,1444.03 1626.46,1442.91 2207.1,1442.13 2217.35,1439.02 2226.78,1433.98 2235.06,1427.19 2241.85,1418.91 2246.89,1409.47 2250,1399.23 2251.05,1388.58 2250,1377.93 2246.88,1367.65 2242.37,1358.67 2241.87,1352.44 2244.59,1345.53 2252.86,1337.36 2261.31,1325.39 2266.09,1314.63 2265.14,1313.31 2232.85,1313.31 2226.31,1321 2218.5,1326.77 2210.08,1330.52 2200.57,1332.46 2191.36,1332.36 2182.83,1330.52 2174.85,1326.99 2166.6,1321 2160.06,1313.31 2127.77,1313.31 2126.71,1314.77 2127.32,1322.37 2125.22,1327.55 2120.75,1331.95 2112.88,1334.25 1597.89,1333.99 1587.2,1335.04 1576.96,1338.14 1572.14,1340.72 1282.33,1630.54 1274.29,1635.3 1236.2,1673.1 1228.48,1675.8 1215.42,1673.48 1169.61,1673.48 1163.14,1674.69 1158.26,1677.95 1154.15,1685.65 1152.93,1701 1142.08,1718.87 1138.97,1729.11 1137.92,1739.76 1138.97,1750.41 1142.07,1760.63 1148.59,1772.57 1150.04,1778.39 1149.04,1784.3 1146.42,1788.61 1141.65,1792.23 1137.86,1793.43 980.084,1793.39 974.854,1791.27 970.806,1787.33 968.556,1782.22 968.166,1776.45 964.076,1772.36 937.4,1772.36 937.04,1780.94 933.598,1783.77 860.002,1783.5 857.882,1781.76 857.086,1779.13 857.086,1716.14 857.882,1713.52 860.002,1711.78 872.516,1711.42 872.516,1684.74 868.528,1680.75 854.892,1681.37 848.242,1683.39 836.744,1691.08 829.058,1702.57 824.348,1725.31 818.182,1731.1 812.402,1732.61 798.286,1730.51 361.986,1730.66 355.532,1728.91 351.364,1725.6 343.432,1708.66 333.854,1699.09 327.85,1695.88 313.842,1693.16 256.082,1693.67 249.7,1691.47 245.324,1687.23 242.8,1679.02 242.8,1439.07 245.284,1430.89 249.348,1426.83 257.068,1424.37 292.81,1431.89 320.574,1431.89 347.802,1426.47 373.452,1415.85 396.538,1400.42 416.182,1380.78 428.85,1362.26 436.536,1358.08 442.28,1358.08 447.588,1360.27 451.65,1364.34 453.848,1369.64 453.964,1428.5 454.562,1434.57 459.02,1445.33 565.686,1552 576.454,1556.46 582.516,1557.05 666.9,1557.13 671.888,1559.04 675.734,1562.43 680.018,1570.95 684.162,1575.1 693.238,1577.7 758.442,1577.34 766.14,1573.23 770.254,1565.53 770.614,1492.45 769.398,1485.98 763.86,1479.23 754.786,1476.63 689.582,1476.99 681.888,1481.1 675.734,1491.9 671.89,1495.29 666.9,1497.2 597.37,1497.04 590.282,1493.13 517.894,1420.74 514.702,1415.96 513.58,1410.32 513.746,1236.73 511.448,1225.06 504.826,1215.2 342.698,1053.3 338.666,1045.76 338.596,897.223 342.202,889.811 353.538,882.801 363.118,873.221 368.3,860.709 368.3,776.293 363.118,763.781 353.536,754.201 341.022,749.017 319.144,748.279 313.09,746.959 306.464,740.917 304.702,736.427 304.702,730.681 308.734,723.141 485.144,546.965 492.448,538.207 503.148,532.405 508.404,528.091 512.724,522.829 519.028,507.547 522.594,503.151 528.752,500.081 536.662,500.447 542.508,504.073 546.518,511.741 557.224,501.035 557.532,348.285 560.786,340.429 577.558,323.221 577.688,107.333 579.614,100.081 584.79,92.4995 591.096,88.0335 601.504,85.4555 641.338,85.4315 648.422,86.4835 654.898,89.5455 660.206,94.3555 663.888,100.499 665.616,107.333 665.746,503.541 664.044,512.447 661.356,517.475 654.5,524.075 646.376,527.405 646.376,554.627 650.338,558.589 667.936,557.991 674.586,555.975 686.082,548.291 693.77,536.789 695.786,530.143 696.552,513.947 697.938,508.169 703.106,502.169 709.564,499.803 717.384,501.045 722.794,505.297 730.58,522.831 741.442,534.041 743.576,537.829 744.486,542.925 744.486,735.899 743.056,742.189 739.456,746.959 735.164,749.577 726.3,750.193 720.358,747.225 707.868,734.515 695.354,729.333 687.858,728.595 638.124,728.595 630.622,729.333 618.11,734.517 608.532,744.095 603.346,756.611 603.346,841.023 608.53,853.537 618.112,863.117 630.626,868.301 638.124,869.039 695.352,868.301 707.868,863.117 721.544,849.565 726.722,847.355 733.796,847.545 739.196,850.373 750.642,866.671 760.63,873.803 764.046,877.717 766.126,885.211 765.028,891.153 761.182,896.525 750.642,904.189 746.326,909.449 741.144,921.963 740.406,929.461 741.144,1006.38 746.328,1018.89 750.612,1024.12 760.514,1032 763.228,1036.53 764.172,1041.72 763.986,1056.54 762.02,1061.96 758.45,1065.95 748.816,1071.65 744.702,1079.35 744.342,1113.45 742.784,1119.9 740.028,1123.86 736.068,1126.62 730.538,1128.08 723.982,1127.05 719.206,1123.86 535.61,940.265 532.854,936.305 531.296,929.855 531.296,880.023 532.182,875.001 536.906,868.459 546.428,863.135 556.032,853.537 561.212,841.023 561.952,833.523 561.212,756.611 556.03,744.093 551.714,738.835 540.45,731.307 533.936,729.333 469.208,729.333 456.694,734.515 451.432,738.835 447.112,744.095 441.93,756.607 441.93,841.027 447.112,853.537 451.432,858.797 466.238,868.459 470.962,875.001 471.848,880.033 472.278,954.093 476.734,964.859 480.598,969.565 768.538,1256.66 779.302,1261.12 785.364,1261.72 898.446,1261.55 906.634,1264.03 1067.62,1424.15 1070.2,1428.57 1071.11,1433.67 1071.11,1465.02 1069.99,1470.65 1066.8,1475.43 1062.02,1478.62 1056.39,1479.74 1019.04,1479.74 1013.4,1478.62 1008.62,1475.42 882.148,1348.71 872.278,1342.09 851.634,1338.21 847.354,1334.74 842.814,1325.9 838.666,1321.75 829.59,1319.15 768.042,1319.15 761.566,1320.36 754.82,1325.9 752.214,1334.98 752.214,1404.39 753.432,1410.87 756.69,1415.75 761.566,1419.01 768.044,1420.22 829.59,1420.22 836.064,1419.01 848.578,1410.41 854.65,1409.91 860.408,1411.91 880.758,1431.66 884.426,1438.63 883.638,1447.37 878.238,1453.95 875.986,1462.22 870.982,1466.91 862.698,1468.86 857.984,1467.83 853.924,1465.23 844.856,1456.29 834.996,1457.04 864.96,1487.01 906.924,1487.37 909.75,1490.81 909.84,1502.44 938.07,1502.44 944.272,1501.02 949.676,1502.13 954.468,1505.34 984.034,1534.3 994.8,1538.76 1201.43,1539.35 1207.49,1538.76 1218.25,1534.3 1240.09,1513.3 1246.72,1503.43 1249.01,1491.77 1248.87,1434.25 1251.86,1425.85 1258.23,1421.03 1265.11,1420.11 1269.97,1421.49 1281.89,1428 1292.1,1431.1 1302.75,1432.15 1313.4,1431.1 1323.65,1428 1341.51,1417.15 1356.86,1415.92 1364.57,1411.81 1367.82,1406.93 1369.04,1400.46 1369.04,1354.66 1366.72,1341.75 1369.3,1334.03 1455.76,1247.23 1463.3,1243.2 2112.88,1242.91 2120.33,1245.01 2125.09,1249.42 2126.82,1253.11 2127.6,1257.7 2126.71,1262.39 2127.77,1263.86 2160.06,1263.86 2166.6,1256.16 2174.85,1250.17 2182.83,1246.65 2191.36,1244.81 2200.57,1244.7 2210.08,1246.65 2218.5,1250.4 2226.31,1256.16 2232.85,1263.86 2265.14,1263.86 2266.09,1262.53 2261.31,1251.77 2250.95,1235.19 2250.57,1146.28 2246.45,1138.58 2238.76,1134.47 1437.61,1133.99 1426.92,1135.04 1416.68,1138.14 1407.24,1143.19 1398.94,1150 1272.13,1276.89 1266.45,1279.36 1260.7,1279.36 1254.68,1276.58 1249.89,1270.34 1248.85,1264.92 1249.04,1125.28 1251.21,1119.25 1287.97,1082.01 1292.75,1078.82 1298.38,1077.7 1352.84,1076.96 1365.35,1071.78 1370.61,1067.46 1378.14,1056.2 1380.85,1042.19 1380.85,992.453 1377.1,973.997 1377.71,968.359 1380.38,963.397 1559.5,784.851 1563.47,782.093 1569.92,780.535 1575.97,781.855 1581.57,786.365 1584.09,791.501 1583.07,832.385 1588.49,859.613 1599.11,885.263 1614.54,908.349 1634.17,927.981 1657.25,943.405 1682.9,954.029 1710.13,959.445 1737.9,959.445 1765.13,954.029 1790.78,943.405 1813.86,927.981 1833.49,908.349 1848.92,885.263 1859.54,859.613 1864.96,832.383 1864.96,804.621 1859.54,777.389 1848.92,751.739 1833.49,728.653 1813.86,709.023 1790.78,693.599 1765.13,682.973 1737.9,677.557 1710.08,677.557 1700.72,679.131 1695.14,678.011 1688.41,672.391 1686.33,667.279 1686.33,661.533 1689.12,655.511 1923.08,421.281 1940.54,412.623 1949.15,406.351 1956.39,398.509 1964.16,385.105 1970.49,380.055 1976.12,378.933 2037.53,378.933 2046.42,382.001 2049.71,385.391 2061.28,403.921 2073.24,415.877 2087.3,425.269 2102.92,431.739 2119.5,435.037 2136.4,435.037 2152.98,431.739 2168.6,425.269 2182.66,415.877 2194.62,403.921 2204.01,389.861 2210.48,374.245 2213.78,357.663 2213.78,340.757 2210.48,324.177 2204.01,308.557 2194.62,294.497 2182.66,282.543 2168.61,273.151 2152.99,266.683 2136.4,263.383 2119.5,263.383 2102.91,266.683 2087.29,273.151 2073.24,282.543 2061.28,294.497 2047.77,315.335 2043.16,318.365 2037.53,319.487 1978.6,319.487 1972.95,318.345 1966.7,313.421 1959.87,298.823 1949.16,285.773 1936.66,277.421 1926.66,273.747 1912.31,271.901 1874.34,271.901 1860.43,274.319 1846.15,269.385 1842.54,265.393 1840.6,260.369 1840.52,232.119 1838.22,220.457 1831.61,210.601 1811.35,190.273 1808.88,184.595 1808.86,178.953 1813.78,157.665 1813.78,140.755 1810.48,124.177 1801.36,104.427 1799.34,97.5275 1800.64,91.0115 1805.86,84.8255 1814.04,82.3435 2605.99,82.3435 2611.62,83.4655 2616.4,86.6575 2641.27,111.523 2644.36,116.087 2645.39,123.885 2642.12,140.757 2642.12,157.665 2645.42,174.243 2651.89,189.865 2661.29,203.923 2673.24,215.877 2687.3,225.271 2702.92,231.739 2719.5,235.037 2736.43,235.037 2755.02,231.587 2763.41,234.063 2976.39,446.649 2979.58,451.427 2980.71,457.063 2980.46,1910.93 2976.39,1918.7 2763.6,2131.16 2755.25,2133.77 2736.42,2130.31 2719.5,2130.31 2702.92,2133.61 2687.3,2140.08 2673.24,2149.47 2661.28,2161.43 2651.89,2175.48 2645.42,2191.1 2642.12,2207.69 2642.12,2224.59 2645.42,2241.18 2651.89,2256.8 2661.28,2270.85 2673.24,2282.81 2687.3,2292.2 2702.92,2298.67 2719.5,2301.97 2736.4,2301.97 2752.98,2298.67 2768.6,2292.2 2782.66,2282.81 2794.62,2270.85 2804.01,2256.79 2810.48,2241.17 2813.78,2224.59 2813.78,2207.66 2810.32,2188.84 2812.94,2180.5 3039.82,1953.54 3044.3,1948.08 3049.5,1935.53 3050.19,436.843 3047.52,423.289 3039.82,411.813 2812.94,184.857 2810.32,176.509 2813.78,157.689 2813.78,140.755 2810.48,124.175 2804.01,108.555 2794.62,94.4995 2782.66,82.5435 2768.61,73.1515 2752.98,66.6835 2736.4,63.3835 2719.5,63.3835 2701.14,66.8155 2695.04,65.7175 2690.22,62.4815 2679.37,51.2235 2677.19,45.9415 2677.19,40.1955 2681.39,32.4975 2685.99,29.4655 2691.63,28.3435 3021.68,28.3435 3035.74,29.8455 3048.02,33.7615 3056.82,38.5215 3065.54,45.3915 3074.57,56.1415 3080.24,66.8335 3083.27,76.3635 3085.04,91.2835 3085.04,2470.5 3083.54,2484.56 3079.62,2496.84 3074.86,2505.64 3067.99,2514.36 3057.24,2523.39 3048.42,2528.27 3037.09,2532.06 3022.1,2533.86 91.7045,2533.86 78.7745,2532.58 67.2325,2529.22 56.5645,2523.68 47.4625,2516.48 38.5105,2505.66 33.1405,2495.37 29.6985,2483.85 28.3445,2470.92" style="stroke:rgb(0,0,0);stroke-width:1px;fill:none;stroke-opacity:1;stroke-linecap:round;stroke-linejoin:round;;fill:none"/>
<polyline points="806.618,1562.01 806.734,1555.88 810.722,1551.89 837.4,1551.89 838.196,1565.22 841.202,1567.23 848.894,1567.32 848.894,1594 844.856,1598.04 842.648,1598.1 835.208,1597.36 822.432,1592.07 812.652,1582.29 809.376,1576.16 806.618,1562.01" style="stroke:rgb(49,88,163);stroke-width:9.448819;fill:none;stroke-opacity:0.5;stroke-linecap:round;stroke-linejoin:round;;fill:none"/>
<polyline points="806.618,1562.01 806.734,1555.88 810.722,1551.89 837.4,1551.89 838.196,1565.22 841.202,1567.23 848.894,1567.32 848.894,1594 844.856,1598.04 842.648,1598.1 835.208,1597.36 822.432,1592.07 812.652,1582.29 809.376,1576.16 806.618,1562.01" style="stroke:rgb(0,0,0);stroke-width:1px;fill:none;stroke-opacity:1;stroke-linecap:round;stroke-linejoin:round;;fill:none"/>
<polyline points="898.344,1590.3 898.344,1567.32 906.038,1567.23 909.044,1565.22 909.84,1551.89 936.516,1551.89 940.504,1555.88 939.882,1569.51 937.864,1576.16 934.588,1582.29 924.808,1592.07 912.344,1597.27 905.314,1597.27 898.344,1590.3" style="stroke:rgb(49,88,163);stroke-width:9.448819;fill:none;stroke-opacity:0.5;stroke-linecap:round;stroke-linejoin:round;;fill:none"/>
<polyline points="898.344,1590.3 898.344,1567.32 906.038,1567.23 909.044,1565.22 909.84,1551.89 936.516,1551.89 940.504,1555.88 939.882,1569.51 937.864,1576.16 934.588,1582.29 924.808,1592.07 912.344,1597.27 905.314,1597.27 898.344,1590.3" style="stroke:rgb(0,0,0);stroke-width:1px;fill:none;stroke-opacity:1;stroke-linecap:round;stroke-linejoin:round;;fill:none"/>
<polyline points="921.966,1711.42 921.966,1684.74 925.954,1680.75 939.59,1681.37 952.368,1686.67 962.148,1696.45 967.44,1709.22 968.114,1718.87 964.076,1722.91 937.4,1722.91 937.31,1715.22 935.3,1712.21 921.966,1711.42" style="stroke:rgb(49,88,163);stroke-width:9.448819;fill:none;stroke-opacity:0.5;stroke-linecap:round;stroke-linejoin:round;;fill:none"/>
<polyline points="921.966,1711.42 921.966,1684.74 925.954,1680.75 939.59,1681.37 952.368,1686.67 962.148,1696.45 967.44,1709.22 968.114,1718.87 964.076,1722.91 937.4,1722.91 937.31,1715.22 935.3,1712.21 921.966,1711.42" style="stroke:rgb(0,0,0);stroke-width:1px;fill:none;stroke-opacity:1;stroke-linecap:round;stroke-linejoin:round;;fill:none"/>
<polyline points="806.618,1492.32 806.734,1498.45 810.722,1502.44 825.272,1502.44 807.434,1484.6 806.618,1492.32" style="stroke:rgb(49,88,163);stroke-width:9.448819;fill:none;stroke-opacity:0.5;stroke-linecap:round;stroke-linejoin:round;;fill:none"/>
<polyline points="806.618,1492.32 806.734,1498.45 810.722,1502.44 825.272,1502.44 807.434,1484.6 806.618,1492.32" style="stroke:rgb(0,0,0);stroke-width:1px;fill:none;stroke-opacity:1;stroke-linecap:round;stroke-linejoin:round;;fill:none"/>
<polyline points="561.542,551.839 568.716,555.975 575.364,557.991 592.964,558.589 596.924,554.627 596.924,527.403 589.13,524.251 561.542,551.839" style="stroke:rgb(49,88,163);stroke-width:9.448819;fill:none;stroke-opacity:0.5;stroke-linecap:round;stroke-linejoin:round;;fill:none"/>
<polyline points="561.542,551.839 568.716,555.975 575.364,557.991 592.964,558.589 596.924,554.627 596.924,527.403 589.13,524.251 561.542,551.839" style="stroke:rgb(0,0,0);stroke-width:1px;fill:none;stroke-opacity:1;stroke-linecap:round;stroke-linejoin:round;;fill:none"/>
<polyline points="1583.07,1777.27 1583.07,1749.5 1588.49,1722.27 1599.11,1696.62 1614.53,1673.54 1634.17,1653.91 1657.25,1638.48 1682.9,1627.86 1710.13,1622.44 1737.9,1622.44 1765.13,1627.86 1790.78,1638.48 1813.86,1653.91 1833.49,1673.54 1848.92,1696.62 1859.54,1722.27 1864.96,1749.5 1864.96,1777.27 1859.54,1804.5 1848.92,1830.15 1833.49,1853.23 1813.86,1872.86 1790.78,1888.29 1765.13,1898.91 1737.89,1904.33 1710.13,1904.33 1682.9,1898.91 1657.25,1888.29 1634.17,1872.86 1614.53,1853.23 1599.11,1830.15 1588.49,1804.5 1583.07,1777.27" style="stroke:rgb(49,88,163);stroke-width:9.448819;fill:none;stroke-opacity:0.5;stroke-linecap:round;stroke-linejoin:round;;fill:none"/>
<polyline points="1583.07,1777.27 1583.07,1749.5 1588.49,1722.27 1599.11,1696.62 1614.53,1673.54 1634.17,1653.91 1657.25,1638.48 1682.9,1627.86 1710.13,1622.44 1737.9,1622.44 1765.13,1627.86 1790.78,1638.48 1813.86,1653.91 1833.49,1673.54 1848.92,1696.62 1859.54,1722.27 1864.96,1749.5 1864.96,1777.27 1859.54,1804.5 1848.92,1830.15 1833.49,1853.23 1813.86,1872.86 1790.78,1888.29 1765.13,1898.91 1737.89,1904.33 1710.13,1904.33 1682.9,1898.91 1657.25,1888.29 1634.17,1872.86 1614.53,1853.23 1599.11,1830.15 1588.49,1804.5 1583.07,1777.27" style="stroke:rgb(0,0,0);stroke-width:1px;fill:none;stroke-opacity:1;stroke-linecap:round;stroke-linejoin:round;;fill:none"/>
<polyline points="2527.95,1777.27 2527.95,1749.5 2533.37,1722.27 2543.99,1696.62 2559.42,1673.54 2579.05,1653.91 2602.13,1638.48 2627.78,1627.86 2655.01,1622.44 2682.78,1622.44 2710.01,1627.86 2735.66,1638.48 2758.74,1653.91 2778.37,1673.54 2793.8,1696.62 2804.42,1722.27 2809.84,1749.5 2809.84,1777.27 2804.42,1804.5 2793.8,1830.15 2778.37,1853.23 2758.74,1872.86 2735.66,1888.29 2710.01,1898.91 2682.78,1904.33 2655.01,1904.33 2627.78,1898.91 2602.13,1888.29 2579.05,1872.86 2559.42,1853.23 2543.99,1830.15 2533.37,1804.5 2527.95,1777.27" style="stroke:rgb(49,88,163);stroke-width:9.448819;fill:none;stroke-opacity:0.5;stroke-linecap:round;stroke-linejoin:round;;fill:none"/>
<polyline points="2527.95,1777.27 2527.95,1749.5 2533.37,1722.27 2543.99,1696.62 2559.42,1673.54 2579.05,1653.91 2602.13,1638.48 2627.78,1627.86 2655.01,1622.44 2682.78,1622.44 2710.01,1627.86 2735.66,1638.48 2758.74,1653.91 2778.37,1673.54 2793.8,1696.62 2804.42,1722.27 2809.84,1749.5 2809.84,1777.27 2804.42,1804.5 2793.8,1830.15 2778.37,1853.23 2758.74,1872.86 2735.66,1888.29 2710.01,1898.91 2682.78,1904.33 2655.01,1904.33 2627.78,1898.91 2602.13,1888.29 2579.05,1872.86 2559.42,1853.23 2543.99,1830.15 2533.37,1804.5 2527.95,1777.27" style="stroke:rgb(0,0,0);stroke-width:1px;fill:none;stroke-opacity:1;stroke-linecap:round;stroke-linejoin:round;;fill:none"/>
<polyline points="2527.95,832.383 2527.95,804.621 2533.37,777.389 2543.99,751.737 2559.42,728.655 2579.05,709.023 2602.13,693.599 2627.78,682.973 2655.01,677.557 2682.78,677.557 2710.01,682.973 2735.66,693.599 2758.74,709.023 2778.37,728.655 2793.8,751.739 2804.42,777.389 2809.84,804.619 2809.84,832.383 2804.42,859.613 2793.8,885.263 2778.37,908.349 2758.74,927.981 2735.66,943.405 2710.01,954.029 2682.78,959.445 2655.01,959.445 2627.78,954.029 2602.13,943.405 2579.05,927.981 2559.42,908.349 2543.99,885.265 2533.37,859.613 2527.95,832.383" style="stroke:rgb(49,88,163);stroke-width:9.448819;fill:none;stroke-opacity:0.5;stroke-linecap:round;stroke-linejoin:round;;fill:none"/>
<polyline points="2527.95,832.383 2527.95,804.621 2533.37,777.389 2543.99,751.737 2559.42,728.655 2579.05,709.023 2602.13,693.599 2627.78,682.973 2655.01,677.557 2682.78,677.557 2710.01,682.973 2735.66,693.599 2758.74,709.023 2778.37,728.655 2793.8,751.739 2804.42,777.389 2809.84,804.619 2809.84,832.383 2804.42,859.613 2793.8,885.263 2778.37,908.349 2758.74,927.981 2735.66,943.405 2710.01,954.029 2682.78,959.445 2655.01,959.445 2627.78,954.029 2602.13,943.405 2579.05,927.981 2559.42,908.349 2543.99,885.265 2533.37,859.613 2527.95,832.383" style="stroke:rgb(0,0,0);stroke-width:1px;fill:none;stroke-opacity:1;stroke-linecap:round;stroke-linejoin:round;;fill:none"/>
<polyline points="762.596,1405.12 762.596,1334.25 763.98,1330.91 767.322,1329.53 831.236,1329.62 833.654,1330.91 834.948,1333.33 835.038,1350.19 861.31,1350.22 867.868,1351.52 872.046,1353.76 1008.7,1489.97 1193.59,1489.97 1199.63,1483.93 1199.63,1108.83 1200.96,1101.8 1205.34,1095.04 1251.57,1048.81 1250.97,988.879 1253.91,979.827 1259.8,972.789 1265.85,969.179 1272.68,967.453 1346.06,967.321 1355.82,969.377 1364.93,976.245 1368.61,982.389 1370.34,989.219 1370.47,1042.9 1368.77,1051.82 1363.63,1059.83 1355.82,1065.27 1348.57,1067.19 1288.19,1067.32 1238.61,1116.9 1238.59,1492.46 1237.28,1499.02 1235.05,1503.2 1212.86,1525.39 1208.68,1527.62 1201.66,1528.95 996.376,1528.46 986.846,1523.24 852.774,1389.17 835.038,1389.17 834.948,1406.04 833.654,1408.46 831.236,1409.75 767.322,1409.84 763.98,1408.46 762.596,1405.12" style="stroke:rgb(90,37,93);stroke-width:9.448819;fill:none;stroke-opacity:0.5;stroke-linecap:round;stroke-linejoin:round;;fill:none"/>
<polyline points="762.596,1405.12 762.596,1334.25 763.98,1330.91 767.322,1329.53 831.236,1329.62 833.654,1330.91 834.948,1333.33 835.038,1350.19 861.31,1350.22 867.868,1351.52 872.046,1353.76 1008.7,1489.97 1193.59,1489.97 1199.63,1483.93 1199.63,1108.83 1200.96,1101.8 1205.34,1095.04 1251.57,1048.81 1250.97,988.879 1253.91,979.827 1259.8,972.789 1265.85,969.179 1272.68,967.453 1346.06,967.321 1355.82,969.377 1364.93,976.245 1368.61,982.389 1370.34,989.219 1370.47,1042.9 1368.77,1051.82 1363.63,1059.83 1355.82,1065.27 1348.57,1067.19 1288.19,1067.32 1238.61,1116.9 1238.59,1492.46 1237.28,1499.02 1235.05,1503.2 1212.86,1525.39 1208.68,1527.62 1201.66,1528.95 996.376,1528.46 986.846,1523.24 852.774,1389.17 835.038,1389.17 834.948,1406.04 833.654,1408.46 831.236,1409.75 767.322,1409.84 763.98,1408.46 762.596,1405.12" style="stroke:rgb(0,0,0);stroke-width:1px;fill:none;stroke-opacity:1;stroke-linecap:round;stroke-linejoin:round;;fill:none"/>
<polyline points="24.4085,1684.65 24.8085,762.307 26.4645,756.849 31.2465,749.693 35.6545,746.075 43.8145,742.915 195.668,591.065 195.69,92.5735 197.724,83.2755 202.506,76.1195 241.13,37.4615 248.63,32.3695 258.392,30.3135 673.028,30.8955 680.98,34.1895 685.078,37.4635 741.272,93.6595 749.688,87.4875 757.518,85.5275 801.326,85.5615 808.578,87.4875 815.734,92.2695 821.17,100.081 823.096,107.331 823.224,180.279 838.522,195.577 848.936,194.663 855.674,195.627 1020.86,30.4375 1028.36,25.3455 1037.66,23.3115 2630.74,23.6895 2636.2,25.3455 2643.7,30.4375 2694.88,81.6175 2704.59,77.3215 2719.56,74.1135 2736.34,74.1135 2751.31,77.3215 2765.31,83.5235 2778.88,93.3875 2789.11,104.781 2796.78,118.025 2801.97,133.983 2803.52,148.717 2801.97,164.439 2795.64,182.377 3032.61,419.351 3037.7,426.851 3039.76,436.613 3039.36,1933.04 3037.7,1938.5 3032.61,1946 2795.64,2182.97 2801.76,2199.95 2803.52,2215.65 2801.97,2231.37 2797.01,2246.89 2789.11,2260.57 2778.88,2271.97 2765.75,2281.6 2751.77,2287.85 2735.36,2291.34 2719.56,2291.24 2704.59,2288.03 2690.16,2281.6 2677.76,2272.63 2666.8,2260.57 2658.72,2246.43 2654.14,2232.34 2652.39,2216.64 2654.14,2199.95 2658.9,2185.4 2666.53,2172.12 2677.76,2159.66 2690.16,2150.68 2705.07,2144.12 2720.54,2140.94 2735.36,2140.94 2751.31,2144.25 2761.02,2148.55 2990.94,1918.63 2990.94,446.723 2761.03,216.805 2751.31,221.101 2736.34,224.311 2719.56,224.311 2704.59,221.101 2690.6,214.899 2677.02,205.037 2666.8,193.643 2659.12,180.397 2653.94,164.439 2652.39,149.705 2653.94,133.983 2660.26,116.043 2616.33,72.1075 1048.23,72.1075 890.194,230.147 891.158,236.391 890.572,246.079 888.288,254.501 883.814,263.113 878.302,269.877 823.226,324.955 823.132,505.473 822.02,511.065 817.374,519.371 810.722,524.831 803.54,527.303 803.54,746.849 826.84,746.871 835.824,748.753 841.862,752.389 846.672,757.697 850.692,769.323 850.786,842.119 849.768,849.099 845.522,857.237 841.49,861.269 831.808,865.879 825.194,866.533 825.194,904.329 835.282,906.031 843.294,911.167 847.014,915.783 850.692,926.803 850.786,999.599 849.768,1006.58 845.522,1014.72 838.28,1020.89 833.012,1023.08 823.226,1023.97 823.226,1077.56 839.11,1077.65 841.528,1078.94 842.822,1081.36 842.912,1161.02 841.528,1164.36 838.188,1165.75 759.448,1165.75 756.822,1164.95 754.814,1161.94 754.814,1081.36 756.106,1078.94 758.526,1077.65 774.408,1077.56 774.408,1023.79 766.29,1022.31 758.278,1017.18 754.662,1012.77 751.368,1004.82 750.808,928.275 752.842,918.979 759.71,909.869 766.29,906.031 776.376,904.329 776.376,866.477 765.234,864.363 759.366,860.681 753.906,854.029 750.88,844.071 750.804,823.225 712.966,823.225 712.806,837.101 709.87,846.155 702.142,854.547 690.52,858.565 637.408,858.659 630.314,857.609 623.466,854.271 617.38,848.185 614.042,841.337 613.042,834.943 613.176,760.533 617.104,749.823 625.496,742.095 637.4,738.975 688.582,738.975 697.486,740.677 705.498,745.813 711.176,754.151 712.858,760.863 712.966,774.407 750.786,774.407 751.368,766.047 754.722,758.227 754.722,527.467 746.284,524.075 741.876,520.459 736.74,512.447 735.038,503.541 735.038,161.133 716.622,142.685 710.718,132.145 657.706,79.1315 268.502,79.1315 244.486,103.147 243.904,606.387 240.612,614.339 237.336,618.437 73.2265,782.535 73.2265,1674.53 102.312,1703.62 153.142,1703.54 160.234,1704.59 166.104,1707.31 173.508,1714.49 176.506,1720.87 177.558,1727.95 177.558,1798.82 176.538,1805.79 172.294,1813.93 168.26,1817.96 158.58,1822.57 151.966,1823.23 151.966,1900.39 158.58,1901.05 168.976,1906.25 174.874,1913.72 177.506,1924.11 177.156,1999.97 172.016,2011.15 166.71,2015.96 160.882,2018.78 153.148,2020.08 130.312,2020.08 130.312,2120.87 146.196,2120.96 149.202,2122.97 149.998,2125.59 149.908,2205.25 148.614,2207.67 146.196,2208.96 130.312,2209.05 130.312,2224.75 143.638,2238.65 147.628,2248.28 148.028,2341.34 158.116,2343.04 166.128,2348.18 171.564,2355.99 173.598,2365.28 173.384,2439.69 171.762,2445.95 168.08,2452.1 162.374,2457.15 153.514,2460.62 98.0305,2461.02 91.0565,2460 82.9185,2455.76 78.1625,2450.72 73.8065,2439.46 73.7165,2363.82 74.5585,2359.11 77.6725,2352.28 84.0965,2345.73 92.8185,2341.92 99.2105,2341.34 99.2105,2262.69 88.3325,2251.78 83.1965,2243.77 81.5165,2235.33 81.4945,2209.05 65.6125,2208.96 63.1945,2207.67 61.9005,2205.25 61.8105,2125.59 62.6065,2122.97 65.6125,2120.96 81.4945,2120.87 81.4945,2008.83 78.5765,2002.64 77.5585,1995.66 77.6525,1922.87 81.3285,1911.85 85.0505,1907.23 93.0625,1902.1 103.148,1900.39 103.148,1823.17 93.2865,1821.59 86.5725,1817.76 82.8225,1813.93 78.5765,1805.79 77.5585,1798.82 77.5585,1747.91 31.2465,1701.56 26.1105,1693.55 24.4085,1684.65" style="stroke:rgb(5,23,88);stroke-width:9.448819;fill:none;stroke-opacity:0.5;stroke-linecap:round;stroke-linejoin:round;;fill:none"/>
<polyline points="24.4085,1684.65 24.8085,762.307 26.4645,756.849 31.2465,749.693 35.6545,746.075 43.8145,742.915 195.668,591.065 195.69,92.5735 197.724,83.2755 202.506,76.1195 241.13,37.4615 248.63,32.3695 258.392,30.3135 673.028,30.8955 680.98,34.1895 685.078,37.4635 741.272,93.6595 749.688,87.4875 757.518,85.5275 801.326,85.5615 808.578,87.4875 815.734,92.2695 821.17,100.081 823.096,107.331 823.224,180.279 838.522,195.577 848.936,194.663 855.674,195.627 1020.86,30.4375 1028.36,25.3455 1037.66,23.3115 2630.74,23.6895 2636.2,25.3455 2643.7,30.4375 2694.88,81.6175 2704.59,77.3215 2719.56,74.1135 2736.34,74.1135 2751.31,77.3215 2765.31,83.5235 2778.88,93.3875 2789.11,104.781 2796.78,118.025 2801.97,133.983 2803.52,148.717 2801.97,164.439 2795.64,182.377 3032.61,419.351 3037.7,426.851 3039.76,436.613 3039.36,1933.04 3037.7,1938.5 3032.61,1946 2795.64,2182.97 2801.76,2199.95 2803.52,2215.65 2801.97,2231.37 2797.01,2246.89 2789.11,2260.57 2778.88,2271.97 2765.75,2281.6 2751.77,2287.85 2735.36,2291.34 2719.56,2291.24 2704.59,2288.03 2690.16,2281.6 2677.76,2272.63 2666.8,2260.57 2658.72,2246.43 2654.14,2232.34 2652.39,2216.64 2654.14,2199.95 2658.9,2185.4 2666.53,2172.12 2677.76,2159.66 2690.16,2150.68 2705.07,2144.12 2720.54,2140.94 2735.36,2140.94 2751.31,2144.25 2761.02,2148.55 2990.94,1918.63 2990.94,446.723 2761.03,216.805 2751.31,221.101 2736.34,224.311 2719.56,224.311 2704.59,221.101 2690.6,214.899 2677.02,205.037 2666.8,193.643 2659.12,180.397 2653.94,164.439 2652.39,149.705 2653.94,133.983 2660.26,116.043 2616.33,72.1075 1048.23,72.1075 890.194,230.147 891.158,236.391 890.572,246.079 888.288,254.501 883.814,263.113 878.302,269.877 823.226,324.955 823.132,505.473 822.02,511.065 817.374,519.371 810.722,524.831 803.54,527.303 803.54,746.849 826.84,746.871 835.824,748.753 841.862,752.389 846.672,757.697 850.692,769.323 850.786,842.119 849.768,849.099 845.522,857.237 841.49,861.269 831.808,865.879 825.194,866.533 825.194,904.329 835.282,906.031 843.294,911.167 847.014,915.783 850.692,926.803 850.786,999.599 849.768,1006.58 845.522,1014.72 838.28,1020.89 833.012,1023.08 823.226,1023.97 823.226,1077.56 839.11,1077.65 841.528,1078.94 842.822,1081.36 842.912,1161.02 841.528,1164.36 838.188,1165.75 759.448,1165.75 756.822,1164.95 754.814,1161.94 754.814,1081.36 756.106,1078.94 758.526,1077.65 774.408,1077.56 774.408,1023.79 766.29,1022.31 758.278,1017.18 754.662,1012.77 751.368,1004.82 750.808,928.275 752.842,918.979 759.71,909.869 766.29,906.031 776.376,904.329 776.376,866.477 765.234,864.363 759.366,860.681 753.906,854.029 750.88,844.071 750.804,823.225 712.966,823.225 712.806,837.101 709.87,846.155 702.142,854.547 690.52,858.565 637.408,858.659 630.314,857.609 623.466,854.271 617.38,848.185 614.042,841.337 613.042,834.943 613.176,760.533 617.104,749.823 625.496,742.095 637.4,738.975 688.582,738.975 697.486,740.677 705.498,745.813 711.176,754.151 712.858,760.863 712.966,774.407 750.786,774.407 751.368,766.047 754.722,758.227 754.722,527.467 746.284,524.075 741.876,520.459 736.74,512.447 735.038,503.541 735.038,161.133 716.622,142.685 710.718,132.145 657.706,79.1315 268.502,79.1315 244.486,103.147 243.904,606.387 240.612,614.339 237.336,618.437 73.2265,782.535 73.2265,1674.53 102.312,1703.62 153.142,1703.54 160.234,1704.59 166.104,1707.31 173.508,1714.49 176.506,1720.87 177.558,1727.95 177.558,1798.82 176.538,1805.79 172.294,1813.93 168.26,1817.96 158.58,1822.57 151.966,1823.23 151.966,1900.39 158.58,1901.05 168.976,1906.25 174.874,1913.72 177.506,1924.11 177.156,1999.97 172.016,2011.15 166.71,2015.96 160.882,2018.78 153.148,2020.08 130.312,2020.08 130.312,2120.87 146.196,2120.96 149.202,2122.97 149.998,2125.59 149.908,2205.25 148.614,2207.67 146.196,2208.96 130.312,2209.05 130.312,2224.75 143.638,2238.65 147.628,2248.28 148.028,2341.34 158.116,2343.04 166.128,2348.18 171.564,2355.99 173.598,2365.28 173.384,2439.69 171.762,2445.95 168.08,2452.1 162.374,2457.15 153.514,2460.62 98.0305,2461.02 91.0565,2460 82.9185,2455.76 78.1625,2450.72 73.8065,2439.46 73.7165,2363.82 74.5585,2359.11 77.6725,2352.28 84.0965,2345.73 92.8185,2341.92 99.2105,2341.34 99.2105,2262.69 88.3325,2251.78 83.1965,2243.77 81.5165,2235.33 81.4945,2209.05 65.6125,2208.96 63.1945,2207.67 61.9005,2205.25 61.8105,2125.59 62.6065,2122.97 65.6125,2120.96 81.4945,2120.87 81.4945,2008.83 78.5765,2002.64 77.5585,1995.66 77.6525,1922.87 81.3285,1911.85 85.0505,1907.23 93.0625,1902.1 103.148,1900.39 103.148,1823.17 93.2865,1821.59 86.5725,1817.76 82.8225,1813.93 78.5765,1805.79 77.5585,1798.82 77.5585,1747.91 31.2465,1701.56 26.1105,1693.55 24.4085,1684.65" style="stroke:rgb(0,0,0);stroke-width:1px;fill:none;stroke-opacity:1;stroke-linecap:round;stroke-linejoin:round;;fill:none"/>
<polyline points="127.264,1362.16 127.264,1210.8 128.592,1203.78 132.972,1197.02 208.462,1121.53 208.95,757.637 214.17,748.107 435.952,526.325 429.374,522.687 425.342,518.655 421.284,511.065 420.172,505.471 420.208,107.333 421.936,100.499 425.618,94.3555 430.926,89.5455 437.402,86.4835 444.498,85.4315 485.798,85.5275 492.538,87.0715 497.79,89.8215 503.876,95.9075 506.564,100.937 508.266,109.841 508.266,503.541 507.248,510.517 503.002,518.655 498.97,522.687 489.288,527.297 483.414,527.951 481.978,533.543 477.952,539.447 247.44,769.961 247.132,1132.95 245.758,1137.48 241.732,1143.39 166.242,1218.87 166.242,1354.09 226.856,1414.71 230.882,1420.61 232.256,1425.14 232.564,1811.59 258.48,1837.51 378.65,1837.51 389.08,1840.56 607.874,2058.66 664.96,2057.87 672.482,2059.08 680.072,2063.14 686.248,2070.38 689.184,2079.43 689.274,2155.08 685.494,2166.31 678.892,2173.17 667.466,2177.43 611.848,2177.46 604.544,2175.74 596.862,2170.72 591.424,2162.91 589.5,2155.66 589.372,2095.28 370.578,1876.49 246.156,1876 236.626,1870.78 197.148,1830.87 194.914,1826.69 193.586,1819.67 193.586,1436.56 132.662,1375.6 128.592,1369.18 127.264,1362.16" style="stroke:rgb(233,94,212);stroke-width:9.448819;fill:none;stroke-opacity:0.5;stroke-linecap:round;stroke-linejoin:round;;fill:none"/>
<polyline points="127.264,1362.16 127.264,1210.8 128.592,1203.78 132.972,1197.02 208.462,1121.53 208.95,757.637 214.17,748.107 435.952,526.325 429.374,522.687 425.342,518.655 421.284,511.065 420.172,505.471 420.208,107.333 421.936,100.499 425.618,94.3555 430.926,89.5455 437.402,86.4835 444.498,85.4315 485.798,85.5275 492.538,87.0715 497.79,89.8215 503.876,95.9075 506.564,100.937 508.266,109.841 508.266,503.541 507.248,510.517 503.002,518.655 498.97,522.687 489.288,527.297 483.414,527.951 481.978,533.543 477.952,539.447 247.44,769.961 247.132,1132.95 245.758,1137.48 241.732,1143.39 166.242,1218.87 166.242,1354.09 226.856,1414.71 230.882,1420.61 232.256,1425.14 232.564,1811.59 258.48,1837.51 378.65,1837.51 389.08,1840.56 607.874,2058.66 664.96,2057.87 672.482,2059.08 680.072,2063.14 686.248,2070.38 689.184,2079.43 689.274,2155.08 685.494,2166.31 678.892,2173.17 667.466,2177.43 611.848,2177.46 604.544,2175.74 596.862,2170.72 591.424,2162.91 589.5,2155.66 589.372,2095.28 370.578,1876.49 246.156,1876 236.626,1870.78 197.148,1830.87 194.914,1826.69 193.586,1819.67 193.586,1436.56 132.662,1375.6 128.592,1369.18 127.264,1362.16" style="stroke:rgb(0,0,0);stroke-width:1px;fill:none;stroke-opacity:1;stroke-linecap:round;stroke-linejoin:round;;fill:none"/>
<polyline points="97.2425,783.075 98.5445,775.335 104.08,766.153 114.456,759.747 127.752,758.695 129.08,747.409 133.46,740.649 287.202,586.909 287.202,527.951 278.102,526.249 270.09,521.113 264.654,513.303 262.692,505.471 262.728,107.333 264.454,100.499 268.138,94.3555 273.446,89.5455 279.92,86.4835 287.006,85.4315 326.376,85.4315 333.462,86.4835 339.938,89.5455 345.246,94.3555 349.084,100.937 350.786,109.841 350.786,503.541 348.102,514.629 342.206,522.099 337.248,525.351 326.18,527.951 326.18,594.983 324.852,602.003 320.472,608.763 170.508,758.723 181.514,760.299 186.942,763.201 194.122,771.165 197.192,782.377 196.842,858.239 192.102,868.853 186.942,873.803 180.03,877.259 174.772,878.251 121.66,878.345 112.204,876.441 105.664,872.325 101.014,866.891 97.3385,855.871 97.2425,783.075" style="stroke:rgb(171,178,205);stroke-width:9.448819;fill:none;stroke-opacity:0.5;stroke-linecap:round;stroke-linejoin:round;;fill:none"/>
<polyline points="97.2425,783.075 98.5445,775.335 104.08,766.153 114.456,759.747 127.752,758.695 129.08,747.409 133.46,740.649 287.202,586.909 287.202,527.951 278.102,526.249 270.09,521.113 264.654,513.303 262.692,505.471 262.728,107.333 264.454,100.499 268.138,94.3555 273.446,89.5455 279.92,86.4835 287.006,85.4315 326.376,85.4315 333.462,86.4835 339.938,89.5455 345.246,94.3555 349.084,100.937 350.786,109.841 350.786,503.541 348.102,514.629 342.206,522.099 337.248,525.351 326.18,527.951 326.18,594.983 324.852,602.003 320.472,608.763 170.508,758.723 181.514,760.299 186.942,763.201 194.122,771.165 197.192,782.377 196.842,858.239 192.102,868.853 186.942,873.803 180.03,877.259 174.772,878.251 121.66,878.345 112.204,876.441 105.664,872.325 101.014,866.891 97.3385,855.871 97.2425,783.075" style="stroke:rgb(0,0,0);stroke-width:1px;fill:none;stroke-opacity:1;stroke-linecap:round;stroke-linejoin:round;;fill:none"/>
<polyline points="1148.64,1743.88 1148.74,1734.67 1150.76,1725.68 1154.6,1717.3 1164.17,1706.24 1164.17,1688.58 1165.56,1685.24 1168.9,1683.86 1217.06,1683.95 1220.51,1686.77 1220.86,1695.67 1228.41,1695.67 1566.68,1357.4 1573.76,1351.68 1581.42,1347.69 1589.71,1345.27 1597.86,1344.49 2196.7,1344.49 2210.31,1346.73 2222.57,1353.06 2231.98,1362.47 2238.31,1374.72 2240.33,1384.22 2240.28,1393.43 2238.31,1402.44 2232.27,1414.3 2226.14,1421.18 2218.71,1426.64 2209.84,1430.59 2200.82,1432.45 1616.12,1432.68 1277.85,1770.94 1270.77,1776.66 1263.11,1780.66 1254.82,1783.08 1220.86,1783.86 1220.51,1792.75 1217.06,1795.58 1167.97,1795.58 1165.56,1794.29 1164.26,1791.87 1164.17,1773.29 1154.33,1761.81 1150.58,1753.39 1148.64,1743.88" style="stroke:rgb(198,155,180);stroke-width:9.448819;fill:none;stroke-opacity:0.5;stroke-linecap:round;stroke-linejoin:round;;fill:none"/>
<polyline points="1148.64,1743.88 1148.74,1734.67 1150.76,1725.68 1154.6,1717.3 1164.17,1706.24 1164.17,1688.58 1165.56,1685.24 1168.9,1683.86 1217.06,1683.95 1220.51,1686.77 1220.86,1695.67 1228.41,1695.67 1566.68,1357.4 1573.76,1351.68 1581.42,1347.69 1589.71,1345.27 1597.86,1344.49 2196.7,1344.49 2210.31,1346.73 2222.57,1353.06 2231.98,1362.47 2238.31,1374.72 2240.33,1384.22 2240.28,1393.43 2238.31,1402.44 2232.27,1414.3 2226.14,1421.18 2218.71,1426.64 2209.84,1430.59 2200.82,1432.45 1616.12,1432.68 1277.85,1770.94 1270.77,1776.66 1263.11,1780.66 1254.82,1783.08 1220.86,1783.86 1220.51,1792.75 1217.06,1795.58 1167.97,1795.58 1165.56,1794.29 1164.26,1791.87 1164.17,1773.29 1154.33,1761.81 1150.58,1753.39 1148.64,1743.88" style="stroke:rgb(0,0,0);stroke-width:1px;fill:none;stroke-opacity:1;stroke-linecap:round;stroke-linejoin:round;;fill:none"/>
</svg>
