G04 #@! TF.GenerationSoftware,KiCad,Pcbnew,(5.1.0)-1*
G04 #@! TF.CreationDate,2020-06-21T15:24:11+01:00*
G04 #@! TF.ProjectId,Top Board,546f7020-426f-4617-9264-2e6b69636164,-*
G04 #@! TF.SameCoordinates,Original*
G04 #@! TF.FileFunction,Soldermask,Top*
G04 #@! TF.FilePolarity,Negative*
%FSLAX46Y46*%
G04 Gerber Fmt 4.6, Leading zero omitted, Abs format (unit mm)*
G04 Created by KiCad (PCBNEW (5.1.0)-1) date 2020-06-21 15:24:11*
%MOMM*%
%LPD*%
G04 APERTURE LIST*
%ADD10C,2.430000*%
%ADD11C,1.462000*%
%ADD12R,3.000000X3.000000*%
%ADD13C,3.000000*%
%ADD14C,0.150000*%
%ADD15C,1.200000*%
%ADD16O,1.200000X1.750000*%
%ADD17C,2.700000*%
%ADD18R,1.700000X1.700000*%
%ADD19O,1.700000X1.700000*%
%ADD20O,1.750000X1.200000*%
G04 APERTURE END LIST*
D10*
X183110000Y-102175000D03*
X183110000Y-131245000D03*
D11*
X182220000Y-127420000D03*
X184000000Y-126400000D03*
X182220000Y-125380000D03*
X184000000Y-124360000D03*
X182220000Y-123340000D03*
X184000000Y-122320000D03*
X182220000Y-121300000D03*
X184000000Y-120280000D03*
X182220000Y-113140000D03*
X184000000Y-112120000D03*
X182220000Y-111100000D03*
X184000000Y-110080000D03*
X182220000Y-109060000D03*
X184000000Y-108040000D03*
X182220000Y-107020000D03*
X184000000Y-106000000D03*
X184000000Y-72000000D03*
X182220000Y-73020000D03*
X184000000Y-74040000D03*
X182220000Y-75060000D03*
X184000000Y-76080000D03*
X182220000Y-77100000D03*
X184000000Y-78120000D03*
X182220000Y-79140000D03*
X184000000Y-86280000D03*
X182220000Y-87300000D03*
X184000000Y-88320000D03*
X182220000Y-89340000D03*
X184000000Y-90360000D03*
X182220000Y-91380000D03*
X184000000Y-92400000D03*
X182220000Y-93420000D03*
D10*
X183110000Y-97245000D03*
X183110000Y-68175000D03*
D12*
X112000000Y-80500000D03*
D13*
X112000000Y-75420000D03*
D14*
G36*
X133374505Y-129126204D02*
G01*
X133398773Y-129129804D01*
X133422572Y-129135765D01*
X133445671Y-129144030D01*
X133467850Y-129154520D01*
X133488893Y-129167132D01*
X133508599Y-129181747D01*
X133526777Y-129198223D01*
X133543253Y-129216401D01*
X133557868Y-129236107D01*
X133570480Y-129257150D01*
X133580970Y-129279329D01*
X133589235Y-129302428D01*
X133595196Y-129326227D01*
X133598796Y-129350495D01*
X133600000Y-129374999D01*
X133600000Y-130625001D01*
X133598796Y-130649505D01*
X133595196Y-130673773D01*
X133589235Y-130697572D01*
X133580970Y-130720671D01*
X133570480Y-130742850D01*
X133557868Y-130763893D01*
X133543253Y-130783599D01*
X133526777Y-130801777D01*
X133508599Y-130818253D01*
X133488893Y-130832868D01*
X133467850Y-130845480D01*
X133445671Y-130855970D01*
X133422572Y-130864235D01*
X133398773Y-130870196D01*
X133374505Y-130873796D01*
X133350001Y-130875000D01*
X132649999Y-130875000D01*
X132625495Y-130873796D01*
X132601227Y-130870196D01*
X132577428Y-130864235D01*
X132554329Y-130855970D01*
X132532150Y-130845480D01*
X132511107Y-130832868D01*
X132491401Y-130818253D01*
X132473223Y-130801777D01*
X132456747Y-130783599D01*
X132442132Y-130763893D01*
X132429520Y-130742850D01*
X132419030Y-130720671D01*
X132410765Y-130697572D01*
X132404804Y-130673773D01*
X132401204Y-130649505D01*
X132400000Y-130625001D01*
X132400000Y-129374999D01*
X132401204Y-129350495D01*
X132404804Y-129326227D01*
X132410765Y-129302428D01*
X132419030Y-129279329D01*
X132429520Y-129257150D01*
X132442132Y-129236107D01*
X132456747Y-129216401D01*
X132473223Y-129198223D01*
X132491401Y-129181747D01*
X132511107Y-129167132D01*
X132532150Y-129154520D01*
X132554329Y-129144030D01*
X132577428Y-129135765D01*
X132601227Y-129129804D01*
X132625495Y-129126204D01*
X132649999Y-129125000D01*
X133350001Y-129125000D01*
X133374505Y-129126204D01*
X133374505Y-129126204D01*
G37*
D15*
X133000000Y-130000000D03*
D16*
X135000000Y-130000000D03*
X137000000Y-130000000D03*
X139000000Y-130000000D03*
X141000000Y-130000000D03*
X143000000Y-130000000D03*
D17*
X111450000Y-69560000D03*
D18*
X116320000Y-70830000D03*
D19*
X116320000Y-68290000D03*
X118860000Y-70830000D03*
X118860000Y-68290000D03*
X121400000Y-70830000D03*
X121400000Y-68290000D03*
X123940000Y-70830000D03*
X123940000Y-68290000D03*
X126480000Y-70830000D03*
X126480000Y-68290000D03*
X129020000Y-70830000D03*
X129020000Y-68290000D03*
X131560000Y-70830000D03*
X131560000Y-68290000D03*
X134100000Y-70830000D03*
X134100000Y-68290000D03*
X136640000Y-70830000D03*
X136640000Y-68290000D03*
X139180000Y-70830000D03*
X139180000Y-68290000D03*
X141720000Y-70830000D03*
X141720000Y-68290000D03*
X144260000Y-70830000D03*
X144260000Y-68290000D03*
X146800000Y-70830000D03*
X146800000Y-68290000D03*
X149340000Y-70830000D03*
X149340000Y-68290000D03*
X151880000Y-70830000D03*
X151880000Y-68290000D03*
X154420000Y-70830000D03*
X154420000Y-68290000D03*
X156960000Y-70830000D03*
X156960000Y-68290000D03*
X159500000Y-70830000D03*
X159500000Y-68290000D03*
X162040000Y-70830000D03*
X162040000Y-68290000D03*
X164580000Y-70830000D03*
X164580000Y-68290000D03*
D17*
X169450000Y-118560000D03*
X111450000Y-118560000D03*
X169450000Y-69560000D03*
D14*
G36*
X111374505Y-129126204D02*
G01*
X111398773Y-129129804D01*
X111422572Y-129135765D01*
X111445671Y-129144030D01*
X111467850Y-129154520D01*
X111488893Y-129167132D01*
X111508599Y-129181747D01*
X111526777Y-129198223D01*
X111543253Y-129216401D01*
X111557868Y-129236107D01*
X111570480Y-129257150D01*
X111580970Y-129279329D01*
X111589235Y-129302428D01*
X111595196Y-129326227D01*
X111598796Y-129350495D01*
X111600000Y-129374999D01*
X111600000Y-130625001D01*
X111598796Y-130649505D01*
X111595196Y-130673773D01*
X111589235Y-130697572D01*
X111580970Y-130720671D01*
X111570480Y-130742850D01*
X111557868Y-130763893D01*
X111543253Y-130783599D01*
X111526777Y-130801777D01*
X111508599Y-130818253D01*
X111488893Y-130832868D01*
X111467850Y-130845480D01*
X111445671Y-130855970D01*
X111422572Y-130864235D01*
X111398773Y-130870196D01*
X111374505Y-130873796D01*
X111350001Y-130875000D01*
X110649999Y-130875000D01*
X110625495Y-130873796D01*
X110601227Y-130870196D01*
X110577428Y-130864235D01*
X110554329Y-130855970D01*
X110532150Y-130845480D01*
X110511107Y-130832868D01*
X110491401Y-130818253D01*
X110473223Y-130801777D01*
X110456747Y-130783599D01*
X110442132Y-130763893D01*
X110429520Y-130742850D01*
X110419030Y-130720671D01*
X110410765Y-130697572D01*
X110404804Y-130673773D01*
X110401204Y-130649505D01*
X110400000Y-130625001D01*
X110400000Y-129374999D01*
X110401204Y-129350495D01*
X110404804Y-129326227D01*
X110410765Y-129302428D01*
X110419030Y-129279329D01*
X110429520Y-129257150D01*
X110442132Y-129236107D01*
X110456747Y-129216401D01*
X110473223Y-129198223D01*
X110491401Y-129181747D01*
X110511107Y-129167132D01*
X110532150Y-129154520D01*
X110554329Y-129144030D01*
X110577428Y-129135765D01*
X110601227Y-129129804D01*
X110625495Y-129126204D01*
X110649999Y-129125000D01*
X111350001Y-129125000D01*
X111374505Y-129126204D01*
X111374505Y-129126204D01*
G37*
D15*
X111000000Y-130000000D03*
D16*
X113000000Y-130000000D03*
X115000000Y-130000000D03*
X117000000Y-130000000D03*
X128000000Y-130000000D03*
X126000000Y-130000000D03*
X124000000Y-130000000D03*
D14*
G36*
X122374505Y-129126204D02*
G01*
X122398773Y-129129804D01*
X122422572Y-129135765D01*
X122445671Y-129144030D01*
X122467850Y-129154520D01*
X122488893Y-129167132D01*
X122508599Y-129181747D01*
X122526777Y-129198223D01*
X122543253Y-129216401D01*
X122557868Y-129236107D01*
X122570480Y-129257150D01*
X122580970Y-129279329D01*
X122589235Y-129302428D01*
X122595196Y-129326227D01*
X122598796Y-129350495D01*
X122600000Y-129374999D01*
X122600000Y-130625001D01*
X122598796Y-130649505D01*
X122595196Y-130673773D01*
X122589235Y-130697572D01*
X122580970Y-130720671D01*
X122570480Y-130742850D01*
X122557868Y-130763893D01*
X122543253Y-130783599D01*
X122526777Y-130801777D01*
X122508599Y-130818253D01*
X122488893Y-130832868D01*
X122467850Y-130845480D01*
X122445671Y-130855970D01*
X122422572Y-130864235D01*
X122398773Y-130870196D01*
X122374505Y-130873796D01*
X122350001Y-130875000D01*
X121649999Y-130875000D01*
X121625495Y-130873796D01*
X121601227Y-130870196D01*
X121577428Y-130864235D01*
X121554329Y-130855970D01*
X121532150Y-130845480D01*
X121511107Y-130832868D01*
X121491401Y-130818253D01*
X121473223Y-130801777D01*
X121456747Y-130783599D01*
X121442132Y-130763893D01*
X121429520Y-130742850D01*
X121419030Y-130720671D01*
X121410765Y-130697572D01*
X121404804Y-130673773D01*
X121401204Y-130649505D01*
X121400000Y-130625001D01*
X121400000Y-129374999D01*
X121401204Y-129350495D01*
X121404804Y-129326227D01*
X121410765Y-129302428D01*
X121419030Y-129279329D01*
X121429520Y-129257150D01*
X121442132Y-129236107D01*
X121456747Y-129216401D01*
X121473223Y-129198223D01*
X121491401Y-129181747D01*
X121511107Y-129167132D01*
X121532150Y-129154520D01*
X121554329Y-129144030D01*
X121577428Y-129135765D01*
X121601227Y-129129804D01*
X121625495Y-129126204D01*
X121649999Y-129125000D01*
X122350001Y-129125000D01*
X122374505Y-129126204D01*
X122374505Y-129126204D01*
G37*
D15*
X122000000Y-130000000D03*
D14*
G36*
X159374505Y-129126204D02*
G01*
X159398773Y-129129804D01*
X159422572Y-129135765D01*
X159445671Y-129144030D01*
X159467850Y-129154520D01*
X159488893Y-129167132D01*
X159508599Y-129181747D01*
X159526777Y-129198223D01*
X159543253Y-129216401D01*
X159557868Y-129236107D01*
X159570480Y-129257150D01*
X159580970Y-129279329D01*
X159589235Y-129302428D01*
X159595196Y-129326227D01*
X159598796Y-129350495D01*
X159600000Y-129374999D01*
X159600000Y-130625001D01*
X159598796Y-130649505D01*
X159595196Y-130673773D01*
X159589235Y-130697572D01*
X159580970Y-130720671D01*
X159570480Y-130742850D01*
X159557868Y-130763893D01*
X159543253Y-130783599D01*
X159526777Y-130801777D01*
X159508599Y-130818253D01*
X159488893Y-130832868D01*
X159467850Y-130845480D01*
X159445671Y-130855970D01*
X159422572Y-130864235D01*
X159398773Y-130870196D01*
X159374505Y-130873796D01*
X159350001Y-130875000D01*
X158649999Y-130875000D01*
X158625495Y-130873796D01*
X158601227Y-130870196D01*
X158577428Y-130864235D01*
X158554329Y-130855970D01*
X158532150Y-130845480D01*
X158511107Y-130832868D01*
X158491401Y-130818253D01*
X158473223Y-130801777D01*
X158456747Y-130783599D01*
X158442132Y-130763893D01*
X158429520Y-130742850D01*
X158419030Y-130720671D01*
X158410765Y-130697572D01*
X158404804Y-130673773D01*
X158401204Y-130649505D01*
X158400000Y-130625001D01*
X158400000Y-129374999D01*
X158401204Y-129350495D01*
X158404804Y-129326227D01*
X158410765Y-129302428D01*
X158419030Y-129279329D01*
X158429520Y-129257150D01*
X158442132Y-129236107D01*
X158456747Y-129216401D01*
X158473223Y-129198223D01*
X158491401Y-129181747D01*
X158511107Y-129167132D01*
X158532150Y-129154520D01*
X158554329Y-129144030D01*
X158577428Y-129135765D01*
X158601227Y-129129804D01*
X158625495Y-129126204D01*
X158649999Y-129125000D01*
X159350001Y-129125000D01*
X159374505Y-129126204D01*
X159374505Y-129126204D01*
G37*
D15*
X159000000Y-130000000D03*
D16*
X161000000Y-130000000D03*
X163000000Y-130000000D03*
X172000000Y-130000000D03*
X170000000Y-130000000D03*
D14*
G36*
X168374505Y-129126204D02*
G01*
X168398773Y-129129804D01*
X168422572Y-129135765D01*
X168445671Y-129144030D01*
X168467850Y-129154520D01*
X168488893Y-129167132D01*
X168508599Y-129181747D01*
X168526777Y-129198223D01*
X168543253Y-129216401D01*
X168557868Y-129236107D01*
X168570480Y-129257150D01*
X168580970Y-129279329D01*
X168589235Y-129302428D01*
X168595196Y-129326227D01*
X168598796Y-129350495D01*
X168600000Y-129374999D01*
X168600000Y-130625001D01*
X168598796Y-130649505D01*
X168595196Y-130673773D01*
X168589235Y-130697572D01*
X168580970Y-130720671D01*
X168570480Y-130742850D01*
X168557868Y-130763893D01*
X168543253Y-130783599D01*
X168526777Y-130801777D01*
X168508599Y-130818253D01*
X168488893Y-130832868D01*
X168467850Y-130845480D01*
X168445671Y-130855970D01*
X168422572Y-130864235D01*
X168398773Y-130870196D01*
X168374505Y-130873796D01*
X168350001Y-130875000D01*
X167649999Y-130875000D01*
X167625495Y-130873796D01*
X167601227Y-130870196D01*
X167577428Y-130864235D01*
X167554329Y-130855970D01*
X167532150Y-130845480D01*
X167511107Y-130832868D01*
X167491401Y-130818253D01*
X167473223Y-130801777D01*
X167456747Y-130783599D01*
X167442132Y-130763893D01*
X167429520Y-130742850D01*
X167419030Y-130720671D01*
X167410765Y-130697572D01*
X167404804Y-130673773D01*
X167401204Y-130649505D01*
X167400000Y-130625001D01*
X167400000Y-129374999D01*
X167401204Y-129350495D01*
X167404804Y-129326227D01*
X167410765Y-129302428D01*
X167419030Y-129279329D01*
X167429520Y-129257150D01*
X167442132Y-129236107D01*
X167456747Y-129216401D01*
X167473223Y-129198223D01*
X167491401Y-129181747D01*
X167511107Y-129167132D01*
X167532150Y-129154520D01*
X167554329Y-129144030D01*
X167577428Y-129135765D01*
X167601227Y-129129804D01*
X167625495Y-129126204D01*
X167649999Y-129125000D01*
X168350001Y-129125000D01*
X168374505Y-129126204D01*
X168374505Y-129126204D01*
G37*
D15*
X168000000Y-130000000D03*
D14*
G36*
X148374505Y-129126204D02*
G01*
X148398773Y-129129804D01*
X148422572Y-129135765D01*
X148445671Y-129144030D01*
X148467850Y-129154520D01*
X148488893Y-129167132D01*
X148508599Y-129181747D01*
X148526777Y-129198223D01*
X148543253Y-129216401D01*
X148557868Y-129236107D01*
X148570480Y-129257150D01*
X148580970Y-129279329D01*
X148589235Y-129302428D01*
X148595196Y-129326227D01*
X148598796Y-129350495D01*
X148600000Y-129374999D01*
X148600000Y-130625001D01*
X148598796Y-130649505D01*
X148595196Y-130673773D01*
X148589235Y-130697572D01*
X148580970Y-130720671D01*
X148570480Y-130742850D01*
X148557868Y-130763893D01*
X148543253Y-130783599D01*
X148526777Y-130801777D01*
X148508599Y-130818253D01*
X148488893Y-130832868D01*
X148467850Y-130845480D01*
X148445671Y-130855970D01*
X148422572Y-130864235D01*
X148398773Y-130870196D01*
X148374505Y-130873796D01*
X148350001Y-130875000D01*
X147649999Y-130875000D01*
X147625495Y-130873796D01*
X147601227Y-130870196D01*
X147577428Y-130864235D01*
X147554329Y-130855970D01*
X147532150Y-130845480D01*
X147511107Y-130832868D01*
X147491401Y-130818253D01*
X147473223Y-130801777D01*
X147456747Y-130783599D01*
X147442132Y-130763893D01*
X147429520Y-130742850D01*
X147419030Y-130720671D01*
X147410765Y-130697572D01*
X147404804Y-130673773D01*
X147401204Y-130649505D01*
X147400000Y-130625001D01*
X147400000Y-129374999D01*
X147401204Y-129350495D01*
X147404804Y-129326227D01*
X147410765Y-129302428D01*
X147419030Y-129279329D01*
X147429520Y-129257150D01*
X147442132Y-129236107D01*
X147456747Y-129216401D01*
X147473223Y-129198223D01*
X147491401Y-129181747D01*
X147511107Y-129167132D01*
X147532150Y-129154520D01*
X147554329Y-129144030D01*
X147577428Y-129135765D01*
X147601227Y-129129804D01*
X147625495Y-129126204D01*
X147649999Y-129125000D01*
X148350001Y-129125000D01*
X148374505Y-129126204D01*
X148374505Y-129126204D01*
G37*
D15*
X148000000Y-130000000D03*
D16*
X150000000Y-130000000D03*
X152000000Y-130000000D03*
X154000000Y-130000000D03*
D20*
X119000000Y-114000000D03*
D14*
G36*
X119649505Y-115401204D02*
G01*
X119673773Y-115404804D01*
X119697572Y-115410765D01*
X119720671Y-115419030D01*
X119742850Y-115429520D01*
X119763893Y-115442132D01*
X119783599Y-115456747D01*
X119801777Y-115473223D01*
X119818253Y-115491401D01*
X119832868Y-115511107D01*
X119845480Y-115532150D01*
X119855970Y-115554329D01*
X119864235Y-115577428D01*
X119870196Y-115601227D01*
X119873796Y-115625495D01*
X119875000Y-115649999D01*
X119875000Y-116350001D01*
X119873796Y-116374505D01*
X119870196Y-116398773D01*
X119864235Y-116422572D01*
X119855970Y-116445671D01*
X119845480Y-116467850D01*
X119832868Y-116488893D01*
X119818253Y-116508599D01*
X119801777Y-116526777D01*
X119783599Y-116543253D01*
X119763893Y-116557868D01*
X119742850Y-116570480D01*
X119720671Y-116580970D01*
X119697572Y-116589235D01*
X119673773Y-116595196D01*
X119649505Y-116598796D01*
X119625001Y-116600000D01*
X118374999Y-116600000D01*
X118350495Y-116598796D01*
X118326227Y-116595196D01*
X118302428Y-116589235D01*
X118279329Y-116580970D01*
X118257150Y-116570480D01*
X118236107Y-116557868D01*
X118216401Y-116543253D01*
X118198223Y-116526777D01*
X118181747Y-116508599D01*
X118167132Y-116488893D01*
X118154520Y-116467850D01*
X118144030Y-116445671D01*
X118135765Y-116422572D01*
X118129804Y-116398773D01*
X118126204Y-116374505D01*
X118125000Y-116350001D01*
X118125000Y-115649999D01*
X118126204Y-115625495D01*
X118129804Y-115601227D01*
X118135765Y-115577428D01*
X118144030Y-115554329D01*
X118154520Y-115532150D01*
X118167132Y-115511107D01*
X118181747Y-115491401D01*
X118198223Y-115473223D01*
X118216401Y-115456747D01*
X118236107Y-115442132D01*
X118257150Y-115429520D01*
X118279329Y-115419030D01*
X118302428Y-115410765D01*
X118326227Y-115404804D01*
X118350495Y-115401204D01*
X118374999Y-115400000D01*
X119625001Y-115400000D01*
X119649505Y-115401204D01*
X119649505Y-115401204D01*
G37*
D15*
X119000000Y-116000000D03*
D14*
G36*
X119649505Y-122401204D02*
G01*
X119673773Y-122404804D01*
X119697572Y-122410765D01*
X119720671Y-122419030D01*
X119742850Y-122429520D01*
X119763893Y-122442132D01*
X119783599Y-122456747D01*
X119801777Y-122473223D01*
X119818253Y-122491401D01*
X119832868Y-122511107D01*
X119845480Y-122532150D01*
X119855970Y-122554329D01*
X119864235Y-122577428D01*
X119870196Y-122601227D01*
X119873796Y-122625495D01*
X119875000Y-122649999D01*
X119875000Y-123350001D01*
X119873796Y-123374505D01*
X119870196Y-123398773D01*
X119864235Y-123422572D01*
X119855970Y-123445671D01*
X119845480Y-123467850D01*
X119832868Y-123488893D01*
X119818253Y-123508599D01*
X119801777Y-123526777D01*
X119783599Y-123543253D01*
X119763893Y-123557868D01*
X119742850Y-123570480D01*
X119720671Y-123580970D01*
X119697572Y-123589235D01*
X119673773Y-123595196D01*
X119649505Y-123598796D01*
X119625001Y-123600000D01*
X118374999Y-123600000D01*
X118350495Y-123598796D01*
X118326227Y-123595196D01*
X118302428Y-123589235D01*
X118279329Y-123580970D01*
X118257150Y-123570480D01*
X118236107Y-123557868D01*
X118216401Y-123543253D01*
X118198223Y-123526777D01*
X118181747Y-123508599D01*
X118167132Y-123488893D01*
X118154520Y-123467850D01*
X118144030Y-123445671D01*
X118135765Y-123422572D01*
X118129804Y-123398773D01*
X118126204Y-123374505D01*
X118125000Y-123350001D01*
X118125000Y-122649999D01*
X118126204Y-122625495D01*
X118129804Y-122601227D01*
X118135765Y-122577428D01*
X118144030Y-122554329D01*
X118154520Y-122532150D01*
X118167132Y-122511107D01*
X118181747Y-122491401D01*
X118198223Y-122473223D01*
X118216401Y-122456747D01*
X118236107Y-122442132D01*
X118257150Y-122429520D01*
X118279329Y-122419030D01*
X118302428Y-122410765D01*
X118326227Y-122404804D01*
X118350495Y-122401204D01*
X118374999Y-122400000D01*
X119625001Y-122400000D01*
X119649505Y-122401204D01*
X119649505Y-122401204D01*
G37*
D15*
X119000000Y-123000000D03*
D20*
X119000000Y-121000000D03*
X112000000Y-109000000D03*
X112000000Y-107000000D03*
X112000000Y-105000000D03*
X112000000Y-103000000D03*
D14*
G36*
X112649505Y-100401204D02*
G01*
X112673773Y-100404804D01*
X112697572Y-100410765D01*
X112720671Y-100419030D01*
X112742850Y-100429520D01*
X112763893Y-100442132D01*
X112783599Y-100456747D01*
X112801777Y-100473223D01*
X112818253Y-100491401D01*
X112832868Y-100511107D01*
X112845480Y-100532150D01*
X112855970Y-100554329D01*
X112864235Y-100577428D01*
X112870196Y-100601227D01*
X112873796Y-100625495D01*
X112875000Y-100649999D01*
X112875000Y-101350001D01*
X112873796Y-101374505D01*
X112870196Y-101398773D01*
X112864235Y-101422572D01*
X112855970Y-101445671D01*
X112845480Y-101467850D01*
X112832868Y-101488893D01*
X112818253Y-101508599D01*
X112801777Y-101526777D01*
X112783599Y-101543253D01*
X112763893Y-101557868D01*
X112742850Y-101570480D01*
X112720671Y-101580970D01*
X112697572Y-101589235D01*
X112673773Y-101595196D01*
X112649505Y-101598796D01*
X112625001Y-101600000D01*
X111374999Y-101600000D01*
X111350495Y-101598796D01*
X111326227Y-101595196D01*
X111302428Y-101589235D01*
X111279329Y-101580970D01*
X111257150Y-101570480D01*
X111236107Y-101557868D01*
X111216401Y-101543253D01*
X111198223Y-101526777D01*
X111181747Y-101508599D01*
X111167132Y-101488893D01*
X111154520Y-101467850D01*
X111144030Y-101445671D01*
X111135765Y-101422572D01*
X111129804Y-101398773D01*
X111126204Y-101374505D01*
X111125000Y-101350001D01*
X111125000Y-100649999D01*
X111126204Y-100625495D01*
X111129804Y-100601227D01*
X111135765Y-100577428D01*
X111144030Y-100554329D01*
X111154520Y-100532150D01*
X111167132Y-100511107D01*
X111181747Y-100491401D01*
X111198223Y-100473223D01*
X111216401Y-100456747D01*
X111236107Y-100442132D01*
X111257150Y-100429520D01*
X111279329Y-100419030D01*
X111302428Y-100410765D01*
X111326227Y-100404804D01*
X111350495Y-100401204D01*
X111374999Y-100400000D01*
X112625001Y-100400000D01*
X112649505Y-100401204D01*
X112649505Y-100401204D01*
G37*
D15*
X112000000Y-101000000D03*
D14*
G36*
X112649505Y-87401204D02*
G01*
X112673773Y-87404804D01*
X112697572Y-87410765D01*
X112720671Y-87419030D01*
X112742850Y-87429520D01*
X112763893Y-87442132D01*
X112783599Y-87456747D01*
X112801777Y-87473223D01*
X112818253Y-87491401D01*
X112832868Y-87511107D01*
X112845480Y-87532150D01*
X112855970Y-87554329D01*
X112864235Y-87577428D01*
X112870196Y-87601227D01*
X112873796Y-87625495D01*
X112875000Y-87649999D01*
X112875000Y-88350001D01*
X112873796Y-88374505D01*
X112870196Y-88398773D01*
X112864235Y-88422572D01*
X112855970Y-88445671D01*
X112845480Y-88467850D01*
X112832868Y-88488893D01*
X112818253Y-88508599D01*
X112801777Y-88526777D01*
X112783599Y-88543253D01*
X112763893Y-88557868D01*
X112742850Y-88570480D01*
X112720671Y-88580970D01*
X112697572Y-88589235D01*
X112673773Y-88595196D01*
X112649505Y-88598796D01*
X112625001Y-88600000D01*
X111374999Y-88600000D01*
X111350495Y-88598796D01*
X111326227Y-88595196D01*
X111302428Y-88589235D01*
X111279329Y-88580970D01*
X111257150Y-88570480D01*
X111236107Y-88557868D01*
X111216401Y-88543253D01*
X111198223Y-88526777D01*
X111181747Y-88508599D01*
X111167132Y-88488893D01*
X111154520Y-88467850D01*
X111144030Y-88445671D01*
X111135765Y-88422572D01*
X111129804Y-88398773D01*
X111126204Y-88374505D01*
X111125000Y-88350001D01*
X111125000Y-87649999D01*
X111126204Y-87625495D01*
X111129804Y-87601227D01*
X111135765Y-87577428D01*
X111144030Y-87554329D01*
X111154520Y-87532150D01*
X111167132Y-87511107D01*
X111181747Y-87491401D01*
X111198223Y-87473223D01*
X111216401Y-87456747D01*
X111236107Y-87442132D01*
X111257150Y-87429520D01*
X111279329Y-87419030D01*
X111302428Y-87410765D01*
X111326227Y-87404804D01*
X111350495Y-87401204D01*
X111374999Y-87400000D01*
X112625001Y-87400000D01*
X112649505Y-87401204D01*
X112649505Y-87401204D01*
G37*
D15*
X112000000Y-88000000D03*
D20*
X112000000Y-90000000D03*
X112000000Y-92000000D03*
X112000000Y-94000000D03*
X112000000Y-96000000D03*
M02*
