G04 #@! TF.GenerationSoftware,KiCad,Pcbnew,(5.1.0)-1*
G04 #@! TF.CreationDate,2020-06-21T15:24:11+01:00*
G04 #@! TF.ProjectId,Top Board,546f7020-426f-4617-9264-2e6b69636164,-*
G04 #@! TF.SameCoordinates,Original*
G04 #@! TF.FileFunction,Legend,Bot*
G04 #@! TF.FilePolarity,Positive*
%FSLAX46Y46*%
G04 Gerber Fmt 4.6, Leading zero omitted, Abs format (unit mm)*
G04 Created by KiCad (PCBNEW (5.1.0)-1) date 2020-06-21 15:24:11*
%MOMM*%
%LPD*%
G04 APERTURE LIST*
%ADD10C,0.200000*%
%ADD11C,0.127000*%
%ADD12C,0.120000*%
%ADD13C,0.254000*%
%ADD14C,0.015000*%
%ADD15C,0.150000*%
%ADD16C,0.050000*%
G04 APERTURE END LIST*
D10*
X166600000Y-87450000D02*
X166600000Y-87450000D01*
X166400000Y-87450000D02*
X166400000Y-87450000D01*
X166400000Y-87450000D02*
G75*
G02X166600000Y-87450000I100000J0D01*
G01*
X166600000Y-87450000D02*
G75*
G02X166400000Y-87450000I-100000J0D01*
G01*
X168550000Y-100100000D02*
X168550000Y-100100000D01*
X168550000Y-99900000D02*
X168550000Y-99900000D01*
X168550000Y-99900000D02*
G75*
G02X168550000Y-100100000I0J-100000D01*
G01*
X168550000Y-100100000D02*
G75*
G02X168550000Y-99900000I0J100000D01*
G01*
D11*
X158500000Y-94560000D02*
X154500000Y-94560000D01*
X158500000Y-84440000D02*
X154500000Y-84440000D01*
D10*
X161030000Y-84465000D02*
G75*
G03X161030000Y-84465000I-100000J0D01*
G01*
D12*
X114990000Y-66960000D02*
X114990000Y-69560000D01*
X114990000Y-66960000D02*
X165910000Y-66960000D01*
X165910000Y-66960000D02*
X165910000Y-72160000D01*
X117590000Y-72160000D02*
X165910000Y-72160000D01*
X117590000Y-69560000D02*
X117590000Y-72160000D01*
X114990000Y-69560000D02*
X117590000Y-69560000D01*
X114990000Y-72160000D02*
X116320000Y-72160000D01*
X114990000Y-70830000D02*
X114990000Y-72160000D01*
X134164000Y-110277267D02*
X134164000Y-109934733D01*
X135184000Y-110277267D02*
X135184000Y-109934733D01*
X136577000Y-110291267D02*
X136577000Y-109948733D01*
X137597000Y-110291267D02*
X137597000Y-109948733D01*
X139883000Y-110263267D02*
X139883000Y-109920733D01*
X138863000Y-110263267D02*
X138863000Y-109920733D01*
X141149000Y-110150267D02*
X141149000Y-109807733D01*
X142169000Y-110150267D02*
X142169000Y-109807733D01*
X144709000Y-110150267D02*
X144709000Y-109807733D01*
X143689000Y-110150267D02*
X143689000Y-109807733D01*
X130499252Y-109150000D02*
X129976748Y-109150000D01*
X130499252Y-110570000D02*
X129976748Y-110570000D01*
X141460000Y-122536252D02*
X141460000Y-122013748D01*
X140040000Y-122536252D02*
X140040000Y-122013748D01*
X137790000Y-122536252D02*
X137790000Y-122013748D01*
X139210000Y-122536252D02*
X139210000Y-122013748D01*
X125828733Y-111990000D02*
X126171267Y-111990000D01*
X125828733Y-113010000D02*
X126171267Y-113010000D01*
X125828733Y-110010000D02*
X126171267Y-110010000D01*
X125828733Y-108990000D02*
X126171267Y-108990000D01*
D10*
X143109000Y-112424000D02*
G75*
G03X143109000Y-112424000I-100000J0D01*
G01*
D11*
X140539000Y-112164000D02*
X135159000Y-112164000D01*
X140539000Y-119494000D02*
X135159000Y-119494000D01*
D12*
X126766000Y-118753000D02*
X128866000Y-118753000D01*
X126766000Y-113413000D02*
X128866000Y-113413000D01*
X150920000Y-115200000D02*
X150920000Y-117300000D01*
X145580000Y-115200000D02*
X145580000Y-117300000D01*
D11*
X156000000Y-122000000D02*
X156000000Y-121000000D01*
X156000000Y-121000000D02*
X156000000Y-101000000D01*
X156000000Y-101000000D02*
X156000000Y-100000000D01*
X156000000Y-100000000D02*
X154900000Y-100000000D01*
X154900000Y-100000000D02*
X154900000Y-122000000D01*
X154900000Y-122000000D02*
X156000000Y-122000000D01*
X160300000Y-119500000D02*
X160300000Y-118500000D01*
X160300000Y-103500000D02*
X160300000Y-102500000D01*
X157400000Y-121000000D02*
X156000000Y-121000000D01*
X157400000Y-101000000D02*
X156000000Y-101000000D01*
D13*
X164804523Y-84982380D02*
X165832619Y-84982380D01*
X165953571Y-85042857D01*
X166014047Y-85103333D01*
X166074523Y-85224285D01*
X166074523Y-85466190D01*
X166014047Y-85587142D01*
X165953571Y-85647619D01*
X165832619Y-85708095D01*
X164804523Y-85708095D01*
X164804523Y-86191904D02*
X164804523Y-87038571D01*
X166074523Y-86494285D01*
X171017619Y-98304523D02*
X171017619Y-99332619D01*
X170957142Y-99453571D01*
X170896666Y-99514047D01*
X170775714Y-99574523D01*
X170533809Y-99574523D01*
X170412857Y-99514047D01*
X170352380Y-99453571D01*
X170291904Y-99332619D01*
X170291904Y-98304523D01*
X169808095Y-98304523D02*
X169021904Y-98304523D01*
X169445238Y-98788333D01*
X169263809Y-98788333D01*
X169142857Y-98848809D01*
X169082380Y-98909285D01*
X169021904Y-99030238D01*
X169021904Y-99332619D01*
X169082380Y-99453571D01*
X169142857Y-99514047D01*
X169263809Y-99574523D01*
X169626666Y-99574523D01*
X169747619Y-99514047D01*
X169808095Y-99453571D01*
D14*
X158036904Y-83080380D02*
X158036904Y-83889904D01*
X157989285Y-83985142D01*
X157941666Y-84032761D01*
X157846428Y-84080380D01*
X157655952Y-84080380D01*
X157560714Y-84032761D01*
X157513095Y-83985142D01*
X157465476Y-83889904D01*
X157465476Y-83080380D01*
X156513095Y-83080380D02*
X156989285Y-83080380D01*
X157036904Y-83556571D01*
X156989285Y-83508952D01*
X156894047Y-83461333D01*
X156655952Y-83461333D01*
X156560714Y-83508952D01*
X156513095Y-83556571D01*
X156465476Y-83651809D01*
X156465476Y-83889904D01*
X156513095Y-83985142D01*
X156560714Y-84032761D01*
X156655952Y-84080380D01*
X156894047Y-84080380D01*
X156989285Y-84032761D01*
X157036904Y-83985142D01*
D15*
X115546095Y-73490380D02*
X115546095Y-72490380D01*
X115165142Y-72490380D01*
X115069904Y-72538000D01*
X115022285Y-72585619D01*
X114974666Y-72680857D01*
X114974666Y-72823714D01*
X115022285Y-72918952D01*
X115069904Y-72966571D01*
X115165142Y-73014190D01*
X115546095Y-73014190D01*
X114022285Y-73490380D02*
X114593714Y-73490380D01*
X114308000Y-73490380D02*
X114308000Y-72490380D01*
X114403238Y-72633238D01*
X114498476Y-72728476D01*
X114593714Y-72776095D01*
X134840666Y-108177142D02*
X134888285Y-108224761D01*
X135031142Y-108272380D01*
X135126380Y-108272380D01*
X135269238Y-108224761D01*
X135364476Y-108129523D01*
X135412095Y-108034285D01*
X135459714Y-107843809D01*
X135459714Y-107700952D01*
X135412095Y-107510476D01*
X135364476Y-107415238D01*
X135269238Y-107320000D01*
X135126380Y-107272380D01*
X135031142Y-107272380D01*
X134888285Y-107320000D01*
X134840666Y-107367619D01*
X133888285Y-108272380D02*
X134459714Y-108272380D01*
X134174000Y-108272380D02*
X134174000Y-107272380D01*
X134269238Y-107415238D01*
X134364476Y-107510476D01*
X134459714Y-107558095D01*
X137253666Y-108177142D02*
X137301285Y-108224761D01*
X137444142Y-108272380D01*
X137539380Y-108272380D01*
X137682238Y-108224761D01*
X137777476Y-108129523D01*
X137825095Y-108034285D01*
X137872714Y-107843809D01*
X137872714Y-107700952D01*
X137825095Y-107510476D01*
X137777476Y-107415238D01*
X137682238Y-107320000D01*
X137539380Y-107272380D01*
X137444142Y-107272380D01*
X137301285Y-107320000D01*
X137253666Y-107367619D01*
X136872714Y-107367619D02*
X136825095Y-107320000D01*
X136729857Y-107272380D01*
X136491761Y-107272380D01*
X136396523Y-107320000D01*
X136348904Y-107367619D01*
X136301285Y-107462857D01*
X136301285Y-107558095D01*
X136348904Y-107700952D01*
X136920333Y-108272380D01*
X136301285Y-108272380D01*
X139539666Y-108050142D02*
X139587285Y-108097761D01*
X139730142Y-108145380D01*
X139825380Y-108145380D01*
X139968238Y-108097761D01*
X140063476Y-108002523D01*
X140111095Y-107907285D01*
X140158714Y-107716809D01*
X140158714Y-107573952D01*
X140111095Y-107383476D01*
X140063476Y-107288238D01*
X139968238Y-107193000D01*
X139825380Y-107145380D01*
X139730142Y-107145380D01*
X139587285Y-107193000D01*
X139539666Y-107240619D01*
X139206333Y-107145380D02*
X138587285Y-107145380D01*
X138920619Y-107526333D01*
X138777761Y-107526333D01*
X138682523Y-107573952D01*
X138634904Y-107621571D01*
X138587285Y-107716809D01*
X138587285Y-107954904D01*
X138634904Y-108050142D01*
X138682523Y-108097761D01*
X138777761Y-108145380D01*
X139063476Y-108145380D01*
X139158714Y-108097761D01*
X139206333Y-108050142D01*
X141825666Y-108050142D02*
X141873285Y-108097761D01*
X142016142Y-108145380D01*
X142111380Y-108145380D01*
X142254238Y-108097761D01*
X142349476Y-108002523D01*
X142397095Y-107907285D01*
X142444714Y-107716809D01*
X142444714Y-107573952D01*
X142397095Y-107383476D01*
X142349476Y-107288238D01*
X142254238Y-107193000D01*
X142111380Y-107145380D01*
X142016142Y-107145380D01*
X141873285Y-107193000D01*
X141825666Y-107240619D01*
X140968523Y-107478714D02*
X140968523Y-108145380D01*
X141206619Y-107097761D02*
X141444714Y-107812047D01*
X140825666Y-107812047D01*
X144365666Y-108050142D02*
X144413285Y-108097761D01*
X144556142Y-108145380D01*
X144651380Y-108145380D01*
X144794238Y-108097761D01*
X144889476Y-108002523D01*
X144937095Y-107907285D01*
X144984714Y-107716809D01*
X144984714Y-107573952D01*
X144937095Y-107383476D01*
X144889476Y-107288238D01*
X144794238Y-107193000D01*
X144651380Y-107145380D01*
X144556142Y-107145380D01*
X144413285Y-107193000D01*
X144365666Y-107240619D01*
X143460904Y-107145380D02*
X143937095Y-107145380D01*
X143984714Y-107621571D01*
X143937095Y-107573952D01*
X143841857Y-107526333D01*
X143603761Y-107526333D01*
X143508523Y-107573952D01*
X143460904Y-107621571D01*
X143413285Y-107716809D01*
X143413285Y-107954904D01*
X143460904Y-108050142D01*
X143508523Y-108097761D01*
X143603761Y-108145380D01*
X143841857Y-108145380D01*
X143937095Y-108097761D01*
X143984714Y-108050142D01*
X130880857Y-108662380D02*
X131214190Y-108186190D01*
X131452285Y-108662380D02*
X131452285Y-107662380D01*
X131071333Y-107662380D01*
X130976095Y-107710000D01*
X130928476Y-107757619D01*
X130880857Y-107852857D01*
X130880857Y-107995714D01*
X130928476Y-108090952D01*
X130976095Y-108138571D01*
X131071333Y-108186190D01*
X131452285Y-108186190D01*
X129928476Y-108662380D02*
X130499904Y-108662380D01*
X130214190Y-108662380D02*
X130214190Y-107662380D01*
X130309428Y-107805238D01*
X130404666Y-107900476D01*
X130499904Y-107948095D01*
X128976095Y-108662380D02*
X129547523Y-108662380D01*
X129261809Y-108662380D02*
X129261809Y-107662380D01*
X129357047Y-107805238D01*
X129452285Y-107900476D01*
X129547523Y-107948095D01*
X142852380Y-121632142D02*
X142376190Y-121298809D01*
X142852380Y-121060714D02*
X141852380Y-121060714D01*
X141852380Y-121441666D01*
X141900000Y-121536904D01*
X141947619Y-121584523D01*
X142042857Y-121632142D01*
X142185714Y-121632142D01*
X142280952Y-121584523D01*
X142328571Y-121536904D01*
X142376190Y-121441666D01*
X142376190Y-121060714D01*
X142852380Y-122584523D02*
X142852380Y-122013095D01*
X142852380Y-122298809D02*
X141852380Y-122298809D01*
X141995238Y-122203571D01*
X142090476Y-122108333D01*
X142138095Y-122013095D01*
X141947619Y-122965476D02*
X141900000Y-123013095D01*
X141852380Y-123108333D01*
X141852380Y-123346428D01*
X141900000Y-123441666D01*
X141947619Y-123489285D01*
X142042857Y-123536904D01*
X142138095Y-123536904D01*
X142280952Y-123489285D01*
X142852380Y-122917857D01*
X142852380Y-123536904D01*
X137202380Y-121632142D02*
X136726190Y-121298809D01*
X137202380Y-121060714D02*
X136202380Y-121060714D01*
X136202380Y-121441666D01*
X136250000Y-121536904D01*
X136297619Y-121584523D01*
X136392857Y-121632142D01*
X136535714Y-121632142D01*
X136630952Y-121584523D01*
X136678571Y-121536904D01*
X136726190Y-121441666D01*
X136726190Y-121060714D01*
X137202380Y-122584523D02*
X137202380Y-122013095D01*
X137202380Y-122298809D02*
X136202380Y-122298809D01*
X136345238Y-122203571D01*
X136440476Y-122108333D01*
X136488095Y-122013095D01*
X136202380Y-122917857D02*
X136202380Y-123536904D01*
X136583333Y-123203571D01*
X136583333Y-123346428D01*
X136630952Y-123441666D01*
X136678571Y-123489285D01*
X136773809Y-123536904D01*
X137011904Y-123536904D01*
X137107142Y-123489285D01*
X137154761Y-123441666D01*
X137202380Y-123346428D01*
X137202380Y-123060714D01*
X137154761Y-122965476D01*
X137107142Y-122917857D01*
X126642857Y-114382380D02*
X126976190Y-113906190D01*
X127214285Y-114382380D02*
X127214285Y-113382380D01*
X126833333Y-113382380D01*
X126738095Y-113430000D01*
X126690476Y-113477619D01*
X126642857Y-113572857D01*
X126642857Y-113715714D01*
X126690476Y-113810952D01*
X126738095Y-113858571D01*
X126833333Y-113906190D01*
X127214285Y-113906190D01*
X125690476Y-114382380D02*
X126261904Y-114382380D01*
X125976190Y-114382380D02*
X125976190Y-113382380D01*
X126071428Y-113525238D01*
X126166666Y-113620476D01*
X126261904Y-113668095D01*
X124833333Y-113715714D02*
X124833333Y-114382380D01*
X125071428Y-113334761D02*
X125309523Y-114049047D01*
X124690476Y-114049047D01*
X126642857Y-111382380D02*
X126976190Y-110906190D01*
X127214285Y-111382380D02*
X127214285Y-110382380D01*
X126833333Y-110382380D01*
X126738095Y-110430000D01*
X126690476Y-110477619D01*
X126642857Y-110572857D01*
X126642857Y-110715714D01*
X126690476Y-110810952D01*
X126738095Y-110858571D01*
X126833333Y-110906190D01*
X127214285Y-110906190D01*
X125690476Y-111382380D02*
X126261904Y-111382380D01*
X125976190Y-111382380D02*
X125976190Y-110382380D01*
X126071428Y-110525238D01*
X126166666Y-110620476D01*
X126261904Y-110668095D01*
X124785714Y-110382380D02*
X125261904Y-110382380D01*
X125309523Y-110858571D01*
X125261904Y-110810952D01*
X125166666Y-110763333D01*
X124928571Y-110763333D01*
X124833333Y-110810952D01*
X124785714Y-110858571D01*
X124738095Y-110953809D01*
X124738095Y-111191904D01*
X124785714Y-111287142D01*
X124833333Y-111334761D01*
X124928571Y-111382380D01*
X125166666Y-111382380D01*
X125261904Y-111334761D01*
X125309523Y-111287142D01*
D14*
X139825904Y-110804380D02*
X139825904Y-111613904D01*
X139778285Y-111709142D01*
X139730666Y-111756761D01*
X139635428Y-111804380D01*
X139444952Y-111804380D01*
X139349714Y-111756761D01*
X139302095Y-111709142D01*
X139254476Y-111613904D01*
X139254476Y-110804380D01*
X138825904Y-110899619D02*
X138778285Y-110852000D01*
X138683047Y-110804380D01*
X138444952Y-110804380D01*
X138349714Y-110852000D01*
X138302095Y-110899619D01*
X138254476Y-110994857D01*
X138254476Y-111090095D01*
X138302095Y-111232952D01*
X138873523Y-111804380D01*
X138254476Y-111804380D01*
D15*
X128506476Y-113035380D02*
X128839809Y-112559190D01*
X129077904Y-113035380D02*
X129077904Y-112035380D01*
X128696952Y-112035380D01*
X128601714Y-112083000D01*
X128554095Y-112130619D01*
X128506476Y-112225857D01*
X128506476Y-112368714D01*
X128554095Y-112463952D01*
X128601714Y-112511571D01*
X128696952Y-112559190D01*
X129077904Y-112559190D01*
X128077904Y-113035380D02*
X128077904Y-112035380D01*
X127506476Y-113035380D01*
X127506476Y-112035380D01*
X126506476Y-113035380D02*
X127077904Y-113035380D01*
X126792190Y-113035380D02*
X126792190Y-112035380D01*
X126887428Y-112178238D01*
X126982666Y-112273476D01*
X127077904Y-112321095D01*
X152202380Y-115559523D02*
X151726190Y-115226190D01*
X152202380Y-114988095D02*
X151202380Y-114988095D01*
X151202380Y-115369047D01*
X151250000Y-115464285D01*
X151297619Y-115511904D01*
X151392857Y-115559523D01*
X151535714Y-115559523D01*
X151630952Y-115511904D01*
X151678571Y-115464285D01*
X151726190Y-115369047D01*
X151726190Y-114988095D01*
X152202380Y-115988095D02*
X151202380Y-115988095D01*
X152202380Y-116559523D01*
X151202380Y-116559523D01*
X151297619Y-116988095D02*
X151250000Y-117035714D01*
X151202380Y-117130952D01*
X151202380Y-117369047D01*
X151250000Y-117464285D01*
X151297619Y-117511904D01*
X151392857Y-117559523D01*
X151488095Y-117559523D01*
X151630952Y-117511904D01*
X152202380Y-116940476D01*
X152202380Y-117559523D01*
D16*
X157741180Y-110971466D02*
X158455466Y-110971466D01*
X158598323Y-110923847D01*
X158693561Y-110828609D01*
X158741180Y-110685752D01*
X158741180Y-110590514D01*
X157836419Y-111400038D02*
X157788800Y-111447657D01*
X157741180Y-111542895D01*
X157741180Y-111780990D01*
X157788800Y-111876228D01*
X157836419Y-111923847D01*
X157931657Y-111971466D01*
X158026895Y-111971466D01*
X158169752Y-111923847D01*
X158741180Y-111352419D01*
X158741180Y-111971466D01*
X153003980Y-106875171D02*
X153003980Y-106684695D01*
X153051600Y-106589457D01*
X153099219Y-106541838D01*
X153242076Y-106446600D01*
X153432552Y-106398980D01*
X153813504Y-106398980D01*
X153908742Y-106446600D01*
X153956361Y-106494219D01*
X154003980Y-106589457D01*
X154003980Y-106779933D01*
X153956361Y-106875171D01*
X153908742Y-106922790D01*
X153813504Y-106970409D01*
X153575409Y-106970409D01*
X153480171Y-106922790D01*
X153432552Y-106875171D01*
X153384933Y-106779933D01*
X153384933Y-106589457D01*
X153432552Y-106494219D01*
X153480171Y-106446600D01*
X153575409Y-106398980D01*
X153432552Y-107541838D02*
X153384933Y-107446600D01*
X153337314Y-107398980D01*
X153242076Y-107351361D01*
X153194457Y-107351361D01*
X153099219Y-107398980D01*
X153051600Y-107446600D01*
X153003980Y-107541838D01*
X153003980Y-107732314D01*
X153051600Y-107827552D01*
X153099219Y-107875171D01*
X153194457Y-107922790D01*
X153242076Y-107922790D01*
X153337314Y-107875171D01*
X153384933Y-107827552D01*
X153432552Y-107732314D01*
X153432552Y-107541838D01*
X153480171Y-107446600D01*
X153527790Y-107398980D01*
X153623028Y-107351361D01*
X153813504Y-107351361D01*
X153908742Y-107398980D01*
X153956361Y-107446600D01*
X154003980Y-107541838D01*
X154003980Y-107732314D01*
X153956361Y-107827552D01*
X153908742Y-107875171D01*
X153813504Y-107922790D01*
X153623028Y-107922790D01*
X153527790Y-107875171D01*
X153480171Y-107827552D01*
X153432552Y-107732314D01*
X153003980Y-108779933D02*
X153003980Y-108589457D01*
X153051600Y-108494219D01*
X153099219Y-108446599D01*
X153242076Y-108351361D01*
X153432552Y-108303742D01*
X153813504Y-108303742D01*
X153908742Y-108351361D01*
X153956361Y-108398980D01*
X154003980Y-108494219D01*
X154003980Y-108684695D01*
X153956361Y-108779933D01*
X153908742Y-108827552D01*
X153813504Y-108875171D01*
X153575409Y-108875171D01*
X153480171Y-108827552D01*
X153432552Y-108779933D01*
X153384933Y-108684695D01*
X153384933Y-108494219D01*
X153432552Y-108398980D01*
X153480171Y-108351361D01*
X153575409Y-108303742D01*
X154003980Y-109827552D02*
X154003980Y-109256123D01*
X154003980Y-109541838D02*
X153003980Y-109541838D01*
X153146838Y-109446599D01*
X153242076Y-109351361D01*
X153289695Y-109256123D01*
X154003980Y-110779933D02*
X154003980Y-110208504D01*
X154003980Y-110494219D02*
X153003980Y-110494219D01*
X153146838Y-110398980D01*
X153242076Y-110303742D01*
X153289695Y-110208504D01*
X153003980Y-111684695D02*
X153003980Y-111208504D01*
X153480171Y-111160885D01*
X153432552Y-111208504D01*
X153384933Y-111303742D01*
X153384933Y-111541838D01*
X153432552Y-111637076D01*
X153480171Y-111684695D01*
X153575409Y-111732314D01*
X153813504Y-111732314D01*
X153908742Y-111684695D01*
X153956361Y-111637076D01*
X154003980Y-111541838D01*
X154003980Y-111303742D01*
X153956361Y-111208504D01*
X153908742Y-111160885D01*
X154003980Y-112684695D02*
X154003980Y-112113266D01*
X154003980Y-112398980D02*
X153003980Y-112398980D01*
X153146838Y-112303742D01*
X153242076Y-112208504D01*
X153289695Y-112113266D01*
X153337314Y-113541838D02*
X154003980Y-113541838D01*
X152956361Y-113303742D02*
X153670647Y-113065647D01*
X153670647Y-113684695D01*
X154003980Y-114589457D02*
X154003980Y-114018028D01*
X154003980Y-114303742D02*
X153003980Y-114303742D01*
X153146838Y-114208504D01*
X153242076Y-114113266D01*
X153289695Y-114018028D01*
X153099219Y-114970409D02*
X153051600Y-115018028D01*
X153003980Y-115113266D01*
X153003980Y-115351361D01*
X153051600Y-115446599D01*
X153099219Y-115494219D01*
X153194457Y-115541838D01*
X153289695Y-115541838D01*
X153432552Y-115494219D01*
X154003980Y-114922790D01*
X154003980Y-115541838D01*
X153099219Y-115922790D02*
X153051600Y-115970409D01*
X153003980Y-116065647D01*
X153003980Y-116303742D01*
X153051600Y-116398980D01*
X153099219Y-116446599D01*
X153194457Y-116494219D01*
X153289695Y-116494219D01*
X153432552Y-116446599D01*
X154003980Y-115875171D01*
X154003980Y-116494219D01*
M02*
