G04 #@! TF.GenerationSoftware,KiCad,Pcbnew,(5.1.0)-1*
G04 #@! TF.CreationDate,2020-06-21T15:24:11+01:00*
G04 #@! TF.ProjectId,Top Board,546f7020-426f-4617-9264-2e6b69636164,-*
G04 #@! TF.SameCoordinates,Original*
G04 #@! TF.FileFunction,Copper,L1,Top*
G04 #@! TF.FilePolarity,Positive*
%FSLAX46Y46*%
G04 Gerber Fmt 4.6, Leading zero omitted, Abs format (unit mm)*
G04 Created by KiCad (PCBNEW (5.1.0)-1) date 2020-06-21 15:24:11*
%MOMM*%
%LPD*%
G04 APERTURE LIST*
%ADD10C,2.430000*%
%ADD11C,1.462000*%
%ADD12R,3.000000X3.000000*%
%ADD13C,3.000000*%
%ADD14C,0.150000*%
%ADD15C,1.200000*%
%ADD16O,1.200000X1.750000*%
%ADD17R,1.700000X1.700000*%
%ADD18O,1.700000X1.700000*%
%ADD19O,1.750000X1.200000*%
%ADD20C,0.900000*%
%ADD21C,0.200000*%
%ADD22C,1.500000*%
%ADD23C,2.500000*%
%ADD24C,0.254000*%
G04 APERTURE END LIST*
D10*
X183110000Y-102175000D03*
X183110000Y-131245000D03*
D11*
X182220000Y-127420000D03*
X184000000Y-126400000D03*
X182220000Y-125380000D03*
X184000000Y-124360000D03*
X182220000Y-123340000D03*
X184000000Y-122320000D03*
X182220000Y-121300000D03*
X184000000Y-120280000D03*
X182220000Y-113140000D03*
X184000000Y-112120000D03*
X182220000Y-111100000D03*
X184000000Y-110080000D03*
X182220000Y-109060000D03*
X184000000Y-108040000D03*
X182220000Y-107020000D03*
X184000000Y-106000000D03*
X184000000Y-72000000D03*
X182220000Y-73020000D03*
X184000000Y-74040000D03*
X182220000Y-75060000D03*
X184000000Y-76080000D03*
X182220000Y-77100000D03*
X184000000Y-78120000D03*
X182220000Y-79140000D03*
X184000000Y-86280000D03*
X182220000Y-87300000D03*
X184000000Y-88320000D03*
X182220000Y-89340000D03*
X184000000Y-90360000D03*
X182220000Y-91380000D03*
X184000000Y-92400000D03*
X182220000Y-93420000D03*
D10*
X183110000Y-97245000D03*
X183110000Y-68175000D03*
D12*
X112000000Y-80500000D03*
D13*
X112000000Y-75420000D03*
D14*
G36*
X133374505Y-129126204D02*
G01*
X133398773Y-129129804D01*
X133422572Y-129135765D01*
X133445671Y-129144030D01*
X133467850Y-129154520D01*
X133488893Y-129167132D01*
X133508599Y-129181747D01*
X133526777Y-129198223D01*
X133543253Y-129216401D01*
X133557868Y-129236107D01*
X133570480Y-129257150D01*
X133580970Y-129279329D01*
X133589235Y-129302428D01*
X133595196Y-129326227D01*
X133598796Y-129350495D01*
X133600000Y-129374999D01*
X133600000Y-130625001D01*
X133598796Y-130649505D01*
X133595196Y-130673773D01*
X133589235Y-130697572D01*
X133580970Y-130720671D01*
X133570480Y-130742850D01*
X133557868Y-130763893D01*
X133543253Y-130783599D01*
X133526777Y-130801777D01*
X133508599Y-130818253D01*
X133488893Y-130832868D01*
X133467850Y-130845480D01*
X133445671Y-130855970D01*
X133422572Y-130864235D01*
X133398773Y-130870196D01*
X133374505Y-130873796D01*
X133350001Y-130875000D01*
X132649999Y-130875000D01*
X132625495Y-130873796D01*
X132601227Y-130870196D01*
X132577428Y-130864235D01*
X132554329Y-130855970D01*
X132532150Y-130845480D01*
X132511107Y-130832868D01*
X132491401Y-130818253D01*
X132473223Y-130801777D01*
X132456747Y-130783599D01*
X132442132Y-130763893D01*
X132429520Y-130742850D01*
X132419030Y-130720671D01*
X132410765Y-130697572D01*
X132404804Y-130673773D01*
X132401204Y-130649505D01*
X132400000Y-130625001D01*
X132400000Y-129374999D01*
X132401204Y-129350495D01*
X132404804Y-129326227D01*
X132410765Y-129302428D01*
X132419030Y-129279329D01*
X132429520Y-129257150D01*
X132442132Y-129236107D01*
X132456747Y-129216401D01*
X132473223Y-129198223D01*
X132491401Y-129181747D01*
X132511107Y-129167132D01*
X132532150Y-129154520D01*
X132554329Y-129144030D01*
X132577428Y-129135765D01*
X132601227Y-129129804D01*
X132625495Y-129126204D01*
X132649999Y-129125000D01*
X133350001Y-129125000D01*
X133374505Y-129126204D01*
X133374505Y-129126204D01*
G37*
D15*
X133000000Y-130000000D03*
D16*
X135000000Y-130000000D03*
X137000000Y-130000000D03*
X139000000Y-130000000D03*
X141000000Y-130000000D03*
X143000000Y-130000000D03*
D17*
X116320000Y-70830000D03*
D18*
X116320000Y-68290000D03*
X118860000Y-70830000D03*
X118860000Y-68290000D03*
X121400000Y-70830000D03*
X121400000Y-68290000D03*
X123940000Y-70830000D03*
X123940000Y-68290000D03*
X126480000Y-70830000D03*
X126480000Y-68290000D03*
X129020000Y-70830000D03*
X129020000Y-68290000D03*
X131560000Y-70830000D03*
X131560000Y-68290000D03*
X134100000Y-70830000D03*
X134100000Y-68290000D03*
X136640000Y-70830000D03*
X136640000Y-68290000D03*
X139180000Y-70830000D03*
X139180000Y-68290000D03*
X141720000Y-70830000D03*
X141720000Y-68290000D03*
X144260000Y-70830000D03*
X144260000Y-68290000D03*
X146800000Y-70830000D03*
X146800000Y-68290000D03*
X149340000Y-70830000D03*
X149340000Y-68290000D03*
X151880000Y-70830000D03*
X151880000Y-68290000D03*
X154420000Y-70830000D03*
X154420000Y-68290000D03*
X156960000Y-70830000D03*
X156960000Y-68290000D03*
X159500000Y-70830000D03*
X159500000Y-68290000D03*
X162040000Y-70830000D03*
X162040000Y-68290000D03*
X164580000Y-70830000D03*
X164580000Y-68290000D03*
D14*
G36*
X111374505Y-129126204D02*
G01*
X111398773Y-129129804D01*
X111422572Y-129135765D01*
X111445671Y-129144030D01*
X111467850Y-129154520D01*
X111488893Y-129167132D01*
X111508599Y-129181747D01*
X111526777Y-129198223D01*
X111543253Y-129216401D01*
X111557868Y-129236107D01*
X111570480Y-129257150D01*
X111580970Y-129279329D01*
X111589235Y-129302428D01*
X111595196Y-129326227D01*
X111598796Y-129350495D01*
X111600000Y-129374999D01*
X111600000Y-130625001D01*
X111598796Y-130649505D01*
X111595196Y-130673773D01*
X111589235Y-130697572D01*
X111580970Y-130720671D01*
X111570480Y-130742850D01*
X111557868Y-130763893D01*
X111543253Y-130783599D01*
X111526777Y-130801777D01*
X111508599Y-130818253D01*
X111488893Y-130832868D01*
X111467850Y-130845480D01*
X111445671Y-130855970D01*
X111422572Y-130864235D01*
X111398773Y-130870196D01*
X111374505Y-130873796D01*
X111350001Y-130875000D01*
X110649999Y-130875000D01*
X110625495Y-130873796D01*
X110601227Y-130870196D01*
X110577428Y-130864235D01*
X110554329Y-130855970D01*
X110532150Y-130845480D01*
X110511107Y-130832868D01*
X110491401Y-130818253D01*
X110473223Y-130801777D01*
X110456747Y-130783599D01*
X110442132Y-130763893D01*
X110429520Y-130742850D01*
X110419030Y-130720671D01*
X110410765Y-130697572D01*
X110404804Y-130673773D01*
X110401204Y-130649505D01*
X110400000Y-130625001D01*
X110400000Y-129374999D01*
X110401204Y-129350495D01*
X110404804Y-129326227D01*
X110410765Y-129302428D01*
X110419030Y-129279329D01*
X110429520Y-129257150D01*
X110442132Y-129236107D01*
X110456747Y-129216401D01*
X110473223Y-129198223D01*
X110491401Y-129181747D01*
X110511107Y-129167132D01*
X110532150Y-129154520D01*
X110554329Y-129144030D01*
X110577428Y-129135765D01*
X110601227Y-129129804D01*
X110625495Y-129126204D01*
X110649999Y-129125000D01*
X111350001Y-129125000D01*
X111374505Y-129126204D01*
X111374505Y-129126204D01*
G37*
D15*
X111000000Y-130000000D03*
D16*
X113000000Y-130000000D03*
X115000000Y-130000000D03*
X117000000Y-130000000D03*
X128000000Y-130000000D03*
X126000000Y-130000000D03*
X124000000Y-130000000D03*
D14*
G36*
X122374505Y-129126204D02*
G01*
X122398773Y-129129804D01*
X122422572Y-129135765D01*
X122445671Y-129144030D01*
X122467850Y-129154520D01*
X122488893Y-129167132D01*
X122508599Y-129181747D01*
X122526777Y-129198223D01*
X122543253Y-129216401D01*
X122557868Y-129236107D01*
X122570480Y-129257150D01*
X122580970Y-129279329D01*
X122589235Y-129302428D01*
X122595196Y-129326227D01*
X122598796Y-129350495D01*
X122600000Y-129374999D01*
X122600000Y-130625001D01*
X122598796Y-130649505D01*
X122595196Y-130673773D01*
X122589235Y-130697572D01*
X122580970Y-130720671D01*
X122570480Y-130742850D01*
X122557868Y-130763893D01*
X122543253Y-130783599D01*
X122526777Y-130801777D01*
X122508599Y-130818253D01*
X122488893Y-130832868D01*
X122467850Y-130845480D01*
X122445671Y-130855970D01*
X122422572Y-130864235D01*
X122398773Y-130870196D01*
X122374505Y-130873796D01*
X122350001Y-130875000D01*
X121649999Y-130875000D01*
X121625495Y-130873796D01*
X121601227Y-130870196D01*
X121577428Y-130864235D01*
X121554329Y-130855970D01*
X121532150Y-130845480D01*
X121511107Y-130832868D01*
X121491401Y-130818253D01*
X121473223Y-130801777D01*
X121456747Y-130783599D01*
X121442132Y-130763893D01*
X121429520Y-130742850D01*
X121419030Y-130720671D01*
X121410765Y-130697572D01*
X121404804Y-130673773D01*
X121401204Y-130649505D01*
X121400000Y-130625001D01*
X121400000Y-129374999D01*
X121401204Y-129350495D01*
X121404804Y-129326227D01*
X121410765Y-129302428D01*
X121419030Y-129279329D01*
X121429520Y-129257150D01*
X121442132Y-129236107D01*
X121456747Y-129216401D01*
X121473223Y-129198223D01*
X121491401Y-129181747D01*
X121511107Y-129167132D01*
X121532150Y-129154520D01*
X121554329Y-129144030D01*
X121577428Y-129135765D01*
X121601227Y-129129804D01*
X121625495Y-129126204D01*
X121649999Y-129125000D01*
X122350001Y-129125000D01*
X122374505Y-129126204D01*
X122374505Y-129126204D01*
G37*
D15*
X122000000Y-130000000D03*
D14*
G36*
X159374505Y-129126204D02*
G01*
X159398773Y-129129804D01*
X159422572Y-129135765D01*
X159445671Y-129144030D01*
X159467850Y-129154520D01*
X159488893Y-129167132D01*
X159508599Y-129181747D01*
X159526777Y-129198223D01*
X159543253Y-129216401D01*
X159557868Y-129236107D01*
X159570480Y-129257150D01*
X159580970Y-129279329D01*
X159589235Y-129302428D01*
X159595196Y-129326227D01*
X159598796Y-129350495D01*
X159600000Y-129374999D01*
X159600000Y-130625001D01*
X159598796Y-130649505D01*
X159595196Y-130673773D01*
X159589235Y-130697572D01*
X159580970Y-130720671D01*
X159570480Y-130742850D01*
X159557868Y-130763893D01*
X159543253Y-130783599D01*
X159526777Y-130801777D01*
X159508599Y-130818253D01*
X159488893Y-130832868D01*
X159467850Y-130845480D01*
X159445671Y-130855970D01*
X159422572Y-130864235D01*
X159398773Y-130870196D01*
X159374505Y-130873796D01*
X159350001Y-130875000D01*
X158649999Y-130875000D01*
X158625495Y-130873796D01*
X158601227Y-130870196D01*
X158577428Y-130864235D01*
X158554329Y-130855970D01*
X158532150Y-130845480D01*
X158511107Y-130832868D01*
X158491401Y-130818253D01*
X158473223Y-130801777D01*
X158456747Y-130783599D01*
X158442132Y-130763893D01*
X158429520Y-130742850D01*
X158419030Y-130720671D01*
X158410765Y-130697572D01*
X158404804Y-130673773D01*
X158401204Y-130649505D01*
X158400000Y-130625001D01*
X158400000Y-129374999D01*
X158401204Y-129350495D01*
X158404804Y-129326227D01*
X158410765Y-129302428D01*
X158419030Y-129279329D01*
X158429520Y-129257150D01*
X158442132Y-129236107D01*
X158456747Y-129216401D01*
X158473223Y-129198223D01*
X158491401Y-129181747D01*
X158511107Y-129167132D01*
X158532150Y-129154520D01*
X158554329Y-129144030D01*
X158577428Y-129135765D01*
X158601227Y-129129804D01*
X158625495Y-129126204D01*
X158649999Y-129125000D01*
X159350001Y-129125000D01*
X159374505Y-129126204D01*
X159374505Y-129126204D01*
G37*
D15*
X159000000Y-130000000D03*
D16*
X161000000Y-130000000D03*
X163000000Y-130000000D03*
X172000000Y-130000000D03*
X170000000Y-130000000D03*
D14*
G36*
X168374505Y-129126204D02*
G01*
X168398773Y-129129804D01*
X168422572Y-129135765D01*
X168445671Y-129144030D01*
X168467850Y-129154520D01*
X168488893Y-129167132D01*
X168508599Y-129181747D01*
X168526777Y-129198223D01*
X168543253Y-129216401D01*
X168557868Y-129236107D01*
X168570480Y-129257150D01*
X168580970Y-129279329D01*
X168589235Y-129302428D01*
X168595196Y-129326227D01*
X168598796Y-129350495D01*
X168600000Y-129374999D01*
X168600000Y-130625001D01*
X168598796Y-130649505D01*
X168595196Y-130673773D01*
X168589235Y-130697572D01*
X168580970Y-130720671D01*
X168570480Y-130742850D01*
X168557868Y-130763893D01*
X168543253Y-130783599D01*
X168526777Y-130801777D01*
X168508599Y-130818253D01*
X168488893Y-130832868D01*
X168467850Y-130845480D01*
X168445671Y-130855970D01*
X168422572Y-130864235D01*
X168398773Y-130870196D01*
X168374505Y-130873796D01*
X168350001Y-130875000D01*
X167649999Y-130875000D01*
X167625495Y-130873796D01*
X167601227Y-130870196D01*
X167577428Y-130864235D01*
X167554329Y-130855970D01*
X167532150Y-130845480D01*
X167511107Y-130832868D01*
X167491401Y-130818253D01*
X167473223Y-130801777D01*
X167456747Y-130783599D01*
X167442132Y-130763893D01*
X167429520Y-130742850D01*
X167419030Y-130720671D01*
X167410765Y-130697572D01*
X167404804Y-130673773D01*
X167401204Y-130649505D01*
X167400000Y-130625001D01*
X167400000Y-129374999D01*
X167401204Y-129350495D01*
X167404804Y-129326227D01*
X167410765Y-129302428D01*
X167419030Y-129279329D01*
X167429520Y-129257150D01*
X167442132Y-129236107D01*
X167456747Y-129216401D01*
X167473223Y-129198223D01*
X167491401Y-129181747D01*
X167511107Y-129167132D01*
X167532150Y-129154520D01*
X167554329Y-129144030D01*
X167577428Y-129135765D01*
X167601227Y-129129804D01*
X167625495Y-129126204D01*
X167649999Y-129125000D01*
X168350001Y-129125000D01*
X168374505Y-129126204D01*
X168374505Y-129126204D01*
G37*
D15*
X168000000Y-130000000D03*
D14*
G36*
X148374505Y-129126204D02*
G01*
X148398773Y-129129804D01*
X148422572Y-129135765D01*
X148445671Y-129144030D01*
X148467850Y-129154520D01*
X148488893Y-129167132D01*
X148508599Y-129181747D01*
X148526777Y-129198223D01*
X148543253Y-129216401D01*
X148557868Y-129236107D01*
X148570480Y-129257150D01*
X148580970Y-129279329D01*
X148589235Y-129302428D01*
X148595196Y-129326227D01*
X148598796Y-129350495D01*
X148600000Y-129374999D01*
X148600000Y-130625001D01*
X148598796Y-130649505D01*
X148595196Y-130673773D01*
X148589235Y-130697572D01*
X148580970Y-130720671D01*
X148570480Y-130742850D01*
X148557868Y-130763893D01*
X148543253Y-130783599D01*
X148526777Y-130801777D01*
X148508599Y-130818253D01*
X148488893Y-130832868D01*
X148467850Y-130845480D01*
X148445671Y-130855970D01*
X148422572Y-130864235D01*
X148398773Y-130870196D01*
X148374505Y-130873796D01*
X148350001Y-130875000D01*
X147649999Y-130875000D01*
X147625495Y-130873796D01*
X147601227Y-130870196D01*
X147577428Y-130864235D01*
X147554329Y-130855970D01*
X147532150Y-130845480D01*
X147511107Y-130832868D01*
X147491401Y-130818253D01*
X147473223Y-130801777D01*
X147456747Y-130783599D01*
X147442132Y-130763893D01*
X147429520Y-130742850D01*
X147419030Y-130720671D01*
X147410765Y-130697572D01*
X147404804Y-130673773D01*
X147401204Y-130649505D01*
X147400000Y-130625001D01*
X147400000Y-129374999D01*
X147401204Y-129350495D01*
X147404804Y-129326227D01*
X147410765Y-129302428D01*
X147419030Y-129279329D01*
X147429520Y-129257150D01*
X147442132Y-129236107D01*
X147456747Y-129216401D01*
X147473223Y-129198223D01*
X147491401Y-129181747D01*
X147511107Y-129167132D01*
X147532150Y-129154520D01*
X147554329Y-129144030D01*
X147577428Y-129135765D01*
X147601227Y-129129804D01*
X147625495Y-129126204D01*
X147649999Y-129125000D01*
X148350001Y-129125000D01*
X148374505Y-129126204D01*
X148374505Y-129126204D01*
G37*
D15*
X148000000Y-130000000D03*
D16*
X150000000Y-130000000D03*
X152000000Y-130000000D03*
X154000000Y-130000000D03*
D19*
X119000000Y-114000000D03*
D14*
G36*
X119649505Y-115401204D02*
G01*
X119673773Y-115404804D01*
X119697572Y-115410765D01*
X119720671Y-115419030D01*
X119742850Y-115429520D01*
X119763893Y-115442132D01*
X119783599Y-115456747D01*
X119801777Y-115473223D01*
X119818253Y-115491401D01*
X119832868Y-115511107D01*
X119845480Y-115532150D01*
X119855970Y-115554329D01*
X119864235Y-115577428D01*
X119870196Y-115601227D01*
X119873796Y-115625495D01*
X119875000Y-115649999D01*
X119875000Y-116350001D01*
X119873796Y-116374505D01*
X119870196Y-116398773D01*
X119864235Y-116422572D01*
X119855970Y-116445671D01*
X119845480Y-116467850D01*
X119832868Y-116488893D01*
X119818253Y-116508599D01*
X119801777Y-116526777D01*
X119783599Y-116543253D01*
X119763893Y-116557868D01*
X119742850Y-116570480D01*
X119720671Y-116580970D01*
X119697572Y-116589235D01*
X119673773Y-116595196D01*
X119649505Y-116598796D01*
X119625001Y-116600000D01*
X118374999Y-116600000D01*
X118350495Y-116598796D01*
X118326227Y-116595196D01*
X118302428Y-116589235D01*
X118279329Y-116580970D01*
X118257150Y-116570480D01*
X118236107Y-116557868D01*
X118216401Y-116543253D01*
X118198223Y-116526777D01*
X118181747Y-116508599D01*
X118167132Y-116488893D01*
X118154520Y-116467850D01*
X118144030Y-116445671D01*
X118135765Y-116422572D01*
X118129804Y-116398773D01*
X118126204Y-116374505D01*
X118125000Y-116350001D01*
X118125000Y-115649999D01*
X118126204Y-115625495D01*
X118129804Y-115601227D01*
X118135765Y-115577428D01*
X118144030Y-115554329D01*
X118154520Y-115532150D01*
X118167132Y-115511107D01*
X118181747Y-115491401D01*
X118198223Y-115473223D01*
X118216401Y-115456747D01*
X118236107Y-115442132D01*
X118257150Y-115429520D01*
X118279329Y-115419030D01*
X118302428Y-115410765D01*
X118326227Y-115404804D01*
X118350495Y-115401204D01*
X118374999Y-115400000D01*
X119625001Y-115400000D01*
X119649505Y-115401204D01*
X119649505Y-115401204D01*
G37*
D15*
X119000000Y-116000000D03*
D14*
G36*
X119649505Y-122401204D02*
G01*
X119673773Y-122404804D01*
X119697572Y-122410765D01*
X119720671Y-122419030D01*
X119742850Y-122429520D01*
X119763893Y-122442132D01*
X119783599Y-122456747D01*
X119801777Y-122473223D01*
X119818253Y-122491401D01*
X119832868Y-122511107D01*
X119845480Y-122532150D01*
X119855970Y-122554329D01*
X119864235Y-122577428D01*
X119870196Y-122601227D01*
X119873796Y-122625495D01*
X119875000Y-122649999D01*
X119875000Y-123350001D01*
X119873796Y-123374505D01*
X119870196Y-123398773D01*
X119864235Y-123422572D01*
X119855970Y-123445671D01*
X119845480Y-123467850D01*
X119832868Y-123488893D01*
X119818253Y-123508599D01*
X119801777Y-123526777D01*
X119783599Y-123543253D01*
X119763893Y-123557868D01*
X119742850Y-123570480D01*
X119720671Y-123580970D01*
X119697572Y-123589235D01*
X119673773Y-123595196D01*
X119649505Y-123598796D01*
X119625001Y-123600000D01*
X118374999Y-123600000D01*
X118350495Y-123598796D01*
X118326227Y-123595196D01*
X118302428Y-123589235D01*
X118279329Y-123580970D01*
X118257150Y-123570480D01*
X118236107Y-123557868D01*
X118216401Y-123543253D01*
X118198223Y-123526777D01*
X118181747Y-123508599D01*
X118167132Y-123488893D01*
X118154520Y-123467850D01*
X118144030Y-123445671D01*
X118135765Y-123422572D01*
X118129804Y-123398773D01*
X118126204Y-123374505D01*
X118125000Y-123350001D01*
X118125000Y-122649999D01*
X118126204Y-122625495D01*
X118129804Y-122601227D01*
X118135765Y-122577428D01*
X118144030Y-122554329D01*
X118154520Y-122532150D01*
X118167132Y-122511107D01*
X118181747Y-122491401D01*
X118198223Y-122473223D01*
X118216401Y-122456747D01*
X118236107Y-122442132D01*
X118257150Y-122429520D01*
X118279329Y-122419030D01*
X118302428Y-122410765D01*
X118326227Y-122404804D01*
X118350495Y-122401204D01*
X118374999Y-122400000D01*
X119625001Y-122400000D01*
X119649505Y-122401204D01*
X119649505Y-122401204D01*
G37*
D15*
X119000000Y-123000000D03*
D19*
X119000000Y-121000000D03*
X112000000Y-109000000D03*
X112000000Y-107000000D03*
X112000000Y-105000000D03*
X112000000Y-103000000D03*
D14*
G36*
X112649505Y-100401204D02*
G01*
X112673773Y-100404804D01*
X112697572Y-100410765D01*
X112720671Y-100419030D01*
X112742850Y-100429520D01*
X112763893Y-100442132D01*
X112783599Y-100456747D01*
X112801777Y-100473223D01*
X112818253Y-100491401D01*
X112832868Y-100511107D01*
X112845480Y-100532150D01*
X112855970Y-100554329D01*
X112864235Y-100577428D01*
X112870196Y-100601227D01*
X112873796Y-100625495D01*
X112875000Y-100649999D01*
X112875000Y-101350001D01*
X112873796Y-101374505D01*
X112870196Y-101398773D01*
X112864235Y-101422572D01*
X112855970Y-101445671D01*
X112845480Y-101467850D01*
X112832868Y-101488893D01*
X112818253Y-101508599D01*
X112801777Y-101526777D01*
X112783599Y-101543253D01*
X112763893Y-101557868D01*
X112742850Y-101570480D01*
X112720671Y-101580970D01*
X112697572Y-101589235D01*
X112673773Y-101595196D01*
X112649505Y-101598796D01*
X112625001Y-101600000D01*
X111374999Y-101600000D01*
X111350495Y-101598796D01*
X111326227Y-101595196D01*
X111302428Y-101589235D01*
X111279329Y-101580970D01*
X111257150Y-101570480D01*
X111236107Y-101557868D01*
X111216401Y-101543253D01*
X111198223Y-101526777D01*
X111181747Y-101508599D01*
X111167132Y-101488893D01*
X111154520Y-101467850D01*
X111144030Y-101445671D01*
X111135765Y-101422572D01*
X111129804Y-101398773D01*
X111126204Y-101374505D01*
X111125000Y-101350001D01*
X111125000Y-100649999D01*
X111126204Y-100625495D01*
X111129804Y-100601227D01*
X111135765Y-100577428D01*
X111144030Y-100554329D01*
X111154520Y-100532150D01*
X111167132Y-100511107D01*
X111181747Y-100491401D01*
X111198223Y-100473223D01*
X111216401Y-100456747D01*
X111236107Y-100442132D01*
X111257150Y-100429520D01*
X111279329Y-100419030D01*
X111302428Y-100410765D01*
X111326227Y-100404804D01*
X111350495Y-100401204D01*
X111374999Y-100400000D01*
X112625001Y-100400000D01*
X112649505Y-100401204D01*
X112649505Y-100401204D01*
G37*
D15*
X112000000Y-101000000D03*
D14*
G36*
X112649505Y-87401204D02*
G01*
X112673773Y-87404804D01*
X112697572Y-87410765D01*
X112720671Y-87419030D01*
X112742850Y-87429520D01*
X112763893Y-87442132D01*
X112783599Y-87456747D01*
X112801777Y-87473223D01*
X112818253Y-87491401D01*
X112832868Y-87511107D01*
X112845480Y-87532150D01*
X112855970Y-87554329D01*
X112864235Y-87577428D01*
X112870196Y-87601227D01*
X112873796Y-87625495D01*
X112875000Y-87649999D01*
X112875000Y-88350001D01*
X112873796Y-88374505D01*
X112870196Y-88398773D01*
X112864235Y-88422572D01*
X112855970Y-88445671D01*
X112845480Y-88467850D01*
X112832868Y-88488893D01*
X112818253Y-88508599D01*
X112801777Y-88526777D01*
X112783599Y-88543253D01*
X112763893Y-88557868D01*
X112742850Y-88570480D01*
X112720671Y-88580970D01*
X112697572Y-88589235D01*
X112673773Y-88595196D01*
X112649505Y-88598796D01*
X112625001Y-88600000D01*
X111374999Y-88600000D01*
X111350495Y-88598796D01*
X111326227Y-88595196D01*
X111302428Y-88589235D01*
X111279329Y-88580970D01*
X111257150Y-88570480D01*
X111236107Y-88557868D01*
X111216401Y-88543253D01*
X111198223Y-88526777D01*
X111181747Y-88508599D01*
X111167132Y-88488893D01*
X111154520Y-88467850D01*
X111144030Y-88445671D01*
X111135765Y-88422572D01*
X111129804Y-88398773D01*
X111126204Y-88374505D01*
X111125000Y-88350001D01*
X111125000Y-87649999D01*
X111126204Y-87625495D01*
X111129804Y-87601227D01*
X111135765Y-87577428D01*
X111144030Y-87554329D01*
X111154520Y-87532150D01*
X111167132Y-87511107D01*
X111181747Y-87491401D01*
X111198223Y-87473223D01*
X111216401Y-87456747D01*
X111236107Y-87442132D01*
X111257150Y-87429520D01*
X111279329Y-87419030D01*
X111302428Y-87410765D01*
X111326227Y-87404804D01*
X111350495Y-87401204D01*
X111374999Y-87400000D01*
X112625001Y-87400000D01*
X112649505Y-87401204D01*
X112649505Y-87401204D01*
G37*
D15*
X112000000Y-88000000D03*
D19*
X112000000Y-90000000D03*
X112000000Y-92000000D03*
X112000000Y-94000000D03*
X112000000Y-96000000D03*
D20*
X172300000Y-95100000D03*
X133359100Y-109440000D03*
X163629300Y-104492000D03*
X162035000Y-86192100D03*
X163525000Y-107102800D03*
X163162600Y-109800100D03*
X175500000Y-125000000D03*
X174500000Y-119500000D03*
X164500000Y-113500000D03*
X173500000Y-89250000D03*
X172000000Y-86000000D03*
X168000000Y-107250000D03*
X170000000Y-73000000D03*
X168000000Y-83000000D03*
X173250000Y-111000000D03*
X175500000Y-110000000D03*
X165750000Y-78250000D03*
X174750000Y-80500000D03*
X178500000Y-82250000D03*
X178400000Y-104600000D03*
X178000000Y-98800000D03*
X173200000Y-96400000D03*
X118874200Y-79325900D03*
X118323000Y-81504400D03*
X161167100Y-86906000D03*
X168668300Y-92502100D03*
X150250000Y-116628800D03*
X159390200Y-116726200D03*
X148366100Y-116301900D03*
X159533400Y-115580100D03*
X162025000Y-96656800D03*
X168000000Y-94250000D03*
X163000000Y-97000000D03*
X166500000Y-91500000D03*
X166000000Y-107250000D03*
X166000000Y-103250000D03*
X165000000Y-107250000D03*
X165000000Y-103250000D03*
X164750000Y-94250000D03*
X163000000Y-91500000D03*
X166500000Y-94250000D03*
X164750000Y-91500000D03*
X142575700Y-112144900D03*
X138478500Y-114026000D03*
X178750000Y-92500000D03*
X180500000Y-90000000D03*
X180500000Y-108000000D03*
X180500000Y-111250000D03*
X180000000Y-127500000D03*
X180000000Y-124750000D03*
X179250000Y-74000000D03*
X179750000Y-76000000D03*
X146427000Y-111114100D03*
X136992400Y-115523700D03*
X156068000Y-83970000D03*
X132602900Y-116176400D03*
X157222300Y-88715100D03*
X136186300Y-117251400D03*
X161033100Y-89466800D03*
X136617700Y-118370700D03*
X120432300Y-85303100D03*
X154790700Y-81112300D03*
D21*
X116320000Y-70830000D02*
X117470300Y-70830000D01*
X136640000Y-70830000D02*
X135489700Y-70830000D01*
X135489700Y-70830000D02*
X135489700Y-70542400D01*
X135489700Y-70542400D02*
X134627000Y-69679700D01*
X134627000Y-69679700D02*
X118332900Y-69679700D01*
X118332900Y-69679700D02*
X117470300Y-70542300D01*
X117470300Y-70542300D02*
X117470300Y-70830000D01*
X141000000Y-130000000D02*
X140099700Y-130000000D01*
X140099700Y-130000000D02*
X140099700Y-130450100D01*
X140099700Y-130450100D02*
X139370100Y-131179700D01*
X139370100Y-131179700D02*
X134179700Y-131179700D01*
X134179700Y-131179700D02*
X133000000Y-130000000D01*
X148000000Y-130000000D02*
X162151900Y-115848100D01*
X162151900Y-115848100D02*
X162151900Y-104869700D01*
X166590590Y-100431010D02*
X166110800Y-100910800D01*
X166968990Y-100431010D02*
X166590590Y-100431010D01*
X172300000Y-95100000D02*
X166968990Y-100431010D01*
X162151900Y-104869700D02*
X166110800Y-100910800D01*
X166110800Y-100910800D02*
X166197400Y-100824200D01*
X131846900Y-128776900D02*
X133554000Y-128776900D01*
X133554000Y-128776900D02*
X134099700Y-129322600D01*
X134099700Y-129322600D02*
X134099700Y-130000000D01*
X131074200Y-128783600D02*
X131080900Y-128776900D01*
X131080900Y-128776900D02*
X131846900Y-128776900D01*
X131846900Y-128776900D02*
X131846900Y-110952200D01*
X131846900Y-110952200D02*
X133359100Y-109440000D01*
X139180000Y-68290000D02*
X138029700Y-68290000D01*
X131560000Y-68290000D02*
X132710300Y-68290000D01*
X132710300Y-68290000D02*
X132710300Y-68002400D01*
X132710300Y-68002400D02*
X133578300Y-67134400D01*
X133578300Y-67134400D02*
X137112400Y-67134400D01*
X137112400Y-67134400D02*
X138029700Y-68051700D01*
X138029700Y-68051700D02*
X138029700Y-68290000D01*
X154106100Y-130000000D02*
X152499100Y-131607000D01*
X152499100Y-131607000D02*
X132798200Y-131607000D01*
X132798200Y-131607000D02*
X131074200Y-129883000D01*
X131074200Y-129883000D02*
X131074200Y-128783600D01*
X131074200Y-128783600D02*
X124000000Y-128783600D01*
X154106100Y-130000000D02*
X154900000Y-130000000D01*
X154900000Y-130000000D02*
X156115000Y-128785000D01*
X156115000Y-128785000D02*
X161371000Y-128785000D01*
X161371000Y-128785000D02*
X162100000Y-129514000D01*
X162100000Y-129514000D02*
X162100000Y-130000000D01*
X162100000Y-130000000D02*
X163000000Y-130000000D01*
X154000000Y-130000000D02*
X154106100Y-130000000D01*
X163525000Y-107102800D02*
X163629300Y-106998500D01*
X163629300Y-106998500D02*
X163629300Y-104492000D01*
X164388300Y-108000400D02*
X163525000Y-107137100D01*
X163525000Y-107137100D02*
X163525000Y-107102800D01*
X165750000Y-83000000D02*
X165227100Y-83000000D01*
X165227100Y-83000000D02*
X162035000Y-86192100D01*
X156960000Y-68290000D02*
X155809700Y-68290000D01*
X151880000Y-68290000D02*
X153030300Y-68290000D01*
X153030300Y-68290000D02*
X153030300Y-68031300D01*
X153030300Y-68031300D02*
X153922300Y-67139300D01*
X153922300Y-67139300D02*
X154897300Y-67139300D01*
X154897300Y-67139300D02*
X155809700Y-68051700D01*
X155809700Y-68051700D02*
X155809700Y-68290000D01*
X164580000Y-70830000D02*
X165730300Y-70830000D01*
X124000000Y-128783600D02*
X120057300Y-128783600D01*
X120057300Y-128783600D02*
X117634100Y-131206800D01*
X117634100Y-131206800D02*
X114651600Y-131206800D01*
X114651600Y-131206800D02*
X113900300Y-130455500D01*
X113900300Y-130455500D02*
X113900300Y-130000000D01*
X112000000Y-109900300D02*
X113900300Y-111800600D01*
X113900300Y-111800600D02*
X113900300Y-130000000D01*
X112000000Y-109000000D02*
X112000000Y-109900300D01*
X168000000Y-83000000D02*
X165750000Y-83000000D01*
X165750000Y-83000000D02*
X165750000Y-78250000D01*
X124000000Y-128824700D02*
X124000000Y-128783600D01*
X124000000Y-130000000D02*
X124000000Y-128824700D01*
X113000000Y-130000000D02*
X113900300Y-130000000D01*
X175500000Y-130000000D02*
X181865000Y-130000000D01*
X181865000Y-130000000D02*
X183110000Y-131245000D01*
X172450200Y-130000000D02*
X175500000Y-130000000D01*
X175500000Y-130000000D02*
X175500000Y-125000000D01*
X172000000Y-130000000D02*
X172450200Y-130000000D01*
X167900300Y-73000000D02*
X170000000Y-73000000D01*
X165730300Y-70830000D02*
X167900300Y-73000000D01*
X167900300Y-73000000D02*
X165750000Y-75150300D01*
X165750000Y-75150300D02*
X165750000Y-78250000D01*
X164388300Y-108000400D02*
X167249600Y-108000400D01*
X167249600Y-108000400D02*
X168000000Y-107250000D01*
X163162600Y-109800100D02*
X163162600Y-109226100D01*
X163162600Y-109226100D02*
X164388300Y-108000400D01*
X139180000Y-68290000D02*
X140330300Y-68290000D01*
X146800000Y-70830000D02*
X145649700Y-70830000D01*
X145649700Y-70830000D02*
X145649700Y-70542300D01*
X145649700Y-70542300D02*
X144787100Y-69679700D01*
X144787100Y-69679700D02*
X141481600Y-69679700D01*
X141481600Y-69679700D02*
X140330300Y-68528400D01*
X140330300Y-68528400D02*
X140330300Y-68290000D01*
X135000000Y-130000000D02*
X134099700Y-130000000D01*
X171124800Y-107625200D02*
X176250000Y-102500000D01*
X168000000Y-107250000D02*
X168375200Y-107625200D01*
X168375200Y-107625200D02*
X171124800Y-107625200D01*
X171124800Y-107625200D02*
X171124800Y-107874800D01*
X171124800Y-107874800D02*
X173250000Y-110000000D01*
X172000000Y-83000000D02*
X172250000Y-83000000D01*
X172250000Y-83000000D02*
X174750000Y-80500000D01*
X168000000Y-83000000D02*
X172000000Y-83000000D01*
X172000000Y-83000000D02*
X172000000Y-86000000D01*
X173250000Y-110000000D02*
X175500000Y-110000000D01*
X173250000Y-110000000D02*
X173250000Y-111000000D01*
X164500000Y-113500000D02*
X163162600Y-112162600D01*
X163162600Y-112162600D02*
X163162600Y-109800100D01*
X172000000Y-86000000D02*
X172000000Y-87750000D01*
X172000000Y-87750000D02*
X173500000Y-89250000D01*
X170000000Y-73000000D02*
X174825000Y-68175000D01*
X174825000Y-68175000D02*
X183110000Y-68175000D01*
X183110000Y-102175000D02*
X182785000Y-102500000D01*
X182785000Y-102500000D02*
X176250000Y-102500000D01*
X174750000Y-80500000D02*
X176750000Y-80500000D01*
X176750000Y-80500000D02*
X178500000Y-82250000D01*
X174500000Y-119500000D02*
X175500000Y-120500000D01*
X175500000Y-120500000D02*
X175500000Y-125000000D01*
X118860000Y-68290000D02*
X116320000Y-68290000D01*
X118860000Y-70830000D02*
X118860000Y-79311700D01*
X118860000Y-79311700D02*
X118874200Y-79325900D01*
X121400000Y-71980300D02*
X119877200Y-73503100D01*
X119877200Y-73503100D02*
X119877200Y-79950200D01*
X119877200Y-79950200D02*
X118323000Y-81504400D01*
X121400000Y-70830000D02*
X121400000Y-71980300D01*
X159500000Y-70830000D02*
X159500000Y-71980300D01*
X119000000Y-116000000D02*
X127721900Y-107278100D01*
X127721900Y-107278100D02*
X151616200Y-107278100D01*
X151616200Y-107278100D02*
X152300400Y-106593900D01*
X152300400Y-106593900D02*
X152300400Y-79179900D01*
X152300400Y-79179900D02*
X159500000Y-71980300D01*
X162040000Y-71980300D02*
X153522000Y-80498300D01*
X153522000Y-80498300D02*
X153522000Y-106510600D01*
X153522000Y-106510600D02*
X151953800Y-108078800D01*
X151953800Y-108078800D02*
X133659300Y-108078800D01*
X133659300Y-108078800D02*
X119000000Y-122738100D01*
X119000000Y-122738100D02*
X119000000Y-123000000D01*
X162040000Y-70830000D02*
X162040000Y-71980300D01*
X154420000Y-68290000D02*
X154420000Y-69440300D01*
X112000000Y-90000000D02*
X112000000Y-89099700D01*
X112000000Y-89099700D02*
X112675200Y-89099700D01*
X112675200Y-89099700D02*
X120295600Y-81479300D01*
X120295600Y-81479300D02*
X120295600Y-76732800D01*
X120295600Y-76732800D02*
X124203600Y-72824800D01*
X124203600Y-72824800D02*
X151568700Y-72824800D01*
X151568700Y-72824800D02*
X153030400Y-71363100D01*
X153030400Y-71363100D02*
X153030400Y-70591500D01*
X153030400Y-70591500D02*
X154181600Y-69440300D01*
X154181600Y-69440300D02*
X154420000Y-69440300D01*
X112000000Y-91099700D02*
X112450100Y-91099700D01*
X112450100Y-91099700D02*
X120997200Y-82552600D01*
X120997200Y-82552600D02*
X120997200Y-76597500D01*
X120997200Y-76597500D02*
X124369500Y-73225200D01*
X124369500Y-73225200D02*
X153652800Y-73225200D01*
X153652800Y-73225200D02*
X155809700Y-71068300D01*
X155809700Y-71068300D02*
X155809700Y-70830000D01*
X156960000Y-70830000D02*
X155809700Y-70830000D01*
X112000000Y-92000000D02*
X112000000Y-91099700D01*
X161414800Y-86658300D02*
X161167100Y-86906000D01*
X161414800Y-86658300D02*
X162220700Y-87464200D01*
X162220700Y-87464200D02*
X163630400Y-87464200D01*
X163630400Y-87464200D02*
X168668300Y-92502100D01*
X130170300Y-70830000D02*
X130170300Y-71068200D01*
X130170300Y-71068200D02*
X131094300Y-71992200D01*
X131094300Y-71992200D02*
X147327300Y-71992200D01*
X147327300Y-71992200D02*
X148070000Y-71249500D01*
X148070000Y-71249500D02*
X148070000Y-70411500D01*
X148070000Y-70411500D02*
X148801900Y-69679600D01*
X148801900Y-69679600D02*
X149614600Y-69679600D01*
X149614600Y-69679600D02*
X150529600Y-68764600D01*
X150529600Y-68764600D02*
X150529600Y-68013500D01*
X150529600Y-68013500D02*
X151804800Y-66738300D01*
X151804800Y-66738300D02*
X159596400Y-66738300D01*
X159596400Y-66738300D02*
X160770000Y-67911900D01*
X160770000Y-67911900D02*
X160770000Y-68684300D01*
X160770000Y-68684300D02*
X161765300Y-69679600D01*
X161765300Y-69679600D02*
X162545000Y-69679600D01*
X162545000Y-69679600D02*
X163190400Y-70325000D01*
X163190400Y-70325000D02*
X163190400Y-79429100D01*
X163190400Y-79429100D02*
X161256300Y-81363200D01*
X161256300Y-81363200D02*
X161256300Y-86499800D01*
X161256300Y-86499800D02*
X161414800Y-86658300D01*
X129020000Y-70830000D02*
X130170300Y-70830000D01*
X150250000Y-116628800D02*
X150347400Y-116726200D01*
X150347400Y-116726200D02*
X159390200Y-116726200D01*
X159533400Y-115580100D02*
X149087900Y-115580100D01*
X149087900Y-115580100D02*
X148366100Y-116301900D01*
X162025000Y-96656800D02*
X162475000Y-96206800D01*
X162475000Y-96206800D02*
X163228000Y-96206800D01*
X163228000Y-96206800D02*
X163434000Y-96000000D01*
X163434000Y-96000000D02*
X166750000Y-96000000D01*
X166750000Y-96000000D02*
X168000000Y-94750000D01*
X168000000Y-94750000D02*
X168000000Y-94250000D01*
X163000000Y-97000000D02*
X163450000Y-96550000D01*
X163450000Y-96550000D02*
X166950000Y-96550000D01*
X166950000Y-96550000D02*
X168750000Y-94750000D01*
X168750000Y-94750000D02*
X168750000Y-93750000D01*
X168750000Y-93750000D02*
X166500000Y-91500000D01*
X166000000Y-107250000D02*
X166000000Y-103250000D01*
X165000000Y-107250000D02*
X165000000Y-103250000D01*
X164750000Y-94250000D02*
X164750000Y-93250000D01*
X164750000Y-93250000D02*
X163000000Y-91500000D01*
X166500000Y-94250000D02*
X166500000Y-93250000D01*
X166500000Y-93250000D02*
X164750000Y-91500000D01*
X142575700Y-112144900D02*
X153598300Y-112144900D01*
X153598300Y-112144900D02*
X172323200Y-93420000D01*
X172323200Y-93420000D02*
X182220000Y-93420000D01*
X184000000Y-93139400D02*
X184000000Y-92400000D01*
X182688399Y-94451001D02*
X184000000Y-93139400D01*
X173451001Y-94451001D02*
X182688399Y-94451001D01*
X173349999Y-94349999D02*
X173451001Y-94451001D01*
X171958899Y-94349999D02*
X173349999Y-94349999D01*
X152283300Y-114026000D02*
X166278300Y-100031000D01*
X138478500Y-114026000D02*
X152283300Y-114026000D01*
X166278300Y-100031000D02*
X166569000Y-100031000D01*
X166569000Y-100031000D02*
X171549999Y-95050001D01*
X171549999Y-95050001D02*
X171549999Y-94758899D01*
X171549999Y-94758899D02*
X171958899Y-94349999D01*
X178750000Y-92500000D02*
X178750000Y-87500000D01*
X178750000Y-87500000D02*
X182250000Y-84000000D01*
X182250000Y-84000000D02*
X185000000Y-84000000D01*
X185000000Y-84000000D02*
X186250000Y-85250000D01*
X186250000Y-85250000D02*
X186250000Y-89500000D01*
X186250000Y-89500000D02*
X185390000Y-90360000D01*
X185390000Y-90360000D02*
X184000000Y-90360000D01*
X180500000Y-90000000D02*
X181189000Y-89311000D01*
X181189000Y-89311000D02*
X181189000Y-86805100D01*
X181189000Y-86805100D02*
X182745000Y-85249000D01*
X182745000Y-85249000D02*
X184495000Y-85249000D01*
X184495000Y-85249000D02*
X185031000Y-85785100D01*
X185031000Y-85785100D02*
X185031000Y-87289000D01*
X185031000Y-87289000D02*
X184000000Y-88320000D01*
X184000000Y-108040000D02*
X185099000Y-106941000D01*
X185099000Y-106941000D02*
X185099000Y-105574000D01*
X185099000Y-105574000D02*
X184495000Y-104969000D01*
X184495000Y-104969000D02*
X182745000Y-104969000D01*
X182745000Y-104969000D02*
X180500000Y-107214000D01*
X180500000Y-107214000D02*
X180500000Y-108000000D01*
X180500000Y-111250000D02*
X180500000Y-110614000D01*
X180500000Y-110614000D02*
X179250000Y-109364000D01*
X179250000Y-109364000D02*
X179250000Y-107000000D01*
X179250000Y-107000000D02*
X182560000Y-103690000D01*
X182560000Y-103690000D02*
X184310000Y-103690000D01*
X184310000Y-103690000D02*
X184625000Y-103375000D01*
X184625000Y-103375000D02*
X184625000Y-102625000D01*
X184625000Y-102625000D02*
X185500000Y-101750000D01*
X185500000Y-101750000D02*
X187221000Y-101750000D01*
X187221000Y-101750000D02*
X188490000Y-103019000D01*
X188490000Y-103019000D02*
X188490000Y-105590000D01*
X188490000Y-105590000D02*
X184000000Y-110080000D01*
X180000000Y-127500000D02*
X180000000Y-126750000D01*
X180000000Y-126750000D02*
X178750000Y-125500000D01*
X178750000Y-125500000D02*
X178750000Y-121500000D01*
X178750000Y-121500000D02*
X182000000Y-118250000D01*
X182000000Y-118250000D02*
X185000000Y-118250000D01*
X185000000Y-118250000D02*
X186000000Y-119250000D01*
X186000000Y-119250000D02*
X186000000Y-122360000D01*
X186000000Y-122360000D02*
X184000000Y-124360000D01*
X180000000Y-124750000D02*
X180450000Y-124300000D01*
X180450000Y-124300000D02*
X180450000Y-121544000D01*
X180450000Y-121544000D02*
X182745000Y-119249000D01*
X182745000Y-119249000D02*
X184495000Y-119249000D01*
X184495000Y-119249000D02*
X185031000Y-119785000D01*
X185031000Y-119785000D02*
X185031000Y-121289000D01*
X185031000Y-121289000D02*
X184000000Y-122320000D01*
X179250000Y-74000000D02*
X182281000Y-70969000D01*
X182281000Y-70969000D02*
X184495000Y-70969000D01*
X184495000Y-70969000D02*
X185031000Y-71505100D01*
X185031000Y-71505100D02*
X185031000Y-73009000D01*
X185031000Y-73009000D02*
X184000000Y-74040000D01*
X184000000Y-76080000D02*
X188490000Y-71590000D01*
X188490000Y-71590000D02*
X188490000Y-69019000D01*
X188490000Y-69019000D02*
X187476000Y-68005000D01*
X187476000Y-68005000D02*
X185522000Y-68005000D01*
X185522000Y-68005000D02*
X183777000Y-69750000D01*
X183777000Y-69750000D02*
X181000000Y-69750000D01*
X181000000Y-69750000D02*
X180500000Y-70250000D01*
X180500000Y-70250000D02*
X180250000Y-70250000D01*
X180250000Y-70250000D02*
X177250000Y-73250000D01*
X177250000Y-73250000D02*
X177250000Y-74250000D01*
X177250000Y-74250000D02*
X179000000Y-76000000D01*
X179000000Y-76000000D02*
X179750000Y-76000000D01*
X146427000Y-111114100D02*
X153584900Y-111114100D01*
X153584900Y-111114100D02*
X184000000Y-80699000D01*
X184000000Y-80699000D02*
X184000000Y-78120000D01*
X182220000Y-79140000D02*
X182220000Y-81884100D01*
X182220000Y-81884100D02*
X154020700Y-110083400D01*
X154020700Y-110083400D02*
X141360100Y-110083400D01*
X141360100Y-110083400D02*
X136992400Y-114451100D01*
X136992400Y-114451100D02*
X136992400Y-115523700D01*
X132602900Y-116176400D02*
X140300200Y-108479100D01*
X140300200Y-108479100D02*
X152167600Y-108479100D01*
X152167600Y-108479100D02*
X156068000Y-104578700D01*
X156068000Y-104578700D02*
X156068000Y-83970000D01*
X157222300Y-88715100D02*
X157222300Y-104616000D01*
X157222300Y-104616000D02*
X152558600Y-109279700D01*
X152558600Y-109279700D02*
X141031600Y-109279700D01*
X141031600Y-109279700D02*
X135834300Y-114477000D01*
X135834300Y-114477000D02*
X135834300Y-116899400D01*
X135834300Y-116899400D02*
X136186300Y-117251400D01*
X161033100Y-89466800D02*
X161033100Y-101371400D01*
X161033100Y-101371400D02*
X152724500Y-109680000D01*
X152724500Y-109680000D02*
X141197400Y-109680000D01*
X141197400Y-109680000D02*
X136234600Y-114642800D01*
X136234600Y-114642800D02*
X136234600Y-116086400D01*
X136234600Y-116086400D02*
X136942200Y-116794000D01*
X136942200Y-116794000D02*
X136942200Y-118046200D01*
X136942200Y-118046200D02*
X136617700Y-118370700D01*
X125090300Y-70830000D02*
X125090300Y-71117600D01*
X125090300Y-71117600D02*
X126365200Y-72392500D01*
X126365200Y-72392500D02*
X149405500Y-72392500D01*
X149405500Y-72392500D02*
X150729700Y-71068300D01*
X150729700Y-71068300D02*
X150729700Y-70830000D01*
X151880000Y-70830000D02*
X150729700Y-70830000D01*
X123940000Y-70830000D02*
X125090300Y-70830000D01*
X120500000Y-132981000D02*
X122000000Y-131481000D01*
X122000000Y-131481000D02*
X122000000Y-130000000D01*
D22*
X120500000Y-132981000D02*
X113006000Y-132981000D01*
X113006000Y-132981000D02*
X111000000Y-130975000D01*
X111000000Y-130975000D02*
X111000000Y-130000000D01*
X155731000Y-132981000D02*
X120500000Y-132981000D01*
X109150000Y-99400000D02*
X109150000Y-99349600D01*
D23*
X112000000Y-80500000D02*
X112000000Y-82500000D01*
X112000000Y-82500000D02*
X109450000Y-85049600D01*
D22*
X109150000Y-99400000D02*
X110400000Y-99400000D01*
X110400000Y-99400000D02*
X112000000Y-101000000D01*
X109150000Y-99349600D02*
X109150000Y-99400000D01*
X111000000Y-130000000D02*
X110300000Y-130000000D01*
X110300000Y-130000000D02*
X109150000Y-128850000D01*
X109150000Y-128850000D02*
X109150000Y-99400000D01*
X109150000Y-99349600D02*
X109450000Y-99049600D01*
X159000000Y-130000000D02*
X158329000Y-130671000D01*
X158329000Y-130671000D02*
X158041000Y-130671000D01*
X158041000Y-130671000D02*
X155731000Y-132981000D01*
X155731000Y-132981000D02*
X167269000Y-132981000D01*
X167269000Y-132981000D02*
X168000000Y-132250000D01*
X168000000Y-132250000D02*
X168000000Y-130000000D01*
X112000000Y-88000000D02*
X111329000Y-87329300D01*
X111329000Y-87329300D02*
X111329000Y-86928500D01*
X111329000Y-86928500D02*
X109450000Y-85049600D01*
D23*
X109450000Y-85049600D02*
X109450000Y-99049600D01*
D21*
X117000000Y-130000000D02*
X117000000Y-121428200D01*
X117000000Y-121428200D02*
X130749700Y-107678500D01*
X130749700Y-107678500D02*
X151782100Y-107678500D01*
X151782100Y-107678500D02*
X152721400Y-106739200D01*
X152721400Y-106739200D02*
X152721400Y-80732600D01*
X152721400Y-80732600D02*
X160690600Y-72763400D01*
X160690600Y-72763400D02*
X160690600Y-70392600D01*
X160690600Y-70392600D02*
X159738300Y-69440300D01*
X159738300Y-69440300D02*
X159500000Y-69440300D01*
X159500000Y-68290000D02*
X159500000Y-69440300D01*
X112000000Y-94183700D02*
X120432300Y-85751400D01*
X120432300Y-85751400D02*
X120432300Y-85303100D01*
X112000000Y-94183700D02*
X112000000Y-94900300D01*
X112000000Y-94000000D02*
X112000000Y-94183700D01*
X112000000Y-107000000D02*
X112000000Y-106099700D01*
X112000000Y-94900300D02*
X112450100Y-94900300D01*
X112450100Y-94900300D02*
X113182100Y-95632300D01*
X113182100Y-95632300D02*
X113182100Y-105403700D01*
X113182100Y-105403700D02*
X112486100Y-106099700D01*
X112486100Y-106099700D02*
X112000000Y-106099700D01*
X154790700Y-81112300D02*
X156822100Y-83143700D01*
X156822100Y-83143700D02*
X156822100Y-86578400D01*
X156822100Y-86578400D02*
X156468500Y-86932000D01*
X156468500Y-86932000D02*
X156468500Y-104803700D01*
X156468500Y-104803700D02*
X152392800Y-108879400D01*
X152392800Y-108879400D02*
X140865800Y-108879400D01*
X140865800Y-108879400D02*
X135424500Y-114320700D01*
X135424500Y-114320700D02*
X135424500Y-122424500D01*
X135424500Y-122424500D02*
X142099700Y-129099700D01*
X142099700Y-129099700D02*
X142099700Y-130000000D01*
X143000000Y-130000000D02*
X142099700Y-130000000D01*
D24*
G36*
X190912333Y-66771714D02*
G01*
X191210842Y-66861839D01*
X191486162Y-67008229D01*
X191727805Y-67205308D01*
X191926567Y-67445571D01*
X192074874Y-67719858D01*
X192167081Y-68017734D01*
X192203001Y-68359487D01*
X192203000Y-131661494D01*
X192169286Y-132005332D01*
X192079161Y-132303843D01*
X191932771Y-132579162D01*
X191735692Y-132820805D01*
X191495432Y-133019565D01*
X191221143Y-133167873D01*
X190923266Y-133260081D01*
X190581522Y-133296000D01*
X168912685Y-133296000D01*
X168931235Y-133277450D01*
X168984080Y-133234081D01*
X169047143Y-133157240D01*
X169062439Y-133138601D01*
X169157157Y-133023188D01*
X169285764Y-132782581D01*
X169361271Y-132533667D01*
X182000938Y-132533667D01*
X182122634Y-132820058D01*
X182448884Y-132982420D01*
X182800541Y-133078014D01*
X183164090Y-133103166D01*
X183525561Y-133056909D01*
X183871062Y-132941021D01*
X184097366Y-132820058D01*
X184219062Y-132533667D01*
X183110000Y-131424605D01*
X182000938Y-132533667D01*
X169361271Y-132533667D01*
X169364960Y-132521507D01*
X169385000Y-132318037D01*
X169385000Y-132318028D01*
X169391700Y-132250001D01*
X169385000Y-132181974D01*
X169385000Y-131346626D01*
X169525100Y-131421511D01*
X169757899Y-131492130D01*
X170000000Y-131515975D01*
X170242102Y-131492130D01*
X170474901Y-131421511D01*
X170689449Y-131306833D01*
X170877502Y-131152502D01*
X171000481Y-131002652D01*
X171043693Y-131066725D01*
X171216526Y-131238078D01*
X171419467Y-131372421D01*
X171644718Y-131464591D01*
X171682391Y-131468462D01*
X171873000Y-131343731D01*
X171873000Y-130127000D01*
X172127000Y-130127000D01*
X172127000Y-131343731D01*
X172317609Y-131468462D01*
X172355282Y-131464591D01*
X172580533Y-131372421D01*
X172691308Y-131299090D01*
X181251834Y-131299090D01*
X181298091Y-131660561D01*
X181413979Y-132006062D01*
X181534942Y-132232366D01*
X181821333Y-132354062D01*
X182930395Y-131245000D01*
X181821333Y-130135938D01*
X181534942Y-130257634D01*
X181372580Y-130583884D01*
X181276986Y-130935541D01*
X181251834Y-131299090D01*
X172691308Y-131299090D01*
X172783474Y-131238078D01*
X172956307Y-131066725D01*
X173092390Y-130864946D01*
X173186493Y-130640496D01*
X173235000Y-130402000D01*
X173235000Y-130127000D01*
X172127000Y-130127000D01*
X171873000Y-130127000D01*
X171853000Y-130127000D01*
X171853000Y-129956333D01*
X182000938Y-129956333D01*
X183110000Y-131065395D01*
X183124143Y-131051253D01*
X183303748Y-131230858D01*
X183289605Y-131245000D01*
X184398667Y-132354062D01*
X184685058Y-132232366D01*
X184847420Y-131906116D01*
X184943014Y-131554459D01*
X184968166Y-131190910D01*
X184958442Y-131114920D01*
X185083397Y-131239875D01*
X185457647Y-131489941D01*
X185873490Y-131662189D01*
X186314947Y-131750000D01*
X186765053Y-131750000D01*
X187206510Y-131662189D01*
X187622353Y-131489941D01*
X187996603Y-131239875D01*
X188314875Y-130921603D01*
X188564941Y-130547353D01*
X188737189Y-130131510D01*
X188825000Y-129690053D01*
X188825000Y-129239947D01*
X188737189Y-128798490D01*
X188564941Y-128382647D01*
X188314875Y-128008397D01*
X187996603Y-127690125D01*
X187622353Y-127440059D01*
X187206510Y-127267811D01*
X186765053Y-127180000D01*
X186314947Y-127180000D01*
X185873490Y-127267811D01*
X185457647Y-127440059D01*
X185083397Y-127690125D01*
X184765125Y-128008397D01*
X184515059Y-128382647D01*
X184342811Y-128798490D01*
X184255000Y-129239947D01*
X184255000Y-129690053D01*
X184293216Y-129882176D01*
X184219061Y-129956331D01*
X184097366Y-129669942D01*
X183771116Y-129507580D01*
X183419459Y-129411986D01*
X183055910Y-129386834D01*
X182694439Y-129433091D01*
X182348938Y-129548979D01*
X182122634Y-129669942D01*
X182000938Y-129956333D01*
X171853000Y-129956333D01*
X171853000Y-129873000D01*
X171873000Y-129873000D01*
X171873000Y-128656269D01*
X172127000Y-128656269D01*
X172127000Y-129873000D01*
X173235000Y-129873000D01*
X173235000Y-129598000D01*
X173186493Y-129359504D01*
X173092390Y-129135054D01*
X172956307Y-128933275D01*
X172783474Y-128761922D01*
X172580533Y-128627579D01*
X172355282Y-128535409D01*
X172317609Y-128531538D01*
X172127000Y-128656269D01*
X171873000Y-128656269D01*
X171682391Y-128531538D01*
X171644718Y-128535409D01*
X171419467Y-128627579D01*
X171216526Y-128761922D01*
X171043693Y-128933275D01*
X171000481Y-128997348D01*
X170877502Y-128847498D01*
X170689448Y-128693167D01*
X170474900Y-128578489D01*
X170242101Y-128507870D01*
X170000000Y-128484025D01*
X169757898Y-128507870D01*
X169525099Y-128578489D01*
X169310551Y-128693167D01*
X169122498Y-128847498D01*
X169090809Y-128886111D01*
X169088405Y-128881613D01*
X168977962Y-128747038D01*
X168843387Y-128636595D01*
X168689851Y-128554528D01*
X168523255Y-128503992D01*
X168350001Y-128486928D01*
X167649999Y-128486928D01*
X167476745Y-128503992D01*
X167310149Y-128554528D01*
X167156613Y-128636595D01*
X167022038Y-128747038D01*
X166911595Y-128881613D01*
X166829528Y-129035149D01*
X166778992Y-129201745D01*
X166761928Y-129374999D01*
X166761928Y-129378195D01*
X166714237Y-129467419D01*
X166635041Y-129728493D01*
X166615001Y-129931963D01*
X166615000Y-131596000D01*
X159362685Y-131596000D01*
X159456059Y-131502626D01*
X159523255Y-131496008D01*
X159689851Y-131445472D01*
X159843387Y-131363405D01*
X159977962Y-131252962D01*
X160088405Y-131118387D01*
X160090810Y-131113888D01*
X160122499Y-131152502D01*
X160310552Y-131306833D01*
X160525100Y-131421511D01*
X160757899Y-131492130D01*
X161000000Y-131515975D01*
X161242102Y-131492130D01*
X161474901Y-131421511D01*
X161689449Y-131306833D01*
X161877502Y-131152502D01*
X162000481Y-131002652D01*
X162043693Y-131066725D01*
X162216526Y-131238078D01*
X162419467Y-131372421D01*
X162644718Y-131464591D01*
X162682391Y-131468462D01*
X162873000Y-131343731D01*
X162873000Y-130127000D01*
X163127000Y-130127000D01*
X163127000Y-131343731D01*
X163317609Y-131468462D01*
X163355282Y-131464591D01*
X163580533Y-131372421D01*
X163783474Y-131238078D01*
X163956307Y-131066725D01*
X164092390Y-130864946D01*
X164186493Y-130640496D01*
X164235000Y-130402000D01*
X164235000Y-130127000D01*
X163127000Y-130127000D01*
X162873000Y-130127000D01*
X162853000Y-130127000D01*
X162853000Y-129873000D01*
X162873000Y-129873000D01*
X162873000Y-128656269D01*
X163127000Y-128656269D01*
X163127000Y-129873000D01*
X164235000Y-129873000D01*
X164235000Y-129598000D01*
X164186493Y-129359504D01*
X164092390Y-129135054D01*
X163956307Y-128933275D01*
X163783474Y-128761922D01*
X163580533Y-128627579D01*
X163355282Y-128535409D01*
X163317609Y-128531538D01*
X163127000Y-128656269D01*
X162873000Y-128656269D01*
X162682391Y-128531538D01*
X162644718Y-128535409D01*
X162419467Y-128627579D01*
X162216526Y-128761922D01*
X162043693Y-128933275D01*
X162000481Y-128997348D01*
X161877502Y-128847498D01*
X161689448Y-128693167D01*
X161474900Y-128578489D01*
X161242101Y-128507870D01*
X161000000Y-128484025D01*
X160757898Y-128507870D01*
X160525099Y-128578489D01*
X160310551Y-128693167D01*
X160122498Y-128847498D01*
X160090809Y-128886111D01*
X160088405Y-128881613D01*
X159977962Y-128747038D01*
X159843387Y-128636595D01*
X159689851Y-128554528D01*
X159523255Y-128503992D01*
X159350001Y-128486928D01*
X158649999Y-128486928D01*
X158476745Y-128503992D01*
X158310149Y-128554528D01*
X158156613Y-128636595D01*
X158022038Y-128747038D01*
X157911595Y-128881613D01*
X157829528Y-129035149D01*
X157778992Y-129201745D01*
X157772374Y-129268941D01*
X157720375Y-129320940D01*
X157508419Y-129385236D01*
X157267812Y-129513843D01*
X157267810Y-129513844D01*
X157267811Y-129513844D01*
X157109766Y-129643548D01*
X157109764Y-129643550D01*
X157056919Y-129686919D01*
X157013550Y-129739764D01*
X155157315Y-131596000D01*
X139993246Y-131596000D01*
X140295097Y-131294149D01*
X140310552Y-131306833D01*
X140525100Y-131421511D01*
X140757899Y-131492130D01*
X141000000Y-131515975D01*
X141242102Y-131492130D01*
X141474901Y-131421511D01*
X141689449Y-131306833D01*
X141877502Y-131152502D01*
X142000001Y-131003237D01*
X142122499Y-131152502D01*
X142310552Y-131306833D01*
X142525100Y-131421511D01*
X142757899Y-131492130D01*
X143000000Y-131515975D01*
X143242102Y-131492130D01*
X143474901Y-131421511D01*
X143689449Y-131306833D01*
X143877502Y-131152502D01*
X144031833Y-130964449D01*
X144146511Y-130749900D01*
X144217130Y-130517101D01*
X144235000Y-130335664D01*
X144235000Y-129664335D01*
X144217130Y-129482898D01*
X144146511Y-129250099D01*
X144031833Y-129035551D01*
X143877502Y-128847498D01*
X143689448Y-128693167D01*
X143474900Y-128578489D01*
X143242101Y-128507870D01*
X143000000Y-128484025D01*
X142757898Y-128507870D01*
X142596716Y-128556764D01*
X142593898Y-128554451D01*
X136159500Y-122120054D01*
X136159500Y-119355303D01*
X136301217Y-119414004D01*
X136510837Y-119455700D01*
X136724563Y-119455700D01*
X136934183Y-119414004D01*
X137131640Y-119332215D01*
X137309347Y-119213475D01*
X137460475Y-119062347D01*
X137579215Y-118884640D01*
X137661004Y-118687183D01*
X137702700Y-118477563D01*
X137702700Y-118263837D01*
X137673687Y-118117977D01*
X137677200Y-118082305D01*
X137677200Y-118082296D01*
X137680755Y-118046201D01*
X137677200Y-118010106D01*
X137677200Y-116830105D01*
X137680756Y-116794000D01*
X137666565Y-116649915D01*
X137624537Y-116511366D01*
X137583132Y-116433904D01*
X137684047Y-116366475D01*
X137835175Y-116215347D01*
X137953915Y-116037640D01*
X138035704Y-115840183D01*
X138077400Y-115630563D01*
X138077400Y-115416837D01*
X138035704Y-115207217D01*
X137953915Y-115009760D01*
X137918477Y-114956723D01*
X137964560Y-114987515D01*
X138162017Y-115069304D01*
X138371637Y-115111000D01*
X138585363Y-115111000D01*
X138794983Y-115069304D01*
X138992440Y-114987515D01*
X139170147Y-114868775D01*
X139277922Y-114761000D01*
X152247195Y-114761000D01*
X152283300Y-114764556D01*
X152319405Y-114761000D01*
X152427385Y-114750365D01*
X152565933Y-114708337D01*
X152693620Y-114640087D01*
X152805538Y-114548238D01*
X152828559Y-114520187D01*
X161416901Y-105931846D01*
X161416900Y-115543653D01*
X160452971Y-116507582D01*
X160433504Y-116409717D01*
X160376286Y-116271581D01*
X160494915Y-116094040D01*
X160576704Y-115896583D01*
X160618400Y-115686963D01*
X160618400Y-115473237D01*
X160576704Y-115263617D01*
X160494915Y-115066160D01*
X160376175Y-114888453D01*
X160225047Y-114737325D01*
X160047340Y-114618585D01*
X159849883Y-114536796D01*
X159640263Y-114495100D01*
X159426537Y-114495100D01*
X159216917Y-114536796D01*
X159019460Y-114618585D01*
X158841753Y-114737325D01*
X158733978Y-114845100D01*
X149123994Y-114845100D01*
X149087899Y-114841545D01*
X149051804Y-114845100D01*
X149051795Y-114845100D01*
X148943815Y-114855735D01*
X148805267Y-114897763D01*
X148677580Y-114966013D01*
X148565662Y-115057862D01*
X148542646Y-115085907D01*
X148411653Y-115216900D01*
X148259237Y-115216900D01*
X148049617Y-115258596D01*
X147852160Y-115340385D01*
X147674453Y-115459125D01*
X147523325Y-115610253D01*
X147404585Y-115787960D01*
X147322796Y-115985417D01*
X147281100Y-116195037D01*
X147281100Y-116408763D01*
X147322796Y-116618383D01*
X147404585Y-116815840D01*
X147523325Y-116993547D01*
X147674453Y-117144675D01*
X147852160Y-117263415D01*
X148049617Y-117345204D01*
X148259237Y-117386900D01*
X148472963Y-117386900D01*
X148682583Y-117345204D01*
X148880040Y-117263415D01*
X149057747Y-117144675D01*
X149208875Y-116993547D01*
X149219871Y-116977090D01*
X149288485Y-117142740D01*
X149407225Y-117320447D01*
X149558353Y-117471575D01*
X149736060Y-117590315D01*
X149933517Y-117672104D01*
X150143137Y-117713800D01*
X150356863Y-117713800D01*
X150566483Y-117672104D01*
X150763940Y-117590315D01*
X150941647Y-117471575D01*
X150952022Y-117461200D01*
X158590778Y-117461200D01*
X158698553Y-117568975D01*
X158876260Y-117687715D01*
X159073717Y-117769504D01*
X159171583Y-117788971D01*
X148462542Y-128498012D01*
X148350001Y-128486928D01*
X147649999Y-128486928D01*
X147476745Y-128503992D01*
X147310149Y-128554528D01*
X147156613Y-128636595D01*
X147022038Y-128747038D01*
X146911595Y-128881613D01*
X146829528Y-129035149D01*
X146778992Y-129201745D01*
X146761928Y-129374999D01*
X146761928Y-130625001D01*
X146778992Y-130798255D01*
X146829528Y-130964851D01*
X146911595Y-131118387D01*
X147022038Y-131252962D01*
X147156613Y-131363405D01*
X147310149Y-131445472D01*
X147476745Y-131496008D01*
X147649999Y-131513072D01*
X148350001Y-131513072D01*
X148523255Y-131496008D01*
X148689851Y-131445472D01*
X148843387Y-131363405D01*
X148977962Y-131252962D01*
X149088405Y-131118387D01*
X149090810Y-131113888D01*
X149122499Y-131152502D01*
X149310552Y-131306833D01*
X149525100Y-131421511D01*
X149757899Y-131492130D01*
X150000000Y-131515975D01*
X150242102Y-131492130D01*
X150474901Y-131421511D01*
X150689449Y-131306833D01*
X150877502Y-131152502D01*
X151000001Y-131003237D01*
X151122499Y-131152502D01*
X151310552Y-131306833D01*
X151525100Y-131421511D01*
X151757899Y-131492130D01*
X152000000Y-131515975D01*
X152242102Y-131492130D01*
X152474901Y-131421511D01*
X152689449Y-131306833D01*
X152877502Y-131152502D01*
X153000481Y-131002652D01*
X153043693Y-131066725D01*
X153216526Y-131238078D01*
X153419467Y-131372421D01*
X153644718Y-131464591D01*
X153682391Y-131468462D01*
X153873000Y-131343731D01*
X153873000Y-130127000D01*
X154127000Y-130127000D01*
X154127000Y-131343731D01*
X154317609Y-131468462D01*
X154355282Y-131464591D01*
X154580533Y-131372421D01*
X154783474Y-131238078D01*
X154956307Y-131066725D01*
X155092390Y-130864946D01*
X155186493Y-130640496D01*
X155235000Y-130402000D01*
X155235000Y-130127000D01*
X154127000Y-130127000D01*
X153873000Y-130127000D01*
X153853000Y-130127000D01*
X153853000Y-129873000D01*
X153873000Y-129873000D01*
X153873000Y-128656269D01*
X154127000Y-128656269D01*
X154127000Y-129873000D01*
X155235000Y-129873000D01*
X155235000Y-129598000D01*
X155186493Y-129359504D01*
X155092390Y-129135054D01*
X154956307Y-128933275D01*
X154783474Y-128761922D01*
X154580533Y-128627579D01*
X154355282Y-128535409D01*
X154317609Y-128531538D01*
X154127000Y-128656269D01*
X153873000Y-128656269D01*
X153682391Y-128531538D01*
X153644718Y-128535409D01*
X153419467Y-128627579D01*
X153216526Y-128761922D01*
X153043693Y-128933275D01*
X153000481Y-128997348D01*
X152877502Y-128847498D01*
X152689448Y-128693167D01*
X152474900Y-128578489D01*
X152242101Y-128507870D01*
X152000000Y-128484025D01*
X151757898Y-128507870D01*
X151525099Y-128578489D01*
X151310551Y-128693167D01*
X151122498Y-128847498D01*
X151000000Y-128996763D01*
X150877502Y-128847498D01*
X150689448Y-128693167D01*
X150474900Y-128578489D01*
X150464202Y-128575244D01*
X157539446Y-121500000D01*
X178011444Y-121500000D01*
X178015001Y-121536115D01*
X178015000Y-125463895D01*
X178011444Y-125500000D01*
X178025635Y-125644084D01*
X178067663Y-125782632D01*
X178135913Y-125910319D01*
X178227762Y-126022237D01*
X178255808Y-126045254D01*
X179101822Y-126891269D01*
X179038485Y-126986060D01*
X178956696Y-127183517D01*
X178915000Y-127393137D01*
X178915000Y-127606863D01*
X178956696Y-127816483D01*
X179038485Y-128013940D01*
X179157225Y-128191647D01*
X179308353Y-128342775D01*
X179486060Y-128461515D01*
X179683517Y-128543304D01*
X179893137Y-128585000D01*
X180106863Y-128585000D01*
X180316483Y-128543304D01*
X180513940Y-128461515D01*
X180691647Y-128342775D01*
X180842775Y-128191647D01*
X180961515Y-128013940D01*
X180974493Y-127982608D01*
X181009467Y-128067043D01*
X181158959Y-128290774D01*
X181349226Y-128481041D01*
X181572957Y-128630533D01*
X181821553Y-128733505D01*
X182085461Y-128786000D01*
X182354539Y-128786000D01*
X182618447Y-128733505D01*
X182867043Y-128630533D01*
X183090774Y-128481041D01*
X183281041Y-128290774D01*
X183430533Y-128067043D01*
X183533505Y-127818447D01*
X183557970Y-127695452D01*
X183601553Y-127713505D01*
X183865461Y-127766000D01*
X184134539Y-127766000D01*
X184398447Y-127713505D01*
X184647043Y-127610533D01*
X184870774Y-127461041D01*
X185061041Y-127270774D01*
X185210533Y-127047043D01*
X185313505Y-126798447D01*
X185366000Y-126534539D01*
X185366000Y-126265461D01*
X185313505Y-126001553D01*
X185210533Y-125752957D01*
X185061041Y-125529226D01*
X184911815Y-125380000D01*
X185061041Y-125230774D01*
X185210533Y-125007043D01*
X185313505Y-124758447D01*
X185366000Y-124494539D01*
X185366000Y-124225461D01*
X185334143Y-124065304D01*
X186494193Y-122905254D01*
X186522238Y-122882238D01*
X186614087Y-122770320D01*
X186682337Y-122642633D01*
X186724365Y-122504085D01*
X186735000Y-122396105D01*
X186735000Y-122396098D01*
X186738555Y-122360001D01*
X186735000Y-122323904D01*
X186735000Y-119286105D01*
X186738556Y-119250000D01*
X186724365Y-119105915D01*
X186682337Y-118967366D01*
X186614087Y-118839680D01*
X186545253Y-118755806D01*
X186545250Y-118755803D01*
X186522237Y-118727762D01*
X186494197Y-118704750D01*
X185545258Y-117755812D01*
X185522238Y-117727762D01*
X185410320Y-117635913D01*
X185282633Y-117567663D01*
X185144085Y-117525635D01*
X185036105Y-117515000D01*
X185000000Y-117511444D01*
X184963895Y-117515000D01*
X182036104Y-117515000D01*
X181999999Y-117511444D01*
X181855914Y-117525635D01*
X181833099Y-117532556D01*
X181717367Y-117567663D01*
X181589680Y-117635913D01*
X181477762Y-117727762D01*
X181454746Y-117755807D01*
X178255808Y-120954746D01*
X178227763Y-120977762D01*
X178135914Y-121089680D01*
X178067664Y-121217367D01*
X178025635Y-121355915D01*
X178011444Y-121500000D01*
X157539446Y-121500000D01*
X160674951Y-118364495D01*
X167465000Y-118364495D01*
X167465000Y-118755505D01*
X167541282Y-119139003D01*
X167690915Y-119500250D01*
X167908149Y-119825364D01*
X168184636Y-120101851D01*
X168509750Y-120319085D01*
X168870997Y-120468718D01*
X169254495Y-120545000D01*
X169645505Y-120545000D01*
X170029003Y-120468718D01*
X170390250Y-120319085D01*
X170715364Y-120101851D01*
X170991851Y-119825364D01*
X171209085Y-119500250D01*
X171358718Y-119139003D01*
X171435000Y-118755505D01*
X171435000Y-118364495D01*
X171358718Y-117980997D01*
X171209085Y-117619750D01*
X170991851Y-117294636D01*
X170715364Y-117018149D01*
X170390250Y-116800915D01*
X170029003Y-116651282D01*
X169645505Y-116575000D01*
X169254495Y-116575000D01*
X168870997Y-116651282D01*
X168509750Y-116800915D01*
X168184636Y-117018149D01*
X167908149Y-117294636D01*
X167690915Y-117619750D01*
X167541282Y-117980997D01*
X167465000Y-118364495D01*
X160674951Y-118364495D01*
X162646098Y-116393349D01*
X162674137Y-116370338D01*
X162697150Y-116342297D01*
X162697153Y-116342294D01*
X162743915Y-116285314D01*
X162765987Y-116258420D01*
X162834237Y-116130733D01*
X162876265Y-115992185D01*
X162886900Y-115884205D01*
X162886900Y-115884204D01*
X162890456Y-115848100D01*
X162886900Y-115811995D01*
X162886900Y-105174146D01*
X164142074Y-103918972D01*
X164157225Y-103941647D01*
X164265001Y-104049423D01*
X164265000Y-106450578D01*
X164157225Y-106558353D01*
X164038485Y-106736060D01*
X163956696Y-106933517D01*
X163915000Y-107143137D01*
X163915000Y-107356863D01*
X163956696Y-107566483D01*
X164038485Y-107763940D01*
X164157225Y-107941647D01*
X164308353Y-108092775D01*
X164486060Y-108211515D01*
X164683517Y-108293304D01*
X164893137Y-108335000D01*
X165106863Y-108335000D01*
X165316483Y-108293304D01*
X165500000Y-108217289D01*
X165683517Y-108293304D01*
X165893137Y-108335000D01*
X166106863Y-108335000D01*
X166316483Y-108293304D01*
X166513940Y-108211515D01*
X166691647Y-108092775D01*
X166842775Y-107941647D01*
X166961515Y-107763940D01*
X167043304Y-107566483D01*
X167085000Y-107356863D01*
X167085000Y-107143137D01*
X167056529Y-107000000D01*
X178511444Y-107000000D01*
X178515001Y-107036115D01*
X178515000Y-109327895D01*
X178511444Y-109364000D01*
X178515000Y-109400104D01*
X178525635Y-109508084D01*
X178567663Y-109646632D01*
X178635913Y-109774319D01*
X178727762Y-109886237D01*
X178755808Y-109909254D01*
X179556160Y-110709607D01*
X179538485Y-110736060D01*
X179456696Y-110933517D01*
X179415000Y-111143137D01*
X179415000Y-111356863D01*
X179456696Y-111566483D01*
X179538485Y-111763940D01*
X179657225Y-111941647D01*
X179808353Y-112092775D01*
X179986060Y-112211515D01*
X180183517Y-112293304D01*
X180393137Y-112335000D01*
X180606863Y-112335000D01*
X180816483Y-112293304D01*
X181013940Y-112211515D01*
X181191647Y-112092775D01*
X181236304Y-112048119D01*
X181308185Y-112120000D01*
X181158959Y-112269226D01*
X181009467Y-112492957D01*
X180906495Y-112741553D01*
X180854000Y-113005461D01*
X180854000Y-113274539D01*
X180906495Y-113538447D01*
X181009467Y-113787043D01*
X181158959Y-114010774D01*
X181349226Y-114201041D01*
X181572957Y-114350533D01*
X181821553Y-114453505D01*
X182085461Y-114506000D01*
X182354539Y-114506000D01*
X182618447Y-114453505D01*
X182867043Y-114350533D01*
X183090774Y-114201041D01*
X183281041Y-114010774D01*
X183430533Y-113787043D01*
X183533505Y-113538447D01*
X183557970Y-113415452D01*
X183601553Y-113433505D01*
X183865461Y-113486000D01*
X184134539Y-113486000D01*
X184398447Y-113433505D01*
X184647043Y-113330533D01*
X184870774Y-113181041D01*
X185061041Y-112990774D01*
X185210533Y-112767043D01*
X185313505Y-112518447D01*
X185366000Y-112254539D01*
X185366000Y-111985461D01*
X185313505Y-111721553D01*
X185210533Y-111472957D01*
X185061041Y-111249226D01*
X184911815Y-111100000D01*
X185061041Y-110950774D01*
X185210533Y-110727043D01*
X185313505Y-110478447D01*
X185366000Y-110214539D01*
X185366000Y-109945461D01*
X185334142Y-109785304D01*
X188984193Y-106135254D01*
X189012238Y-106112238D01*
X189104087Y-106000320D01*
X189172337Y-105872633D01*
X189214365Y-105734085D01*
X189225000Y-105626105D01*
X189228556Y-105590000D01*
X189225000Y-105553895D01*
X189225000Y-103055104D01*
X189228556Y-103018999D01*
X189214365Y-102874914D01*
X189200663Y-102829747D01*
X189172337Y-102736367D01*
X189104087Y-102608680D01*
X189035493Y-102525099D01*
X189035253Y-102524806D01*
X189035250Y-102524803D01*
X189012237Y-102496762D01*
X188984197Y-102473750D01*
X187766258Y-101255812D01*
X187743238Y-101227762D01*
X187631320Y-101135913D01*
X187503633Y-101067663D01*
X187365085Y-101025635D01*
X187257105Y-101015000D01*
X187221000Y-101011444D01*
X187184895Y-101015000D01*
X185536105Y-101015000D01*
X185500000Y-101011444D01*
X185463895Y-101015000D01*
X185355915Y-101025635D01*
X185217367Y-101067663D01*
X185089680Y-101135913D01*
X184977762Y-101227762D01*
X184954746Y-101255807D01*
X184802745Y-101407809D01*
X184685058Y-101187634D01*
X184398667Y-101065938D01*
X183289605Y-102175000D01*
X183303748Y-102189143D01*
X183124143Y-102368748D01*
X183110000Y-102354605D01*
X183095858Y-102368748D01*
X182916253Y-102189143D01*
X182930395Y-102175000D01*
X181821333Y-101065938D01*
X181534942Y-101187634D01*
X181372580Y-101513884D01*
X181276986Y-101865541D01*
X181251834Y-102229090D01*
X181298091Y-102590561D01*
X181413979Y-102936062D01*
X181534942Y-103162366D01*
X181821331Y-103284061D01*
X181706153Y-103399239D01*
X181758734Y-103451820D01*
X178755808Y-106454746D01*
X178727763Y-106477762D01*
X178635914Y-106589680D01*
X178593434Y-106669155D01*
X178567664Y-106717367D01*
X178525635Y-106855915D01*
X178511444Y-107000000D01*
X167056529Y-107000000D01*
X167043304Y-106933517D01*
X166961515Y-106736060D01*
X166842775Y-106558353D01*
X166735000Y-106450578D01*
X166735000Y-104049422D01*
X166842775Y-103941647D01*
X166961515Y-103763940D01*
X167043304Y-103566483D01*
X167085000Y-103356863D01*
X167085000Y-103143137D01*
X167043304Y-102933517D01*
X166961515Y-102736060D01*
X166842775Y-102558353D01*
X166691647Y-102407225D01*
X166513940Y-102288485D01*
X166316483Y-102206696D01*
X166106863Y-102165000D01*
X165896047Y-102165000D01*
X166656053Y-101404994D01*
X166656058Y-101404988D01*
X166895036Y-101166010D01*
X166932885Y-101166010D01*
X166968990Y-101169566D01*
X167005095Y-101166010D01*
X167113075Y-101155375D01*
X167251623Y-101113347D01*
X167379310Y-101045097D01*
X167491228Y-100953248D01*
X167514249Y-100925197D01*
X167553113Y-100886333D01*
X182000938Y-100886333D01*
X183110000Y-101995395D01*
X184219062Y-100886333D01*
X184097366Y-100599942D01*
X183771116Y-100437580D01*
X183419459Y-100341986D01*
X183055910Y-100316834D01*
X182694439Y-100363091D01*
X182348938Y-100478979D01*
X182122634Y-100599942D01*
X182000938Y-100886333D01*
X167553113Y-100886333D01*
X169905779Y-98533667D01*
X182000938Y-98533667D01*
X182122634Y-98820058D01*
X182448884Y-98982420D01*
X182800541Y-99078014D01*
X183164090Y-99103166D01*
X183525561Y-99056909D01*
X183871062Y-98941021D01*
X184097366Y-98820058D01*
X184219062Y-98533667D01*
X183110000Y-97424605D01*
X182000938Y-98533667D01*
X169905779Y-98533667D01*
X171140356Y-97299090D01*
X181251834Y-97299090D01*
X181298091Y-97660561D01*
X181413979Y-98006062D01*
X181534942Y-98232366D01*
X181821333Y-98354062D01*
X182930395Y-97245000D01*
X181821333Y-96135938D01*
X181534942Y-96257634D01*
X181372580Y-96583884D01*
X181276986Y-96935541D01*
X181251834Y-97299090D01*
X171140356Y-97299090D01*
X172254447Y-96185000D01*
X172406863Y-96185000D01*
X172616483Y-96143304D01*
X172813940Y-96061515D01*
X172971356Y-95956333D01*
X182000938Y-95956333D01*
X183110000Y-97065395D01*
X183124143Y-97051253D01*
X183303748Y-97230858D01*
X183289605Y-97245000D01*
X184398667Y-98354062D01*
X184685058Y-98232366D01*
X184847420Y-97906116D01*
X184943014Y-97554459D01*
X184968166Y-97190910D01*
X184958442Y-97114920D01*
X185083397Y-97239875D01*
X185457647Y-97489941D01*
X185873490Y-97662189D01*
X186314947Y-97750000D01*
X186765053Y-97750000D01*
X187206510Y-97662189D01*
X187622353Y-97489941D01*
X187996603Y-97239875D01*
X188314875Y-96921603D01*
X188564941Y-96547353D01*
X188737189Y-96131510D01*
X188825000Y-95690053D01*
X188825000Y-95239947D01*
X188737189Y-94798490D01*
X188564941Y-94382647D01*
X188314875Y-94008397D01*
X187996603Y-93690125D01*
X187622353Y-93440059D01*
X187206510Y-93267811D01*
X186765053Y-93180000D01*
X186314947Y-93180000D01*
X185873490Y-93267811D01*
X185457647Y-93440059D01*
X185083397Y-93690125D01*
X184765125Y-94008397D01*
X184515059Y-94382647D01*
X184342811Y-94798490D01*
X184255000Y-95239947D01*
X184255000Y-95690053D01*
X184293216Y-95882176D01*
X184219061Y-95956331D01*
X184097366Y-95669942D01*
X183771116Y-95507580D01*
X183419459Y-95411986D01*
X183055910Y-95386834D01*
X182694439Y-95433091D01*
X182348938Y-95548979D01*
X182122634Y-95669942D01*
X182000938Y-95956333D01*
X172971356Y-95956333D01*
X172991647Y-95942775D01*
X173142775Y-95791647D01*
X173261515Y-95613940D01*
X173343304Y-95416483D01*
X173385000Y-95206863D01*
X173385000Y-95183057D01*
X173414896Y-95186001D01*
X173414905Y-95186001D01*
X173451000Y-95189556D01*
X173487095Y-95186001D01*
X182652294Y-95186001D01*
X182688399Y-95189557D01*
X182724504Y-95186001D01*
X182832484Y-95175366D01*
X182971032Y-95133338D01*
X183098719Y-95065088D01*
X183210637Y-94973239D01*
X183233657Y-94945189D01*
X184494197Y-93684650D01*
X184520782Y-93662832D01*
X184647043Y-93610533D01*
X184870774Y-93461041D01*
X185061041Y-93270774D01*
X185210533Y-93047043D01*
X185313505Y-92798447D01*
X185366000Y-92534539D01*
X185366000Y-92265461D01*
X185313505Y-92001553D01*
X185210533Y-91752957D01*
X185061041Y-91529226D01*
X184911815Y-91380000D01*
X185061041Y-91230774D01*
X185151762Y-91095000D01*
X185353895Y-91095000D01*
X185390000Y-91098556D01*
X185426105Y-91095000D01*
X185534085Y-91084365D01*
X185672633Y-91042337D01*
X185800320Y-90974087D01*
X185912238Y-90882238D01*
X185935258Y-90854188D01*
X186744193Y-90045254D01*
X186772238Y-90022238D01*
X186864087Y-89910320D01*
X186932337Y-89782634D01*
X186974365Y-89644085D01*
X186988556Y-89500000D01*
X186985000Y-89463895D01*
X186985000Y-85286105D01*
X186988556Y-85250000D01*
X186974365Y-85105915D01*
X186973409Y-85102763D01*
X186932337Y-84967367D01*
X186864087Y-84839680D01*
X186813574Y-84778130D01*
X186795253Y-84755806D01*
X186795250Y-84755803D01*
X186772237Y-84727762D01*
X186744197Y-84704750D01*
X185545258Y-83505812D01*
X185522238Y-83477762D01*
X185410320Y-83385913D01*
X185282633Y-83317663D01*
X185144085Y-83275635D01*
X185036105Y-83265000D01*
X185000000Y-83261444D01*
X184963895Y-83265000D01*
X182473447Y-83265000D01*
X184494198Y-81244249D01*
X184522237Y-81221238D01*
X184545250Y-81193197D01*
X184545253Y-81193194D01*
X184584358Y-81145544D01*
X184614087Y-81109320D01*
X184682337Y-80981633D01*
X184724365Y-80843085D01*
X184735000Y-80735105D01*
X184735000Y-80735104D01*
X184738556Y-80699000D01*
X184735000Y-80662895D01*
X184735000Y-79271762D01*
X184870774Y-79181041D01*
X185061041Y-78990774D01*
X185210533Y-78767043D01*
X185313505Y-78518447D01*
X185366000Y-78254539D01*
X185366000Y-77985461D01*
X185313505Y-77721553D01*
X185210533Y-77472957D01*
X185061041Y-77249226D01*
X184911815Y-77100000D01*
X185061041Y-76950774D01*
X185210533Y-76727043D01*
X185313505Y-76478447D01*
X185366000Y-76214539D01*
X185366000Y-75945461D01*
X185334142Y-75785304D01*
X188984197Y-72135250D01*
X189012237Y-72112238D01*
X189035250Y-72084197D01*
X189035253Y-72084194D01*
X189072314Y-72039035D01*
X189104087Y-72000320D01*
X189172337Y-71872633D01*
X189214365Y-71734085D01*
X189225000Y-71626105D01*
X189225000Y-71626104D01*
X189228556Y-71590000D01*
X189225000Y-71553895D01*
X189225000Y-69055105D01*
X189228556Y-69019000D01*
X189214365Y-68874915D01*
X189172337Y-68736366D01*
X189104087Y-68608680D01*
X189037249Y-68527238D01*
X189012238Y-68496762D01*
X188984193Y-68473746D01*
X188021258Y-67510812D01*
X187998238Y-67482762D01*
X187886320Y-67390913D01*
X187758633Y-67322663D01*
X187620085Y-67280635D01*
X187512105Y-67270000D01*
X187476000Y-67266444D01*
X187439895Y-67270000D01*
X185558105Y-67270000D01*
X185522000Y-67266444D01*
X185377915Y-67280635D01*
X185239366Y-67322663D01*
X185191029Y-67348500D01*
X185111680Y-67390913D01*
X184999762Y-67482762D01*
X184976746Y-67510807D01*
X184873233Y-67614320D01*
X184806021Y-67413938D01*
X184685058Y-67187634D01*
X184398667Y-67065938D01*
X183289605Y-68175000D01*
X183303748Y-68189143D01*
X183124143Y-68368748D01*
X183110000Y-68354605D01*
X183095858Y-68368748D01*
X182916253Y-68189143D01*
X182930395Y-68175000D01*
X181821333Y-67065938D01*
X181534942Y-67187634D01*
X181372580Y-67513884D01*
X181276986Y-67865541D01*
X181251834Y-68229090D01*
X181298091Y-68590561D01*
X181413979Y-68936062D01*
X181456173Y-69015000D01*
X181036105Y-69015000D01*
X181000000Y-69011444D01*
X180963895Y-69015000D01*
X180855915Y-69025635D01*
X180717367Y-69067663D01*
X180589680Y-69135913D01*
X180477762Y-69227762D01*
X180454746Y-69255807D01*
X180193550Y-69517004D01*
X180105915Y-69525635D01*
X179967366Y-69567663D01*
X179895802Y-69605915D01*
X179839680Y-69635913D01*
X179727762Y-69727762D01*
X179704746Y-69755807D01*
X176755808Y-72704746D01*
X176727762Y-72727763D01*
X176635913Y-72839681D01*
X176567663Y-72967368D01*
X176555034Y-73009001D01*
X176525635Y-73105915D01*
X176511444Y-73250000D01*
X176515000Y-73286106D01*
X176515001Y-74213886D01*
X176511444Y-74250000D01*
X176525635Y-74394085D01*
X176564510Y-74522237D01*
X176567664Y-74532633D01*
X176635914Y-74660320D01*
X176727763Y-74772238D01*
X176755808Y-74795254D01*
X178454746Y-76494193D01*
X178477762Y-76522238D01*
X178550338Y-76581800D01*
X178589680Y-76614087D01*
X178717366Y-76682337D01*
X178855915Y-76724365D01*
X178949123Y-76733545D01*
X179058353Y-76842775D01*
X179236060Y-76961515D01*
X179433517Y-77043304D01*
X179643137Y-77085000D01*
X179856863Y-77085000D01*
X180066483Y-77043304D01*
X180263940Y-76961515D01*
X180441647Y-76842775D01*
X180592775Y-76691647D01*
X180711515Y-76513940D01*
X180793304Y-76316483D01*
X180835000Y-76106863D01*
X180835000Y-75893137D01*
X180793304Y-75683517D01*
X180711515Y-75486060D01*
X180592775Y-75308353D01*
X180441647Y-75157225D01*
X180263940Y-75038485D01*
X180066483Y-74956696D01*
X179856863Y-74915000D01*
X179833555Y-74915000D01*
X179941647Y-74842775D01*
X180092775Y-74691647D01*
X180211515Y-74513940D01*
X180293304Y-74316483D01*
X180335000Y-74106863D01*
X180335000Y-73954446D01*
X180900606Y-73388841D01*
X180906495Y-73418447D01*
X181009467Y-73667043D01*
X181158959Y-73890774D01*
X181308185Y-74040000D01*
X181158959Y-74189226D01*
X181009467Y-74412957D01*
X180906495Y-74661553D01*
X180854000Y-74925461D01*
X180854000Y-75194539D01*
X180906495Y-75458447D01*
X181009467Y-75707043D01*
X181158959Y-75930774D01*
X181308185Y-76080000D01*
X181158959Y-76229226D01*
X181009467Y-76452957D01*
X180906495Y-76701553D01*
X180854000Y-76965461D01*
X180854000Y-77234539D01*
X180906495Y-77498447D01*
X181009467Y-77747043D01*
X181158959Y-77970774D01*
X181308185Y-78120000D01*
X181158959Y-78269226D01*
X181009467Y-78492957D01*
X180906495Y-78741553D01*
X180854000Y-79005461D01*
X180854000Y-79274539D01*
X180906495Y-79538447D01*
X181009467Y-79787043D01*
X181158959Y-80010774D01*
X181349226Y-80201041D01*
X181485000Y-80291762D01*
X181485001Y-81579652D01*
X169470728Y-93593925D01*
X169432337Y-93467366D01*
X169364454Y-93340368D01*
X169511075Y-93193747D01*
X169629815Y-93016040D01*
X169711604Y-92818583D01*
X169753300Y-92608963D01*
X169753300Y-92395237D01*
X169711604Y-92185617D01*
X169629815Y-91988160D01*
X169511075Y-91810453D01*
X169359947Y-91659325D01*
X169182240Y-91540585D01*
X168984783Y-91458796D01*
X168775163Y-91417100D01*
X168622747Y-91417100D01*
X164175659Y-86970013D01*
X164152638Y-86941962D01*
X164040720Y-86850113D01*
X163913033Y-86781863D01*
X163774485Y-86739835D01*
X163666505Y-86729200D01*
X163630400Y-86725644D01*
X163594295Y-86729200D01*
X162525147Y-86729200D01*
X161991300Y-86195354D01*
X161991300Y-81667646D01*
X163684593Y-79974354D01*
X163712638Y-79951338D01*
X163804487Y-79839420D01*
X163872737Y-79711733D01*
X163914765Y-79573185D01*
X163925400Y-79465205D01*
X163925400Y-79465196D01*
X163928955Y-79429101D01*
X163925400Y-79393006D01*
X163925400Y-72155140D01*
X164075901Y-72226825D01*
X164223110Y-72271476D01*
X164453000Y-72150155D01*
X164453000Y-70957000D01*
X164707000Y-70957000D01*
X164707000Y-72150155D01*
X164936890Y-72271476D01*
X165084099Y-72226825D01*
X165346920Y-72101641D01*
X165580269Y-71927588D01*
X165775178Y-71711355D01*
X165924157Y-71461252D01*
X166021481Y-71186891D01*
X165900814Y-70957000D01*
X164707000Y-70957000D01*
X164453000Y-70957000D01*
X164433000Y-70957000D01*
X164433000Y-70703000D01*
X164453000Y-70703000D01*
X164453000Y-70683000D01*
X164707000Y-70683000D01*
X164707000Y-70703000D01*
X165900814Y-70703000D01*
X166021481Y-70473109D01*
X165924157Y-70198748D01*
X165775178Y-69948645D01*
X165580269Y-69732412D01*
X165351244Y-69561584D01*
X165409014Y-69530706D01*
X165611542Y-69364495D01*
X167465000Y-69364495D01*
X167465000Y-69755505D01*
X167541282Y-70139003D01*
X167690915Y-70500250D01*
X167908149Y-70825364D01*
X168184636Y-71101851D01*
X168509750Y-71319085D01*
X168870997Y-71468718D01*
X169254495Y-71545000D01*
X169645505Y-71545000D01*
X170029003Y-71468718D01*
X170390250Y-71319085D01*
X170715364Y-71101851D01*
X170991851Y-70825364D01*
X171209085Y-70500250D01*
X171358718Y-70139003D01*
X171435000Y-69755505D01*
X171435000Y-69364495D01*
X171358718Y-68980997D01*
X171209085Y-68619750D01*
X170991851Y-68294636D01*
X170715364Y-68018149D01*
X170390250Y-67800915D01*
X170029003Y-67651282D01*
X169645505Y-67575000D01*
X169254495Y-67575000D01*
X168870997Y-67651282D01*
X168509750Y-67800915D01*
X168184636Y-68018149D01*
X167908149Y-68294636D01*
X167690915Y-68619750D01*
X167541282Y-68980997D01*
X167465000Y-69364495D01*
X165611542Y-69364495D01*
X165635134Y-69345134D01*
X165820706Y-69119014D01*
X165958599Y-68861034D01*
X166043513Y-68581111D01*
X166072185Y-68290000D01*
X166043513Y-67998889D01*
X165958599Y-67718966D01*
X165820706Y-67460986D01*
X165635134Y-67234866D01*
X165409014Y-67049294D01*
X165151034Y-66911401D01*
X164871111Y-66826487D01*
X164652950Y-66805000D01*
X164507050Y-66805000D01*
X164288889Y-66826487D01*
X164008966Y-66911401D01*
X163750986Y-67049294D01*
X163524866Y-67234866D01*
X163339294Y-67460986D01*
X163310000Y-67515791D01*
X163280706Y-67460986D01*
X163095134Y-67234866D01*
X162869014Y-67049294D01*
X162611034Y-66911401D01*
X162331111Y-66826487D01*
X162112950Y-66805000D01*
X161967050Y-66805000D01*
X161748889Y-66826487D01*
X161468966Y-66911401D01*
X161210986Y-67049294D01*
X161065905Y-67168359D01*
X160638179Y-66740633D01*
X182063650Y-66738750D01*
X182000938Y-66886333D01*
X183110000Y-67995395D01*
X184219062Y-66886333D01*
X184156272Y-66738566D01*
X190568524Y-66738003D01*
X190912333Y-66771714D01*
X190912333Y-66771714D01*
G37*
X190912333Y-66771714D02*
X191210842Y-66861839D01*
X191486162Y-67008229D01*
X191727805Y-67205308D01*
X191926567Y-67445571D01*
X192074874Y-67719858D01*
X192167081Y-68017734D01*
X192203001Y-68359487D01*
X192203000Y-131661494D01*
X192169286Y-132005332D01*
X192079161Y-132303843D01*
X191932771Y-132579162D01*
X191735692Y-132820805D01*
X191495432Y-133019565D01*
X191221143Y-133167873D01*
X190923266Y-133260081D01*
X190581522Y-133296000D01*
X168912685Y-133296000D01*
X168931235Y-133277450D01*
X168984080Y-133234081D01*
X169047143Y-133157240D01*
X169062439Y-133138601D01*
X169157157Y-133023188D01*
X169285764Y-132782581D01*
X169361271Y-132533667D01*
X182000938Y-132533667D01*
X182122634Y-132820058D01*
X182448884Y-132982420D01*
X182800541Y-133078014D01*
X183164090Y-133103166D01*
X183525561Y-133056909D01*
X183871062Y-132941021D01*
X184097366Y-132820058D01*
X184219062Y-132533667D01*
X183110000Y-131424605D01*
X182000938Y-132533667D01*
X169361271Y-132533667D01*
X169364960Y-132521507D01*
X169385000Y-132318037D01*
X169385000Y-132318028D01*
X169391700Y-132250001D01*
X169385000Y-132181974D01*
X169385000Y-131346626D01*
X169525100Y-131421511D01*
X169757899Y-131492130D01*
X170000000Y-131515975D01*
X170242102Y-131492130D01*
X170474901Y-131421511D01*
X170689449Y-131306833D01*
X170877502Y-131152502D01*
X171000481Y-131002652D01*
X171043693Y-131066725D01*
X171216526Y-131238078D01*
X171419467Y-131372421D01*
X171644718Y-131464591D01*
X171682391Y-131468462D01*
X171873000Y-131343731D01*
X171873000Y-130127000D01*
X172127000Y-130127000D01*
X172127000Y-131343731D01*
X172317609Y-131468462D01*
X172355282Y-131464591D01*
X172580533Y-131372421D01*
X172691308Y-131299090D01*
X181251834Y-131299090D01*
X181298091Y-131660561D01*
X181413979Y-132006062D01*
X181534942Y-132232366D01*
X181821333Y-132354062D01*
X182930395Y-131245000D01*
X181821333Y-130135938D01*
X181534942Y-130257634D01*
X181372580Y-130583884D01*
X181276986Y-130935541D01*
X181251834Y-131299090D01*
X172691308Y-131299090D01*
X172783474Y-131238078D01*
X172956307Y-131066725D01*
X173092390Y-130864946D01*
X173186493Y-130640496D01*
X173235000Y-130402000D01*
X173235000Y-130127000D01*
X172127000Y-130127000D01*
X171873000Y-130127000D01*
X171853000Y-130127000D01*
X171853000Y-129956333D01*
X182000938Y-129956333D01*
X183110000Y-131065395D01*
X183124143Y-131051253D01*
X183303748Y-131230858D01*
X183289605Y-131245000D01*
X184398667Y-132354062D01*
X184685058Y-132232366D01*
X184847420Y-131906116D01*
X184943014Y-131554459D01*
X184968166Y-131190910D01*
X184958442Y-131114920D01*
X185083397Y-131239875D01*
X185457647Y-131489941D01*
X185873490Y-131662189D01*
X186314947Y-131750000D01*
X186765053Y-131750000D01*
X187206510Y-131662189D01*
X187622353Y-131489941D01*
X187996603Y-131239875D01*
X188314875Y-130921603D01*
X188564941Y-130547353D01*
X188737189Y-130131510D01*
X188825000Y-129690053D01*
X188825000Y-129239947D01*
X188737189Y-128798490D01*
X188564941Y-128382647D01*
X188314875Y-128008397D01*
X187996603Y-127690125D01*
X187622353Y-127440059D01*
X187206510Y-127267811D01*
X186765053Y-127180000D01*
X186314947Y-127180000D01*
X185873490Y-127267811D01*
X185457647Y-127440059D01*
X185083397Y-127690125D01*
X184765125Y-128008397D01*
X184515059Y-128382647D01*
X184342811Y-128798490D01*
X184255000Y-129239947D01*
X184255000Y-129690053D01*
X184293216Y-129882176D01*
X184219061Y-129956331D01*
X184097366Y-129669942D01*
X183771116Y-129507580D01*
X183419459Y-129411986D01*
X183055910Y-129386834D01*
X182694439Y-129433091D01*
X182348938Y-129548979D01*
X182122634Y-129669942D01*
X182000938Y-129956333D01*
X171853000Y-129956333D01*
X171853000Y-129873000D01*
X171873000Y-129873000D01*
X171873000Y-128656269D01*
X172127000Y-128656269D01*
X172127000Y-129873000D01*
X173235000Y-129873000D01*
X173235000Y-129598000D01*
X173186493Y-129359504D01*
X173092390Y-129135054D01*
X172956307Y-128933275D01*
X172783474Y-128761922D01*
X172580533Y-128627579D01*
X172355282Y-128535409D01*
X172317609Y-128531538D01*
X172127000Y-128656269D01*
X171873000Y-128656269D01*
X171682391Y-128531538D01*
X171644718Y-128535409D01*
X171419467Y-128627579D01*
X171216526Y-128761922D01*
X171043693Y-128933275D01*
X171000481Y-128997348D01*
X170877502Y-128847498D01*
X170689448Y-128693167D01*
X170474900Y-128578489D01*
X170242101Y-128507870D01*
X170000000Y-128484025D01*
X169757898Y-128507870D01*
X169525099Y-128578489D01*
X169310551Y-128693167D01*
X169122498Y-128847498D01*
X169090809Y-128886111D01*
X169088405Y-128881613D01*
X168977962Y-128747038D01*
X168843387Y-128636595D01*
X168689851Y-128554528D01*
X168523255Y-128503992D01*
X168350001Y-128486928D01*
X167649999Y-128486928D01*
X167476745Y-128503992D01*
X167310149Y-128554528D01*
X167156613Y-128636595D01*
X167022038Y-128747038D01*
X166911595Y-128881613D01*
X166829528Y-129035149D01*
X166778992Y-129201745D01*
X166761928Y-129374999D01*
X166761928Y-129378195D01*
X166714237Y-129467419D01*
X166635041Y-129728493D01*
X166615001Y-129931963D01*
X166615000Y-131596000D01*
X159362685Y-131596000D01*
X159456059Y-131502626D01*
X159523255Y-131496008D01*
X159689851Y-131445472D01*
X159843387Y-131363405D01*
X159977962Y-131252962D01*
X160088405Y-131118387D01*
X160090810Y-131113888D01*
X160122499Y-131152502D01*
X160310552Y-131306833D01*
X160525100Y-131421511D01*
X160757899Y-131492130D01*
X161000000Y-131515975D01*
X161242102Y-131492130D01*
X161474901Y-131421511D01*
X161689449Y-131306833D01*
X161877502Y-131152502D01*
X162000481Y-131002652D01*
X162043693Y-131066725D01*
X162216526Y-131238078D01*
X162419467Y-131372421D01*
X162644718Y-131464591D01*
X162682391Y-131468462D01*
X162873000Y-131343731D01*
X162873000Y-130127000D01*
X163127000Y-130127000D01*
X163127000Y-131343731D01*
X163317609Y-131468462D01*
X163355282Y-131464591D01*
X163580533Y-131372421D01*
X163783474Y-131238078D01*
X163956307Y-131066725D01*
X164092390Y-130864946D01*
X164186493Y-130640496D01*
X164235000Y-130402000D01*
X164235000Y-130127000D01*
X163127000Y-130127000D01*
X162873000Y-130127000D01*
X162853000Y-130127000D01*
X162853000Y-129873000D01*
X162873000Y-129873000D01*
X162873000Y-128656269D01*
X163127000Y-128656269D01*
X163127000Y-129873000D01*
X164235000Y-129873000D01*
X164235000Y-129598000D01*
X164186493Y-129359504D01*
X164092390Y-129135054D01*
X163956307Y-128933275D01*
X163783474Y-128761922D01*
X163580533Y-128627579D01*
X163355282Y-128535409D01*
X163317609Y-128531538D01*
X163127000Y-128656269D01*
X162873000Y-128656269D01*
X162682391Y-128531538D01*
X162644718Y-128535409D01*
X162419467Y-128627579D01*
X162216526Y-128761922D01*
X162043693Y-128933275D01*
X162000481Y-128997348D01*
X161877502Y-128847498D01*
X161689448Y-128693167D01*
X161474900Y-128578489D01*
X161242101Y-128507870D01*
X161000000Y-128484025D01*
X160757898Y-128507870D01*
X160525099Y-128578489D01*
X160310551Y-128693167D01*
X160122498Y-128847498D01*
X160090809Y-128886111D01*
X160088405Y-128881613D01*
X159977962Y-128747038D01*
X159843387Y-128636595D01*
X159689851Y-128554528D01*
X159523255Y-128503992D01*
X159350001Y-128486928D01*
X158649999Y-128486928D01*
X158476745Y-128503992D01*
X158310149Y-128554528D01*
X158156613Y-128636595D01*
X158022038Y-128747038D01*
X157911595Y-128881613D01*
X157829528Y-129035149D01*
X157778992Y-129201745D01*
X157772374Y-129268941D01*
X157720375Y-129320940D01*
X157508419Y-129385236D01*
X157267812Y-129513843D01*
X157267810Y-129513844D01*
X157267811Y-129513844D01*
X157109766Y-129643548D01*
X157109764Y-129643550D01*
X157056919Y-129686919D01*
X157013550Y-129739764D01*
X155157315Y-131596000D01*
X139993246Y-131596000D01*
X140295097Y-131294149D01*
X140310552Y-131306833D01*
X140525100Y-131421511D01*
X140757899Y-131492130D01*
X141000000Y-131515975D01*
X141242102Y-131492130D01*
X141474901Y-131421511D01*
X141689449Y-131306833D01*
X141877502Y-131152502D01*
X142000001Y-131003237D01*
X142122499Y-131152502D01*
X142310552Y-131306833D01*
X142525100Y-131421511D01*
X142757899Y-131492130D01*
X143000000Y-131515975D01*
X143242102Y-131492130D01*
X143474901Y-131421511D01*
X143689449Y-131306833D01*
X143877502Y-131152502D01*
X144031833Y-130964449D01*
X144146511Y-130749900D01*
X144217130Y-130517101D01*
X144235000Y-130335664D01*
X144235000Y-129664335D01*
X144217130Y-129482898D01*
X144146511Y-129250099D01*
X144031833Y-129035551D01*
X143877502Y-128847498D01*
X143689448Y-128693167D01*
X143474900Y-128578489D01*
X143242101Y-128507870D01*
X143000000Y-128484025D01*
X142757898Y-128507870D01*
X142596716Y-128556764D01*
X142593898Y-128554451D01*
X136159500Y-122120054D01*
X136159500Y-119355303D01*
X136301217Y-119414004D01*
X136510837Y-119455700D01*
X136724563Y-119455700D01*
X136934183Y-119414004D01*
X137131640Y-119332215D01*
X137309347Y-119213475D01*
X137460475Y-119062347D01*
X137579215Y-118884640D01*
X137661004Y-118687183D01*
X137702700Y-118477563D01*
X137702700Y-118263837D01*
X137673687Y-118117977D01*
X137677200Y-118082305D01*
X137677200Y-118082296D01*
X137680755Y-118046201D01*
X137677200Y-118010106D01*
X137677200Y-116830105D01*
X137680756Y-116794000D01*
X137666565Y-116649915D01*
X137624537Y-116511366D01*
X137583132Y-116433904D01*
X137684047Y-116366475D01*
X137835175Y-116215347D01*
X137953915Y-116037640D01*
X138035704Y-115840183D01*
X138077400Y-115630563D01*
X138077400Y-115416837D01*
X138035704Y-115207217D01*
X137953915Y-115009760D01*
X137918477Y-114956723D01*
X137964560Y-114987515D01*
X138162017Y-115069304D01*
X138371637Y-115111000D01*
X138585363Y-115111000D01*
X138794983Y-115069304D01*
X138992440Y-114987515D01*
X139170147Y-114868775D01*
X139277922Y-114761000D01*
X152247195Y-114761000D01*
X152283300Y-114764556D01*
X152319405Y-114761000D01*
X152427385Y-114750365D01*
X152565933Y-114708337D01*
X152693620Y-114640087D01*
X152805538Y-114548238D01*
X152828559Y-114520187D01*
X161416901Y-105931846D01*
X161416900Y-115543653D01*
X160452971Y-116507582D01*
X160433504Y-116409717D01*
X160376286Y-116271581D01*
X160494915Y-116094040D01*
X160576704Y-115896583D01*
X160618400Y-115686963D01*
X160618400Y-115473237D01*
X160576704Y-115263617D01*
X160494915Y-115066160D01*
X160376175Y-114888453D01*
X160225047Y-114737325D01*
X160047340Y-114618585D01*
X159849883Y-114536796D01*
X159640263Y-114495100D01*
X159426537Y-114495100D01*
X159216917Y-114536796D01*
X159019460Y-114618585D01*
X158841753Y-114737325D01*
X158733978Y-114845100D01*
X149123994Y-114845100D01*
X149087899Y-114841545D01*
X149051804Y-114845100D01*
X149051795Y-114845100D01*
X148943815Y-114855735D01*
X148805267Y-114897763D01*
X148677580Y-114966013D01*
X148565662Y-115057862D01*
X148542646Y-115085907D01*
X148411653Y-115216900D01*
X148259237Y-115216900D01*
X148049617Y-115258596D01*
X147852160Y-115340385D01*
X147674453Y-115459125D01*
X147523325Y-115610253D01*
X147404585Y-115787960D01*
X147322796Y-115985417D01*
X147281100Y-116195037D01*
X147281100Y-116408763D01*
X147322796Y-116618383D01*
X147404585Y-116815840D01*
X147523325Y-116993547D01*
X147674453Y-117144675D01*
X147852160Y-117263415D01*
X148049617Y-117345204D01*
X148259237Y-117386900D01*
X148472963Y-117386900D01*
X148682583Y-117345204D01*
X148880040Y-117263415D01*
X149057747Y-117144675D01*
X149208875Y-116993547D01*
X149219871Y-116977090D01*
X149288485Y-117142740D01*
X149407225Y-117320447D01*
X149558353Y-117471575D01*
X149736060Y-117590315D01*
X149933517Y-117672104D01*
X150143137Y-117713800D01*
X150356863Y-117713800D01*
X150566483Y-117672104D01*
X150763940Y-117590315D01*
X150941647Y-117471575D01*
X150952022Y-117461200D01*
X158590778Y-117461200D01*
X158698553Y-117568975D01*
X158876260Y-117687715D01*
X159073717Y-117769504D01*
X159171583Y-117788971D01*
X148462542Y-128498012D01*
X148350001Y-128486928D01*
X147649999Y-128486928D01*
X147476745Y-128503992D01*
X147310149Y-128554528D01*
X147156613Y-128636595D01*
X147022038Y-128747038D01*
X146911595Y-128881613D01*
X146829528Y-129035149D01*
X146778992Y-129201745D01*
X146761928Y-129374999D01*
X146761928Y-130625001D01*
X146778992Y-130798255D01*
X146829528Y-130964851D01*
X146911595Y-131118387D01*
X147022038Y-131252962D01*
X147156613Y-131363405D01*
X147310149Y-131445472D01*
X147476745Y-131496008D01*
X147649999Y-131513072D01*
X148350001Y-131513072D01*
X148523255Y-131496008D01*
X148689851Y-131445472D01*
X148843387Y-131363405D01*
X148977962Y-131252962D01*
X149088405Y-131118387D01*
X149090810Y-131113888D01*
X149122499Y-131152502D01*
X149310552Y-131306833D01*
X149525100Y-131421511D01*
X149757899Y-131492130D01*
X150000000Y-131515975D01*
X150242102Y-131492130D01*
X150474901Y-131421511D01*
X150689449Y-131306833D01*
X150877502Y-131152502D01*
X151000001Y-131003237D01*
X151122499Y-131152502D01*
X151310552Y-131306833D01*
X151525100Y-131421511D01*
X151757899Y-131492130D01*
X152000000Y-131515975D01*
X152242102Y-131492130D01*
X152474901Y-131421511D01*
X152689449Y-131306833D01*
X152877502Y-131152502D01*
X153000481Y-131002652D01*
X153043693Y-131066725D01*
X153216526Y-131238078D01*
X153419467Y-131372421D01*
X153644718Y-131464591D01*
X153682391Y-131468462D01*
X153873000Y-131343731D01*
X153873000Y-130127000D01*
X154127000Y-130127000D01*
X154127000Y-131343731D01*
X154317609Y-131468462D01*
X154355282Y-131464591D01*
X154580533Y-131372421D01*
X154783474Y-131238078D01*
X154956307Y-131066725D01*
X155092390Y-130864946D01*
X155186493Y-130640496D01*
X155235000Y-130402000D01*
X155235000Y-130127000D01*
X154127000Y-130127000D01*
X153873000Y-130127000D01*
X153853000Y-130127000D01*
X153853000Y-129873000D01*
X153873000Y-129873000D01*
X153873000Y-128656269D01*
X154127000Y-128656269D01*
X154127000Y-129873000D01*
X155235000Y-129873000D01*
X155235000Y-129598000D01*
X155186493Y-129359504D01*
X155092390Y-129135054D01*
X154956307Y-128933275D01*
X154783474Y-128761922D01*
X154580533Y-128627579D01*
X154355282Y-128535409D01*
X154317609Y-128531538D01*
X154127000Y-128656269D01*
X153873000Y-128656269D01*
X153682391Y-128531538D01*
X153644718Y-128535409D01*
X153419467Y-128627579D01*
X153216526Y-128761922D01*
X153043693Y-128933275D01*
X153000481Y-128997348D01*
X152877502Y-128847498D01*
X152689448Y-128693167D01*
X152474900Y-128578489D01*
X152242101Y-128507870D01*
X152000000Y-128484025D01*
X151757898Y-128507870D01*
X151525099Y-128578489D01*
X151310551Y-128693167D01*
X151122498Y-128847498D01*
X151000000Y-128996763D01*
X150877502Y-128847498D01*
X150689448Y-128693167D01*
X150474900Y-128578489D01*
X150464202Y-128575244D01*
X157539446Y-121500000D01*
X178011444Y-121500000D01*
X178015001Y-121536115D01*
X178015000Y-125463895D01*
X178011444Y-125500000D01*
X178025635Y-125644084D01*
X178067663Y-125782632D01*
X178135913Y-125910319D01*
X178227762Y-126022237D01*
X178255808Y-126045254D01*
X179101822Y-126891269D01*
X179038485Y-126986060D01*
X178956696Y-127183517D01*
X178915000Y-127393137D01*
X178915000Y-127606863D01*
X178956696Y-127816483D01*
X179038485Y-128013940D01*
X179157225Y-128191647D01*
X179308353Y-128342775D01*
X179486060Y-128461515D01*
X179683517Y-128543304D01*
X179893137Y-128585000D01*
X180106863Y-128585000D01*
X180316483Y-128543304D01*
X180513940Y-128461515D01*
X180691647Y-128342775D01*
X180842775Y-128191647D01*
X180961515Y-128013940D01*
X180974493Y-127982608D01*
X181009467Y-128067043D01*
X181158959Y-128290774D01*
X181349226Y-128481041D01*
X181572957Y-128630533D01*
X181821553Y-128733505D01*
X182085461Y-128786000D01*
X182354539Y-128786000D01*
X182618447Y-128733505D01*
X182867043Y-128630533D01*
X183090774Y-128481041D01*
X183281041Y-128290774D01*
X183430533Y-128067043D01*
X183533505Y-127818447D01*
X183557970Y-127695452D01*
X183601553Y-127713505D01*
X183865461Y-127766000D01*
X184134539Y-127766000D01*
X184398447Y-127713505D01*
X184647043Y-127610533D01*
X184870774Y-127461041D01*
X185061041Y-127270774D01*
X185210533Y-127047043D01*
X185313505Y-126798447D01*
X185366000Y-126534539D01*
X185366000Y-126265461D01*
X185313505Y-126001553D01*
X185210533Y-125752957D01*
X185061041Y-125529226D01*
X184911815Y-125380000D01*
X185061041Y-125230774D01*
X185210533Y-125007043D01*
X185313505Y-124758447D01*
X185366000Y-124494539D01*
X185366000Y-124225461D01*
X185334143Y-124065304D01*
X186494193Y-122905254D01*
X186522238Y-122882238D01*
X186614087Y-122770320D01*
X186682337Y-122642633D01*
X186724365Y-122504085D01*
X186735000Y-122396105D01*
X186735000Y-122396098D01*
X186738555Y-122360001D01*
X186735000Y-122323904D01*
X186735000Y-119286105D01*
X186738556Y-119250000D01*
X186724365Y-119105915D01*
X186682337Y-118967366D01*
X186614087Y-118839680D01*
X186545253Y-118755806D01*
X186545250Y-118755803D01*
X186522237Y-118727762D01*
X186494197Y-118704750D01*
X185545258Y-117755812D01*
X185522238Y-117727762D01*
X185410320Y-117635913D01*
X185282633Y-117567663D01*
X185144085Y-117525635D01*
X185036105Y-117515000D01*
X185000000Y-117511444D01*
X184963895Y-117515000D01*
X182036104Y-117515000D01*
X181999999Y-117511444D01*
X181855914Y-117525635D01*
X181833099Y-117532556D01*
X181717367Y-117567663D01*
X181589680Y-117635913D01*
X181477762Y-117727762D01*
X181454746Y-117755807D01*
X178255808Y-120954746D01*
X178227763Y-120977762D01*
X178135914Y-121089680D01*
X178067664Y-121217367D01*
X178025635Y-121355915D01*
X178011444Y-121500000D01*
X157539446Y-121500000D01*
X160674951Y-118364495D01*
X167465000Y-118364495D01*
X167465000Y-118755505D01*
X167541282Y-119139003D01*
X167690915Y-119500250D01*
X167908149Y-119825364D01*
X168184636Y-120101851D01*
X168509750Y-120319085D01*
X168870997Y-120468718D01*
X169254495Y-120545000D01*
X169645505Y-120545000D01*
X170029003Y-120468718D01*
X170390250Y-120319085D01*
X170715364Y-120101851D01*
X170991851Y-119825364D01*
X171209085Y-119500250D01*
X171358718Y-119139003D01*
X171435000Y-118755505D01*
X171435000Y-118364495D01*
X171358718Y-117980997D01*
X171209085Y-117619750D01*
X170991851Y-117294636D01*
X170715364Y-117018149D01*
X170390250Y-116800915D01*
X170029003Y-116651282D01*
X169645505Y-116575000D01*
X169254495Y-116575000D01*
X168870997Y-116651282D01*
X168509750Y-116800915D01*
X168184636Y-117018149D01*
X167908149Y-117294636D01*
X167690915Y-117619750D01*
X167541282Y-117980997D01*
X167465000Y-118364495D01*
X160674951Y-118364495D01*
X162646098Y-116393349D01*
X162674137Y-116370338D01*
X162697150Y-116342297D01*
X162697153Y-116342294D01*
X162743915Y-116285314D01*
X162765987Y-116258420D01*
X162834237Y-116130733D01*
X162876265Y-115992185D01*
X162886900Y-115884205D01*
X162886900Y-115884204D01*
X162890456Y-115848100D01*
X162886900Y-115811995D01*
X162886900Y-105174146D01*
X164142074Y-103918972D01*
X164157225Y-103941647D01*
X164265001Y-104049423D01*
X164265000Y-106450578D01*
X164157225Y-106558353D01*
X164038485Y-106736060D01*
X163956696Y-106933517D01*
X163915000Y-107143137D01*
X163915000Y-107356863D01*
X163956696Y-107566483D01*
X164038485Y-107763940D01*
X164157225Y-107941647D01*
X164308353Y-108092775D01*
X164486060Y-108211515D01*
X164683517Y-108293304D01*
X164893137Y-108335000D01*
X165106863Y-108335000D01*
X165316483Y-108293304D01*
X165500000Y-108217289D01*
X165683517Y-108293304D01*
X165893137Y-108335000D01*
X166106863Y-108335000D01*
X166316483Y-108293304D01*
X166513940Y-108211515D01*
X166691647Y-108092775D01*
X166842775Y-107941647D01*
X166961515Y-107763940D01*
X167043304Y-107566483D01*
X167085000Y-107356863D01*
X167085000Y-107143137D01*
X167056529Y-107000000D01*
X178511444Y-107000000D01*
X178515001Y-107036115D01*
X178515000Y-109327895D01*
X178511444Y-109364000D01*
X178515000Y-109400104D01*
X178525635Y-109508084D01*
X178567663Y-109646632D01*
X178635913Y-109774319D01*
X178727762Y-109886237D01*
X178755808Y-109909254D01*
X179556160Y-110709607D01*
X179538485Y-110736060D01*
X179456696Y-110933517D01*
X179415000Y-111143137D01*
X179415000Y-111356863D01*
X179456696Y-111566483D01*
X179538485Y-111763940D01*
X179657225Y-111941647D01*
X179808353Y-112092775D01*
X179986060Y-112211515D01*
X180183517Y-112293304D01*
X180393137Y-112335000D01*
X180606863Y-112335000D01*
X180816483Y-112293304D01*
X181013940Y-112211515D01*
X181191647Y-112092775D01*
X181236304Y-112048119D01*
X181308185Y-112120000D01*
X181158959Y-112269226D01*
X181009467Y-112492957D01*
X180906495Y-112741553D01*
X180854000Y-113005461D01*
X180854000Y-113274539D01*
X180906495Y-113538447D01*
X181009467Y-113787043D01*
X181158959Y-114010774D01*
X181349226Y-114201041D01*
X181572957Y-114350533D01*
X181821553Y-114453505D01*
X182085461Y-114506000D01*
X182354539Y-114506000D01*
X182618447Y-114453505D01*
X182867043Y-114350533D01*
X183090774Y-114201041D01*
X183281041Y-114010774D01*
X183430533Y-113787043D01*
X183533505Y-113538447D01*
X183557970Y-113415452D01*
X183601553Y-113433505D01*
X183865461Y-113486000D01*
X184134539Y-113486000D01*
X184398447Y-113433505D01*
X184647043Y-113330533D01*
X184870774Y-113181041D01*
X185061041Y-112990774D01*
X185210533Y-112767043D01*
X185313505Y-112518447D01*
X185366000Y-112254539D01*
X185366000Y-111985461D01*
X185313505Y-111721553D01*
X185210533Y-111472957D01*
X185061041Y-111249226D01*
X184911815Y-111100000D01*
X185061041Y-110950774D01*
X185210533Y-110727043D01*
X185313505Y-110478447D01*
X185366000Y-110214539D01*
X185366000Y-109945461D01*
X185334142Y-109785304D01*
X188984193Y-106135254D01*
X189012238Y-106112238D01*
X189104087Y-106000320D01*
X189172337Y-105872633D01*
X189214365Y-105734085D01*
X189225000Y-105626105D01*
X189228556Y-105590000D01*
X189225000Y-105553895D01*
X189225000Y-103055104D01*
X189228556Y-103018999D01*
X189214365Y-102874914D01*
X189200663Y-102829747D01*
X189172337Y-102736367D01*
X189104087Y-102608680D01*
X189035493Y-102525099D01*
X189035253Y-102524806D01*
X189035250Y-102524803D01*
X189012237Y-102496762D01*
X188984197Y-102473750D01*
X187766258Y-101255812D01*
X187743238Y-101227762D01*
X187631320Y-101135913D01*
X187503633Y-101067663D01*
X187365085Y-101025635D01*
X187257105Y-101015000D01*
X187221000Y-101011444D01*
X187184895Y-101015000D01*
X185536105Y-101015000D01*
X185500000Y-101011444D01*
X185463895Y-101015000D01*
X185355915Y-101025635D01*
X185217367Y-101067663D01*
X185089680Y-101135913D01*
X184977762Y-101227762D01*
X184954746Y-101255807D01*
X184802745Y-101407809D01*
X184685058Y-101187634D01*
X184398667Y-101065938D01*
X183289605Y-102175000D01*
X183303748Y-102189143D01*
X183124143Y-102368748D01*
X183110000Y-102354605D01*
X183095858Y-102368748D01*
X182916253Y-102189143D01*
X182930395Y-102175000D01*
X181821333Y-101065938D01*
X181534942Y-101187634D01*
X181372580Y-101513884D01*
X181276986Y-101865541D01*
X181251834Y-102229090D01*
X181298091Y-102590561D01*
X181413979Y-102936062D01*
X181534942Y-103162366D01*
X181821331Y-103284061D01*
X181706153Y-103399239D01*
X181758734Y-103451820D01*
X178755808Y-106454746D01*
X178727763Y-106477762D01*
X178635914Y-106589680D01*
X178593434Y-106669155D01*
X178567664Y-106717367D01*
X178525635Y-106855915D01*
X178511444Y-107000000D01*
X167056529Y-107000000D01*
X167043304Y-106933517D01*
X166961515Y-106736060D01*
X166842775Y-106558353D01*
X166735000Y-106450578D01*
X166735000Y-104049422D01*
X166842775Y-103941647D01*
X166961515Y-103763940D01*
X167043304Y-103566483D01*
X167085000Y-103356863D01*
X167085000Y-103143137D01*
X167043304Y-102933517D01*
X166961515Y-102736060D01*
X166842775Y-102558353D01*
X166691647Y-102407225D01*
X166513940Y-102288485D01*
X166316483Y-102206696D01*
X166106863Y-102165000D01*
X165896047Y-102165000D01*
X166656053Y-101404994D01*
X166656058Y-101404988D01*
X166895036Y-101166010D01*
X166932885Y-101166010D01*
X166968990Y-101169566D01*
X167005095Y-101166010D01*
X167113075Y-101155375D01*
X167251623Y-101113347D01*
X167379310Y-101045097D01*
X167491228Y-100953248D01*
X167514249Y-100925197D01*
X167553113Y-100886333D01*
X182000938Y-100886333D01*
X183110000Y-101995395D01*
X184219062Y-100886333D01*
X184097366Y-100599942D01*
X183771116Y-100437580D01*
X183419459Y-100341986D01*
X183055910Y-100316834D01*
X182694439Y-100363091D01*
X182348938Y-100478979D01*
X182122634Y-100599942D01*
X182000938Y-100886333D01*
X167553113Y-100886333D01*
X169905779Y-98533667D01*
X182000938Y-98533667D01*
X182122634Y-98820058D01*
X182448884Y-98982420D01*
X182800541Y-99078014D01*
X183164090Y-99103166D01*
X183525561Y-99056909D01*
X183871062Y-98941021D01*
X184097366Y-98820058D01*
X184219062Y-98533667D01*
X183110000Y-97424605D01*
X182000938Y-98533667D01*
X169905779Y-98533667D01*
X171140356Y-97299090D01*
X181251834Y-97299090D01*
X181298091Y-97660561D01*
X181413979Y-98006062D01*
X181534942Y-98232366D01*
X181821333Y-98354062D01*
X182930395Y-97245000D01*
X181821333Y-96135938D01*
X181534942Y-96257634D01*
X181372580Y-96583884D01*
X181276986Y-96935541D01*
X181251834Y-97299090D01*
X171140356Y-97299090D01*
X172254447Y-96185000D01*
X172406863Y-96185000D01*
X172616483Y-96143304D01*
X172813940Y-96061515D01*
X172971356Y-95956333D01*
X182000938Y-95956333D01*
X183110000Y-97065395D01*
X183124143Y-97051253D01*
X183303748Y-97230858D01*
X183289605Y-97245000D01*
X184398667Y-98354062D01*
X184685058Y-98232366D01*
X184847420Y-97906116D01*
X184943014Y-97554459D01*
X184968166Y-97190910D01*
X184958442Y-97114920D01*
X185083397Y-97239875D01*
X185457647Y-97489941D01*
X185873490Y-97662189D01*
X186314947Y-97750000D01*
X186765053Y-97750000D01*
X187206510Y-97662189D01*
X187622353Y-97489941D01*
X187996603Y-97239875D01*
X188314875Y-96921603D01*
X188564941Y-96547353D01*
X188737189Y-96131510D01*
X188825000Y-95690053D01*
X188825000Y-95239947D01*
X188737189Y-94798490D01*
X188564941Y-94382647D01*
X188314875Y-94008397D01*
X187996603Y-93690125D01*
X187622353Y-93440059D01*
X187206510Y-93267811D01*
X186765053Y-93180000D01*
X186314947Y-93180000D01*
X185873490Y-93267811D01*
X185457647Y-93440059D01*
X185083397Y-93690125D01*
X184765125Y-94008397D01*
X184515059Y-94382647D01*
X184342811Y-94798490D01*
X184255000Y-95239947D01*
X184255000Y-95690053D01*
X184293216Y-95882176D01*
X184219061Y-95956331D01*
X184097366Y-95669942D01*
X183771116Y-95507580D01*
X183419459Y-95411986D01*
X183055910Y-95386834D01*
X182694439Y-95433091D01*
X182348938Y-95548979D01*
X182122634Y-95669942D01*
X182000938Y-95956333D01*
X172971356Y-95956333D01*
X172991647Y-95942775D01*
X173142775Y-95791647D01*
X173261515Y-95613940D01*
X173343304Y-95416483D01*
X173385000Y-95206863D01*
X173385000Y-95183057D01*
X173414896Y-95186001D01*
X173414905Y-95186001D01*
X173451000Y-95189556D01*
X173487095Y-95186001D01*
X182652294Y-95186001D01*
X182688399Y-95189557D01*
X182724504Y-95186001D01*
X182832484Y-95175366D01*
X182971032Y-95133338D01*
X183098719Y-95065088D01*
X183210637Y-94973239D01*
X183233657Y-94945189D01*
X184494197Y-93684650D01*
X184520782Y-93662832D01*
X184647043Y-93610533D01*
X184870774Y-93461041D01*
X185061041Y-93270774D01*
X185210533Y-93047043D01*
X185313505Y-92798447D01*
X185366000Y-92534539D01*
X185366000Y-92265461D01*
X185313505Y-92001553D01*
X185210533Y-91752957D01*
X185061041Y-91529226D01*
X184911815Y-91380000D01*
X185061041Y-91230774D01*
X185151762Y-91095000D01*
X185353895Y-91095000D01*
X185390000Y-91098556D01*
X185426105Y-91095000D01*
X185534085Y-91084365D01*
X185672633Y-91042337D01*
X185800320Y-90974087D01*
X185912238Y-90882238D01*
X185935258Y-90854188D01*
X186744193Y-90045254D01*
X186772238Y-90022238D01*
X186864087Y-89910320D01*
X186932337Y-89782634D01*
X186974365Y-89644085D01*
X186988556Y-89500000D01*
X186985000Y-89463895D01*
X186985000Y-85286105D01*
X186988556Y-85250000D01*
X186974365Y-85105915D01*
X186973409Y-85102763D01*
X186932337Y-84967367D01*
X186864087Y-84839680D01*
X186813574Y-84778130D01*
X186795253Y-84755806D01*
X186795250Y-84755803D01*
X186772237Y-84727762D01*
X186744197Y-84704750D01*
X185545258Y-83505812D01*
X185522238Y-83477762D01*
X185410320Y-83385913D01*
X185282633Y-83317663D01*
X185144085Y-83275635D01*
X185036105Y-83265000D01*
X185000000Y-83261444D01*
X184963895Y-83265000D01*
X182473447Y-83265000D01*
X184494198Y-81244249D01*
X184522237Y-81221238D01*
X184545250Y-81193197D01*
X184545253Y-81193194D01*
X184584358Y-81145544D01*
X184614087Y-81109320D01*
X184682337Y-80981633D01*
X184724365Y-80843085D01*
X184735000Y-80735105D01*
X184735000Y-80735104D01*
X184738556Y-80699000D01*
X184735000Y-80662895D01*
X184735000Y-79271762D01*
X184870774Y-79181041D01*
X185061041Y-78990774D01*
X185210533Y-78767043D01*
X185313505Y-78518447D01*
X185366000Y-78254539D01*
X185366000Y-77985461D01*
X185313505Y-77721553D01*
X185210533Y-77472957D01*
X185061041Y-77249226D01*
X184911815Y-77100000D01*
X185061041Y-76950774D01*
X185210533Y-76727043D01*
X185313505Y-76478447D01*
X185366000Y-76214539D01*
X185366000Y-75945461D01*
X185334142Y-75785304D01*
X188984197Y-72135250D01*
X189012237Y-72112238D01*
X189035250Y-72084197D01*
X189035253Y-72084194D01*
X189072314Y-72039035D01*
X189104087Y-72000320D01*
X189172337Y-71872633D01*
X189214365Y-71734085D01*
X189225000Y-71626105D01*
X189225000Y-71626104D01*
X189228556Y-71590000D01*
X189225000Y-71553895D01*
X189225000Y-69055105D01*
X189228556Y-69019000D01*
X189214365Y-68874915D01*
X189172337Y-68736366D01*
X189104087Y-68608680D01*
X189037249Y-68527238D01*
X189012238Y-68496762D01*
X188984193Y-68473746D01*
X188021258Y-67510812D01*
X187998238Y-67482762D01*
X187886320Y-67390913D01*
X187758633Y-67322663D01*
X187620085Y-67280635D01*
X187512105Y-67270000D01*
X187476000Y-67266444D01*
X187439895Y-67270000D01*
X185558105Y-67270000D01*
X185522000Y-67266444D01*
X185377915Y-67280635D01*
X185239366Y-67322663D01*
X185191029Y-67348500D01*
X185111680Y-67390913D01*
X184999762Y-67482762D01*
X184976746Y-67510807D01*
X184873233Y-67614320D01*
X184806021Y-67413938D01*
X184685058Y-67187634D01*
X184398667Y-67065938D01*
X183289605Y-68175000D01*
X183303748Y-68189143D01*
X183124143Y-68368748D01*
X183110000Y-68354605D01*
X183095858Y-68368748D01*
X182916253Y-68189143D01*
X182930395Y-68175000D01*
X181821333Y-67065938D01*
X181534942Y-67187634D01*
X181372580Y-67513884D01*
X181276986Y-67865541D01*
X181251834Y-68229090D01*
X181298091Y-68590561D01*
X181413979Y-68936062D01*
X181456173Y-69015000D01*
X181036105Y-69015000D01*
X181000000Y-69011444D01*
X180963895Y-69015000D01*
X180855915Y-69025635D01*
X180717367Y-69067663D01*
X180589680Y-69135913D01*
X180477762Y-69227762D01*
X180454746Y-69255807D01*
X180193550Y-69517004D01*
X180105915Y-69525635D01*
X179967366Y-69567663D01*
X179895802Y-69605915D01*
X179839680Y-69635913D01*
X179727762Y-69727762D01*
X179704746Y-69755807D01*
X176755808Y-72704746D01*
X176727762Y-72727763D01*
X176635913Y-72839681D01*
X176567663Y-72967368D01*
X176555034Y-73009001D01*
X176525635Y-73105915D01*
X176511444Y-73250000D01*
X176515000Y-73286106D01*
X176515001Y-74213886D01*
X176511444Y-74250000D01*
X176525635Y-74394085D01*
X176564510Y-74522237D01*
X176567664Y-74532633D01*
X176635914Y-74660320D01*
X176727763Y-74772238D01*
X176755808Y-74795254D01*
X178454746Y-76494193D01*
X178477762Y-76522238D01*
X178550338Y-76581800D01*
X178589680Y-76614087D01*
X178717366Y-76682337D01*
X178855915Y-76724365D01*
X178949123Y-76733545D01*
X179058353Y-76842775D01*
X179236060Y-76961515D01*
X179433517Y-77043304D01*
X179643137Y-77085000D01*
X179856863Y-77085000D01*
X180066483Y-77043304D01*
X180263940Y-76961515D01*
X180441647Y-76842775D01*
X180592775Y-76691647D01*
X180711515Y-76513940D01*
X180793304Y-76316483D01*
X180835000Y-76106863D01*
X180835000Y-75893137D01*
X180793304Y-75683517D01*
X180711515Y-75486060D01*
X180592775Y-75308353D01*
X180441647Y-75157225D01*
X180263940Y-75038485D01*
X180066483Y-74956696D01*
X179856863Y-74915000D01*
X179833555Y-74915000D01*
X179941647Y-74842775D01*
X180092775Y-74691647D01*
X180211515Y-74513940D01*
X180293304Y-74316483D01*
X180335000Y-74106863D01*
X180335000Y-73954446D01*
X180900606Y-73388841D01*
X180906495Y-73418447D01*
X181009467Y-73667043D01*
X181158959Y-73890774D01*
X181308185Y-74040000D01*
X181158959Y-74189226D01*
X181009467Y-74412957D01*
X180906495Y-74661553D01*
X180854000Y-74925461D01*
X180854000Y-75194539D01*
X180906495Y-75458447D01*
X181009467Y-75707043D01*
X181158959Y-75930774D01*
X181308185Y-76080000D01*
X181158959Y-76229226D01*
X181009467Y-76452957D01*
X180906495Y-76701553D01*
X180854000Y-76965461D01*
X180854000Y-77234539D01*
X180906495Y-77498447D01*
X181009467Y-77747043D01*
X181158959Y-77970774D01*
X181308185Y-78120000D01*
X181158959Y-78269226D01*
X181009467Y-78492957D01*
X180906495Y-78741553D01*
X180854000Y-79005461D01*
X180854000Y-79274539D01*
X180906495Y-79538447D01*
X181009467Y-79787043D01*
X181158959Y-80010774D01*
X181349226Y-80201041D01*
X181485000Y-80291762D01*
X181485001Y-81579652D01*
X169470728Y-93593925D01*
X169432337Y-93467366D01*
X169364454Y-93340368D01*
X169511075Y-93193747D01*
X169629815Y-93016040D01*
X169711604Y-92818583D01*
X169753300Y-92608963D01*
X169753300Y-92395237D01*
X169711604Y-92185617D01*
X169629815Y-91988160D01*
X169511075Y-91810453D01*
X169359947Y-91659325D01*
X169182240Y-91540585D01*
X168984783Y-91458796D01*
X168775163Y-91417100D01*
X168622747Y-91417100D01*
X164175659Y-86970013D01*
X164152638Y-86941962D01*
X164040720Y-86850113D01*
X163913033Y-86781863D01*
X163774485Y-86739835D01*
X163666505Y-86729200D01*
X163630400Y-86725644D01*
X163594295Y-86729200D01*
X162525147Y-86729200D01*
X161991300Y-86195354D01*
X161991300Y-81667646D01*
X163684593Y-79974354D01*
X163712638Y-79951338D01*
X163804487Y-79839420D01*
X163872737Y-79711733D01*
X163914765Y-79573185D01*
X163925400Y-79465205D01*
X163925400Y-79465196D01*
X163928955Y-79429101D01*
X163925400Y-79393006D01*
X163925400Y-72155140D01*
X164075901Y-72226825D01*
X164223110Y-72271476D01*
X164453000Y-72150155D01*
X164453000Y-70957000D01*
X164707000Y-70957000D01*
X164707000Y-72150155D01*
X164936890Y-72271476D01*
X165084099Y-72226825D01*
X165346920Y-72101641D01*
X165580269Y-71927588D01*
X165775178Y-71711355D01*
X165924157Y-71461252D01*
X166021481Y-71186891D01*
X165900814Y-70957000D01*
X164707000Y-70957000D01*
X164453000Y-70957000D01*
X164433000Y-70957000D01*
X164433000Y-70703000D01*
X164453000Y-70703000D01*
X164453000Y-70683000D01*
X164707000Y-70683000D01*
X164707000Y-70703000D01*
X165900814Y-70703000D01*
X166021481Y-70473109D01*
X165924157Y-70198748D01*
X165775178Y-69948645D01*
X165580269Y-69732412D01*
X165351244Y-69561584D01*
X165409014Y-69530706D01*
X165611542Y-69364495D01*
X167465000Y-69364495D01*
X167465000Y-69755505D01*
X167541282Y-70139003D01*
X167690915Y-70500250D01*
X167908149Y-70825364D01*
X168184636Y-71101851D01*
X168509750Y-71319085D01*
X168870997Y-71468718D01*
X169254495Y-71545000D01*
X169645505Y-71545000D01*
X170029003Y-71468718D01*
X170390250Y-71319085D01*
X170715364Y-71101851D01*
X170991851Y-70825364D01*
X171209085Y-70500250D01*
X171358718Y-70139003D01*
X171435000Y-69755505D01*
X171435000Y-69364495D01*
X171358718Y-68980997D01*
X171209085Y-68619750D01*
X170991851Y-68294636D01*
X170715364Y-68018149D01*
X170390250Y-67800915D01*
X170029003Y-67651282D01*
X169645505Y-67575000D01*
X169254495Y-67575000D01*
X168870997Y-67651282D01*
X168509750Y-67800915D01*
X168184636Y-68018149D01*
X167908149Y-68294636D01*
X167690915Y-68619750D01*
X167541282Y-68980997D01*
X167465000Y-69364495D01*
X165611542Y-69364495D01*
X165635134Y-69345134D01*
X165820706Y-69119014D01*
X165958599Y-68861034D01*
X166043513Y-68581111D01*
X166072185Y-68290000D01*
X166043513Y-67998889D01*
X165958599Y-67718966D01*
X165820706Y-67460986D01*
X165635134Y-67234866D01*
X165409014Y-67049294D01*
X165151034Y-66911401D01*
X164871111Y-66826487D01*
X164652950Y-66805000D01*
X164507050Y-66805000D01*
X164288889Y-66826487D01*
X164008966Y-66911401D01*
X163750986Y-67049294D01*
X163524866Y-67234866D01*
X163339294Y-67460986D01*
X163310000Y-67515791D01*
X163280706Y-67460986D01*
X163095134Y-67234866D01*
X162869014Y-67049294D01*
X162611034Y-66911401D01*
X162331111Y-66826487D01*
X162112950Y-66805000D01*
X161967050Y-66805000D01*
X161748889Y-66826487D01*
X161468966Y-66911401D01*
X161210986Y-67049294D01*
X161065905Y-67168359D01*
X160638179Y-66740633D01*
X182063650Y-66738750D01*
X182000938Y-66886333D01*
X183110000Y-67995395D01*
X184219062Y-66886333D01*
X184156272Y-66738566D01*
X190568524Y-66738003D01*
X190912333Y-66771714D01*
G36*
X132648454Y-115091400D02*
G01*
X132496037Y-115091400D01*
X132286417Y-115133096D01*
X132088960Y-115214885D01*
X131911253Y-115333625D01*
X131760125Y-115484753D01*
X131641385Y-115662460D01*
X131559596Y-115859917D01*
X131517900Y-116069537D01*
X131517900Y-116283263D01*
X131559596Y-116492883D01*
X131641385Y-116690340D01*
X131760125Y-116868047D01*
X131911253Y-117019175D01*
X132088960Y-117137915D01*
X132286417Y-117219704D01*
X132496037Y-117261400D01*
X132709763Y-117261400D01*
X132919383Y-117219704D01*
X133116840Y-117137915D01*
X133294547Y-117019175D01*
X133445675Y-116868047D01*
X133564415Y-116690340D01*
X133646204Y-116492883D01*
X133687900Y-116283263D01*
X133687900Y-116130846D01*
X134689500Y-115129246D01*
X134689501Y-122388385D01*
X134685944Y-122424500D01*
X134700135Y-122568585D01*
X134729686Y-122666000D01*
X134742164Y-122707133D01*
X134810414Y-122834820D01*
X134902263Y-122946738D01*
X134930308Y-122969754D01*
X140535797Y-128575244D01*
X140525099Y-128578489D01*
X140310551Y-128693167D01*
X140122498Y-128847498D01*
X140000000Y-128996763D01*
X139877502Y-128847498D01*
X139689448Y-128693167D01*
X139474900Y-128578489D01*
X139242101Y-128507870D01*
X139000000Y-128484025D01*
X138757898Y-128507870D01*
X138525099Y-128578489D01*
X138310551Y-128693167D01*
X138122498Y-128847498D01*
X138000000Y-128996763D01*
X137877502Y-128847498D01*
X137689448Y-128693167D01*
X137474900Y-128578489D01*
X137242101Y-128507870D01*
X137000000Y-128484025D01*
X136757898Y-128507870D01*
X136525099Y-128578489D01*
X136310551Y-128693167D01*
X136122498Y-128847498D01*
X135999519Y-128997349D01*
X135956307Y-128933275D01*
X135783474Y-128761922D01*
X135580533Y-128627579D01*
X135355282Y-128535409D01*
X135317609Y-128531538D01*
X135127000Y-128656269D01*
X135127000Y-129873000D01*
X135147000Y-129873000D01*
X135147000Y-130127000D01*
X135127000Y-130127000D01*
X135127000Y-130147000D01*
X134873000Y-130147000D01*
X134873000Y-130127000D01*
X134853000Y-130127000D01*
X134853000Y-129873000D01*
X134873000Y-129873000D01*
X134873000Y-128656269D01*
X134682391Y-128531538D01*
X134644718Y-128535409D01*
X134419467Y-128627579D01*
X134216526Y-128761922D01*
X134090967Y-128886406D01*
X134088405Y-128881613D01*
X133977962Y-128747038D01*
X133843387Y-128636595D01*
X133689851Y-128554528D01*
X133523255Y-128503992D01*
X133350001Y-128486928D01*
X132649999Y-128486928D01*
X132476745Y-128503992D01*
X132310149Y-128554528D01*
X132156613Y-128636595D01*
X132022038Y-128747038D01*
X131911595Y-128881613D01*
X131829528Y-129035149D01*
X131778992Y-129201745D01*
X131761928Y-129374999D01*
X131761928Y-130625001D01*
X131778992Y-130798255D01*
X131829528Y-130964851D01*
X131911595Y-131118387D01*
X132022038Y-131252962D01*
X132156613Y-131363405D01*
X132310149Y-131445472D01*
X132476745Y-131496008D01*
X132649999Y-131513072D01*
X133350001Y-131513072D01*
X133462541Y-131501988D01*
X133556553Y-131596000D01*
X122727230Y-131596000D01*
X122735000Y-131517105D01*
X122735000Y-131517096D01*
X122738555Y-131481001D01*
X122735000Y-131444906D01*
X122735000Y-131421339D01*
X122843387Y-131363405D01*
X122977962Y-131252962D01*
X123088405Y-131118387D01*
X123090967Y-131113594D01*
X123216526Y-131238078D01*
X123419467Y-131372421D01*
X123644718Y-131464591D01*
X123682391Y-131468462D01*
X123873000Y-131343731D01*
X123873000Y-130127000D01*
X123853000Y-130127000D01*
X123853000Y-129873000D01*
X123873000Y-129873000D01*
X123873000Y-128656269D01*
X124127000Y-128656269D01*
X124127000Y-129873000D01*
X124147000Y-129873000D01*
X124147000Y-130127000D01*
X124127000Y-130127000D01*
X124127000Y-131343731D01*
X124317609Y-131468462D01*
X124355282Y-131464591D01*
X124580533Y-131372421D01*
X124783474Y-131238078D01*
X124956307Y-131066725D01*
X124999520Y-131002651D01*
X125122499Y-131152502D01*
X125310552Y-131306833D01*
X125525100Y-131421511D01*
X125757899Y-131492130D01*
X126000000Y-131515975D01*
X126242102Y-131492130D01*
X126474901Y-131421511D01*
X126689449Y-131306833D01*
X126877502Y-131152502D01*
X127000001Y-131003237D01*
X127122499Y-131152502D01*
X127310552Y-131306833D01*
X127525100Y-131421511D01*
X127757899Y-131492130D01*
X128000000Y-131515975D01*
X128242102Y-131492130D01*
X128474901Y-131421511D01*
X128689449Y-131306833D01*
X128877502Y-131152502D01*
X129031833Y-130964449D01*
X129146511Y-130749900D01*
X129217130Y-130517101D01*
X129235000Y-130335664D01*
X129235000Y-129664335D01*
X129217130Y-129482898D01*
X129146511Y-129250099D01*
X129031833Y-129035551D01*
X128877502Y-128847498D01*
X128689448Y-128693167D01*
X128474900Y-128578489D01*
X128242101Y-128507870D01*
X128000000Y-128484025D01*
X127757898Y-128507870D01*
X127525099Y-128578489D01*
X127310551Y-128693167D01*
X127122498Y-128847498D01*
X127000000Y-128996763D01*
X126877502Y-128847498D01*
X126689448Y-128693167D01*
X126474900Y-128578489D01*
X126242101Y-128507870D01*
X126000000Y-128484025D01*
X125757898Y-128507870D01*
X125525099Y-128578489D01*
X125310551Y-128693167D01*
X125122498Y-128847498D01*
X124999519Y-128997349D01*
X124956307Y-128933275D01*
X124783474Y-128761922D01*
X124580533Y-128627579D01*
X124355282Y-128535409D01*
X124317609Y-128531538D01*
X124127000Y-128656269D01*
X123873000Y-128656269D01*
X123682391Y-128531538D01*
X123644718Y-128535409D01*
X123419467Y-128627579D01*
X123216526Y-128761922D01*
X123090967Y-128886406D01*
X123088405Y-128881613D01*
X122977962Y-128747038D01*
X122843387Y-128636595D01*
X122689851Y-128554528D01*
X122523255Y-128503992D01*
X122350001Y-128486928D01*
X121649999Y-128486928D01*
X121476745Y-128503992D01*
X121310149Y-128554528D01*
X121156613Y-128636595D01*
X121022038Y-128747038D01*
X120911595Y-128881613D01*
X120829528Y-129035149D01*
X120778992Y-129201745D01*
X120761928Y-129374999D01*
X120761928Y-130625001D01*
X120778992Y-130798255D01*
X120829528Y-130964851D01*
X120911595Y-131118387D01*
X121022038Y-131252962D01*
X121113517Y-131328037D01*
X120845553Y-131596000D01*
X113579686Y-131596000D01*
X113421274Y-131437588D01*
X113580533Y-131372421D01*
X113783474Y-131238078D01*
X113956307Y-131066725D01*
X113999520Y-131002651D01*
X114122499Y-131152502D01*
X114310552Y-131306833D01*
X114525100Y-131421511D01*
X114757899Y-131492130D01*
X115000000Y-131515975D01*
X115242102Y-131492130D01*
X115474901Y-131421511D01*
X115689449Y-131306833D01*
X115877502Y-131152502D01*
X116000001Y-131003237D01*
X116122499Y-131152502D01*
X116310552Y-131306833D01*
X116525100Y-131421511D01*
X116757899Y-131492130D01*
X117000000Y-131515975D01*
X117242102Y-131492130D01*
X117474901Y-131421511D01*
X117689449Y-131306833D01*
X117877502Y-131152502D01*
X118031833Y-130964449D01*
X118146511Y-130749900D01*
X118217130Y-130517101D01*
X118235000Y-130335664D01*
X118235000Y-129664335D01*
X118217130Y-129482898D01*
X118146511Y-129250099D01*
X118031833Y-129035551D01*
X117877502Y-128847498D01*
X117735000Y-128730550D01*
X117735000Y-123963294D01*
X117747038Y-123977962D01*
X117881613Y-124088405D01*
X118035149Y-124170472D01*
X118201745Y-124221008D01*
X118374999Y-124238072D01*
X119625001Y-124238072D01*
X119798255Y-124221008D01*
X119964851Y-124170472D01*
X120118387Y-124088405D01*
X120252962Y-123977962D01*
X120363405Y-123843387D01*
X120445472Y-123689851D01*
X120496008Y-123523255D01*
X120513072Y-123350001D01*
X120513072Y-122649999D01*
X120496008Y-122476745D01*
X120450575Y-122326971D01*
X133963747Y-108813800D01*
X138926053Y-108813800D01*
X132648454Y-115091400D01*
X132648454Y-115091400D01*
G37*
X132648454Y-115091400D02*
X132496037Y-115091400D01*
X132286417Y-115133096D01*
X132088960Y-115214885D01*
X131911253Y-115333625D01*
X131760125Y-115484753D01*
X131641385Y-115662460D01*
X131559596Y-115859917D01*
X131517900Y-116069537D01*
X131517900Y-116283263D01*
X131559596Y-116492883D01*
X131641385Y-116690340D01*
X131760125Y-116868047D01*
X131911253Y-117019175D01*
X132088960Y-117137915D01*
X132286417Y-117219704D01*
X132496037Y-117261400D01*
X132709763Y-117261400D01*
X132919383Y-117219704D01*
X133116840Y-117137915D01*
X133294547Y-117019175D01*
X133445675Y-116868047D01*
X133564415Y-116690340D01*
X133646204Y-116492883D01*
X133687900Y-116283263D01*
X133687900Y-116130846D01*
X134689500Y-115129246D01*
X134689501Y-122388385D01*
X134685944Y-122424500D01*
X134700135Y-122568585D01*
X134729686Y-122666000D01*
X134742164Y-122707133D01*
X134810414Y-122834820D01*
X134902263Y-122946738D01*
X134930308Y-122969754D01*
X140535797Y-128575244D01*
X140525099Y-128578489D01*
X140310551Y-128693167D01*
X140122498Y-128847498D01*
X140000000Y-128996763D01*
X139877502Y-128847498D01*
X139689448Y-128693167D01*
X139474900Y-128578489D01*
X139242101Y-128507870D01*
X139000000Y-128484025D01*
X138757898Y-128507870D01*
X138525099Y-128578489D01*
X138310551Y-128693167D01*
X138122498Y-128847498D01*
X138000000Y-128996763D01*
X137877502Y-128847498D01*
X137689448Y-128693167D01*
X137474900Y-128578489D01*
X137242101Y-128507870D01*
X137000000Y-128484025D01*
X136757898Y-128507870D01*
X136525099Y-128578489D01*
X136310551Y-128693167D01*
X136122498Y-128847498D01*
X135999519Y-128997349D01*
X135956307Y-128933275D01*
X135783474Y-128761922D01*
X135580533Y-128627579D01*
X135355282Y-128535409D01*
X135317609Y-128531538D01*
X135127000Y-128656269D01*
X135127000Y-129873000D01*
X135147000Y-129873000D01*
X135147000Y-130127000D01*
X135127000Y-130127000D01*
X135127000Y-130147000D01*
X134873000Y-130147000D01*
X134873000Y-130127000D01*
X134853000Y-130127000D01*
X134853000Y-129873000D01*
X134873000Y-129873000D01*
X134873000Y-128656269D01*
X134682391Y-128531538D01*
X134644718Y-128535409D01*
X134419467Y-128627579D01*
X134216526Y-128761922D01*
X134090967Y-128886406D01*
X134088405Y-128881613D01*
X133977962Y-128747038D01*
X133843387Y-128636595D01*
X133689851Y-128554528D01*
X133523255Y-128503992D01*
X133350001Y-128486928D01*
X132649999Y-128486928D01*
X132476745Y-128503992D01*
X132310149Y-128554528D01*
X132156613Y-128636595D01*
X132022038Y-128747038D01*
X131911595Y-128881613D01*
X131829528Y-129035149D01*
X131778992Y-129201745D01*
X131761928Y-129374999D01*
X131761928Y-130625001D01*
X131778992Y-130798255D01*
X131829528Y-130964851D01*
X131911595Y-131118387D01*
X132022038Y-131252962D01*
X132156613Y-131363405D01*
X132310149Y-131445472D01*
X132476745Y-131496008D01*
X132649999Y-131513072D01*
X133350001Y-131513072D01*
X133462541Y-131501988D01*
X133556553Y-131596000D01*
X122727230Y-131596000D01*
X122735000Y-131517105D01*
X122735000Y-131517096D01*
X122738555Y-131481001D01*
X122735000Y-131444906D01*
X122735000Y-131421339D01*
X122843387Y-131363405D01*
X122977962Y-131252962D01*
X123088405Y-131118387D01*
X123090967Y-131113594D01*
X123216526Y-131238078D01*
X123419467Y-131372421D01*
X123644718Y-131464591D01*
X123682391Y-131468462D01*
X123873000Y-131343731D01*
X123873000Y-130127000D01*
X123853000Y-130127000D01*
X123853000Y-129873000D01*
X123873000Y-129873000D01*
X123873000Y-128656269D01*
X124127000Y-128656269D01*
X124127000Y-129873000D01*
X124147000Y-129873000D01*
X124147000Y-130127000D01*
X124127000Y-130127000D01*
X124127000Y-131343731D01*
X124317609Y-131468462D01*
X124355282Y-131464591D01*
X124580533Y-131372421D01*
X124783474Y-131238078D01*
X124956307Y-131066725D01*
X124999520Y-131002651D01*
X125122499Y-131152502D01*
X125310552Y-131306833D01*
X125525100Y-131421511D01*
X125757899Y-131492130D01*
X126000000Y-131515975D01*
X126242102Y-131492130D01*
X126474901Y-131421511D01*
X126689449Y-131306833D01*
X126877502Y-131152502D01*
X127000001Y-131003237D01*
X127122499Y-131152502D01*
X127310552Y-131306833D01*
X127525100Y-131421511D01*
X127757899Y-131492130D01*
X128000000Y-131515975D01*
X128242102Y-131492130D01*
X128474901Y-131421511D01*
X128689449Y-131306833D01*
X128877502Y-131152502D01*
X129031833Y-130964449D01*
X129146511Y-130749900D01*
X129217130Y-130517101D01*
X129235000Y-130335664D01*
X129235000Y-129664335D01*
X129217130Y-129482898D01*
X129146511Y-129250099D01*
X129031833Y-129035551D01*
X128877502Y-128847498D01*
X128689448Y-128693167D01*
X128474900Y-128578489D01*
X128242101Y-128507870D01*
X128000000Y-128484025D01*
X127757898Y-128507870D01*
X127525099Y-128578489D01*
X127310551Y-128693167D01*
X127122498Y-128847498D01*
X127000000Y-128996763D01*
X126877502Y-128847498D01*
X126689448Y-128693167D01*
X126474900Y-128578489D01*
X126242101Y-128507870D01*
X126000000Y-128484025D01*
X125757898Y-128507870D01*
X125525099Y-128578489D01*
X125310551Y-128693167D01*
X125122498Y-128847498D01*
X124999519Y-128997349D01*
X124956307Y-128933275D01*
X124783474Y-128761922D01*
X124580533Y-128627579D01*
X124355282Y-128535409D01*
X124317609Y-128531538D01*
X124127000Y-128656269D01*
X123873000Y-128656269D01*
X123682391Y-128531538D01*
X123644718Y-128535409D01*
X123419467Y-128627579D01*
X123216526Y-128761922D01*
X123090967Y-128886406D01*
X123088405Y-128881613D01*
X122977962Y-128747038D01*
X122843387Y-128636595D01*
X122689851Y-128554528D01*
X122523255Y-128503992D01*
X122350001Y-128486928D01*
X121649999Y-128486928D01*
X121476745Y-128503992D01*
X121310149Y-128554528D01*
X121156613Y-128636595D01*
X121022038Y-128747038D01*
X120911595Y-128881613D01*
X120829528Y-129035149D01*
X120778992Y-129201745D01*
X120761928Y-129374999D01*
X120761928Y-130625001D01*
X120778992Y-130798255D01*
X120829528Y-130964851D01*
X120911595Y-131118387D01*
X121022038Y-131252962D01*
X121113517Y-131328037D01*
X120845553Y-131596000D01*
X113579686Y-131596000D01*
X113421274Y-131437588D01*
X113580533Y-131372421D01*
X113783474Y-131238078D01*
X113956307Y-131066725D01*
X113999520Y-131002651D01*
X114122499Y-131152502D01*
X114310552Y-131306833D01*
X114525100Y-131421511D01*
X114757899Y-131492130D01*
X115000000Y-131515975D01*
X115242102Y-131492130D01*
X115474901Y-131421511D01*
X115689449Y-131306833D01*
X115877502Y-131152502D01*
X116000001Y-131003237D01*
X116122499Y-131152502D01*
X116310552Y-131306833D01*
X116525100Y-131421511D01*
X116757899Y-131492130D01*
X117000000Y-131515975D01*
X117242102Y-131492130D01*
X117474901Y-131421511D01*
X117689449Y-131306833D01*
X117877502Y-131152502D01*
X118031833Y-130964449D01*
X118146511Y-130749900D01*
X118217130Y-130517101D01*
X118235000Y-130335664D01*
X118235000Y-129664335D01*
X118217130Y-129482898D01*
X118146511Y-129250099D01*
X118031833Y-129035551D01*
X117877502Y-128847498D01*
X117735000Y-128730550D01*
X117735000Y-123963294D01*
X117747038Y-123977962D01*
X117881613Y-124088405D01*
X118035149Y-124170472D01*
X118201745Y-124221008D01*
X118374999Y-124238072D01*
X119625001Y-124238072D01*
X119798255Y-124221008D01*
X119964851Y-124170472D01*
X120118387Y-124088405D01*
X120252962Y-123977962D01*
X120363405Y-123843387D01*
X120445472Y-123689851D01*
X120496008Y-123523255D01*
X120513072Y-123350001D01*
X120513072Y-122649999D01*
X120496008Y-122476745D01*
X120450575Y-122326971D01*
X133963747Y-108813800D01*
X138926053Y-108813800D01*
X132648454Y-115091400D01*
G36*
X120815000Y-106283646D02*
G01*
X120817852Y-106312600D01*
X120817831Y-106315573D01*
X120818764Y-106325092D01*
X120823824Y-106373233D01*
X120824912Y-106384282D01*
X120825024Y-106384650D01*
X120828964Y-106422140D01*
X120841455Y-106482990D01*
X120853082Y-106543942D01*
X120855845Y-106553096D01*
X120855847Y-106553102D01*
X120884702Y-106646317D01*
X120908754Y-106703533D01*
X120932020Y-106761119D01*
X120936510Y-106769564D01*
X120982923Y-106855401D01*
X121017638Y-106906867D01*
X121051636Y-106958821D01*
X121057680Y-106966232D01*
X121119882Y-107041421D01*
X121163930Y-107085162D01*
X121207369Y-107129522D01*
X121214739Y-107135618D01*
X121214744Y-107135623D01*
X121214750Y-107135627D01*
X121290360Y-107197294D01*
X121342041Y-107231632D01*
X121393306Y-107266733D01*
X121401719Y-107271282D01*
X121487880Y-107317094D01*
X121545296Y-107340758D01*
X121602339Y-107365208D01*
X121611475Y-107368036D01*
X121704893Y-107396241D01*
X121765813Y-107408303D01*
X121826530Y-107421209D01*
X121836042Y-107422209D01*
X121933159Y-107431731D01*
X121933163Y-107431731D01*
X121966353Y-107435000D01*
X126525553Y-107435000D01*
X120424756Y-113535797D01*
X120421511Y-113525099D01*
X120306833Y-113310551D01*
X120152502Y-113122498D01*
X119964449Y-112968167D01*
X119749901Y-112853489D01*
X119517102Y-112782870D01*
X119335665Y-112765000D01*
X118664335Y-112765000D01*
X118482898Y-112782870D01*
X118250099Y-112853489D01*
X118035551Y-112968167D01*
X117847498Y-113122498D01*
X117693167Y-113310551D01*
X117578489Y-113525099D01*
X117507870Y-113757898D01*
X117484025Y-114000000D01*
X117507870Y-114242102D01*
X117578489Y-114474901D01*
X117693167Y-114689449D01*
X117847498Y-114877502D01*
X117886111Y-114909191D01*
X117881613Y-114911595D01*
X117747038Y-115022038D01*
X117636595Y-115156613D01*
X117554528Y-115310149D01*
X117503992Y-115476745D01*
X117486928Y-115649999D01*
X117486928Y-116350001D01*
X117503992Y-116523255D01*
X117554528Y-116689851D01*
X117636595Y-116843387D01*
X117747038Y-116977962D01*
X117881613Y-117088405D01*
X118035149Y-117170472D01*
X118201745Y-117221008D01*
X118374999Y-117238072D01*
X119625001Y-117238072D01*
X119798255Y-117221008D01*
X119964851Y-117170472D01*
X120118387Y-117088405D01*
X120252962Y-116977962D01*
X120363405Y-116843387D01*
X120445472Y-116689851D01*
X120496008Y-116523255D01*
X120513072Y-116350001D01*
X120513072Y-115649999D01*
X120501988Y-115537458D01*
X128026347Y-108013100D01*
X129375653Y-108013100D01*
X116505808Y-120882946D01*
X116477763Y-120905962D01*
X116385914Y-121017880D01*
X116368849Y-121049807D01*
X116317664Y-121145567D01*
X116275635Y-121284115D01*
X116261444Y-121428200D01*
X116265001Y-121464315D01*
X116265000Y-128730550D01*
X116122498Y-128847498D01*
X116000000Y-128996763D01*
X115877502Y-128847498D01*
X115689448Y-128693167D01*
X115474900Y-128578489D01*
X115242101Y-128507870D01*
X115000000Y-128484025D01*
X114757898Y-128507870D01*
X114525099Y-128578489D01*
X114310551Y-128693167D01*
X114122498Y-128847498D01*
X113999519Y-128997349D01*
X113956307Y-128933275D01*
X113783474Y-128761922D01*
X113580533Y-128627579D01*
X113355282Y-128535409D01*
X113317609Y-128531538D01*
X113127000Y-128656269D01*
X113127000Y-129873000D01*
X113147000Y-129873000D01*
X113147000Y-130127000D01*
X113127000Y-130127000D01*
X113127000Y-130147000D01*
X112873000Y-130147000D01*
X112873000Y-130127000D01*
X112853000Y-130127000D01*
X112853000Y-129873000D01*
X112873000Y-129873000D01*
X112873000Y-128656269D01*
X112682391Y-128531538D01*
X112644718Y-128535409D01*
X112419467Y-128627579D01*
X112216526Y-128761922D01*
X112090967Y-128886406D01*
X112088405Y-128881613D01*
X111977962Y-128747038D01*
X111843387Y-128636595D01*
X111689851Y-128554528D01*
X111523255Y-128503992D01*
X111350001Y-128486928D01*
X110745614Y-128486928D01*
X110535000Y-128276315D01*
X110535000Y-120329544D01*
X110870997Y-120468718D01*
X111254495Y-120545000D01*
X111645505Y-120545000D01*
X112029003Y-120468718D01*
X112390250Y-120319085D01*
X112715364Y-120101851D01*
X112991851Y-119825364D01*
X113209085Y-119500250D01*
X113358718Y-119139003D01*
X113435000Y-118755505D01*
X113435000Y-118364495D01*
X113358718Y-117980997D01*
X113209085Y-117619750D01*
X112991851Y-117294636D01*
X112715364Y-117018149D01*
X112390250Y-116800915D01*
X112029003Y-116651282D01*
X111645505Y-116575000D01*
X111254495Y-116575000D01*
X110870997Y-116651282D01*
X110535000Y-116790456D01*
X110535000Y-109351302D01*
X110535409Y-109355282D01*
X110627579Y-109580533D01*
X110761922Y-109783474D01*
X110933275Y-109956307D01*
X111135054Y-110092390D01*
X111359504Y-110186493D01*
X111598000Y-110235000D01*
X111873000Y-110235000D01*
X111873000Y-109127000D01*
X112127000Y-109127000D01*
X112127000Y-110235000D01*
X112402000Y-110235000D01*
X112640496Y-110186493D01*
X112864946Y-110092390D01*
X113066725Y-109956307D01*
X113238078Y-109783474D01*
X113372421Y-109580533D01*
X113464591Y-109355282D01*
X113468462Y-109317609D01*
X113343731Y-109127000D01*
X112127000Y-109127000D01*
X111873000Y-109127000D01*
X111853000Y-109127000D01*
X111853000Y-108873000D01*
X111873000Y-108873000D01*
X111873000Y-108853000D01*
X112127000Y-108853000D01*
X112127000Y-108873000D01*
X113343731Y-108873000D01*
X113468462Y-108682391D01*
X113464591Y-108644718D01*
X113372421Y-108419467D01*
X113238078Y-108216526D01*
X113066725Y-108043693D01*
X113002652Y-108000481D01*
X113152502Y-107877502D01*
X113306833Y-107689449D01*
X113421511Y-107474901D01*
X113492130Y-107242102D01*
X113515975Y-107000000D01*
X113492130Y-106757898D01*
X113421511Y-106525099D01*
X113309572Y-106315675D01*
X113676293Y-105948954D01*
X113704338Y-105925938D01*
X113796187Y-105814020D01*
X113811074Y-105786168D01*
X113864437Y-105686334D01*
X113906465Y-105547785D01*
X113920656Y-105403700D01*
X113917100Y-105367595D01*
X113917100Y-95668394D01*
X113920655Y-95632299D01*
X113917100Y-95596204D01*
X113917100Y-95596195D01*
X113906465Y-95488215D01*
X113864437Y-95349667D01*
X113796187Y-95221980D01*
X113779614Y-95201787D01*
X113727353Y-95138106D01*
X113727350Y-95138103D01*
X113704337Y-95110062D01*
X113676297Y-95087050D01*
X113294150Y-94704903D01*
X113306833Y-94689449D01*
X113421511Y-94474901D01*
X113492130Y-94242102D01*
X113515975Y-94000000D01*
X113492130Y-93757898D01*
X113485873Y-93737273D01*
X120815001Y-86408146D01*
X120815000Y-106283646D01*
X120815000Y-106283646D01*
G37*
X120815000Y-106283646D02*
X120817852Y-106312600D01*
X120817831Y-106315573D01*
X120818764Y-106325092D01*
X120823824Y-106373233D01*
X120824912Y-106384282D01*
X120825024Y-106384650D01*
X120828964Y-106422140D01*
X120841455Y-106482990D01*
X120853082Y-106543942D01*
X120855845Y-106553096D01*
X120855847Y-106553102D01*
X120884702Y-106646317D01*
X120908754Y-106703533D01*
X120932020Y-106761119D01*
X120936510Y-106769564D01*
X120982923Y-106855401D01*
X121017638Y-106906867D01*
X121051636Y-106958821D01*
X121057680Y-106966232D01*
X121119882Y-107041421D01*
X121163930Y-107085162D01*
X121207369Y-107129522D01*
X121214739Y-107135618D01*
X121214744Y-107135623D01*
X121214750Y-107135627D01*
X121290360Y-107197294D01*
X121342041Y-107231632D01*
X121393306Y-107266733D01*
X121401719Y-107271282D01*
X121487880Y-107317094D01*
X121545296Y-107340758D01*
X121602339Y-107365208D01*
X121611475Y-107368036D01*
X121704893Y-107396241D01*
X121765813Y-107408303D01*
X121826530Y-107421209D01*
X121836042Y-107422209D01*
X121933159Y-107431731D01*
X121933163Y-107431731D01*
X121966353Y-107435000D01*
X126525553Y-107435000D01*
X120424756Y-113535797D01*
X120421511Y-113525099D01*
X120306833Y-113310551D01*
X120152502Y-113122498D01*
X119964449Y-112968167D01*
X119749901Y-112853489D01*
X119517102Y-112782870D01*
X119335665Y-112765000D01*
X118664335Y-112765000D01*
X118482898Y-112782870D01*
X118250099Y-112853489D01*
X118035551Y-112968167D01*
X117847498Y-113122498D01*
X117693167Y-113310551D01*
X117578489Y-113525099D01*
X117507870Y-113757898D01*
X117484025Y-114000000D01*
X117507870Y-114242102D01*
X117578489Y-114474901D01*
X117693167Y-114689449D01*
X117847498Y-114877502D01*
X117886111Y-114909191D01*
X117881613Y-114911595D01*
X117747038Y-115022038D01*
X117636595Y-115156613D01*
X117554528Y-115310149D01*
X117503992Y-115476745D01*
X117486928Y-115649999D01*
X117486928Y-116350001D01*
X117503992Y-116523255D01*
X117554528Y-116689851D01*
X117636595Y-116843387D01*
X117747038Y-116977962D01*
X117881613Y-117088405D01*
X118035149Y-117170472D01*
X118201745Y-117221008D01*
X118374999Y-117238072D01*
X119625001Y-117238072D01*
X119798255Y-117221008D01*
X119964851Y-117170472D01*
X120118387Y-117088405D01*
X120252962Y-116977962D01*
X120363405Y-116843387D01*
X120445472Y-116689851D01*
X120496008Y-116523255D01*
X120513072Y-116350001D01*
X120513072Y-115649999D01*
X120501988Y-115537458D01*
X128026347Y-108013100D01*
X129375653Y-108013100D01*
X116505808Y-120882946D01*
X116477763Y-120905962D01*
X116385914Y-121017880D01*
X116368849Y-121049807D01*
X116317664Y-121145567D01*
X116275635Y-121284115D01*
X116261444Y-121428200D01*
X116265001Y-121464315D01*
X116265000Y-128730550D01*
X116122498Y-128847498D01*
X116000000Y-128996763D01*
X115877502Y-128847498D01*
X115689448Y-128693167D01*
X115474900Y-128578489D01*
X115242101Y-128507870D01*
X115000000Y-128484025D01*
X114757898Y-128507870D01*
X114525099Y-128578489D01*
X114310551Y-128693167D01*
X114122498Y-128847498D01*
X113999519Y-128997349D01*
X113956307Y-128933275D01*
X113783474Y-128761922D01*
X113580533Y-128627579D01*
X113355282Y-128535409D01*
X113317609Y-128531538D01*
X113127000Y-128656269D01*
X113127000Y-129873000D01*
X113147000Y-129873000D01*
X113147000Y-130127000D01*
X113127000Y-130127000D01*
X113127000Y-130147000D01*
X112873000Y-130147000D01*
X112873000Y-130127000D01*
X112853000Y-130127000D01*
X112853000Y-129873000D01*
X112873000Y-129873000D01*
X112873000Y-128656269D01*
X112682391Y-128531538D01*
X112644718Y-128535409D01*
X112419467Y-128627579D01*
X112216526Y-128761922D01*
X112090967Y-128886406D01*
X112088405Y-128881613D01*
X111977962Y-128747038D01*
X111843387Y-128636595D01*
X111689851Y-128554528D01*
X111523255Y-128503992D01*
X111350001Y-128486928D01*
X110745614Y-128486928D01*
X110535000Y-128276315D01*
X110535000Y-120329544D01*
X110870997Y-120468718D01*
X111254495Y-120545000D01*
X111645505Y-120545000D01*
X112029003Y-120468718D01*
X112390250Y-120319085D01*
X112715364Y-120101851D01*
X112991851Y-119825364D01*
X113209085Y-119500250D01*
X113358718Y-119139003D01*
X113435000Y-118755505D01*
X113435000Y-118364495D01*
X113358718Y-117980997D01*
X113209085Y-117619750D01*
X112991851Y-117294636D01*
X112715364Y-117018149D01*
X112390250Y-116800915D01*
X112029003Y-116651282D01*
X111645505Y-116575000D01*
X111254495Y-116575000D01*
X110870997Y-116651282D01*
X110535000Y-116790456D01*
X110535000Y-109351302D01*
X110535409Y-109355282D01*
X110627579Y-109580533D01*
X110761922Y-109783474D01*
X110933275Y-109956307D01*
X111135054Y-110092390D01*
X111359504Y-110186493D01*
X111598000Y-110235000D01*
X111873000Y-110235000D01*
X111873000Y-109127000D01*
X112127000Y-109127000D01*
X112127000Y-110235000D01*
X112402000Y-110235000D01*
X112640496Y-110186493D01*
X112864946Y-110092390D01*
X113066725Y-109956307D01*
X113238078Y-109783474D01*
X113372421Y-109580533D01*
X113464591Y-109355282D01*
X113468462Y-109317609D01*
X113343731Y-109127000D01*
X112127000Y-109127000D01*
X111873000Y-109127000D01*
X111853000Y-109127000D01*
X111853000Y-108873000D01*
X111873000Y-108873000D01*
X111873000Y-108853000D01*
X112127000Y-108853000D01*
X112127000Y-108873000D01*
X113343731Y-108873000D01*
X113468462Y-108682391D01*
X113464591Y-108644718D01*
X113372421Y-108419467D01*
X113238078Y-108216526D01*
X113066725Y-108043693D01*
X113002652Y-108000481D01*
X113152502Y-107877502D01*
X113306833Y-107689449D01*
X113421511Y-107474901D01*
X113492130Y-107242102D01*
X113515975Y-107000000D01*
X113492130Y-106757898D01*
X113421511Y-106525099D01*
X113309572Y-106315675D01*
X113676293Y-105948954D01*
X113704338Y-105925938D01*
X113796187Y-105814020D01*
X113811074Y-105786168D01*
X113864437Y-105686334D01*
X113906465Y-105547785D01*
X113920656Y-105403700D01*
X113917100Y-105367595D01*
X113917100Y-95668394D01*
X113920655Y-95632299D01*
X113917100Y-95596204D01*
X113917100Y-95596195D01*
X113906465Y-95488215D01*
X113864437Y-95349667D01*
X113796187Y-95221980D01*
X113779614Y-95201787D01*
X113727353Y-95138106D01*
X113727350Y-95138103D01*
X113704337Y-95110062D01*
X113676297Y-95087050D01*
X113294150Y-94704903D01*
X113306833Y-94689449D01*
X113421511Y-94474901D01*
X113492130Y-94242102D01*
X113515975Y-94000000D01*
X113492130Y-93757898D01*
X113485873Y-93737273D01*
X120815001Y-86408146D01*
X120815000Y-106283646D01*
G36*
X112127000Y-95873000D02*
G01*
X112147000Y-95873000D01*
X112147000Y-96127000D01*
X112127000Y-96127000D01*
X112127000Y-97235000D01*
X112402000Y-97235000D01*
X112447100Y-97225827D01*
X112447100Y-99488415D01*
X111427454Y-98468769D01*
X111384081Y-98415919D01*
X111335000Y-98375639D01*
X111335000Y-97176219D01*
X111359504Y-97186493D01*
X111598000Y-97235000D01*
X111873000Y-97235000D01*
X111873000Y-96127000D01*
X111853000Y-96127000D01*
X111853000Y-95873000D01*
X111873000Y-95873000D01*
X111873000Y-95853000D01*
X112127000Y-95853000D01*
X112127000Y-95873000D01*
X112127000Y-95873000D01*
G37*
X112127000Y-95873000D02*
X112147000Y-95873000D01*
X112147000Y-96127000D01*
X112127000Y-96127000D01*
X112127000Y-97235000D01*
X112402000Y-97235000D01*
X112447100Y-97225827D01*
X112447100Y-99488415D01*
X111427454Y-98468769D01*
X111384081Y-98415919D01*
X111335000Y-98375639D01*
X111335000Y-97176219D01*
X111359504Y-97186493D01*
X111598000Y-97235000D01*
X111873000Y-97235000D01*
X111873000Y-96127000D01*
X111853000Y-96127000D01*
X111853000Y-95873000D01*
X111873000Y-95873000D01*
X111873000Y-95853000D01*
X112127000Y-95853000D01*
X112127000Y-95873000D01*
G36*
X150325739Y-67177915D02*
G01*
X150169014Y-67049294D01*
X149911034Y-66911401D01*
X149631111Y-66826487D01*
X149412950Y-66805000D01*
X149267050Y-66805000D01*
X149048889Y-66826487D01*
X148768966Y-66911401D01*
X148510986Y-67049294D01*
X148284866Y-67234866D01*
X148099294Y-67460986D01*
X148070000Y-67515791D01*
X148040706Y-67460986D01*
X147855134Y-67234866D01*
X147629014Y-67049294D01*
X147371034Y-66911401D01*
X147091111Y-66826487D01*
X146872950Y-66805000D01*
X146727050Y-66805000D01*
X146508889Y-66826487D01*
X146228966Y-66911401D01*
X145970986Y-67049294D01*
X145744866Y-67234866D01*
X145559294Y-67460986D01*
X145530000Y-67515791D01*
X145500706Y-67460986D01*
X145315134Y-67234866D01*
X145089014Y-67049294D01*
X144831034Y-66911401D01*
X144551111Y-66826487D01*
X144332950Y-66805000D01*
X144187050Y-66805000D01*
X143968889Y-66826487D01*
X143688966Y-66911401D01*
X143430986Y-67049294D01*
X143204866Y-67234866D01*
X143019294Y-67460986D01*
X142990000Y-67515791D01*
X142960706Y-67460986D01*
X142775134Y-67234866D01*
X142549014Y-67049294D01*
X142291034Y-66911401D01*
X142011111Y-66826487D01*
X141792950Y-66805000D01*
X141647050Y-66805000D01*
X141428889Y-66826487D01*
X141148966Y-66911401D01*
X140890986Y-67049294D01*
X140664866Y-67234866D01*
X140479294Y-67460986D01*
X140444799Y-67525523D01*
X140375178Y-67408645D01*
X140180269Y-67192412D01*
X139946920Y-67018359D01*
X139684099Y-66893175D01*
X139536890Y-66848524D01*
X139307000Y-66969845D01*
X139307000Y-68163000D01*
X139327000Y-68163000D01*
X139327000Y-68417000D01*
X139307000Y-68417000D01*
X139307000Y-68437000D01*
X139053000Y-68437000D01*
X139053000Y-68417000D01*
X139033000Y-68417000D01*
X139033000Y-68163000D01*
X139053000Y-68163000D01*
X139053000Y-66969845D01*
X138823110Y-66848524D01*
X138675901Y-66893175D01*
X138413080Y-67018359D01*
X138179731Y-67192412D01*
X137984822Y-67408645D01*
X137915201Y-67525523D01*
X137880706Y-67460986D01*
X137695134Y-67234866D01*
X137469014Y-67049294D01*
X137211034Y-66911401D01*
X136931111Y-66826487D01*
X136712950Y-66805000D01*
X136567050Y-66805000D01*
X136348889Y-66826487D01*
X136068966Y-66911401D01*
X135810986Y-67049294D01*
X135584866Y-67234866D01*
X135399294Y-67460986D01*
X135370000Y-67515791D01*
X135340706Y-67460986D01*
X135155134Y-67234866D01*
X134929014Y-67049294D01*
X134671034Y-66911401D01*
X134391111Y-66826487D01*
X134172950Y-66805000D01*
X134027050Y-66805000D01*
X133808889Y-66826487D01*
X133528966Y-66911401D01*
X133270986Y-67049294D01*
X133044866Y-67234866D01*
X132859294Y-67460986D01*
X132824799Y-67525523D01*
X132755178Y-67408645D01*
X132560269Y-67192412D01*
X132326920Y-67018359D01*
X132064099Y-66893175D01*
X131916890Y-66848524D01*
X131687000Y-66969845D01*
X131687000Y-68163000D01*
X131707000Y-68163000D01*
X131707000Y-68417000D01*
X131687000Y-68417000D01*
X131687000Y-68437000D01*
X131433000Y-68437000D01*
X131433000Y-68417000D01*
X131413000Y-68417000D01*
X131413000Y-68163000D01*
X131433000Y-68163000D01*
X131433000Y-66969845D01*
X131203110Y-66848524D01*
X131055901Y-66893175D01*
X130793080Y-67018359D01*
X130559731Y-67192412D01*
X130364822Y-67408645D01*
X130295201Y-67525523D01*
X130260706Y-67460986D01*
X130075134Y-67234866D01*
X129849014Y-67049294D01*
X129591034Y-66911401D01*
X129311111Y-66826487D01*
X129092950Y-66805000D01*
X128947050Y-66805000D01*
X128728889Y-66826487D01*
X128448966Y-66911401D01*
X128190986Y-67049294D01*
X127964866Y-67234866D01*
X127779294Y-67460986D01*
X127750000Y-67515791D01*
X127720706Y-67460986D01*
X127535134Y-67234866D01*
X127309014Y-67049294D01*
X127051034Y-66911401D01*
X126771111Y-66826487D01*
X126552950Y-66805000D01*
X126407050Y-66805000D01*
X126188889Y-66826487D01*
X125908966Y-66911401D01*
X125650986Y-67049294D01*
X125424866Y-67234866D01*
X125239294Y-67460986D01*
X125210000Y-67515791D01*
X125180706Y-67460986D01*
X124995134Y-67234866D01*
X124769014Y-67049294D01*
X124511034Y-66911401D01*
X124231111Y-66826487D01*
X124012950Y-66805000D01*
X123867050Y-66805000D01*
X123648889Y-66826487D01*
X123368966Y-66911401D01*
X123110986Y-67049294D01*
X122884866Y-67234866D01*
X122699294Y-67460986D01*
X122664799Y-67525523D01*
X122595178Y-67408645D01*
X122400269Y-67192412D01*
X122166920Y-67018359D01*
X121904099Y-66893175D01*
X121756890Y-66848524D01*
X121527000Y-66969845D01*
X121527000Y-68163000D01*
X121547000Y-68163000D01*
X121547000Y-68417000D01*
X121527000Y-68417000D01*
X121527000Y-68437000D01*
X121273000Y-68437000D01*
X121273000Y-68417000D01*
X121253000Y-68417000D01*
X121253000Y-68163000D01*
X121273000Y-68163000D01*
X121273000Y-66969845D01*
X121043110Y-66848524D01*
X120895901Y-66893175D01*
X120633080Y-67018359D01*
X120399731Y-67192412D01*
X120204822Y-67408645D01*
X120135201Y-67525523D01*
X120100706Y-67460986D01*
X119915134Y-67234866D01*
X119689014Y-67049294D01*
X119431034Y-66911401D01*
X119151111Y-66826487D01*
X118932950Y-66805000D01*
X118787050Y-66805000D01*
X118568889Y-66826487D01*
X118288966Y-66911401D01*
X118030986Y-67049294D01*
X117804866Y-67234866D01*
X117619294Y-67460986D01*
X117590000Y-67515791D01*
X117560706Y-67460986D01*
X117375134Y-67234866D01*
X117149014Y-67049294D01*
X116891034Y-66911401D01*
X116611111Y-66826487D01*
X116392950Y-66805000D01*
X116247050Y-66805000D01*
X116028889Y-66826487D01*
X115748966Y-66911401D01*
X115490986Y-67049294D01*
X115264866Y-67234866D01*
X115079294Y-67460986D01*
X114941401Y-67718966D01*
X114856487Y-67998889D01*
X114827815Y-68290000D01*
X114856487Y-68581111D01*
X114941401Y-68861034D01*
X115079294Y-69119014D01*
X115264866Y-69345134D01*
X115294687Y-69369607D01*
X115225820Y-69390498D01*
X115115506Y-69449463D01*
X115018815Y-69528815D01*
X114939463Y-69625506D01*
X114880498Y-69735820D01*
X114844188Y-69855518D01*
X114831928Y-69980000D01*
X114831928Y-71680000D01*
X114844188Y-71804482D01*
X114880498Y-71924180D01*
X114939463Y-72034494D01*
X115018815Y-72131185D01*
X115115506Y-72210537D01*
X115225820Y-72269502D01*
X115345518Y-72305812D01*
X115470000Y-72318072D01*
X117170000Y-72318072D01*
X117294482Y-72305812D01*
X117414180Y-72269502D01*
X117524494Y-72210537D01*
X117621185Y-72131185D01*
X117700537Y-72034494D01*
X117759502Y-71924180D01*
X117780393Y-71855313D01*
X117804866Y-71885134D01*
X118030986Y-72070706D01*
X118125000Y-72120958D01*
X118125001Y-78540677D01*
X118031425Y-78634253D01*
X117912685Y-78811960D01*
X117830896Y-79009417D01*
X117789200Y-79219037D01*
X117789200Y-79432763D01*
X117830896Y-79642383D01*
X117912685Y-79839840D01*
X118031425Y-80017547D01*
X118182553Y-80168675D01*
X118360260Y-80287415D01*
X118459452Y-80328502D01*
X118368554Y-80419400D01*
X118216137Y-80419400D01*
X118006517Y-80461096D01*
X117809060Y-80542885D01*
X117631353Y-80661625D01*
X117480225Y-80812753D01*
X117361485Y-80990460D01*
X117279696Y-81187917D01*
X117238000Y-81397537D01*
X117238000Y-81611263D01*
X117279696Y-81820883D01*
X117361485Y-82018340D01*
X117480225Y-82196047D01*
X117631353Y-82347175D01*
X117809060Y-82465915D01*
X118006517Y-82547704D01*
X118157681Y-82577772D01*
X113438447Y-87297007D01*
X113363405Y-87156613D01*
X113252962Y-87022038D01*
X113118387Y-86911595D01*
X112964851Y-86829528D01*
X112798255Y-86778992D01*
X112730935Y-86772362D01*
X112702526Y-86743965D01*
X112693960Y-86656994D01*
X112693955Y-86656978D01*
X112693953Y-86656956D01*
X112648622Y-86507536D01*
X112614764Y-86395920D01*
X112614756Y-86395905D01*
X112614750Y-86395885D01*
X112536588Y-86249663D01*
X112486157Y-86155312D01*
X112486144Y-86155297D01*
X112486136Y-86155281D01*
X112394523Y-86043656D01*
X112313081Y-85944419D01*
X112260219Y-85901036D01*
X111762351Y-85403195D01*
X113267364Y-83898418D01*
X113339345Y-83839345D01*
X113455928Y-83697289D01*
X113574820Y-83552441D01*
X113574855Y-83552375D01*
X113574903Y-83552317D01*
X113664932Y-83383885D01*
X113749881Y-83224986D01*
X113749902Y-83224918D01*
X113749939Y-83224848D01*
X113805246Y-83042524D01*
X113857696Y-82869670D01*
X113857703Y-82869595D01*
X113857725Y-82869524D01*
X113875894Y-82685053D01*
X113894120Y-82500149D01*
X113893926Y-82498176D01*
X113951185Y-82451185D01*
X114030537Y-82354494D01*
X114089502Y-82244180D01*
X114125812Y-82124482D01*
X114138072Y-82000000D01*
X114138072Y-79000000D01*
X114125812Y-78875518D01*
X114089502Y-78755820D01*
X114030537Y-78645506D01*
X113951185Y-78548815D01*
X113854494Y-78469463D01*
X113744180Y-78410498D01*
X113624482Y-78374188D01*
X113500000Y-78361928D01*
X110500000Y-78361928D01*
X110375518Y-78374188D01*
X110255820Y-78410498D01*
X110145506Y-78469463D01*
X110048815Y-78548815D01*
X109969463Y-78645506D01*
X109910498Y-78755820D01*
X109874188Y-78875518D01*
X109861928Y-79000000D01*
X109861928Y-81972154D01*
X108635400Y-83198490D01*
X108635400Y-76911653D01*
X110687952Y-76911653D01*
X110843962Y-77227214D01*
X111218745Y-77418020D01*
X111623551Y-77532044D01*
X112042824Y-77564902D01*
X112460451Y-77515334D01*
X112860383Y-77385243D01*
X113156038Y-77227214D01*
X113312048Y-76911653D01*
X112000000Y-75599605D01*
X110687952Y-76911653D01*
X108635400Y-76911653D01*
X108635400Y-75462824D01*
X109855098Y-75462824D01*
X109904666Y-75880451D01*
X110034757Y-76280383D01*
X110192786Y-76576038D01*
X110508347Y-76732048D01*
X111820395Y-75420000D01*
X112179605Y-75420000D01*
X113491653Y-76732048D01*
X113807214Y-76576038D01*
X113998020Y-76201255D01*
X114112044Y-75796449D01*
X114144902Y-75377176D01*
X114095334Y-74959549D01*
X113965243Y-74559617D01*
X113807214Y-74263962D01*
X113491653Y-74107952D01*
X112179605Y-75420000D01*
X111820395Y-75420000D01*
X110508347Y-74107952D01*
X110192786Y-74263962D01*
X110001980Y-74638745D01*
X109887956Y-75043551D01*
X109855098Y-75462824D01*
X108635400Y-75462824D01*
X108635400Y-73928347D01*
X110687952Y-73928347D01*
X112000000Y-75240395D01*
X113312048Y-73928347D01*
X113156038Y-73612786D01*
X112781255Y-73421980D01*
X112376449Y-73307956D01*
X111957176Y-73275098D01*
X111539549Y-73324666D01*
X111139617Y-73454757D01*
X110843962Y-73612786D01*
X110687952Y-73928347D01*
X108635400Y-73928347D01*
X108635400Y-69364495D01*
X109465000Y-69364495D01*
X109465000Y-69755505D01*
X109541282Y-70139003D01*
X109690915Y-70500250D01*
X109908149Y-70825364D01*
X110184636Y-71101851D01*
X110509750Y-71319085D01*
X110870997Y-71468718D01*
X111254495Y-71545000D01*
X111645505Y-71545000D01*
X112029003Y-71468718D01*
X112390250Y-71319085D01*
X112715364Y-71101851D01*
X112991851Y-70825364D01*
X113209085Y-70500250D01*
X113358718Y-70139003D01*
X113435000Y-69755505D01*
X113435000Y-69364495D01*
X113358718Y-68980997D01*
X113209085Y-68619750D01*
X112991851Y-68294636D01*
X112715364Y-68018149D01*
X112390250Y-67800915D01*
X112029003Y-67651282D01*
X111645505Y-67575000D01*
X111254495Y-67575000D01*
X110870997Y-67651282D01*
X110509750Y-67800915D01*
X110184636Y-68018149D01*
X109908149Y-68294636D01*
X109690915Y-68619750D01*
X109541282Y-68980997D01*
X109465000Y-69364495D01*
X108635400Y-69364495D01*
X108635400Y-69093505D01*
X108682712Y-68610984D01*
X108813114Y-68179070D01*
X109024924Y-67780715D01*
X109310075Y-67431086D01*
X109657703Y-67143503D01*
X110054577Y-66928914D01*
X110485561Y-66795502D01*
X110966076Y-66744998D01*
X150762153Y-66741501D01*
X150325739Y-67177915D01*
X150325739Y-67177915D01*
G37*
X150325739Y-67177915D02*
X150169014Y-67049294D01*
X149911034Y-66911401D01*
X149631111Y-66826487D01*
X149412950Y-66805000D01*
X149267050Y-66805000D01*
X149048889Y-66826487D01*
X148768966Y-66911401D01*
X148510986Y-67049294D01*
X148284866Y-67234866D01*
X148099294Y-67460986D01*
X148070000Y-67515791D01*
X148040706Y-67460986D01*
X147855134Y-67234866D01*
X147629014Y-67049294D01*
X147371034Y-66911401D01*
X147091111Y-66826487D01*
X146872950Y-66805000D01*
X146727050Y-66805000D01*
X146508889Y-66826487D01*
X146228966Y-66911401D01*
X145970986Y-67049294D01*
X145744866Y-67234866D01*
X145559294Y-67460986D01*
X145530000Y-67515791D01*
X145500706Y-67460986D01*
X145315134Y-67234866D01*
X145089014Y-67049294D01*
X144831034Y-66911401D01*
X144551111Y-66826487D01*
X144332950Y-66805000D01*
X144187050Y-66805000D01*
X143968889Y-66826487D01*
X143688966Y-66911401D01*
X143430986Y-67049294D01*
X143204866Y-67234866D01*
X143019294Y-67460986D01*
X142990000Y-67515791D01*
X142960706Y-67460986D01*
X142775134Y-67234866D01*
X142549014Y-67049294D01*
X142291034Y-66911401D01*
X142011111Y-66826487D01*
X141792950Y-66805000D01*
X141647050Y-66805000D01*
X141428889Y-66826487D01*
X141148966Y-66911401D01*
X140890986Y-67049294D01*
X140664866Y-67234866D01*
X140479294Y-67460986D01*
X140444799Y-67525523D01*
X140375178Y-67408645D01*
X140180269Y-67192412D01*
X139946920Y-67018359D01*
X139684099Y-66893175D01*
X139536890Y-66848524D01*
X139307000Y-66969845D01*
X139307000Y-68163000D01*
X139327000Y-68163000D01*
X139327000Y-68417000D01*
X139307000Y-68417000D01*
X139307000Y-68437000D01*
X139053000Y-68437000D01*
X139053000Y-68417000D01*
X139033000Y-68417000D01*
X139033000Y-68163000D01*
X139053000Y-68163000D01*
X139053000Y-66969845D01*
X138823110Y-66848524D01*
X138675901Y-66893175D01*
X138413080Y-67018359D01*
X138179731Y-67192412D01*
X137984822Y-67408645D01*
X137915201Y-67525523D01*
X137880706Y-67460986D01*
X137695134Y-67234866D01*
X137469014Y-67049294D01*
X137211034Y-66911401D01*
X136931111Y-66826487D01*
X136712950Y-66805000D01*
X136567050Y-66805000D01*
X136348889Y-66826487D01*
X136068966Y-66911401D01*
X135810986Y-67049294D01*
X135584866Y-67234866D01*
X135399294Y-67460986D01*
X135370000Y-67515791D01*
X135340706Y-67460986D01*
X135155134Y-67234866D01*
X134929014Y-67049294D01*
X134671034Y-66911401D01*
X134391111Y-66826487D01*
X134172950Y-66805000D01*
X134027050Y-66805000D01*
X133808889Y-66826487D01*
X133528966Y-66911401D01*
X133270986Y-67049294D01*
X133044866Y-67234866D01*
X132859294Y-67460986D01*
X132824799Y-67525523D01*
X132755178Y-67408645D01*
X132560269Y-67192412D01*
X132326920Y-67018359D01*
X132064099Y-66893175D01*
X131916890Y-66848524D01*
X131687000Y-66969845D01*
X131687000Y-68163000D01*
X131707000Y-68163000D01*
X131707000Y-68417000D01*
X131687000Y-68417000D01*
X131687000Y-68437000D01*
X131433000Y-68437000D01*
X131433000Y-68417000D01*
X131413000Y-68417000D01*
X131413000Y-68163000D01*
X131433000Y-68163000D01*
X131433000Y-66969845D01*
X131203110Y-66848524D01*
X131055901Y-66893175D01*
X130793080Y-67018359D01*
X130559731Y-67192412D01*
X130364822Y-67408645D01*
X130295201Y-67525523D01*
X130260706Y-67460986D01*
X130075134Y-67234866D01*
X129849014Y-67049294D01*
X129591034Y-66911401D01*
X129311111Y-66826487D01*
X129092950Y-66805000D01*
X128947050Y-66805000D01*
X128728889Y-66826487D01*
X128448966Y-66911401D01*
X128190986Y-67049294D01*
X127964866Y-67234866D01*
X127779294Y-67460986D01*
X127750000Y-67515791D01*
X127720706Y-67460986D01*
X127535134Y-67234866D01*
X127309014Y-67049294D01*
X127051034Y-66911401D01*
X126771111Y-66826487D01*
X126552950Y-66805000D01*
X126407050Y-66805000D01*
X126188889Y-66826487D01*
X125908966Y-66911401D01*
X125650986Y-67049294D01*
X125424866Y-67234866D01*
X125239294Y-67460986D01*
X125210000Y-67515791D01*
X125180706Y-67460986D01*
X124995134Y-67234866D01*
X124769014Y-67049294D01*
X124511034Y-66911401D01*
X124231111Y-66826487D01*
X124012950Y-66805000D01*
X123867050Y-66805000D01*
X123648889Y-66826487D01*
X123368966Y-66911401D01*
X123110986Y-67049294D01*
X122884866Y-67234866D01*
X122699294Y-67460986D01*
X122664799Y-67525523D01*
X122595178Y-67408645D01*
X122400269Y-67192412D01*
X122166920Y-67018359D01*
X121904099Y-66893175D01*
X121756890Y-66848524D01*
X121527000Y-66969845D01*
X121527000Y-68163000D01*
X121547000Y-68163000D01*
X121547000Y-68417000D01*
X121527000Y-68417000D01*
X121527000Y-68437000D01*
X121273000Y-68437000D01*
X121273000Y-68417000D01*
X121253000Y-68417000D01*
X121253000Y-68163000D01*
X121273000Y-68163000D01*
X121273000Y-66969845D01*
X121043110Y-66848524D01*
X120895901Y-66893175D01*
X120633080Y-67018359D01*
X120399731Y-67192412D01*
X120204822Y-67408645D01*
X120135201Y-67525523D01*
X120100706Y-67460986D01*
X119915134Y-67234866D01*
X119689014Y-67049294D01*
X119431034Y-66911401D01*
X119151111Y-66826487D01*
X118932950Y-66805000D01*
X118787050Y-66805000D01*
X118568889Y-66826487D01*
X118288966Y-66911401D01*
X118030986Y-67049294D01*
X117804866Y-67234866D01*
X117619294Y-67460986D01*
X117590000Y-67515791D01*
X117560706Y-67460986D01*
X117375134Y-67234866D01*
X117149014Y-67049294D01*
X116891034Y-66911401D01*
X116611111Y-66826487D01*
X116392950Y-66805000D01*
X116247050Y-66805000D01*
X116028889Y-66826487D01*
X115748966Y-66911401D01*
X115490986Y-67049294D01*
X115264866Y-67234866D01*
X115079294Y-67460986D01*
X114941401Y-67718966D01*
X114856487Y-67998889D01*
X114827815Y-68290000D01*
X114856487Y-68581111D01*
X114941401Y-68861034D01*
X115079294Y-69119014D01*
X115264866Y-69345134D01*
X115294687Y-69369607D01*
X115225820Y-69390498D01*
X115115506Y-69449463D01*
X115018815Y-69528815D01*
X114939463Y-69625506D01*
X114880498Y-69735820D01*
X114844188Y-69855518D01*
X114831928Y-69980000D01*
X114831928Y-71680000D01*
X114844188Y-71804482D01*
X114880498Y-71924180D01*
X114939463Y-72034494D01*
X115018815Y-72131185D01*
X115115506Y-72210537D01*
X115225820Y-72269502D01*
X115345518Y-72305812D01*
X115470000Y-72318072D01*
X117170000Y-72318072D01*
X117294482Y-72305812D01*
X117414180Y-72269502D01*
X117524494Y-72210537D01*
X117621185Y-72131185D01*
X117700537Y-72034494D01*
X117759502Y-71924180D01*
X117780393Y-71855313D01*
X117804866Y-71885134D01*
X118030986Y-72070706D01*
X118125000Y-72120958D01*
X118125001Y-78540677D01*
X118031425Y-78634253D01*
X117912685Y-78811960D01*
X117830896Y-79009417D01*
X117789200Y-79219037D01*
X117789200Y-79432763D01*
X117830896Y-79642383D01*
X117912685Y-79839840D01*
X118031425Y-80017547D01*
X118182553Y-80168675D01*
X118360260Y-80287415D01*
X118459452Y-80328502D01*
X118368554Y-80419400D01*
X118216137Y-80419400D01*
X118006517Y-80461096D01*
X117809060Y-80542885D01*
X117631353Y-80661625D01*
X117480225Y-80812753D01*
X117361485Y-80990460D01*
X117279696Y-81187917D01*
X117238000Y-81397537D01*
X117238000Y-81611263D01*
X117279696Y-81820883D01*
X117361485Y-82018340D01*
X117480225Y-82196047D01*
X117631353Y-82347175D01*
X117809060Y-82465915D01*
X118006517Y-82547704D01*
X118157681Y-82577772D01*
X113438447Y-87297007D01*
X113363405Y-87156613D01*
X113252962Y-87022038D01*
X113118387Y-86911595D01*
X112964851Y-86829528D01*
X112798255Y-86778992D01*
X112730935Y-86772362D01*
X112702526Y-86743965D01*
X112693960Y-86656994D01*
X112693955Y-86656978D01*
X112693953Y-86656956D01*
X112648622Y-86507536D01*
X112614764Y-86395920D01*
X112614756Y-86395905D01*
X112614750Y-86395885D01*
X112536588Y-86249663D01*
X112486157Y-86155312D01*
X112486144Y-86155297D01*
X112486136Y-86155281D01*
X112394523Y-86043656D01*
X112313081Y-85944419D01*
X112260219Y-85901036D01*
X111762351Y-85403195D01*
X113267364Y-83898418D01*
X113339345Y-83839345D01*
X113455928Y-83697289D01*
X113574820Y-83552441D01*
X113574855Y-83552375D01*
X113574903Y-83552317D01*
X113664932Y-83383885D01*
X113749881Y-83224986D01*
X113749902Y-83224918D01*
X113749939Y-83224848D01*
X113805246Y-83042524D01*
X113857696Y-82869670D01*
X113857703Y-82869595D01*
X113857725Y-82869524D01*
X113875894Y-82685053D01*
X113894120Y-82500149D01*
X113893926Y-82498176D01*
X113951185Y-82451185D01*
X114030537Y-82354494D01*
X114089502Y-82244180D01*
X114125812Y-82124482D01*
X114138072Y-82000000D01*
X114138072Y-79000000D01*
X114125812Y-78875518D01*
X114089502Y-78755820D01*
X114030537Y-78645506D01*
X113951185Y-78548815D01*
X113854494Y-78469463D01*
X113744180Y-78410498D01*
X113624482Y-78374188D01*
X113500000Y-78361928D01*
X110500000Y-78361928D01*
X110375518Y-78374188D01*
X110255820Y-78410498D01*
X110145506Y-78469463D01*
X110048815Y-78548815D01*
X109969463Y-78645506D01*
X109910498Y-78755820D01*
X109874188Y-78875518D01*
X109861928Y-79000000D01*
X109861928Y-81972154D01*
X108635400Y-83198490D01*
X108635400Y-76911653D01*
X110687952Y-76911653D01*
X110843962Y-77227214D01*
X111218745Y-77418020D01*
X111623551Y-77532044D01*
X112042824Y-77564902D01*
X112460451Y-77515334D01*
X112860383Y-77385243D01*
X113156038Y-77227214D01*
X113312048Y-76911653D01*
X112000000Y-75599605D01*
X110687952Y-76911653D01*
X108635400Y-76911653D01*
X108635400Y-75462824D01*
X109855098Y-75462824D01*
X109904666Y-75880451D01*
X110034757Y-76280383D01*
X110192786Y-76576038D01*
X110508347Y-76732048D01*
X111820395Y-75420000D01*
X112179605Y-75420000D01*
X113491653Y-76732048D01*
X113807214Y-76576038D01*
X113998020Y-76201255D01*
X114112044Y-75796449D01*
X114144902Y-75377176D01*
X114095334Y-74959549D01*
X113965243Y-74559617D01*
X113807214Y-74263962D01*
X113491653Y-74107952D01*
X112179605Y-75420000D01*
X111820395Y-75420000D01*
X110508347Y-74107952D01*
X110192786Y-74263962D01*
X110001980Y-74638745D01*
X109887956Y-75043551D01*
X109855098Y-75462824D01*
X108635400Y-75462824D01*
X108635400Y-73928347D01*
X110687952Y-73928347D01*
X112000000Y-75240395D01*
X113312048Y-73928347D01*
X113156038Y-73612786D01*
X112781255Y-73421980D01*
X112376449Y-73307956D01*
X111957176Y-73275098D01*
X111539549Y-73324666D01*
X111139617Y-73454757D01*
X110843962Y-73612786D01*
X110687952Y-73928347D01*
X108635400Y-73928347D01*
X108635400Y-69364495D01*
X109465000Y-69364495D01*
X109465000Y-69755505D01*
X109541282Y-70139003D01*
X109690915Y-70500250D01*
X109908149Y-70825364D01*
X110184636Y-71101851D01*
X110509750Y-71319085D01*
X110870997Y-71468718D01*
X111254495Y-71545000D01*
X111645505Y-71545000D01*
X112029003Y-71468718D01*
X112390250Y-71319085D01*
X112715364Y-71101851D01*
X112991851Y-70825364D01*
X113209085Y-70500250D01*
X113358718Y-70139003D01*
X113435000Y-69755505D01*
X113435000Y-69364495D01*
X113358718Y-68980997D01*
X113209085Y-68619750D01*
X112991851Y-68294636D01*
X112715364Y-68018149D01*
X112390250Y-67800915D01*
X112029003Y-67651282D01*
X111645505Y-67575000D01*
X111254495Y-67575000D01*
X110870997Y-67651282D01*
X110509750Y-67800915D01*
X110184636Y-68018149D01*
X109908149Y-68294636D01*
X109690915Y-68619750D01*
X109541282Y-68980997D01*
X109465000Y-69364495D01*
X108635400Y-69364495D01*
X108635400Y-69093505D01*
X108682712Y-68610984D01*
X108813114Y-68179070D01*
X109024924Y-67780715D01*
X109310075Y-67431086D01*
X109657703Y-67143503D01*
X110054577Y-66928914D01*
X110485561Y-66795502D01*
X110966076Y-66744998D01*
X150762153Y-66741501D01*
X150325739Y-67177915D01*
G36*
X146927000Y-70703000D02*
G01*
X146947000Y-70703000D01*
X146947000Y-70957000D01*
X146927000Y-70957000D01*
X146927000Y-70977000D01*
X146673000Y-70977000D01*
X146673000Y-70957000D01*
X146653000Y-70957000D01*
X146653000Y-70703000D01*
X146673000Y-70703000D01*
X146673000Y-70683000D01*
X146927000Y-70683000D01*
X146927000Y-70703000D01*
X146927000Y-70703000D01*
G37*
X146927000Y-70703000D02*
X146947000Y-70703000D01*
X146947000Y-70957000D01*
X146927000Y-70957000D01*
X146927000Y-70977000D01*
X146673000Y-70977000D01*
X146673000Y-70957000D01*
X146653000Y-70957000D01*
X146653000Y-70703000D01*
X146673000Y-70703000D01*
X146673000Y-70683000D01*
X146927000Y-70683000D01*
X146927000Y-70703000D01*
G36*
X126607000Y-70703000D02*
G01*
X126627000Y-70703000D01*
X126627000Y-70957000D01*
X126607000Y-70957000D01*
X126607000Y-70977000D01*
X126353000Y-70977000D01*
X126353000Y-70957000D01*
X126333000Y-70957000D01*
X126333000Y-70703000D01*
X126353000Y-70703000D01*
X126353000Y-70683000D01*
X126607000Y-70683000D01*
X126607000Y-70703000D01*
X126607000Y-70703000D01*
G37*
X126607000Y-70703000D02*
X126627000Y-70703000D01*
X126627000Y-70957000D01*
X126607000Y-70957000D01*
X126607000Y-70977000D01*
X126353000Y-70977000D01*
X126353000Y-70957000D01*
X126333000Y-70957000D01*
X126333000Y-70703000D01*
X126353000Y-70703000D01*
X126353000Y-70683000D01*
X126607000Y-70683000D01*
X126607000Y-70703000D01*
G36*
X157087000Y-68163000D02*
G01*
X157107000Y-68163000D01*
X157107000Y-68417000D01*
X157087000Y-68417000D01*
X157087000Y-68437000D01*
X156833000Y-68437000D01*
X156833000Y-68417000D01*
X156813000Y-68417000D01*
X156813000Y-68163000D01*
X156833000Y-68163000D01*
X156833000Y-68143000D01*
X157087000Y-68143000D01*
X157087000Y-68163000D01*
X157087000Y-68163000D01*
G37*
X157087000Y-68163000D02*
X157107000Y-68163000D01*
X157107000Y-68417000D01*
X157087000Y-68417000D01*
X157087000Y-68437000D01*
X156833000Y-68437000D01*
X156833000Y-68417000D01*
X156813000Y-68417000D01*
X156813000Y-68163000D01*
X156833000Y-68163000D01*
X156833000Y-68143000D01*
X157087000Y-68143000D01*
X157087000Y-68163000D01*
G36*
X152007000Y-68163000D02*
G01*
X152027000Y-68163000D01*
X152027000Y-68417000D01*
X152007000Y-68417000D01*
X152007000Y-68437000D01*
X151753000Y-68437000D01*
X151753000Y-68417000D01*
X151733000Y-68417000D01*
X151733000Y-68163000D01*
X151753000Y-68163000D01*
X151753000Y-68143000D01*
X152007000Y-68143000D01*
X152007000Y-68163000D01*
X152007000Y-68163000D01*
G37*
X152007000Y-68163000D02*
X152027000Y-68163000D01*
X152027000Y-68417000D01*
X152007000Y-68417000D01*
X152007000Y-68437000D01*
X151753000Y-68437000D01*
X151753000Y-68417000D01*
X151733000Y-68417000D01*
X151733000Y-68163000D01*
X151753000Y-68163000D01*
X151753000Y-68143000D01*
X152007000Y-68143000D01*
X152007000Y-68163000D01*
M02*
