M48
; DRILL file {KiCad (5.1.0)-1} date 21/06/2020 15:24:13
; FORMAT={3:3/ absolute / metric / suppress leading zeros}
; #@! TF.CreationDate,2020-06-21T15:24:13+01:00
; #@! TF.GenerationSoftware,Kicad,Pcbnew,(5.1.0)-1
FMAT,2
METRIC,TZ
T1C0.600
T2C0.750
T3C0.940
T4C1.000
T5C1.520
T6C1.620
T7C2.700
T8C3.300
%
G90
G05
T1
X118323Y-81504
X118874Y-79326
X120432Y-85303
X132603Y-116176
X133359Y-109440
X136186Y-117251
X136618Y-118371
X136992Y-115524
X138479Y-114026
X142576Y-112145
X146427Y-111114
X148366Y-116302
X150250Y-116629
X154791Y-81112
X156068Y-83970
X157222Y-88715
X159390Y-116726
X159533Y-115580
X161033Y-89467
X161167Y-86906
X162025Y-96657
X162035Y-86192
X163000Y-91500
X163000Y-97000
X163163Y-109800
X163525Y-107103
X163629Y-104492
X164500Y-113500
X164750Y-91500
X164750Y-94250
X165000Y-103250
X165000Y-107250
X165750Y-78250
X166000Y-103250
X166000Y-107250
X166500Y-91500
X166500Y-94250
X168000Y-83000
X168000Y-94250
X168000Y-107250
X168668Y-92502
X170000Y-73000
X172000Y-86000
X172300Y-95100
X173200Y-96400
X173250Y-111000
X173500Y-89250
X174500Y-119500
X174750Y-80500
X175500Y-110000
X175500Y-125000
X178000Y-98800
X178400Y-104600
X178500Y-82250
X178750Y-92500
X179250Y-74000
X179750Y-76000
X180000Y-124750
X180000Y-127500
X180500Y-90000
X180500Y-108000
X180500Y-111250
T2
X159000Y-130000
X161000Y-130000
X163000Y-130000
X112000Y-101000
X112000Y-103000
X112000Y-105000
X112000Y-107000
X112000Y-109000
X122000Y-130000
X124000Y-130000
X126000Y-130000
X128000Y-130000
X168000Y-130000
X170000Y-130000
X172000Y-130000
X148000Y-130000
X150000Y-130000
X152000Y-130000
X154000Y-130000
X112000Y-88000
X112000Y-90000
X112000Y-92000
X112000Y-94000
X112000Y-96000
X133000Y-130000
X135000Y-130000
X137000Y-130000
X139000Y-130000
X141000Y-130000
X143000Y-130000
X119000Y-121000
X119000Y-123000
X111000Y-130000
X113000Y-130000
X115000Y-130000
X117000Y-130000
X119000Y-114000
X119000Y-116000
T3
X182220Y-107020
X182220Y-109060
X182220Y-111100
X182220Y-113140
X182220Y-121300
X182220Y-123340
X182220Y-125380
X182220Y-127420
X184000Y-106000
X184000Y-108040
X184000Y-110080
X184000Y-112120
X184000Y-120280
X184000Y-122320
X184000Y-124360
X184000Y-126400
X182220Y-73020
X182220Y-75060
X182220Y-77100
X182220Y-79140
X182220Y-87300
X182220Y-89340
X182220Y-91380
X182220Y-93420
X184000Y-72000
X184000Y-74040
X184000Y-76080
X184000Y-78120
X184000Y-86280
X184000Y-88320
X184000Y-90360
X184000Y-92400
T4
X116320Y-68290
X116320Y-70830
X118860Y-68290
X118860Y-70830
X121400Y-68290
X121400Y-70830
X123940Y-68290
X123940Y-70830
X126480Y-68290
X126480Y-70830
X129020Y-68290
X129020Y-70830
X131560Y-68290
X131560Y-70830
X134100Y-68290
X134100Y-70830
X136640Y-68290
X136640Y-70830
X139180Y-68290
X139180Y-70830
X141720Y-68290
X141720Y-70830
X144260Y-68290
X144260Y-70830
X146800Y-68290
X146800Y-70830
X149340Y-68290
X149340Y-70830
X151880Y-68290
X151880Y-70830
X154420Y-68290
X154420Y-70830
X156960Y-68290
X156960Y-70830
X159500Y-68290
X159500Y-70830
X162040Y-68290
X162040Y-70830
X164580Y-68290
X164580Y-70830
T5
X112000Y-75420
X112000Y-80500
T6
X183110Y-102175
X183110Y-131245
X183110Y-68175
X183110Y-97245
T7
X111450Y-118560
X169450Y-118560
X111450Y-69560
X169450Y-69560
T8
X186540Y-103955
X186540Y-129465
X186540Y-69955
X186540Y-95465
T0
M30
