G04 #@! TF.GenerationSoftware,KiCad,Pcbnew,(5.1.0)-1*
G04 #@! TF.CreationDate,2020-06-21T15:24:11+01:00*
G04 #@! TF.ProjectId,Top Board,546f7020-426f-4617-9264-2e6b69636164,-*
G04 #@! TF.SameCoordinates,Original*
G04 #@! TF.FileFunction,Soldermask,Bot*
G04 #@! TF.FilePolarity,Negative*
%FSLAX46Y46*%
G04 Gerber Fmt 4.6, Leading zero omitted, Abs format (unit mm)*
G04 Created by KiCad (PCBNEW (5.1.0)-1) date 2020-06-21 15:24:11*
%MOMM*%
%LPD*%
G04 APERTURE LIST*
%ADD10C,2.430000*%
%ADD11C,1.462000*%
%ADD12R,0.225000X0.663000*%
%ADD13R,0.225000X0.563000*%
%ADD14R,0.563000X0.225000*%
%ADD15R,0.663000X0.225000*%
%ADD16R,3.000000X3.000000*%
%ADD17C,3.000000*%
%ADD18R,1.950000X0.590000*%
%ADD19C,0.150000*%
%ADD20C,1.200000*%
%ADD21O,1.200000X1.750000*%
%ADD22C,2.700000*%
%ADD23R,1.700000X1.700000*%
%ADD24O,1.700000X1.700000*%
%ADD25C,0.950000*%
%ADD26C,1.150000*%
%ADD27R,1.700000X0.480000*%
%ADD28R,0.900000X0.900000*%
%ADD29R,2.200000X0.600000*%
%ADD30R,2.600000X1.800000*%
%ADD31O,1.750000X1.200000*%
G04 APERTURE END LIST*
D10*
X183110000Y-102175000D03*
X183110000Y-131245000D03*
D11*
X182220000Y-127420000D03*
X184000000Y-126400000D03*
X182220000Y-125380000D03*
X184000000Y-124360000D03*
X182220000Y-123340000D03*
X184000000Y-122320000D03*
X182220000Y-121300000D03*
X184000000Y-120280000D03*
X182220000Y-113140000D03*
X184000000Y-112120000D03*
X182220000Y-111100000D03*
X184000000Y-110080000D03*
X182220000Y-109060000D03*
X184000000Y-108040000D03*
X182220000Y-107020000D03*
X184000000Y-106000000D03*
D12*
X166500000Y-86819000D03*
D13*
X166100000Y-86869000D03*
X165700000Y-86869000D03*
X165300000Y-86869000D03*
X164900000Y-86869000D03*
X164500000Y-86869000D03*
X164500000Y-84631000D03*
X164900000Y-84631000D03*
X165300000Y-84631000D03*
X165700000Y-84631000D03*
X166100000Y-84631000D03*
X166500000Y-84631000D03*
D14*
X163931000Y-85950000D03*
X163931000Y-86350000D03*
X163931000Y-86750000D03*
X163931000Y-85550000D03*
X163931000Y-85150000D03*
X163931000Y-84750000D03*
X167068000Y-84750000D03*
X167068000Y-85150000D03*
X167068000Y-85550000D03*
X167068000Y-85950000D03*
X167068000Y-86350000D03*
X167068000Y-86750000D03*
D15*
X169181000Y-100000000D03*
D14*
X169131000Y-99600000D03*
X169131000Y-99200000D03*
X169131000Y-98800000D03*
X169131000Y-98400000D03*
X169131000Y-98000000D03*
X171369000Y-98000000D03*
X171369000Y-98400000D03*
X171369000Y-98800000D03*
X171369000Y-99200000D03*
X171369000Y-99600000D03*
X171369000Y-100000000D03*
D13*
X170050000Y-97431000D03*
X169650000Y-97431000D03*
X169250000Y-97431000D03*
X170450000Y-97431000D03*
X170850000Y-97431000D03*
X171250000Y-97431000D03*
X171250000Y-100568000D03*
X170850000Y-100568000D03*
X170450000Y-100568000D03*
X170050000Y-100568000D03*
X169650000Y-100568000D03*
X169250000Y-100568000D03*
D11*
X184000000Y-72000000D03*
X182220000Y-73020000D03*
X184000000Y-74040000D03*
X182220000Y-75060000D03*
X184000000Y-76080000D03*
X182220000Y-77100000D03*
X184000000Y-78120000D03*
X182220000Y-79140000D03*
X184000000Y-86280000D03*
X182220000Y-87300000D03*
X184000000Y-88320000D03*
X182220000Y-89340000D03*
X184000000Y-90360000D03*
X182220000Y-91380000D03*
X184000000Y-92400000D03*
X182220000Y-93420000D03*
D10*
X183110000Y-97245000D03*
X183110000Y-68175000D03*
D16*
X112000000Y-80500000D03*
D17*
X112000000Y-75420000D03*
D18*
X154020000Y-85055000D03*
X154020000Y-86325000D03*
X154020000Y-87595000D03*
X154020000Y-88865000D03*
X154020000Y-90135000D03*
X154020000Y-91405000D03*
X154020000Y-92675000D03*
X154020000Y-93945000D03*
X158980000Y-93945000D03*
X158980000Y-92675000D03*
X158980000Y-91405000D03*
X158980000Y-90135000D03*
X158980000Y-88865000D03*
X158980000Y-87595000D03*
X158980000Y-86325000D03*
X158980000Y-85055000D03*
D19*
G36*
X133374505Y-129126204D02*
G01*
X133398773Y-129129804D01*
X133422572Y-129135765D01*
X133445671Y-129144030D01*
X133467850Y-129154520D01*
X133488893Y-129167132D01*
X133508599Y-129181747D01*
X133526777Y-129198223D01*
X133543253Y-129216401D01*
X133557868Y-129236107D01*
X133570480Y-129257150D01*
X133580970Y-129279329D01*
X133589235Y-129302428D01*
X133595196Y-129326227D01*
X133598796Y-129350495D01*
X133600000Y-129374999D01*
X133600000Y-130625001D01*
X133598796Y-130649505D01*
X133595196Y-130673773D01*
X133589235Y-130697572D01*
X133580970Y-130720671D01*
X133570480Y-130742850D01*
X133557868Y-130763893D01*
X133543253Y-130783599D01*
X133526777Y-130801777D01*
X133508599Y-130818253D01*
X133488893Y-130832868D01*
X133467850Y-130845480D01*
X133445671Y-130855970D01*
X133422572Y-130864235D01*
X133398773Y-130870196D01*
X133374505Y-130873796D01*
X133350001Y-130875000D01*
X132649999Y-130875000D01*
X132625495Y-130873796D01*
X132601227Y-130870196D01*
X132577428Y-130864235D01*
X132554329Y-130855970D01*
X132532150Y-130845480D01*
X132511107Y-130832868D01*
X132491401Y-130818253D01*
X132473223Y-130801777D01*
X132456747Y-130783599D01*
X132442132Y-130763893D01*
X132429520Y-130742850D01*
X132419030Y-130720671D01*
X132410765Y-130697572D01*
X132404804Y-130673773D01*
X132401204Y-130649505D01*
X132400000Y-130625001D01*
X132400000Y-129374999D01*
X132401204Y-129350495D01*
X132404804Y-129326227D01*
X132410765Y-129302428D01*
X132419030Y-129279329D01*
X132429520Y-129257150D01*
X132442132Y-129236107D01*
X132456747Y-129216401D01*
X132473223Y-129198223D01*
X132491401Y-129181747D01*
X132511107Y-129167132D01*
X132532150Y-129154520D01*
X132554329Y-129144030D01*
X132577428Y-129135765D01*
X132601227Y-129129804D01*
X132625495Y-129126204D01*
X132649999Y-129125000D01*
X133350001Y-129125000D01*
X133374505Y-129126204D01*
X133374505Y-129126204D01*
G37*
D20*
X133000000Y-130000000D03*
D21*
X135000000Y-130000000D03*
X137000000Y-130000000D03*
X139000000Y-130000000D03*
X141000000Y-130000000D03*
X143000000Y-130000000D03*
D22*
X111450000Y-69560000D03*
D23*
X116320000Y-70830000D03*
D24*
X116320000Y-68290000D03*
X118860000Y-70830000D03*
X118860000Y-68290000D03*
X121400000Y-70830000D03*
X121400000Y-68290000D03*
X123940000Y-70830000D03*
X123940000Y-68290000D03*
X126480000Y-70830000D03*
X126480000Y-68290000D03*
X129020000Y-70830000D03*
X129020000Y-68290000D03*
X131560000Y-70830000D03*
X131560000Y-68290000D03*
X134100000Y-70830000D03*
X134100000Y-68290000D03*
X136640000Y-70830000D03*
X136640000Y-68290000D03*
X139180000Y-70830000D03*
X139180000Y-68290000D03*
X141720000Y-70830000D03*
X141720000Y-68290000D03*
X144260000Y-70830000D03*
X144260000Y-68290000D03*
X146800000Y-70830000D03*
X146800000Y-68290000D03*
X149340000Y-70830000D03*
X149340000Y-68290000D03*
X151880000Y-70830000D03*
X151880000Y-68290000D03*
X154420000Y-70830000D03*
X154420000Y-68290000D03*
X156960000Y-70830000D03*
X156960000Y-68290000D03*
X159500000Y-70830000D03*
X159500000Y-68290000D03*
X162040000Y-70830000D03*
X162040000Y-68290000D03*
X164580000Y-70830000D03*
X164580000Y-68290000D03*
D22*
X169450000Y-118560000D03*
X111450000Y-118560000D03*
X169450000Y-69560000D03*
D19*
G36*
X134934779Y-108707144D02*
G01*
X134957834Y-108710563D01*
X134980443Y-108716227D01*
X135002387Y-108724079D01*
X135023457Y-108734044D01*
X135043448Y-108746026D01*
X135062168Y-108759910D01*
X135079438Y-108775562D01*
X135095090Y-108792832D01*
X135108974Y-108811552D01*
X135120956Y-108831543D01*
X135130921Y-108852613D01*
X135138773Y-108874557D01*
X135144437Y-108897166D01*
X135147856Y-108920221D01*
X135149000Y-108943500D01*
X135149000Y-109518500D01*
X135147856Y-109541779D01*
X135144437Y-109564834D01*
X135138773Y-109587443D01*
X135130921Y-109609387D01*
X135120956Y-109630457D01*
X135108974Y-109650448D01*
X135095090Y-109669168D01*
X135079438Y-109686438D01*
X135062168Y-109702090D01*
X135043448Y-109715974D01*
X135023457Y-109727956D01*
X135002387Y-109737921D01*
X134980443Y-109745773D01*
X134957834Y-109751437D01*
X134934779Y-109754856D01*
X134911500Y-109756000D01*
X134436500Y-109756000D01*
X134413221Y-109754856D01*
X134390166Y-109751437D01*
X134367557Y-109745773D01*
X134345613Y-109737921D01*
X134324543Y-109727956D01*
X134304552Y-109715974D01*
X134285832Y-109702090D01*
X134268562Y-109686438D01*
X134252910Y-109669168D01*
X134239026Y-109650448D01*
X134227044Y-109630457D01*
X134217079Y-109609387D01*
X134209227Y-109587443D01*
X134203563Y-109564834D01*
X134200144Y-109541779D01*
X134199000Y-109518500D01*
X134199000Y-108943500D01*
X134200144Y-108920221D01*
X134203563Y-108897166D01*
X134209227Y-108874557D01*
X134217079Y-108852613D01*
X134227044Y-108831543D01*
X134239026Y-108811552D01*
X134252910Y-108792832D01*
X134268562Y-108775562D01*
X134285832Y-108759910D01*
X134304552Y-108746026D01*
X134324543Y-108734044D01*
X134345613Y-108724079D01*
X134367557Y-108716227D01*
X134390166Y-108710563D01*
X134413221Y-108707144D01*
X134436500Y-108706000D01*
X134911500Y-108706000D01*
X134934779Y-108707144D01*
X134934779Y-108707144D01*
G37*
D25*
X134674000Y-109231000D03*
D19*
G36*
X134934779Y-110457144D02*
G01*
X134957834Y-110460563D01*
X134980443Y-110466227D01*
X135002387Y-110474079D01*
X135023457Y-110484044D01*
X135043448Y-110496026D01*
X135062168Y-110509910D01*
X135079438Y-110525562D01*
X135095090Y-110542832D01*
X135108974Y-110561552D01*
X135120956Y-110581543D01*
X135130921Y-110602613D01*
X135138773Y-110624557D01*
X135144437Y-110647166D01*
X135147856Y-110670221D01*
X135149000Y-110693500D01*
X135149000Y-111268500D01*
X135147856Y-111291779D01*
X135144437Y-111314834D01*
X135138773Y-111337443D01*
X135130921Y-111359387D01*
X135120956Y-111380457D01*
X135108974Y-111400448D01*
X135095090Y-111419168D01*
X135079438Y-111436438D01*
X135062168Y-111452090D01*
X135043448Y-111465974D01*
X135023457Y-111477956D01*
X135002387Y-111487921D01*
X134980443Y-111495773D01*
X134957834Y-111501437D01*
X134934779Y-111504856D01*
X134911500Y-111506000D01*
X134436500Y-111506000D01*
X134413221Y-111504856D01*
X134390166Y-111501437D01*
X134367557Y-111495773D01*
X134345613Y-111487921D01*
X134324543Y-111477956D01*
X134304552Y-111465974D01*
X134285832Y-111452090D01*
X134268562Y-111436438D01*
X134252910Y-111419168D01*
X134239026Y-111400448D01*
X134227044Y-111380457D01*
X134217079Y-111359387D01*
X134209227Y-111337443D01*
X134203563Y-111314834D01*
X134200144Y-111291779D01*
X134199000Y-111268500D01*
X134199000Y-110693500D01*
X134200144Y-110670221D01*
X134203563Y-110647166D01*
X134209227Y-110624557D01*
X134217079Y-110602613D01*
X134227044Y-110581543D01*
X134239026Y-110561552D01*
X134252910Y-110542832D01*
X134268562Y-110525562D01*
X134285832Y-110509910D01*
X134304552Y-110496026D01*
X134324543Y-110484044D01*
X134345613Y-110474079D01*
X134367557Y-110466227D01*
X134390166Y-110460563D01*
X134413221Y-110457144D01*
X134436500Y-110456000D01*
X134911500Y-110456000D01*
X134934779Y-110457144D01*
X134934779Y-110457144D01*
G37*
D25*
X134674000Y-110981000D03*
D19*
G36*
X137347779Y-108721144D02*
G01*
X137370834Y-108724563D01*
X137393443Y-108730227D01*
X137415387Y-108738079D01*
X137436457Y-108748044D01*
X137456448Y-108760026D01*
X137475168Y-108773910D01*
X137492438Y-108789562D01*
X137508090Y-108806832D01*
X137521974Y-108825552D01*
X137533956Y-108845543D01*
X137543921Y-108866613D01*
X137551773Y-108888557D01*
X137557437Y-108911166D01*
X137560856Y-108934221D01*
X137562000Y-108957500D01*
X137562000Y-109532500D01*
X137560856Y-109555779D01*
X137557437Y-109578834D01*
X137551773Y-109601443D01*
X137543921Y-109623387D01*
X137533956Y-109644457D01*
X137521974Y-109664448D01*
X137508090Y-109683168D01*
X137492438Y-109700438D01*
X137475168Y-109716090D01*
X137456448Y-109729974D01*
X137436457Y-109741956D01*
X137415387Y-109751921D01*
X137393443Y-109759773D01*
X137370834Y-109765437D01*
X137347779Y-109768856D01*
X137324500Y-109770000D01*
X136849500Y-109770000D01*
X136826221Y-109768856D01*
X136803166Y-109765437D01*
X136780557Y-109759773D01*
X136758613Y-109751921D01*
X136737543Y-109741956D01*
X136717552Y-109729974D01*
X136698832Y-109716090D01*
X136681562Y-109700438D01*
X136665910Y-109683168D01*
X136652026Y-109664448D01*
X136640044Y-109644457D01*
X136630079Y-109623387D01*
X136622227Y-109601443D01*
X136616563Y-109578834D01*
X136613144Y-109555779D01*
X136612000Y-109532500D01*
X136612000Y-108957500D01*
X136613144Y-108934221D01*
X136616563Y-108911166D01*
X136622227Y-108888557D01*
X136630079Y-108866613D01*
X136640044Y-108845543D01*
X136652026Y-108825552D01*
X136665910Y-108806832D01*
X136681562Y-108789562D01*
X136698832Y-108773910D01*
X136717552Y-108760026D01*
X136737543Y-108748044D01*
X136758613Y-108738079D01*
X136780557Y-108730227D01*
X136803166Y-108724563D01*
X136826221Y-108721144D01*
X136849500Y-108720000D01*
X137324500Y-108720000D01*
X137347779Y-108721144D01*
X137347779Y-108721144D01*
G37*
D25*
X137087000Y-109245000D03*
D19*
G36*
X137347779Y-110471144D02*
G01*
X137370834Y-110474563D01*
X137393443Y-110480227D01*
X137415387Y-110488079D01*
X137436457Y-110498044D01*
X137456448Y-110510026D01*
X137475168Y-110523910D01*
X137492438Y-110539562D01*
X137508090Y-110556832D01*
X137521974Y-110575552D01*
X137533956Y-110595543D01*
X137543921Y-110616613D01*
X137551773Y-110638557D01*
X137557437Y-110661166D01*
X137560856Y-110684221D01*
X137562000Y-110707500D01*
X137562000Y-111282500D01*
X137560856Y-111305779D01*
X137557437Y-111328834D01*
X137551773Y-111351443D01*
X137543921Y-111373387D01*
X137533956Y-111394457D01*
X137521974Y-111414448D01*
X137508090Y-111433168D01*
X137492438Y-111450438D01*
X137475168Y-111466090D01*
X137456448Y-111479974D01*
X137436457Y-111491956D01*
X137415387Y-111501921D01*
X137393443Y-111509773D01*
X137370834Y-111515437D01*
X137347779Y-111518856D01*
X137324500Y-111520000D01*
X136849500Y-111520000D01*
X136826221Y-111518856D01*
X136803166Y-111515437D01*
X136780557Y-111509773D01*
X136758613Y-111501921D01*
X136737543Y-111491956D01*
X136717552Y-111479974D01*
X136698832Y-111466090D01*
X136681562Y-111450438D01*
X136665910Y-111433168D01*
X136652026Y-111414448D01*
X136640044Y-111394457D01*
X136630079Y-111373387D01*
X136622227Y-111351443D01*
X136616563Y-111328834D01*
X136613144Y-111305779D01*
X136612000Y-111282500D01*
X136612000Y-110707500D01*
X136613144Y-110684221D01*
X136616563Y-110661166D01*
X136622227Y-110638557D01*
X136630079Y-110616613D01*
X136640044Y-110595543D01*
X136652026Y-110575552D01*
X136665910Y-110556832D01*
X136681562Y-110539562D01*
X136698832Y-110523910D01*
X136717552Y-110510026D01*
X136737543Y-110498044D01*
X136758613Y-110488079D01*
X136780557Y-110480227D01*
X136803166Y-110474563D01*
X136826221Y-110471144D01*
X136849500Y-110470000D01*
X137324500Y-110470000D01*
X137347779Y-110471144D01*
X137347779Y-110471144D01*
G37*
D25*
X137087000Y-110995000D03*
D19*
G36*
X139633779Y-110443144D02*
G01*
X139656834Y-110446563D01*
X139679443Y-110452227D01*
X139701387Y-110460079D01*
X139722457Y-110470044D01*
X139742448Y-110482026D01*
X139761168Y-110495910D01*
X139778438Y-110511562D01*
X139794090Y-110528832D01*
X139807974Y-110547552D01*
X139819956Y-110567543D01*
X139829921Y-110588613D01*
X139837773Y-110610557D01*
X139843437Y-110633166D01*
X139846856Y-110656221D01*
X139848000Y-110679500D01*
X139848000Y-111254500D01*
X139846856Y-111277779D01*
X139843437Y-111300834D01*
X139837773Y-111323443D01*
X139829921Y-111345387D01*
X139819956Y-111366457D01*
X139807974Y-111386448D01*
X139794090Y-111405168D01*
X139778438Y-111422438D01*
X139761168Y-111438090D01*
X139742448Y-111451974D01*
X139722457Y-111463956D01*
X139701387Y-111473921D01*
X139679443Y-111481773D01*
X139656834Y-111487437D01*
X139633779Y-111490856D01*
X139610500Y-111492000D01*
X139135500Y-111492000D01*
X139112221Y-111490856D01*
X139089166Y-111487437D01*
X139066557Y-111481773D01*
X139044613Y-111473921D01*
X139023543Y-111463956D01*
X139003552Y-111451974D01*
X138984832Y-111438090D01*
X138967562Y-111422438D01*
X138951910Y-111405168D01*
X138938026Y-111386448D01*
X138926044Y-111366457D01*
X138916079Y-111345387D01*
X138908227Y-111323443D01*
X138902563Y-111300834D01*
X138899144Y-111277779D01*
X138898000Y-111254500D01*
X138898000Y-110679500D01*
X138899144Y-110656221D01*
X138902563Y-110633166D01*
X138908227Y-110610557D01*
X138916079Y-110588613D01*
X138926044Y-110567543D01*
X138938026Y-110547552D01*
X138951910Y-110528832D01*
X138967562Y-110511562D01*
X138984832Y-110495910D01*
X139003552Y-110482026D01*
X139023543Y-110470044D01*
X139044613Y-110460079D01*
X139066557Y-110452227D01*
X139089166Y-110446563D01*
X139112221Y-110443144D01*
X139135500Y-110442000D01*
X139610500Y-110442000D01*
X139633779Y-110443144D01*
X139633779Y-110443144D01*
G37*
D25*
X139373000Y-110967000D03*
D19*
G36*
X139633779Y-108693144D02*
G01*
X139656834Y-108696563D01*
X139679443Y-108702227D01*
X139701387Y-108710079D01*
X139722457Y-108720044D01*
X139742448Y-108732026D01*
X139761168Y-108745910D01*
X139778438Y-108761562D01*
X139794090Y-108778832D01*
X139807974Y-108797552D01*
X139819956Y-108817543D01*
X139829921Y-108838613D01*
X139837773Y-108860557D01*
X139843437Y-108883166D01*
X139846856Y-108906221D01*
X139848000Y-108929500D01*
X139848000Y-109504500D01*
X139846856Y-109527779D01*
X139843437Y-109550834D01*
X139837773Y-109573443D01*
X139829921Y-109595387D01*
X139819956Y-109616457D01*
X139807974Y-109636448D01*
X139794090Y-109655168D01*
X139778438Y-109672438D01*
X139761168Y-109688090D01*
X139742448Y-109701974D01*
X139722457Y-109713956D01*
X139701387Y-109723921D01*
X139679443Y-109731773D01*
X139656834Y-109737437D01*
X139633779Y-109740856D01*
X139610500Y-109742000D01*
X139135500Y-109742000D01*
X139112221Y-109740856D01*
X139089166Y-109737437D01*
X139066557Y-109731773D01*
X139044613Y-109723921D01*
X139023543Y-109713956D01*
X139003552Y-109701974D01*
X138984832Y-109688090D01*
X138967562Y-109672438D01*
X138951910Y-109655168D01*
X138938026Y-109636448D01*
X138926044Y-109616457D01*
X138916079Y-109595387D01*
X138908227Y-109573443D01*
X138902563Y-109550834D01*
X138899144Y-109527779D01*
X138898000Y-109504500D01*
X138898000Y-108929500D01*
X138899144Y-108906221D01*
X138902563Y-108883166D01*
X138908227Y-108860557D01*
X138916079Y-108838613D01*
X138926044Y-108817543D01*
X138938026Y-108797552D01*
X138951910Y-108778832D01*
X138967562Y-108761562D01*
X138984832Y-108745910D01*
X139003552Y-108732026D01*
X139023543Y-108720044D01*
X139044613Y-108710079D01*
X139066557Y-108702227D01*
X139089166Y-108696563D01*
X139112221Y-108693144D01*
X139135500Y-108692000D01*
X139610500Y-108692000D01*
X139633779Y-108693144D01*
X139633779Y-108693144D01*
G37*
D25*
X139373000Y-109217000D03*
D19*
G36*
X141919779Y-108580144D02*
G01*
X141942834Y-108583563D01*
X141965443Y-108589227D01*
X141987387Y-108597079D01*
X142008457Y-108607044D01*
X142028448Y-108619026D01*
X142047168Y-108632910D01*
X142064438Y-108648562D01*
X142080090Y-108665832D01*
X142093974Y-108684552D01*
X142105956Y-108704543D01*
X142115921Y-108725613D01*
X142123773Y-108747557D01*
X142129437Y-108770166D01*
X142132856Y-108793221D01*
X142134000Y-108816500D01*
X142134000Y-109391500D01*
X142132856Y-109414779D01*
X142129437Y-109437834D01*
X142123773Y-109460443D01*
X142115921Y-109482387D01*
X142105956Y-109503457D01*
X142093974Y-109523448D01*
X142080090Y-109542168D01*
X142064438Y-109559438D01*
X142047168Y-109575090D01*
X142028448Y-109588974D01*
X142008457Y-109600956D01*
X141987387Y-109610921D01*
X141965443Y-109618773D01*
X141942834Y-109624437D01*
X141919779Y-109627856D01*
X141896500Y-109629000D01*
X141421500Y-109629000D01*
X141398221Y-109627856D01*
X141375166Y-109624437D01*
X141352557Y-109618773D01*
X141330613Y-109610921D01*
X141309543Y-109600956D01*
X141289552Y-109588974D01*
X141270832Y-109575090D01*
X141253562Y-109559438D01*
X141237910Y-109542168D01*
X141224026Y-109523448D01*
X141212044Y-109503457D01*
X141202079Y-109482387D01*
X141194227Y-109460443D01*
X141188563Y-109437834D01*
X141185144Y-109414779D01*
X141184000Y-109391500D01*
X141184000Y-108816500D01*
X141185144Y-108793221D01*
X141188563Y-108770166D01*
X141194227Y-108747557D01*
X141202079Y-108725613D01*
X141212044Y-108704543D01*
X141224026Y-108684552D01*
X141237910Y-108665832D01*
X141253562Y-108648562D01*
X141270832Y-108632910D01*
X141289552Y-108619026D01*
X141309543Y-108607044D01*
X141330613Y-108597079D01*
X141352557Y-108589227D01*
X141375166Y-108583563D01*
X141398221Y-108580144D01*
X141421500Y-108579000D01*
X141896500Y-108579000D01*
X141919779Y-108580144D01*
X141919779Y-108580144D01*
G37*
D25*
X141659000Y-109104000D03*
D19*
G36*
X141919779Y-110330144D02*
G01*
X141942834Y-110333563D01*
X141965443Y-110339227D01*
X141987387Y-110347079D01*
X142008457Y-110357044D01*
X142028448Y-110369026D01*
X142047168Y-110382910D01*
X142064438Y-110398562D01*
X142080090Y-110415832D01*
X142093974Y-110434552D01*
X142105956Y-110454543D01*
X142115921Y-110475613D01*
X142123773Y-110497557D01*
X142129437Y-110520166D01*
X142132856Y-110543221D01*
X142134000Y-110566500D01*
X142134000Y-111141500D01*
X142132856Y-111164779D01*
X142129437Y-111187834D01*
X142123773Y-111210443D01*
X142115921Y-111232387D01*
X142105956Y-111253457D01*
X142093974Y-111273448D01*
X142080090Y-111292168D01*
X142064438Y-111309438D01*
X142047168Y-111325090D01*
X142028448Y-111338974D01*
X142008457Y-111350956D01*
X141987387Y-111360921D01*
X141965443Y-111368773D01*
X141942834Y-111374437D01*
X141919779Y-111377856D01*
X141896500Y-111379000D01*
X141421500Y-111379000D01*
X141398221Y-111377856D01*
X141375166Y-111374437D01*
X141352557Y-111368773D01*
X141330613Y-111360921D01*
X141309543Y-111350956D01*
X141289552Y-111338974D01*
X141270832Y-111325090D01*
X141253562Y-111309438D01*
X141237910Y-111292168D01*
X141224026Y-111273448D01*
X141212044Y-111253457D01*
X141202079Y-111232387D01*
X141194227Y-111210443D01*
X141188563Y-111187834D01*
X141185144Y-111164779D01*
X141184000Y-111141500D01*
X141184000Y-110566500D01*
X141185144Y-110543221D01*
X141188563Y-110520166D01*
X141194227Y-110497557D01*
X141202079Y-110475613D01*
X141212044Y-110454543D01*
X141224026Y-110434552D01*
X141237910Y-110415832D01*
X141253562Y-110398562D01*
X141270832Y-110382910D01*
X141289552Y-110369026D01*
X141309543Y-110357044D01*
X141330613Y-110347079D01*
X141352557Y-110339227D01*
X141375166Y-110333563D01*
X141398221Y-110330144D01*
X141421500Y-110329000D01*
X141896500Y-110329000D01*
X141919779Y-110330144D01*
X141919779Y-110330144D01*
G37*
D25*
X141659000Y-110854000D03*
D19*
G36*
X144459779Y-110330144D02*
G01*
X144482834Y-110333563D01*
X144505443Y-110339227D01*
X144527387Y-110347079D01*
X144548457Y-110357044D01*
X144568448Y-110369026D01*
X144587168Y-110382910D01*
X144604438Y-110398562D01*
X144620090Y-110415832D01*
X144633974Y-110434552D01*
X144645956Y-110454543D01*
X144655921Y-110475613D01*
X144663773Y-110497557D01*
X144669437Y-110520166D01*
X144672856Y-110543221D01*
X144674000Y-110566500D01*
X144674000Y-111141500D01*
X144672856Y-111164779D01*
X144669437Y-111187834D01*
X144663773Y-111210443D01*
X144655921Y-111232387D01*
X144645956Y-111253457D01*
X144633974Y-111273448D01*
X144620090Y-111292168D01*
X144604438Y-111309438D01*
X144587168Y-111325090D01*
X144568448Y-111338974D01*
X144548457Y-111350956D01*
X144527387Y-111360921D01*
X144505443Y-111368773D01*
X144482834Y-111374437D01*
X144459779Y-111377856D01*
X144436500Y-111379000D01*
X143961500Y-111379000D01*
X143938221Y-111377856D01*
X143915166Y-111374437D01*
X143892557Y-111368773D01*
X143870613Y-111360921D01*
X143849543Y-111350956D01*
X143829552Y-111338974D01*
X143810832Y-111325090D01*
X143793562Y-111309438D01*
X143777910Y-111292168D01*
X143764026Y-111273448D01*
X143752044Y-111253457D01*
X143742079Y-111232387D01*
X143734227Y-111210443D01*
X143728563Y-111187834D01*
X143725144Y-111164779D01*
X143724000Y-111141500D01*
X143724000Y-110566500D01*
X143725144Y-110543221D01*
X143728563Y-110520166D01*
X143734227Y-110497557D01*
X143742079Y-110475613D01*
X143752044Y-110454543D01*
X143764026Y-110434552D01*
X143777910Y-110415832D01*
X143793562Y-110398562D01*
X143810832Y-110382910D01*
X143829552Y-110369026D01*
X143849543Y-110357044D01*
X143870613Y-110347079D01*
X143892557Y-110339227D01*
X143915166Y-110333563D01*
X143938221Y-110330144D01*
X143961500Y-110329000D01*
X144436500Y-110329000D01*
X144459779Y-110330144D01*
X144459779Y-110330144D01*
G37*
D25*
X144199000Y-110854000D03*
D19*
G36*
X144459779Y-108580144D02*
G01*
X144482834Y-108583563D01*
X144505443Y-108589227D01*
X144527387Y-108597079D01*
X144548457Y-108607044D01*
X144568448Y-108619026D01*
X144587168Y-108632910D01*
X144604438Y-108648562D01*
X144620090Y-108665832D01*
X144633974Y-108684552D01*
X144645956Y-108704543D01*
X144655921Y-108725613D01*
X144663773Y-108747557D01*
X144669437Y-108770166D01*
X144672856Y-108793221D01*
X144674000Y-108816500D01*
X144674000Y-109391500D01*
X144672856Y-109414779D01*
X144669437Y-109437834D01*
X144663773Y-109460443D01*
X144655921Y-109482387D01*
X144645956Y-109503457D01*
X144633974Y-109523448D01*
X144620090Y-109542168D01*
X144604438Y-109559438D01*
X144587168Y-109575090D01*
X144568448Y-109588974D01*
X144548457Y-109600956D01*
X144527387Y-109610921D01*
X144505443Y-109618773D01*
X144482834Y-109624437D01*
X144459779Y-109627856D01*
X144436500Y-109629000D01*
X143961500Y-109629000D01*
X143938221Y-109627856D01*
X143915166Y-109624437D01*
X143892557Y-109618773D01*
X143870613Y-109610921D01*
X143849543Y-109600956D01*
X143829552Y-109588974D01*
X143810832Y-109575090D01*
X143793562Y-109559438D01*
X143777910Y-109542168D01*
X143764026Y-109523448D01*
X143752044Y-109503457D01*
X143742079Y-109482387D01*
X143734227Y-109460443D01*
X143728563Y-109437834D01*
X143725144Y-109414779D01*
X143724000Y-109391500D01*
X143724000Y-108816500D01*
X143725144Y-108793221D01*
X143728563Y-108770166D01*
X143734227Y-108747557D01*
X143742079Y-108725613D01*
X143752044Y-108704543D01*
X143764026Y-108684552D01*
X143777910Y-108665832D01*
X143793562Y-108648562D01*
X143810832Y-108632910D01*
X143829552Y-108619026D01*
X143849543Y-108607044D01*
X143870613Y-108597079D01*
X143892557Y-108589227D01*
X143915166Y-108583563D01*
X143938221Y-108580144D01*
X143961500Y-108579000D01*
X144436500Y-108579000D01*
X144459779Y-108580144D01*
X144459779Y-108580144D01*
G37*
D25*
X144199000Y-109104000D03*
D19*
G36*
X131612505Y-109161204D02*
G01*
X131636773Y-109164804D01*
X131660572Y-109170765D01*
X131683671Y-109179030D01*
X131705850Y-109189520D01*
X131726893Y-109202132D01*
X131746599Y-109216747D01*
X131764777Y-109233223D01*
X131781253Y-109251401D01*
X131795868Y-109271107D01*
X131808480Y-109292150D01*
X131818970Y-109314329D01*
X131827235Y-109337428D01*
X131833196Y-109361227D01*
X131836796Y-109385495D01*
X131838000Y-109409999D01*
X131838000Y-110310001D01*
X131836796Y-110334505D01*
X131833196Y-110358773D01*
X131827235Y-110382572D01*
X131818970Y-110405671D01*
X131808480Y-110427850D01*
X131795868Y-110448893D01*
X131781253Y-110468599D01*
X131764777Y-110486777D01*
X131746599Y-110503253D01*
X131726893Y-110517868D01*
X131705850Y-110530480D01*
X131683671Y-110540970D01*
X131660572Y-110549235D01*
X131636773Y-110555196D01*
X131612505Y-110558796D01*
X131588001Y-110560000D01*
X130937999Y-110560000D01*
X130913495Y-110558796D01*
X130889227Y-110555196D01*
X130865428Y-110549235D01*
X130842329Y-110540970D01*
X130820150Y-110530480D01*
X130799107Y-110517868D01*
X130779401Y-110503253D01*
X130761223Y-110486777D01*
X130744747Y-110468599D01*
X130730132Y-110448893D01*
X130717520Y-110427850D01*
X130707030Y-110405671D01*
X130698765Y-110382572D01*
X130692804Y-110358773D01*
X130689204Y-110334505D01*
X130688000Y-110310001D01*
X130688000Y-109409999D01*
X130689204Y-109385495D01*
X130692804Y-109361227D01*
X130698765Y-109337428D01*
X130707030Y-109314329D01*
X130717520Y-109292150D01*
X130730132Y-109271107D01*
X130744747Y-109251401D01*
X130761223Y-109233223D01*
X130779401Y-109216747D01*
X130799107Y-109202132D01*
X130820150Y-109189520D01*
X130842329Y-109179030D01*
X130865428Y-109170765D01*
X130889227Y-109164804D01*
X130913495Y-109161204D01*
X130937999Y-109160000D01*
X131588001Y-109160000D01*
X131612505Y-109161204D01*
X131612505Y-109161204D01*
G37*
D26*
X131263000Y-109860000D03*
D19*
G36*
X129562505Y-109161204D02*
G01*
X129586773Y-109164804D01*
X129610572Y-109170765D01*
X129633671Y-109179030D01*
X129655850Y-109189520D01*
X129676893Y-109202132D01*
X129696599Y-109216747D01*
X129714777Y-109233223D01*
X129731253Y-109251401D01*
X129745868Y-109271107D01*
X129758480Y-109292150D01*
X129768970Y-109314329D01*
X129777235Y-109337428D01*
X129783196Y-109361227D01*
X129786796Y-109385495D01*
X129788000Y-109409999D01*
X129788000Y-110310001D01*
X129786796Y-110334505D01*
X129783196Y-110358773D01*
X129777235Y-110382572D01*
X129768970Y-110405671D01*
X129758480Y-110427850D01*
X129745868Y-110448893D01*
X129731253Y-110468599D01*
X129714777Y-110486777D01*
X129696599Y-110503253D01*
X129676893Y-110517868D01*
X129655850Y-110530480D01*
X129633671Y-110540970D01*
X129610572Y-110549235D01*
X129586773Y-110555196D01*
X129562505Y-110558796D01*
X129538001Y-110560000D01*
X128887999Y-110560000D01*
X128863495Y-110558796D01*
X128839227Y-110555196D01*
X128815428Y-110549235D01*
X128792329Y-110540970D01*
X128770150Y-110530480D01*
X128749107Y-110517868D01*
X128729401Y-110503253D01*
X128711223Y-110486777D01*
X128694747Y-110468599D01*
X128680132Y-110448893D01*
X128667520Y-110427850D01*
X128657030Y-110405671D01*
X128648765Y-110382572D01*
X128642804Y-110358773D01*
X128639204Y-110334505D01*
X128638000Y-110310001D01*
X128638000Y-109409999D01*
X128639204Y-109385495D01*
X128642804Y-109361227D01*
X128648765Y-109337428D01*
X128657030Y-109314329D01*
X128667520Y-109292150D01*
X128680132Y-109271107D01*
X128694747Y-109251401D01*
X128711223Y-109233223D01*
X128729401Y-109216747D01*
X128749107Y-109202132D01*
X128770150Y-109189520D01*
X128792329Y-109179030D01*
X128815428Y-109170765D01*
X128839227Y-109164804D01*
X128863495Y-109161204D01*
X128887999Y-109160000D01*
X129538001Y-109160000D01*
X129562505Y-109161204D01*
X129562505Y-109161204D01*
G37*
D26*
X129213000Y-109860000D03*
D19*
G36*
X141224505Y-122726204D02*
G01*
X141248773Y-122729804D01*
X141272572Y-122735765D01*
X141295671Y-122744030D01*
X141317850Y-122754520D01*
X141338893Y-122767132D01*
X141358599Y-122781747D01*
X141376777Y-122798223D01*
X141393253Y-122816401D01*
X141407868Y-122836107D01*
X141420480Y-122857150D01*
X141430970Y-122879329D01*
X141439235Y-122902428D01*
X141445196Y-122926227D01*
X141448796Y-122950495D01*
X141450000Y-122974999D01*
X141450000Y-123625001D01*
X141448796Y-123649505D01*
X141445196Y-123673773D01*
X141439235Y-123697572D01*
X141430970Y-123720671D01*
X141420480Y-123742850D01*
X141407868Y-123763893D01*
X141393253Y-123783599D01*
X141376777Y-123801777D01*
X141358599Y-123818253D01*
X141338893Y-123832868D01*
X141317850Y-123845480D01*
X141295671Y-123855970D01*
X141272572Y-123864235D01*
X141248773Y-123870196D01*
X141224505Y-123873796D01*
X141200001Y-123875000D01*
X140299999Y-123875000D01*
X140275495Y-123873796D01*
X140251227Y-123870196D01*
X140227428Y-123864235D01*
X140204329Y-123855970D01*
X140182150Y-123845480D01*
X140161107Y-123832868D01*
X140141401Y-123818253D01*
X140123223Y-123801777D01*
X140106747Y-123783599D01*
X140092132Y-123763893D01*
X140079520Y-123742850D01*
X140069030Y-123720671D01*
X140060765Y-123697572D01*
X140054804Y-123673773D01*
X140051204Y-123649505D01*
X140050000Y-123625001D01*
X140050000Y-122974999D01*
X140051204Y-122950495D01*
X140054804Y-122926227D01*
X140060765Y-122902428D01*
X140069030Y-122879329D01*
X140079520Y-122857150D01*
X140092132Y-122836107D01*
X140106747Y-122816401D01*
X140123223Y-122798223D01*
X140141401Y-122781747D01*
X140161107Y-122767132D01*
X140182150Y-122754520D01*
X140204329Y-122744030D01*
X140227428Y-122735765D01*
X140251227Y-122729804D01*
X140275495Y-122726204D01*
X140299999Y-122725000D01*
X141200001Y-122725000D01*
X141224505Y-122726204D01*
X141224505Y-122726204D01*
G37*
D26*
X140750000Y-123300000D03*
D19*
G36*
X141224505Y-120676204D02*
G01*
X141248773Y-120679804D01*
X141272572Y-120685765D01*
X141295671Y-120694030D01*
X141317850Y-120704520D01*
X141338893Y-120717132D01*
X141358599Y-120731747D01*
X141376777Y-120748223D01*
X141393253Y-120766401D01*
X141407868Y-120786107D01*
X141420480Y-120807150D01*
X141430970Y-120829329D01*
X141439235Y-120852428D01*
X141445196Y-120876227D01*
X141448796Y-120900495D01*
X141450000Y-120924999D01*
X141450000Y-121575001D01*
X141448796Y-121599505D01*
X141445196Y-121623773D01*
X141439235Y-121647572D01*
X141430970Y-121670671D01*
X141420480Y-121692850D01*
X141407868Y-121713893D01*
X141393253Y-121733599D01*
X141376777Y-121751777D01*
X141358599Y-121768253D01*
X141338893Y-121782868D01*
X141317850Y-121795480D01*
X141295671Y-121805970D01*
X141272572Y-121814235D01*
X141248773Y-121820196D01*
X141224505Y-121823796D01*
X141200001Y-121825000D01*
X140299999Y-121825000D01*
X140275495Y-121823796D01*
X140251227Y-121820196D01*
X140227428Y-121814235D01*
X140204329Y-121805970D01*
X140182150Y-121795480D01*
X140161107Y-121782868D01*
X140141401Y-121768253D01*
X140123223Y-121751777D01*
X140106747Y-121733599D01*
X140092132Y-121713893D01*
X140079520Y-121692850D01*
X140069030Y-121670671D01*
X140060765Y-121647572D01*
X140054804Y-121623773D01*
X140051204Y-121599505D01*
X140050000Y-121575001D01*
X140050000Y-120924999D01*
X140051204Y-120900495D01*
X140054804Y-120876227D01*
X140060765Y-120852428D01*
X140069030Y-120829329D01*
X140079520Y-120807150D01*
X140092132Y-120786107D01*
X140106747Y-120766401D01*
X140123223Y-120748223D01*
X140141401Y-120731747D01*
X140161107Y-120717132D01*
X140182150Y-120704520D01*
X140204329Y-120694030D01*
X140227428Y-120685765D01*
X140251227Y-120679804D01*
X140275495Y-120676204D01*
X140299999Y-120675000D01*
X141200001Y-120675000D01*
X141224505Y-120676204D01*
X141224505Y-120676204D01*
G37*
D26*
X140750000Y-121250000D03*
D19*
G36*
X138974505Y-120676204D02*
G01*
X138998773Y-120679804D01*
X139022572Y-120685765D01*
X139045671Y-120694030D01*
X139067850Y-120704520D01*
X139088893Y-120717132D01*
X139108599Y-120731747D01*
X139126777Y-120748223D01*
X139143253Y-120766401D01*
X139157868Y-120786107D01*
X139170480Y-120807150D01*
X139180970Y-120829329D01*
X139189235Y-120852428D01*
X139195196Y-120876227D01*
X139198796Y-120900495D01*
X139200000Y-120924999D01*
X139200000Y-121575001D01*
X139198796Y-121599505D01*
X139195196Y-121623773D01*
X139189235Y-121647572D01*
X139180970Y-121670671D01*
X139170480Y-121692850D01*
X139157868Y-121713893D01*
X139143253Y-121733599D01*
X139126777Y-121751777D01*
X139108599Y-121768253D01*
X139088893Y-121782868D01*
X139067850Y-121795480D01*
X139045671Y-121805970D01*
X139022572Y-121814235D01*
X138998773Y-121820196D01*
X138974505Y-121823796D01*
X138950001Y-121825000D01*
X138049999Y-121825000D01*
X138025495Y-121823796D01*
X138001227Y-121820196D01*
X137977428Y-121814235D01*
X137954329Y-121805970D01*
X137932150Y-121795480D01*
X137911107Y-121782868D01*
X137891401Y-121768253D01*
X137873223Y-121751777D01*
X137856747Y-121733599D01*
X137842132Y-121713893D01*
X137829520Y-121692850D01*
X137819030Y-121670671D01*
X137810765Y-121647572D01*
X137804804Y-121623773D01*
X137801204Y-121599505D01*
X137800000Y-121575001D01*
X137800000Y-120924999D01*
X137801204Y-120900495D01*
X137804804Y-120876227D01*
X137810765Y-120852428D01*
X137819030Y-120829329D01*
X137829520Y-120807150D01*
X137842132Y-120786107D01*
X137856747Y-120766401D01*
X137873223Y-120748223D01*
X137891401Y-120731747D01*
X137911107Y-120717132D01*
X137932150Y-120704520D01*
X137954329Y-120694030D01*
X137977428Y-120685765D01*
X138001227Y-120679804D01*
X138025495Y-120676204D01*
X138049999Y-120675000D01*
X138950001Y-120675000D01*
X138974505Y-120676204D01*
X138974505Y-120676204D01*
G37*
D26*
X138500000Y-121250000D03*
D19*
G36*
X138974505Y-122726204D02*
G01*
X138998773Y-122729804D01*
X139022572Y-122735765D01*
X139045671Y-122744030D01*
X139067850Y-122754520D01*
X139088893Y-122767132D01*
X139108599Y-122781747D01*
X139126777Y-122798223D01*
X139143253Y-122816401D01*
X139157868Y-122836107D01*
X139170480Y-122857150D01*
X139180970Y-122879329D01*
X139189235Y-122902428D01*
X139195196Y-122926227D01*
X139198796Y-122950495D01*
X139200000Y-122974999D01*
X139200000Y-123625001D01*
X139198796Y-123649505D01*
X139195196Y-123673773D01*
X139189235Y-123697572D01*
X139180970Y-123720671D01*
X139170480Y-123742850D01*
X139157868Y-123763893D01*
X139143253Y-123783599D01*
X139126777Y-123801777D01*
X139108599Y-123818253D01*
X139088893Y-123832868D01*
X139067850Y-123845480D01*
X139045671Y-123855970D01*
X139022572Y-123864235D01*
X138998773Y-123870196D01*
X138974505Y-123873796D01*
X138950001Y-123875000D01*
X138049999Y-123875000D01*
X138025495Y-123873796D01*
X138001227Y-123870196D01*
X137977428Y-123864235D01*
X137954329Y-123855970D01*
X137932150Y-123845480D01*
X137911107Y-123832868D01*
X137891401Y-123818253D01*
X137873223Y-123801777D01*
X137856747Y-123783599D01*
X137842132Y-123763893D01*
X137829520Y-123742850D01*
X137819030Y-123720671D01*
X137810765Y-123697572D01*
X137804804Y-123673773D01*
X137801204Y-123649505D01*
X137800000Y-123625001D01*
X137800000Y-122974999D01*
X137801204Y-122950495D01*
X137804804Y-122926227D01*
X137810765Y-122902428D01*
X137819030Y-122879329D01*
X137829520Y-122857150D01*
X137842132Y-122836107D01*
X137856747Y-122816401D01*
X137873223Y-122798223D01*
X137891401Y-122781747D01*
X137911107Y-122767132D01*
X137932150Y-122754520D01*
X137954329Y-122744030D01*
X137977428Y-122735765D01*
X138001227Y-122729804D01*
X138025495Y-122726204D01*
X138049999Y-122725000D01*
X138950001Y-122725000D01*
X138974505Y-122726204D01*
X138974505Y-122726204D01*
G37*
D26*
X138500000Y-123300000D03*
D19*
G36*
X127185779Y-112026144D02*
G01*
X127208834Y-112029563D01*
X127231443Y-112035227D01*
X127253387Y-112043079D01*
X127274457Y-112053044D01*
X127294448Y-112065026D01*
X127313168Y-112078910D01*
X127330438Y-112094562D01*
X127346090Y-112111832D01*
X127359974Y-112130552D01*
X127371956Y-112150543D01*
X127381921Y-112171613D01*
X127389773Y-112193557D01*
X127395437Y-112216166D01*
X127398856Y-112239221D01*
X127400000Y-112262500D01*
X127400000Y-112737500D01*
X127398856Y-112760779D01*
X127395437Y-112783834D01*
X127389773Y-112806443D01*
X127381921Y-112828387D01*
X127371956Y-112849457D01*
X127359974Y-112869448D01*
X127346090Y-112888168D01*
X127330438Y-112905438D01*
X127313168Y-112921090D01*
X127294448Y-112934974D01*
X127274457Y-112946956D01*
X127253387Y-112956921D01*
X127231443Y-112964773D01*
X127208834Y-112970437D01*
X127185779Y-112973856D01*
X127162500Y-112975000D01*
X126587500Y-112975000D01*
X126564221Y-112973856D01*
X126541166Y-112970437D01*
X126518557Y-112964773D01*
X126496613Y-112956921D01*
X126475543Y-112946956D01*
X126455552Y-112934974D01*
X126436832Y-112921090D01*
X126419562Y-112905438D01*
X126403910Y-112888168D01*
X126390026Y-112869448D01*
X126378044Y-112849457D01*
X126368079Y-112828387D01*
X126360227Y-112806443D01*
X126354563Y-112783834D01*
X126351144Y-112760779D01*
X126350000Y-112737500D01*
X126350000Y-112262500D01*
X126351144Y-112239221D01*
X126354563Y-112216166D01*
X126360227Y-112193557D01*
X126368079Y-112171613D01*
X126378044Y-112150543D01*
X126390026Y-112130552D01*
X126403910Y-112111832D01*
X126419562Y-112094562D01*
X126436832Y-112078910D01*
X126455552Y-112065026D01*
X126475543Y-112053044D01*
X126496613Y-112043079D01*
X126518557Y-112035227D01*
X126541166Y-112029563D01*
X126564221Y-112026144D01*
X126587500Y-112025000D01*
X127162500Y-112025000D01*
X127185779Y-112026144D01*
X127185779Y-112026144D01*
G37*
D25*
X126875000Y-112500000D03*
D19*
G36*
X125435779Y-112026144D02*
G01*
X125458834Y-112029563D01*
X125481443Y-112035227D01*
X125503387Y-112043079D01*
X125524457Y-112053044D01*
X125544448Y-112065026D01*
X125563168Y-112078910D01*
X125580438Y-112094562D01*
X125596090Y-112111832D01*
X125609974Y-112130552D01*
X125621956Y-112150543D01*
X125631921Y-112171613D01*
X125639773Y-112193557D01*
X125645437Y-112216166D01*
X125648856Y-112239221D01*
X125650000Y-112262500D01*
X125650000Y-112737500D01*
X125648856Y-112760779D01*
X125645437Y-112783834D01*
X125639773Y-112806443D01*
X125631921Y-112828387D01*
X125621956Y-112849457D01*
X125609974Y-112869448D01*
X125596090Y-112888168D01*
X125580438Y-112905438D01*
X125563168Y-112921090D01*
X125544448Y-112934974D01*
X125524457Y-112946956D01*
X125503387Y-112956921D01*
X125481443Y-112964773D01*
X125458834Y-112970437D01*
X125435779Y-112973856D01*
X125412500Y-112975000D01*
X124837500Y-112975000D01*
X124814221Y-112973856D01*
X124791166Y-112970437D01*
X124768557Y-112964773D01*
X124746613Y-112956921D01*
X124725543Y-112946956D01*
X124705552Y-112934974D01*
X124686832Y-112921090D01*
X124669562Y-112905438D01*
X124653910Y-112888168D01*
X124640026Y-112869448D01*
X124628044Y-112849457D01*
X124618079Y-112828387D01*
X124610227Y-112806443D01*
X124604563Y-112783834D01*
X124601144Y-112760779D01*
X124600000Y-112737500D01*
X124600000Y-112262500D01*
X124601144Y-112239221D01*
X124604563Y-112216166D01*
X124610227Y-112193557D01*
X124618079Y-112171613D01*
X124628044Y-112150543D01*
X124640026Y-112130552D01*
X124653910Y-112111832D01*
X124669562Y-112094562D01*
X124686832Y-112078910D01*
X124705552Y-112065026D01*
X124725543Y-112053044D01*
X124746613Y-112043079D01*
X124768557Y-112035227D01*
X124791166Y-112029563D01*
X124814221Y-112026144D01*
X124837500Y-112025000D01*
X125412500Y-112025000D01*
X125435779Y-112026144D01*
X125435779Y-112026144D01*
G37*
D25*
X125125000Y-112500000D03*
D19*
G36*
X125435779Y-109026144D02*
G01*
X125458834Y-109029563D01*
X125481443Y-109035227D01*
X125503387Y-109043079D01*
X125524457Y-109053044D01*
X125544448Y-109065026D01*
X125563168Y-109078910D01*
X125580438Y-109094562D01*
X125596090Y-109111832D01*
X125609974Y-109130552D01*
X125621956Y-109150543D01*
X125631921Y-109171613D01*
X125639773Y-109193557D01*
X125645437Y-109216166D01*
X125648856Y-109239221D01*
X125650000Y-109262500D01*
X125650000Y-109737500D01*
X125648856Y-109760779D01*
X125645437Y-109783834D01*
X125639773Y-109806443D01*
X125631921Y-109828387D01*
X125621956Y-109849457D01*
X125609974Y-109869448D01*
X125596090Y-109888168D01*
X125580438Y-109905438D01*
X125563168Y-109921090D01*
X125544448Y-109934974D01*
X125524457Y-109946956D01*
X125503387Y-109956921D01*
X125481443Y-109964773D01*
X125458834Y-109970437D01*
X125435779Y-109973856D01*
X125412500Y-109975000D01*
X124837500Y-109975000D01*
X124814221Y-109973856D01*
X124791166Y-109970437D01*
X124768557Y-109964773D01*
X124746613Y-109956921D01*
X124725543Y-109946956D01*
X124705552Y-109934974D01*
X124686832Y-109921090D01*
X124669562Y-109905438D01*
X124653910Y-109888168D01*
X124640026Y-109869448D01*
X124628044Y-109849457D01*
X124618079Y-109828387D01*
X124610227Y-109806443D01*
X124604563Y-109783834D01*
X124601144Y-109760779D01*
X124600000Y-109737500D01*
X124600000Y-109262500D01*
X124601144Y-109239221D01*
X124604563Y-109216166D01*
X124610227Y-109193557D01*
X124618079Y-109171613D01*
X124628044Y-109150543D01*
X124640026Y-109130552D01*
X124653910Y-109111832D01*
X124669562Y-109094562D01*
X124686832Y-109078910D01*
X124705552Y-109065026D01*
X124725543Y-109053044D01*
X124746613Y-109043079D01*
X124768557Y-109035227D01*
X124791166Y-109029563D01*
X124814221Y-109026144D01*
X124837500Y-109025000D01*
X125412500Y-109025000D01*
X125435779Y-109026144D01*
X125435779Y-109026144D01*
G37*
D25*
X125125000Y-109500000D03*
D19*
G36*
X127185779Y-109026144D02*
G01*
X127208834Y-109029563D01*
X127231443Y-109035227D01*
X127253387Y-109043079D01*
X127274457Y-109053044D01*
X127294448Y-109065026D01*
X127313168Y-109078910D01*
X127330438Y-109094562D01*
X127346090Y-109111832D01*
X127359974Y-109130552D01*
X127371956Y-109150543D01*
X127381921Y-109171613D01*
X127389773Y-109193557D01*
X127395437Y-109216166D01*
X127398856Y-109239221D01*
X127400000Y-109262500D01*
X127400000Y-109737500D01*
X127398856Y-109760779D01*
X127395437Y-109783834D01*
X127389773Y-109806443D01*
X127381921Y-109828387D01*
X127371956Y-109849457D01*
X127359974Y-109869448D01*
X127346090Y-109888168D01*
X127330438Y-109905438D01*
X127313168Y-109921090D01*
X127294448Y-109934974D01*
X127274457Y-109946956D01*
X127253387Y-109956921D01*
X127231443Y-109964773D01*
X127208834Y-109970437D01*
X127185779Y-109973856D01*
X127162500Y-109975000D01*
X126587500Y-109975000D01*
X126564221Y-109973856D01*
X126541166Y-109970437D01*
X126518557Y-109964773D01*
X126496613Y-109956921D01*
X126475543Y-109946956D01*
X126455552Y-109934974D01*
X126436832Y-109921090D01*
X126419562Y-109905438D01*
X126403910Y-109888168D01*
X126390026Y-109869448D01*
X126378044Y-109849457D01*
X126368079Y-109828387D01*
X126360227Y-109806443D01*
X126354563Y-109783834D01*
X126351144Y-109760779D01*
X126350000Y-109737500D01*
X126350000Y-109262500D01*
X126351144Y-109239221D01*
X126354563Y-109216166D01*
X126360227Y-109193557D01*
X126368079Y-109171613D01*
X126378044Y-109150543D01*
X126390026Y-109130552D01*
X126403910Y-109111832D01*
X126419562Y-109094562D01*
X126436832Y-109078910D01*
X126455552Y-109065026D01*
X126475543Y-109053044D01*
X126496613Y-109043079D01*
X126518557Y-109035227D01*
X126541166Y-109029563D01*
X126564221Y-109026144D01*
X126587500Y-109025000D01*
X127162500Y-109025000D01*
X127185779Y-109026144D01*
X127185779Y-109026144D01*
G37*
D25*
X126875000Y-109500000D03*
D27*
X141309000Y-112904000D03*
X141309000Y-113554000D03*
X141309000Y-114204000D03*
X141309000Y-114854000D03*
X141309000Y-115504000D03*
X141309000Y-116154000D03*
X141309000Y-116804000D03*
X141309000Y-117454000D03*
X141309000Y-118104000D03*
X141309000Y-118754000D03*
X134389000Y-118754000D03*
X134389000Y-118104000D03*
X134389000Y-117454000D03*
X134389000Y-116804000D03*
X134389000Y-116154000D03*
X134389000Y-115504000D03*
X134389000Y-114854000D03*
X134389000Y-114204000D03*
X134389000Y-113554000D03*
X134389000Y-112904000D03*
D28*
X129316000Y-114083000D03*
X129316000Y-118083000D03*
X129316000Y-115423000D03*
X129316000Y-116743000D03*
X126316000Y-115423000D03*
X126316000Y-114083000D03*
X126316000Y-118083000D03*
X126316000Y-116743000D03*
X147590000Y-114750000D03*
X146250000Y-114750000D03*
X150250000Y-114750000D03*
X148910000Y-114750000D03*
X147590000Y-117750000D03*
X148910000Y-117750000D03*
X146250000Y-117750000D03*
X150250000Y-117750000D03*
D19*
G36*
X111374505Y-129126204D02*
G01*
X111398773Y-129129804D01*
X111422572Y-129135765D01*
X111445671Y-129144030D01*
X111467850Y-129154520D01*
X111488893Y-129167132D01*
X111508599Y-129181747D01*
X111526777Y-129198223D01*
X111543253Y-129216401D01*
X111557868Y-129236107D01*
X111570480Y-129257150D01*
X111580970Y-129279329D01*
X111589235Y-129302428D01*
X111595196Y-129326227D01*
X111598796Y-129350495D01*
X111600000Y-129374999D01*
X111600000Y-130625001D01*
X111598796Y-130649505D01*
X111595196Y-130673773D01*
X111589235Y-130697572D01*
X111580970Y-130720671D01*
X111570480Y-130742850D01*
X111557868Y-130763893D01*
X111543253Y-130783599D01*
X111526777Y-130801777D01*
X111508599Y-130818253D01*
X111488893Y-130832868D01*
X111467850Y-130845480D01*
X111445671Y-130855970D01*
X111422572Y-130864235D01*
X111398773Y-130870196D01*
X111374505Y-130873796D01*
X111350001Y-130875000D01*
X110649999Y-130875000D01*
X110625495Y-130873796D01*
X110601227Y-130870196D01*
X110577428Y-130864235D01*
X110554329Y-130855970D01*
X110532150Y-130845480D01*
X110511107Y-130832868D01*
X110491401Y-130818253D01*
X110473223Y-130801777D01*
X110456747Y-130783599D01*
X110442132Y-130763893D01*
X110429520Y-130742850D01*
X110419030Y-130720671D01*
X110410765Y-130697572D01*
X110404804Y-130673773D01*
X110401204Y-130649505D01*
X110400000Y-130625001D01*
X110400000Y-129374999D01*
X110401204Y-129350495D01*
X110404804Y-129326227D01*
X110410765Y-129302428D01*
X110419030Y-129279329D01*
X110429520Y-129257150D01*
X110442132Y-129236107D01*
X110456747Y-129216401D01*
X110473223Y-129198223D01*
X110491401Y-129181747D01*
X110511107Y-129167132D01*
X110532150Y-129154520D01*
X110554329Y-129144030D01*
X110577428Y-129135765D01*
X110601227Y-129129804D01*
X110625495Y-129126204D01*
X110649999Y-129125000D01*
X111350001Y-129125000D01*
X111374505Y-129126204D01*
X111374505Y-129126204D01*
G37*
D20*
X111000000Y-130000000D03*
D21*
X113000000Y-130000000D03*
X115000000Y-130000000D03*
X117000000Y-130000000D03*
D29*
X161400000Y-114000000D03*
X161400000Y-115000000D03*
X161400000Y-113000000D03*
X161400000Y-116000000D03*
D30*
X159000000Y-101400000D03*
X159000000Y-120600000D03*
D29*
X161400000Y-117000000D03*
X161400000Y-118000000D03*
X161400000Y-112000000D03*
X161400000Y-111000000D03*
X161400000Y-110000000D03*
X161400000Y-109000000D03*
X161400000Y-108000000D03*
X161400000Y-107000000D03*
X161400000Y-106000000D03*
X161400000Y-105000000D03*
X161400000Y-104000000D03*
D21*
X128000000Y-130000000D03*
X126000000Y-130000000D03*
X124000000Y-130000000D03*
D19*
G36*
X122374505Y-129126204D02*
G01*
X122398773Y-129129804D01*
X122422572Y-129135765D01*
X122445671Y-129144030D01*
X122467850Y-129154520D01*
X122488893Y-129167132D01*
X122508599Y-129181747D01*
X122526777Y-129198223D01*
X122543253Y-129216401D01*
X122557868Y-129236107D01*
X122570480Y-129257150D01*
X122580970Y-129279329D01*
X122589235Y-129302428D01*
X122595196Y-129326227D01*
X122598796Y-129350495D01*
X122600000Y-129374999D01*
X122600000Y-130625001D01*
X122598796Y-130649505D01*
X122595196Y-130673773D01*
X122589235Y-130697572D01*
X122580970Y-130720671D01*
X122570480Y-130742850D01*
X122557868Y-130763893D01*
X122543253Y-130783599D01*
X122526777Y-130801777D01*
X122508599Y-130818253D01*
X122488893Y-130832868D01*
X122467850Y-130845480D01*
X122445671Y-130855970D01*
X122422572Y-130864235D01*
X122398773Y-130870196D01*
X122374505Y-130873796D01*
X122350001Y-130875000D01*
X121649999Y-130875000D01*
X121625495Y-130873796D01*
X121601227Y-130870196D01*
X121577428Y-130864235D01*
X121554329Y-130855970D01*
X121532150Y-130845480D01*
X121511107Y-130832868D01*
X121491401Y-130818253D01*
X121473223Y-130801777D01*
X121456747Y-130783599D01*
X121442132Y-130763893D01*
X121429520Y-130742850D01*
X121419030Y-130720671D01*
X121410765Y-130697572D01*
X121404804Y-130673773D01*
X121401204Y-130649505D01*
X121400000Y-130625001D01*
X121400000Y-129374999D01*
X121401204Y-129350495D01*
X121404804Y-129326227D01*
X121410765Y-129302428D01*
X121419030Y-129279329D01*
X121429520Y-129257150D01*
X121442132Y-129236107D01*
X121456747Y-129216401D01*
X121473223Y-129198223D01*
X121491401Y-129181747D01*
X121511107Y-129167132D01*
X121532150Y-129154520D01*
X121554329Y-129144030D01*
X121577428Y-129135765D01*
X121601227Y-129129804D01*
X121625495Y-129126204D01*
X121649999Y-129125000D01*
X122350001Y-129125000D01*
X122374505Y-129126204D01*
X122374505Y-129126204D01*
G37*
D20*
X122000000Y-130000000D03*
D19*
G36*
X159374505Y-129126204D02*
G01*
X159398773Y-129129804D01*
X159422572Y-129135765D01*
X159445671Y-129144030D01*
X159467850Y-129154520D01*
X159488893Y-129167132D01*
X159508599Y-129181747D01*
X159526777Y-129198223D01*
X159543253Y-129216401D01*
X159557868Y-129236107D01*
X159570480Y-129257150D01*
X159580970Y-129279329D01*
X159589235Y-129302428D01*
X159595196Y-129326227D01*
X159598796Y-129350495D01*
X159600000Y-129374999D01*
X159600000Y-130625001D01*
X159598796Y-130649505D01*
X159595196Y-130673773D01*
X159589235Y-130697572D01*
X159580970Y-130720671D01*
X159570480Y-130742850D01*
X159557868Y-130763893D01*
X159543253Y-130783599D01*
X159526777Y-130801777D01*
X159508599Y-130818253D01*
X159488893Y-130832868D01*
X159467850Y-130845480D01*
X159445671Y-130855970D01*
X159422572Y-130864235D01*
X159398773Y-130870196D01*
X159374505Y-130873796D01*
X159350001Y-130875000D01*
X158649999Y-130875000D01*
X158625495Y-130873796D01*
X158601227Y-130870196D01*
X158577428Y-130864235D01*
X158554329Y-130855970D01*
X158532150Y-130845480D01*
X158511107Y-130832868D01*
X158491401Y-130818253D01*
X158473223Y-130801777D01*
X158456747Y-130783599D01*
X158442132Y-130763893D01*
X158429520Y-130742850D01*
X158419030Y-130720671D01*
X158410765Y-130697572D01*
X158404804Y-130673773D01*
X158401204Y-130649505D01*
X158400000Y-130625001D01*
X158400000Y-129374999D01*
X158401204Y-129350495D01*
X158404804Y-129326227D01*
X158410765Y-129302428D01*
X158419030Y-129279329D01*
X158429520Y-129257150D01*
X158442132Y-129236107D01*
X158456747Y-129216401D01*
X158473223Y-129198223D01*
X158491401Y-129181747D01*
X158511107Y-129167132D01*
X158532150Y-129154520D01*
X158554329Y-129144030D01*
X158577428Y-129135765D01*
X158601227Y-129129804D01*
X158625495Y-129126204D01*
X158649999Y-129125000D01*
X159350001Y-129125000D01*
X159374505Y-129126204D01*
X159374505Y-129126204D01*
G37*
D20*
X159000000Y-130000000D03*
D21*
X161000000Y-130000000D03*
X163000000Y-130000000D03*
X172000000Y-130000000D03*
X170000000Y-130000000D03*
D19*
G36*
X168374505Y-129126204D02*
G01*
X168398773Y-129129804D01*
X168422572Y-129135765D01*
X168445671Y-129144030D01*
X168467850Y-129154520D01*
X168488893Y-129167132D01*
X168508599Y-129181747D01*
X168526777Y-129198223D01*
X168543253Y-129216401D01*
X168557868Y-129236107D01*
X168570480Y-129257150D01*
X168580970Y-129279329D01*
X168589235Y-129302428D01*
X168595196Y-129326227D01*
X168598796Y-129350495D01*
X168600000Y-129374999D01*
X168600000Y-130625001D01*
X168598796Y-130649505D01*
X168595196Y-130673773D01*
X168589235Y-130697572D01*
X168580970Y-130720671D01*
X168570480Y-130742850D01*
X168557868Y-130763893D01*
X168543253Y-130783599D01*
X168526777Y-130801777D01*
X168508599Y-130818253D01*
X168488893Y-130832868D01*
X168467850Y-130845480D01*
X168445671Y-130855970D01*
X168422572Y-130864235D01*
X168398773Y-130870196D01*
X168374505Y-130873796D01*
X168350001Y-130875000D01*
X167649999Y-130875000D01*
X167625495Y-130873796D01*
X167601227Y-130870196D01*
X167577428Y-130864235D01*
X167554329Y-130855970D01*
X167532150Y-130845480D01*
X167511107Y-130832868D01*
X167491401Y-130818253D01*
X167473223Y-130801777D01*
X167456747Y-130783599D01*
X167442132Y-130763893D01*
X167429520Y-130742850D01*
X167419030Y-130720671D01*
X167410765Y-130697572D01*
X167404804Y-130673773D01*
X167401204Y-130649505D01*
X167400000Y-130625001D01*
X167400000Y-129374999D01*
X167401204Y-129350495D01*
X167404804Y-129326227D01*
X167410765Y-129302428D01*
X167419030Y-129279329D01*
X167429520Y-129257150D01*
X167442132Y-129236107D01*
X167456747Y-129216401D01*
X167473223Y-129198223D01*
X167491401Y-129181747D01*
X167511107Y-129167132D01*
X167532150Y-129154520D01*
X167554329Y-129144030D01*
X167577428Y-129135765D01*
X167601227Y-129129804D01*
X167625495Y-129126204D01*
X167649999Y-129125000D01*
X168350001Y-129125000D01*
X168374505Y-129126204D01*
X168374505Y-129126204D01*
G37*
D20*
X168000000Y-130000000D03*
D19*
G36*
X148374505Y-129126204D02*
G01*
X148398773Y-129129804D01*
X148422572Y-129135765D01*
X148445671Y-129144030D01*
X148467850Y-129154520D01*
X148488893Y-129167132D01*
X148508599Y-129181747D01*
X148526777Y-129198223D01*
X148543253Y-129216401D01*
X148557868Y-129236107D01*
X148570480Y-129257150D01*
X148580970Y-129279329D01*
X148589235Y-129302428D01*
X148595196Y-129326227D01*
X148598796Y-129350495D01*
X148600000Y-129374999D01*
X148600000Y-130625001D01*
X148598796Y-130649505D01*
X148595196Y-130673773D01*
X148589235Y-130697572D01*
X148580970Y-130720671D01*
X148570480Y-130742850D01*
X148557868Y-130763893D01*
X148543253Y-130783599D01*
X148526777Y-130801777D01*
X148508599Y-130818253D01*
X148488893Y-130832868D01*
X148467850Y-130845480D01*
X148445671Y-130855970D01*
X148422572Y-130864235D01*
X148398773Y-130870196D01*
X148374505Y-130873796D01*
X148350001Y-130875000D01*
X147649999Y-130875000D01*
X147625495Y-130873796D01*
X147601227Y-130870196D01*
X147577428Y-130864235D01*
X147554329Y-130855970D01*
X147532150Y-130845480D01*
X147511107Y-130832868D01*
X147491401Y-130818253D01*
X147473223Y-130801777D01*
X147456747Y-130783599D01*
X147442132Y-130763893D01*
X147429520Y-130742850D01*
X147419030Y-130720671D01*
X147410765Y-130697572D01*
X147404804Y-130673773D01*
X147401204Y-130649505D01*
X147400000Y-130625001D01*
X147400000Y-129374999D01*
X147401204Y-129350495D01*
X147404804Y-129326227D01*
X147410765Y-129302428D01*
X147419030Y-129279329D01*
X147429520Y-129257150D01*
X147442132Y-129236107D01*
X147456747Y-129216401D01*
X147473223Y-129198223D01*
X147491401Y-129181747D01*
X147511107Y-129167132D01*
X147532150Y-129154520D01*
X147554329Y-129144030D01*
X147577428Y-129135765D01*
X147601227Y-129129804D01*
X147625495Y-129126204D01*
X147649999Y-129125000D01*
X148350001Y-129125000D01*
X148374505Y-129126204D01*
X148374505Y-129126204D01*
G37*
D20*
X148000000Y-130000000D03*
D21*
X150000000Y-130000000D03*
X152000000Y-130000000D03*
X154000000Y-130000000D03*
D31*
X119000000Y-114000000D03*
D19*
G36*
X119649505Y-115401204D02*
G01*
X119673773Y-115404804D01*
X119697572Y-115410765D01*
X119720671Y-115419030D01*
X119742850Y-115429520D01*
X119763893Y-115442132D01*
X119783599Y-115456747D01*
X119801777Y-115473223D01*
X119818253Y-115491401D01*
X119832868Y-115511107D01*
X119845480Y-115532150D01*
X119855970Y-115554329D01*
X119864235Y-115577428D01*
X119870196Y-115601227D01*
X119873796Y-115625495D01*
X119875000Y-115649999D01*
X119875000Y-116350001D01*
X119873796Y-116374505D01*
X119870196Y-116398773D01*
X119864235Y-116422572D01*
X119855970Y-116445671D01*
X119845480Y-116467850D01*
X119832868Y-116488893D01*
X119818253Y-116508599D01*
X119801777Y-116526777D01*
X119783599Y-116543253D01*
X119763893Y-116557868D01*
X119742850Y-116570480D01*
X119720671Y-116580970D01*
X119697572Y-116589235D01*
X119673773Y-116595196D01*
X119649505Y-116598796D01*
X119625001Y-116600000D01*
X118374999Y-116600000D01*
X118350495Y-116598796D01*
X118326227Y-116595196D01*
X118302428Y-116589235D01*
X118279329Y-116580970D01*
X118257150Y-116570480D01*
X118236107Y-116557868D01*
X118216401Y-116543253D01*
X118198223Y-116526777D01*
X118181747Y-116508599D01*
X118167132Y-116488893D01*
X118154520Y-116467850D01*
X118144030Y-116445671D01*
X118135765Y-116422572D01*
X118129804Y-116398773D01*
X118126204Y-116374505D01*
X118125000Y-116350001D01*
X118125000Y-115649999D01*
X118126204Y-115625495D01*
X118129804Y-115601227D01*
X118135765Y-115577428D01*
X118144030Y-115554329D01*
X118154520Y-115532150D01*
X118167132Y-115511107D01*
X118181747Y-115491401D01*
X118198223Y-115473223D01*
X118216401Y-115456747D01*
X118236107Y-115442132D01*
X118257150Y-115429520D01*
X118279329Y-115419030D01*
X118302428Y-115410765D01*
X118326227Y-115404804D01*
X118350495Y-115401204D01*
X118374999Y-115400000D01*
X119625001Y-115400000D01*
X119649505Y-115401204D01*
X119649505Y-115401204D01*
G37*
D20*
X119000000Y-116000000D03*
D19*
G36*
X119649505Y-122401204D02*
G01*
X119673773Y-122404804D01*
X119697572Y-122410765D01*
X119720671Y-122419030D01*
X119742850Y-122429520D01*
X119763893Y-122442132D01*
X119783599Y-122456747D01*
X119801777Y-122473223D01*
X119818253Y-122491401D01*
X119832868Y-122511107D01*
X119845480Y-122532150D01*
X119855970Y-122554329D01*
X119864235Y-122577428D01*
X119870196Y-122601227D01*
X119873796Y-122625495D01*
X119875000Y-122649999D01*
X119875000Y-123350001D01*
X119873796Y-123374505D01*
X119870196Y-123398773D01*
X119864235Y-123422572D01*
X119855970Y-123445671D01*
X119845480Y-123467850D01*
X119832868Y-123488893D01*
X119818253Y-123508599D01*
X119801777Y-123526777D01*
X119783599Y-123543253D01*
X119763893Y-123557868D01*
X119742850Y-123570480D01*
X119720671Y-123580970D01*
X119697572Y-123589235D01*
X119673773Y-123595196D01*
X119649505Y-123598796D01*
X119625001Y-123600000D01*
X118374999Y-123600000D01*
X118350495Y-123598796D01*
X118326227Y-123595196D01*
X118302428Y-123589235D01*
X118279329Y-123580970D01*
X118257150Y-123570480D01*
X118236107Y-123557868D01*
X118216401Y-123543253D01*
X118198223Y-123526777D01*
X118181747Y-123508599D01*
X118167132Y-123488893D01*
X118154520Y-123467850D01*
X118144030Y-123445671D01*
X118135765Y-123422572D01*
X118129804Y-123398773D01*
X118126204Y-123374505D01*
X118125000Y-123350001D01*
X118125000Y-122649999D01*
X118126204Y-122625495D01*
X118129804Y-122601227D01*
X118135765Y-122577428D01*
X118144030Y-122554329D01*
X118154520Y-122532150D01*
X118167132Y-122511107D01*
X118181747Y-122491401D01*
X118198223Y-122473223D01*
X118216401Y-122456747D01*
X118236107Y-122442132D01*
X118257150Y-122429520D01*
X118279329Y-122419030D01*
X118302428Y-122410765D01*
X118326227Y-122404804D01*
X118350495Y-122401204D01*
X118374999Y-122400000D01*
X119625001Y-122400000D01*
X119649505Y-122401204D01*
X119649505Y-122401204D01*
G37*
D20*
X119000000Y-123000000D03*
D31*
X119000000Y-121000000D03*
X112000000Y-109000000D03*
X112000000Y-107000000D03*
X112000000Y-105000000D03*
X112000000Y-103000000D03*
D19*
G36*
X112649505Y-100401204D02*
G01*
X112673773Y-100404804D01*
X112697572Y-100410765D01*
X112720671Y-100419030D01*
X112742850Y-100429520D01*
X112763893Y-100442132D01*
X112783599Y-100456747D01*
X112801777Y-100473223D01*
X112818253Y-100491401D01*
X112832868Y-100511107D01*
X112845480Y-100532150D01*
X112855970Y-100554329D01*
X112864235Y-100577428D01*
X112870196Y-100601227D01*
X112873796Y-100625495D01*
X112875000Y-100649999D01*
X112875000Y-101350001D01*
X112873796Y-101374505D01*
X112870196Y-101398773D01*
X112864235Y-101422572D01*
X112855970Y-101445671D01*
X112845480Y-101467850D01*
X112832868Y-101488893D01*
X112818253Y-101508599D01*
X112801777Y-101526777D01*
X112783599Y-101543253D01*
X112763893Y-101557868D01*
X112742850Y-101570480D01*
X112720671Y-101580970D01*
X112697572Y-101589235D01*
X112673773Y-101595196D01*
X112649505Y-101598796D01*
X112625001Y-101600000D01*
X111374999Y-101600000D01*
X111350495Y-101598796D01*
X111326227Y-101595196D01*
X111302428Y-101589235D01*
X111279329Y-101580970D01*
X111257150Y-101570480D01*
X111236107Y-101557868D01*
X111216401Y-101543253D01*
X111198223Y-101526777D01*
X111181747Y-101508599D01*
X111167132Y-101488893D01*
X111154520Y-101467850D01*
X111144030Y-101445671D01*
X111135765Y-101422572D01*
X111129804Y-101398773D01*
X111126204Y-101374505D01*
X111125000Y-101350001D01*
X111125000Y-100649999D01*
X111126204Y-100625495D01*
X111129804Y-100601227D01*
X111135765Y-100577428D01*
X111144030Y-100554329D01*
X111154520Y-100532150D01*
X111167132Y-100511107D01*
X111181747Y-100491401D01*
X111198223Y-100473223D01*
X111216401Y-100456747D01*
X111236107Y-100442132D01*
X111257150Y-100429520D01*
X111279329Y-100419030D01*
X111302428Y-100410765D01*
X111326227Y-100404804D01*
X111350495Y-100401204D01*
X111374999Y-100400000D01*
X112625001Y-100400000D01*
X112649505Y-100401204D01*
X112649505Y-100401204D01*
G37*
D20*
X112000000Y-101000000D03*
D19*
G36*
X112649505Y-87401204D02*
G01*
X112673773Y-87404804D01*
X112697572Y-87410765D01*
X112720671Y-87419030D01*
X112742850Y-87429520D01*
X112763893Y-87442132D01*
X112783599Y-87456747D01*
X112801777Y-87473223D01*
X112818253Y-87491401D01*
X112832868Y-87511107D01*
X112845480Y-87532150D01*
X112855970Y-87554329D01*
X112864235Y-87577428D01*
X112870196Y-87601227D01*
X112873796Y-87625495D01*
X112875000Y-87649999D01*
X112875000Y-88350001D01*
X112873796Y-88374505D01*
X112870196Y-88398773D01*
X112864235Y-88422572D01*
X112855970Y-88445671D01*
X112845480Y-88467850D01*
X112832868Y-88488893D01*
X112818253Y-88508599D01*
X112801777Y-88526777D01*
X112783599Y-88543253D01*
X112763893Y-88557868D01*
X112742850Y-88570480D01*
X112720671Y-88580970D01*
X112697572Y-88589235D01*
X112673773Y-88595196D01*
X112649505Y-88598796D01*
X112625001Y-88600000D01*
X111374999Y-88600000D01*
X111350495Y-88598796D01*
X111326227Y-88595196D01*
X111302428Y-88589235D01*
X111279329Y-88580970D01*
X111257150Y-88570480D01*
X111236107Y-88557868D01*
X111216401Y-88543253D01*
X111198223Y-88526777D01*
X111181747Y-88508599D01*
X111167132Y-88488893D01*
X111154520Y-88467850D01*
X111144030Y-88445671D01*
X111135765Y-88422572D01*
X111129804Y-88398773D01*
X111126204Y-88374505D01*
X111125000Y-88350001D01*
X111125000Y-87649999D01*
X111126204Y-87625495D01*
X111129804Y-87601227D01*
X111135765Y-87577428D01*
X111144030Y-87554329D01*
X111154520Y-87532150D01*
X111167132Y-87511107D01*
X111181747Y-87491401D01*
X111198223Y-87473223D01*
X111216401Y-87456747D01*
X111236107Y-87442132D01*
X111257150Y-87429520D01*
X111279329Y-87419030D01*
X111302428Y-87410765D01*
X111326227Y-87404804D01*
X111350495Y-87401204D01*
X111374999Y-87400000D01*
X112625001Y-87400000D01*
X112649505Y-87401204D01*
X112649505Y-87401204D01*
G37*
D20*
X112000000Y-88000000D03*
D31*
X112000000Y-90000000D03*
X112000000Y-92000000D03*
X112000000Y-94000000D03*
X112000000Y-96000000D03*
M02*
