G04 #@! TF.GenerationSoftware,KiCad,Pcbnew,(5.1.0)-1*
G04 #@! TF.CreationDate,2020-06-23T20:51:49+01:00*
G04 #@! TF.ProjectId,Universal Interface Board - Copy,556e6976-6572-4736-916c-20496e746572,-*
G04 #@! TF.SameCoordinates,Original*
G04 #@! TF.FileFunction,Paste,Top*
G04 #@! TF.FilePolarity,Positive*
%FSLAX46Y46*%
G04 Gerber Fmt 4.6, Leading zero omitted, Abs format (unit mm)*
G04 Created by KiCad (PCBNEW (5.1.0)-1) date 2020-06-23 20:51:49*
%MOMM*%
%LPD*%
G04 APERTURE LIST*
%ADD10R,1.180000X0.610000*%
%ADD11R,0.600000X1.550000*%
%ADD12R,1.600200X2.997200*%
%ADD13R,4.826000X4.191000*%
%ADD14C,0.150000*%
%ADD15C,0.950000*%
%ADD16C,1.425000*%
%ADD17R,1.100000X1.100000*%
%ADD18R,2.200000X2.700000*%
%ADD19R,0.600000X0.900000*%
%ADD20C,1.150000*%
%ADD21R,0.900000X0.800000*%
%ADD22R,0.600000X1.300000*%
%ADD23R,0.900000X0.900000*%
%ADD24R,1.900000X1.300000*%
%ADD25C,0.300000*%
G04 APERTURE END LIST*
D10*
X164975000Y-74500000D03*
X167025000Y-73585000D03*
X167025000Y-75415000D03*
D11*
X140395000Y-114900000D03*
X141665000Y-114900000D03*
X142935000Y-114900000D03*
X144205000Y-114900000D03*
X144205000Y-109500000D03*
X142935000Y-109500000D03*
X141665000Y-109500000D03*
X140395000Y-109500000D03*
D12*
X119760600Y-102142400D03*
X115290200Y-102142400D03*
D13*
X117500000Y-110422800D03*
D14*
G36*
X166810779Y-76776144D02*
G01*
X166833834Y-76779563D01*
X166856443Y-76785227D01*
X166878387Y-76793079D01*
X166899457Y-76803044D01*
X166919448Y-76815026D01*
X166938168Y-76828910D01*
X166955438Y-76844562D01*
X166971090Y-76861832D01*
X166984974Y-76880552D01*
X166996956Y-76900543D01*
X167006921Y-76921613D01*
X167014773Y-76943557D01*
X167020437Y-76966166D01*
X167023856Y-76989221D01*
X167025000Y-77012500D01*
X167025000Y-77487500D01*
X167023856Y-77510779D01*
X167020437Y-77533834D01*
X167014773Y-77556443D01*
X167006921Y-77578387D01*
X166996956Y-77599457D01*
X166984974Y-77619448D01*
X166971090Y-77638168D01*
X166955438Y-77655438D01*
X166938168Y-77671090D01*
X166919448Y-77684974D01*
X166899457Y-77696956D01*
X166878387Y-77706921D01*
X166856443Y-77714773D01*
X166833834Y-77720437D01*
X166810779Y-77723856D01*
X166787500Y-77725000D01*
X166212500Y-77725000D01*
X166189221Y-77723856D01*
X166166166Y-77720437D01*
X166143557Y-77714773D01*
X166121613Y-77706921D01*
X166100543Y-77696956D01*
X166080552Y-77684974D01*
X166061832Y-77671090D01*
X166044562Y-77655438D01*
X166028910Y-77638168D01*
X166015026Y-77619448D01*
X166003044Y-77599457D01*
X165993079Y-77578387D01*
X165985227Y-77556443D01*
X165979563Y-77533834D01*
X165976144Y-77510779D01*
X165975000Y-77487500D01*
X165975000Y-77012500D01*
X165976144Y-76989221D01*
X165979563Y-76966166D01*
X165985227Y-76943557D01*
X165993079Y-76921613D01*
X166003044Y-76900543D01*
X166015026Y-76880552D01*
X166028910Y-76861832D01*
X166044562Y-76844562D01*
X166061832Y-76828910D01*
X166080552Y-76815026D01*
X166100543Y-76803044D01*
X166121613Y-76793079D01*
X166143557Y-76785227D01*
X166166166Y-76779563D01*
X166189221Y-76776144D01*
X166212500Y-76775000D01*
X166787500Y-76775000D01*
X166810779Y-76776144D01*
X166810779Y-76776144D01*
G37*
D15*
X166500000Y-77250000D03*
D14*
G36*
X168560779Y-76776144D02*
G01*
X168583834Y-76779563D01*
X168606443Y-76785227D01*
X168628387Y-76793079D01*
X168649457Y-76803044D01*
X168669448Y-76815026D01*
X168688168Y-76828910D01*
X168705438Y-76844562D01*
X168721090Y-76861832D01*
X168734974Y-76880552D01*
X168746956Y-76900543D01*
X168756921Y-76921613D01*
X168764773Y-76943557D01*
X168770437Y-76966166D01*
X168773856Y-76989221D01*
X168775000Y-77012500D01*
X168775000Y-77487500D01*
X168773856Y-77510779D01*
X168770437Y-77533834D01*
X168764773Y-77556443D01*
X168756921Y-77578387D01*
X168746956Y-77599457D01*
X168734974Y-77619448D01*
X168721090Y-77638168D01*
X168705438Y-77655438D01*
X168688168Y-77671090D01*
X168669448Y-77684974D01*
X168649457Y-77696956D01*
X168628387Y-77706921D01*
X168606443Y-77714773D01*
X168583834Y-77720437D01*
X168560779Y-77723856D01*
X168537500Y-77725000D01*
X167962500Y-77725000D01*
X167939221Y-77723856D01*
X167916166Y-77720437D01*
X167893557Y-77714773D01*
X167871613Y-77706921D01*
X167850543Y-77696956D01*
X167830552Y-77684974D01*
X167811832Y-77671090D01*
X167794562Y-77655438D01*
X167778910Y-77638168D01*
X167765026Y-77619448D01*
X167753044Y-77599457D01*
X167743079Y-77578387D01*
X167735227Y-77556443D01*
X167729563Y-77533834D01*
X167726144Y-77510779D01*
X167725000Y-77487500D01*
X167725000Y-77012500D01*
X167726144Y-76989221D01*
X167729563Y-76966166D01*
X167735227Y-76943557D01*
X167743079Y-76921613D01*
X167753044Y-76900543D01*
X167765026Y-76880552D01*
X167778910Y-76861832D01*
X167794562Y-76844562D01*
X167811832Y-76828910D01*
X167830552Y-76815026D01*
X167850543Y-76803044D01*
X167871613Y-76793079D01*
X167893557Y-76785227D01*
X167916166Y-76779563D01*
X167939221Y-76776144D01*
X167962500Y-76775000D01*
X168537500Y-76775000D01*
X168560779Y-76776144D01*
X168560779Y-76776144D01*
G37*
D15*
X168250000Y-77250000D03*
D14*
G36*
X159474504Y-109026204D02*
G01*
X159498773Y-109029804D01*
X159522571Y-109035765D01*
X159545671Y-109044030D01*
X159567849Y-109054520D01*
X159588893Y-109067133D01*
X159608598Y-109081747D01*
X159626777Y-109098223D01*
X159643253Y-109116402D01*
X159657867Y-109136107D01*
X159670480Y-109157151D01*
X159680970Y-109179329D01*
X159689235Y-109202429D01*
X159695196Y-109226227D01*
X159698796Y-109250496D01*
X159700000Y-109275000D01*
X159700000Y-110525000D01*
X159698796Y-110549504D01*
X159695196Y-110573773D01*
X159689235Y-110597571D01*
X159680970Y-110620671D01*
X159670480Y-110642849D01*
X159657867Y-110663893D01*
X159643253Y-110683598D01*
X159626777Y-110701777D01*
X159608598Y-110718253D01*
X159588893Y-110732867D01*
X159567849Y-110745480D01*
X159545671Y-110755970D01*
X159522571Y-110764235D01*
X159498773Y-110770196D01*
X159474504Y-110773796D01*
X159450000Y-110775000D01*
X158525000Y-110775000D01*
X158500496Y-110773796D01*
X158476227Y-110770196D01*
X158452429Y-110764235D01*
X158429329Y-110755970D01*
X158407151Y-110745480D01*
X158386107Y-110732867D01*
X158366402Y-110718253D01*
X158348223Y-110701777D01*
X158331747Y-110683598D01*
X158317133Y-110663893D01*
X158304520Y-110642849D01*
X158294030Y-110620671D01*
X158285765Y-110597571D01*
X158279804Y-110573773D01*
X158276204Y-110549504D01*
X158275000Y-110525000D01*
X158275000Y-109275000D01*
X158276204Y-109250496D01*
X158279804Y-109226227D01*
X158285765Y-109202429D01*
X158294030Y-109179329D01*
X158304520Y-109157151D01*
X158317133Y-109136107D01*
X158331747Y-109116402D01*
X158348223Y-109098223D01*
X158366402Y-109081747D01*
X158386107Y-109067133D01*
X158407151Y-109054520D01*
X158429329Y-109044030D01*
X158452429Y-109035765D01*
X158476227Y-109029804D01*
X158500496Y-109026204D01*
X158525000Y-109025000D01*
X159450000Y-109025000D01*
X159474504Y-109026204D01*
X159474504Y-109026204D01*
G37*
D16*
X158987500Y-109900000D03*
D14*
G36*
X156499504Y-109026204D02*
G01*
X156523773Y-109029804D01*
X156547571Y-109035765D01*
X156570671Y-109044030D01*
X156592849Y-109054520D01*
X156613893Y-109067133D01*
X156633598Y-109081747D01*
X156651777Y-109098223D01*
X156668253Y-109116402D01*
X156682867Y-109136107D01*
X156695480Y-109157151D01*
X156705970Y-109179329D01*
X156714235Y-109202429D01*
X156720196Y-109226227D01*
X156723796Y-109250496D01*
X156725000Y-109275000D01*
X156725000Y-110525000D01*
X156723796Y-110549504D01*
X156720196Y-110573773D01*
X156714235Y-110597571D01*
X156705970Y-110620671D01*
X156695480Y-110642849D01*
X156682867Y-110663893D01*
X156668253Y-110683598D01*
X156651777Y-110701777D01*
X156633598Y-110718253D01*
X156613893Y-110732867D01*
X156592849Y-110745480D01*
X156570671Y-110755970D01*
X156547571Y-110764235D01*
X156523773Y-110770196D01*
X156499504Y-110773796D01*
X156475000Y-110775000D01*
X155550000Y-110775000D01*
X155525496Y-110773796D01*
X155501227Y-110770196D01*
X155477429Y-110764235D01*
X155454329Y-110755970D01*
X155432151Y-110745480D01*
X155411107Y-110732867D01*
X155391402Y-110718253D01*
X155373223Y-110701777D01*
X155356747Y-110683598D01*
X155342133Y-110663893D01*
X155329520Y-110642849D01*
X155319030Y-110620671D01*
X155310765Y-110597571D01*
X155304804Y-110573773D01*
X155301204Y-110549504D01*
X155300000Y-110525000D01*
X155300000Y-109275000D01*
X155301204Y-109250496D01*
X155304804Y-109226227D01*
X155310765Y-109202429D01*
X155319030Y-109179329D01*
X155329520Y-109157151D01*
X155342133Y-109136107D01*
X155356747Y-109116402D01*
X155373223Y-109098223D01*
X155391402Y-109081747D01*
X155411107Y-109067133D01*
X155432151Y-109054520D01*
X155454329Y-109044030D01*
X155477429Y-109035765D01*
X155501227Y-109029804D01*
X155525496Y-109026204D01*
X155550000Y-109025000D01*
X156475000Y-109025000D01*
X156499504Y-109026204D01*
X156499504Y-109026204D01*
G37*
D16*
X156012500Y-109900000D03*
D14*
G36*
X156399504Y-93826204D02*
G01*
X156423773Y-93829804D01*
X156447571Y-93835765D01*
X156470671Y-93844030D01*
X156492849Y-93854520D01*
X156513893Y-93867133D01*
X156533598Y-93881747D01*
X156551777Y-93898223D01*
X156568253Y-93916402D01*
X156582867Y-93936107D01*
X156595480Y-93957151D01*
X156605970Y-93979329D01*
X156614235Y-94002429D01*
X156620196Y-94026227D01*
X156623796Y-94050496D01*
X156625000Y-94075000D01*
X156625000Y-95325000D01*
X156623796Y-95349504D01*
X156620196Y-95373773D01*
X156614235Y-95397571D01*
X156605970Y-95420671D01*
X156595480Y-95442849D01*
X156582867Y-95463893D01*
X156568253Y-95483598D01*
X156551777Y-95501777D01*
X156533598Y-95518253D01*
X156513893Y-95532867D01*
X156492849Y-95545480D01*
X156470671Y-95555970D01*
X156447571Y-95564235D01*
X156423773Y-95570196D01*
X156399504Y-95573796D01*
X156375000Y-95575000D01*
X155450000Y-95575000D01*
X155425496Y-95573796D01*
X155401227Y-95570196D01*
X155377429Y-95564235D01*
X155354329Y-95555970D01*
X155332151Y-95545480D01*
X155311107Y-95532867D01*
X155291402Y-95518253D01*
X155273223Y-95501777D01*
X155256747Y-95483598D01*
X155242133Y-95463893D01*
X155229520Y-95442849D01*
X155219030Y-95420671D01*
X155210765Y-95397571D01*
X155204804Y-95373773D01*
X155201204Y-95349504D01*
X155200000Y-95325000D01*
X155200000Y-94075000D01*
X155201204Y-94050496D01*
X155204804Y-94026227D01*
X155210765Y-94002429D01*
X155219030Y-93979329D01*
X155229520Y-93957151D01*
X155242133Y-93936107D01*
X155256747Y-93916402D01*
X155273223Y-93898223D01*
X155291402Y-93881747D01*
X155311107Y-93867133D01*
X155332151Y-93854520D01*
X155354329Y-93844030D01*
X155377429Y-93835765D01*
X155401227Y-93829804D01*
X155425496Y-93826204D01*
X155450000Y-93825000D01*
X156375000Y-93825000D01*
X156399504Y-93826204D01*
X156399504Y-93826204D01*
G37*
D16*
X155912500Y-94700000D03*
D14*
G36*
X159374504Y-93826204D02*
G01*
X159398773Y-93829804D01*
X159422571Y-93835765D01*
X159445671Y-93844030D01*
X159467849Y-93854520D01*
X159488893Y-93867133D01*
X159508598Y-93881747D01*
X159526777Y-93898223D01*
X159543253Y-93916402D01*
X159557867Y-93936107D01*
X159570480Y-93957151D01*
X159580970Y-93979329D01*
X159589235Y-94002429D01*
X159595196Y-94026227D01*
X159598796Y-94050496D01*
X159600000Y-94075000D01*
X159600000Y-95325000D01*
X159598796Y-95349504D01*
X159595196Y-95373773D01*
X159589235Y-95397571D01*
X159580970Y-95420671D01*
X159570480Y-95442849D01*
X159557867Y-95463893D01*
X159543253Y-95483598D01*
X159526777Y-95501777D01*
X159508598Y-95518253D01*
X159488893Y-95532867D01*
X159467849Y-95545480D01*
X159445671Y-95555970D01*
X159422571Y-95564235D01*
X159398773Y-95570196D01*
X159374504Y-95573796D01*
X159350000Y-95575000D01*
X158425000Y-95575000D01*
X158400496Y-95573796D01*
X158376227Y-95570196D01*
X158352429Y-95564235D01*
X158329329Y-95555970D01*
X158307151Y-95545480D01*
X158286107Y-95532867D01*
X158266402Y-95518253D01*
X158248223Y-95501777D01*
X158231747Y-95483598D01*
X158217133Y-95463893D01*
X158204520Y-95442849D01*
X158194030Y-95420671D01*
X158185765Y-95397571D01*
X158179804Y-95373773D01*
X158176204Y-95349504D01*
X158175000Y-95325000D01*
X158175000Y-94075000D01*
X158176204Y-94050496D01*
X158179804Y-94026227D01*
X158185765Y-94002429D01*
X158194030Y-93979329D01*
X158204520Y-93957151D01*
X158217133Y-93936107D01*
X158231747Y-93916402D01*
X158248223Y-93898223D01*
X158266402Y-93881747D01*
X158286107Y-93867133D01*
X158307151Y-93854520D01*
X158329329Y-93844030D01*
X158352429Y-93835765D01*
X158376227Y-93829804D01*
X158400496Y-93826204D01*
X158425000Y-93825000D01*
X159350000Y-93825000D01*
X159374504Y-93826204D01*
X159374504Y-93826204D01*
G37*
D16*
X158887500Y-94700000D03*
D14*
G36*
X122199504Y-110626204D02*
G01*
X122223773Y-110629804D01*
X122247571Y-110635765D01*
X122270671Y-110644030D01*
X122292849Y-110654520D01*
X122313893Y-110667133D01*
X122333598Y-110681747D01*
X122351777Y-110698223D01*
X122368253Y-110716402D01*
X122382867Y-110736107D01*
X122395480Y-110757151D01*
X122405970Y-110779329D01*
X122414235Y-110802429D01*
X122420196Y-110826227D01*
X122423796Y-110850496D01*
X122425000Y-110875000D01*
X122425000Y-112125000D01*
X122423796Y-112149504D01*
X122420196Y-112173773D01*
X122414235Y-112197571D01*
X122405970Y-112220671D01*
X122395480Y-112242849D01*
X122382867Y-112263893D01*
X122368253Y-112283598D01*
X122351777Y-112301777D01*
X122333598Y-112318253D01*
X122313893Y-112332867D01*
X122292849Y-112345480D01*
X122270671Y-112355970D01*
X122247571Y-112364235D01*
X122223773Y-112370196D01*
X122199504Y-112373796D01*
X122175000Y-112375000D01*
X121250000Y-112375000D01*
X121225496Y-112373796D01*
X121201227Y-112370196D01*
X121177429Y-112364235D01*
X121154329Y-112355970D01*
X121132151Y-112345480D01*
X121111107Y-112332867D01*
X121091402Y-112318253D01*
X121073223Y-112301777D01*
X121056747Y-112283598D01*
X121042133Y-112263893D01*
X121029520Y-112242849D01*
X121019030Y-112220671D01*
X121010765Y-112197571D01*
X121004804Y-112173773D01*
X121001204Y-112149504D01*
X121000000Y-112125000D01*
X121000000Y-110875000D01*
X121001204Y-110850496D01*
X121004804Y-110826227D01*
X121010765Y-110802429D01*
X121019030Y-110779329D01*
X121029520Y-110757151D01*
X121042133Y-110736107D01*
X121056747Y-110716402D01*
X121073223Y-110698223D01*
X121091402Y-110681747D01*
X121111107Y-110667133D01*
X121132151Y-110654520D01*
X121154329Y-110644030D01*
X121177429Y-110635765D01*
X121201227Y-110629804D01*
X121225496Y-110626204D01*
X121250000Y-110625000D01*
X122175000Y-110625000D01*
X122199504Y-110626204D01*
X122199504Y-110626204D01*
G37*
D16*
X121712500Y-111500000D03*
D14*
G36*
X125174504Y-110626204D02*
G01*
X125198773Y-110629804D01*
X125222571Y-110635765D01*
X125245671Y-110644030D01*
X125267849Y-110654520D01*
X125288893Y-110667133D01*
X125308598Y-110681747D01*
X125326777Y-110698223D01*
X125343253Y-110716402D01*
X125357867Y-110736107D01*
X125370480Y-110757151D01*
X125380970Y-110779329D01*
X125389235Y-110802429D01*
X125395196Y-110826227D01*
X125398796Y-110850496D01*
X125400000Y-110875000D01*
X125400000Y-112125000D01*
X125398796Y-112149504D01*
X125395196Y-112173773D01*
X125389235Y-112197571D01*
X125380970Y-112220671D01*
X125370480Y-112242849D01*
X125357867Y-112263893D01*
X125343253Y-112283598D01*
X125326777Y-112301777D01*
X125308598Y-112318253D01*
X125288893Y-112332867D01*
X125267849Y-112345480D01*
X125245671Y-112355970D01*
X125222571Y-112364235D01*
X125198773Y-112370196D01*
X125174504Y-112373796D01*
X125150000Y-112375000D01*
X124225000Y-112375000D01*
X124200496Y-112373796D01*
X124176227Y-112370196D01*
X124152429Y-112364235D01*
X124129329Y-112355970D01*
X124107151Y-112345480D01*
X124086107Y-112332867D01*
X124066402Y-112318253D01*
X124048223Y-112301777D01*
X124031747Y-112283598D01*
X124017133Y-112263893D01*
X124004520Y-112242849D01*
X123994030Y-112220671D01*
X123985765Y-112197571D01*
X123979804Y-112173773D01*
X123976204Y-112149504D01*
X123975000Y-112125000D01*
X123975000Y-110875000D01*
X123976204Y-110850496D01*
X123979804Y-110826227D01*
X123985765Y-110802429D01*
X123994030Y-110779329D01*
X124004520Y-110757151D01*
X124017133Y-110736107D01*
X124031747Y-110716402D01*
X124048223Y-110698223D01*
X124066402Y-110681747D01*
X124086107Y-110667133D01*
X124107151Y-110654520D01*
X124129329Y-110644030D01*
X124152429Y-110635765D01*
X124176227Y-110629804D01*
X124200496Y-110626204D01*
X124225000Y-110625000D01*
X125150000Y-110625000D01*
X125174504Y-110626204D01*
X125174504Y-110626204D01*
G37*
D16*
X124687500Y-111500000D03*
D14*
G36*
X171849504Y-76776204D02*
G01*
X171873773Y-76779804D01*
X171897571Y-76785765D01*
X171920671Y-76794030D01*
X171942849Y-76804520D01*
X171963893Y-76817133D01*
X171983598Y-76831747D01*
X172001777Y-76848223D01*
X172018253Y-76866402D01*
X172032867Y-76886107D01*
X172045480Y-76907151D01*
X172055970Y-76929329D01*
X172064235Y-76952429D01*
X172070196Y-76976227D01*
X172073796Y-77000496D01*
X172075000Y-77025000D01*
X172075000Y-77950000D01*
X172073796Y-77974504D01*
X172070196Y-77998773D01*
X172064235Y-78022571D01*
X172055970Y-78045671D01*
X172045480Y-78067849D01*
X172032867Y-78088893D01*
X172018253Y-78108598D01*
X172001777Y-78126777D01*
X171983598Y-78143253D01*
X171963893Y-78157867D01*
X171942849Y-78170480D01*
X171920671Y-78180970D01*
X171897571Y-78189235D01*
X171873773Y-78195196D01*
X171849504Y-78198796D01*
X171825000Y-78200000D01*
X169675000Y-78200000D01*
X169650496Y-78198796D01*
X169626227Y-78195196D01*
X169602429Y-78189235D01*
X169579329Y-78180970D01*
X169557151Y-78170480D01*
X169536107Y-78157867D01*
X169516402Y-78143253D01*
X169498223Y-78126777D01*
X169481747Y-78108598D01*
X169467133Y-78088893D01*
X169454520Y-78067849D01*
X169444030Y-78045671D01*
X169435765Y-78022571D01*
X169429804Y-77998773D01*
X169426204Y-77974504D01*
X169425000Y-77950000D01*
X169425000Y-77025000D01*
X169426204Y-77000496D01*
X169429804Y-76976227D01*
X169435765Y-76952429D01*
X169444030Y-76929329D01*
X169454520Y-76907151D01*
X169467133Y-76886107D01*
X169481747Y-76866402D01*
X169498223Y-76848223D01*
X169516402Y-76831747D01*
X169536107Y-76817133D01*
X169557151Y-76804520D01*
X169579329Y-76794030D01*
X169602429Y-76785765D01*
X169626227Y-76779804D01*
X169650496Y-76776204D01*
X169675000Y-76775000D01*
X171825000Y-76775000D01*
X171849504Y-76776204D01*
X171849504Y-76776204D01*
G37*
D16*
X170750000Y-77487500D03*
D14*
G36*
X171849504Y-73801204D02*
G01*
X171873773Y-73804804D01*
X171897571Y-73810765D01*
X171920671Y-73819030D01*
X171942849Y-73829520D01*
X171963893Y-73842133D01*
X171983598Y-73856747D01*
X172001777Y-73873223D01*
X172018253Y-73891402D01*
X172032867Y-73911107D01*
X172045480Y-73932151D01*
X172055970Y-73954329D01*
X172064235Y-73977429D01*
X172070196Y-74001227D01*
X172073796Y-74025496D01*
X172075000Y-74050000D01*
X172075000Y-74975000D01*
X172073796Y-74999504D01*
X172070196Y-75023773D01*
X172064235Y-75047571D01*
X172055970Y-75070671D01*
X172045480Y-75092849D01*
X172032867Y-75113893D01*
X172018253Y-75133598D01*
X172001777Y-75151777D01*
X171983598Y-75168253D01*
X171963893Y-75182867D01*
X171942849Y-75195480D01*
X171920671Y-75205970D01*
X171897571Y-75214235D01*
X171873773Y-75220196D01*
X171849504Y-75223796D01*
X171825000Y-75225000D01*
X169675000Y-75225000D01*
X169650496Y-75223796D01*
X169626227Y-75220196D01*
X169602429Y-75214235D01*
X169579329Y-75205970D01*
X169557151Y-75195480D01*
X169536107Y-75182867D01*
X169516402Y-75168253D01*
X169498223Y-75151777D01*
X169481747Y-75133598D01*
X169467133Y-75113893D01*
X169454520Y-75092849D01*
X169444030Y-75070671D01*
X169435765Y-75047571D01*
X169429804Y-75023773D01*
X169426204Y-74999504D01*
X169425000Y-74975000D01*
X169425000Y-74050000D01*
X169426204Y-74025496D01*
X169429804Y-74001227D01*
X169435765Y-73977429D01*
X169444030Y-73954329D01*
X169454520Y-73932151D01*
X169467133Y-73911107D01*
X169481747Y-73891402D01*
X169498223Y-73873223D01*
X169516402Y-73856747D01*
X169536107Y-73842133D01*
X169557151Y-73829520D01*
X169579329Y-73819030D01*
X169602429Y-73810765D01*
X169626227Y-73804804D01*
X169650496Y-73801204D01*
X169675000Y-73800000D01*
X171825000Y-73800000D01*
X171849504Y-73801204D01*
X171849504Y-73801204D01*
G37*
D16*
X170750000Y-74512500D03*
D14*
G36*
X110999504Y-110776204D02*
G01*
X111023773Y-110779804D01*
X111047571Y-110785765D01*
X111070671Y-110794030D01*
X111092849Y-110804520D01*
X111113893Y-110817133D01*
X111133598Y-110831747D01*
X111151777Y-110848223D01*
X111168253Y-110866402D01*
X111182867Y-110886107D01*
X111195480Y-110907151D01*
X111205970Y-110929329D01*
X111214235Y-110952429D01*
X111220196Y-110976227D01*
X111223796Y-111000496D01*
X111225000Y-111025000D01*
X111225000Y-113175000D01*
X111223796Y-113199504D01*
X111220196Y-113223773D01*
X111214235Y-113247571D01*
X111205970Y-113270671D01*
X111195480Y-113292849D01*
X111182867Y-113313893D01*
X111168253Y-113333598D01*
X111151777Y-113351777D01*
X111133598Y-113368253D01*
X111113893Y-113382867D01*
X111092849Y-113395480D01*
X111070671Y-113405970D01*
X111047571Y-113414235D01*
X111023773Y-113420196D01*
X110999504Y-113423796D01*
X110975000Y-113425000D01*
X110050000Y-113425000D01*
X110025496Y-113423796D01*
X110001227Y-113420196D01*
X109977429Y-113414235D01*
X109954329Y-113405970D01*
X109932151Y-113395480D01*
X109911107Y-113382867D01*
X109891402Y-113368253D01*
X109873223Y-113351777D01*
X109856747Y-113333598D01*
X109842133Y-113313893D01*
X109829520Y-113292849D01*
X109819030Y-113270671D01*
X109810765Y-113247571D01*
X109804804Y-113223773D01*
X109801204Y-113199504D01*
X109800000Y-113175000D01*
X109800000Y-111025000D01*
X109801204Y-111000496D01*
X109804804Y-110976227D01*
X109810765Y-110952429D01*
X109819030Y-110929329D01*
X109829520Y-110907151D01*
X109842133Y-110886107D01*
X109856747Y-110866402D01*
X109873223Y-110848223D01*
X109891402Y-110831747D01*
X109911107Y-110817133D01*
X109932151Y-110804520D01*
X109954329Y-110794030D01*
X109977429Y-110785765D01*
X110001227Y-110779804D01*
X110025496Y-110776204D01*
X110050000Y-110775000D01*
X110975000Y-110775000D01*
X110999504Y-110776204D01*
X110999504Y-110776204D01*
G37*
D16*
X110512500Y-112100000D03*
D14*
G36*
X113974504Y-110776204D02*
G01*
X113998773Y-110779804D01*
X114022571Y-110785765D01*
X114045671Y-110794030D01*
X114067849Y-110804520D01*
X114088893Y-110817133D01*
X114108598Y-110831747D01*
X114126777Y-110848223D01*
X114143253Y-110866402D01*
X114157867Y-110886107D01*
X114170480Y-110907151D01*
X114180970Y-110929329D01*
X114189235Y-110952429D01*
X114195196Y-110976227D01*
X114198796Y-111000496D01*
X114200000Y-111025000D01*
X114200000Y-113175000D01*
X114198796Y-113199504D01*
X114195196Y-113223773D01*
X114189235Y-113247571D01*
X114180970Y-113270671D01*
X114170480Y-113292849D01*
X114157867Y-113313893D01*
X114143253Y-113333598D01*
X114126777Y-113351777D01*
X114108598Y-113368253D01*
X114088893Y-113382867D01*
X114067849Y-113395480D01*
X114045671Y-113405970D01*
X114022571Y-113414235D01*
X113998773Y-113420196D01*
X113974504Y-113423796D01*
X113950000Y-113425000D01*
X113025000Y-113425000D01*
X113000496Y-113423796D01*
X112976227Y-113420196D01*
X112952429Y-113414235D01*
X112929329Y-113405970D01*
X112907151Y-113395480D01*
X112886107Y-113382867D01*
X112866402Y-113368253D01*
X112848223Y-113351777D01*
X112831747Y-113333598D01*
X112817133Y-113313893D01*
X112804520Y-113292849D01*
X112794030Y-113270671D01*
X112785765Y-113247571D01*
X112779804Y-113223773D01*
X112776204Y-113199504D01*
X112775000Y-113175000D01*
X112775000Y-111025000D01*
X112776204Y-111000496D01*
X112779804Y-110976227D01*
X112785765Y-110952429D01*
X112794030Y-110929329D01*
X112804520Y-110907151D01*
X112817133Y-110886107D01*
X112831747Y-110866402D01*
X112848223Y-110848223D01*
X112866402Y-110831747D01*
X112886107Y-110817133D01*
X112907151Y-110804520D01*
X112929329Y-110794030D01*
X112952429Y-110785765D01*
X112976227Y-110779804D01*
X113000496Y-110776204D01*
X113025000Y-110775000D01*
X113950000Y-110775000D01*
X113974504Y-110776204D01*
X113974504Y-110776204D01*
G37*
D16*
X113487500Y-112100000D03*
D17*
X125625000Y-73950000D03*
X122825000Y-73950000D03*
D18*
X157700000Y-105050000D03*
X157700000Y-99950000D03*
D19*
X160050000Y-73950000D03*
X161000000Y-73950000D03*
X161950000Y-73950000D03*
X161950000Y-76250000D03*
X161000000Y-76250000D03*
X160050000Y-76250000D03*
D14*
G36*
X140010779Y-74851144D02*
G01*
X140033834Y-74854563D01*
X140056443Y-74860227D01*
X140078387Y-74868079D01*
X140099457Y-74878044D01*
X140119448Y-74890026D01*
X140138168Y-74903910D01*
X140155438Y-74919562D01*
X140171090Y-74936832D01*
X140184974Y-74955552D01*
X140196956Y-74975543D01*
X140206921Y-74996613D01*
X140214773Y-75018557D01*
X140220437Y-75041166D01*
X140223856Y-75064221D01*
X140225000Y-75087500D01*
X140225000Y-75662500D01*
X140223856Y-75685779D01*
X140220437Y-75708834D01*
X140214773Y-75731443D01*
X140206921Y-75753387D01*
X140196956Y-75774457D01*
X140184974Y-75794448D01*
X140171090Y-75813168D01*
X140155438Y-75830438D01*
X140138168Y-75846090D01*
X140119448Y-75859974D01*
X140099457Y-75871956D01*
X140078387Y-75881921D01*
X140056443Y-75889773D01*
X140033834Y-75895437D01*
X140010779Y-75898856D01*
X139987500Y-75900000D01*
X139512500Y-75900000D01*
X139489221Y-75898856D01*
X139466166Y-75895437D01*
X139443557Y-75889773D01*
X139421613Y-75881921D01*
X139400543Y-75871956D01*
X139380552Y-75859974D01*
X139361832Y-75846090D01*
X139344562Y-75830438D01*
X139328910Y-75813168D01*
X139315026Y-75794448D01*
X139303044Y-75774457D01*
X139293079Y-75753387D01*
X139285227Y-75731443D01*
X139279563Y-75708834D01*
X139276144Y-75685779D01*
X139275000Y-75662500D01*
X139275000Y-75087500D01*
X139276144Y-75064221D01*
X139279563Y-75041166D01*
X139285227Y-75018557D01*
X139293079Y-74996613D01*
X139303044Y-74975543D01*
X139315026Y-74955552D01*
X139328910Y-74936832D01*
X139344562Y-74919562D01*
X139361832Y-74903910D01*
X139380552Y-74890026D01*
X139400543Y-74878044D01*
X139421613Y-74868079D01*
X139443557Y-74860227D01*
X139466166Y-74854563D01*
X139489221Y-74851144D01*
X139512500Y-74850000D01*
X139987500Y-74850000D01*
X140010779Y-74851144D01*
X140010779Y-74851144D01*
G37*
D15*
X139750000Y-75375000D03*
D14*
G36*
X140010779Y-73101144D02*
G01*
X140033834Y-73104563D01*
X140056443Y-73110227D01*
X140078387Y-73118079D01*
X140099457Y-73128044D01*
X140119448Y-73140026D01*
X140138168Y-73153910D01*
X140155438Y-73169562D01*
X140171090Y-73186832D01*
X140184974Y-73205552D01*
X140196956Y-73225543D01*
X140206921Y-73246613D01*
X140214773Y-73268557D01*
X140220437Y-73291166D01*
X140223856Y-73314221D01*
X140225000Y-73337500D01*
X140225000Y-73912500D01*
X140223856Y-73935779D01*
X140220437Y-73958834D01*
X140214773Y-73981443D01*
X140206921Y-74003387D01*
X140196956Y-74024457D01*
X140184974Y-74044448D01*
X140171090Y-74063168D01*
X140155438Y-74080438D01*
X140138168Y-74096090D01*
X140119448Y-74109974D01*
X140099457Y-74121956D01*
X140078387Y-74131921D01*
X140056443Y-74139773D01*
X140033834Y-74145437D01*
X140010779Y-74148856D01*
X139987500Y-74150000D01*
X139512500Y-74150000D01*
X139489221Y-74148856D01*
X139466166Y-74145437D01*
X139443557Y-74139773D01*
X139421613Y-74131921D01*
X139400543Y-74121956D01*
X139380552Y-74109974D01*
X139361832Y-74096090D01*
X139344562Y-74080438D01*
X139328910Y-74063168D01*
X139315026Y-74044448D01*
X139303044Y-74024457D01*
X139293079Y-74003387D01*
X139285227Y-73981443D01*
X139279563Y-73958834D01*
X139276144Y-73935779D01*
X139275000Y-73912500D01*
X139275000Y-73337500D01*
X139276144Y-73314221D01*
X139279563Y-73291166D01*
X139285227Y-73268557D01*
X139293079Y-73246613D01*
X139303044Y-73225543D01*
X139315026Y-73205552D01*
X139328910Y-73186832D01*
X139344562Y-73169562D01*
X139361832Y-73153910D01*
X139380552Y-73140026D01*
X139400543Y-73128044D01*
X139421613Y-73118079D01*
X139443557Y-73110227D01*
X139466166Y-73104563D01*
X139489221Y-73101144D01*
X139512500Y-73100000D01*
X139987500Y-73100000D01*
X140010779Y-73101144D01*
X140010779Y-73101144D01*
G37*
D15*
X139750000Y-73625000D03*
D14*
G36*
X153785779Y-83226144D02*
G01*
X153808834Y-83229563D01*
X153831443Y-83235227D01*
X153853387Y-83243079D01*
X153874457Y-83253044D01*
X153894448Y-83265026D01*
X153913168Y-83278910D01*
X153930438Y-83294562D01*
X153946090Y-83311832D01*
X153959974Y-83330552D01*
X153971956Y-83350543D01*
X153981921Y-83371613D01*
X153989773Y-83393557D01*
X153995437Y-83416166D01*
X153998856Y-83439221D01*
X154000000Y-83462500D01*
X154000000Y-84037500D01*
X153998856Y-84060779D01*
X153995437Y-84083834D01*
X153989773Y-84106443D01*
X153981921Y-84128387D01*
X153971956Y-84149457D01*
X153959974Y-84169448D01*
X153946090Y-84188168D01*
X153930438Y-84205438D01*
X153913168Y-84221090D01*
X153894448Y-84234974D01*
X153874457Y-84246956D01*
X153853387Y-84256921D01*
X153831443Y-84264773D01*
X153808834Y-84270437D01*
X153785779Y-84273856D01*
X153762500Y-84275000D01*
X153287500Y-84275000D01*
X153264221Y-84273856D01*
X153241166Y-84270437D01*
X153218557Y-84264773D01*
X153196613Y-84256921D01*
X153175543Y-84246956D01*
X153155552Y-84234974D01*
X153136832Y-84221090D01*
X153119562Y-84205438D01*
X153103910Y-84188168D01*
X153090026Y-84169448D01*
X153078044Y-84149457D01*
X153068079Y-84128387D01*
X153060227Y-84106443D01*
X153054563Y-84083834D01*
X153051144Y-84060779D01*
X153050000Y-84037500D01*
X153050000Y-83462500D01*
X153051144Y-83439221D01*
X153054563Y-83416166D01*
X153060227Y-83393557D01*
X153068079Y-83371613D01*
X153078044Y-83350543D01*
X153090026Y-83330552D01*
X153103910Y-83311832D01*
X153119562Y-83294562D01*
X153136832Y-83278910D01*
X153155552Y-83265026D01*
X153175543Y-83253044D01*
X153196613Y-83243079D01*
X153218557Y-83235227D01*
X153241166Y-83229563D01*
X153264221Y-83226144D01*
X153287500Y-83225000D01*
X153762500Y-83225000D01*
X153785779Y-83226144D01*
X153785779Y-83226144D01*
G37*
D15*
X153525000Y-83750000D03*
D14*
G36*
X153785779Y-81476144D02*
G01*
X153808834Y-81479563D01*
X153831443Y-81485227D01*
X153853387Y-81493079D01*
X153874457Y-81503044D01*
X153894448Y-81515026D01*
X153913168Y-81528910D01*
X153930438Y-81544562D01*
X153946090Y-81561832D01*
X153959974Y-81580552D01*
X153971956Y-81600543D01*
X153981921Y-81621613D01*
X153989773Y-81643557D01*
X153995437Y-81666166D01*
X153998856Y-81689221D01*
X154000000Y-81712500D01*
X154000000Y-82287500D01*
X153998856Y-82310779D01*
X153995437Y-82333834D01*
X153989773Y-82356443D01*
X153981921Y-82378387D01*
X153971956Y-82399457D01*
X153959974Y-82419448D01*
X153946090Y-82438168D01*
X153930438Y-82455438D01*
X153913168Y-82471090D01*
X153894448Y-82484974D01*
X153874457Y-82496956D01*
X153853387Y-82506921D01*
X153831443Y-82514773D01*
X153808834Y-82520437D01*
X153785779Y-82523856D01*
X153762500Y-82525000D01*
X153287500Y-82525000D01*
X153264221Y-82523856D01*
X153241166Y-82520437D01*
X153218557Y-82514773D01*
X153196613Y-82506921D01*
X153175543Y-82496956D01*
X153155552Y-82484974D01*
X153136832Y-82471090D01*
X153119562Y-82455438D01*
X153103910Y-82438168D01*
X153090026Y-82419448D01*
X153078044Y-82399457D01*
X153068079Y-82378387D01*
X153060227Y-82356443D01*
X153054563Y-82333834D01*
X153051144Y-82310779D01*
X153050000Y-82287500D01*
X153050000Y-81712500D01*
X153051144Y-81689221D01*
X153054563Y-81666166D01*
X153060227Y-81643557D01*
X153068079Y-81621613D01*
X153078044Y-81600543D01*
X153090026Y-81580552D01*
X153103910Y-81561832D01*
X153119562Y-81544562D01*
X153136832Y-81528910D01*
X153155552Y-81515026D01*
X153175543Y-81503044D01*
X153196613Y-81493079D01*
X153218557Y-81485227D01*
X153241166Y-81479563D01*
X153264221Y-81476144D01*
X153287500Y-81475000D01*
X153762500Y-81475000D01*
X153785779Y-81476144D01*
X153785779Y-81476144D01*
G37*
D15*
X153525000Y-82000000D03*
D14*
G36*
X155985779Y-81501144D02*
G01*
X156008834Y-81504563D01*
X156031443Y-81510227D01*
X156053387Y-81518079D01*
X156074457Y-81528044D01*
X156094448Y-81540026D01*
X156113168Y-81553910D01*
X156130438Y-81569562D01*
X156146090Y-81586832D01*
X156159974Y-81605552D01*
X156171956Y-81625543D01*
X156181921Y-81646613D01*
X156189773Y-81668557D01*
X156195437Y-81691166D01*
X156198856Y-81714221D01*
X156200000Y-81737500D01*
X156200000Y-82312500D01*
X156198856Y-82335779D01*
X156195437Y-82358834D01*
X156189773Y-82381443D01*
X156181921Y-82403387D01*
X156171956Y-82424457D01*
X156159974Y-82444448D01*
X156146090Y-82463168D01*
X156130438Y-82480438D01*
X156113168Y-82496090D01*
X156094448Y-82509974D01*
X156074457Y-82521956D01*
X156053387Y-82531921D01*
X156031443Y-82539773D01*
X156008834Y-82545437D01*
X155985779Y-82548856D01*
X155962500Y-82550000D01*
X155487500Y-82550000D01*
X155464221Y-82548856D01*
X155441166Y-82545437D01*
X155418557Y-82539773D01*
X155396613Y-82531921D01*
X155375543Y-82521956D01*
X155355552Y-82509974D01*
X155336832Y-82496090D01*
X155319562Y-82480438D01*
X155303910Y-82463168D01*
X155290026Y-82444448D01*
X155278044Y-82424457D01*
X155268079Y-82403387D01*
X155260227Y-82381443D01*
X155254563Y-82358834D01*
X155251144Y-82335779D01*
X155250000Y-82312500D01*
X155250000Y-81737500D01*
X155251144Y-81714221D01*
X155254563Y-81691166D01*
X155260227Y-81668557D01*
X155268079Y-81646613D01*
X155278044Y-81625543D01*
X155290026Y-81605552D01*
X155303910Y-81586832D01*
X155319562Y-81569562D01*
X155336832Y-81553910D01*
X155355552Y-81540026D01*
X155375543Y-81528044D01*
X155396613Y-81518079D01*
X155418557Y-81510227D01*
X155441166Y-81504563D01*
X155464221Y-81501144D01*
X155487500Y-81500000D01*
X155962500Y-81500000D01*
X155985779Y-81501144D01*
X155985779Y-81501144D01*
G37*
D15*
X155725000Y-82025000D03*
D14*
G36*
X155985779Y-83251144D02*
G01*
X156008834Y-83254563D01*
X156031443Y-83260227D01*
X156053387Y-83268079D01*
X156074457Y-83278044D01*
X156094448Y-83290026D01*
X156113168Y-83303910D01*
X156130438Y-83319562D01*
X156146090Y-83336832D01*
X156159974Y-83355552D01*
X156171956Y-83375543D01*
X156181921Y-83396613D01*
X156189773Y-83418557D01*
X156195437Y-83441166D01*
X156198856Y-83464221D01*
X156200000Y-83487500D01*
X156200000Y-84062500D01*
X156198856Y-84085779D01*
X156195437Y-84108834D01*
X156189773Y-84131443D01*
X156181921Y-84153387D01*
X156171956Y-84174457D01*
X156159974Y-84194448D01*
X156146090Y-84213168D01*
X156130438Y-84230438D01*
X156113168Y-84246090D01*
X156094448Y-84259974D01*
X156074457Y-84271956D01*
X156053387Y-84281921D01*
X156031443Y-84289773D01*
X156008834Y-84295437D01*
X155985779Y-84298856D01*
X155962500Y-84300000D01*
X155487500Y-84300000D01*
X155464221Y-84298856D01*
X155441166Y-84295437D01*
X155418557Y-84289773D01*
X155396613Y-84281921D01*
X155375543Y-84271956D01*
X155355552Y-84259974D01*
X155336832Y-84246090D01*
X155319562Y-84230438D01*
X155303910Y-84213168D01*
X155290026Y-84194448D01*
X155278044Y-84174457D01*
X155268079Y-84153387D01*
X155260227Y-84131443D01*
X155254563Y-84108834D01*
X155251144Y-84085779D01*
X155250000Y-84062500D01*
X155250000Y-83487500D01*
X155251144Y-83464221D01*
X155254563Y-83441166D01*
X155260227Y-83418557D01*
X155268079Y-83396613D01*
X155278044Y-83375543D01*
X155290026Y-83355552D01*
X155303910Y-83336832D01*
X155319562Y-83319562D01*
X155336832Y-83303910D01*
X155355552Y-83290026D01*
X155375543Y-83278044D01*
X155396613Y-83268079D01*
X155418557Y-83260227D01*
X155441166Y-83254563D01*
X155464221Y-83251144D01*
X155487500Y-83250000D01*
X155962500Y-83250000D01*
X155985779Y-83251144D01*
X155985779Y-83251144D01*
G37*
D15*
X155725000Y-83775000D03*
D14*
G36*
X158035779Y-83276144D02*
G01*
X158058834Y-83279563D01*
X158081443Y-83285227D01*
X158103387Y-83293079D01*
X158124457Y-83303044D01*
X158144448Y-83315026D01*
X158163168Y-83328910D01*
X158180438Y-83344562D01*
X158196090Y-83361832D01*
X158209974Y-83380552D01*
X158221956Y-83400543D01*
X158231921Y-83421613D01*
X158239773Y-83443557D01*
X158245437Y-83466166D01*
X158248856Y-83489221D01*
X158250000Y-83512500D01*
X158250000Y-84087500D01*
X158248856Y-84110779D01*
X158245437Y-84133834D01*
X158239773Y-84156443D01*
X158231921Y-84178387D01*
X158221956Y-84199457D01*
X158209974Y-84219448D01*
X158196090Y-84238168D01*
X158180438Y-84255438D01*
X158163168Y-84271090D01*
X158144448Y-84284974D01*
X158124457Y-84296956D01*
X158103387Y-84306921D01*
X158081443Y-84314773D01*
X158058834Y-84320437D01*
X158035779Y-84323856D01*
X158012500Y-84325000D01*
X157537500Y-84325000D01*
X157514221Y-84323856D01*
X157491166Y-84320437D01*
X157468557Y-84314773D01*
X157446613Y-84306921D01*
X157425543Y-84296956D01*
X157405552Y-84284974D01*
X157386832Y-84271090D01*
X157369562Y-84255438D01*
X157353910Y-84238168D01*
X157340026Y-84219448D01*
X157328044Y-84199457D01*
X157318079Y-84178387D01*
X157310227Y-84156443D01*
X157304563Y-84133834D01*
X157301144Y-84110779D01*
X157300000Y-84087500D01*
X157300000Y-83512500D01*
X157301144Y-83489221D01*
X157304563Y-83466166D01*
X157310227Y-83443557D01*
X157318079Y-83421613D01*
X157328044Y-83400543D01*
X157340026Y-83380552D01*
X157353910Y-83361832D01*
X157369562Y-83344562D01*
X157386832Y-83328910D01*
X157405552Y-83315026D01*
X157425543Y-83303044D01*
X157446613Y-83293079D01*
X157468557Y-83285227D01*
X157491166Y-83279563D01*
X157514221Y-83276144D01*
X157537500Y-83275000D01*
X158012500Y-83275000D01*
X158035779Y-83276144D01*
X158035779Y-83276144D01*
G37*
D15*
X157775000Y-83800000D03*
D14*
G36*
X158035779Y-81526144D02*
G01*
X158058834Y-81529563D01*
X158081443Y-81535227D01*
X158103387Y-81543079D01*
X158124457Y-81553044D01*
X158144448Y-81565026D01*
X158163168Y-81578910D01*
X158180438Y-81594562D01*
X158196090Y-81611832D01*
X158209974Y-81630552D01*
X158221956Y-81650543D01*
X158231921Y-81671613D01*
X158239773Y-81693557D01*
X158245437Y-81716166D01*
X158248856Y-81739221D01*
X158250000Y-81762500D01*
X158250000Y-82337500D01*
X158248856Y-82360779D01*
X158245437Y-82383834D01*
X158239773Y-82406443D01*
X158231921Y-82428387D01*
X158221956Y-82449457D01*
X158209974Y-82469448D01*
X158196090Y-82488168D01*
X158180438Y-82505438D01*
X158163168Y-82521090D01*
X158144448Y-82534974D01*
X158124457Y-82546956D01*
X158103387Y-82556921D01*
X158081443Y-82564773D01*
X158058834Y-82570437D01*
X158035779Y-82573856D01*
X158012500Y-82575000D01*
X157537500Y-82575000D01*
X157514221Y-82573856D01*
X157491166Y-82570437D01*
X157468557Y-82564773D01*
X157446613Y-82556921D01*
X157425543Y-82546956D01*
X157405552Y-82534974D01*
X157386832Y-82521090D01*
X157369562Y-82505438D01*
X157353910Y-82488168D01*
X157340026Y-82469448D01*
X157328044Y-82449457D01*
X157318079Y-82428387D01*
X157310227Y-82406443D01*
X157304563Y-82383834D01*
X157301144Y-82360779D01*
X157300000Y-82337500D01*
X157300000Y-81762500D01*
X157301144Y-81739221D01*
X157304563Y-81716166D01*
X157310227Y-81693557D01*
X157318079Y-81671613D01*
X157328044Y-81650543D01*
X157340026Y-81630552D01*
X157353910Y-81611832D01*
X157369562Y-81594562D01*
X157386832Y-81578910D01*
X157405552Y-81565026D01*
X157425543Y-81553044D01*
X157446613Y-81543079D01*
X157468557Y-81535227D01*
X157491166Y-81529563D01*
X157514221Y-81526144D01*
X157537500Y-81525000D01*
X158012500Y-81525000D01*
X158035779Y-81526144D01*
X158035779Y-81526144D01*
G37*
D15*
X157775000Y-82050000D03*
D14*
G36*
X160474505Y-79701204D02*
G01*
X160498773Y-79704804D01*
X160522572Y-79710765D01*
X160545671Y-79719030D01*
X160567850Y-79729520D01*
X160588893Y-79742132D01*
X160608599Y-79756747D01*
X160626777Y-79773223D01*
X160643253Y-79791401D01*
X160657868Y-79811107D01*
X160670480Y-79832150D01*
X160680970Y-79854329D01*
X160689235Y-79877428D01*
X160695196Y-79901227D01*
X160698796Y-79925495D01*
X160700000Y-79949999D01*
X160700000Y-80600001D01*
X160698796Y-80624505D01*
X160695196Y-80648773D01*
X160689235Y-80672572D01*
X160680970Y-80695671D01*
X160670480Y-80717850D01*
X160657868Y-80738893D01*
X160643253Y-80758599D01*
X160626777Y-80776777D01*
X160608599Y-80793253D01*
X160588893Y-80807868D01*
X160567850Y-80820480D01*
X160545671Y-80830970D01*
X160522572Y-80839235D01*
X160498773Y-80845196D01*
X160474505Y-80848796D01*
X160450001Y-80850000D01*
X159549999Y-80850000D01*
X159525495Y-80848796D01*
X159501227Y-80845196D01*
X159477428Y-80839235D01*
X159454329Y-80830970D01*
X159432150Y-80820480D01*
X159411107Y-80807868D01*
X159391401Y-80793253D01*
X159373223Y-80776777D01*
X159356747Y-80758599D01*
X159342132Y-80738893D01*
X159329520Y-80717850D01*
X159319030Y-80695671D01*
X159310765Y-80672572D01*
X159304804Y-80648773D01*
X159301204Y-80624505D01*
X159300000Y-80600001D01*
X159300000Y-79949999D01*
X159301204Y-79925495D01*
X159304804Y-79901227D01*
X159310765Y-79877428D01*
X159319030Y-79854329D01*
X159329520Y-79832150D01*
X159342132Y-79811107D01*
X159356747Y-79791401D01*
X159373223Y-79773223D01*
X159391401Y-79756747D01*
X159411107Y-79742132D01*
X159432150Y-79729520D01*
X159454329Y-79719030D01*
X159477428Y-79710765D01*
X159501227Y-79704804D01*
X159525495Y-79701204D01*
X159549999Y-79700000D01*
X160450001Y-79700000D01*
X160474505Y-79701204D01*
X160474505Y-79701204D01*
G37*
D20*
X160000000Y-80275000D03*
D14*
G36*
X160474505Y-77651204D02*
G01*
X160498773Y-77654804D01*
X160522572Y-77660765D01*
X160545671Y-77669030D01*
X160567850Y-77679520D01*
X160588893Y-77692132D01*
X160608599Y-77706747D01*
X160626777Y-77723223D01*
X160643253Y-77741401D01*
X160657868Y-77761107D01*
X160670480Y-77782150D01*
X160680970Y-77804329D01*
X160689235Y-77827428D01*
X160695196Y-77851227D01*
X160698796Y-77875495D01*
X160700000Y-77899999D01*
X160700000Y-78550001D01*
X160698796Y-78574505D01*
X160695196Y-78598773D01*
X160689235Y-78622572D01*
X160680970Y-78645671D01*
X160670480Y-78667850D01*
X160657868Y-78688893D01*
X160643253Y-78708599D01*
X160626777Y-78726777D01*
X160608599Y-78743253D01*
X160588893Y-78757868D01*
X160567850Y-78770480D01*
X160545671Y-78780970D01*
X160522572Y-78789235D01*
X160498773Y-78795196D01*
X160474505Y-78798796D01*
X160450001Y-78800000D01*
X159549999Y-78800000D01*
X159525495Y-78798796D01*
X159501227Y-78795196D01*
X159477428Y-78789235D01*
X159454329Y-78780970D01*
X159432150Y-78770480D01*
X159411107Y-78757868D01*
X159391401Y-78743253D01*
X159373223Y-78726777D01*
X159356747Y-78708599D01*
X159342132Y-78688893D01*
X159329520Y-78667850D01*
X159319030Y-78645671D01*
X159310765Y-78622572D01*
X159304804Y-78598773D01*
X159301204Y-78574505D01*
X159300000Y-78550001D01*
X159300000Y-77899999D01*
X159301204Y-77875495D01*
X159304804Y-77851227D01*
X159310765Y-77827428D01*
X159319030Y-77804329D01*
X159329520Y-77782150D01*
X159342132Y-77761107D01*
X159356747Y-77741401D01*
X159373223Y-77723223D01*
X159391401Y-77706747D01*
X159411107Y-77692132D01*
X159432150Y-77679520D01*
X159454329Y-77669030D01*
X159477428Y-77660765D01*
X159501227Y-77654804D01*
X159525495Y-77651204D01*
X159549999Y-77650000D01*
X160450001Y-77650000D01*
X160474505Y-77651204D01*
X160474505Y-77651204D01*
G37*
D20*
X160000000Y-78225000D03*
D21*
X137400000Y-75350000D03*
X137400000Y-73450000D03*
X135400000Y-74400000D03*
D14*
G36*
X159935779Y-81451144D02*
G01*
X159958834Y-81454563D01*
X159981443Y-81460227D01*
X160003387Y-81468079D01*
X160024457Y-81478044D01*
X160044448Y-81490026D01*
X160063168Y-81503910D01*
X160080438Y-81519562D01*
X160096090Y-81536832D01*
X160109974Y-81555552D01*
X160121956Y-81575543D01*
X160131921Y-81596613D01*
X160139773Y-81618557D01*
X160145437Y-81641166D01*
X160148856Y-81664221D01*
X160150000Y-81687500D01*
X160150000Y-82262500D01*
X160148856Y-82285779D01*
X160145437Y-82308834D01*
X160139773Y-82331443D01*
X160131921Y-82353387D01*
X160121956Y-82374457D01*
X160109974Y-82394448D01*
X160096090Y-82413168D01*
X160080438Y-82430438D01*
X160063168Y-82446090D01*
X160044448Y-82459974D01*
X160024457Y-82471956D01*
X160003387Y-82481921D01*
X159981443Y-82489773D01*
X159958834Y-82495437D01*
X159935779Y-82498856D01*
X159912500Y-82500000D01*
X159437500Y-82500000D01*
X159414221Y-82498856D01*
X159391166Y-82495437D01*
X159368557Y-82489773D01*
X159346613Y-82481921D01*
X159325543Y-82471956D01*
X159305552Y-82459974D01*
X159286832Y-82446090D01*
X159269562Y-82430438D01*
X159253910Y-82413168D01*
X159240026Y-82394448D01*
X159228044Y-82374457D01*
X159218079Y-82353387D01*
X159210227Y-82331443D01*
X159204563Y-82308834D01*
X159201144Y-82285779D01*
X159200000Y-82262500D01*
X159200000Y-81687500D01*
X159201144Y-81664221D01*
X159204563Y-81641166D01*
X159210227Y-81618557D01*
X159218079Y-81596613D01*
X159228044Y-81575543D01*
X159240026Y-81555552D01*
X159253910Y-81536832D01*
X159269562Y-81519562D01*
X159286832Y-81503910D01*
X159305552Y-81490026D01*
X159325543Y-81478044D01*
X159346613Y-81468079D01*
X159368557Y-81460227D01*
X159391166Y-81454563D01*
X159414221Y-81451144D01*
X159437500Y-81450000D01*
X159912500Y-81450000D01*
X159935779Y-81451144D01*
X159935779Y-81451144D01*
G37*
D15*
X159675000Y-81975000D03*
D14*
G36*
X159935779Y-83201144D02*
G01*
X159958834Y-83204563D01*
X159981443Y-83210227D01*
X160003387Y-83218079D01*
X160024457Y-83228044D01*
X160044448Y-83240026D01*
X160063168Y-83253910D01*
X160080438Y-83269562D01*
X160096090Y-83286832D01*
X160109974Y-83305552D01*
X160121956Y-83325543D01*
X160131921Y-83346613D01*
X160139773Y-83368557D01*
X160145437Y-83391166D01*
X160148856Y-83414221D01*
X160150000Y-83437500D01*
X160150000Y-84012500D01*
X160148856Y-84035779D01*
X160145437Y-84058834D01*
X160139773Y-84081443D01*
X160131921Y-84103387D01*
X160121956Y-84124457D01*
X160109974Y-84144448D01*
X160096090Y-84163168D01*
X160080438Y-84180438D01*
X160063168Y-84196090D01*
X160044448Y-84209974D01*
X160024457Y-84221956D01*
X160003387Y-84231921D01*
X159981443Y-84239773D01*
X159958834Y-84245437D01*
X159935779Y-84248856D01*
X159912500Y-84250000D01*
X159437500Y-84250000D01*
X159414221Y-84248856D01*
X159391166Y-84245437D01*
X159368557Y-84239773D01*
X159346613Y-84231921D01*
X159325543Y-84221956D01*
X159305552Y-84209974D01*
X159286832Y-84196090D01*
X159269562Y-84180438D01*
X159253910Y-84163168D01*
X159240026Y-84144448D01*
X159228044Y-84124457D01*
X159218079Y-84103387D01*
X159210227Y-84081443D01*
X159204563Y-84058834D01*
X159201144Y-84035779D01*
X159200000Y-84012500D01*
X159200000Y-83437500D01*
X159201144Y-83414221D01*
X159204563Y-83391166D01*
X159210227Y-83368557D01*
X159218079Y-83346613D01*
X159228044Y-83325543D01*
X159240026Y-83305552D01*
X159253910Y-83286832D01*
X159269562Y-83269562D01*
X159286832Y-83253910D01*
X159305552Y-83240026D01*
X159325543Y-83228044D01*
X159346613Y-83218079D01*
X159368557Y-83210227D01*
X159391166Y-83204563D01*
X159414221Y-83201144D01*
X159437500Y-83200000D01*
X159912500Y-83200000D01*
X159935779Y-83201144D01*
X159935779Y-83201144D01*
G37*
D15*
X159675000Y-83725000D03*
D11*
X157405000Y-74300000D03*
X156135000Y-74300000D03*
X154865000Y-74300000D03*
X153595000Y-74300000D03*
X153595000Y-79700000D03*
X154865000Y-79700000D03*
X156135000Y-79700000D03*
X157405000Y-79700000D03*
D14*
G36*
X140635779Y-107026144D02*
G01*
X140658834Y-107029563D01*
X140681443Y-107035227D01*
X140703387Y-107043079D01*
X140724457Y-107053044D01*
X140744448Y-107065026D01*
X140763168Y-107078910D01*
X140780438Y-107094562D01*
X140796090Y-107111832D01*
X140809974Y-107130552D01*
X140821956Y-107150543D01*
X140831921Y-107171613D01*
X140839773Y-107193557D01*
X140845437Y-107216166D01*
X140848856Y-107239221D01*
X140850000Y-107262500D01*
X140850000Y-107737500D01*
X140848856Y-107760779D01*
X140845437Y-107783834D01*
X140839773Y-107806443D01*
X140831921Y-107828387D01*
X140821956Y-107849457D01*
X140809974Y-107869448D01*
X140796090Y-107888168D01*
X140780438Y-107905438D01*
X140763168Y-107921090D01*
X140744448Y-107934974D01*
X140724457Y-107946956D01*
X140703387Y-107956921D01*
X140681443Y-107964773D01*
X140658834Y-107970437D01*
X140635779Y-107973856D01*
X140612500Y-107975000D01*
X140037500Y-107975000D01*
X140014221Y-107973856D01*
X139991166Y-107970437D01*
X139968557Y-107964773D01*
X139946613Y-107956921D01*
X139925543Y-107946956D01*
X139905552Y-107934974D01*
X139886832Y-107921090D01*
X139869562Y-107905438D01*
X139853910Y-107888168D01*
X139840026Y-107869448D01*
X139828044Y-107849457D01*
X139818079Y-107828387D01*
X139810227Y-107806443D01*
X139804563Y-107783834D01*
X139801144Y-107760779D01*
X139800000Y-107737500D01*
X139800000Y-107262500D01*
X139801144Y-107239221D01*
X139804563Y-107216166D01*
X139810227Y-107193557D01*
X139818079Y-107171613D01*
X139828044Y-107150543D01*
X139840026Y-107130552D01*
X139853910Y-107111832D01*
X139869562Y-107094562D01*
X139886832Y-107078910D01*
X139905552Y-107065026D01*
X139925543Y-107053044D01*
X139946613Y-107043079D01*
X139968557Y-107035227D01*
X139991166Y-107029563D01*
X140014221Y-107026144D01*
X140037500Y-107025000D01*
X140612500Y-107025000D01*
X140635779Y-107026144D01*
X140635779Y-107026144D01*
G37*
D15*
X140325000Y-107500000D03*
D14*
G36*
X142385779Y-107026144D02*
G01*
X142408834Y-107029563D01*
X142431443Y-107035227D01*
X142453387Y-107043079D01*
X142474457Y-107053044D01*
X142494448Y-107065026D01*
X142513168Y-107078910D01*
X142530438Y-107094562D01*
X142546090Y-107111832D01*
X142559974Y-107130552D01*
X142571956Y-107150543D01*
X142581921Y-107171613D01*
X142589773Y-107193557D01*
X142595437Y-107216166D01*
X142598856Y-107239221D01*
X142600000Y-107262500D01*
X142600000Y-107737500D01*
X142598856Y-107760779D01*
X142595437Y-107783834D01*
X142589773Y-107806443D01*
X142581921Y-107828387D01*
X142571956Y-107849457D01*
X142559974Y-107869448D01*
X142546090Y-107888168D01*
X142530438Y-107905438D01*
X142513168Y-107921090D01*
X142494448Y-107934974D01*
X142474457Y-107946956D01*
X142453387Y-107956921D01*
X142431443Y-107964773D01*
X142408834Y-107970437D01*
X142385779Y-107973856D01*
X142362500Y-107975000D01*
X141787500Y-107975000D01*
X141764221Y-107973856D01*
X141741166Y-107970437D01*
X141718557Y-107964773D01*
X141696613Y-107956921D01*
X141675543Y-107946956D01*
X141655552Y-107934974D01*
X141636832Y-107921090D01*
X141619562Y-107905438D01*
X141603910Y-107888168D01*
X141590026Y-107869448D01*
X141578044Y-107849457D01*
X141568079Y-107828387D01*
X141560227Y-107806443D01*
X141554563Y-107783834D01*
X141551144Y-107760779D01*
X141550000Y-107737500D01*
X141550000Y-107262500D01*
X141551144Y-107239221D01*
X141554563Y-107216166D01*
X141560227Y-107193557D01*
X141568079Y-107171613D01*
X141578044Y-107150543D01*
X141590026Y-107130552D01*
X141603910Y-107111832D01*
X141619562Y-107094562D01*
X141636832Y-107078910D01*
X141655552Y-107065026D01*
X141675543Y-107053044D01*
X141696613Y-107043079D01*
X141718557Y-107035227D01*
X141741166Y-107029563D01*
X141764221Y-107026144D01*
X141787500Y-107025000D01*
X142362500Y-107025000D01*
X142385779Y-107026144D01*
X142385779Y-107026144D01*
G37*
D15*
X142075000Y-107500000D03*
D22*
X131500000Y-111300000D03*
X130550000Y-109200000D03*
X132450000Y-109200000D03*
X130550000Y-115550000D03*
X132450000Y-115550000D03*
X131500000Y-113450000D03*
D23*
X134500000Y-114000000D03*
X138500000Y-114000000D03*
X135840000Y-114000000D03*
X137160000Y-114000000D03*
X135840000Y-111000000D03*
X134500000Y-111000000D03*
X138500000Y-111000000D03*
X137160000Y-111000000D03*
D24*
X146800000Y-108650000D03*
X146800000Y-114150000D03*
X150000000Y-114150000D03*
X150000000Y-108650000D03*
D14*
G36*
X139310779Y-116776144D02*
G01*
X139333834Y-116779563D01*
X139356443Y-116785227D01*
X139378387Y-116793079D01*
X139399457Y-116803044D01*
X139419448Y-116815026D01*
X139438168Y-116828910D01*
X139455438Y-116844562D01*
X139471090Y-116861832D01*
X139484974Y-116880552D01*
X139496956Y-116900543D01*
X139506921Y-116921613D01*
X139514773Y-116943557D01*
X139520437Y-116966166D01*
X139523856Y-116989221D01*
X139525000Y-117012500D01*
X139525000Y-117487500D01*
X139523856Y-117510779D01*
X139520437Y-117533834D01*
X139514773Y-117556443D01*
X139506921Y-117578387D01*
X139496956Y-117599457D01*
X139484974Y-117619448D01*
X139471090Y-117638168D01*
X139455438Y-117655438D01*
X139438168Y-117671090D01*
X139419448Y-117684974D01*
X139399457Y-117696956D01*
X139378387Y-117706921D01*
X139356443Y-117714773D01*
X139333834Y-117720437D01*
X139310779Y-117723856D01*
X139287500Y-117725000D01*
X138712500Y-117725000D01*
X138689221Y-117723856D01*
X138666166Y-117720437D01*
X138643557Y-117714773D01*
X138621613Y-117706921D01*
X138600543Y-117696956D01*
X138580552Y-117684974D01*
X138561832Y-117671090D01*
X138544562Y-117655438D01*
X138528910Y-117638168D01*
X138515026Y-117619448D01*
X138503044Y-117599457D01*
X138493079Y-117578387D01*
X138485227Y-117556443D01*
X138479563Y-117533834D01*
X138476144Y-117510779D01*
X138475000Y-117487500D01*
X138475000Y-117012500D01*
X138476144Y-116989221D01*
X138479563Y-116966166D01*
X138485227Y-116943557D01*
X138493079Y-116921613D01*
X138503044Y-116900543D01*
X138515026Y-116880552D01*
X138528910Y-116861832D01*
X138544562Y-116844562D01*
X138561832Y-116828910D01*
X138580552Y-116815026D01*
X138600543Y-116803044D01*
X138621613Y-116793079D01*
X138643557Y-116785227D01*
X138666166Y-116779563D01*
X138689221Y-116776144D01*
X138712500Y-116775000D01*
X139287500Y-116775000D01*
X139310779Y-116776144D01*
X139310779Y-116776144D01*
G37*
D15*
X139000000Y-117250000D03*
D14*
G36*
X137560779Y-116776144D02*
G01*
X137583834Y-116779563D01*
X137606443Y-116785227D01*
X137628387Y-116793079D01*
X137649457Y-116803044D01*
X137669448Y-116815026D01*
X137688168Y-116828910D01*
X137705438Y-116844562D01*
X137721090Y-116861832D01*
X137734974Y-116880552D01*
X137746956Y-116900543D01*
X137756921Y-116921613D01*
X137764773Y-116943557D01*
X137770437Y-116966166D01*
X137773856Y-116989221D01*
X137775000Y-117012500D01*
X137775000Y-117487500D01*
X137773856Y-117510779D01*
X137770437Y-117533834D01*
X137764773Y-117556443D01*
X137756921Y-117578387D01*
X137746956Y-117599457D01*
X137734974Y-117619448D01*
X137721090Y-117638168D01*
X137705438Y-117655438D01*
X137688168Y-117671090D01*
X137669448Y-117684974D01*
X137649457Y-117696956D01*
X137628387Y-117706921D01*
X137606443Y-117714773D01*
X137583834Y-117720437D01*
X137560779Y-117723856D01*
X137537500Y-117725000D01*
X136962500Y-117725000D01*
X136939221Y-117723856D01*
X136916166Y-117720437D01*
X136893557Y-117714773D01*
X136871613Y-117706921D01*
X136850543Y-117696956D01*
X136830552Y-117684974D01*
X136811832Y-117671090D01*
X136794562Y-117655438D01*
X136778910Y-117638168D01*
X136765026Y-117619448D01*
X136753044Y-117599457D01*
X136743079Y-117578387D01*
X136735227Y-117556443D01*
X136729563Y-117533834D01*
X136726144Y-117510779D01*
X136725000Y-117487500D01*
X136725000Y-117012500D01*
X136726144Y-116989221D01*
X136729563Y-116966166D01*
X136735227Y-116943557D01*
X136743079Y-116921613D01*
X136753044Y-116900543D01*
X136765026Y-116880552D01*
X136778910Y-116861832D01*
X136794562Y-116844562D01*
X136811832Y-116828910D01*
X136830552Y-116815026D01*
X136850543Y-116803044D01*
X136871613Y-116793079D01*
X136893557Y-116785227D01*
X136916166Y-116779563D01*
X136939221Y-116776144D01*
X136962500Y-116775000D01*
X137537500Y-116775000D01*
X137560779Y-116776144D01*
X137560779Y-116776144D01*
G37*
D15*
X137250000Y-117250000D03*
D14*
G36*
X150599505Y-121301204D02*
G01*
X150623773Y-121304804D01*
X150647572Y-121310765D01*
X150670671Y-121319030D01*
X150692850Y-121329520D01*
X150713893Y-121342132D01*
X150733599Y-121356747D01*
X150751777Y-121373223D01*
X150768253Y-121391401D01*
X150782868Y-121411107D01*
X150795480Y-121432150D01*
X150805970Y-121454329D01*
X150814235Y-121477428D01*
X150820196Y-121501227D01*
X150823796Y-121525495D01*
X150825000Y-121549999D01*
X150825000Y-122450001D01*
X150823796Y-122474505D01*
X150820196Y-122498773D01*
X150814235Y-122522572D01*
X150805970Y-122545671D01*
X150795480Y-122567850D01*
X150782868Y-122588893D01*
X150768253Y-122608599D01*
X150751777Y-122626777D01*
X150733599Y-122643253D01*
X150713893Y-122657868D01*
X150692850Y-122670480D01*
X150670671Y-122680970D01*
X150647572Y-122689235D01*
X150623773Y-122695196D01*
X150599505Y-122698796D01*
X150575001Y-122700000D01*
X149924999Y-122700000D01*
X149900495Y-122698796D01*
X149876227Y-122695196D01*
X149852428Y-122689235D01*
X149829329Y-122680970D01*
X149807150Y-122670480D01*
X149786107Y-122657868D01*
X149766401Y-122643253D01*
X149748223Y-122626777D01*
X149731747Y-122608599D01*
X149717132Y-122588893D01*
X149704520Y-122567850D01*
X149694030Y-122545671D01*
X149685765Y-122522572D01*
X149679804Y-122498773D01*
X149676204Y-122474505D01*
X149675000Y-122450001D01*
X149675000Y-121549999D01*
X149676204Y-121525495D01*
X149679804Y-121501227D01*
X149685765Y-121477428D01*
X149694030Y-121454329D01*
X149704520Y-121432150D01*
X149717132Y-121411107D01*
X149731747Y-121391401D01*
X149748223Y-121373223D01*
X149766401Y-121356747D01*
X149786107Y-121342132D01*
X149807150Y-121329520D01*
X149829329Y-121319030D01*
X149852428Y-121310765D01*
X149876227Y-121304804D01*
X149900495Y-121301204D01*
X149924999Y-121300000D01*
X150575001Y-121300000D01*
X150599505Y-121301204D01*
X150599505Y-121301204D01*
G37*
D20*
X150250000Y-122000000D03*
D14*
G36*
X148549505Y-121301204D02*
G01*
X148573773Y-121304804D01*
X148597572Y-121310765D01*
X148620671Y-121319030D01*
X148642850Y-121329520D01*
X148663893Y-121342132D01*
X148683599Y-121356747D01*
X148701777Y-121373223D01*
X148718253Y-121391401D01*
X148732868Y-121411107D01*
X148745480Y-121432150D01*
X148755970Y-121454329D01*
X148764235Y-121477428D01*
X148770196Y-121501227D01*
X148773796Y-121525495D01*
X148775000Y-121549999D01*
X148775000Y-122450001D01*
X148773796Y-122474505D01*
X148770196Y-122498773D01*
X148764235Y-122522572D01*
X148755970Y-122545671D01*
X148745480Y-122567850D01*
X148732868Y-122588893D01*
X148718253Y-122608599D01*
X148701777Y-122626777D01*
X148683599Y-122643253D01*
X148663893Y-122657868D01*
X148642850Y-122670480D01*
X148620671Y-122680970D01*
X148597572Y-122689235D01*
X148573773Y-122695196D01*
X148549505Y-122698796D01*
X148525001Y-122700000D01*
X147874999Y-122700000D01*
X147850495Y-122698796D01*
X147826227Y-122695196D01*
X147802428Y-122689235D01*
X147779329Y-122680970D01*
X147757150Y-122670480D01*
X147736107Y-122657868D01*
X147716401Y-122643253D01*
X147698223Y-122626777D01*
X147681747Y-122608599D01*
X147667132Y-122588893D01*
X147654520Y-122567850D01*
X147644030Y-122545671D01*
X147635765Y-122522572D01*
X147629804Y-122498773D01*
X147626204Y-122474505D01*
X147625000Y-122450001D01*
X147625000Y-121549999D01*
X147626204Y-121525495D01*
X147629804Y-121501227D01*
X147635765Y-121477428D01*
X147644030Y-121454329D01*
X147654520Y-121432150D01*
X147667132Y-121411107D01*
X147681747Y-121391401D01*
X147698223Y-121373223D01*
X147716401Y-121356747D01*
X147736107Y-121342132D01*
X147757150Y-121329520D01*
X147779329Y-121319030D01*
X147802428Y-121310765D01*
X147826227Y-121304804D01*
X147850495Y-121301204D01*
X147874999Y-121300000D01*
X148525001Y-121300000D01*
X148549505Y-121301204D01*
X148549505Y-121301204D01*
G37*
D20*
X148200000Y-122000000D03*
D14*
G36*
X148574505Y-118551204D02*
G01*
X148598773Y-118554804D01*
X148622572Y-118560765D01*
X148645671Y-118569030D01*
X148667850Y-118579520D01*
X148688893Y-118592132D01*
X148708599Y-118606747D01*
X148726777Y-118623223D01*
X148743253Y-118641401D01*
X148757868Y-118661107D01*
X148770480Y-118682150D01*
X148780970Y-118704329D01*
X148789235Y-118727428D01*
X148795196Y-118751227D01*
X148798796Y-118775495D01*
X148800000Y-118799999D01*
X148800000Y-119700001D01*
X148798796Y-119724505D01*
X148795196Y-119748773D01*
X148789235Y-119772572D01*
X148780970Y-119795671D01*
X148770480Y-119817850D01*
X148757868Y-119838893D01*
X148743253Y-119858599D01*
X148726777Y-119876777D01*
X148708599Y-119893253D01*
X148688893Y-119907868D01*
X148667850Y-119920480D01*
X148645671Y-119930970D01*
X148622572Y-119939235D01*
X148598773Y-119945196D01*
X148574505Y-119948796D01*
X148550001Y-119950000D01*
X147899999Y-119950000D01*
X147875495Y-119948796D01*
X147851227Y-119945196D01*
X147827428Y-119939235D01*
X147804329Y-119930970D01*
X147782150Y-119920480D01*
X147761107Y-119907868D01*
X147741401Y-119893253D01*
X147723223Y-119876777D01*
X147706747Y-119858599D01*
X147692132Y-119838893D01*
X147679520Y-119817850D01*
X147669030Y-119795671D01*
X147660765Y-119772572D01*
X147654804Y-119748773D01*
X147651204Y-119724505D01*
X147650000Y-119700001D01*
X147650000Y-118799999D01*
X147651204Y-118775495D01*
X147654804Y-118751227D01*
X147660765Y-118727428D01*
X147669030Y-118704329D01*
X147679520Y-118682150D01*
X147692132Y-118661107D01*
X147706747Y-118641401D01*
X147723223Y-118623223D01*
X147741401Y-118606747D01*
X147761107Y-118592132D01*
X147782150Y-118579520D01*
X147804329Y-118569030D01*
X147827428Y-118560765D01*
X147851227Y-118554804D01*
X147875495Y-118551204D01*
X147899999Y-118550000D01*
X148550001Y-118550000D01*
X148574505Y-118551204D01*
X148574505Y-118551204D01*
G37*
D20*
X148225000Y-119250000D03*
D14*
G36*
X150624505Y-118551204D02*
G01*
X150648773Y-118554804D01*
X150672572Y-118560765D01*
X150695671Y-118569030D01*
X150717850Y-118579520D01*
X150738893Y-118592132D01*
X150758599Y-118606747D01*
X150776777Y-118623223D01*
X150793253Y-118641401D01*
X150807868Y-118661107D01*
X150820480Y-118682150D01*
X150830970Y-118704329D01*
X150839235Y-118727428D01*
X150845196Y-118751227D01*
X150848796Y-118775495D01*
X150850000Y-118799999D01*
X150850000Y-119700001D01*
X150848796Y-119724505D01*
X150845196Y-119748773D01*
X150839235Y-119772572D01*
X150830970Y-119795671D01*
X150820480Y-119817850D01*
X150807868Y-119838893D01*
X150793253Y-119858599D01*
X150776777Y-119876777D01*
X150758599Y-119893253D01*
X150738893Y-119907868D01*
X150717850Y-119920480D01*
X150695671Y-119930970D01*
X150672572Y-119939235D01*
X150648773Y-119945196D01*
X150624505Y-119948796D01*
X150600001Y-119950000D01*
X149949999Y-119950000D01*
X149925495Y-119948796D01*
X149901227Y-119945196D01*
X149877428Y-119939235D01*
X149854329Y-119930970D01*
X149832150Y-119920480D01*
X149811107Y-119907868D01*
X149791401Y-119893253D01*
X149773223Y-119876777D01*
X149756747Y-119858599D01*
X149742132Y-119838893D01*
X149729520Y-119817850D01*
X149719030Y-119795671D01*
X149710765Y-119772572D01*
X149704804Y-119748773D01*
X149701204Y-119724505D01*
X149700000Y-119700001D01*
X149700000Y-118799999D01*
X149701204Y-118775495D01*
X149704804Y-118751227D01*
X149710765Y-118727428D01*
X149719030Y-118704329D01*
X149729520Y-118682150D01*
X149742132Y-118661107D01*
X149756747Y-118641401D01*
X149773223Y-118623223D01*
X149791401Y-118606747D01*
X149811107Y-118592132D01*
X149832150Y-118579520D01*
X149854329Y-118569030D01*
X149877428Y-118560765D01*
X149901227Y-118554804D01*
X149925495Y-118551204D01*
X149949999Y-118550000D01*
X150600001Y-118550000D01*
X150624505Y-118551204D01*
X150624505Y-118551204D01*
G37*
D20*
X150275000Y-119250000D03*
D14*
G36*
X139185779Y-118776144D02*
G01*
X139208834Y-118779563D01*
X139231443Y-118785227D01*
X139253387Y-118793079D01*
X139274457Y-118803044D01*
X139294448Y-118815026D01*
X139313168Y-118828910D01*
X139330438Y-118844562D01*
X139346090Y-118861832D01*
X139359974Y-118880552D01*
X139371956Y-118900543D01*
X139381921Y-118921613D01*
X139389773Y-118943557D01*
X139395437Y-118966166D01*
X139398856Y-118989221D01*
X139400000Y-119012500D01*
X139400000Y-119487500D01*
X139398856Y-119510779D01*
X139395437Y-119533834D01*
X139389773Y-119556443D01*
X139381921Y-119578387D01*
X139371956Y-119599457D01*
X139359974Y-119619448D01*
X139346090Y-119638168D01*
X139330438Y-119655438D01*
X139313168Y-119671090D01*
X139294448Y-119684974D01*
X139274457Y-119696956D01*
X139253387Y-119706921D01*
X139231443Y-119714773D01*
X139208834Y-119720437D01*
X139185779Y-119723856D01*
X139162500Y-119725000D01*
X138587500Y-119725000D01*
X138564221Y-119723856D01*
X138541166Y-119720437D01*
X138518557Y-119714773D01*
X138496613Y-119706921D01*
X138475543Y-119696956D01*
X138455552Y-119684974D01*
X138436832Y-119671090D01*
X138419562Y-119655438D01*
X138403910Y-119638168D01*
X138390026Y-119619448D01*
X138378044Y-119599457D01*
X138368079Y-119578387D01*
X138360227Y-119556443D01*
X138354563Y-119533834D01*
X138351144Y-119510779D01*
X138350000Y-119487500D01*
X138350000Y-119012500D01*
X138351144Y-118989221D01*
X138354563Y-118966166D01*
X138360227Y-118943557D01*
X138368079Y-118921613D01*
X138378044Y-118900543D01*
X138390026Y-118880552D01*
X138403910Y-118861832D01*
X138419562Y-118844562D01*
X138436832Y-118828910D01*
X138455552Y-118815026D01*
X138475543Y-118803044D01*
X138496613Y-118793079D01*
X138518557Y-118785227D01*
X138541166Y-118779563D01*
X138564221Y-118776144D01*
X138587500Y-118775000D01*
X139162500Y-118775000D01*
X139185779Y-118776144D01*
X139185779Y-118776144D01*
G37*
D15*
X138875000Y-119250000D03*
D14*
G36*
X137435779Y-118776144D02*
G01*
X137458834Y-118779563D01*
X137481443Y-118785227D01*
X137503387Y-118793079D01*
X137524457Y-118803044D01*
X137544448Y-118815026D01*
X137563168Y-118828910D01*
X137580438Y-118844562D01*
X137596090Y-118861832D01*
X137609974Y-118880552D01*
X137621956Y-118900543D01*
X137631921Y-118921613D01*
X137639773Y-118943557D01*
X137645437Y-118966166D01*
X137648856Y-118989221D01*
X137650000Y-119012500D01*
X137650000Y-119487500D01*
X137648856Y-119510779D01*
X137645437Y-119533834D01*
X137639773Y-119556443D01*
X137631921Y-119578387D01*
X137621956Y-119599457D01*
X137609974Y-119619448D01*
X137596090Y-119638168D01*
X137580438Y-119655438D01*
X137563168Y-119671090D01*
X137544448Y-119684974D01*
X137524457Y-119696956D01*
X137503387Y-119706921D01*
X137481443Y-119714773D01*
X137458834Y-119720437D01*
X137435779Y-119723856D01*
X137412500Y-119725000D01*
X136837500Y-119725000D01*
X136814221Y-119723856D01*
X136791166Y-119720437D01*
X136768557Y-119714773D01*
X136746613Y-119706921D01*
X136725543Y-119696956D01*
X136705552Y-119684974D01*
X136686832Y-119671090D01*
X136669562Y-119655438D01*
X136653910Y-119638168D01*
X136640026Y-119619448D01*
X136628044Y-119599457D01*
X136618079Y-119578387D01*
X136610227Y-119556443D01*
X136604563Y-119533834D01*
X136601144Y-119510779D01*
X136600000Y-119487500D01*
X136600000Y-119012500D01*
X136601144Y-118989221D01*
X136604563Y-118966166D01*
X136610227Y-118943557D01*
X136618079Y-118921613D01*
X136628044Y-118900543D01*
X136640026Y-118880552D01*
X136653910Y-118861832D01*
X136669562Y-118844562D01*
X136686832Y-118828910D01*
X136705552Y-118815026D01*
X136725543Y-118803044D01*
X136746613Y-118793079D01*
X136768557Y-118785227D01*
X136791166Y-118779563D01*
X136814221Y-118776144D01*
X136837500Y-118775000D01*
X137412500Y-118775000D01*
X137435779Y-118776144D01*
X137435779Y-118776144D01*
G37*
D15*
X137125000Y-119250000D03*
D14*
G36*
X139185779Y-120276144D02*
G01*
X139208834Y-120279563D01*
X139231443Y-120285227D01*
X139253387Y-120293079D01*
X139274457Y-120303044D01*
X139294448Y-120315026D01*
X139313168Y-120328910D01*
X139330438Y-120344562D01*
X139346090Y-120361832D01*
X139359974Y-120380552D01*
X139371956Y-120400543D01*
X139381921Y-120421613D01*
X139389773Y-120443557D01*
X139395437Y-120466166D01*
X139398856Y-120489221D01*
X139400000Y-120512500D01*
X139400000Y-120987500D01*
X139398856Y-121010779D01*
X139395437Y-121033834D01*
X139389773Y-121056443D01*
X139381921Y-121078387D01*
X139371956Y-121099457D01*
X139359974Y-121119448D01*
X139346090Y-121138168D01*
X139330438Y-121155438D01*
X139313168Y-121171090D01*
X139294448Y-121184974D01*
X139274457Y-121196956D01*
X139253387Y-121206921D01*
X139231443Y-121214773D01*
X139208834Y-121220437D01*
X139185779Y-121223856D01*
X139162500Y-121225000D01*
X138587500Y-121225000D01*
X138564221Y-121223856D01*
X138541166Y-121220437D01*
X138518557Y-121214773D01*
X138496613Y-121206921D01*
X138475543Y-121196956D01*
X138455552Y-121184974D01*
X138436832Y-121171090D01*
X138419562Y-121155438D01*
X138403910Y-121138168D01*
X138390026Y-121119448D01*
X138378044Y-121099457D01*
X138368079Y-121078387D01*
X138360227Y-121056443D01*
X138354563Y-121033834D01*
X138351144Y-121010779D01*
X138350000Y-120987500D01*
X138350000Y-120512500D01*
X138351144Y-120489221D01*
X138354563Y-120466166D01*
X138360227Y-120443557D01*
X138368079Y-120421613D01*
X138378044Y-120400543D01*
X138390026Y-120380552D01*
X138403910Y-120361832D01*
X138419562Y-120344562D01*
X138436832Y-120328910D01*
X138455552Y-120315026D01*
X138475543Y-120303044D01*
X138496613Y-120293079D01*
X138518557Y-120285227D01*
X138541166Y-120279563D01*
X138564221Y-120276144D01*
X138587500Y-120275000D01*
X139162500Y-120275000D01*
X139185779Y-120276144D01*
X139185779Y-120276144D01*
G37*
D15*
X138875000Y-120750000D03*
D14*
G36*
X137435779Y-120276144D02*
G01*
X137458834Y-120279563D01*
X137481443Y-120285227D01*
X137503387Y-120293079D01*
X137524457Y-120303044D01*
X137544448Y-120315026D01*
X137563168Y-120328910D01*
X137580438Y-120344562D01*
X137596090Y-120361832D01*
X137609974Y-120380552D01*
X137621956Y-120400543D01*
X137631921Y-120421613D01*
X137639773Y-120443557D01*
X137645437Y-120466166D01*
X137648856Y-120489221D01*
X137650000Y-120512500D01*
X137650000Y-120987500D01*
X137648856Y-121010779D01*
X137645437Y-121033834D01*
X137639773Y-121056443D01*
X137631921Y-121078387D01*
X137621956Y-121099457D01*
X137609974Y-121119448D01*
X137596090Y-121138168D01*
X137580438Y-121155438D01*
X137563168Y-121171090D01*
X137544448Y-121184974D01*
X137524457Y-121196956D01*
X137503387Y-121206921D01*
X137481443Y-121214773D01*
X137458834Y-121220437D01*
X137435779Y-121223856D01*
X137412500Y-121225000D01*
X136837500Y-121225000D01*
X136814221Y-121223856D01*
X136791166Y-121220437D01*
X136768557Y-121214773D01*
X136746613Y-121206921D01*
X136725543Y-121196956D01*
X136705552Y-121184974D01*
X136686832Y-121171090D01*
X136669562Y-121155438D01*
X136653910Y-121138168D01*
X136640026Y-121119448D01*
X136628044Y-121099457D01*
X136618079Y-121078387D01*
X136610227Y-121056443D01*
X136604563Y-121033834D01*
X136601144Y-121010779D01*
X136600000Y-120987500D01*
X136600000Y-120512500D01*
X136601144Y-120489221D01*
X136604563Y-120466166D01*
X136610227Y-120443557D01*
X136618079Y-120421613D01*
X136628044Y-120400543D01*
X136640026Y-120380552D01*
X136653910Y-120361832D01*
X136669562Y-120344562D01*
X136686832Y-120328910D01*
X136705552Y-120315026D01*
X136725543Y-120303044D01*
X136746613Y-120293079D01*
X136768557Y-120285227D01*
X136791166Y-120279563D01*
X136814221Y-120276144D01*
X136837500Y-120275000D01*
X137412500Y-120275000D01*
X137435779Y-120276144D01*
X137435779Y-120276144D01*
G37*
D15*
X137125000Y-120750000D03*
D14*
G36*
X137435779Y-121776144D02*
G01*
X137458834Y-121779563D01*
X137481443Y-121785227D01*
X137503387Y-121793079D01*
X137524457Y-121803044D01*
X137544448Y-121815026D01*
X137563168Y-121828910D01*
X137580438Y-121844562D01*
X137596090Y-121861832D01*
X137609974Y-121880552D01*
X137621956Y-121900543D01*
X137631921Y-121921613D01*
X137639773Y-121943557D01*
X137645437Y-121966166D01*
X137648856Y-121989221D01*
X137650000Y-122012500D01*
X137650000Y-122487500D01*
X137648856Y-122510779D01*
X137645437Y-122533834D01*
X137639773Y-122556443D01*
X137631921Y-122578387D01*
X137621956Y-122599457D01*
X137609974Y-122619448D01*
X137596090Y-122638168D01*
X137580438Y-122655438D01*
X137563168Y-122671090D01*
X137544448Y-122684974D01*
X137524457Y-122696956D01*
X137503387Y-122706921D01*
X137481443Y-122714773D01*
X137458834Y-122720437D01*
X137435779Y-122723856D01*
X137412500Y-122725000D01*
X136837500Y-122725000D01*
X136814221Y-122723856D01*
X136791166Y-122720437D01*
X136768557Y-122714773D01*
X136746613Y-122706921D01*
X136725543Y-122696956D01*
X136705552Y-122684974D01*
X136686832Y-122671090D01*
X136669562Y-122655438D01*
X136653910Y-122638168D01*
X136640026Y-122619448D01*
X136628044Y-122599457D01*
X136618079Y-122578387D01*
X136610227Y-122556443D01*
X136604563Y-122533834D01*
X136601144Y-122510779D01*
X136600000Y-122487500D01*
X136600000Y-122012500D01*
X136601144Y-121989221D01*
X136604563Y-121966166D01*
X136610227Y-121943557D01*
X136618079Y-121921613D01*
X136628044Y-121900543D01*
X136640026Y-121880552D01*
X136653910Y-121861832D01*
X136669562Y-121844562D01*
X136686832Y-121828910D01*
X136705552Y-121815026D01*
X136725543Y-121803044D01*
X136746613Y-121793079D01*
X136768557Y-121785227D01*
X136791166Y-121779563D01*
X136814221Y-121776144D01*
X136837500Y-121775000D01*
X137412500Y-121775000D01*
X137435779Y-121776144D01*
X137435779Y-121776144D01*
G37*
D15*
X137125000Y-122250000D03*
D14*
G36*
X139185779Y-121776144D02*
G01*
X139208834Y-121779563D01*
X139231443Y-121785227D01*
X139253387Y-121793079D01*
X139274457Y-121803044D01*
X139294448Y-121815026D01*
X139313168Y-121828910D01*
X139330438Y-121844562D01*
X139346090Y-121861832D01*
X139359974Y-121880552D01*
X139371956Y-121900543D01*
X139381921Y-121921613D01*
X139389773Y-121943557D01*
X139395437Y-121966166D01*
X139398856Y-121989221D01*
X139400000Y-122012500D01*
X139400000Y-122487500D01*
X139398856Y-122510779D01*
X139395437Y-122533834D01*
X139389773Y-122556443D01*
X139381921Y-122578387D01*
X139371956Y-122599457D01*
X139359974Y-122619448D01*
X139346090Y-122638168D01*
X139330438Y-122655438D01*
X139313168Y-122671090D01*
X139294448Y-122684974D01*
X139274457Y-122696956D01*
X139253387Y-122706921D01*
X139231443Y-122714773D01*
X139208834Y-122720437D01*
X139185779Y-122723856D01*
X139162500Y-122725000D01*
X138587500Y-122725000D01*
X138564221Y-122723856D01*
X138541166Y-122720437D01*
X138518557Y-122714773D01*
X138496613Y-122706921D01*
X138475543Y-122696956D01*
X138455552Y-122684974D01*
X138436832Y-122671090D01*
X138419562Y-122655438D01*
X138403910Y-122638168D01*
X138390026Y-122619448D01*
X138378044Y-122599457D01*
X138368079Y-122578387D01*
X138360227Y-122556443D01*
X138354563Y-122533834D01*
X138351144Y-122510779D01*
X138350000Y-122487500D01*
X138350000Y-122012500D01*
X138351144Y-121989221D01*
X138354563Y-121966166D01*
X138360227Y-121943557D01*
X138368079Y-121921613D01*
X138378044Y-121900543D01*
X138390026Y-121880552D01*
X138403910Y-121861832D01*
X138419562Y-121844562D01*
X138436832Y-121828910D01*
X138455552Y-121815026D01*
X138475543Y-121803044D01*
X138496613Y-121793079D01*
X138518557Y-121785227D01*
X138541166Y-121779563D01*
X138564221Y-121776144D01*
X138587500Y-121775000D01*
X139162500Y-121775000D01*
X139185779Y-121776144D01*
X139185779Y-121776144D01*
G37*
D15*
X138875000Y-122250000D03*
D14*
G36*
X142582351Y-122025361D02*
G01*
X142589632Y-122026441D01*
X142596771Y-122028229D01*
X142603701Y-122030709D01*
X142610355Y-122033856D01*
X142616668Y-122037640D01*
X142622579Y-122042024D01*
X142628033Y-122046967D01*
X142632976Y-122052421D01*
X142637360Y-122058332D01*
X142641144Y-122064645D01*
X142644291Y-122071299D01*
X142646771Y-122078229D01*
X142648559Y-122085368D01*
X142649639Y-122092649D01*
X142650000Y-122100000D01*
X142650000Y-122800000D01*
X142649639Y-122807351D01*
X142648559Y-122814632D01*
X142646771Y-122821771D01*
X142644291Y-122828701D01*
X142641144Y-122835355D01*
X142637360Y-122841668D01*
X142632976Y-122847579D01*
X142628033Y-122853033D01*
X142622579Y-122857976D01*
X142616668Y-122862360D01*
X142610355Y-122866144D01*
X142603701Y-122869291D01*
X142596771Y-122871771D01*
X142589632Y-122873559D01*
X142582351Y-122874639D01*
X142575000Y-122875000D01*
X142425000Y-122875000D01*
X142417649Y-122874639D01*
X142410368Y-122873559D01*
X142403229Y-122871771D01*
X142396299Y-122869291D01*
X142389645Y-122866144D01*
X142383332Y-122862360D01*
X142377421Y-122857976D01*
X142371967Y-122853033D01*
X142367024Y-122847579D01*
X142362640Y-122841668D01*
X142358856Y-122835355D01*
X142355709Y-122828701D01*
X142353229Y-122821771D01*
X142351441Y-122814632D01*
X142350361Y-122807351D01*
X142350000Y-122800000D01*
X142350000Y-122100000D01*
X142350361Y-122092649D01*
X142351441Y-122085368D01*
X142353229Y-122078229D01*
X142355709Y-122071299D01*
X142358856Y-122064645D01*
X142362640Y-122058332D01*
X142367024Y-122052421D01*
X142371967Y-122046967D01*
X142377421Y-122042024D01*
X142383332Y-122037640D01*
X142389645Y-122033856D01*
X142396299Y-122030709D01*
X142403229Y-122028229D01*
X142410368Y-122026441D01*
X142417649Y-122025361D01*
X142425000Y-122025000D01*
X142575000Y-122025000D01*
X142582351Y-122025361D01*
X142582351Y-122025361D01*
G37*
D25*
X142500000Y-122450000D03*
D14*
G36*
X143082351Y-122025361D02*
G01*
X143089632Y-122026441D01*
X143096771Y-122028229D01*
X143103701Y-122030709D01*
X143110355Y-122033856D01*
X143116668Y-122037640D01*
X143122579Y-122042024D01*
X143128033Y-122046967D01*
X143132976Y-122052421D01*
X143137360Y-122058332D01*
X143141144Y-122064645D01*
X143144291Y-122071299D01*
X143146771Y-122078229D01*
X143148559Y-122085368D01*
X143149639Y-122092649D01*
X143150000Y-122100000D01*
X143150000Y-122800000D01*
X143149639Y-122807351D01*
X143148559Y-122814632D01*
X143146771Y-122821771D01*
X143144291Y-122828701D01*
X143141144Y-122835355D01*
X143137360Y-122841668D01*
X143132976Y-122847579D01*
X143128033Y-122853033D01*
X143122579Y-122857976D01*
X143116668Y-122862360D01*
X143110355Y-122866144D01*
X143103701Y-122869291D01*
X143096771Y-122871771D01*
X143089632Y-122873559D01*
X143082351Y-122874639D01*
X143075000Y-122875000D01*
X142925000Y-122875000D01*
X142917649Y-122874639D01*
X142910368Y-122873559D01*
X142903229Y-122871771D01*
X142896299Y-122869291D01*
X142889645Y-122866144D01*
X142883332Y-122862360D01*
X142877421Y-122857976D01*
X142871967Y-122853033D01*
X142867024Y-122847579D01*
X142862640Y-122841668D01*
X142858856Y-122835355D01*
X142855709Y-122828701D01*
X142853229Y-122821771D01*
X142851441Y-122814632D01*
X142850361Y-122807351D01*
X142850000Y-122800000D01*
X142850000Y-122100000D01*
X142850361Y-122092649D01*
X142851441Y-122085368D01*
X142853229Y-122078229D01*
X142855709Y-122071299D01*
X142858856Y-122064645D01*
X142862640Y-122058332D01*
X142867024Y-122052421D01*
X142871967Y-122046967D01*
X142877421Y-122042024D01*
X142883332Y-122037640D01*
X142889645Y-122033856D01*
X142896299Y-122030709D01*
X142903229Y-122028229D01*
X142910368Y-122026441D01*
X142917649Y-122025361D01*
X142925000Y-122025000D01*
X143075000Y-122025000D01*
X143082351Y-122025361D01*
X143082351Y-122025361D01*
G37*
D25*
X143000000Y-122450000D03*
D14*
G36*
X143582351Y-122025361D02*
G01*
X143589632Y-122026441D01*
X143596771Y-122028229D01*
X143603701Y-122030709D01*
X143610355Y-122033856D01*
X143616668Y-122037640D01*
X143622579Y-122042024D01*
X143628033Y-122046967D01*
X143632976Y-122052421D01*
X143637360Y-122058332D01*
X143641144Y-122064645D01*
X143644291Y-122071299D01*
X143646771Y-122078229D01*
X143648559Y-122085368D01*
X143649639Y-122092649D01*
X143650000Y-122100000D01*
X143650000Y-122800000D01*
X143649639Y-122807351D01*
X143648559Y-122814632D01*
X143646771Y-122821771D01*
X143644291Y-122828701D01*
X143641144Y-122835355D01*
X143637360Y-122841668D01*
X143632976Y-122847579D01*
X143628033Y-122853033D01*
X143622579Y-122857976D01*
X143616668Y-122862360D01*
X143610355Y-122866144D01*
X143603701Y-122869291D01*
X143596771Y-122871771D01*
X143589632Y-122873559D01*
X143582351Y-122874639D01*
X143575000Y-122875000D01*
X143425000Y-122875000D01*
X143417649Y-122874639D01*
X143410368Y-122873559D01*
X143403229Y-122871771D01*
X143396299Y-122869291D01*
X143389645Y-122866144D01*
X143383332Y-122862360D01*
X143377421Y-122857976D01*
X143371967Y-122853033D01*
X143367024Y-122847579D01*
X143362640Y-122841668D01*
X143358856Y-122835355D01*
X143355709Y-122828701D01*
X143353229Y-122821771D01*
X143351441Y-122814632D01*
X143350361Y-122807351D01*
X143350000Y-122800000D01*
X143350000Y-122100000D01*
X143350361Y-122092649D01*
X143351441Y-122085368D01*
X143353229Y-122078229D01*
X143355709Y-122071299D01*
X143358856Y-122064645D01*
X143362640Y-122058332D01*
X143367024Y-122052421D01*
X143371967Y-122046967D01*
X143377421Y-122042024D01*
X143383332Y-122037640D01*
X143389645Y-122033856D01*
X143396299Y-122030709D01*
X143403229Y-122028229D01*
X143410368Y-122026441D01*
X143417649Y-122025361D01*
X143425000Y-122025000D01*
X143575000Y-122025000D01*
X143582351Y-122025361D01*
X143582351Y-122025361D01*
G37*
D25*
X143500000Y-122450000D03*
D14*
G36*
X144082351Y-122025361D02*
G01*
X144089632Y-122026441D01*
X144096771Y-122028229D01*
X144103701Y-122030709D01*
X144110355Y-122033856D01*
X144116668Y-122037640D01*
X144122579Y-122042024D01*
X144128033Y-122046967D01*
X144132976Y-122052421D01*
X144137360Y-122058332D01*
X144141144Y-122064645D01*
X144144291Y-122071299D01*
X144146771Y-122078229D01*
X144148559Y-122085368D01*
X144149639Y-122092649D01*
X144150000Y-122100000D01*
X144150000Y-122800000D01*
X144149639Y-122807351D01*
X144148559Y-122814632D01*
X144146771Y-122821771D01*
X144144291Y-122828701D01*
X144141144Y-122835355D01*
X144137360Y-122841668D01*
X144132976Y-122847579D01*
X144128033Y-122853033D01*
X144122579Y-122857976D01*
X144116668Y-122862360D01*
X144110355Y-122866144D01*
X144103701Y-122869291D01*
X144096771Y-122871771D01*
X144089632Y-122873559D01*
X144082351Y-122874639D01*
X144075000Y-122875000D01*
X143925000Y-122875000D01*
X143917649Y-122874639D01*
X143910368Y-122873559D01*
X143903229Y-122871771D01*
X143896299Y-122869291D01*
X143889645Y-122866144D01*
X143883332Y-122862360D01*
X143877421Y-122857976D01*
X143871967Y-122853033D01*
X143867024Y-122847579D01*
X143862640Y-122841668D01*
X143858856Y-122835355D01*
X143855709Y-122828701D01*
X143853229Y-122821771D01*
X143851441Y-122814632D01*
X143850361Y-122807351D01*
X143850000Y-122800000D01*
X143850000Y-122100000D01*
X143850361Y-122092649D01*
X143851441Y-122085368D01*
X143853229Y-122078229D01*
X143855709Y-122071299D01*
X143858856Y-122064645D01*
X143862640Y-122058332D01*
X143867024Y-122052421D01*
X143871967Y-122046967D01*
X143877421Y-122042024D01*
X143883332Y-122037640D01*
X143889645Y-122033856D01*
X143896299Y-122030709D01*
X143903229Y-122028229D01*
X143910368Y-122026441D01*
X143917649Y-122025361D01*
X143925000Y-122025000D01*
X144075000Y-122025000D01*
X144082351Y-122025361D01*
X144082351Y-122025361D01*
G37*
D25*
X144000000Y-122450000D03*
D14*
G36*
X144582351Y-122025361D02*
G01*
X144589632Y-122026441D01*
X144596771Y-122028229D01*
X144603701Y-122030709D01*
X144610355Y-122033856D01*
X144616668Y-122037640D01*
X144622579Y-122042024D01*
X144628033Y-122046967D01*
X144632976Y-122052421D01*
X144637360Y-122058332D01*
X144641144Y-122064645D01*
X144644291Y-122071299D01*
X144646771Y-122078229D01*
X144648559Y-122085368D01*
X144649639Y-122092649D01*
X144650000Y-122100000D01*
X144650000Y-122800000D01*
X144649639Y-122807351D01*
X144648559Y-122814632D01*
X144646771Y-122821771D01*
X144644291Y-122828701D01*
X144641144Y-122835355D01*
X144637360Y-122841668D01*
X144632976Y-122847579D01*
X144628033Y-122853033D01*
X144622579Y-122857976D01*
X144616668Y-122862360D01*
X144610355Y-122866144D01*
X144603701Y-122869291D01*
X144596771Y-122871771D01*
X144589632Y-122873559D01*
X144582351Y-122874639D01*
X144575000Y-122875000D01*
X144425000Y-122875000D01*
X144417649Y-122874639D01*
X144410368Y-122873559D01*
X144403229Y-122871771D01*
X144396299Y-122869291D01*
X144389645Y-122866144D01*
X144383332Y-122862360D01*
X144377421Y-122857976D01*
X144371967Y-122853033D01*
X144367024Y-122847579D01*
X144362640Y-122841668D01*
X144358856Y-122835355D01*
X144355709Y-122828701D01*
X144353229Y-122821771D01*
X144351441Y-122814632D01*
X144350361Y-122807351D01*
X144350000Y-122800000D01*
X144350000Y-122100000D01*
X144350361Y-122092649D01*
X144351441Y-122085368D01*
X144353229Y-122078229D01*
X144355709Y-122071299D01*
X144358856Y-122064645D01*
X144362640Y-122058332D01*
X144367024Y-122052421D01*
X144371967Y-122046967D01*
X144377421Y-122042024D01*
X144383332Y-122037640D01*
X144389645Y-122033856D01*
X144396299Y-122030709D01*
X144403229Y-122028229D01*
X144410368Y-122026441D01*
X144417649Y-122025361D01*
X144425000Y-122025000D01*
X144575000Y-122025000D01*
X144582351Y-122025361D01*
X144582351Y-122025361D01*
G37*
D25*
X144500000Y-122450000D03*
D14*
G36*
X145082351Y-122025361D02*
G01*
X145089632Y-122026441D01*
X145096771Y-122028229D01*
X145103701Y-122030709D01*
X145110355Y-122033856D01*
X145116668Y-122037640D01*
X145122579Y-122042024D01*
X145128033Y-122046967D01*
X145132976Y-122052421D01*
X145137360Y-122058332D01*
X145141144Y-122064645D01*
X145144291Y-122071299D01*
X145146771Y-122078229D01*
X145148559Y-122085368D01*
X145149639Y-122092649D01*
X145150000Y-122100000D01*
X145150000Y-122800000D01*
X145149639Y-122807351D01*
X145148559Y-122814632D01*
X145146771Y-122821771D01*
X145144291Y-122828701D01*
X145141144Y-122835355D01*
X145137360Y-122841668D01*
X145132976Y-122847579D01*
X145128033Y-122853033D01*
X145122579Y-122857976D01*
X145116668Y-122862360D01*
X145110355Y-122866144D01*
X145103701Y-122869291D01*
X145096771Y-122871771D01*
X145089632Y-122873559D01*
X145082351Y-122874639D01*
X145075000Y-122875000D01*
X144925000Y-122875000D01*
X144917649Y-122874639D01*
X144910368Y-122873559D01*
X144903229Y-122871771D01*
X144896299Y-122869291D01*
X144889645Y-122866144D01*
X144883332Y-122862360D01*
X144877421Y-122857976D01*
X144871967Y-122853033D01*
X144867024Y-122847579D01*
X144862640Y-122841668D01*
X144858856Y-122835355D01*
X144855709Y-122828701D01*
X144853229Y-122821771D01*
X144851441Y-122814632D01*
X144850361Y-122807351D01*
X144850000Y-122800000D01*
X144850000Y-122100000D01*
X144850361Y-122092649D01*
X144851441Y-122085368D01*
X144853229Y-122078229D01*
X144855709Y-122071299D01*
X144858856Y-122064645D01*
X144862640Y-122058332D01*
X144867024Y-122052421D01*
X144871967Y-122046967D01*
X144877421Y-122042024D01*
X144883332Y-122037640D01*
X144889645Y-122033856D01*
X144896299Y-122030709D01*
X144903229Y-122028229D01*
X144910368Y-122026441D01*
X144917649Y-122025361D01*
X144925000Y-122025000D01*
X145075000Y-122025000D01*
X145082351Y-122025361D01*
X145082351Y-122025361D01*
G37*
D25*
X145000000Y-122450000D03*
D14*
G36*
X146057351Y-121600361D02*
G01*
X146064632Y-121601441D01*
X146071771Y-121603229D01*
X146078701Y-121605709D01*
X146085355Y-121608856D01*
X146091668Y-121612640D01*
X146097579Y-121617024D01*
X146103033Y-121621967D01*
X146107976Y-121627421D01*
X146112360Y-121633332D01*
X146116144Y-121639645D01*
X146119291Y-121646299D01*
X146121771Y-121653229D01*
X146123559Y-121660368D01*
X146124639Y-121667649D01*
X146125000Y-121675000D01*
X146125000Y-121825000D01*
X146124639Y-121832351D01*
X146123559Y-121839632D01*
X146121771Y-121846771D01*
X146119291Y-121853701D01*
X146116144Y-121860355D01*
X146112360Y-121866668D01*
X146107976Y-121872579D01*
X146103033Y-121878033D01*
X146097579Y-121882976D01*
X146091668Y-121887360D01*
X146085355Y-121891144D01*
X146078701Y-121894291D01*
X146071771Y-121896771D01*
X146064632Y-121898559D01*
X146057351Y-121899639D01*
X146050000Y-121900000D01*
X145350000Y-121900000D01*
X145342649Y-121899639D01*
X145335368Y-121898559D01*
X145328229Y-121896771D01*
X145321299Y-121894291D01*
X145314645Y-121891144D01*
X145308332Y-121887360D01*
X145302421Y-121882976D01*
X145296967Y-121878033D01*
X145292024Y-121872579D01*
X145287640Y-121866668D01*
X145283856Y-121860355D01*
X145280709Y-121853701D01*
X145278229Y-121846771D01*
X145276441Y-121839632D01*
X145275361Y-121832351D01*
X145275000Y-121825000D01*
X145275000Y-121675000D01*
X145275361Y-121667649D01*
X145276441Y-121660368D01*
X145278229Y-121653229D01*
X145280709Y-121646299D01*
X145283856Y-121639645D01*
X145287640Y-121633332D01*
X145292024Y-121627421D01*
X145296967Y-121621967D01*
X145302421Y-121617024D01*
X145308332Y-121612640D01*
X145314645Y-121608856D01*
X145321299Y-121605709D01*
X145328229Y-121603229D01*
X145335368Y-121601441D01*
X145342649Y-121600361D01*
X145350000Y-121600000D01*
X146050000Y-121600000D01*
X146057351Y-121600361D01*
X146057351Y-121600361D01*
G37*
D25*
X145700000Y-121750000D03*
D14*
G36*
X146057351Y-121100361D02*
G01*
X146064632Y-121101441D01*
X146071771Y-121103229D01*
X146078701Y-121105709D01*
X146085355Y-121108856D01*
X146091668Y-121112640D01*
X146097579Y-121117024D01*
X146103033Y-121121967D01*
X146107976Y-121127421D01*
X146112360Y-121133332D01*
X146116144Y-121139645D01*
X146119291Y-121146299D01*
X146121771Y-121153229D01*
X146123559Y-121160368D01*
X146124639Y-121167649D01*
X146125000Y-121175000D01*
X146125000Y-121325000D01*
X146124639Y-121332351D01*
X146123559Y-121339632D01*
X146121771Y-121346771D01*
X146119291Y-121353701D01*
X146116144Y-121360355D01*
X146112360Y-121366668D01*
X146107976Y-121372579D01*
X146103033Y-121378033D01*
X146097579Y-121382976D01*
X146091668Y-121387360D01*
X146085355Y-121391144D01*
X146078701Y-121394291D01*
X146071771Y-121396771D01*
X146064632Y-121398559D01*
X146057351Y-121399639D01*
X146050000Y-121400000D01*
X145350000Y-121400000D01*
X145342649Y-121399639D01*
X145335368Y-121398559D01*
X145328229Y-121396771D01*
X145321299Y-121394291D01*
X145314645Y-121391144D01*
X145308332Y-121387360D01*
X145302421Y-121382976D01*
X145296967Y-121378033D01*
X145292024Y-121372579D01*
X145287640Y-121366668D01*
X145283856Y-121360355D01*
X145280709Y-121353701D01*
X145278229Y-121346771D01*
X145276441Y-121339632D01*
X145275361Y-121332351D01*
X145275000Y-121325000D01*
X145275000Y-121175000D01*
X145275361Y-121167649D01*
X145276441Y-121160368D01*
X145278229Y-121153229D01*
X145280709Y-121146299D01*
X145283856Y-121139645D01*
X145287640Y-121133332D01*
X145292024Y-121127421D01*
X145296967Y-121121967D01*
X145302421Y-121117024D01*
X145308332Y-121112640D01*
X145314645Y-121108856D01*
X145321299Y-121105709D01*
X145328229Y-121103229D01*
X145335368Y-121101441D01*
X145342649Y-121100361D01*
X145350000Y-121100000D01*
X146050000Y-121100000D01*
X146057351Y-121100361D01*
X146057351Y-121100361D01*
G37*
D25*
X145700000Y-121250000D03*
D14*
G36*
X146057351Y-120600361D02*
G01*
X146064632Y-120601441D01*
X146071771Y-120603229D01*
X146078701Y-120605709D01*
X146085355Y-120608856D01*
X146091668Y-120612640D01*
X146097579Y-120617024D01*
X146103033Y-120621967D01*
X146107976Y-120627421D01*
X146112360Y-120633332D01*
X146116144Y-120639645D01*
X146119291Y-120646299D01*
X146121771Y-120653229D01*
X146123559Y-120660368D01*
X146124639Y-120667649D01*
X146125000Y-120675000D01*
X146125000Y-120825000D01*
X146124639Y-120832351D01*
X146123559Y-120839632D01*
X146121771Y-120846771D01*
X146119291Y-120853701D01*
X146116144Y-120860355D01*
X146112360Y-120866668D01*
X146107976Y-120872579D01*
X146103033Y-120878033D01*
X146097579Y-120882976D01*
X146091668Y-120887360D01*
X146085355Y-120891144D01*
X146078701Y-120894291D01*
X146071771Y-120896771D01*
X146064632Y-120898559D01*
X146057351Y-120899639D01*
X146050000Y-120900000D01*
X145350000Y-120900000D01*
X145342649Y-120899639D01*
X145335368Y-120898559D01*
X145328229Y-120896771D01*
X145321299Y-120894291D01*
X145314645Y-120891144D01*
X145308332Y-120887360D01*
X145302421Y-120882976D01*
X145296967Y-120878033D01*
X145292024Y-120872579D01*
X145287640Y-120866668D01*
X145283856Y-120860355D01*
X145280709Y-120853701D01*
X145278229Y-120846771D01*
X145276441Y-120839632D01*
X145275361Y-120832351D01*
X145275000Y-120825000D01*
X145275000Y-120675000D01*
X145275361Y-120667649D01*
X145276441Y-120660368D01*
X145278229Y-120653229D01*
X145280709Y-120646299D01*
X145283856Y-120639645D01*
X145287640Y-120633332D01*
X145292024Y-120627421D01*
X145296967Y-120621967D01*
X145302421Y-120617024D01*
X145308332Y-120612640D01*
X145314645Y-120608856D01*
X145321299Y-120605709D01*
X145328229Y-120603229D01*
X145335368Y-120601441D01*
X145342649Y-120600361D01*
X145350000Y-120600000D01*
X146050000Y-120600000D01*
X146057351Y-120600361D01*
X146057351Y-120600361D01*
G37*
D25*
X145700000Y-120750000D03*
D14*
G36*
X146057351Y-120100361D02*
G01*
X146064632Y-120101441D01*
X146071771Y-120103229D01*
X146078701Y-120105709D01*
X146085355Y-120108856D01*
X146091668Y-120112640D01*
X146097579Y-120117024D01*
X146103033Y-120121967D01*
X146107976Y-120127421D01*
X146112360Y-120133332D01*
X146116144Y-120139645D01*
X146119291Y-120146299D01*
X146121771Y-120153229D01*
X146123559Y-120160368D01*
X146124639Y-120167649D01*
X146125000Y-120175000D01*
X146125000Y-120325000D01*
X146124639Y-120332351D01*
X146123559Y-120339632D01*
X146121771Y-120346771D01*
X146119291Y-120353701D01*
X146116144Y-120360355D01*
X146112360Y-120366668D01*
X146107976Y-120372579D01*
X146103033Y-120378033D01*
X146097579Y-120382976D01*
X146091668Y-120387360D01*
X146085355Y-120391144D01*
X146078701Y-120394291D01*
X146071771Y-120396771D01*
X146064632Y-120398559D01*
X146057351Y-120399639D01*
X146050000Y-120400000D01*
X145350000Y-120400000D01*
X145342649Y-120399639D01*
X145335368Y-120398559D01*
X145328229Y-120396771D01*
X145321299Y-120394291D01*
X145314645Y-120391144D01*
X145308332Y-120387360D01*
X145302421Y-120382976D01*
X145296967Y-120378033D01*
X145292024Y-120372579D01*
X145287640Y-120366668D01*
X145283856Y-120360355D01*
X145280709Y-120353701D01*
X145278229Y-120346771D01*
X145276441Y-120339632D01*
X145275361Y-120332351D01*
X145275000Y-120325000D01*
X145275000Y-120175000D01*
X145275361Y-120167649D01*
X145276441Y-120160368D01*
X145278229Y-120153229D01*
X145280709Y-120146299D01*
X145283856Y-120139645D01*
X145287640Y-120133332D01*
X145292024Y-120127421D01*
X145296967Y-120121967D01*
X145302421Y-120117024D01*
X145308332Y-120112640D01*
X145314645Y-120108856D01*
X145321299Y-120105709D01*
X145328229Y-120103229D01*
X145335368Y-120101441D01*
X145342649Y-120100361D01*
X145350000Y-120100000D01*
X146050000Y-120100000D01*
X146057351Y-120100361D01*
X146057351Y-120100361D01*
G37*
D25*
X145700000Y-120250000D03*
D14*
G36*
X146057351Y-119600361D02*
G01*
X146064632Y-119601441D01*
X146071771Y-119603229D01*
X146078701Y-119605709D01*
X146085355Y-119608856D01*
X146091668Y-119612640D01*
X146097579Y-119617024D01*
X146103033Y-119621967D01*
X146107976Y-119627421D01*
X146112360Y-119633332D01*
X146116144Y-119639645D01*
X146119291Y-119646299D01*
X146121771Y-119653229D01*
X146123559Y-119660368D01*
X146124639Y-119667649D01*
X146125000Y-119675000D01*
X146125000Y-119825000D01*
X146124639Y-119832351D01*
X146123559Y-119839632D01*
X146121771Y-119846771D01*
X146119291Y-119853701D01*
X146116144Y-119860355D01*
X146112360Y-119866668D01*
X146107976Y-119872579D01*
X146103033Y-119878033D01*
X146097579Y-119882976D01*
X146091668Y-119887360D01*
X146085355Y-119891144D01*
X146078701Y-119894291D01*
X146071771Y-119896771D01*
X146064632Y-119898559D01*
X146057351Y-119899639D01*
X146050000Y-119900000D01*
X145350000Y-119900000D01*
X145342649Y-119899639D01*
X145335368Y-119898559D01*
X145328229Y-119896771D01*
X145321299Y-119894291D01*
X145314645Y-119891144D01*
X145308332Y-119887360D01*
X145302421Y-119882976D01*
X145296967Y-119878033D01*
X145292024Y-119872579D01*
X145287640Y-119866668D01*
X145283856Y-119860355D01*
X145280709Y-119853701D01*
X145278229Y-119846771D01*
X145276441Y-119839632D01*
X145275361Y-119832351D01*
X145275000Y-119825000D01*
X145275000Y-119675000D01*
X145275361Y-119667649D01*
X145276441Y-119660368D01*
X145278229Y-119653229D01*
X145280709Y-119646299D01*
X145283856Y-119639645D01*
X145287640Y-119633332D01*
X145292024Y-119627421D01*
X145296967Y-119621967D01*
X145302421Y-119617024D01*
X145308332Y-119612640D01*
X145314645Y-119608856D01*
X145321299Y-119605709D01*
X145328229Y-119603229D01*
X145335368Y-119601441D01*
X145342649Y-119600361D01*
X145350000Y-119600000D01*
X146050000Y-119600000D01*
X146057351Y-119600361D01*
X146057351Y-119600361D01*
G37*
D25*
X145700000Y-119750000D03*
D14*
G36*
X146057351Y-119100361D02*
G01*
X146064632Y-119101441D01*
X146071771Y-119103229D01*
X146078701Y-119105709D01*
X146085355Y-119108856D01*
X146091668Y-119112640D01*
X146097579Y-119117024D01*
X146103033Y-119121967D01*
X146107976Y-119127421D01*
X146112360Y-119133332D01*
X146116144Y-119139645D01*
X146119291Y-119146299D01*
X146121771Y-119153229D01*
X146123559Y-119160368D01*
X146124639Y-119167649D01*
X146125000Y-119175000D01*
X146125000Y-119325000D01*
X146124639Y-119332351D01*
X146123559Y-119339632D01*
X146121771Y-119346771D01*
X146119291Y-119353701D01*
X146116144Y-119360355D01*
X146112360Y-119366668D01*
X146107976Y-119372579D01*
X146103033Y-119378033D01*
X146097579Y-119382976D01*
X146091668Y-119387360D01*
X146085355Y-119391144D01*
X146078701Y-119394291D01*
X146071771Y-119396771D01*
X146064632Y-119398559D01*
X146057351Y-119399639D01*
X146050000Y-119400000D01*
X145350000Y-119400000D01*
X145342649Y-119399639D01*
X145335368Y-119398559D01*
X145328229Y-119396771D01*
X145321299Y-119394291D01*
X145314645Y-119391144D01*
X145308332Y-119387360D01*
X145302421Y-119382976D01*
X145296967Y-119378033D01*
X145292024Y-119372579D01*
X145287640Y-119366668D01*
X145283856Y-119360355D01*
X145280709Y-119353701D01*
X145278229Y-119346771D01*
X145276441Y-119339632D01*
X145275361Y-119332351D01*
X145275000Y-119325000D01*
X145275000Y-119175000D01*
X145275361Y-119167649D01*
X145276441Y-119160368D01*
X145278229Y-119153229D01*
X145280709Y-119146299D01*
X145283856Y-119139645D01*
X145287640Y-119133332D01*
X145292024Y-119127421D01*
X145296967Y-119121967D01*
X145302421Y-119117024D01*
X145308332Y-119112640D01*
X145314645Y-119108856D01*
X145321299Y-119105709D01*
X145328229Y-119103229D01*
X145335368Y-119101441D01*
X145342649Y-119100361D01*
X145350000Y-119100000D01*
X146050000Y-119100000D01*
X146057351Y-119100361D01*
X146057351Y-119100361D01*
G37*
D25*
X145700000Y-119250000D03*
D14*
G36*
X145082351Y-118125361D02*
G01*
X145089632Y-118126441D01*
X145096771Y-118128229D01*
X145103701Y-118130709D01*
X145110355Y-118133856D01*
X145116668Y-118137640D01*
X145122579Y-118142024D01*
X145128033Y-118146967D01*
X145132976Y-118152421D01*
X145137360Y-118158332D01*
X145141144Y-118164645D01*
X145144291Y-118171299D01*
X145146771Y-118178229D01*
X145148559Y-118185368D01*
X145149639Y-118192649D01*
X145150000Y-118200000D01*
X145150000Y-118900000D01*
X145149639Y-118907351D01*
X145148559Y-118914632D01*
X145146771Y-118921771D01*
X145144291Y-118928701D01*
X145141144Y-118935355D01*
X145137360Y-118941668D01*
X145132976Y-118947579D01*
X145128033Y-118953033D01*
X145122579Y-118957976D01*
X145116668Y-118962360D01*
X145110355Y-118966144D01*
X145103701Y-118969291D01*
X145096771Y-118971771D01*
X145089632Y-118973559D01*
X145082351Y-118974639D01*
X145075000Y-118975000D01*
X144925000Y-118975000D01*
X144917649Y-118974639D01*
X144910368Y-118973559D01*
X144903229Y-118971771D01*
X144896299Y-118969291D01*
X144889645Y-118966144D01*
X144883332Y-118962360D01*
X144877421Y-118957976D01*
X144871967Y-118953033D01*
X144867024Y-118947579D01*
X144862640Y-118941668D01*
X144858856Y-118935355D01*
X144855709Y-118928701D01*
X144853229Y-118921771D01*
X144851441Y-118914632D01*
X144850361Y-118907351D01*
X144850000Y-118900000D01*
X144850000Y-118200000D01*
X144850361Y-118192649D01*
X144851441Y-118185368D01*
X144853229Y-118178229D01*
X144855709Y-118171299D01*
X144858856Y-118164645D01*
X144862640Y-118158332D01*
X144867024Y-118152421D01*
X144871967Y-118146967D01*
X144877421Y-118142024D01*
X144883332Y-118137640D01*
X144889645Y-118133856D01*
X144896299Y-118130709D01*
X144903229Y-118128229D01*
X144910368Y-118126441D01*
X144917649Y-118125361D01*
X144925000Y-118125000D01*
X145075000Y-118125000D01*
X145082351Y-118125361D01*
X145082351Y-118125361D01*
G37*
D25*
X145000000Y-118550000D03*
D14*
G36*
X144582351Y-118125361D02*
G01*
X144589632Y-118126441D01*
X144596771Y-118128229D01*
X144603701Y-118130709D01*
X144610355Y-118133856D01*
X144616668Y-118137640D01*
X144622579Y-118142024D01*
X144628033Y-118146967D01*
X144632976Y-118152421D01*
X144637360Y-118158332D01*
X144641144Y-118164645D01*
X144644291Y-118171299D01*
X144646771Y-118178229D01*
X144648559Y-118185368D01*
X144649639Y-118192649D01*
X144650000Y-118200000D01*
X144650000Y-118900000D01*
X144649639Y-118907351D01*
X144648559Y-118914632D01*
X144646771Y-118921771D01*
X144644291Y-118928701D01*
X144641144Y-118935355D01*
X144637360Y-118941668D01*
X144632976Y-118947579D01*
X144628033Y-118953033D01*
X144622579Y-118957976D01*
X144616668Y-118962360D01*
X144610355Y-118966144D01*
X144603701Y-118969291D01*
X144596771Y-118971771D01*
X144589632Y-118973559D01*
X144582351Y-118974639D01*
X144575000Y-118975000D01*
X144425000Y-118975000D01*
X144417649Y-118974639D01*
X144410368Y-118973559D01*
X144403229Y-118971771D01*
X144396299Y-118969291D01*
X144389645Y-118966144D01*
X144383332Y-118962360D01*
X144377421Y-118957976D01*
X144371967Y-118953033D01*
X144367024Y-118947579D01*
X144362640Y-118941668D01*
X144358856Y-118935355D01*
X144355709Y-118928701D01*
X144353229Y-118921771D01*
X144351441Y-118914632D01*
X144350361Y-118907351D01*
X144350000Y-118900000D01*
X144350000Y-118200000D01*
X144350361Y-118192649D01*
X144351441Y-118185368D01*
X144353229Y-118178229D01*
X144355709Y-118171299D01*
X144358856Y-118164645D01*
X144362640Y-118158332D01*
X144367024Y-118152421D01*
X144371967Y-118146967D01*
X144377421Y-118142024D01*
X144383332Y-118137640D01*
X144389645Y-118133856D01*
X144396299Y-118130709D01*
X144403229Y-118128229D01*
X144410368Y-118126441D01*
X144417649Y-118125361D01*
X144425000Y-118125000D01*
X144575000Y-118125000D01*
X144582351Y-118125361D01*
X144582351Y-118125361D01*
G37*
D25*
X144500000Y-118550000D03*
D14*
G36*
X144082351Y-118125361D02*
G01*
X144089632Y-118126441D01*
X144096771Y-118128229D01*
X144103701Y-118130709D01*
X144110355Y-118133856D01*
X144116668Y-118137640D01*
X144122579Y-118142024D01*
X144128033Y-118146967D01*
X144132976Y-118152421D01*
X144137360Y-118158332D01*
X144141144Y-118164645D01*
X144144291Y-118171299D01*
X144146771Y-118178229D01*
X144148559Y-118185368D01*
X144149639Y-118192649D01*
X144150000Y-118200000D01*
X144150000Y-118900000D01*
X144149639Y-118907351D01*
X144148559Y-118914632D01*
X144146771Y-118921771D01*
X144144291Y-118928701D01*
X144141144Y-118935355D01*
X144137360Y-118941668D01*
X144132976Y-118947579D01*
X144128033Y-118953033D01*
X144122579Y-118957976D01*
X144116668Y-118962360D01*
X144110355Y-118966144D01*
X144103701Y-118969291D01*
X144096771Y-118971771D01*
X144089632Y-118973559D01*
X144082351Y-118974639D01*
X144075000Y-118975000D01*
X143925000Y-118975000D01*
X143917649Y-118974639D01*
X143910368Y-118973559D01*
X143903229Y-118971771D01*
X143896299Y-118969291D01*
X143889645Y-118966144D01*
X143883332Y-118962360D01*
X143877421Y-118957976D01*
X143871967Y-118953033D01*
X143867024Y-118947579D01*
X143862640Y-118941668D01*
X143858856Y-118935355D01*
X143855709Y-118928701D01*
X143853229Y-118921771D01*
X143851441Y-118914632D01*
X143850361Y-118907351D01*
X143850000Y-118900000D01*
X143850000Y-118200000D01*
X143850361Y-118192649D01*
X143851441Y-118185368D01*
X143853229Y-118178229D01*
X143855709Y-118171299D01*
X143858856Y-118164645D01*
X143862640Y-118158332D01*
X143867024Y-118152421D01*
X143871967Y-118146967D01*
X143877421Y-118142024D01*
X143883332Y-118137640D01*
X143889645Y-118133856D01*
X143896299Y-118130709D01*
X143903229Y-118128229D01*
X143910368Y-118126441D01*
X143917649Y-118125361D01*
X143925000Y-118125000D01*
X144075000Y-118125000D01*
X144082351Y-118125361D01*
X144082351Y-118125361D01*
G37*
D25*
X144000000Y-118550000D03*
D14*
G36*
X143582351Y-118125361D02*
G01*
X143589632Y-118126441D01*
X143596771Y-118128229D01*
X143603701Y-118130709D01*
X143610355Y-118133856D01*
X143616668Y-118137640D01*
X143622579Y-118142024D01*
X143628033Y-118146967D01*
X143632976Y-118152421D01*
X143637360Y-118158332D01*
X143641144Y-118164645D01*
X143644291Y-118171299D01*
X143646771Y-118178229D01*
X143648559Y-118185368D01*
X143649639Y-118192649D01*
X143650000Y-118200000D01*
X143650000Y-118900000D01*
X143649639Y-118907351D01*
X143648559Y-118914632D01*
X143646771Y-118921771D01*
X143644291Y-118928701D01*
X143641144Y-118935355D01*
X143637360Y-118941668D01*
X143632976Y-118947579D01*
X143628033Y-118953033D01*
X143622579Y-118957976D01*
X143616668Y-118962360D01*
X143610355Y-118966144D01*
X143603701Y-118969291D01*
X143596771Y-118971771D01*
X143589632Y-118973559D01*
X143582351Y-118974639D01*
X143575000Y-118975000D01*
X143425000Y-118975000D01*
X143417649Y-118974639D01*
X143410368Y-118973559D01*
X143403229Y-118971771D01*
X143396299Y-118969291D01*
X143389645Y-118966144D01*
X143383332Y-118962360D01*
X143377421Y-118957976D01*
X143371967Y-118953033D01*
X143367024Y-118947579D01*
X143362640Y-118941668D01*
X143358856Y-118935355D01*
X143355709Y-118928701D01*
X143353229Y-118921771D01*
X143351441Y-118914632D01*
X143350361Y-118907351D01*
X143350000Y-118900000D01*
X143350000Y-118200000D01*
X143350361Y-118192649D01*
X143351441Y-118185368D01*
X143353229Y-118178229D01*
X143355709Y-118171299D01*
X143358856Y-118164645D01*
X143362640Y-118158332D01*
X143367024Y-118152421D01*
X143371967Y-118146967D01*
X143377421Y-118142024D01*
X143383332Y-118137640D01*
X143389645Y-118133856D01*
X143396299Y-118130709D01*
X143403229Y-118128229D01*
X143410368Y-118126441D01*
X143417649Y-118125361D01*
X143425000Y-118125000D01*
X143575000Y-118125000D01*
X143582351Y-118125361D01*
X143582351Y-118125361D01*
G37*
D25*
X143500000Y-118550000D03*
D14*
G36*
X143082351Y-118125361D02*
G01*
X143089632Y-118126441D01*
X143096771Y-118128229D01*
X143103701Y-118130709D01*
X143110355Y-118133856D01*
X143116668Y-118137640D01*
X143122579Y-118142024D01*
X143128033Y-118146967D01*
X143132976Y-118152421D01*
X143137360Y-118158332D01*
X143141144Y-118164645D01*
X143144291Y-118171299D01*
X143146771Y-118178229D01*
X143148559Y-118185368D01*
X143149639Y-118192649D01*
X143150000Y-118200000D01*
X143150000Y-118900000D01*
X143149639Y-118907351D01*
X143148559Y-118914632D01*
X143146771Y-118921771D01*
X143144291Y-118928701D01*
X143141144Y-118935355D01*
X143137360Y-118941668D01*
X143132976Y-118947579D01*
X143128033Y-118953033D01*
X143122579Y-118957976D01*
X143116668Y-118962360D01*
X143110355Y-118966144D01*
X143103701Y-118969291D01*
X143096771Y-118971771D01*
X143089632Y-118973559D01*
X143082351Y-118974639D01*
X143075000Y-118975000D01*
X142925000Y-118975000D01*
X142917649Y-118974639D01*
X142910368Y-118973559D01*
X142903229Y-118971771D01*
X142896299Y-118969291D01*
X142889645Y-118966144D01*
X142883332Y-118962360D01*
X142877421Y-118957976D01*
X142871967Y-118953033D01*
X142867024Y-118947579D01*
X142862640Y-118941668D01*
X142858856Y-118935355D01*
X142855709Y-118928701D01*
X142853229Y-118921771D01*
X142851441Y-118914632D01*
X142850361Y-118907351D01*
X142850000Y-118900000D01*
X142850000Y-118200000D01*
X142850361Y-118192649D01*
X142851441Y-118185368D01*
X142853229Y-118178229D01*
X142855709Y-118171299D01*
X142858856Y-118164645D01*
X142862640Y-118158332D01*
X142867024Y-118152421D01*
X142871967Y-118146967D01*
X142877421Y-118142024D01*
X142883332Y-118137640D01*
X142889645Y-118133856D01*
X142896299Y-118130709D01*
X142903229Y-118128229D01*
X142910368Y-118126441D01*
X142917649Y-118125361D01*
X142925000Y-118125000D01*
X143075000Y-118125000D01*
X143082351Y-118125361D01*
X143082351Y-118125361D01*
G37*
D25*
X143000000Y-118550000D03*
D14*
G36*
X142582351Y-118125361D02*
G01*
X142589632Y-118126441D01*
X142596771Y-118128229D01*
X142603701Y-118130709D01*
X142610355Y-118133856D01*
X142616668Y-118137640D01*
X142622579Y-118142024D01*
X142628033Y-118146967D01*
X142632976Y-118152421D01*
X142637360Y-118158332D01*
X142641144Y-118164645D01*
X142644291Y-118171299D01*
X142646771Y-118178229D01*
X142648559Y-118185368D01*
X142649639Y-118192649D01*
X142650000Y-118200000D01*
X142650000Y-118900000D01*
X142649639Y-118907351D01*
X142648559Y-118914632D01*
X142646771Y-118921771D01*
X142644291Y-118928701D01*
X142641144Y-118935355D01*
X142637360Y-118941668D01*
X142632976Y-118947579D01*
X142628033Y-118953033D01*
X142622579Y-118957976D01*
X142616668Y-118962360D01*
X142610355Y-118966144D01*
X142603701Y-118969291D01*
X142596771Y-118971771D01*
X142589632Y-118973559D01*
X142582351Y-118974639D01*
X142575000Y-118975000D01*
X142425000Y-118975000D01*
X142417649Y-118974639D01*
X142410368Y-118973559D01*
X142403229Y-118971771D01*
X142396299Y-118969291D01*
X142389645Y-118966144D01*
X142383332Y-118962360D01*
X142377421Y-118957976D01*
X142371967Y-118953033D01*
X142367024Y-118947579D01*
X142362640Y-118941668D01*
X142358856Y-118935355D01*
X142355709Y-118928701D01*
X142353229Y-118921771D01*
X142351441Y-118914632D01*
X142350361Y-118907351D01*
X142350000Y-118900000D01*
X142350000Y-118200000D01*
X142350361Y-118192649D01*
X142351441Y-118185368D01*
X142353229Y-118178229D01*
X142355709Y-118171299D01*
X142358856Y-118164645D01*
X142362640Y-118158332D01*
X142367024Y-118152421D01*
X142371967Y-118146967D01*
X142377421Y-118142024D01*
X142383332Y-118137640D01*
X142389645Y-118133856D01*
X142396299Y-118130709D01*
X142403229Y-118128229D01*
X142410368Y-118126441D01*
X142417649Y-118125361D01*
X142425000Y-118125000D01*
X142575000Y-118125000D01*
X142582351Y-118125361D01*
X142582351Y-118125361D01*
G37*
D25*
X142500000Y-118550000D03*
D14*
G36*
X142157351Y-119100361D02*
G01*
X142164632Y-119101441D01*
X142171771Y-119103229D01*
X142178701Y-119105709D01*
X142185355Y-119108856D01*
X142191668Y-119112640D01*
X142197579Y-119117024D01*
X142203033Y-119121967D01*
X142207976Y-119127421D01*
X142212360Y-119133332D01*
X142216144Y-119139645D01*
X142219291Y-119146299D01*
X142221771Y-119153229D01*
X142223559Y-119160368D01*
X142224639Y-119167649D01*
X142225000Y-119175000D01*
X142225000Y-119325000D01*
X142224639Y-119332351D01*
X142223559Y-119339632D01*
X142221771Y-119346771D01*
X142219291Y-119353701D01*
X142216144Y-119360355D01*
X142212360Y-119366668D01*
X142207976Y-119372579D01*
X142203033Y-119378033D01*
X142197579Y-119382976D01*
X142191668Y-119387360D01*
X142185355Y-119391144D01*
X142178701Y-119394291D01*
X142171771Y-119396771D01*
X142164632Y-119398559D01*
X142157351Y-119399639D01*
X142150000Y-119400000D01*
X141450000Y-119400000D01*
X141442649Y-119399639D01*
X141435368Y-119398559D01*
X141428229Y-119396771D01*
X141421299Y-119394291D01*
X141414645Y-119391144D01*
X141408332Y-119387360D01*
X141402421Y-119382976D01*
X141396967Y-119378033D01*
X141392024Y-119372579D01*
X141387640Y-119366668D01*
X141383856Y-119360355D01*
X141380709Y-119353701D01*
X141378229Y-119346771D01*
X141376441Y-119339632D01*
X141375361Y-119332351D01*
X141375000Y-119325000D01*
X141375000Y-119175000D01*
X141375361Y-119167649D01*
X141376441Y-119160368D01*
X141378229Y-119153229D01*
X141380709Y-119146299D01*
X141383856Y-119139645D01*
X141387640Y-119133332D01*
X141392024Y-119127421D01*
X141396967Y-119121967D01*
X141402421Y-119117024D01*
X141408332Y-119112640D01*
X141414645Y-119108856D01*
X141421299Y-119105709D01*
X141428229Y-119103229D01*
X141435368Y-119101441D01*
X141442649Y-119100361D01*
X141450000Y-119100000D01*
X142150000Y-119100000D01*
X142157351Y-119100361D01*
X142157351Y-119100361D01*
G37*
D25*
X141800000Y-119250000D03*
D14*
G36*
X142157351Y-119600361D02*
G01*
X142164632Y-119601441D01*
X142171771Y-119603229D01*
X142178701Y-119605709D01*
X142185355Y-119608856D01*
X142191668Y-119612640D01*
X142197579Y-119617024D01*
X142203033Y-119621967D01*
X142207976Y-119627421D01*
X142212360Y-119633332D01*
X142216144Y-119639645D01*
X142219291Y-119646299D01*
X142221771Y-119653229D01*
X142223559Y-119660368D01*
X142224639Y-119667649D01*
X142225000Y-119675000D01*
X142225000Y-119825000D01*
X142224639Y-119832351D01*
X142223559Y-119839632D01*
X142221771Y-119846771D01*
X142219291Y-119853701D01*
X142216144Y-119860355D01*
X142212360Y-119866668D01*
X142207976Y-119872579D01*
X142203033Y-119878033D01*
X142197579Y-119882976D01*
X142191668Y-119887360D01*
X142185355Y-119891144D01*
X142178701Y-119894291D01*
X142171771Y-119896771D01*
X142164632Y-119898559D01*
X142157351Y-119899639D01*
X142150000Y-119900000D01*
X141450000Y-119900000D01*
X141442649Y-119899639D01*
X141435368Y-119898559D01*
X141428229Y-119896771D01*
X141421299Y-119894291D01*
X141414645Y-119891144D01*
X141408332Y-119887360D01*
X141402421Y-119882976D01*
X141396967Y-119878033D01*
X141392024Y-119872579D01*
X141387640Y-119866668D01*
X141383856Y-119860355D01*
X141380709Y-119853701D01*
X141378229Y-119846771D01*
X141376441Y-119839632D01*
X141375361Y-119832351D01*
X141375000Y-119825000D01*
X141375000Y-119675000D01*
X141375361Y-119667649D01*
X141376441Y-119660368D01*
X141378229Y-119653229D01*
X141380709Y-119646299D01*
X141383856Y-119639645D01*
X141387640Y-119633332D01*
X141392024Y-119627421D01*
X141396967Y-119621967D01*
X141402421Y-119617024D01*
X141408332Y-119612640D01*
X141414645Y-119608856D01*
X141421299Y-119605709D01*
X141428229Y-119603229D01*
X141435368Y-119601441D01*
X141442649Y-119600361D01*
X141450000Y-119600000D01*
X142150000Y-119600000D01*
X142157351Y-119600361D01*
X142157351Y-119600361D01*
G37*
D25*
X141800000Y-119750000D03*
D14*
G36*
X142157351Y-120100361D02*
G01*
X142164632Y-120101441D01*
X142171771Y-120103229D01*
X142178701Y-120105709D01*
X142185355Y-120108856D01*
X142191668Y-120112640D01*
X142197579Y-120117024D01*
X142203033Y-120121967D01*
X142207976Y-120127421D01*
X142212360Y-120133332D01*
X142216144Y-120139645D01*
X142219291Y-120146299D01*
X142221771Y-120153229D01*
X142223559Y-120160368D01*
X142224639Y-120167649D01*
X142225000Y-120175000D01*
X142225000Y-120325000D01*
X142224639Y-120332351D01*
X142223559Y-120339632D01*
X142221771Y-120346771D01*
X142219291Y-120353701D01*
X142216144Y-120360355D01*
X142212360Y-120366668D01*
X142207976Y-120372579D01*
X142203033Y-120378033D01*
X142197579Y-120382976D01*
X142191668Y-120387360D01*
X142185355Y-120391144D01*
X142178701Y-120394291D01*
X142171771Y-120396771D01*
X142164632Y-120398559D01*
X142157351Y-120399639D01*
X142150000Y-120400000D01*
X141450000Y-120400000D01*
X141442649Y-120399639D01*
X141435368Y-120398559D01*
X141428229Y-120396771D01*
X141421299Y-120394291D01*
X141414645Y-120391144D01*
X141408332Y-120387360D01*
X141402421Y-120382976D01*
X141396967Y-120378033D01*
X141392024Y-120372579D01*
X141387640Y-120366668D01*
X141383856Y-120360355D01*
X141380709Y-120353701D01*
X141378229Y-120346771D01*
X141376441Y-120339632D01*
X141375361Y-120332351D01*
X141375000Y-120325000D01*
X141375000Y-120175000D01*
X141375361Y-120167649D01*
X141376441Y-120160368D01*
X141378229Y-120153229D01*
X141380709Y-120146299D01*
X141383856Y-120139645D01*
X141387640Y-120133332D01*
X141392024Y-120127421D01*
X141396967Y-120121967D01*
X141402421Y-120117024D01*
X141408332Y-120112640D01*
X141414645Y-120108856D01*
X141421299Y-120105709D01*
X141428229Y-120103229D01*
X141435368Y-120101441D01*
X141442649Y-120100361D01*
X141450000Y-120100000D01*
X142150000Y-120100000D01*
X142157351Y-120100361D01*
X142157351Y-120100361D01*
G37*
D25*
X141800000Y-120250000D03*
D14*
G36*
X142157351Y-120600361D02*
G01*
X142164632Y-120601441D01*
X142171771Y-120603229D01*
X142178701Y-120605709D01*
X142185355Y-120608856D01*
X142191668Y-120612640D01*
X142197579Y-120617024D01*
X142203033Y-120621967D01*
X142207976Y-120627421D01*
X142212360Y-120633332D01*
X142216144Y-120639645D01*
X142219291Y-120646299D01*
X142221771Y-120653229D01*
X142223559Y-120660368D01*
X142224639Y-120667649D01*
X142225000Y-120675000D01*
X142225000Y-120825000D01*
X142224639Y-120832351D01*
X142223559Y-120839632D01*
X142221771Y-120846771D01*
X142219291Y-120853701D01*
X142216144Y-120860355D01*
X142212360Y-120866668D01*
X142207976Y-120872579D01*
X142203033Y-120878033D01*
X142197579Y-120882976D01*
X142191668Y-120887360D01*
X142185355Y-120891144D01*
X142178701Y-120894291D01*
X142171771Y-120896771D01*
X142164632Y-120898559D01*
X142157351Y-120899639D01*
X142150000Y-120900000D01*
X141450000Y-120900000D01*
X141442649Y-120899639D01*
X141435368Y-120898559D01*
X141428229Y-120896771D01*
X141421299Y-120894291D01*
X141414645Y-120891144D01*
X141408332Y-120887360D01*
X141402421Y-120882976D01*
X141396967Y-120878033D01*
X141392024Y-120872579D01*
X141387640Y-120866668D01*
X141383856Y-120860355D01*
X141380709Y-120853701D01*
X141378229Y-120846771D01*
X141376441Y-120839632D01*
X141375361Y-120832351D01*
X141375000Y-120825000D01*
X141375000Y-120675000D01*
X141375361Y-120667649D01*
X141376441Y-120660368D01*
X141378229Y-120653229D01*
X141380709Y-120646299D01*
X141383856Y-120639645D01*
X141387640Y-120633332D01*
X141392024Y-120627421D01*
X141396967Y-120621967D01*
X141402421Y-120617024D01*
X141408332Y-120612640D01*
X141414645Y-120608856D01*
X141421299Y-120605709D01*
X141428229Y-120603229D01*
X141435368Y-120601441D01*
X141442649Y-120600361D01*
X141450000Y-120600000D01*
X142150000Y-120600000D01*
X142157351Y-120600361D01*
X142157351Y-120600361D01*
G37*
D25*
X141800000Y-120750000D03*
D14*
G36*
X142157351Y-121100361D02*
G01*
X142164632Y-121101441D01*
X142171771Y-121103229D01*
X142178701Y-121105709D01*
X142185355Y-121108856D01*
X142191668Y-121112640D01*
X142197579Y-121117024D01*
X142203033Y-121121967D01*
X142207976Y-121127421D01*
X142212360Y-121133332D01*
X142216144Y-121139645D01*
X142219291Y-121146299D01*
X142221771Y-121153229D01*
X142223559Y-121160368D01*
X142224639Y-121167649D01*
X142225000Y-121175000D01*
X142225000Y-121325000D01*
X142224639Y-121332351D01*
X142223559Y-121339632D01*
X142221771Y-121346771D01*
X142219291Y-121353701D01*
X142216144Y-121360355D01*
X142212360Y-121366668D01*
X142207976Y-121372579D01*
X142203033Y-121378033D01*
X142197579Y-121382976D01*
X142191668Y-121387360D01*
X142185355Y-121391144D01*
X142178701Y-121394291D01*
X142171771Y-121396771D01*
X142164632Y-121398559D01*
X142157351Y-121399639D01*
X142150000Y-121400000D01*
X141450000Y-121400000D01*
X141442649Y-121399639D01*
X141435368Y-121398559D01*
X141428229Y-121396771D01*
X141421299Y-121394291D01*
X141414645Y-121391144D01*
X141408332Y-121387360D01*
X141402421Y-121382976D01*
X141396967Y-121378033D01*
X141392024Y-121372579D01*
X141387640Y-121366668D01*
X141383856Y-121360355D01*
X141380709Y-121353701D01*
X141378229Y-121346771D01*
X141376441Y-121339632D01*
X141375361Y-121332351D01*
X141375000Y-121325000D01*
X141375000Y-121175000D01*
X141375361Y-121167649D01*
X141376441Y-121160368D01*
X141378229Y-121153229D01*
X141380709Y-121146299D01*
X141383856Y-121139645D01*
X141387640Y-121133332D01*
X141392024Y-121127421D01*
X141396967Y-121121967D01*
X141402421Y-121117024D01*
X141408332Y-121112640D01*
X141414645Y-121108856D01*
X141421299Y-121105709D01*
X141428229Y-121103229D01*
X141435368Y-121101441D01*
X141442649Y-121100361D01*
X141450000Y-121100000D01*
X142150000Y-121100000D01*
X142157351Y-121100361D01*
X142157351Y-121100361D01*
G37*
D25*
X141800000Y-121250000D03*
D14*
G36*
X142157351Y-121600361D02*
G01*
X142164632Y-121601441D01*
X142171771Y-121603229D01*
X142178701Y-121605709D01*
X142185355Y-121608856D01*
X142191668Y-121612640D01*
X142197579Y-121617024D01*
X142203033Y-121621967D01*
X142207976Y-121627421D01*
X142212360Y-121633332D01*
X142216144Y-121639645D01*
X142219291Y-121646299D01*
X142221771Y-121653229D01*
X142223559Y-121660368D01*
X142224639Y-121667649D01*
X142225000Y-121675000D01*
X142225000Y-121825000D01*
X142224639Y-121832351D01*
X142223559Y-121839632D01*
X142221771Y-121846771D01*
X142219291Y-121853701D01*
X142216144Y-121860355D01*
X142212360Y-121866668D01*
X142207976Y-121872579D01*
X142203033Y-121878033D01*
X142197579Y-121882976D01*
X142191668Y-121887360D01*
X142185355Y-121891144D01*
X142178701Y-121894291D01*
X142171771Y-121896771D01*
X142164632Y-121898559D01*
X142157351Y-121899639D01*
X142150000Y-121900000D01*
X141450000Y-121900000D01*
X141442649Y-121899639D01*
X141435368Y-121898559D01*
X141428229Y-121896771D01*
X141421299Y-121894291D01*
X141414645Y-121891144D01*
X141408332Y-121887360D01*
X141402421Y-121882976D01*
X141396967Y-121878033D01*
X141392024Y-121872579D01*
X141387640Y-121866668D01*
X141383856Y-121860355D01*
X141380709Y-121853701D01*
X141378229Y-121846771D01*
X141376441Y-121839632D01*
X141375361Y-121832351D01*
X141375000Y-121825000D01*
X141375000Y-121675000D01*
X141375361Y-121667649D01*
X141376441Y-121660368D01*
X141378229Y-121653229D01*
X141380709Y-121646299D01*
X141383856Y-121639645D01*
X141387640Y-121633332D01*
X141392024Y-121627421D01*
X141396967Y-121621967D01*
X141402421Y-121617024D01*
X141408332Y-121612640D01*
X141414645Y-121608856D01*
X141421299Y-121605709D01*
X141428229Y-121603229D01*
X141435368Y-121601441D01*
X141442649Y-121600361D01*
X141450000Y-121600000D01*
X142150000Y-121600000D01*
X142157351Y-121600361D01*
X142157351Y-121600361D01*
G37*
D25*
X141800000Y-121750000D03*
M02*
