G04 #@! TF.GenerationSoftware,KiCad,Pcbnew,(5.1.0)-1*
G04 #@! TF.CreationDate,2020-06-23T20:51:49+01:00*
G04 #@! TF.ProjectId,Universal Interface Board - Copy,556e6976-6572-4736-916c-20496e746572,-*
G04 #@! TF.SameCoordinates,Original*
G04 #@! TF.FileFunction,Profile,NP*
%FSLAX46Y46*%
G04 Gerber Fmt 4.6, Leading zero omitted, Abs format (unit mm)*
G04 Created by KiCad (PCBNEW (5.1.0)-1) date 2020-06-23 20:51:49*
%MOMM*%
%LPD*%
G04 APERTURE LIST*
%ADD10C,0.100000*%
G04 APERTURE END LIST*
D10*
X107950400Y-103187000D02*
X107950400Y-121981000D01*
X107950400Y-68310000D02*
X107950400Y-85187000D01*
X112950400Y-86187000D02*
G75*
G03X112450400Y-85687000I-500000J0D01*
G01*
X107950400Y-85187000D02*
G75*
G03X108450400Y-85687000I500000J0D01*
G01*
X108450400Y-85687000D02*
X112450400Y-85687000D01*
X108449527Y-102687001D02*
G75*
G03X107950400Y-103187000I873J-499999D01*
G01*
X112450400Y-102687000D02*
G75*
G03X112950400Y-102187000I0J500000D01*
G01*
X112450400Y-102687000D02*
X108450400Y-102687000D01*
X112950400Y-86187000D02*
X112950400Y-102187000D01*
X153950400Y-103060000D02*
X153950400Y-118060000D01*
X151325890Y-91580000D02*
G75*
G03X151325890Y-91580000I-14546490J0D01*
G01*
X151950400Y-118060000D02*
X151950400Y-103060000D01*
X153950400Y-103060000D02*
G75*
G03X151950400Y-103060000I-1000000J0D01*
G01*
X151950400Y-118060000D02*
G75*
G03X153950400Y-118060000I1000000J0D01*
G01*
X172950400Y-68310000D02*
G75*
G03X169950400Y-65310000I-3000000J0D01*
G01*
X169950400Y-125005381D02*
G75*
G03X172974400Y-121933000I0J3024381D01*
G01*
X107950400Y-121981000D02*
G75*
G03X110950400Y-124981000I3000000J0D01*
G01*
X110950400Y-65310000D02*
G75*
G03X107950400Y-68310000I0J-3000000D01*
G01*
X169950400Y-65310000D02*
X110950400Y-65310000D01*
X172974400Y-121933000D02*
X172950400Y-68310000D01*
X110950400Y-124981000D02*
X169950400Y-125005381D01*
M02*
